<?xml version="1.0" encoding="utf-8"?>
<!-- Generator: Adobe Illustrator 22.0.1, SVG Export Plug-In . SVG Version: 6.00 Build 0)  -->
<svg version="1.1" id="Layer_1" xmlns="http://www.w3.org/2000/svg" xmlns:xlink="http://www.w3.org/1999/xlink" x="0px" y="0px"
	 viewBox="0 0 234.1 214.1" style="enable-background:new 0 0 234.1 214.1;" xml:space="preserve">
<style type="text/css">
	.st0{fill:#E2E2E2;}
	.st1{fill:#7CC242;}
	.st2{fill:#172E55;}
	.st3{fill:#65A944;}
</style>
<g>
	<polygon class="st0" points="45.4,111 36.6,122.5 64.5,151.2 80.4,129.8 	"/>
	<path class="st1" d="M84,162.6l-9.2-6.8c-1.3-0.9-1.6-2.8-0.6-4l10.1-13.6c0.9-1.3,2.8-1.6,4-0.6l8.9,6.6"/>
	<polygon class="st1" points="156.9,64 185.2,84.2 184.6,87.3 117.2,179.2 87.7,157.8 154.9,66.3 	"/>
	<path class="st2" d="M108.8,190.8c-1.1,0-2.3-0.3-3.2-1.1l-25.1-18.5c-2.4-1.8-3-5.2-1.2-7.7L153,63.8c1.8-2.4,5.2-3,7.7-1.2
		l25.1,18.5c1.2,0.9,1.9,2.1,2.2,3.6c0.2,1.5-0.1,2.9-1,4.1l-73.7,99.8C112.1,190.1,110.5,190.8,108.8,190.8z M108.8,185.4l-1.6,2.2
		L108.8,185.4L108.8,185.4z M157.4,67.1l-73.7,99.8l25.1,18.5l73.7-99.8L157.4,67.1z"/>
	<path class="st2" d="M184.7,83.8l-4.8-2.7L199,46.7l-9.3-7.1l-0.1,0.1l-0.3,0.2l-26.6,27.5l-3.9-3.8l26.5-27.4
		c0.9-1.1,2.2-1.9,3.6-2.1c1.5-0.2,3,0.1,4.2,1l9.3,6.9c1.2,0.9,2,2.2,2.2,3.7c0.2,1.4-0.1,2.8-0.9,4L184.7,83.8z"/>
	<path class="st2" d="M194.5,42.9c-1.9-1.4-2.3-4.1-0.9-6.1l4.7-6.3c1.4-1.9,4.1-2.3,6.1-0.9c1.9,1.4,2.3,4.1,0.9,6.1l-4.7,6.3
		C199.2,43.9,196.5,44.4,194.5,42.9z"/>
	<path class="st2" d="M115.6,181.1c-0.6,0-1.1-0.2-1.6-0.5L87.5,161c-1.2-0.9-1.5-2.6-0.6-3.8c0.9-1.2,2.6-1.5,3.8-0.6l26.5,19.5
		c1.2,0.9,1.5,2.6,0.6,3.8C117.2,180.7,116.4,181.1,115.6,181.1z"/>
	<polygon class="st2" points="141,122 137.5,126.7 142.2,130.1 145.6,125.5 141,122 	"/>
	
		<rect x="98.4" y="149.8" transform="matrix(0.5937 -0.8047 0.8047 0.5937 -73.2575 159.9319)" class="st2" width="46.8" height="5.5"/>
	<path class="st2" d="M93.1,180.7l-29.5-21.8c-1.2-0.9-2-2.2-2.2-3.7c-0.2-1.5,0.1-3,1-4.2l18.2-24.6c0.9-1.2,2.2-2,3.7-2.2
		c1.5-0.2,3,0.2,4.2,1l15.1,11.1l-3.3,4.4l-15.1-11.1l-18.4,24.6l29.5,21.9L93.1,180.7z"/>
	<path class="st2" d="M63.2,153.4l-27.4-26.5c-2.4-1.9-2.8-5.3-1-7.8l6.9-9.3c0.9-1.2,2.2-2,3.7-2.2c1.4-0.2,2.9,0.1,4,0.9l34,18.8
		l-2.7,4.8l-34.4-19.1l-7.1,9.3l0.1,0.1l0.2,0.4L67,149.5L63.2,153.4z"/>
	<path class="st2" d="M42.4,117.5c-1.4,1.9-4.1,2.3-6.1,0.9l-6.3-4.7c-1.9-1.4-2.3-4.1-0.9-6.1c1.4-1.9,4.1-2.3,6.1-0.9l6.3,4.7
		C43.4,112.9,43.8,115.6,42.4,117.5z"/>
	<polygon class="st3" points="177.3,82 111.5,171.5 116.1,175.2 182.2,85.6 	"/>
</g>
</svg>
