<!-- Generated by IcoMoon.io -->
<svg version="1.1" xmlns="http://www.w3.org/2000/svg" width="256" height="256" viewBox="0 0 256 256">
<title>add-o</title>
<path fill="#333" d="M221.184 84.537c0-0.228-0.227-0.455-0.227-0.683s-0.227-0.455-0.227-0.91c0-0.228-0.227-0.455-0.455-0.683 0-0.228-0.227-0.455-0.227-0.683-0.227-0.455-0.683-0.91-0.91-1.138 0 0 0 0 0 0l-60.302-60.302c-0.91-0.91-2.048-1.593-3.186-1.82-1.365-0.91-2.731-1.365-4.551-1.365h-99.442c-9.33 0-17.067 7.737-17.067 17.067v187.961c0 9.33 7.737 17.067 17.067 17.067h152.69c9.33 0 17.067-7.737 17.067-17.067v-135.851c0-0.683 0-1.138-0.227-1.593zM159.061 42.894l34.361 34.361h-24.804c-1.365 0-5.917-0.455-8.192-2.503-0.683-0.455-1.365-1.593-1.365-3.641v-28.217zM204.345 223.118h-152.69c-0.683 0-1.138-0.455-1.138-1.138v-187.961c0-0.683 0.455-1.138 1.138-1.138h91.477v38.457c0 6.144 2.048 11.378 6.144 15.246 6.599 6.371 16.156 6.827 19.115 6.827 0.227 0 0.455 0 0.455 0h36.636v128.797c0 0.227-0.455 0.91-1.138 0.91z"></path>
<path fill="#333" d="M155.648 130.048h-21.163v-21.163c0-4.323-3.641-7.965-7.965-7.965s-7.965 3.641-7.965 7.965v21.163h-21.163c-4.323 0-7.965 3.641-7.965 7.964s3.641 7.964 7.965 7.964h21.163v21.163c0 4.323 3.641 7.964 7.965 7.964s7.965-3.641 7.965-7.964v-21.163h21.163c4.323 0 7.964-3.641 7.964-7.964s-3.413-7.964-7.964-7.964z"></path>
</svg>
