<!-- Generated by IcoMoon.io -->
<svg version="1.1" xmlns="http://www.w3.org/2000/svg" width="256" height="256" viewBox="0 0 256 256">
<title>alpha</title>
<path fill="#333" d="M112.892 130.998h30.492l-15.172-33.971-15.32 33.971z"></path>
<path fill="#333" d="M221.762 110.201s0-2.22-35.895-38.263-39.817-37.005-39.817-37.005c-4.874-3.84-11.102-6.16-17.873-6.16s-12.999 2.319-17.935 6.207l0.062-0.047s-3.923 1.628-39.151 37.005c-12.959 12.073-24.912 24.731-36.023 38.114l-0.538 0.668c-3.765 4.914-6.032 11.147-6.032 17.91s2.268 12.997 6.085 17.981l-0.052-0.071s2.59 5.551 37.671 40.631c32.712 32.712 38.041 35.081 38.041 35.081 4.937 3.66 11.148 5.858 17.873 5.858s12.936-2.199 17.955-5.916l-0.082 0.058s4.367-1.702 39.078-36.413 36.635-39.299 36.635-39.299c3.886-4.961 6.232-11.292 6.232-18.17s-2.346-13.208-6.281-18.234l0.049 0.065zM172.101 164.82c-1.746 1.607-4.085 2.591-6.655 2.591-0.028 0-0.056-0-0.084-0h0.005c-1.735-0.036-3.341-0.555-4.698-1.428l0.036 0.022c-1.55-0.969-2.738-2.395-3.386-4.088l-0.019-0.057-6.957-15.394h-44.406l-6.883 15.394c-0.694 1.717-1.844 3.128-3.299 4.125l-0.031 0.020c-1.364 0.874-3.025 1.396-4.808 1.406h-0.002c-2.618-0.005-5.006-0.986-6.82-2.599l0.010 0.009c-1.811-1.45-2.961-3.66-2.961-6.139 0-0.027 0-0.054 0.001-0.082v0.004c0.036-1.518 0.415-2.938 1.061-4.2l-0.026 0.054 35.303-74.010c0.941-2.044 2.446-3.692 4.316-4.784l0.050-0.027c1.762-1.065 3.891-1.695 6.167-1.695 4.632 0 8.654 2.611 10.675 6.44l0.032 0.066 35.303 74.010c0.586 1.211 0.96 2.626 1.036 4.119l0.001 0.026c0 0.023 0 0.051 0 0.078 0 2.479-1.15 4.69-2.945 6.127l-0.016 0.012z"></path>
</svg>
