<!-- Generated by IcoMoon.io -->
<svg version="1.1" xmlns="http://www.w3.org/2000/svg" width="256" height="256" viewBox="0 0 256 256">
<title>applicant-o</title>
<path fill="#333" d="M139.947 154.283h-23.893c-42.781 0-71.68 27.534-71.68 68.722 0 4.323 3.641 7.964 7.965 7.964s7.965-3.641 7.965-7.964c0-32.085 21.845-52.793 55.751-52.793h23.893c32.768 0 55.751 21.618 55.751 52.793 0 4.323 3.641 7.964 7.964 7.964s7.964-3.641 7.964-7.964c0-39.822-30.037-68.722-71.68-68.722z"></path>
<path fill="#333" d="M127.204 143.815c32.768 0 59.392-26.624 59.392-59.392s-26.624-59.392-59.392-59.392-59.392 26.624-59.392 59.392c0 32.768 26.624 59.392 59.392 59.392zM127.204 40.96c23.893 0 43.463 19.57 43.463 43.463s-19.57 43.463-43.463 43.463c-23.893 0-43.463-19.57-43.463-43.463 0-24.121 19.57-43.463 43.463-43.463z"></path>
</svg>
