<!-- Generated by IcoMoon.io -->
<svg version="1.1" xmlns="http://www.w3.org/2000/svg" width="256" height="256" viewBox="0 0 256 256">
<title>bell</title>
<path fill="#333" d="M216.946 114.358c-3.869-6.19-10.059-10.059-17.024-10.059h-0.774c-16.25-0.774-30.953-9.286-39.464-23.988-1.548-2.322-2.322-4.643-3.095-6.964v0c-1.548-3.095-3.095-6.964-4.643-10.059-17.024-28.631-54.167-38.691-82.798-21.667l-0.774 0.774h-2.322c-28.631 17.024-38.691 54.167-21.667 82.798 1.547 3.095 3.869 6.19 6.19 9.286v0c1.547 2.322 3.095 3.869 4.643 6.19 8.512 14.703 9.286 31.727 1.547 46.429v0.774c-2.322 6.19-2.322 13.929 1.547 20.119 6.19 10.059 18.571 13.155 28.631 7.738l60.357-35.595 1.548-0.774 60.357-35.596c10.060-6.19 13.929-19.346 7.738-29.405z"></path>
<path fill="#333" d="M123.314 212.632c6.964 6.19 16.25 10.060 27.083 10.060 22.441 0 41.012-18.571 41.012-41.012 0-3.095 0-5.417-0.774-8.512l-67.322 39.464z"></path>
</svg>
