<!-- Generated by IcoMoon.io -->
<svg version="1.1" xmlns="http://www.w3.org/2000/svg" width="256" height="256" viewBox="0 0 256 256">
<title>bookmark</title>
<path fill="#333" d="M196.137 43.744v0c0-0.733 0-0.733 0-0.733v0c-0.733-6.594-5.861-11.722-13.188-11.722 0 0 0 0 0 0v0h-110.631c0 0 0 0 0 0-6.594 0-12.456 5.129-13.188 11.722v0c0 0 0 0.733 0 0.733v0c0 6.594-2.198 43.227-2.198 87.187 0 48.356 1.465 80.592 1.465 80.592 0 7.327 5.861 13.188 13.188 13.188 3.663 0 6.594-1.465 9.525-3.663l44.692-38.831c1.465-1.465 2.93-0.733 3.663 0l45.425 38.831c2.198 2.198 5.861 3.663 9.525 3.663 7.327 0 13.188-5.861 13.188-13.188 0 0 1.465-32.237 1.465-80.592-0.733-43.96-2.198-80.592-2.93-87.187z"></path>
</svg>
