<!-- Generated by IcoMoon.io -->
<svg version="1.1" xmlns="http://www.w3.org/2000/svg" width="256" height="256" viewBox="0 0 256 256">
<title>chat</title>
<path fill="#333" d="M148.872 45.367c-21.225-0.707-42.451-1.415-63.676-0.707-14.858 0-30.423 0-45.281 0.707-4.245 0.707-7.075 3.538-7.075 7.783v86.317c0 4.245 3.538 7.783 7.075 7.783h2.123c1.415 9.198 2.83 16.981 2.83 16.981s2.123 9.905 10.613 3.538c6.367-5.66 12.736-12.736 17.688-19.103h12.028c21.225 0 42.451 0 63.676-0.707 4.245 0 7.076-3.538 7.783-7.783v-87.024c0-4.245-3.538-7.783-7.783-7.783z"></path>
<path fill="#333" d="M223.161 133.099c0-26.886-23.348-49.526-54.478-54.478v59.431c0.707 11.32-7.783 21.226-18.395 21.933-0.707 0-2.123 0-2.83 0h-51.649c11.32 16.981 30.423 27.593 50.233 29.008 7.783 8.49 21.226 22.641 26.178 22.641s7.076-13.443 4.245-24.763c26.886-7.783 46.696-29.008 46.696-53.771z"></path>
</svg>
