<!-- Generated by IcoMoon.io -->
<svg version="1.1" xmlns="http://www.w3.org/2000/svg" width="256" height="256" viewBox="0 0 256 256">
<title>configure</title>
<path fill="#333" d="M215.135 97.522c0-16.41-8.597-30.477-20.318-38.292v-6.252c0-13.285-10.941-25.008-25.007-25.008-13.285 0-25.007 10.941-25.007 25.008v4.689c-13.285 7.815-22.663 22.664-22.663 39.856s9.377 32.041 22.663 39.856v65.644c0 13.285 10.941 25.007 25.007 25.007 13.285 0 25.007-10.941 25.007-25.007v-66.426c12.504-8.597 20.318-22.663 20.318-39.074zM169.028 81.111c9.377 0 16.41 7.815 16.41 16.41s-7.815 16.41-16.411 16.41c-9.377 0-16.411-7.815-16.411-16.41s7.033-16.41 16.411-16.41z"></path>
<path fill="#333" d="M111.98 123.311v-70.333c0-13.285-10.941-25.008-25.007-25.008-13.285 0-25.008 10.941-25.008 25.008v71.115c-12.504 8.597-21.1 22.663-21.1 39.074s8.597 30.477 21.1 39.074v0.782c0 13.285 10.941 25.007 25.008 25.007 13.285 0 25.007-10.941 25.007-25.007v-0.782c13.285-7.815 21.882-22.663 21.882-39.074s-8.597-31.259-21.882-39.856zM87.754 179.577c-9.377 0-16.41-7.815-16.41-16.411 0-9.377 7.815-16.411 16.41-16.411 9.377 0 16.41 7.815 16.41 16.411s-7.033 16.411-16.41 16.411z"></path>
</svg>
