<!-- Generated by IcoMoon.io -->
<svg version="1.1" xmlns="http://www.w3.org/2000/svg" width="256" height="256" viewBox="0 0 256 256">
<title>copy-o</title>
<path fill="#333" d="M167.936 54.727h-125.838c-9.33 0-17.067 7.737-17.067 17.067v150.187c0 9.33 7.737 17.067 17.067 17.067h125.838c9.33 0 17.067-7.737 17.067-17.067v-150.187c0-9.33-7.737-17.067-17.067-17.067zM169.074 221.98c0 0.683-0.455 1.138-1.138 1.138h-125.838c-0.683 0-1.138-0.455-1.138-1.138v-150.187c0-0.683 0.455-1.138 1.138-1.138h125.838c0.683 0 1.138 0.455 1.138 1.138v150.187z"></path>
<path fill="#333" d="M213.902 16.953h-125.838c-9.33 0-17.067 7.737-17.067 17.067v5.461c0 4.324 3.641 7.965 7.965 7.965s7.965-3.641 7.965-7.965v-5.461c0-0.683 0.455-1.138 1.138-1.138h125.838c0.683 0 1.138 0.455 1.138 1.138v150.187c0 0.683-0.455 1.138-1.138 1.138h-12.743c-4.323 0-7.964 3.641-7.964 7.964s3.641 7.964 7.964 7.964h12.743c9.33 0 17.067-7.737 17.067-17.067v-150.187c0-9.33-7.737-17.067-17.067-17.067z"></path>
</svg>
