<!-- Generated by IcoMoon.io -->
<svg version="1.1" xmlns="http://www.w3.org/2000/svg" width="256" height="256" viewBox="0 0 256 256">
<title>drag</title>
<path fill="#333" d="M99.27 48.809c0 10.985-8.905 19.89-19.89 19.89s-19.89-8.905-19.89-19.89c0-10.985 8.905-19.89 19.89-19.89s19.89 8.905 19.89 19.89z"></path>
<path fill="#333" d="M99.27 128.368c0 10.985-8.905 19.89-19.89 19.89s-19.89-8.905-19.89-19.89c0-10.985 8.905-19.89 19.89-19.89s19.89 8.905 19.89 19.89z"></path>
<path fill="#333" d="M100.743 207.191c0 10.985-8.905 19.89-19.89 19.89s-19.89-8.905-19.89-19.89c0-10.985 8.905-19.89 19.89-19.89s19.89 8.905 19.89 19.89z"></path>
<path fill="#333" d="M195.036 48.809c0 10.985-8.905 19.89-19.89 19.89s-19.89-8.905-19.89-19.89c0-10.985 8.905-19.89 19.89-19.89s19.89 8.905 19.89 19.89z"></path>
<path fill="#333" d="M195.036 128.368c0 10.985-8.905 19.89-19.89 19.89s-19.89-8.905-19.89-19.89c0-10.985 8.905-19.89 19.89-19.89s19.89 8.905 19.89 19.89z"></path>
<path fill="#333" d="M196.51 207.191c0 10.985-8.905 19.89-19.89 19.89s-19.89-8.905-19.89-19.89c0-10.985 8.905-19.89 19.89-19.89s19.89 8.905 19.89 19.89z"></path>
</svg>
