<!-- Generated by IcoMoon.io -->
<svg version="1.1" xmlns="http://www.w3.org/2000/svg" width="256" height="256" viewBox="0 0 256 256">
<title>employee-o</title>
<path fill="#333" d="M221.981 57.117h-54.158v-8.419c0-9.33-7.737-17.067-17.067-17.067h-43.918c-9.33 0-17.067 7.737-17.067 17.067v8.419h-55.751c-9.33 0-17.067 7.737-17.067 17.067v133.12c0 9.33 7.737 17.067 17.067 17.067h187.961c9.33 0 17.067-7.737 17.067-17.067v-133.12c0-9.557-7.509-17.067-17.067-17.067zM105.7 48.697c0-0.683 0.455-1.138 1.138-1.138h43.918c0.683 0 1.138 0.455 1.138 1.138v13.881c0 0.683-0.455 1.138-1.138 1.138h-43.918c-0.683 0-1.138-0.455-1.138-1.138v-13.881zM62.691 208.441c0-0.455 0.227-0.683 0.227-1.138 0-5.234 1.82-22.756 24.349-22.756h12.061c14.336 0 24.349 9.33 24.349 22.756 0 0.455 0 0.683 0.228 1.138h-61.212zM223.118 207.303c0 0.683-0.455 1.138-1.138 1.138h-82.603c0-0.455 0.227-0.683 0.227-1.138 0-22.3-16.839-38.685-40.277-38.685h-12.061c-24.121 0-40.277 15.474-40.277 38.685 0 0.455 0 0.683 0.227 1.138h-13.198c-0.683 0-1.138-0.455-1.138-1.138v-133.12c0-0.683 0.455-1.138 1.138-1.138h59.165c3.186 4.096 7.965 6.599 13.426 6.599h43.918c5.461 0 10.24-2.503 13.426-6.599h57.799c0.683 0 1.138 0.455 1.138 1.138v133.12z"></path>
<path fill="#333" d="M196.949 121.97h-37.091c-4.323 0-7.964 3.641-7.964 7.964s3.641 7.964 7.964 7.964h37.091c4.323 0 7.964-3.641 7.964-7.964s-3.413-7.965-7.964-7.965z"></path>
<path fill="#333" d="M196.949 156.103h-37.091c-4.323 0-7.964 3.641-7.964 7.964s3.641 7.964 7.964 7.964h37.091c4.323 0 7.964-3.641 7.964-7.964s-3.413-7.964-7.964-7.964z"></path>
<path fill="#333" d="M92.729 93.981c-18.659 0-33.906 15.246-33.906 33.906s15.246 33.906 33.906 33.906 33.906-15.246 33.906-33.906c0-18.659-15.246-33.906-33.906-33.906zM92.729 146.091c-10.013 0-17.977-8.192-17.977-17.977s8.192-17.977 17.977-17.977 17.977 8.192 17.977 17.977-7.965 17.977-17.977 17.977z"></path>
</svg>
