<!-- Generated by IcoMoon.io -->
<svg version="1.1" xmlns="http://www.w3.org/2000/svg" width="256" height="256" viewBox="0 0 256 256">
<title>happy</title>
<path fill="#333" d="M203.957 49.093c-19.174-19.174-49.409-20.648-75.957-20.648s-56.783 1.475-75.957 20.648c-19.911 19.911-20.648 49.409-20.648 75.957 0 0.737 0 4.425 0 5.162 0 26.548 1.475 56.784 20.648 75.957 19.174 19.911 49.409 21.386 75.957 21.386s56.783-1.475 75.957-20.648c19.174-19.174 20.648-49.409 20.648-75.957 0-0.737 0-4.425 0-5.162 0-27.285-0.737-56.784-20.648-76.695zM76.379 77.116c-1.475-2.95 3.687-14.749 13.274-17.698s19.911 2.95 21.386 6.637c0.737 2.95-8.112 1.475-17.698 4.425s-16.224 9.587-16.962 6.637zM105.876 119.15c0 6.637-5.899 12.536-12.537 12.536s-12.537-5.899-12.537-12.537 5.899-12.537 12.537-12.537c6.637 0 12.537 5.899 12.537 12.537zM129.475 196.583c-27.285 0-49.409-33.185-49.409-42.772 0-10.324 22.124 5.899 49.409 5.899s49.409-16.224 49.409-5.899c0 10.324-22.124 42.772-49.409 42.772zM167.085 131.687c-6.637 0-12.536-5.899-12.536-12.537s5.899-12.537 12.536-12.537c6.637 0 12.536 5.899 12.536 12.537s-5.899 12.537-12.536 12.537zM184.784 77.116c-0.737 2.95-7.375-3.687-16.962-6.637s-18.436-1.475-17.698-4.425c0.737-2.95 11.799-9.587 21.386-5.899s14.012 14.012 13.274 16.962z"></path>
</svg>
