<!-- Generated by IcoMoon.io -->
<svg version="1.1" xmlns="http://www.w3.org/2000/svg" width="256" height="256" viewBox="0 0 256 256">
<title>help-pointer</title>
<path fill="#333" d="M197.324 47.614c-17.7-17.7-44.987-19.175-69.324-19.175s-51.624 1.475-69.324 19.175c-17.7 17.7-18.437 44.249-18.437 68.587s1.475 51.624 19.175 69.324c12.537 12.537 30.237 16.963 47.937 18.437 6.637 14.012 13.275 24.337 20.65 23.6 5.9 0 14.012-11.799 21.387-23.6 17.7-1.475 35.399-5.162 47.937-18.437 17.7-17.7 19.175-44.987 19.175-69.324s-1.475-50.886-19.175-68.587zM139.062 171.512c-2.95 2.95-6.637 4.425-11.062 4.425s-8.113-1.475-10.325-4.425c-2.95-2.95-4.425-6.637-4.425-11.062s1.475-8.113 4.425-11.062c2.95-2.95 6.637-4.425 10.325-4.425 4.425 0 8.113 1.475 11.062 4.425s4.425 6.637 4.425 11.062c0 4.425-1.475 8.113-4.425 11.062zM162.662 101.451c-1.475 2.95-3.688 5.9-5.9 8.113s-5.162 5.162-8.85 8.113c-3.688 2.95-5.9 5.162-8.113 7.374-1.475 2.213-2.95 4.425-3.688 6.637s-1.475 3.688-2.95 5.162c-1.475 1.475-3.688 2.213-5.9 2.213-2.95 0-4.425-0.737-6.637-2.95-1.475-1.475-2.213-4.425-2.213-7.375 0-5.162 0.737-8.85 2.95-12.537s4.425-6.637 8.113-10.325c2.213-2.95 4.425-5.162 5.162-6.637 1.475-2.213 1.475-3.688 1.475-5.9s-0.737-4.425-2.213-5.162c-1.475-1.475-3.688-2.213-6.637-2.213-2.213 0-4.425 0.737-7.374 1.475-2.213 0.737-5.162 2.213-8.113 3.688l-3.688 2.213c-2.95 1.475-5.162 2.213-7.374 2.213-2.95 0-5.162-0.737-6.637-2.95-2.213-2.213-2.95-5.162-2.95-8.113 0-2.213 0.737-3.688 1.475-5.162s2.213-2.95 3.688-4.425c4.425-3.688 10.325-5.9 16.225-8.113s11.799-2.95 17.7-2.95c6.637 0 12.537 1.475 17.7 3.688s9.587 5.9 12.537 9.587 4.425 8.85 4.425 14.012c0 3.688-0.737 7.374-2.213 10.325z"></path>
</svg>
