<!-- Generated by IcoMoon.io -->
<svg version="1.1" xmlns="http://www.w3.org/2000/svg" width="256" height="256" viewBox="0 0 256 256">
<title>history-o</title>
<path fill="#333" d="M125.269 158.379c1.82 0 3.641-0.683 5.006-2.048l45.056-45.056c2.731-2.731 2.731-7.282 0-10.013s-7.282-2.731-10.012 0l-40.050 40.050-24.121-24.121c-2.731-2.731-7.282-2.731-10.013 0s-2.731 7.282 0 10.013l28.672 28.672c0 0 0.228 0.227 0.228 0.227s0.228 0.227 0.228 0.227c1.365 1.365 3.186 2.048 5.006 2.048z"></path>
<path fill="#333" d="M128 17.522c-60.985 0-110.592 49.607-110.592 110.365 0 30.037 12.060 58.482 33.451 79.189h-20.707c-4.323 0-7.965 3.641-7.965 7.964s3.641 7.964 7.965 7.964h41.87c0 0 0 0 0 0s0 0 0 0c4.323 0 7.965-3.641 7.965-7.964v-41.87c0-4.323-3.641-7.964-7.965-7.964s-7.965 3.641-7.965 7.964v24.576c-19.57-17.977-30.72-43.236-30.72-69.859 0-52.11 42.325-94.663 94.663-94.663s94.663 42.325 94.663 94.663-42.553 94.663-94.663 94.663c-4.323 0-7.965 3.641-7.965 7.964s3.641 7.964 7.965 7.964c60.985 0 110.592-49.607 110.592-110.592 0-60.757-49.607-110.365-110.592-110.365z"></path>
</svg>
