<!-- Generated by IcoMoon.io -->
<svg version="1.1" xmlns="http://www.w3.org/2000/svg" width="256" height="256" viewBox="0 0 256 256">
<title>info</title>
<path fill="#333" d="M128 227.556c54.571 0 99.556-44.247 99.556-99.556 0-54.571-44.984-99.556-99.556-99.556s-99.556 44.984-99.556 99.556c0 54.571 44.984 99.556 99.556 99.556zM128 69.741c8.112 0 14.749 6.637 14.749 14.749s-6.637 14.749-14.749 14.749c-8.112 0-14.749-6.637-14.749-14.749s6.637-14.749 14.749-14.749zM112.514 125.787c0-8.112 6.637-15.486 15.486-15.486s15.486 6.637 15.486 15.486v44.984c0 8.112-6.637 15.486-15.486 15.486s-15.486-6.637-15.486-15.486v-44.984z"></path>
</svg>
