<!-- Generated by IcoMoon.io -->
<svg version="1.1" xmlns="http://www.w3.org/2000/svg" width="256" height="256" viewBox="0 0 256 256">
<title>integration</title>
<path fill="#333" d="M128.774 109.811c0 0 5.418-0.774 37.926-0.774 35.604 0 37.926 0.774 37.926 0.774 10.062 1.548 16.254 7.74 17.802 17.802 0 0 1.548 2.322 1.548 38.7s-1.548 37.152-1.548 37.152c-1.548 10.062-8.514 16.254-17.802 17.802 0 0-3.096 1.548-37.926 1.548s-37.926-1.548-37.926-1.548c-10.062-1.548-15.48-7.74-17.802-17.802 0 0-1.548-3.87-1.548-36.378 0-34.83 1.548-39.474 1.548-39.474 2.322-10.836 8.514-17.028 17.802-17.802z"></path>
<path fill="#333" d="M96.266 161.669c0-41.022 1.548-46.44 1.548-46.44 2.322-12.384 10.062-19.35 20.898-20.898 0 0 6.192-1.548 42.57-1.548 0-34.83-1.548-37.926-1.548-37.926-1.548-10.836-9.288-18.576-20.124-20.124 0 0-3.096-1.548-43.344-1.548-37.152 0-42.57 1.548-42.57 1.548-10.836 1.548-17.802 8.514-20.124 20.124 0 0-1.548 4.644-1.548 44.118 0 37.152 1.548 41.796 1.548 41.796 3.096 11.61 8.514 17.802 20.124 20.124 0 0 3.096 1.548 42.57 1.548 0 0 0-0.774 0-0.774z"></path>
</svg>
