<!-- Generated by IcoMoon.io -->
<svg version="1.1" xmlns="http://www.w3.org/2000/svg" width="256" height="256" viewBox="0 0 256 256">
<title>job</title>
<path fill="#333" d="M30.969 125.731c27.614 7.415 81.306 21.222 99.715 21.222 19.176 0 71.846-16.363 94.602-23.778 0-1.023 0-2.045 0-3.068 0-0.511 0-0.767-0.256-1.023-0.256-3.068-0.256-5.625-0.511-8.438-0.511-6.903-5.881-12.273-12.784-12.528-10.483-0.511-21.477-0.767-32.471-1.023 0-1.534 0.256-2.813 0.256-4.347 0-28.38-23.011-51.392-51.392-51.392s-51.392 23.011-51.392 51.392c0 1.534 0 2.813 0.256 4.347-10.994 0.256-21.989 0.511-32.471 1.023-6.903 0.256-12.273 5.625-12.784 12.528-0.256 4.091-0.511 7.415-0.767 12.273 0 0 0 0 0 0s0 0 0 0c0 0.256 0 0.511 0 0.767s0 0.256 0 0.511c0 0.511 0 1.023 0 1.534zM127.872 74.084c10.483 0 18.92 8.438 18.92 18.921 0 1.278-0.256 2.557-0.256 3.835-12.273 0-24.545 0-37.073 0-0.256-1.278-0.256-2.557-0.256-3.835 0-10.483 8.438-18.921 18.665-18.921z"></path>
<path fill="#333" d="M130.429 163.316c-20.71 0-74.915-14.063-99.715-20.71 0 19.432 0.511 36.818 1.534 57.528 0.256 6.903 5.881 12.529 12.784 12.784 52.926 2.301 112.755 2.301 165.937 0 6.903-0.256 12.529-5.881 12.784-12.784 1.023-21.477 1.534-39.631 1.534-59.829-20.71 6.648-72.869 23.011-94.857 23.011z"></path>
</svg>
