<!-- Generated by IcoMoon.io -->
<svg version="1.1" xmlns="http://www.w3.org/2000/svg" width="256" height="256" viewBox="0 0 256 256">
<title>learning</title>
<path fill="#333" d="M39.398 88.963c0 0 3.709-2.967 34.864-17.802 33.38-16.319 37.089-17.061 37.089-17.061 11.127-3.709 22.995-3.709 34.122 0 0 0 3.709 0.742 37.831 17.061s34.122 17.061 34.122 17.061c8.16 5.192 5.192 11.868-2.967 16.319 0 0 0 0-31.896 17.802-35.605 19.286-40.798 21.511-40.798 21.511-11.127 3.709-17.061 3.709-28.93 0.742 0 0-14.836-6.676-38.573-20.028-19.286-11.127-35.605-20.028-35.605-20.028-6.676-5.192-6.676-11.127 0.742-15.578z"></path>
<path fill="#333" d="M192.947 143.855l-4.451-14.094c-2.967 1.484-5.934 3.709-9.643 5.935-31.154 18.544-34.864 19.286-34.864 19.286-10.385 4.451-20.77 3.709-31.896 0 0 0-4.451-1.484-34.122-18.544-3.709-2.226-6.676-3.709-9.643-5.934l-4.451 14.094c0 0-2.967 11.869-3.709 16.319s2.225 10.385 11.127 17.061c9.643 6.676 37.831 22.253 48.958 25.221 2.967 0.742 5.192 1.484 8.16 1.484v0 0c2.226 0 5.192-0.742 8.16-1.484 11.127-2.967 39.315-18.544 48.958-25.221s12.61-12.61 11.127-17.061c-0.742-5.192-3.709-17.061-3.709-17.061z"></path>
<path fill="#333" d="M216.684 129.762c1.484-1.484 2.226-2.967 2.967-4.451 0.742-4.451-2.226-8.901-6.676-10.385-4.451-0.742-8.901 2.225-10.385 6.676-0.742 2.967 0.742 5.934 2.226 7.417-1.484 3.709-3.709 10.385-3.709 20.77 0 12.61 0 12.61 0 12.61s5.192 2.226 9.643 2.226 8.901-2.967 8.901-2.967 1.484-21.512-2.967-31.896z"></path>
<path fill="#333" d="M211.491 126.794v0c-1.484 0-2.967-1.484-2.967-2.967v-20.77c0-1.484 1.484-2.967 2.967-2.967v0c1.484 0 2.967 1.484 2.967 2.967v20.77c0 1.484-1.484 2.967-2.967 2.967z"></path>
</svg>
