<!-- Generated by IcoMoon.io -->
<svg version="1.1" xmlns="http://www.w3.org/2000/svg" width="256" height="256" viewBox="0 0 256 256">
<title>onboarding</title>
<path fill="#333" d="M167.197 62.793v0c0-7.327-6.594-13.921-13.921-13.921h-2.93c0 0 0 0 0 0-8.060 0-8.792-6.594-8.792-6.594v0c-1.465-6.594-6.594-10.99-13.188-10.99-5.129 0-10.257 2.93-12.456 7.326-0.733 1.465-0.733 2.931-0.733 3.663v0c0 0-0.733 6.594-8.792 6.594 0 0 0 0 0 0h-2.93c-7.326 0-13.921 5.861-13.921 13.921v0 24.178h78.395v-24.178zM128.366 72.317c-5.129 0-8.792-3.663-8.792-8.792s3.663-8.792 8.792-8.792c4.396 0 8.792 4.396 8.792 8.792s-4.396 8.792-8.792 8.792z"></path>
<path fill="#333" d="M193.573 53.269h-17.583c1.465 2.931 2.93 6.594 2.93 10.257 0 10.257 0 32.97 0 32.97h-102.573c0 0 0-26.376 0-34.435 0-3.663 0.733-6.594 1.465-8.792h-14.653c-8.792 0-16.852 7.327-16.852 16.852v137.74c0 8.792 7.327 16.851 16.852 16.851h129.681c8.792 0 16.851-7.327 16.851-16.851v-137.74c0-9.525-7.327-16.852-16.118-16.852zM168.662 147.782c-14.653 14.653-29.306 28.574-43.96 42.495-5.129 4.396-13.188 4.396-17.584 0l-19.049-18.317c-5.129-4.396-5.129-12.456 0-16.851 0 0 0 0 0 0 5.129-4.396 12.456-4.396 17.584 0l9.525 9.525c11.722-11.722 23.445-22.713 35.168-33.703 5.129-4.396 13.188-4.396 17.584 0v0c5.129 4.396 5.861 12.456 0.733 16.851z"></path>
</svg>
