<!-- Generated by IcoMoon.io -->
<svg version="1.1" xmlns="http://www.w3.org/2000/svg" width="256" height="256" viewBox="0 0 256 256">
<title>onboarding-o</title>
<path fill="#333" d="M201.842 47.218h-27.534c-2.731-2.958-6.599-5.461-12.288-6.144-6.371-0.683-9.785-7.965-10.24-9.102-1.821-5.461-8.419-14.336-23.211-14.336 0 0 0 0-0.227 0h-0.683c0 0 0 0-0.228 0-14.791 0-21.618 8.647-23.211 14.336-0.455 1.138-3.868 8.192-10.24 9.102-5.689 0.683-9.785 3.186-12.288 6.144h-27.534c-9.557 0-17.067 7.737-17.067 17.067v157.013c0 9.33 7.737 17.067 17.067 17.067h147.683c9.557 0 17.067-7.737 17.067-17.067v-157.013c0-9.33-7.509-17.067-17.067-17.067zM89.657 60.188c0-1.821 0.91-5.006 5.689-5.461 14.791-1.593 20.707-17.067 20.935-17.749l0.228-0.683c0.455-0.91 2.731-5.006 11.15-5.006 0 0 0 0 0 0h0.683c0 0 0 0 0 0 8.419 0 10.695 4.096 11.15 5.006l0.227 0.683c0.227 0.683 6.144 15.929 20.935 17.749 4.779 0.455 5.689 3.868 5.689 5.461v13.881h-76.686v-13.881zM202.98 221.298c0 0.683-0.455 1.138-1.138 1.138h-147.684c-0.683 0-1.138-0.455-1.138-1.138v-157.013c0-0.683 0.455-1.138 1.138-1.138h22.755v24.576h102.4v-24.576h22.756c0.683 0 1.138 0.455 1.138 1.138v157.013z"></path>
<path fill="#333" d="M134.941 54.727c0 3.519-2.853 6.371-6.371 6.371s-6.371-2.853-6.371-6.371c0-3.519 2.853-6.371 6.371-6.371s6.371 2.853 6.371 6.371z"></path>
<path fill="#333" d="M169.529 109.34l-50.062 50.062-26.169-26.169c-3.186-3.186-8.192-3.186-11.378 0s-3.186 8.192 0 11.15l37.547 37.547 61.44-61.44c3.186-3.186 3.186-8.192 0-11.15-3.186-3.186-8.192-3.186-11.378 0z"></path>
</svg>
