<!-- Generated by IcoMoon.io -->
<svg version="1.1" xmlns="http://www.w3.org/2000/svg" width="256" height="256" viewBox="0 0 256 256">
<title>recruitment-o</title>
<path fill="#333" d="M113.677 55.637c-19.797 0-36.181 16.156-36.181 36.181s16.156 36.181 36.181 36.181c19.797 0 36.181-16.156 36.181-36.181s-16.156-36.181-36.181-36.181zM113.677 111.843c-11.15 0-20.252-9.102-20.252-20.252s9.102-20.252 20.252-20.252c11.15 0 20.253 9.102 20.253 20.252s-9.102 20.252-20.252 20.252z"></path>
<path fill="#333" d="M235.647 225.393l-53.703-53.703c14.336-16.384 22.983-37.774 22.983-61.44 0-51.428-41.87-93.525-93.525-93.525s-93.298 42.098-93.298 93.753c0 51.427 41.87 93.525 93.525 93.525 22.3 0 42.781-7.964 58.937-20.935l53.931 53.931c1.593 1.593 3.641 2.275 5.689 2.275s4.096-0.683 5.689-2.275c2.731-3.413 2.731-8.419-0.227-11.605zM63.843 171.463c3.869-3.641 22.3-19.115 48.469-19.115 15.246 0 25.031 2.958 29.355 5.689 3.641 2.503 8.647 1.365 11.15-2.275s1.365-8.647-2.275-11.15c-8.192-5.006-22.073-8.192-38.229-8.192-33.223 0-55.751 19.797-60.075 24.121-11.378-13.426-18.432-30.947-18.432-50.062 0-42.781 34.816-77.597 77.597-77.597s77.597 34.816 77.597 77.597-34.816 77.369-77.597 77.369c-17.977 0-34.361-6.144-47.559-16.384z"></path>
</svg>
