<!-- Generated by IcoMoon.io -->
<svg version="1.1" xmlns="http://www.w3.org/2000/svg" width="256" height="256" viewBox="0 0 256 256">
<title>sad-o</title>
<path fill="#333" d="M128 39.507c25.811 0 52.358 1.475 68.583 17.698s17.698 42.772 17.698 68.583v5.162c0 25.811-1.475 52.358-17.698 68.583s-42.772 17.698-68.583 17.698c-25.811 0-52.358-1.475-68.583-17.698s-17.698-42.772-17.698-68.583v-5.162c0-25.811 1.475-52.358 17.698-68.583s42.772-17.698 68.583-17.698zM128 28.445c-26.548 0-56.784 1.475-75.957 20.648-19.911 19.911-20.648 49.409-20.648 75.957 0 0.737 0 4.425 0 5.162 0 26.548 1.475 56.784 20.648 75.957 19.174 19.911 49.409 21.386 75.957 21.386s56.784-1.475 75.957-20.648c19.174-19.174 20.648-49.409 20.648-75.957 0-0.737 0-4.425 0-5.162 0-26.548-1.475-56.784-20.648-75.957-19.174-19.911-49.409-21.386-75.957-21.386v0z"></path>
<path fill="#333" d="M177.409 189.208c0 10.324-22.124-5.899-49.409-5.899s-49.409 16.224-49.409 5.899 22.124-42.772 49.409-42.772 49.409 32.447 49.409 42.772z"></path>
<path fill="#333" d="M177.409 119.15c0 6.924-5.613 12.536-12.536 12.536s-12.536-5.612-12.536-12.537c0-6.924 5.613-12.537 12.536-12.537s12.536 5.612 12.536 12.537z"></path>
<path fill="#333" d="M181.097 86.703c1.475 2.95-8.112 2.213-16.962 6.637s-14.749 11.799-16.224 8.85c-1.475-2.95 2.213-14.749 11.062-19.174s21.386 0.737 22.124 3.687z"></path>
<path fill="#333" d="M103.664 119.15c0 6.924-5.612 12.536-12.537 12.536s-12.537-5.612-12.537-12.537c0-6.924 5.612-12.537 12.537-12.537s12.537 5.612 12.537 12.537z"></path>
<path fill="#333" d="M74.166 86.703c-1.475 2.213 8.112 2.213 16.962 5.899 8.85 4.425 14.749 11.799 16.224 8.85s-2.213-14.749-11.062-19.174c-9.587-3.687-20.648 1.475-22.123 4.425z"></path>
</svg>
