<!-- Generated by IcoMoon.io -->
<svg version="1.1" xmlns="http://www.w3.org/2000/svg" width="256" height="256" viewBox="0 0 256 256">
<title>share</title>
<path fill="#333" d="M221.547 111.11c-22.244-22.244-43.466-37.841-65.198-57.017-7.926-6.903-20.199-1.279-20.199 9.204v44.489h-32.471c-40.142 0-72.869 32.471-72.869 72.869v8.182c0 8.949 7.159 16.108 16.108 16.108v0c8.949 0 16.108-7.159 16.108-16.108v-8.182c0-22.244 18.153-40.398 40.398-40.398h32.471v39.63c0 10.483 12.529 16.108 20.454 8.949 21.733-19.943 42.954-37.841 65.198-60.596 4.858-4.858 4.858-12.528 0-17.131z"></path>
</svg>
