<!-- Generated by IcoMoon.io -->
<svg version="1.1" xmlns="http://www.w3.org/2000/svg" width="256" height="256" viewBox="0 0 256 256">
<title>support</title>
<path fill="#333" d="M218.767 107.29c-5.625-7.415-15.341-8.438-22.244-8.438-0.256-37.585-30.937-68.011-68.523-68.011-37.841 0-68.267 30.426-68.778 68.011-6.648 0-16.619 1.278-22.244 8.438-6.136 7.926-6.648 20.454-6.648 31.449s0.511 23.267 6.648 31.449c6.136 7.926 15.596 8.693 24.034 8.693s17.897-0.511 24.034-8.693c2.813-3.835 5.369-8.438 5.369-13.551v0-57.784c0 0 0 0 0 0 0.511-20.454 17.131-36.818 37.585-36.818s37.073 16.364 37.585 36.818c0 0 0 0 0 0v51.903c-0.511 12.273-7.159 23.267-16.875 29.659-4.858-4.858-11.506-7.926-18.921-7.926-14.574 0-26.335 11.761-26.335 26.335s11.761 26.335 26.335 26.335c9.204 0 17.386-4.858 21.988-12.017 16.619-6.136 30.426-18.665 38.096-34.773 1.79 0 3.324 0 5.113 0 8.438 0 17.898-0.511 24.034-8.693 6.136-7.926 6.648-20.454 6.648-31.449-0.256-10.483-0.767-22.755-6.903-30.937z"></path>
</svg>
