<!-- Generated by IcoMoon.io -->
<svg version="1.1" xmlns="http://www.w3.org/2000/svg" width="256" height="256" viewBox="0 0 256 256">
<title>tag</title>
<path fill="#333" d="M223.525 42.767c-0.735-5.146-5.146-9.557-10.293-10.293-27.937-3.676-55.874-3.676-83.076 0.735-2.206 0.735-4.411 1.47-6.616 2.941-31.613 28.673-61.755 58.815-90.428 90.428-4.411 5.146-4.411 12.499 0 16.91 24.996 27.937 51.463 54.404 79.4 79.4 5.146 4.411 12.499 4.411 16.91 0 31.613-28.673 61.756-58.815 90.428-91.163 1.47-2.206 2.94-4.411 2.94-6.616 4.411-27.202 4.411-54.404 0.735-82.341zM180.885 96.436c-11.763 0-21.32-9.558-21.32-21.32s9.558-21.32 21.32-21.32c11.763 0 21.32 9.557 21.32 21.32s-9.558 21.32-21.32 21.32v0z"></path>
</svg>
