<!-- Generated by IcoMoon.io -->
<svg version="1.1" xmlns="http://www.w3.org/2000/svg" width="256" height="256" viewBox="0 0 256 256">
<title>team-o</title>
<path fill="#333" d="M138.012 149.959h-20.935c-43.918 0-63.488 30.493-63.488 60.985 0 4.323 3.641 7.964 7.965 7.964s7.965-3.641 7.965-7.964c0-21.618 12.516-45.056 47.559-45.056h20.935c27.989 0 47.559 18.432 47.559 45.056 0 4.323 3.641 7.964 7.964 7.964s7.964-3.641 7.964-7.964c0-35.499-26.852-60.985-63.488-60.985z"></path>
<path fill="#333" d="M129.365 137.671c27.762 0 50.29-22.528 50.29-50.29s-22.756-50.29-50.29-50.29-50.29 22.528-50.29 50.29 22.528 50.29 50.29 50.29zM129.365 53.020c18.887 0 34.361 15.474 34.361 34.361s-15.474 34.361-34.361 34.361c-18.887 0-34.361-15.474-34.361-34.361s15.246-34.361 34.361-34.361z"></path>
<path fill="#333" d="M193.536 122.653c-4.323 0-7.964 3.641-7.964 7.964s3.641 7.964 7.964 7.964c13.426 0 22.756 8.647 22.756 21.163 0 4.323 3.641 7.964 7.964 7.964s7.964-3.641 7.964-7.964c0-21.39-16.384-37.091-38.684-37.091z"></path>
<path fill="#333" d="M190.123 68.949c7.282 2.048 12.288 8.647 12.288 16.156 0 6.827-4.096 12.743-10.24 15.474-4.096 1.82-5.917 6.371-4.323 10.468 1.365 2.958 4.323 4.779 7.282 4.779 1.138 0 2.048-0.228 3.186-0.683 12.060-5.234 20.025-17.067 20.025-30.265 0-14.791-10.012-27.762-24.121-31.63-4.323-1.138-8.647 1.365-9.785 5.689s1.593 8.875 5.689 10.012z"></path>
<path fill="#333" d="M70.428 130.617c0-4.323-3.641-7.965-7.965-7.965-22.3 0-38.684 15.701-38.684 37.092 0 4.323 3.641 7.964 7.965 7.964s7.965-3.641 7.965-7.964c0-12.516 9.33-21.163 22.755-21.163 4.551 0 7.965-3.413 7.965-7.964z"></path>
<path fill="#333" d="M57.685 115.371c0.91 0.455 2.048 0.683 3.186 0.683 3.186 0 6.144-1.82 7.282-4.779 1.82-4.096-0.228-8.647-4.324-10.468-6.144-2.731-10.24-8.647-10.24-15.474 0-7.509 5.006-14.336 12.288-16.157 4.323-1.138 6.827-5.461 5.689-9.785s-5.461-6.827-9.785-5.689c-14.108 3.868-24.121 16.839-24.121 31.63 0 12.971 7.737 24.803 20.025 30.037z"></path>
</svg>
