<!-- Generated by IcoMoon.io -->
<svg version="1.1" xmlns="http://www.w3.org/2000/svg" width="256" height="256" viewBox="0 0 256 256">
<title>alpha-feedback</title>
<path fill="#333" d="M97.067 198.4l-54.4 36.267 8.533-59.733c-18.133-16-29.867-38.4-29.867-62.933 0-50.133 48-90.667 106.667-90.667s106.667 40.533 106.667 90.667-46.933 90.667-106.667 90.667c-10.667 0-21.333-1.067-30.933-4.267zM153.6 139.733l7.467 14.933c2.133 5.333 8.533 7.467 13.867 5.333s7.467-8.533 5.333-13.867l-41.6-86.4c-2.133-4.267-6.4-6.4-10.667-6.4s-8.533 2.133-10.667 6.4l-41.6 86.4c-2.133 5.333 0 11.733 5.333 13.867s11.733 0 13.867-5.333l7.467-14.933h51.2c0 0 0 0 0 0zM142.933 118.4h-30.933l16-32 14.933 32z"></path>
</svg>
