<!-- Generated by IcoMoon.io -->
<svg version="1.1" xmlns="http://www.w3.org/2000/svg" width="256" height="256" viewBox="0 0 256 256">
<title>angle-down</title>
<path fill="#333" d="M184.654 79.345l-55.987 63.985-55.987-63.985c-5.332-5.332-13.33-6.665-18.662-1.333 0 0-1.333 1.333-1.333 1.333v0c-5.332 6.665-5.332 15.996 0 22.661l65.318 74.649c5.332 5.332 13.33 6.665 18.662 1.333 0 0 1.333-1.333 1.333-1.333l65.318-74.649c5.332-6.665 5.332-15.996 0-22.661v0c-3.999-5.332-11.998-5.332-18.662 0 0 0 0 0 0 0z"></path>
</svg>
