<!-- Generated by IcoMoon.io -->
<svg version="1.1" xmlns="http://www.w3.org/2000/svg" width="256" height="256" viewBox="0 0 256 256">
<title>close-circle-o</title>
<path fill="#333" d="M128 213.333c47.128 0 85.333-38.205 85.333-85.333s-38.205-85.333-85.333-85.333c-47.128 0-85.333 38.205-85.333 85.333v0c0 47.128 38.205 85.333 85.333 85.333v0zM128 234.667c-58.91 0-106.667-47.756-106.667-106.667s47.757-106.667 106.667-106.667c58.911 0 106.667 47.757 106.667 106.667v0c0 58.911-47.756 106.667-106.667 106.667v0zM143.040 128l22.72 22.613c1.938 1.938 3.137 4.616 3.137 7.573 0 5.915-4.795 10.71-10.71 10.71-2.958 0-5.635-1.198-7.573-3.137v0l-22.613-22.72-22.613 22.72c-1.938 1.938-4.616 3.137-7.573 3.137-5.915 0-10.71-4.795-10.71-10.71 0-2.958 1.198-5.635 3.137-7.573v0l22.72-22.613-22.72-22.613c-1.938-1.938-3.137-4.616-3.137-7.573 0-5.915 4.795-10.71 10.71-10.71 2.957 0 5.635 1.198 7.573 3.137v0l22.613 22.72 22.613-22.72c1.938-1.938 4.616-3.137 7.573-3.137 5.915 0 10.71 4.795 10.71 10.71 0 2.957-1.198 5.635-3.137 7.573v0z"></path>
</svg>
