<!-- Generated by IcoMoon.io -->
<svg version="1.1" xmlns="http://www.w3.org/2000/svg" width="256" height="256" viewBox="0 0 256 256">
<title>cloud-download</title>
<path fill="#333" d="M203.001 102.18c-6.147-34.427-38.115-60.246-75.001-60.246-29.508 0-55.328 15.984-67.623 40.574-30.738 2.459-55.328 28.279-55.328 59.017 0 33.197 27.049 60.246 61.476 60.246h132.788c28.279 0 51.639-22.131 51.639-50.41 0-25.82-20.902-46.722-47.951-49.181v0zM108.328 142.754v-40.574c0-11.066 8.607-19.672 19.672-19.672s19.672 8.607 19.672 19.672v40.574h29.508c3.689 0 6.147 2.459 6.147 6.147 0 1.23-1.23 3.689-2.459 4.918l-45.492 45.492c-4.918 4.918-13.525 4.918-18.442 0l-45.492-45.492c-2.459-2.459-2.459-6.147 0-9.836 1.23-1.23 2.459-2.459 4.918-2.459h31.967z"></path>
</svg>
