<!-- Generated by IcoMoon.io -->
<svg version="1.1" xmlns="http://www.w3.org/2000/svg" width="256" height="256" viewBox="0 0 256 256">
<title>configure-o</title>
<path fill="#333" d="M170.667 54.4v-22.4c0-6.4 4.267-10.667 10.667-10.667s10.667 4.267 10.667 10.667v22.4c18.133 4.267 32 21.333 32 41.6s-13.867 36.267-32 41.6v86.4c0 6.4-4.267 10.667-10.667 10.667s-10.667-4.267-10.667-10.667v-86.4c-18.133-4.267-32-21.333-32-41.6s13.867-36.267 32-41.6zM64 118.4v-86.4c0-6.4 4.267-10.667 10.667-10.667s10.667 4.267 10.667 10.667v86.4c18.133 4.267 32 21.333 32 41.6s-13.867 36.267-32 41.6v22.4c0 6.4-4.267 10.667-10.667 10.667s-10.667-4.267-10.667-10.667v-22.4c-18.133-4.267-32-21.333-32-41.6s13.867-36.267 32-41.6zM74.667 185.6c13.867 0 25.6-11.733 25.6-25.6s-11.733-25.6-25.6-25.6-25.6 11.733-25.6 25.6 11.733 25.6 25.6 25.6zM181.333 121.6c13.867 0 25.6-11.733 25.6-25.6s-11.733-25.6-25.6-25.6-25.6 11.733-25.6 25.6 11.733 25.6 25.6 25.6z"></path>
</svg>
