<!-- Generated by IcoMoon.io -->
<svg version="1.1" xmlns="http://www.w3.org/2000/svg" width="256" height="256" viewBox="0 0 256 256">
<title>cost</title>
<path fill="#333" d="M128 234.667c-58.667 0-106.667-48-106.667-106.667s48-106.667 106.667-106.667 106.667 48 106.667 106.667-48 106.667-106.667 106.667zM170.667 149.333c0-7.467-2.133-12.8-5.333-17.067s-7.467-7.467-12.8-9.6c-4.267-2.133-10.667-3.2-18.133-5.333-6.4-1.067-11.733-3.2-14.933-4.267s-4.267-4.267-4.267-7.467c0-3.2 1.067-6.4 4.267-7.467 3.2-2.133 6.4-3.2 10.667-3.2 3.2 0 6.4 0 8.533 1.067 3.2 1.067 5.333 2.133 7.467 3.2s4.267 2.133 4.267 2.133 3.2 2.133 4.267 2.133 2.133 1.067 3.2 1.067c2.133 0 4.267-1.067 6.4-3.2s3.2-4.267 3.2-7.467c0-2.133 0-4.267-1.067-5.333s-1.067-3.2-3.2-4.267c-7.467-5.333-16-8.533-24.533-9.6v-7.467c0-3.2-1.067-5.333-3.2-7.467s-4.267-3.2-7.467-3.2c-3.2 0-5.333 1.067-7.467 3.2s-3.2 4.267-3.2 7.467v7.467c-8.533 2.133-16 6.4-21.333 11.733-5.333 6.4-8.533 12.8-8.533 20.267s2.133 12.8 5.333 17.067c3.2 4.267 7.467 7.467 12.8 9.6 4.267 2.133 10.667 4.267 18.133 5.333 4.267 1.067 8.533 2.133 10.667 3.2s4.267 2.133 6.4 3.2c2.133 1.067 2.133 3.2 2.133 5.333 0 3.2-1.067 6.4-4.267 7.467-3.2 2.133-6.4 2.133-11.733 2.133-4.267 0-8.533 0-11.733-1.067s-7.467-3.2-12.8-5.333c-2.133-1.067-3.2-2.133-4.267-2.133s-2.133 0-4.267 0c-2.133 0-4.267 1.067-6.4 3.2-1.067 2.133-2.133 5.333-2.133 7.467s0 4.267 1.067 5.333c1.067 1.067 2.133 2.133 4.267 4.267 7.467 5.333 17.067 8.533 28.8 9.6v6.4c0 3.2 1.067 5.333 3.2 7.467s4.267 3.2 7.467 3.2c3.2 0 5.333-1.067 7.467-3.2s3.2-4.267 3.2-7.467v-6.4c9.6-2.133 17.067-5.333 22.4-11.733 4.267-5.333 7.467-12.8 7.467-20.267z"></path>
</svg>
