<!-- Generated by IcoMoon.io -->
<svg version="1.1" xmlns="http://www.w3.org/2000/svg" width="256" height="256" viewBox="0 0 256 256">
<title>database</title>
<path fill="#333" d="M128 133.333c48 0 88.533-10.667 101.333-33.067 3.2 4.267 4.267 9.6 4.267 14.933 0 33.067-48 50.133-106.667 50.133s-105.6-23.467-105.6-52.267c0-5.333 2.133-10.667 5.333-16 13.867 21.333 54.4 36.267 101.333 36.267zM234.667 71.467c0 26.667-48 39.467-106.667 39.467s-106.667-17.067-106.667-39.467c0-22.4 48-39.467 106.667-39.467s106.667 18.133 106.667 39.467zM128 186.667c48 0 88.533-10.667 101.333-33.067 3.2 4.267 4.267 9.6 4.267 14.933 0 33.067-48 50.133-106.667 50.133s-105.6-23.467-105.6-52.267c0-5.333 2.133-10.667 5.333-16 13.867 21.333 54.4 36.267 101.333 36.267z"></path>
</svg>
