<!-- Generated by IcoMoon.io -->
<svg version="1.1" xmlns="http://www.w3.org/2000/svg" width="256" height="256" viewBox="0 0 256 256">
<title>disc</title>
<path fill="#333" d="M72.533 219.733l40.533-40.533c1.067-1.067 1.067-1.067 2.133-2.133 4.267 1.067 8.533 2.133 12.8 2.133 27.733 0 50.133-22.4 50.133-50.133 0-11.733-4.267-23.467-11.733-32l39.467-39.467c4.267 5.333 8.533 10.667 12.8 17.067-2.133 0-5.333 1.067-7.467 3.2l-19.2 19.2c-4.267 4.267-4.267 10.667 0 14.933s10.667 4.267 14.933 0l19.2-19.2c0 0 0 0 1.067-1.067 5.333 10.667 7.467 23.467 7.467 36.267 0 58.667-48 106.667-106.667 106.667-20.267 0-39.467-5.333-55.467-14.933zM55.467 205.867c-3.2-3.2-6.4-6.4-9.6-9.6l17.067-17.067c4.267-4.267 4.267-10.667 0-14.933s-10.667-4.267-14.933 0l-13.867 13.867c-8.533-14.933-12.8-32-12.8-50.133 0-58.667 48-106.667 106.667-106.667 23.467 0 44.8 7.467 62.933 20.267l-40.533 40.533c-6.4-3.2-13.867-5.333-22.4-5.333-27.733 0-50.133 22.4-50.133 50.133 0 14.933 6.4 28.8 18.133 38.4l-40.533 40.533zM128 154.667c-14.933 0-26.667-11.733-26.667-26.667s11.733-26.667 26.667-26.667 26.667 11.733 26.667 26.667-11.733 26.667-26.667 26.667z"></path>
</svg>
