<!-- Generated by IcoMoon.io -->
<svg version="1.1" xmlns="http://www.w3.org/2000/svg" width="256" height="256" viewBox="0 0 256 256">
<title>drag</title>
<path fill="#333" d="M96 149.333c-11.733 0-21.333-9.6-21.333-21.333s9.6-21.333 21.333-21.333 21.333 9.6 21.333 21.333-9.6 21.333-21.333 21.333zM117.333 202.667c0 11.733-9.6 21.333-21.333 21.333s-21.333-9.6-21.333-21.333 9.6-21.333 21.333-21.333 21.333 9.6 21.333 21.333zM117.333 53.333c0 11.733-9.6 21.333-21.333 21.333s-21.333-9.6-21.333-21.333 9.6-21.333 21.333-21.333 21.333 9.6 21.333 21.333z"></path>
<path fill="#333" d="M170.667 149.333c-11.733 0-21.333-9.6-21.333-21.333s9.6-21.333 21.333-21.333 21.333 9.6 21.333 21.333-9.6 21.333-21.333 21.333zM192 202.667c0 11.733-9.6 21.333-21.333 21.333s-21.333-9.6-21.333-21.333 9.6-21.333 21.333-21.333 21.333 9.6 21.333 21.333zM192 53.333c0 11.733-9.6 21.333-21.333 21.333s-21.333-9.6-21.333-21.333 9.6-21.333 21.333-21.333 21.333 9.6 21.333 21.333z"></path>
</svg>
