<!-- Generated by IcoMoon.io -->
<svg version="1.1" xmlns="http://www.w3.org/2000/svg" width="256" height="256" viewBox="0 0 256 256">
<title>eye</title>
<path fill="#333" d="M249.905 128c-18.285 49.981-65.828 85.333-121.905 85.333s-103.619-35.352-121.905-85.333c18.285-48.762 65.829-85.333 121.905-85.333s103.619 36.572 121.905 85.333zM128 176.762c26.819 0 48.762-21.943 48.762-48.762s-21.943-48.762-48.762-48.762-48.762 21.943-48.762 48.762 21.943 48.762 48.762 48.762zM128 152.381c-13.409 0-24.381-10.971-24.381-24.381s10.972-24.381 24.381-24.381 24.381 10.972 24.381 24.381-10.971 24.381-24.381 24.381z"></path>
</svg>
