<!-- Generated by IcoMoon.io -->
<svg version="1.1" xmlns="http://www.w3.org/2000/svg" width="256" height="256" viewBox="0 0 256 256">
<title>lock</title>
<path fill="#333" d="M74.666 128v-53.334c0-29.334 24-53.334 53.334-53.334s53.334 24 53.334 53.334v53.334h6.666c10.666 0 20 9.334 20 20v66.666c0 10.666-9.334 20-20 20h-120c-10.666 0-20-9.334-20-20v-66.666c0-10.666 9.334-20 20-20h6.666zM101.334 128h53.334v-53.334c0-14.666-12-26.666-26.666-26.666s-26.666 12-26.666 26.666v53.334zM128 156c-8 0-13.334 5.334-13.334 13.334v26.666c0 8 5.334 13.334 13.334 13.334s13.334-5.334 13.334-13.334v-26.666c0-8-5.334-13.334-13.334-13.334z"></path>
</svg>
