<!-- Generated by IcoMoon.io -->
<svg version="1.1" xmlns="http://www.w3.org/2000/svg" width="256" height="256" viewBox="0 0 256 256">
<title>menu</title>
<path fill="#333" d="M44.089 23.111h167.822c11.585 0 20.978 9.392 20.978 20.978s-9.392 20.978-20.978 20.978h-167.822c-11.585 0-20.978-9.392-20.978-20.978s9.392-20.978 20.978-20.978zM44.089 190.934h167.822c11.585 0 20.978 9.392 20.978 20.978s-9.392 20.978-20.978 20.978h-167.822c-11.585 0-20.978-9.392-20.978-20.978s9.392-20.978 20.978-20.978zM44.089 107.022h167.822c11.585 0 20.978 9.392 20.978 20.978s-9.392 20.978-20.978 20.978h-167.822c-11.585 0-20.978-9.392-20.978-20.978s9.392-20.978 20.978-20.978z"></path>
</svg>
