<!-- Generated by IcoMoon.io -->
<svg version="1.1" xmlns="http://www.w3.org/2000/svg" width="256" height="256" viewBox="0 0 256 256">
<title>notes</title>
<path fill="#333" d="M64 21.334h128c11.782 0 21.333 9.552 21.333 21.333v0 170.667c0 11.782-9.552 21.333-21.333 21.333v0h-128c-11.782 0-21.333-9.552-21.333-21.333v0-170.667c0-11.782 9.552-21.333 21.333-21.333v0zM74.666 106.669c-5.891 0-10.667 4.776-10.667 10.667s4.776 10.667 10.667 10.667v0h106.668c5.891 0 10.667-4.776 10.667-10.667s-4.776-10.667-10.667-10.667v0zM74.666 53.334c-5.891 0-10.667 4.776-10.667 10.667s4.776 10.667 10.667 10.667v0h106.668c5.891 0 10.667-4.776 10.667-10.667s-4.776-10.667-10.667-10.667v0zM74.666 160.001c-5.891 0-10.667 4.776-10.667 10.667s4.776 10.667 10.667 10.667v0h53.333c5.891 0 10.667-4.776 10.667-10.667s-4.776-10.667-10.667-10.667v0z"></path>
</svg>
