<!-- Generated by IcoMoon.io -->
<svg version="1.1" xmlns="http://www.w3.org/2000/svg" width="256" height="256" viewBox="0 0 256 256">
<title>search</title>
<path fill="#333" d="M179.547 154.182l49.54 49.54c1.913 1.898 3.098 4.529 3.098 7.436s-1.185 5.538-3.097 7.436l-7.436 7.436c-1.893 1.882-4.503 3.046-7.384 3.046s-5.491-1.163-7.384-3.046l-48.597-48.597c-13.906 10.651-31.545 17.067-50.683 17.067-46.275 0-83.788-37.513-83.788-83.788s37.513-83.788 83.788-83.788c46.275 0 83.788 37.513 83.788 83.788 0 16.069-4.523 31.082-12.367 43.833l0.208-0.363zM108.117 162.665c28.922 0 52.368-23.446 52.368-52.368s-23.446-52.368-52.368-52.368c-28.922 0-52.368 23.446-52.368 52.368v0c0 28.922 23.446 52.368 52.368 52.368v0z"></path>
</svg>
