<!-- Generated by IcoMoon.io -->
<svg version="1.1" xmlns="http://www.w3.org/2000/svg" width="256" height="256" viewBox="0 0 256 256">
<title>server</title>
<path fill="#333" d="M42.667 32h170.667c11.733 0 21.333 9.6 21.333 21.333v42.667c0 11.733-9.6 21.333-21.333 21.333h-170.667c-11.733 0-21.333-9.6-21.333-21.333v-42.667c0-11.733 9.6-21.333 21.333-21.333zM75.733 96c11.733 0 21.333-9.6 21.333-21.333s-9.6-21.333-21.333-21.333-21.333 9.6-21.333 21.333 9.6 21.333 21.333 21.333zM42.667 138.667h170.667c11.733 0 21.333 9.6 21.333 21.333v42.667c0 11.733-9.6 21.333-21.333 21.333h-170.667c-11.733 0-21.333-9.6-21.333-21.333v-42.667c0-11.733 9.6-21.333 21.333-21.333zM75.733 202.667c11.733 0 21.333-9.6 21.333-21.333s-9.6-21.333-21.333-21.333-21.333 9.6-21.333 21.333 9.6 21.333 21.333 21.333z"></path>
</svg>
