<!-- Generated by IcoMoon.io -->
<svg version="1.1" xmlns="http://www.w3.org/2000/svg" width="256" height="256" viewBox="0 0 256 256">
<title>share-o</title>
<path fill="#333" d="M189.867 96l-37.333-36.267c-4.267-4.267-4.267-9.6 0-13.867 3.2-4.267 9.6-4.267 12.8-1.067 0 0 0 0 0 0l55.467 54.4c2.133 2.133 3.2 5.333 3.2 7.467 0 3.2-1.067 5.333-3.2 7.467l-55.467 54.4c0 0 0 0 0 0-4.267 3.2-9.6 3.2-12.8-1.067s-3.2-10.667 0-13.867l37.333-36.267h-82.133c-29.867 0-54.4 25.6-54.4 56.533v28.8c0 6.4-5.333 10.667-10.667 10.667s-10.667-5.333-10.667-10.667v-27.733c0-43.733 34.133-78.933 75.733-78.933h82.133z"></path>
</svg>
