<!-- Generated by IcoMoon.io -->
<svg version="1.1" xmlns="http://www.w3.org/2000/svg" width="256" height="256" viewBox="0 0 256 256">
<title>shield-o</title>
<path fill="#333" d="M115.2 160c-2.133 0-3.2-1.067-4.267-3.2l-18.133-18.133c-4.267-4.267-4.267-10.667 0-13.867 0 0 0 0 0 0v0c4.267-4.267 10.667-4.267 14.933 0l10.667 10.667 37.333-36.267c4.267-4.267 10.667-4.267 14.933 0v0c4.267 4.267 4.267 10.667 0 13.867 0 0 0 0 0 0l-44.8 43.733c-2.133 3.2-6.4 4.267-10.667 3.2zM190.933 76.8c-25.6 0-45.867-7.467-62.933-24.533v0 0c-17.067 17.067-36.267 24.533-62.933 24.533h-1.067v1.067c0 3.2 0 6.4 0 13.867 0 18.133 0 25.6 1.067 36.267 3.2 44.8 22.4 71.467 62.933 85.333v0 0c40.533-14.933 59.733-41.6 62.933-85.333 1.067-10.667 1.067-19.2 1.067-37.333 0-7.467 0-10.667 0-13.867h-1.067zM190.933 55.467h22.4v22.4c0 3.2 0 5.333 0 12.8 0 19.2 0 27.733-1.067 38.4-4.267 52.267-28.8 86.4-76.8 104.533l-7.467 2.133-7.467-2.133c-49.067-17.067-72.533-51.2-76.8-104.533-1.067-10.667-1.067-19.2-1.067-38.4 0-7.467 0-9.6 0-12.8v-22.4h22.4c20.267 0 35.2-5.333 48-18.133l14.933-16 16 16c11.733 11.733 26.667 18.133 46.933 18.133z"></path>
</svg>
