<!-- Generated by IcoMoon.io -->
<svg version="1.1" xmlns="http://www.w3.org/2000/svg" width="256" height="256" viewBox="0 0 256 256">
<title>shield</title>
<path fill="#333" d="M213.333 54.4c0 59.733 11.733 145.067-85.333 180.267-97.067-35.2-85.333-120.533-85.333-180.267 35.2 0 61.867-10.667 85.333-33.067 22.4 22.4 50.133 33.067 85.333 33.067zM115.2 160c3.2 1.067 7.467 0 10.667-2.133l44.8-43.733c0 0 0 0 0 0 4.267-4.267 4.267-10.667 0-13.867v0c-4.267-4.267-10.667-4.267-14.933 0l-37.333 36.267-10.667-10.667c-4.267-4.267-10.667-4.267-14.933 0v0c0 0 0 0 0 0-4.267 4.267-4.267 10.667 0 13.867l18.133 18.133c1.067 0 3.2 1.067 4.267 2.133z"></path>
</svg>
