<!-- Generated by IcoMoon.io -->
<svg version="1.1" xmlns="http://www.w3.org/2000/svg" width="256" height="256" viewBox="0 0 256 256">
<title>swap-h-o</title>
<path fill="#333" d="M171.733 176h-107.733c-6.4 0-10.667-4.267-10.667-10.667s4.267-10.667 10.667-10.667h107.733l-8.533-9.6c-3.2-4.267-3.2-9.6 0-13.867 3.2-3.2 8.533-3.2 11.733 0 0 0 0 0 1.067 1.067l24.533 26.667c2.133 2.133 3.2 4.267 2.133 7.467 0 2.133-1.067 5.333-2.133 7.467l-24.533 26.667c0 0 0 0-1.067 1.067-3.2 3.2-8.533 3.2-11.733 0-3.2-4.267-3.2-9.6 0-13.867l8.533-11.733zM84.267 80h107.733c6.4 0 10.667 4.267 10.667 10.667s-4.267 10.667-10.667 10.667h-107.733l8.533 9.6c3.2 4.267 3.2 9.6 0 13.867-3.2 3.2-8.533 3.2-11.733 0 0 0 0 0-1.067-1.067l-23.467-25.6c-2.133-2.133-3.2-5.333-3.2-7.467s1.067-5.333 3.2-7.467l24.533-26.667c0 0 0 0 1.067-1.067 3.2-3.2 8.533-3.2 11.733 0 3.2 4.267 3.2 9.6 0 13.867l-9.6 10.667z"></path>
</svg>
