<!-- Generated by IcoMoon.io -->
<svg version="1.1" xmlns="http://www.w3.org/2000/svg" width="256" height="256" viewBox="0 0 256 256">
<title>third-party</title>
<path fill="#333" d="M90.667 27.733c-6.4 8.533-9.6 18.133-9.6 28.8 0 26.667 21.333 46.933 46.933 46.933s46.933-21.333 46.933-46.933c0-10.667-3.2-20.267-9.6-28.8 40.533 16 69.333 54.4 69.333 100.267 0 5.333 0 9.6-1.067 14.933-8.533-9.6-21.333-14.933-34.133-14.933-26.667 0-46.933 21.333-46.933 46.933 0 20.267 12.8 37.333 30.933 44.8-17.067 9.6-35.2 14.933-55.467 14.933s-38.4-5.333-54.4-14.933c18.133-6.4 30.933-24.533 30.933-44.8 0-26.667-21.333-46.933-46.933-46.933-13.867 0-25.6 5.333-34.133 14.933-2.133-5.333-2.133-9.6-2.133-14.933 0-45.867 28.8-84.267 69.333-100.267zM128 81.067c-12.8 0-23.467-10.667-23.467-23.467s10.667-23.467 23.467-23.467 23.467 10.667 23.467 23.467-10.667 23.467-23.467 23.467zM56.533 199.467c-12.8 0-23.467-10.667-23.467-23.467s10.667-23.467 23.467-23.467 23.467 10.667 23.467 23.467-9.6 23.467-23.467 23.467zM199.467 199.467c-12.8 0-23.467-10.667-23.467-23.467s10.667-23.467 23.467-23.467c12.8 0 23.467 10.667 23.467 23.467s-10.667 23.467-23.467 23.467z"></path>
</svg>
