<!-- Generated by IcoMoon.io -->
<svg version="1.1" xmlns="http://www.w3.org/2000/svg" width="256" height="256" viewBox="0 0 256 256">
<title>tick-circle</title>
<path fill="#333" d="M128 234.667c-58.667 0-106.667-48-106.667-106.667s48-106.667 106.667-106.667 106.667 48 106.667 106.667-48 106.667-106.667 106.667zM109.867 172.8c3.2 0 5.333-1.067 7.467-3.2l67.2-67.2c4.267-4.267 4.267-10.667 0-14.933s-10.667-4.267-14.933 0l-59.733 59.733-23.467-23.467c-4.267-4.267-10.667-4.267-14.933 0s-4.267 10.667 0 14.933l30.933 30.933c1.067 2.133 4.267 3.2 7.467 3.2z"></path>
</svg>
