<!-- Generated by IcoMoon.io -->
<svg version="1.1" xmlns="http://www.w3.org/2000/svg" width="256" height="256" viewBox="0 0 256 256">
<title>user-control</title>
<path fill="#333" d="M91.428 128c-23.162 0-42.667-19.505-42.667-42.667s19.505-42.667 42.667-42.667 42.667 19.505 42.667 42.667-19.505 42.667-42.667 42.667zM91.428 145.067c51.2 0 79.238 15.848 85.333 48.762v0c1.219 9.752-4.876 18.286-14.629 19.505-1.219 0-1.219 0-2.438 0h-136.533c-9.752 0-17.067-7.315-17.067-17.067 0-1.219 0-2.438 0-2.438 6.095-32.915 34.133-48.762 85.333-48.762zM201.143 91.428c-13.409 0-24.381-10.972-24.381-24.381s10.971-24.381 24.381-24.381c13.409 0 24.381 10.971 24.381 24.381s-10.971 24.381-24.381 24.381zM201.143 101.181c29.257 0 45.105 9.752 48.762 28.038v0c1.219 4.876-2.438 10.971-8.533 10.971 0 0-1.219 0-1.219 0h-78.019c-4.876 0-9.752-4.876-9.752-9.752 0 0 0-1.219 0-1.219 2.438-18.285 18.285-28.038 48.762-28.038z"></path>
</svg>
