<?xml version="1.0" standalone="no"?>
<!DOCTYPE svg PUBLIC "-//W3C//DTD SVG 1.1//EN" "http://www.w3.org/Graphics/SVG/1.1/DTD/svg11.dtd" >
<svg xmlns="http://www.w3.org/2000/svg">
<metadata>Generated by IcoMoon</metadata>
<defs>
<font id="gel-icon" horiz-adv-x="1024">
<font-face units-per-em="1024" ascent="960" descent="-64" />
<missing-glyph horiz-adv-x="1024" />
<glyph unicode="&#x20;" horiz-adv-x="512" d="" />
<glyph unicode="&#xe900;" glyph-name="add-o" d="M977.92 621.227c0 1.024-1.024 2.048-1.024 3.072s-1.024 2.048-1.024 4.096c0 1.024-1.024 2.048-2.048 3.072 0 1.024-1.024 2.048-1.024 3.072-1.024 2.048-3.072 4.096-4.096 5.12 0 0 0 0 0 0l-271.36 271.36c-4.096 4.096-9.216 7.168-14.336 8.192-6.144 4.096-12.288 6.144-20.48 6.144h-447.488c-41.984 0-76.8-34.816-76.8-76.8v-845.824c0-41.984 34.816-76.8 76.8-76.8h687.104c41.984 0 76.8 34.816 76.8 76.8v611.328c0 3.072 0 5.12-1.024 7.168zM698.368 808.619l154.624-154.624h-111.616c-6.144 0-26.624 2.048-36.864 11.264-3.072 2.048-6.144 7.168-6.144 16.384v126.976zM902.144-2.389h-687.104c-3.072 0-5.12 2.048-5.12 5.12v845.824c0 3.072 2.048 5.12 5.12 5.12h411.648v-173.056c0-27.648 9.216-51.2 27.648-68.608 29.696-28.672 72.704-30.72 86.016-30.72 1.024 0 2.048 0 2.048 0h164.864v-579.584c0-1.024-2.048-4.096-5.12-4.096zM683.008 416.427h-95.232v95.232c0 19.456-16.384 35.84-35.84 35.84s-35.84-16.384-35.84-35.84v-95.232h-95.232c-19.456 0-35.84-16.384-35.84-35.84s16.384-35.84 35.84-35.84h95.232v-95.232c0-19.456 16.384-35.84 35.84-35.84s35.84 16.384 35.84 35.84v95.232h95.232c19.456 0 35.84 16.384 35.84 35.84s-15.36 35.84-35.84 35.84z" />
<glyph unicode="&#xe901;" glyph-name="analytics-o" d="M301.056 95.915c19.456 0 35.84 16.384 35.84 35.84v276.48c0 19.456-16.384 35.84-35.84 35.84s-35.84-16.384-35.84-35.84v-276.48c0-19.456 16.384-35.84 35.84-35.84zM482.304 95.915c19.456 0 35.84 16.384 35.84 35.84v440.32c0 19.456-16.384 35.84-35.84 35.84s-35.84-16.384-35.84-35.84v-440.32c0-19.456 15.36-35.84 35.84-35.84zM843.776 95.915c19.456 0 35.84 16.384 35.84 35.84v696.32c0 19.456-16.384 35.84-35.84 35.84s-35.84-16.384-35.84-35.84v-696.32c0-19.456 16.384-35.84 35.84-35.84zM987.136-19.797h-849.92c-25.6 0-46.080 19.456-46.080 43.008v852.992c0 19.456-16.384 35.84-35.84 35.84s-35.84-16.384-35.84-35.84v-852.992c0-63.488 53.248-114.688 117.76-114.688h849.92c19.456 0 35.84 16.384 35.84 35.84s-16.384 35.84-35.84 35.84zM662.528 95.915c19.456 0 35.84 16.384 35.84 35.84v552.96c0 19.456-16.384 35.84-35.84 35.84s-35.84-16.384-35.84-35.84v-552.96c0-19.456 16.384-35.84 35.84-35.84z" />
<glyph unicode="&#xe902;" glyph-name="applicant-o" d="M579.584 328.363h-107.52c-192.512 0-322.56-123.904-322.56-309.248 0-19.456 16.384-35.84 35.84-35.84s35.84 16.384 35.84 35.84c0 144.384 98.304 237.568 250.88 237.568h107.52c147.456 0 250.88-97.28 250.88-237.568 0-19.456 16.384-35.84 35.84-35.84s35.84 16.384 35.84 35.84c0 179.2-135.168 309.248-322.56 309.248zM522.24 375.467c147.456 0 267.264 119.808 267.264 267.264s-119.808 267.264-267.264 267.264-267.264-119.808-267.264-267.264c0-147.456 119.808-267.264 267.264-267.264zM522.24 838.315c107.52 0 195.584-88.064 195.584-195.584s-88.064-195.584-195.584-195.584c-107.52 0-195.584 88.064-195.584 195.584 0 108.544 88.064 195.584 195.584 195.584z" />
<glyph unicode="&#xe903;" glyph-name="application-o" d="M903.168 921.259h-747.52c-41.984 0-76.8-34.816-76.8-76.8v-845.824c0-41.984 34.816-76.8 76.8-76.8h747.52c41.984 0 76.8 34.816 76.8 76.8v845.824c0 41.984-33.792 76.8-76.8 76.8zM908.288-1.365c0-3.072-2.048-5.12-5.12-5.12h-747.52c-3.072 0-5.12 2.048-5.12 5.12v845.824c0 3.072 2.048 5.12 5.12 5.12h747.52c3.072 0 5.12-2.048 5.12-5.12v-845.824zM310.272 434.859h167.936c41.984 0 76.8 34.816 76.8 76.8v163.84c0 41.984-34.816 76.8-76.8 76.8h-167.936c-41.984 0-76.8-34.816-76.8-76.8v-163.84c0-41.984 34.816-76.8 76.8-76.8zM305.152 676.523c0 3.072 2.048 5.12 5.12 5.12h167.936c3.072 0 5.12-2.048 5.12-5.12v-163.84c0-3.072-2.048-5.12-5.12-5.12h-167.936c-3.072 0-5.12 2.048-5.12 5.12v163.84zM662.528 638.635h146.432c19.456 0 35.84 16.384 35.84 35.84s-16.384 35.84-35.84 35.84h-146.432c-19.456 0-35.84-16.384-35.84-35.84s16.384-35.84 35.84-35.84zM815.104 344.747h-546.816c-19.456 0-35.84-16.384-35.84-35.84s16.384-35.84 35.84-35.84h546.816c19.456 0 35.84 16.384 35.84 35.84s-16.384 35.84-35.84 35.84zM815.104 162.475h-546.816c-19.456 0-35.84-16.384-35.84-35.84s16.384-35.84 35.84-35.84h546.816c19.456 0 35.84 16.384 35.84 35.84s-16.384 35.84-35.84 35.84zM662.528 456.363h146.432c19.456 0 35.84 16.384 35.84 35.84s-16.384 35.84-35.84 35.84h-146.432c-19.456 0-35.84-16.384-35.84-35.84s16.384-35.84 35.84-35.84z" />
<glyph unicode="&#xe904;" glyph-name="beta-o" d="M613.376 491.179c37.888 8.192 71.68 41.984 71.68 94.208 0 57.344-41.984 104.448-116.736 104.448h-201.728v-409.6h206.848c76.8 0 118.784 47.104 118.784 110.592 1.024 49.152-34.816 93.184-78.848 100.352zM438.272 626.347h114.688c36.864 0 57.344-22.528 57.344-53.248s-20.48-53.248-57.344-53.248h-114.688v106.496zM557.056 342.699h-118.784v113.664h117.76c40.96 0 62.464-25.6 62.464-56.32 1.024-35.84-22.528-57.344-61.44-57.344zM514.048 912.043c-274.432 0-497.664-193.536-497.664-431.104 0-126.976 63.488-245.76 174.080-327.68v-244.736l229.376 149.504c31.744-5.12 63.488-8.192 94.208-8.192 274.432 0 497.664 193.536 497.664 431.104s-223.232 431.104-497.664 431.104zM514.048 121.515c-31.744 0-63.488 3.072-95.232 9.216l-14.336 3.072-142.336-92.16v149.504l-15.36 10.24c-101.376 68.608-158.72 171.008-158.72 279.552 0 197.632 191.488 359.424 425.984 359.424 235.52 0 425.984-160.768 425.984-359.424s-190.464-359.424-425.984-359.424z" />
<glyph unicode="&#xe905;" glyph-name="close-circle-o" d="M522.24 932.523c-273.408 0-496.64-222.208-496.64-496.64s223.232-497.664 497.664-497.664 497.664 223.232 497.664 497.664c-1.024 274.432-224.256 496.64-498.688 496.64zM522.24 9.899c-234.496 0-424.96 191.488-424.96 425.984s190.464 424.96 424.96 424.96c234.496 0 425.984-190.464 425.984-425.984s-191.488-424.96-425.984-424.96zM694.272 607.915c-14.336 14.336-36.864 14.336-50.176 0l-121.856-121.856-120.832 121.856c-14.336 14.336-36.864 14.336-50.176 0-14.336-14.336-14.336-36.864 0-50.176l121.856-120.832-122.88-122.88c-14.336-14.336-14.336-36.864 0-50.176 7.168-7.168 16.384-10.24 25.6-10.24s18.432 3.072 25.6 10.24l120.832 120.832 121.856-120.832c7.168-7.168 16.384-10.24 25.6-10.24s18.432 3.072 25.6 10.24c14.336 14.336 14.336 36.864 0 50.176l-121.856 121.856 121.856 120.832c13.312 14.336 13.312 36.864-1.024 51.2z" />
<glyph unicode="&#xe906;" glyph-name="control-o" d="M395.264 366.251h-92.16c-193.536 0-280.576-135.168-280.576-268.288 0-19.456 16.384-35.84 35.84-35.84s35.84 16.384 35.84 35.84c0 95.232 55.296 196.608 208.896 196.608h92.16c122.88 0 208.896-80.896 208.896-196.608 0-19.456 16.384-35.84 35.84-35.84s35.84 16.384 35.84 35.84c0 155.648-118.784 268.288-280.576 268.288zM346.112 395.947c128 0 233.472 104.448 233.472 233.472s-105.472 233.472-233.472 233.472-233.472-104.448-233.472-233.472 104.448-233.472 233.472-233.472zM346.112 791.211c89.088 0 161.792-72.704 161.792-161.792s-72.704-161.792-161.792-161.792c-89.088 0-161.792 72.704-161.792 161.792s72.704 161.792 161.792 161.792zM741.376 383.659h-43.008c-19.456 0-35.84-16.384-35.84-35.84s16.384-35.84 35.84-35.84h43.008c87.040 0 147.456-57.344 147.456-139.264 0-19.456 16.384-35.84 35.84-35.84s35.84 16.384 35.84 35.84c0 121.856-92.16 210.944-219.136 210.944zM694.272 506.539c-19.456 0-35.84-16.384-35.84-35.84s16.384-35.84 35.84-35.84c101.376 0 184.32 82.944 184.32 184.32s-82.944 184.32-184.32 184.32c-19.456 0-35.84-16.384-35.84-35.84s16.384-35.84 35.84-35.84c61.44 0 112.64-50.176 112.64-112.64s-50.176-112.64-112.64-112.64z" />
<glyph unicode="&#xe907;" glyph-name="copy-o" d="M703.488 751.275h-566.272c-41.984 0-76.8-34.816-76.8-76.8v-675.84c0-41.984 34.816-76.8 76.8-76.8h566.272c41.984 0 76.8 34.816 76.8 76.8v675.84c0 41.984-34.816 76.8-76.8 76.8zM708.608-1.365c0-3.072-2.048-5.12-5.12-5.12h-566.272c-3.072 0-5.12 2.048-5.12 5.12v675.84c0 3.072 2.048 5.12 5.12 5.12h566.272c3.072 0 5.12-2.048 5.12-5.12v-675.84zM910.336 921.259h-566.272c-41.984 0-76.8-34.816-76.8-76.8v-24.576c0-19.456 16.384-35.84 35.84-35.84s35.84 16.384 35.84 35.84v24.576c0 3.072 2.048 5.12 5.12 5.12h566.272c3.072 0 5.12-2.048 5.12-5.12v-675.84c0-3.072-2.048-5.12-5.12-5.12h-57.344c-19.456 0-35.84-16.384-35.84-35.84s16.384-35.84 35.84-35.84h57.344c41.984 0 76.8 34.816 76.8 76.8v675.84c0 41.984-34.816 76.8-76.8 76.8z" />
<glyph unicode="&#xe908;" glyph-name="employee-o" d="M944.128 779.947h-243.712v37.888c0 41.984-34.816 76.8-76.8 76.8h-197.632c-41.984 0-76.8-34.816-76.8-76.8v-37.888h-250.88c-41.984 0-76.8-34.816-76.8-76.8v-599.040c0-41.984 34.816-76.8 76.8-76.8h845.824c41.984 0 76.8 34.816 76.8 76.8v599.040c0 43.008-33.792 76.8-76.8 76.8zM420.864 817.835c0 3.072 2.048 5.12 5.12 5.12h197.632c3.072 0 5.12-2.048 5.12-5.12v-62.464c0-3.072-2.048-5.12-5.12-5.12h-197.632c-3.072 0-5.12 2.048-5.12 5.12v62.464zM227.328 98.987c0 2.048 1.024 3.072 1.024 5.12 0 23.552 8.192 102.4 109.568 102.4h54.272c64.512 0 109.568-41.984 109.568-102.4 0-2.048 0-3.072 1.024-5.12h-275.456zM949.248 104.107c0-3.072-2.048-5.12-5.12-5.12h-371.712c0 2.048 1.024 3.072 1.024 5.12 0 100.352-75.776 174.080-181.248 174.080h-54.272c-108.544 0-181.248-69.632-181.248-174.080 0-2.048 0-3.072 1.024-5.12h-59.392c-3.072 0-5.12 2.048-5.12 5.12v599.040c0 3.072 2.048 5.12 5.12 5.12h266.24c14.336-18.432 35.84-29.696 60.416-29.696h197.632c24.576 0 46.080 11.264 60.416 29.696h260.096c3.072 0 5.12-2.048 5.12-5.12v-599.040zM831.488 488.107h-166.912c-19.456 0-35.84-16.384-35.84-35.84s16.384-35.84 35.84-35.84h166.912c19.456 0 35.84 16.384 35.84 35.84s-15.36 35.84-35.84 35.84zM831.488 334.507h-166.912c-19.456 0-35.84-16.384-35.84-35.84s16.384-35.84 35.84-35.84h166.912c19.456 0 35.84 16.384 35.84 35.84s-15.36 35.84-35.84 35.84zM362.496 614.059c-83.968 0-152.576-68.608-152.576-152.576s68.608-152.576 152.576-152.576 152.576 68.608 152.576 152.576c0 83.968-68.608 152.576-152.576 152.576zM362.496 379.563c-45.056 0-80.896 36.864-80.896 80.896s36.864 80.896 80.896 80.896 80.896-36.864 80.896-80.896-35.84-80.896-80.896-80.896z" />
<glyph unicode="&#xe909;" glyph-name="feedback-o" d="M516.096 935.595c-275.456 0-499.712-191.488-499.712-427.008 0-129.024 65.536-247.808 181.248-328.704v-249.856l208.896 162.816c35.84-7.168 72.704-10.24 110.592-10.24 275.456 0 500.736 191.488 500.736 427.008s-225.28 425.984-501.76 425.984zM516.096 152.235c-37.888 0-75.776 4.096-111.616 12.288l-16.384 4.096-119.808-93.184v142.336l-16.384 10.24c-104.448 68.608-163.84 169.984-163.84 280.576 0 196.608 192.512 355.328 429.056 355.328s428.032-159.744 428.032-355.328c0-196.608-192.512-356.352-429.056-356.352zM711.68 633.515h-410.624c-19.456 0-35.84-16.384-35.84-35.84s16.384-35.84 35.84-35.84h410.624c19.456 0 35.84 16.384 35.84 35.84s-16.384 35.84-35.84 35.84zM711.68 438.955h-410.624c-19.456 0-35.84-16.384-35.84-35.84s16.384-35.84 35.84-35.84h410.624c19.456 0 35.84 16.384 35.84 35.84s-16.384 35.84-35.84 35.84z" />
<glyph unicode="&#xe90a;" glyph-name="menu-o" d="M232.448 646.827h573.44c19.456 0 35.84 16.384 35.84 35.84s-16.384 35.84-35.84 35.84h-573.44c-19.456 0-35.84-16.384-35.84-35.84s16.384-35.84 35.84-35.84zM806.912 467.627h-573.44c-19.456 0-35.84-16.384-35.84-35.84s16.384-35.84 35.84-35.84h573.44c19.456 0 35.84 16.384 35.84 35.84s-16.384 35.84-35.84 35.84zM806.912 216.747h-573.44c-19.456 0-35.84-16.384-35.84-35.84s16.384-35.84 35.84-35.84h573.44c19.456 0 35.84 16.384 35.84 35.84s-16.384 35.84-35.84 35.84z" />
<glyph unicode="&#xe90b;" glyph-name="history-o" d="M507.904 301.739c8.192 0 16.384 3.072 22.528 9.216l202.752 202.752c12.288 12.288 12.288 32.768 0 45.056s-32.768 12.288-45.056 0l-180.224-180.224-108.544 108.544c-12.288 12.288-32.768 12.288-45.056 0s-12.288-32.768 0-45.056l129.024-129.024c0 0 1.024-1.024 1.024-1.024s1.024-1.024 1.024-1.024c6.144-6.144 14.336-9.216 22.528-9.216zM520.192 935.595c-274.432 0-497.664-223.232-497.664-496.64 0-135.168 54.272-263.168 150.528-356.352h-93.184c-19.456 0-35.84-16.384-35.84-35.84s16.384-35.84 35.84-35.84h188.416c0 0 0 0 0 0s0 0 0 0c19.456 0 35.84 16.384 35.84 35.84v188.416c0 19.456-16.384 35.84-35.84 35.84s-35.84-16.384-35.84-35.84v-110.592c-88.064 80.896-138.24 194.56-138.24 314.368 0 234.496 190.464 425.984 425.984 425.984s425.984-190.464 425.984-425.984-191.488-425.984-425.984-425.984c-19.456 0-35.84-16.384-35.84-35.84s16.384-35.84 35.84-35.84c274.432 0 497.664 223.232 497.664 497.664 0 273.408-223.232 496.64-497.664 496.64z" />
<glyph unicode="&#xe90c;" glyph-name="job-o" d="M934.912 703.147h-849.92c-41.984 0-76.8-34.816-76.8-76.8v-622.592c0-37.888 34.816-68.608 76.8-68.608h849.92c41.984 0 76.8 30.72 76.8 67.584v623.616c0 43.008-34.816 76.8-76.8 76.8zM79.872 626.347c0 3.072 2.048 5.12 5.12 5.12h849.92c3.072 0 5.12-2.048 5.12-5.12v-163.84l-236.544-53.248c-18.432 40.96-59.392 69.632-107.52 69.632h-174.080c-45.056 0-84.992-25.6-104.448-63.488l-237.568 61.44v149.504zM642.048 360.107v-68.608c0-25.6-20.48-46.080-46.080-46.080h-174.080c-25.6 0-46.080 20.48-46.080 46.080v68.608c0 25.6 20.48 46.080 46.080 46.080h174.080c25.6 0 46.080-20.48 46.080-46.080zM940.032 7.851c-1.024 0-3.072-1.024-5.12-1.024h-849.92c-2.048 0-4.096 0-5.12 1.024v395.264l224.256-58.368v-52.224c0-64.512 53.248-117.76 117.76-117.76h174.080c64.512 0 117.76 53.248 117.76 117.76v45.056l226.304 51.2v-380.928zM347.136 748.203c19.456 0 35.84 16.384 35.84 35.84v29.696c1.024 0 3.072 1.024 5.12 1.024h242.688c2.048 0 4.096 0 5.12-1.024v-25.6c0-19.456 16.384-35.84 35.84-35.84s35.84 16.384 35.84 35.84v32.768c0 36.864-33.792 64.512-76.8 64.512h-242.688c-43.008 0-76.8-28.672-76.8-64.512v-37.888c0-19.456 15.36-34.816 35.84-34.816z" />
<glyph unicode="&#xe90d;" glyph-name="journal-o" d="M846.848 871.083h-185.344c-7.168 32.768-35.84 57.344-69.632 57.344h-262.144c-34.816 0-63.488-24.576-69.632-57.344h-98.304c-41.984 0-76.8-34.816-76.8-76.8v-788.48c0-41.984 34.816-76.8 76.8-76.8h686.080c41.984 0 76.8 34.816 76.8 76.8v788.48c-1.024 41.984-34.816 76.8-77.824 76.8zM590.848 856.747v-390.144l-132.096 88.064-129.024-87.040v389.12h261.12zM851.968 5.803c0-3.072-2.048-5.12-5.12-5.12h-686.080c-3.072 0-5.12 2.048-5.12 5.12v788.48c0 3.072 2.048 5.12 5.12 5.12h97.28v-466.944l200.704 136.192 203.776-135.168v465.92h184.32c3.072 0 5.12-2.048 5.12-5.12v-788.48z" />
<glyph unicode="&#xe90e;" glyph-name="learning-o" d="M972.8 632.491l-393.216 206.848c-34.816 18.432-88.064 19.456-123.904 3.072l-409.6-185.344c-25.6-11.264-39.936-30.72-40.96-54.272-1.024-22.528 12.288-43.008 36.864-55.296l92.16-48.128v-317.44l8.192-10.24c4.096-5.12 98.304-113.664 318.464-122.88 1.024 0 1.024 0 2.048 0 19.456 0 34.816 15.36 35.84 33.792 1.024 19.456-14.336 36.864-33.792 37.888-153.6 7.168-233.472 66.56-258.048 89.088v251.904l229.376-120.832c18.432-9.216 41.984-14.336 65.536-14.336 20.48 0 40.96 4.096 57.344 11.264l99.328 45.056v-207.872c-50.176-16.384-86.016-62.464-86.016-117.76 0-68.608 57.344-123.904 126.976-123.904s126.976 55.296 126.976 123.904c0 21.504-5.12 40.96-15.36 58.368 53.248 30.72 88.064 70.656 89.088 72.704l9.216 10.24v174.080c0 19.456-16.384 35.84-35.84 35.84s-35.84-16.384-35.84-35.84v-146.432c-14.336-14.336-44.032-40.96-81.92-58.368-8.192 4.096-16.384 7.168-25.6 9.216v238.592l239.616 108.544c25.6 11.264 39.936 30.72 40.96 54.272 0 21.504-14.336 41.984-37.888 54.272zM698.368 4.779c-30.72 0-55.296 23.552-55.296 52.224s24.576 52.224 55.296 52.224 55.296-23.552 55.296-52.224-24.576-52.224-55.296-52.224zM712.704 486.059l-194.56 122.88c-16.384 10.24-38.912 5.12-49.152-11.264s-5.12-38.912 11.264-49.152l154.624-98.304-106.496-48.128c-15.36-7.168-46.080-6.144-60.416 1.024l-372.736 196.608 390.144 177.152c15.36 7.168 46.080 6.144 60.416-1.024l373.76-195.584-206.848-94.208z" />
<glyph unicode="&#xe90f;" glyph-name="support-o" d="M896 618.155v188.416c0 64.512-53.248 117.76-117.76 117.76h-532.48c-64.512 0-117.76-53.248-117.76-117.76v-188.416c-65.536-9.216-115.712-65.536-115.712-133.12v-195.584c0-74.752 60.416-135.168 135.168-135.168h26.624c74.752 0 135.168 60.416 135.168 135.168v195.584c0 65.536-47.104 120.832-109.568 132.096v189.44c0 25.6 20.48 46.080 46.080 46.080h532.48c25.6 0 46.080-20.48 46.080-46.080v-189.44c-62.464-11.264-110.592-66.56-110.592-132.096v-195.584c0-51.2 28.672-96.256 70.656-118.784-31.744-34.816-73.728-60.416-120.832-72.704-16.384 54.272-67.584 95.232-126.976 95.232-73.728 0-133.12-59.392-133.12-133.12s59.392-133.12 133.12-133.12c61.44 0 112.64 41.984 128 98.304 80.896 16.384 150.528 62.464 197.632 129.024h13.312c74.752 0 135.168 60.416 135.168 135.168v195.584c1.024 67.584-49.152 123.904-114.688 133.12zM237.568 485.035v-195.584c0-34.816-28.672-63.488-63.488-63.488h-27.648c-34.816 0-63.488 28.672-63.488 63.488v195.584c0 34.816 28.672 63.488 63.488 63.488h27.648c34.816 0 63.488-28.672 63.488-63.488zM536.576-1.365c-33.792 0-61.44 27.648-61.44 61.44s27.648 61.44 61.44 61.44 61.44-27.648 61.44-61.44-26.624-61.44-61.44-61.44zM940.032 288.427c0-34.816-28.672-63.488-63.488-63.488h-27.648c-34.816 0-63.488 28.672-63.488 63.488v196.608c0 34.816 28.672 63.488 63.488 63.488h27.648c34.816 0 63.488-28.672 63.488-63.488v-196.608z" />
<glyph unicode="&#xe910;" glyph-name="close-o" d="M588.8 431.787l228.352 221.184c14.336 13.312 14.336 36.864 1.024 50.176-13.312 14.336-36.864 14.336-50.176 1.024l-230.4-222.208-230.4 222.208c-14.336 13.312-36.864 13.312-50.176-1.024s-13.312-36.864 1.024-50.176l228.352-221.184-228.352-220.16c-14.336-13.312-14.336-36.864-1.024-50.176 7.168-7.168 16.384-11.264 25.6-11.264s18.432 3.072 24.576 10.24l230.4 222.208 229.376-222.208c7.168-7.168 16.384-10.24 24.576-10.24 9.216 0 18.432 4.096 25.6 11.264 13.312 14.336 13.312 36.864-1.024 50.176l-227.328 220.16z" />
<glyph unicode="&#xe911;" glyph-name="onboarding-o" d="M855.040 783.019h-123.904c-12.288 13.312-29.696 24.576-55.296 27.648-28.672 3.072-44.032 35.84-46.080 40.96-8.192 24.576-37.888 64.512-104.448 64.512 0 0 0 0-1.024 0h-3.072c0 0 0 0-1.024 0-66.56 0-97.28-38.912-104.448-64.512-2.048-5.12-17.408-36.864-46.080-40.96-25.6-3.072-44.032-14.336-55.296-27.648h-123.904c-43.008 0-76.8-34.816-76.8-76.8v-706.56c0-41.984 34.816-76.8 76.8-76.8h664.576c43.008 0 76.8 34.816 76.8 76.8v706.56c0 41.984-33.792 76.8-76.8 76.8zM350.208 724.651c0 8.192 4.096 22.528 25.6 24.576 66.56 7.168 93.184 76.8 94.208 79.872l1.024 3.072c2.048 4.096 12.288 22.528 50.176 22.528 0 0 0 0 0 0h3.072c0 0 0 0 0 0 37.888 0 48.128-18.432 50.176-22.528l1.024-3.072c1.024-3.072 27.648-71.68 94.208-79.872 21.504-2.048 25.6-17.408 25.6-24.576v-62.464h-345.088v62.464zM860.16-0.341c0-3.072-2.048-5.12-5.12-5.12h-664.576c-3.072 0-5.12 2.048-5.12 5.12v706.56c0 3.072 2.048 5.12 5.12 5.12h102.4v-110.592h460.8v110.592h102.4c3.072 0 5.12-2.048 5.12-5.12v-706.56zM553.984 749.227c0-15.835-12.837-28.672-28.672-28.672s-28.672 12.837-28.672 28.672c0 15.835 12.837 28.672 28.672 28.672s28.672-12.837 28.672-28.672zM709.632 503.467l-225.28-225.28-117.76 117.76c-14.336 14.336-36.864 14.336-51.2 0s-14.336-36.864 0-50.176l168.96-168.96 276.48 276.48c14.336 14.336 14.336 36.864 0 50.176-14.336 14.336-36.864 14.336-51.2 0z" />
<glyph unicode="&#xe912;" glyph-name="orgchart-o" d="M920.576 182.955v159.744c0 9.216 0 51.2-29.696 82.944-13.312 14.336-38.912 31.744-80.896 31.744h-248.832v186.368c59.392 15.36 103.424 69.632 103.424 133.12 0 75.776-62.464 138.24-138.24 138.24s-138.24-62.464-138.24-138.24c0-63.488 43.008-116.736 101.376-133.12v-186.368h-254.976c-43.008 0-68.608-17.408-82.944-31.744-29.696-31.744-30.72-73.728-29.696-81.92v-159.744c-59.392-15.36-102.4-69.632-102.4-133.12 0-75.776 62.464-138.24 138.24-138.24s138.24 62.464 138.24 138.24c0 63.488-43.008 117.76-102.4 133.12v161.792c0 0 0 19.456 10.24 30.72 2.048 2.048 9.216 10.24 30.72 10.24h254.976v-202.752c-59.392-15.36-102.4-69.632-102.4-133.12 0-75.776 62.464-138.24 138.24-138.24s138.24 62.464 138.24 138.24c0 63.488-44.032 117.76-102.4 133.12v201.728h248.832c19.456 0 26.624-7.168 28.672-9.216 9.216-9.216 10.24-25.6 10.24-31.744v-161.792c-58.368-15.36-102.4-69.632-102.4-133.12 0-75.776 62.464-138.24 138.24-138.24s138.24 62.464 138.24 138.24c0 63.488-44.032 117.76-102.4 133.12zM224.256 49.835c0-36.864-29.696-66.56-66.56-66.56s-66.56 29.696-66.56 66.56 29.696 66.56 66.56 66.56 66.56-29.696 66.56-66.56zM459.776 776.875c0 36.864 29.696 66.56 66.56 66.56s66.56-29.696 66.56-66.56-29.696-66.56-66.56-66.56c-36.864 0-66.56 29.696-66.56 66.56zM591.872 49.835c0-36.864-29.696-66.56-66.56-66.56s-66.56 29.696-66.56 66.56 29.696 66.56 66.56 66.56c36.864 0 66.56-29.696 66.56-66.56zM884.736-16.725c-36.864 0-66.56 29.696-66.56 66.56s29.696 66.56 66.56 66.56 66.56-29.696 66.56-66.56-29.696-66.56-66.56-66.56z" />
<glyph unicode="&#xe913;" glyph-name="print-o" d="M947.2 705.195h-106.496v153.6c0 40.96-32.768 73.728-73.728 73.728h-490.496c-40.96 0-73.728-32.768-73.728-73.728v-153.6h-110.592c-40.96 0-73.728-32.768-73.728-73.728v-422.912c0-40.96 32.768-73.728 73.728-73.728h110.592v-128c0-39.936 32.768-72.704 73.728-72.704h487.424c40.96 0 73.728 32.768 73.728 72.704v128h110.592c40.96 0 73.728 32.768 73.728 73.728v422.912c-1.024 40.96-33.792 73.728-74.752 73.728zM273.408 858.795c0 1.024 1.024 2.048 2.048 2.048h490.496c1.024 0 2.048-1.024 2.048-2.048v-153.6h-494.592v153.6zM762.88 5.803h-486.4c-1.024 0-2.048 1.024-2.048 1.024s0 0 0 0v357.376h491.52v-357.376c-1.024 0-1.024-1.024-3.072-1.024zM949.248 208.555c0-1.024-1.024-2.048-2.048-2.048h-110.592v229.376h-634.88v-229.376h-109.568c-1.024 0-2.048 1.024-2.048 2.048v422.912c0 1.024 1.024 2.048 2.048 2.048h855.040c1.024 0 2.048-1.024 2.048-2.048v-422.912zM657.408 292.523h-276.48c-19.456 0-35.84-16.384-35.84-35.84s16.384-35.84 35.84-35.84h276.48c19.456 0 35.84 16.384 35.84 35.84s-15.36 35.84-35.84 35.84zM657.408 149.163h-276.48c-19.456 0-35.84-16.384-35.84-35.84s16.384-35.84 35.84-35.84h276.48c19.456 0 35.84 16.384 35.84 35.84s-15.36 35.84-35.84 35.84z" />
<glyph unicode="&#xe914;" glyph-name="profile-o" d="M504.832 932.523c-274.432 0-497.664-223.232-497.664-497.664s223.232-497.664 497.664-497.664 497.664 223.232 497.664 497.664-223.232 497.664-497.664 497.664zM271.36 79.531c31.744 65.536 99.328 103.424 188.416 103.424h92.16c82.944-1.024 151.552-38.912 185.344-104.448-66.56-44.032-146.432-69.632-232.448-69.632s-166.912 25.6-233.472 70.656zM794.624 122.539c-48.128 81.92-138.24 131.072-243.712 131.072h-92.16c-110.592 0-198.656-48.128-245.76-130.048-81.92 78.848-134.144 188.416-134.144 311.296 0 234.496 191.488 425.984 425.984 425.984s425.984-191.488 425.984-425.984c0-122.88-52.224-234.496-136.192-312.32zM501.76 750.251c-128 0-232.448-104.448-232.448-232.448s104.448-232.448 232.448-232.448 232.448 104.448 232.448 232.448c0 128-104.448 232.448-232.448 232.448zM501.76 356.011c-89.088 0-160.768 72.704-160.768 160.768s71.68 161.792 160.768 161.792c89.088 0 160.768-72.704 160.768-160.768s-71.68-161.792-160.768-161.792z" />
<glyph unicode="&#xe915;" glyph-name="logo-o" d="M505.856-74.069c-47.104 0-90.112 18.432-123.904 51.2l-325.632 323.584c-32.768 32.768-51.2 76.8-51.2 123.904s18.432 90.112 51.2 122.88l325.632 324.608c32.768 32.768 76.8 51.2 123.904 51.2 46.080 0 90.112-18.432 123.904-50.176l326.656-324.608c32.768-32.768 51.2-76.8 51.2-122.88 0-47.104-18.432-90.112-51.2-123.904l-326.656-324.608c-33.792-33.792-77.824-51.2-123.904-51.2zM505.856 850.603c-27.648 0-53.248-10.24-73.728-29.696l-325.632-324.608c-19.456-19.456-29.696-45.056-29.696-72.704s10.24-53.248 29.696-72.704l326.656-323.584c19.456-19.456 45.056-29.696 72.704-29.696s53.248 11.264 73.728 30.72l325.632 323.584c19.456 19.456 29.696 45.056 29.696 72.704s-10.24 53.248-29.696 72.704l-326.656 323.584c-19.456 19.456-45.056 29.696-72.704 29.696z" />
<glyph unicode="&#xe916;" glyph-name="bullhorn-o" d="M990.208 552.619c0 108.544-78.848 197.632-181.248 211.968v61.44c0 5.12-1.024 51.2-33.792 76.8-14.336 11.264-39.936 21.504-77.824 10.24l-572.416-167.936c-29.696-10.24-80.896-47.104-80.896-118.784v-141.312c0-71.68 50.176-108.544 80.896-118.784l72.704-21.504 126.976-399.36c5.12-15.36 19.456-24.576 33.792-24.576 4.096 0 7.168 1.024 11.264 2.048 18.432 6.144 29.696 26.624 23.552 45.056l-112.64 353.28 416.768-122.88c11.264-3.072 21.504-4.096 30.72-4.096 21.504 0 36.864 7.168 47.104 15.36 33.792 25.6 33.792 71.68 33.792 75.776v56.32c102.4 13.312 181.248 103.424 181.248 210.944zM738.304 285.355c0-7.168-3.072-17.408-6.144-19.456-1.024-1.024-6.144-1.024-14.336 1.024l-570.368 166.912c-4.096 1.024-31.744 13.312-31.744 50.176v142.336c0 35.84 25.6 48.128 31.744 50.176l569.344 167.936c9.216 3.072 14.336 2.048 15.36 1.024 3.072-2.048 6.144-12.288 6.144-19.456v-540.672zM809.984 413.355v279.552c62.464-13.312 109.568-70.656 109.568-139.264s-48.128-126.976-109.568-140.288z" />
<glyph unicode="&#xe917;" glyph-name="recruitment-o" d="M445.44 738.987c-89.088 0-162.816-72.704-162.816-162.816s72.704-162.816 162.816-162.816c89.088 0 162.816 72.704 162.816 162.816s-72.704 162.816-162.816 162.816zM445.44 486.059c-50.176 0-91.136 40.96-91.136 91.136s40.96 91.136 91.136 91.136c50.176 0 91.136-40.96 91.136-91.136s-40.96-91.136-91.136-91.136zM994.304-24.917l-241.664 241.664c64.512 73.728 103.424 169.984 103.424 276.48 0 231.424-188.416 420.864-420.864 420.864s-419.84-189.44-419.84-421.888c0-231.424 188.416-420.864 420.864-420.864 100.352 0 192.512 35.84 265.216 94.208l242.688-242.688c7.168-7.168 16.384-10.24 25.6-10.24s18.432 3.072 25.6 10.24c12.288 15.36 12.288 37.888-1.024 52.224zM221.184 217.771c17.408 16.384 100.352 86.016 218.112 86.016 68.608 0 112.64-13.312 132.096-25.6 16.384-11.264 38.912-6.144 50.176 10.24s6.144 38.912-10.24 50.176c-36.864 22.528-99.328 36.864-172.032 36.864-149.504 0-250.88-89.088-270.336-108.544-51.2 60.416-82.944 139.264-82.944 225.28 0 192.512 156.672 349.184 349.184 349.184s349.184-156.672 349.184-349.184-156.672-348.16-349.184-348.16c-80.896 0-154.624 27.648-214.016 73.728z" />
<glyph unicode="&#xe918;" glyph-name="salary-o" d="M524.288 924.331c-274.432 0-497.664-223.232-497.664-497.664s223.232-497.664 497.664-497.664 497.664 223.232 497.664 497.664-223.232 497.664-497.664 497.664zM524.288 1.707c-234.496 0-425.984 190.464-425.984 424.96s190.464 425.984 425.984 425.984c234.496 0 425.984-190.464 425.984-425.984 0-234.496-191.488-424.96-425.984-424.96zM496.64 563.883c27.648 13.312 88.064-10.24 122.88-30.72 17.408-10.24 38.912-4.096 49.152 12.288 10.24 17.408 4.096 38.912-12.288 49.152-7.168 4.096-45.056 25.6-90.112 36.864v71.68c0 19.456-16.384 35.84-35.84 35.84s-35.84-16.384-35.84-35.84v-65.536c-9.216-2.048-19.456-4.096-27.648-8.192-21.504-10.24-49.152-32.768-57.344-83.968-14.336-93.184 64.512-124.928 116.736-145.408 62.464-25.6 80.896-37.888 74.752-72.704-4.096-26.624-15.36-31.744-19.456-32.768-31.744-14.336-100.352 13.312-139.264 37.888-16.384 10.24-38.912 5.12-49.152-11.264s-5.12-38.912 11.264-49.152c7.168-4.096 44.032-27.648 89.088-40.96v-77.824c0-19.456 16.384-35.84 35.84-35.84s35.84 16.384 35.84 35.84v66.56c16.384 1.024 31.744 3.072 46.080 10.24 22.528 10.24 52.224 33.792 60.416 88.064 14.336 96.256-66.56 128-119.808 149.504-61.44 24.576-77.824 35.84-72.704 67.584 3.072 22.528 13.312 26.624 17.408 28.672z" />
<glyph unicode="&#xe919;" glyph-name="search-o" d="M1012.736-4.437l-239.616 238.592c63.488 73.728 102.4 168.96 102.4 273.408 0 229.376-187.392 416.768-416.768 416.768s-416.768-186.368-416.768-416.768c0-229.376 187.392-416.768 416.768-416.768 99.328 0 191.488 34.816 263.168 93.184l239.616-239.616c7.168-7.168 16.384-10.24 25.6-10.24s18.432 3.072 25.6 10.24c14.336 14.336 14.336 36.864 0 51.2zM113.664 507.563c0 190.464 154.624 345.088 345.088 345.088s345.088-154.624 345.088-345.088-154.624-345.088-345.088-345.088-345.088 154.624-345.088 345.088z" />
<glyph unicode="&#xe91a;" glyph-name="team-o" d="M565.248 350.891h-94.208c-197.632 0-285.696-137.216-285.696-274.432 0-19.456 16.384-35.84 35.84-35.84s35.84 16.384 35.84 35.84c0 97.28 56.32 202.752 214.016 202.752h94.208c125.952 0 214.016-82.944 214.016-202.752 0-19.456 16.384-35.84 35.84-35.84s35.84 16.384 35.84 35.84c0 159.744-120.832 274.432-285.696 274.432zM526.336 406.187c124.928 0 226.304 101.376 226.304 226.304s-102.4 226.304-226.304 226.304-226.304-101.376-226.304-226.304 101.376-226.304 226.304-226.304zM526.336 787.115c84.992 0 154.624-69.632 154.624-154.624s-69.632-154.624-154.624-154.624c-84.992 0-154.624 69.632-154.624 154.624s68.608 154.624 154.624 154.624zM815.104 473.771c-19.456 0-35.84-16.384-35.84-35.84s16.384-35.84 35.84-35.84c60.416 0 102.4-38.912 102.4-95.232 0-19.456 16.384-35.84 35.84-35.84s35.84 16.384 35.84 35.84c0 96.256-73.728 166.912-174.080 166.912zM799.744 715.435c32.768-9.216 55.296-38.912 55.296-72.704 0-30.72-18.432-57.344-46.080-69.632-18.432-8.192-26.624-28.672-19.456-47.104 6.144-13.312 19.456-21.504 32.768-21.504 5.12 0 9.216 1.024 14.336 3.072 54.272 23.552 90.112 76.8 90.112 136.192 0 66.56-45.056 124.928-108.544 142.336-19.456 5.12-38.912-6.144-44.032-25.6s7.168-39.936 25.6-45.056zM261.12 437.931c0 19.456-16.384 35.84-35.84 35.84-100.352 0-174.080-70.656-174.080-166.912 0-19.456 16.384-35.84 35.84-35.84s35.84 16.384 35.84 35.84c0 56.32 41.984 95.232 102.4 95.232 20.48 0 35.84 15.36 35.84 35.84zM203.776 506.539c4.096-2.048 9.216-3.072 14.336-3.072 14.336 0 27.648 8.192 32.768 21.504 8.192 18.432-1.024 38.912-19.456 47.104-27.648 12.288-46.080 38.912-46.080 69.632 0 33.792 22.528 64.512 55.296 72.704 19.456 5.12 30.72 24.576 25.6 44.032s-24.576 30.72-44.032 25.6c-63.488-17.408-108.544-75.776-108.544-142.336 0-58.368 34.816-111.616 90.112-135.168z" />
<glyph unicode="&#xe91b;" glyph-name="unlock-o" d="M822.272 506.539v137.216c0 158.72-131.072 287.744-292.864 287.744s-292.864-129.024-292.864-287.744c0-19.456 16.384-35.84 35.84-35.84s35.84 16.384 35.84 35.84c0 118.784 99.328 216.064 221.184 216.064s221.184-97.28 221.184-216.064v-137.216h-589.824v-459.776c0-64.512 53.248-117.76 117.76-117.76h502.784c64.512 0 117.76 53.248 117.76 117.76v459.776h-76.8zM827.392 46.763c0-25.6-20.48-46.080-46.080-46.080h-502.784c-25.6 0-46.080 20.48-46.080 46.080v388.096h594.944v-388.096zM529.408 86.699c72.704 0 132.096 59.392 132.096 132.096s-59.392 132.096-132.096 132.096c-72.704 0-132.096-59.392-132.096-132.096s59.392-132.096 132.096-132.096zM529.408 279.211c32.768 0 60.416-26.624 60.416-60.416s-26.624-60.416-60.416-60.416-60.416 26.624-60.416 60.416 27.648 60.416 60.416 60.416z" />
<glyph unicode="&#xe91c;" glyph-name="view-o" d="M40.96 603.819c16.384-12.288 37.888-8.192 50.176 7.168 1.024 2.048 132.096 173.056 431.104 173.056 295.936 0 424.96-165.888 430.080-173.056 7.168-9.216 17.408-14.336 28.672-14.336 7.168 0 15.36 2.048 21.504 7.168 15.36 12.288 19.456 33.792 7.168 50.176-6.144 8.192-153.6 201.728-487.424 201.728s-482.304-193.536-488.448-201.728c-12.288-15.36-8.192-37.888 7.168-50.176zM534.528 602.795h-26.624c-289.792 0-482.304-180.224-482.304-252.928 1.024-60.416 116.736-271.36 483.328-271.36h26.624c366.592 0 482.304 210.944 482.304 270.336-1.024 73.728-192.512 253.952-483.328 253.952zM518.144 162.475c-103.424 0-186.368 83.968-186.368 186.368 0 97.28 81.92 169.984 190.464 169.984 107.52 0 183.296-69.632 183.296-169.984-1.024-102.4-83.968-186.368-187.392-186.368zM98.304 347.819c8.192 26.624 84.992 104.448 212.992 149.504-32.768-40.96-52.224-91.136-52.224-148.48 0-68.608 26.624-131.072 70.656-177.152-173.056 47.104-228.352 154.624-231.424 176.128zM703.488 169.643c45.056 47.104 73.728 110.592 73.728 180.224 0 58.368-18.432 110.592-51.2 150.528 133.12-45.056 211.968-124.928 220.16-151.552-4.096-23.552-61.44-134.144-242.688-179.2zM565.248 337.579c-36.864 0-66.56 29.696-66.56 66.56 0 13.312 4.096 25.6 11.264 36.864-44.032-6.144-77.824-43.008-77.824-88.064 0-49.152 39.936-89.088 89.088-89.088s89.088 39.936 89.088 89.088c0 1.024 0 2.048 0 3.072-11.264-12.288-27.648-18.432-45.056-18.432z" />
<glyph unicode="&#xe91d;" glyph-name="tick" d="M773.585 795.772c-138.861-137.464-275.084-277.876-409.91-420.461l-115.122 118.225c-26.22 27.697-63.247 44.934-104.299 44.934-39.606 0-75.466-16.044-101.433-41.987l-2.016-2.016c-25.308-27.237-40.838-63.862-40.838-104.114 0-41.676 16.649-79.464 43.658-107.075l220.443-226.183c26.421-27.538 63.526-44.65 104.627-44.65 39.801 0 75.854 16.046 102.044 42.022l-0.010-0.010q261.43 257.707 512 526.119c25.218 27.496 40.672 64.304 40.672 104.721 0 41.694-16.446 79.547-43.205 107.425l0.051-0.053c-26.4 27.757-63.609 45.022-104.849 45.022-39.714 0-75.689-16.010-101.822-41.928l0.010 0.010z" />
<glyph unicode="&#xe91e;" glyph-name="help" d="M907.264 810.667c-99.328 99.328-251.904 105.472-388.096 105.472s-288.768-6.144-388.096-105.472-105.472-251.904-105.472-388.096 6.144-288.768 105.472-388.096c99.328-99.328 251.904-105.472 388.096-105.472s288.768 6.144 388.096 105.472c99.328 99.328 106.496 250.88 106.496 388.096s-7.168 288.768-106.496 388.096zM531.456 151.211c-27.648 0-50.176 22.528-50.176 50.176s22.528 50.176 50.176 50.176c27.648 0 50.176-22.528 50.176-50.176s-22.528-50.176-50.176-50.176zM622.592 444.075c-60.416-45.056-58.368-88.064-58.368-90.112 2.048-20.48-13.312-38.912-34.816-40.96-1.024 0-3.072 0-4.096 0-20.48 0-36.864 14.336-39.936 33.792-4.096 31.744 11.264 100.352 89.088 157.696 33.792 24.576 39.936 56.32 34.816 77.824-3.072 11.264-12.288 30.72-40.96 36.864-64.512 12.288-116.736-28.672-117.76-29.696-16.384-13.312-41.984-11.264-55.296 4.096-14.336 15.36-12.288 39.936 4.096 53.248 3.072 3.072 80.896 65.536 184.32 46.080 52.224-9.216 91.136-44.032 103.424-93.184 12.288-57.344-11.264-116.736-64.512-155.648z" />
<glyph unicode="&#xe91f;" glyph-name="print" d="M321.007 632.618h398.094c21.861 0 40.27 17.258 40.27 40.27v98.948c0 33.366-26.463 59.829-59.829 59.829h-357.825c-33.366 0-59.829-26.463-59.829-59.829v-98.948c0-23.011 17.258-40.27 39.119-40.27zM777.78 185.049c-3.452 18.409-19.56 32.216-39.119 32.216h-437.213c-18.409 0-35.667-13.807-39.119-32.216l-19.56-95.497c-6.903-36.818 20.71-71.335 58.679-71.335h437.213c37.969 0 65.582 34.517 58.679 71.335l-19.56 95.497zM956.117 495.701c0 43.721-35.667 78.238-79.389 78.238h-713.348c-43.721 0-79.389-34.517-79.389-78.238-1.151-94.346-2.301-256.575 3.452-340.566 2.301-31.065 26.463-55.227 57.528-56.378 17.258-1.151 24.162-1.151 40.27-1.151l43.721 155.326c6.903 25.312 31.065 43.721 57.528 43.721h468.279c26.463 0 50.625-18.409 57.528-43.721l43.721-155.326c17.258 1.151 24.162 1.151 40.27 1.151 31.065 1.151 56.378 25.312 57.528 56.378 4.602 83.991 3.452 246.22 2.301 340.566zM200.198 415.161c-21.861 0-40.27 17.258-40.27 40.27 0 21.861 18.409 40.27 40.27 40.27s40.27-17.258 40.27-40.27c0-21.861-17.258-40.27-40.27-40.27z" />
<glyph unicode="&#xe920;" glyph-name="feedback" d="M535.011 871.934c-241.618 0-438.364-165.681-438.364-370.481 0-104.701 51.775-199.047 134.616-265.78-3.452-27.613-6.903-60.98-8.054-89.744-2.301-74.787-2.301-132.315 26.463-146.121s119.658 49.474 169.133 85.142c17.258 12.656 37.969 31.065 57.528 50.625 19.56-2.301 39.119-3.452 58.679-3.452 241.618 0 438.364 165.681 438.364 370.481s-196.746 369.33-438.364 369.33zM723.703 411.71c0-13.807-10.355-24.162-24.162-25.312-104.701-4.602-210.553-4.602-316.404 0-13.807 0-24.162 11.506-24.162 25.312v26.463c0 13.807 10.355 24.162 24.162 25.312 104.701 4.602 210.553 4.602 316.404 0 13.807 0 24.162-11.506 24.162-25.312v-26.463zM727.155 561.283c0-13.807-10.355-24.162-24.162-25.312-104.701-4.602-210.553-4.602-316.404 0-13.807 0-24.162 11.506-24.162 25.312v26.463c0 13.807 10.355 24.162 24.162 25.312 104.701 4.602 210.553 4.602 316.404 0 13.807 0 24.162-11.506 24.162-25.312v-26.463z" />
<glyph unicode="&#xe921;" glyph-name="help-pointer" d="M900.89 488.797c0 107.002-4.602 225.51-82.84 303.748-77.088 77.088-196.746 81.69-302.598 81.69s-226.661-4.602-303.748-82.84c-77.088-77.088-82.84-196.746-82.84-303.748s4.602-225.51 82.84-303.748c55.227-55.227 132.315-73.636 210.553-79.389 29.915-62.13 58.679-105.852 90.894-104.701 26.463 1.151 62.13 50.625 94.346 104.701 78.238 5.753 155.326 24.162 210.553 79.389 78.238 78.238 82.84 197.897 82.84 304.899zM421.106 662.532c2.301 2.301 63.281 50.625 143.82 35.667 40.27-8.054 71.335-34.517 80.539-72.485 11.506-43.721-8.054-89.744-49.474-120.809-47.173-34.517-46.022-69.034-46.022-70.184 2.301-16.108-10.355-29.915-27.613-32.216-1.151 0-2.301 0-3.452 0-16.108 0-28.764 11.506-31.065 26.463-3.452 24.162 8.054 78.238 69.034 123.11 26.463 19.56 31.065 43.721 27.613 60.98-2.301 9.204-9.204 24.162-32.216 28.764-50.625 9.204-92.045-23.011-92.045-23.011-12.656-10.355-32.216-9.204-43.721 3.452-10.355 11.506-9.204 29.915 4.602 40.27zM485.537 315.063c0 21.861 17.258 39.119 39.119 39.119s39.119-17.258 39.119-39.119c0-21.861-17.258-39.119-39.119-39.119s-39.119 18.409-39.119 39.119z" />
<glyph unicode="&#xe922;" glyph-name="info-pointer" d="M824.953 763.782c-77.088 77.088-196.746 82.84-303.748 82.84s-225.51-4.602-303.748-82.84c-77.088-77.088-82.84-196.746-82.84-303.748s4.602-225.51 82.84-303.748c55.227-55.227 132.315-73.636 210.553-79.389 29.915-62.13 58.679-105.852 90.894-104.701 26.463 1.151 62.13 50.625 94.346 104.701 78.238 5.753 155.326 24.162 210.553 79.389 77.088 77.088 82.84 196.746 82.84 303.748 1.151 107.002-4.602 225.51-81.69 303.748zM562.625 287.449c0-18.409-14.957-33.366-33.366-33.366h-13.807c-18.409 0-33.366 14.957-33.366 33.366v211.703c0 18.409 14.957 33.366 33.366 33.366h13.807c18.409 0 33.366-14.957 33.366-33.366v-211.703zM521.204 591.197c-23.011 0-42.571 18.409-42.571 42.571 0 23.011 18.409 42.571 42.571 42.571 23.011 0 42.571-18.409 42.571-42.571s-18.409-42.571-42.571-42.571z" />
<glyph unicode="&#xe923;" glyph-name="beta" d="M582.184 557.831c8.054 5.753 11.506 13.807 11.506 25.312 0 12.656-4.602 21.861-11.506 27.613-8.054 5.753-20.71 8.054-37.969 8.054h-65.582v-69.034h65.582c17.258 0 29.915 2.301 37.969 8.054zM592.539 470.388c-8.054 5.753-20.71 9.204-39.119 9.204h-74.787v-74.787h74.787c18.409 0 31.065 3.452 39.119 9.204s11.506 14.957 11.506 28.764-3.452 21.861-11.506 27.613zM525.807 878.838c-241.618 0-438.364-165.681-438.364-370.481 0-104.701 51.775-199.047 134.616-265.78-3.452-27.613-6.903-60.98-8.054-89.744-2.301-74.787-2.301-132.315 26.463-146.121s119.658 49.474 169.133 85.142c17.258 12.656 37.969 31.065 57.528 50.625 19.56-2.301 39.119-3.452 58.679-3.452 242.769 0 438.364 165.681 438.364 370.481 0 203.649-196.746 369.33-438.364 369.33zM675.38 380.645c-10.355-14.957-25.312-25.312-43.721-33.366s-41.42-11.506-66.733-11.506h-133.465c-13.807 0-24.162 3.452-31.065 11.506-6.903 6.903-11.506 18.409-11.506 31.065v266.93c0 13.807 3.452 24.162 11.506 31.065 6.903 6.903 18.409 11.506 31.065 11.506h128.863c36.818 0 66.733-8.054 88.593-25.312 21.861-16.108 33.366-39.119 33.366-66.733 0-18.409-4.602-34.517-14.957-48.324-9.204-13.807-23.011-24.162-40.27-29.915 20.71-6.903 36.818-17.258 47.173-32.216 11.506-14.957 16.108-33.366 16.108-55.227 0-18.409-5.753-35.667-14.957-49.474z" />
<glyph unicode="&#xe924;" glyph-name="search" d="M954.966 151.683c-60.98 86.292-130.013 166.831-204.8 242.769 20.71 43.721 32.216 92.045 32.216 143.82-1.151 188.692-154.175 342.867-342.867 342.867s-341.717-154.175-341.717-342.867c0-188.692 153.025-341.717 341.717-341.717 51.775 0 100.099 11.506 143.82 32.216 74.787-74.787 155.326-143.82 242.769-204.8 36.818-26.463 87.443-21.861 118.508 9.204 32.216 32.216 35.667 81.69 10.355 118.508zM249.672 538.271c0 104.701 85.142 189.843 189.843 189.843s189.843-85.142 189.843-189.843-85.142-189.843-189.843-189.843-189.843 85.142-189.843 189.843z" />
<glyph unicode="&#xe925;" glyph-name="bullhorn" d="M813.447 720.060c-1.151 0-1.151 0-2.301 0 0 0 8.054-25.312 8.054-182.939-1.151-157.627-8.054-176.036-8.054-176.036 1.151 0 1.151 0 2.301 0 77.088 0 139.218 80.539 139.218 179.488-1.151 98.948-63.281 179.488-139.218 179.488zM678.831 836.267c-4.602 0-9.204-1.151-13.807-2.301v0c-292.243-57.528-548.818-169.133-548.818-169.133v0c-20.71-9.204-35.667-28.764-36.818-52.926-1.151-10.355-6.903-74.787 0-180.638 0-23.011 12.656-43.721 32.216-54.076v0c0 0 0 0 0 0 2.301-2.301 5.753-3.452 9.204-4.602 24.162-10.355 48.324-20.71 72.485-29.915l11.506-4.602c8.054-3.452 14.957-11.506 18.409-21.861l3.452-11.506 88.593-281.888c11.506-37.969 46.022-62.13 82.84-62.13 9.204 0 17.258 1.151 26.463 4.602 46.022 14.957 71.335 64.431 56.378 111.604l-46.022 146.121-1.151 5.753c0 1.151-1.151 2.301-1.151 3.452 0 12.656 11.506 24.162 24.162 24.162 1.151 0 3.452 0 4.602 0h2.301c95.497-24.162 166.831-36.818 195.596-41.42 11.506-1.151 14.957-2.301 18.409-2.301 31.065-1.151 56.378 25.312 56.378 57.528 26.463 291.092 3.452 483.236 0 512 0 29.915-25.312 54.076-55.227 54.076z" />
<glyph unicode="&#xe926;" glyph-name="right" d="M927.353 446.227c-116.207 115.056-222.058 237.016-345.169 344.018-36.818 32.216-94.346 5.753-94.346-43.721v-193.294l-304.899-25.312c-64.431-5.753-113.906-58.679-113.906-123.11v0c0-64.431 49.474-118.508 113.906-123.11l304.899-25.312v-193.294c0-48.324 57.528-75.937 94.346-43.721 123.11 108.153 228.962 228.962 345.169 344.018 23.011 23.011 23.011 59.829 0 82.84z" />
<glyph unicode="&#xe927;" glyph-name="left" d="M86.292 394.451c116.207-115.056 222.058-237.016 345.169-344.018 36.818-32.216 94.346-5.753 94.346 43.721v192.144l304.899 25.312c64.431 5.753 113.906 58.679 113.906 123.11v0c0 64.431-49.474 118.508-113.906 123.11l-304.899 25.312v193.294c0 48.324-57.528 75.937-94.346 43.721-123.11-108.153-228.962-228.962-345.169-345.169-21.861-21.861-21.861-58.679 0-80.539z" />
<glyph unicode="&#xe928;" glyph-name="upload" d="M494.742 853.525c-97.798-97.798-155.326-163.38-238.166-257.726-31.065-35.667-6.903-90.894 40.27-90.894h88.593l51.775-180.638c11.506-35.667 40.27-65.582 77.088-72.485 50.625-9.204 98.948 20.71 113.906 67.883l54.076 185.24h88.593c47.173 0 72.485 55.227 40.27 90.894-82.84 94.346-140.369 159.928-238.166 257.726-21.861 21.861-56.378 21.861-78.238 0zM824.953 141.328h-582.184c-40.27 0-72.485-32.216-72.485-72.485s32.216-72.485 72.485-72.485h583.335c40.27 0 72.485 32.216 72.485 72.485 0 39.119-33.366 72.485-73.636 72.485z" />
<glyph unicode="&#xe929;" glyph-name="download" d="M491.29 270.191c-97.798 97.798-155.326 163.38-238.166 257.726-31.065 35.667-6.903 90.894 40.27 90.894h88.593l51.775 180.638c11.506 35.667 40.27 65.582 77.088 72.485 50.625 9.204 98.948-20.71 113.906-67.883l54.076-185.24h88.593c47.173 0 72.485-55.227 40.27-90.894-82.84-94.346-140.369-159.928-238.166-257.726-21.861-21.861-57.528-21.861-78.238 0zM821.501 144.779h-583.335c-40.27 0-72.485-32.216-72.485-72.485s32.216-72.485 72.485-72.485h583.335c40.27 0 72.485 32.216 72.485 72.485 0 39.119-32.216 72.485-72.485 72.485z" />
<glyph unicode="&#xe92a;" glyph-name="dropdown" d="M908.944 585.445l-43.721 43.721c-21.861 21.861-51.775 27.613-67.883 12.656-93.196-83.991-184.090-171.434-270.382-262.328-86.292 90.894-176.036 178.337-270.382 262.328-16.108 14.957-46.022 9.204-67.883-12.656l-43.721-43.721c-21.861-21.861-27.613-51.775-12.656-67.883 115.056-128.863 237.016-250.822 365.879-365.879 6.903-6.903 17.258-9.204 28.764-8.054 11.506-1.151 21.861 1.151 28.764 8.054 128.863 115.056 250.822 237.016 365.879 365.879 14.957 16.108 9.204 46.022-12.656 67.883z" />
<glyph unicode="&#xe92b;" glyph-name="foldup" d="M143.82 289.75l43.721-43.721c21.861-21.861 51.775-27.613 67.883-12.656 93.196 83.991 184.090 171.434 270.382 262.328 86.292-90.894 176.036-178.337 270.382-262.328 16.108-14.957 46.022-9.204 67.883 12.656l43.721 43.721c21.861 21.861 27.613 51.775 12.656 67.883-115.056 128.863-237.016 250.822-365.879 365.879-6.903 6.903-17.258 9.204-28.764 8.054-11.506 1.151-21.861-1.151-28.764-8.054-128.863-115.056-250.822-237.016-365.879-365.879-14.957-16.108-9.204-46.022 12.656-67.883z" />
<glyph unicode="&#xe92c;" glyph-name="share" d="M954.966 538.271c-100.099 100.099-195.596 170.283-293.393 256.575-35.667 31.065-90.894 5.753-90.894-41.42v-200.198h-146.121c-180.638 0-327.91-146.121-327.91-327.91v-36.818c0-40.27 32.216-72.485 72.485-72.485v0c40.27 0 72.485 32.216 72.485 72.485v36.818c0 100.099 81.69 181.789 181.789 181.789h146.121v-178.337c0-47.173 56.378-72.485 92.045-40.27 97.798 89.744 193.294 170.283 293.393 272.683 21.861 21.861 21.861 56.378 0 77.088z" />
<glyph unicode="&#xe92d;" glyph-name="tick-circle" d="M518.903 853.525c-241.618 0-437.213-195.596-437.213-437.213s195.596-437.213 437.213-437.213c241.618 0 437.213 195.596 437.213 437.213s-196.746 437.213-437.213 437.213zM730.607 483.045c-74.787-75.937-151.874-150.724-230.112-224.36-26.463-24.162-67.883-24.162-93.196 1.151l-98.948 96.647c-25.312 24.162-26.463 65.582-1.151 89.744 0 0 1.151 1.151 1.151 1.151 25.312 24.162 66.733 23.011 92.045-1.151l51.775-50.625c60.98 59.829 121.96 119.658 184.090 178.337 26.463 24.162 67.883 24.162 93.196-1.151v0c25.312-25.312 26.463-64.431 1.151-89.744z" />
<glyph unicode="&#xe92e;" glyph-name="close-circle" d="M523.506 858.128c-241.618 0-437.213-196.746-437.213-437.213 0-241.618 195.596-437.213 437.213-437.213s437.213 195.596 437.213 437.213c0 240.467-196.746 437.213-437.213 437.213zM698.391 336.923c23.011-23.011 23.011-62.13 0-85.142l-6.903-6.903c-23.011-23.011-62.13-23.011-85.142 0l-82.84 83.991-82.84-82.84c-23.011-23.011-62.13-23.011-85.142 0l-6.903 6.903c-23.011 23.011-23.011 62.13 0 85.142l82.84 82.84-82.84 82.84c-23.011 23.011-23.011 62.13 0 85.142l6.903 6.903c23.011 23.011 62.13 23.011 85.142 0l82.84-82.84 82.84 82.84c23.011 23.011 62.13 23.011 85.142 0l6.903-6.903c23.011-23.011 23.011-62.13 0-85.142l-82.84-82.84 82.84-83.991z" />
<glyph unicode="&#xe92f;" glyph-name="trash" d="M805.393 798.298h-97.798l-6.903 26.463c-5.753 24.162-26.463 41.42-51.775 42.571-125.411 8.054-98.948 8.054-224.36 0-24.162-1.151-46.022-19.56-51.775-42.571l-6.903-26.463h-93.196c-31.065 0-57.528-25.312-57.528-57.528s25.312-57.528 57.528-57.528h532.71c31.065 0 57.528 25.312 57.528 57.528s-26.463 57.528-57.528 57.528zM257.726 547.476c12.656-165.681 34.517-331.362 64.431-494.742 4.602-25.312 26.463-44.872 51.775-47.173 109.303-8.054 219.757-8.054 330.211 0 26.463 2.301 47.173 21.861 51.775 47.173 29.915 163.38 50.625 327.91 63.281 493.591 2.301 33.366-24.162 60.98-57.528 60.98h-446.418c-33.366 1.151-59.829-26.463-57.528-59.829z" />
<glyph unicode="&#xe930;" glyph-name="notes" d="M899.739 721.211c-1.151 32.216-27.613 57.528-59.829 57.528h-92.045v19.56c0 33.366-26.463 59.829-59.829 59.829s-59.829-26.463-59.829-59.829v-20.71h-197.897v19.56c0 33.366-26.463 59.829-59.829 59.829s-59.829-26.463-59.829-59.829v-19.56h-92.045c-32.216 0-58.679-25.312-59.829-57.528-9.204-226.661-9.204-453.321 0-681.133 1.151-32.216 27.613-57.528 59.829-57.528h621.303c32.216 0 58.679 25.312 59.829 57.528 9.204 227.811 9.204 455.622 0 682.283zM559.173 301.256h-208.252c-21.861 0-40.27 17.258-40.27 40.27 0 21.861 17.258 40.27 40.27 40.27h208.252c21.861 0 40.27-17.258 40.27-40.27-1.151-23.011-18.409-40.27-40.27-40.27zM668.476 460.033h-317.555c-21.861 0-40.27 17.258-40.27 40.27s17.258 40.27 40.27 40.27h317.555c21.861 0 40.27-17.258 40.27-40.27s-18.409-40.27-40.27-40.27z" />
<glyph unicode="&#xe931;" glyph-name="new" d="M700.692 804.051v-134.616c0 0 0 0 0 0 0-5.753 4.602-11.506 11.506-11.506 0 0 0 0 0 0v0h133.465c4.602 0 14.957 0 27.613 0 0 0 0 0 0 0s0 0 0 0 0 0 0 0v0c5.753 0 10.355 4.602 10.355 11.506 0 3.452-1.151 5.753-3.452 8.054v0c-52.926 48.324-126.562 113.906-162.229 141.519-2.301 2.301-4.602 3.452-8.054 3.452-5.753 0-10.355-4.602-11.506-10.355 0 0 0 0 0 0s0 0 0 0v0 0 0c2.301-2.301 2.301-5.753 2.301-8.054zM922.751 584.294h-240.467c-29.915 0-54.076 24.162-54.076 54.076v164.53c0 28.764 1.151 49.474 2.301 64.431h-368.18c-29.915 0-54.076-23.011-55.227-52.926-9.204-256.575-9.204-513.151 0-768.575 1.151-29.915 25.312-52.926 55.227-52.926h605.196c28.764 0 52.926 23.011 55.227 51.775 8.054 180.638 8.054 360.126 0 539.613zM681.133 311.611h-80.539v-80.539c0-19.56-16.108-35.667-35.667-35.667s-35.667 16.108-35.667 35.667v80.539h-80.539c-19.56 0-35.667 16.108-35.667 35.667s16.108 35.667 35.667 35.667h80.539v80.539c0 19.56 16.108 35.667 35.667 35.667s35.667-16.108 35.667-35.667v-80.539h80.539c19.56 0 35.667-16.108 35.667-35.667s-16.108-35.667-35.667-35.667z" />
<glyph unicode="&#xe932;" glyph-name="eye" d="M922.751 469.238c-67.883 159.928-223.209 271.533-406.148 271.533-181.789 0-338.265-111.604-406.148-271.533-6.903-17.258-6.903-37.969 0-55.227 67.883-159.928 223.209-271.533 406.148-271.533 181.789 0 338.265 111.604 406.148 271.533 8.054 18.409 8.054 37.969 0 55.227zM517.753 292.051c-82.84 0-149.573 66.733-149.573 149.573s66.733 149.573 149.573 149.573c82.84 0 149.573-66.733 149.573-149.573s-66.733-149.573-149.573-149.573z" />
<glyph unicode="&#xe933;" glyph-name="logo" d="M111.604 504.905c0 0 17.258 27.613 159.928 170.283 155.326 154.175 172.584 162.229 172.584 162.229 50.625 35.667 107.002 35.667 157.627 0 0 0 16.108-5.753 174.885-164.53s157.627-167.982 157.627-167.982c35.667-49.474 33.366-107.002 0-157.627 0 0-9.204-20.71-161.079-172.584s-171.434-159.928-171.434-159.928c-52.926-35.667-102.4-33.366-157.627 0 0 0-23.011 10.355-166.831 154.175-154.175 154.175-165.681 178.337-165.681 178.337-36.818 55.227-34.517 109.303 0 157.627z" />
<glyph unicode="&#xe934;" glyph-name="user" d="M956.117 89.552c-40.27 149.573-223.209 254.274-434.912 254.274s-395.793-103.551-434.912-254.274c-9.204-33.366 17.258-65.582 51.775-66.733 251.973-9.204 516.602-9.204 768.575 0 32.216 1.151 57.528 33.366 49.474 66.733zM742.112 637.22c0-122.639-99.419-222.058-222.058-222.058s-222.058 99.419-222.058 222.058c0 122.639 99.419 222.058 222.058 222.058s222.058-99.419 222.058-222.058z" />
<glyph unicode="&#xe935;" glyph-name="job" d="M83.991 474.991c124.261-33.366 365.879-95.497 448.719-95.497 86.292 0 323.308 73.636 425.708 107.002 0 4.602 0 9.204 0 13.807 0 2.301 0 3.452-1.151 4.602-1.151 13.807-1.151 25.312-2.301 37.969-2.301 31.065-26.463 55.227-57.528 56.378-47.173 2.301-96.647 3.452-146.121 4.602 0 6.903 1.151 12.656 1.151 19.56 0 127.712-103.551 231.263-231.263 231.263s-231.263-103.551-231.263-231.263c0-6.903 0-12.656 1.151-19.56-49.474-1.151-98.948-2.301-146.121-4.602-31.065-1.151-55.227-25.312-57.528-56.378-1.151-18.409-2.301-33.366-3.452-55.227 0 0 0 0 0 0s0 0 0 0c0-1.151 0-2.301 0-3.452s0-1.151 0-2.301c0-2.301 0-4.602 0-6.903zM520.054 707.404c47.173 0 85.142-37.969 85.142-85.142 0-5.753-1.151-11.506-1.151-17.258-55.227 0-110.454 0-166.831 0-1.151 5.753-1.151 11.506-1.151 17.258 0 47.173 37.969 85.142 83.991 85.142zM531.56 305.858c-93.196 0-337.115 63.281-448.719 93.196 0-87.443 2.301-165.681 6.903-258.876 1.151-31.065 26.463-56.378 57.528-57.528 238.166-10.355 507.398-10.355 746.715 0 31.065 1.151 56.378 26.463 57.528 57.528 4.602 96.647 6.903 178.337 6.903 269.231-93.196-29.915-327.91-103.551-426.858-103.551z" />
<glyph unicode="&#xe936;" glyph-name="knowledge-portal" d="M348.62 861.579c-71.335 0-130.013-58.679-130.013-131.164 0-8.054 1.151-16.108 2.301-24.162-1.151 0-2.301 0-3.452 0-78.238 0-141.519-77.088-141.519-172.584 0-29.915 6.903-58.679 17.258-82.84 35.667 33.366 83.991 52.926 134.616 52.926 21.861 0 42.571-3.452 63.281-10.355 12.656 32.216 40.27 57.528 74.787 67.883 12.656 3.452 26.463-3.452 29.915-14.957 3.452-12.656-3.452-25.312-16.108-28.764-21.861-6.903-39.119-23.011-46.022-44.872-8.054-25.312 1.151-52.926 23.011-70.184 10.355-8.054 11.506-23.011 3.452-32.216-4.602-5.753-11.506-8.054-18.409-8.054-5.753 0-10.355 1.151-14.957 5.753-26.463 20.71-41.42 49.474-42.571 80.539-17.258 6.903-35.667 10.355-55.227 10.355-42.571 0-81.69-18.409-109.303-48.324 0 0 0 0 0 0-9.204-10.355-17.258-21.861-23.011-33.366-1.151-2.301-2.301-4.602-3.452-8.054 0 0 0 0 0 0-8.054-18.409-12.656-39.119-12.656-59.829 0-62.13 36.818-115.056 90.894-140.369 9.204 31.065 36.818 90.894 115.056 121.96 12.656 4.602 26.463-1.151 31.065-12.656s-1.151-25.312-12.656-29.915c-62.13-24.162-81.69-71.335-87.443-93.196v0c-1.151-9.204-2.301-18.409-2.301-27.613 0-77.088 58.679-139.218 131.164-139.218 71.335 0 131.164 50.625 132.315 125.411v0 624.755c0 0 0 1.151 0 1.151-1.151 73.636-58.679 121.96-130.013 121.96zM931.955 369.139c-1.151 2.301-2.301 4.602-3.452 8.054-5.753 12.656-13.807 24.162-23.011 33.366 0 0 0 0 0 0-27.613 29.915-66.733 48.324-109.303 48.324-19.56 0-37.969-3.452-55.227-10.355-2.301-31.065-17.258-59.829-42.571-80.539-4.602-3.452-10.355-5.753-14.957-5.753-6.903 0-13.807 3.452-18.409 8.054-8.054 10.355-6.903 24.162 3.452 32.216 21.861 17.258 31.065 43.721 23.011 70.184-6.903 21.861-24.162 37.969-46.022 44.872-12.656 3.452-19.56 17.258-16.108 28.764 3.452 12.656 17.258 19.56 29.915 14.957 34.517-10.355 62.13-35.667 74.787-67.883 20.71 6.903 41.42 10.355 63.281 10.355 51.775 0 98.948-19.56 134.616-52.926 11.506 24.162 17.258 52.926 17.258 82.84 0 95.497-63.281 172.584-141.519 172.584-1.151 0-2.301 0-3.452 0 1.151 8.054 2.301 16.108 2.301 24.162 0 72.485-57.528 131.164-130.013 131.164s-130.013-48.324-130.013-120.809c0 0 0-1.151 0-1.151v-625.906c2.301-74.787 62.13-125.411 132.315-125.411 72.485 0 131.164 62.13 131.164 139.218 0 9.204-1.151 18.409-2.301 27.613v0c-5.753 20.71-25.312 69.034-87.443 93.196-12.656 4.602-18.409 18.409-12.656 29.915 4.602 11.506 19.56 17.258 31.065 12.656 78.238-31.065 105.852-90.894 115.056-121.96 54.076 25.312 90.894 79.389 90.894 140.369 0 20.71-4.602 40.27-12.656 59.829 0 0 0 0 0 0z" />
<glyph unicode="&#xe937;" glyph-name="refresh" d="M948.063 802.901c-4.602 47.173-62.13 67.883-96.647 35.667l-107.002-98.948c-85.142 59.829-193.294 89.744-308.351 71.335-181.789-29.915-326.76-182.939-347.47-365.879-27.613-251.973 169.133-465.978 416.503-465.978 121.96 0 231.263 51.775 307.2 134.616 32.216 35.667 20.71 92.045-20.71 116.207v0c-31.065 17.258-69.034 10.355-93.196-14.957-57.528-60.98-144.971-95.497-238.166-79.389-107.002 17.258-194.445 102.4-215.155 209.402-33.366 170.283 96.647 319.856 261.178 319.856 46.022 0 88.593-11.506 126.562-32.216l-86.292-81.69c-34.517-32.216-16.108-90.894 31.065-97.798 108.153-16.108 217.456-23.011 326.76-19.56 29.915 1.151 54.076 25.312 55.227 55.227 3.452 104.701 0 208.252-11.506 314.103z" />
<glyph unicode="&#xe938;" glyph-name="lock" d="M907.793 418.613c-2.301 28.764-25.312 51.775-54.076 54.076-8.054 0-44.872 0-54.076 1.151v119.658c0 147.272-119.658 265.78-265.78 265.78-147.272 0-266.93-118.508-266.93-265.78v-119.658c-8.054 0-44.872 0-54.076-1.151-28.764-1.151-52.926-24.162-54.076-54.076-8.054-131.164-8.054-242.769 0-372.782 2.301-28.764 25.312-51.775 54.076-54.076 194.445-9.204 445.267-9.204 639.712 0 28.764 1.151 52.926 24.162 54.076 54.076 9.204 130.013 9.204 242.769 1.151 372.782zM609.798 194.254c0-41.42-34.517-75.937-75.937-75.937s-75.937 34.517-75.937 75.937v113.906c0 42.571 34.517 75.937 75.937 75.937s75.937-34.517 75.937-75.937v-113.906zM647.766 478.442c-75.937 1.151-151.874 1.151-227.811 0v115.056c0 63.281 50.625 113.906 113.906 113.906s113.906-50.625 113.906-113.906v-115.056z" />
<glyph unicode="&#xe939;" glyph-name="analytics" d="M288.791 427.818h-109.303c-29.915 0-55.227-24.162-55.227-55.227v-327.91c0-29.915 24.162-55.227 55.227-55.227h109.303c29.915 0 55.227 24.162 55.227 55.227v329.061c-1.151 29.915-25.312 54.076-55.227 54.076zM870.975 683.242h-109.303c-29.915 0-54.076-24.162-54.076-55.227v-583.335c0-29.915 24.162-55.227 54.076-55.227h109.303c29.915 0 55.227 24.162 55.227 55.227v583.335c0 31.065-24.162 55.227-55.227 55.227zM579.883 865.031h-109.303c-29.915 0-55.227-24.162-55.227-54.076v-765.124c0-29.915 24.162-55.227 55.227-55.227h109.303c29.915 0 55.227 24.162 55.227 55.227v765.124c0 29.915-25.312 54.076-55.227 54.076z" />
<glyph unicode="&#xe93a;" glyph-name="menu" d="M835.308 272.492c-208.252 8.054-416.503 8.054-624.755 0-26.463-1.151-47.173-23.011-47.173-49.474v-52.926c0-26.463 20.71-48.324 47.173-49.474 208.252-8.054 416.503-8.054 624.755 0 26.463 1.151 47.173 23.011 47.173 49.474v52.926c0 26.463-20.71 48.324-47.173 49.474zM835.308 501.454c-208.252 8.054-416.503 8.054-624.755 0-26.463-1.151-47.173-23.011-47.173-49.474v-52.926c0-26.463 20.71-48.324 47.173-49.474 208.252-8.054 416.503-8.054 624.755 0 26.463 1.151 47.173 23.011 47.173 49.474v52.926c0 26.463-20.71 48.324-47.173 49.474zM835.308 730.415c-208.252 8.054-416.503 8.054-624.755 0-26.463-1.151-47.173-23.011-47.173-49.474v-52.926c0-26.463 20.71-48.324 47.173-49.474 208.252-8.054 416.503-8.054 624.755 0 26.463 1.151 47.173 23.011 47.173 49.474v52.926c0 26.463-20.71 48.324-47.173 49.474z" />
<glyph unicode="&#xe93b;" glyph-name="support" d="M936.557 524.465c-25.312 33.366-69.034 37.969-100.099 37.969-1.151 169.133-139.218 306.049-308.351 306.049-170.283 0-307.2-136.917-309.501-306.049-29.915 0-74.787-5.753-100.099-37.969-27.613-35.667-29.915-92.045-29.915-141.519s2.301-104.701 29.915-141.519c27.613-35.667 70.184-39.119 108.153-39.119s80.539 2.301 108.153 39.119c12.656 17.258 24.162 37.969 24.162 60.98v0 260.027c0 0 0 0 0 0 2.301 92.045 77.088 165.681 169.133 165.681s166.831-73.636 169.133-165.681c0 0 0 0 0 0v-233.564c-2.301-55.227-32.216-104.701-75.937-133.465-21.861 21.861-51.775 35.667-85.142 35.667-65.582 0-118.508-52.926-118.508-118.508s52.926-118.508 118.508-118.508c41.42 0 78.238 21.861 98.948 54.076 74.787 27.613 136.917 83.991 171.434 156.476 8.054 0 14.957 0 23.011 0 37.969 0 80.539 2.301 108.153 39.119 27.613 35.667 29.915 92.045 29.915 141.519-1.151 47.173-3.452 102.4-31.065 139.218z" />
<glyph unicode="&#xe93c;" glyph-name="employee" d="M792.737 244.878c-16.108 60.98-90.894 103.551-178.337 103.551-86.292 0-161.079-42.571-178.337-103.551-3.452-13.807 6.903-26.463 20.71-27.613 102.4-3.452 210.553-3.452 314.103 0 13.807 0 25.312 13.807 21.861 27.613zM950.364 671.737c-1.151 28.764-24.162 51.775-52.926 52.926-43.721 1.151-78.238 2.301-123.11 3.452v48.324c0 29.915-24.162 55.227-55.227 55.227-29.915 0-54.076-24.162-54.076-55.227v-47.173c-42.571 0-248.521 0-291.092 0v47.173c0 29.915-24.162 55.227-55.227 55.227s-55.227-24.162-55.227-55.227v-48.324c-43.721-1.151-78.238-2.301-123.11-3.452-28.764-1.151-51.775-24.162-52.926-52.926-9.204-196.746-9.204-385.438 0-582.184 1.151-28.764 24.162-51.775 52.926-52.926 124.261-4.602 256.575-6.903 379.685-6.903s254.274 2.301 377.384 6.903c28.764 1.151 51.775 24.162 52.926 52.926 9.204 196.746 9.204 384.288 0 582.184zM844.512 176.995c-1.151-18.409-16.108-34.517-35.667-34.517-93.196-2.301-196.746-3.452-288.791-3.452-93.196 0-195.596 1.151-288.791 3.452-19.56 0-34.517 16.108-35.667 34.517-2.301 83.991-3.452 169.133-2.301 254.274 0 19.56 16.108 35.667 36.818 35.667h232.413c-3.452 13.807-5.753 28.764-5.753 43.721-2.301 90.894 71.335 163.38 162.229 163.38s163.38-73.636 163.38-163.38c0-14.957-2.301-29.915-5.753-43.721h34.517c19.56 0 36.818-16.108 36.818-35.667 0-83.991 0-169.133-3.452-254.274zM730.607 514.11c0-61.002-49.452-110.454-110.454-110.454s-110.454 49.452-110.454 110.454c0 61.002 49.452 110.454 110.454 110.454s110.454-49.452 110.454-110.454z" />
<glyph unicode="&#xe93d;" glyph-name="add-user" d="M633.96 221.867c72.485-72.485 192.144-72.485 264.629 0s72.485 192.144 0 264.629c-72.485 72.485-192.144 72.485-264.629 0-72.485-73.636-72.485-192.144 0-264.629zM662.724 355.332c0 13.807 11.506 25.312 25.312 25.312h50.625v50.625c0 13.807 11.506 25.312 25.312 25.312h3.452c13.807 0 25.312-11.506 25.312-25.312v-50.625h50.625c13.807 0 25.312-11.506 25.312-25.312v-3.452c0-13.807-11.506-25.312-25.312-25.312h-50.625v-50.625c0-13.807-11.506-25.312-25.312-25.312h-3.452c-13.807 0-25.312 11.506-25.312 25.312v50.625h-50.625c-13.807 0-25.312 11.506-25.312 25.312v3.452zM887.083 159.737c-35.667-21.861-77.088-34.517-120.809-34.517-119.658 0-218.607 92.045-227.811 209.402-12.656 1.151-25.312 1.151-39.119 1.151-203.649 0-380.836-100.099-418.804-243.919-8.054-32.216 16.108-63.281 49.474-64.431 241.618-9.204 497.043-9.204 738.661-1.151 33.366 1.151 57.528 32.216 49.474 64.431-6.903 25.312-17.258 48.324-31.065 69.034zM499.344 404.806c13.807 0 27.613 1.151 41.42 4.602 20.71 82.84 85.142 147.272 167.982 166.831 2.301 13.807 4.602 27.613 4.602 42.571 0 118.508-95.497 214.004-214.004 214.004s-214.004-95.497-214.004-214.004c0-118.508 95.497-214.004 214.004-214.004z" />
<glyph unicode="&#xe93e;" glyph-name="preview" d="M475.182 281.696c0-65.582 52.926-118.508 118.508-118.508s118.508 52.926 118.508 118.508c0 65.582-52.926 118.508-118.508 118.508s-118.508-52.926-118.508-118.508zM881.33 84.95c3.452 90.894 4.602 181.789 4.602 272.683 1.151 149.573-1.151 299.146-6.903 448.719-1.151 29.915-25.312 52.926-55.227 52.926h-605.196c-29.915 0-54.076-23.011-55.227-52.926-5.753-149.573-8.054-299.146-6.903-448.719-1.151-107.002 1.151-214.004 5.753-321.007 1.151-28.764 25.312-51.775 55.227-51.775h584.485c-42.571 32.216-81.69 66.733-119.658 104.701-27.613-12.656-57.528-19.56-89.744-19.56-117.357 0-212.854 95.497-212.854 212.854s95.497 212.854 212.854 212.854 212.854-95.497 212.854-212.854c0-32.216-6.903-62.13-19.56-89.744 34.517-34.517 65.582-70.184 95.497-108.153zM438.364 479.593h-95.497c-18.409 0-33.366 14.957-33.366 33.366s14.957 33.366 33.366 33.366h95.497c18.409 0 33.366-14.957 33.366-33.366s-14.957-33.366-33.366-33.366zM727.155 622.263h-384.288c-21.861 0-40.27 18.409-40.27 40.27s18.409 40.27 40.27 40.27h383.137c21.861 0 40.27-18.409 40.27-40.27s-17.258-40.27-39.119-40.27z" />
<glyph unicode="&#xe93f;" glyph-name="copy" d="M911.245 808.654c-1.151 24.162-20.71 43.721-44.872 43.721h-494.742c-24.162 0-43.721-19.56-44.872-43.721 0-12.656-1.151-25.312-1.151-37.969 0-5.753 4.602-20.71 33.366-20.71 35.667 0 375.083 0 399.245 0s58.679-20.71 60.98-86.292 5.753-377.384 4.602-439.515c-1.151-57.528-1.151-83.991 36.818-87.443h5.753c24.162 0 43.721 18.409 44.872 42.571 3.452 82.84 5.753 164.53 4.602 247.371 1.151 127.712 0 254.274-4.602 381.987zM758.22 655.629c-1.151 24.162-20.71 43.721-44.872 43.721h-494.742c-24.162 0-43.721-19.56-44.872-43.721-4.602-127.712-6.903-254.274-5.753-381.987 0-82.84 1.151-164.53 4.602-247.371 1.151-24.162 20.71-42.571 44.872-42.571h497.043c24.162 0 43.721 18.409 44.872 42.571 3.452 82.84 5.753 164.53 4.602 247.371 0 127.712-1.151 255.425-5.753 381.987zM613.249 194.254h-295.694c-16.108 0-28.764 12.656-28.764 28.764s12.656 28.764 28.764 28.764h296.845c16.108 0 28.764-12.656 28.764-28.764s-13.807-28.764-29.915-28.764zM613.249 320.815h-295.694c-16.108 0-28.764 12.656-28.764 28.764s12.656 28.764 28.764 28.764h296.845c16.108 0 28.764-12.656 28.764-28.764s-13.807-28.764-29.915-28.764zM613.249 447.377h-295.694c-16.108 0-28.764 12.656-28.764 28.764s12.656 28.764 28.764 28.764h296.845c16.108 0 28.764-12.656 28.764-28.764s-13.807-28.764-29.915-28.764z" />
<glyph unicode="&#xe940;" glyph-name="close" d="M723.703 425.516c48.324 50.625 97.798 100.099 146.121 150.724 49.474 52.926 48.324 136.917-3.452 188.692s-135.766 54.076-188.692 3.452c-50.625-48.324-101.249-96.647-150.724-146.121-50.625 48.324-100.099 97.798-150.724 146.121-52.926 49.474-136.917 48.324-188.692-3.452s-54.076-135.766-3.452-188.692c48.324-50.625 96.647-101.249 146.121-150.724-48.324-50.625-97.798-100.099-146.121-150.724-49.474-52.926-48.324-136.917 3.452-188.692v0c51.775-51.775 135.766-54.076 188.692-3.452 50.625 48.324 101.249 96.647 150.724 146.121 50.625-48.324 100.099-97.798 150.724-146.121 52.926-49.474 136.917-48.324 188.692 3.452v0c51.775 51.775 54.076 135.766 3.452 188.692-47.173 50.625-96.647 100.099-146.121 150.724z" />
</font>
</defs>
</svg>
