<?xml version="1.0" encoding="utf-8"?>
<!-- Generator: Adobe Illustrator 22.0.1, SVG Export Plug-In . SVG Version: 6.00 Build 0)  -->
<svg version="1.1" id="Layer_1" xmlns="http://www.w3.org/2000/svg" xmlns:xlink="http://www.w3.org/1999/xlink" x="0px" y="0px"
	 viewBox="0 0 32 32" style="enable-background:new 0 0 32 32;" xml:space="preserve">
<style type="text/css">
	.st0{clip-path:url(#SVGID_2_);fill:#D6DDE4;}
	.st1{clip-path:url(#SVGID_6_);fill:#F06F6F;}
</style>
<g>
	<defs>
		<path id="SVGID_1_" d="M3.3,23.8L14.2,6c0.6-1,1.9-1.3,2.9-0.7c0.3,0.2,0.5,0.4,0.7,0.7l10.9,17.8c0.6,1,0.3,2.3-0.7,2.9
			c-0.3,0.2-0.7,0.3-1.1,0.3H5.1C4,27,3,26.1,3,24.9C3,24.5,3.1,24.2,3.3,23.8z"/>
	</defs>
	<clipPath id="SVGID_2_">
		<use xlink:href="#SVGID_1_"  style="overflow:visible;"/>
	</clipPath>
	<polygon class="st0" points="16,-3.2 40.8,21.4 16,46.1 -8.7,21.4 	"/>
</g>
<g>
	<defs>
		<path id="SVGID_3_" d="M15.8,24.1c-0.9,0-1.7-0.8-1.7-1.7s0.8-1.7,1.7-1.7c0.9,0,1.7,0.8,1.7,1.7S16.8,24.1,15.8,24.1z M14.8,11
			h2.5c0.5,0,0.9,0.4,0.9,0.9c0,0.1,0,0.1,0,0.2l-1.2,6.5c-0.1,0.5-0.5,0.8-1,0.7c-0.3-0.1-0.6-0.3-0.7-0.7L13.9,12
			c-0.1-0.5,0.2-0.9,0.7-1C14.7,11,14.7,11,14.8,11z"/>
	</defs>
	<clipPath id="SVGID_4_">
		<use xlink:href="#SVGID_3_"  style="overflow:visible;"/>
	</clipPath>
</g>
<g>
	<g>
		<defs>
			<path id="SVGID_5_" d="M16,23.9c-0.9,0-1.7-0.8-1.7-1.7s0.8-1.7,1.7-1.7s1.7,0.8,1.7,1.7S16.9,23.9,16,23.9z M14.8,11h2.5
				c0.5,0,0.8,0.4,0.8,0.8c0,0.1,0,0.1,0,0.2l-1.2,6.5c-0.1,0.5-0.5,0.8-1,0.7c-0.3-0.1-0.6-0.3-0.7-0.7L13.9,12
				c-0.1-0.5,0.2-0.9,0.7-1C14.7,11,14.7,11,14.8,11z"/>
		</defs>
		<clipPath id="SVGID_6_">
			<use xlink:href="#SVGID_5_"  style="overflow:visible;"/>
		</clipPath>
		<rect x="8.3" y="5.4" class="st1" width="15.4" height="24.2"/>
	</g>
</g>
</svg>
