<?xml version="1.0" encoding="utf-8"?>
<!-- Generator: Adobe Illustrator 22.0.1, SVG Export Plug-In . SVG Version: 6.00 Build 0)  -->
<svg version="1.1" id="Layer_1" xmlns="http://www.w3.org/2000/svg" xmlns:xlink="http://www.w3.org/1999/xlink" x="0px" y="0px"
	 viewBox="0 0 32 32" style="enable-background:new 0 0 32 32;" xml:space="preserve">
<style type="text/css">
	.st0{clip-path:url(#SVGID_2_);fill:#FECC55;}
	.st1{clip-path:url(#SVGID_4_);fill:#D69D28;}
</style>
<g>
	<defs>
		<path id="SVGID_1_" d="M26.7,22.9l-15.5,4.9c-2.5,0.8-5.2-0.6-6-3.2l-2.8-9.3c-0.8-2.6,0.6-5.3,3.2-6.1l15.5-4.9
			c2.5-0.8,5.2,0.6,6,3.2l2.8,9.3C30.6,19.3,29.2,22.1,26.7,22.9"/>
	</defs>
	<clipPath id="SVGID_2_">
		<use xlink:href="#SVGID_1_"  style="overflow:visible;"/>
	</clipPath>
	<rect x="-2.9" y="-1" class="st0" width="38" height="34"/>
</g>
<g>
	<defs>
		<path id="SVGID_3_" d="M4.2,14.5l10.7,1.6c1.3,0.2,2.5-0.3,3.3-1.4l6.1-8.2l-5.9,10.2c-0.6,1-1.7,1.4-2.8,1.1L4.2,14.5z"/>
	</defs>
	<clipPath id="SVGID_4_">
		<use xlink:href="#SVGID_3_"  style="overflow:visible;"/>
	</clipPath>
	<rect x="-0.9" y="2.9" transform="matrix(0.9903 -0.1392 0.1392 0.9903 -1.6686 2.1586)" class="st1" width="31" height="20.3"/>
</g>
</svg>
