<?xml version="1.0" encoding="utf-8"?>
<!-- Generator: Adobe Illustrator 22.0.1, SVG Export Plug-In . SVG Version: 6.00 Build 0)  -->
<svg version="1.1" id="Layer_1" xmlns="http://www.w3.org/2000/svg" xmlns:xlink="http://www.w3.org/1999/xlink" x="0px" y="0px"
	 viewBox="0 0 32 32" style="enable-background:new 0 0 32 32;" xml:space="preserve">
<style type="text/css">
	.st0{fill:#72BBFF;}
	.st1{opacity:0.1;}
	.st2{fill:#E2EAF1;}
	.st3{fill:#FFCD54;}
	.st4{fill:#E6B441;}
	.st5{opacity:0.6546;fill:#FFFFFF;fill-opacity:0.9;enable-background:new    ;}
</style>
<g id="Illustration-_x2F_-Search-folder">
	<path id="Rectangle_1_" class="st0" d="M20.8,24.5l2.8-0.8l0.8-2.9l4.7,4.7c1,1,1,2.6,0,3.7l0,0c-1,1-2.6,1-3.7,0L20.8,24.5z"/>
	<path class="st1" d="M25.9,22.2c0,0-0.2,1.4-1.1,2.9c-0.9,1.6-1.2,2.1-1.2,2.1l-1.6-1.6L25.9,22.2z"/>
	<path id="Path-151" class="st2" d="M3.6,19.3l0,1.6c0,1.1,0.9,2,2,2l0,0h6l-0.7-3.9H3.6"/>
	<path id="Path-151_1_" class="st2" d="M11.4,19.3l0,1.6c0,1.1,0.9,2,2,2c0,0,0,0,0,0l10.6,0l1.8-3.9H11.4"/>
	<path id="Rectangle" class="st3" d="M4,2h5.5C10.3,2,11,2.7,11,3.5V4c0,0.6,0.4,1,1,1l11,0c1.1,0,2,0.9,2,2l0,14H4
		c-1.1,0-2-0.9-2-2V4C2,2.9,2.9,2,4,2z"/>
	<path id="Combined-Shape" class="st4" d="M11.8,5H2V4c0-1.1,0.9-2,2-2h5.5C10.3,2,11,2.7,11,3.5V4C11,4.5,11.4,4.9,11.8,5z M23,21
		C23,21,23,21,23,21C23,21,23,21,23,21H4H23z"/>
	<path id="Combined-Shape_1_" class="st0" d="M18.2,27c-4.8,0-8.8-3.9-8.8-8.8s3.9-8.8,8.8-8.8s8.8,3.9,8.8,8.8S23.1,27,18.2,27z
		 M18.2,24.9c3.6,0,6.6-2.9,6.6-6.6s-2.9-6.6-6.6-6.6s-6.6,2.9-6.6,6.6S14.6,24.9,18.2,24.9z"/>
	<path id="Combined-Shape_2_" class="st5" d="M23.3,19.9c0.4-2.3-1-4.6-3.4-5.2c-2.5-0.7-5,0.8-5.7,3.2c-0.6,2.3,0.7,4.7,2.9,5.5
		c-0.1,0-0.3-0.1-0.4-0.1c-2.9-0.8-4.7-3.7-3.9-6.6c0.8-2.9,3.8-4.5,6.7-3.8s4.7,3.7,3.9,6.6C23.4,19.6,23.4,19.8,23.3,19.9z"/>
</g>
<path d="M32.2,21.3"/>
</svg>
