<?xml version="1.0" encoding="utf-8"?>
<!-- Generator: Adobe Illustrator 22.0.1, SVG Export Plug-In . SVG Version: 6.00 Build 0)  -->
<svg version="1.1" id="Layer_1" xmlns="http://www.w3.org/2000/svg" xmlns:xlink="http://www.w3.org/1999/xlink" x="0px" y="0px"
	 viewBox="0 0 32 32" style="enable-background:new 0 0 32 32;" xml:space="preserve">
<style type="text/css">
	.st0{clip-path:url(#SVGID_2_);fill:#5BA2D9;}
	.st1{opacity:0.15;clip-path:url(#SVGID_4_);fill:#010101;}
	.st2{clip-path:url(#SVGID_6_);fill:#8BC3EA;}
	.st3{clip-path:url(#SVGID_8_);fill:#546B82;}
	.st4{clip-path:url(#SVGID_10_);fill:#FFFFFF;}
	.st5{clip-path:url(#SVGID_12_);fill:#85A2BB;}
</style>
<g>
	<g>
		<defs>
			<path id="SVGID_1_" d="M4.4,8h23.2c1.3,0,2.4,1.1,2.4,2.4v16.2c0,1.3-1.1,2.4-2.4,2.4H4.4C3.1,29,2,27.9,2,26.6V10.4
				C2,9.1,3.1,8,4.4,8z"/>
		</defs>
		<clipPath id="SVGID_2_">
			<use xlink:href="#SVGID_1_"  style="overflow:visible;"/>
		</clipPath>
		<rect x="-3" y="3" class="st0" width="38" height="31"/>
	</g>
	<g>
		<defs>
			<path id="SVGID_3_" d="M4.4,8.5h23.2c1.3,0,2.4,1.1,2.4,2.4V15l-3.9,4.5c-1,1.2-2.5,1.9-4.1,1.9L9.7,21.3c-1.6,0-3.1-0.8-4.2-2
				L2,14.9v-3.9C2,9.6,3.1,8.5,4.4,8.5z"/>
		</defs>
		<clipPath id="SVGID_4_">
			<use xlink:href="#SVGID_3_"  style="overflow:visible;"/>
		</clipPath>
		<rect x="-3" y="3.5" class="st1" width="38" height="22.9"/>
	</g>
	<g>
		<defs>
			<path id="SVGID_5_" d="M4.4,8h23.2c1.3,0,2.4,1.1,2.4,2.4v4.7L26.1,19c-1,1-2.4,1.6-3.8,1.5L9.4,20.4c-1.4,0-2.8-0.6-3.8-1.7
				L2,15.1v-4.6C2,9.1,3.1,8,4.4,8z"/>
		</defs>
		<clipPath id="SVGID_6_">
			<use xlink:href="#SVGID_5_"  style="overflow:visible;"/>
		</clipPath>
		<rect x="-3" y="3" class="st2" width="38" height="22.5"/>
	</g>
	<g>
		<defs>
			<path id="SVGID_7_" d="M12.2,8L10,8V6.6c0-2,1.6-3.6,3.5-3.6h5C20.4,3,22,4.6,22,6.6V8l-2.2,0V6.6c0-0.7-0.6-1.3-1.3-1.3h-5
				c-0.7,0-1.3,0.6-1.3,1.3V8z"/>
		</defs>
		<clipPath id="SVGID_8_">
			<use xlink:href="#SVGID_7_"  style="overflow:visible;"/>
		</clipPath>
		<rect x="5" y="-2" class="st3" width="22" height="15"/>
	</g>
	<g>
		<defs>
			<path id="SVGID_9_" d="M13.7,18.8h4.5c0.5,0,0.9,0.4,0.9,0.9V21c0,0.5-0.4,0.9-0.9,0.9h-4.5c-0.5,0-0.9-0.4-0.9-0.9v-1.4
				C12.8,19.2,13.2,18.8,13.7,18.8z"/>
		</defs>
		<clipPath id="SVGID_10_">
			<use xlink:href="#SVGID_9_"  style="overflow:visible;"/>
		</clipPath>
		<rect x="7.8" y="13.8" class="st4" width="16.2" height="13.1"/>
	</g>
	<g>
		<defs>
			<path id="SVGID_11_" d="M18.5,20.4v0.4c0,0.4-0.3,0.7-0.7,0.7H14c-0.4,0-0.7-0.3-0.7-0.7v-0.4H18.5z"/>
		</defs>
		<clipPath id="SVGID_12_">
			<use xlink:href="#SVGID_11_"  style="overflow:visible;"/>
		</clipPath>
		<rect x="8.3" y="15.4" class="st5" width="15.2" height="11.1"/>
	</g>
</g>
</svg>
