<?xml version="1.0" encoding="utf-8"?>
<!-- Generator: Adobe Illustrator 22.0.1, SVG Export Plug-In . SVG Version: 6.00 Build 0)  -->
<svg version="1.1" id="Layer_1" xmlns="http://www.w3.org/2000/svg" xmlns:xlink="http://www.w3.org/1999/xlink" x="0px" y="0px"
	 viewBox="0 0 32 32" style="enable-background:new 0 0 32 32;" xml:space="preserve">
<style type="text/css">
	.st0{clip-path:url(#SVGID_2_);fill:#BAC6D2;}
	.st1{clip-path:url(#SVGID_4_);fill:#DADCE3;}
	.st2{clip-path:url(#SVGID_6_);fill:#FECC53;}
	.st3{clip-path:url(#SVGID_8_);fill:#DADCE3;}
	.st4{clip-path:url(#SVGID_10_);fill:#DADCE3;}
	.st5{clip-path:url(#SVGID_12_);fill:#DADCE3;}
	.st6{clip-path:url(#SVGID_14_);fill:#DADCE3;}
	.st7{clip-path:url(#SVGID_16_);fill:#69BDFF;}
	.st8{clip-path:url(#SVGID_18_);fill:#DADCE3;}
	.st9{clip-path:url(#SVGID_20_);fill:#DADCE3;}
	.st10{clip-path:url(#SVGID_22_);fill:#DCE9F4;}
	.st11{clip-path:url(#SVGID_24_);fill:#DCE9F4;}
	.st12{clip-path:url(#SVGID_26_);fill:#F06F6F;}
</style>
<g>
	<defs>
		<ellipse id="SVGID_1_" cx="25.5" cy="15" rx="4.5" ry="2"/>
	</defs>
	<clipPath id="SVGID_2_">
		<use xlink:href="#SVGID_1_"  style="overflow:visible;"/>
	</clipPath>
	<rect x="16" y="8" class="st0" width="18.9" height="14"/>
</g>
<g>
	<defs>
		<polygon id="SVGID_3_" points="17.8,27.5 17.8,28.4 12.7,28.4 13.1,27.5 		"/>
	</defs>
	<clipPath id="SVGID_4_">
		<use xlink:href="#SVGID_3_"  style="overflow:visible;"/>
	</clipPath>
	<rect x="7.7" y="22.5" class="st1" width="15.1" height="11"/>
</g>
<g>
	<defs>
		<polygon id="SVGID_5_" points="24,4 14.5,4 17.6,11 24,11 		"/>
	</defs>
	<clipPath id="SVGID_6_">
		<use xlink:href="#SVGID_5_"  style="overflow:visible;"/>
	</clipPath>
	<rect x="9.5" y="-1" class="st2" width="19.5" height="17"/>
</g>
<g>
	<defs>
		<path id="SVGID_7_" d="M25.6,17.7l0.9-0.2c0.4,1.8-0.8,2.7-3.2,2.7h-1.1v-1h1.1C25.2,19.2,25.9,18.7,25.6,17.7z"/>
	</defs>
	<clipPath id="SVGID_8_">
		<use xlink:href="#SVGID_7_"  style="overflow:visible;"/>
	</clipPath>
	<rect x="17.3" y="12.5" class="st3" width="14.3" height="12.7"/>
</g>
<g>
	<defs>
		<path id="SVGID_9_" d="M21.3,19.2v1h-2.9c-0.6,0-1.2,0.3-1.5,0.8l-0.8-0.5c0.5-0.8,1.3-1.3,2.3-1.3H21.3z"/>
	</defs>
	<clipPath id="SVGID_10_">
		<use xlink:href="#SVGID_9_"  style="overflow:visible;"/>
	</clipPath>
	<rect x="11.1" y="14.2" class="st4" width="15.2" height="11.8"/>
</g>
<g>
	<defs>
		<path id="SVGID_11_" d="M15.7,21.8l1,0.1c0,0,0,0.1,0,0.1l0,0c0,0.9,0.8,1.7,1.7,1.7H20v1h-1.6c-1.5,0-2.7-1.2-2.7-2.7l0,0
			C15.7,21.8,15.7,21.8,15.7,21.8z"/>
	</defs>
	<clipPath id="SVGID_12_">
		<use xlink:href="#SVGID_11_"  style="overflow:visible;"/>
	</clipPath>
	<rect x="10.7" y="16.8" class="st5" width="14.3" height="12.8"/>
</g>
<g>
	<defs>
		<path id="SVGID_13_" d="M21,24.6v-1h4.6c0.2,0,0.4,0,0.6,0.1L26,24.6c-0.1,0-0.3-0.1-0.4-0.1H21z"/>
	</defs>
	<clipPath id="SVGID_14_">
		<use xlink:href="#SVGID_13_"  style="overflow:visible;"/>
	</clipPath>
	<rect x="16" y="18.6" class="st6" width="15.2" height="11"/>
</g>
<g>
	<defs>
		<ellipse id="SVGID_15_" cx="8" cy="27.3" rx="6" ry="2.7"/>
	</defs>
	<clipPath id="SVGID_16_">
		<use xlink:href="#SVGID_15_"  style="overflow:visible;"/>
	</clipPath>
	<rect x="-3" y="19.6" class="st7" width="22" height="15.4"/>
</g>
<g>
	<defs>
		<path id="SVGID_17_" d="M26.7,25l0.7-0.7c0.4,0.4,0.7,1,0.7,1.7c0,1.3-1.1,2.4-2.4,2.4h-0.7v-1h0.7c0.8,0,1.5-0.7,1.5-1.5
			C27.1,25.7,26.9,25.3,26.7,25z"/>
	</defs>
	<clipPath id="SVGID_18_">
		<use xlink:href="#SVGID_17_"  style="overflow:visible;"/>
	</clipPath>
	<rect x="19.9" y="19.4" class="st8" width="13.1" height="14.1"/>
</g>
<g>
	<defs>
		<rect id="SVGID_19_" x="18.8" y="27.5" width="5.1" height="1"/>
	</defs>
	<clipPath id="SVGID_20_">
		<use xlink:href="#SVGID_19_"  style="overflow:visible;"/>
	</clipPath>
	<rect x="13.8" y="22.5" class="st9" width="15.1" height="11"/>
</g>
<g>
	<defs>
		<path id="SVGID_21_" d="M25.5,2L25.5,2c1,0,1.8,0.8,1.8,1.8v9.4c0,1-0.8,1.8-1.8,1.8c-1,0-1.8-0.8-1.8-1.8V3.8
			C23.7,2.8,24.5,2,25.5,2z"/>
	</defs>
	<clipPath id="SVGID_22_">
		<use xlink:href="#SVGID_21_"  style="overflow:visible;"/>
	</clipPath>
	<rect x="18.7" y="-3" class="st10" width="13.6" height="23"/>
</g>
<g>
	<defs>
		<path id="SVGID_23_" d="M8,13.9L8,13.9c1.3,0,2.3,1,2.3,2.3v9.3c0,1.1-0.9,2-2,2H7.7c-1.1,0-2-0.9-2-2v-9.3
			C5.7,14.9,6.7,13.9,8,13.9z"/>
	</defs>
	<clipPath id="SVGID_24_">
		<use xlink:href="#SVGID_23_"  style="overflow:visible;"/>
	</clipPath>
	<rect x="0.7" y="8.9" class="st11" width="14.6" height="23.6"/>
</g>
<g>
	<defs>
		<circle id="SVGID_25_" cx="8" cy="14" r="5"/>
	</defs>
	<clipPath id="SVGID_26_">
		<use xlink:href="#SVGID_25_"  style="overflow:visible;"/>
	</clipPath>
	<rect x="-2" y="4" class="st12" width="20" height="20"/>
</g>
</svg>
