<?xml version="1.0" encoding="utf-8"?>
<!-- Generator: Adobe Illustrator 22.0.1, SVG Export Plug-In . SVG Version: 6.00 Build 0)  -->
<svg version="1.1" id="Layer_1" xmlns="http://www.w3.org/2000/svg" xmlns:xlink="http://www.w3.org/1999/xlink" x="0px" y="0px"
	 viewBox="0 0 32 32" style="enable-background:new 0 0 32 32;" xml:space="preserve">
<style type="text/css">
	.st0{fill:#FECC53;}
	.st1{fill-opacity:0.15;}
	.st2{fill:#80C7FF;}
	.st3{fill:#3BA9FF;}
	.st4{opacity:0.15;enable-background:new    ;}
</style>
<g id="Illustration-_x2F_-Compensation">
	<path id="Rectangle" class="st0" d="M2.6,12.9L15,5.3c0.6-0.4,1.5-0.4,2.1,0l12.3,7.6c0.4,0.2,0.6,0.7,0.6,1.1v14.6
		c0,0.7-0.6,1.3-1.3,1.3H3.3C2.6,30,2,29.4,2,28.7V14C2,13.6,2.3,13.1,2.6,12.9z"/>
	<path id="Path-9" class="st1" d="M3.3,14l11.5,8c0.7,0.5,1.6,0.5,2.3,0l11.7-8l-12.1,4.3c-0.4,0.2-0.9,0.2-1.3,0L3.3,14z"/>
	<path id="Rectangle_1_" class="st2" d="M15.3,2.1l11.3,4.1C26.9,6.3,27.1,6.7,27,7l-6.9,19L7.6,21.4l6.9-19
		C14.6,2.1,14.9,1.9,15.3,2.1z"/>
	<path id="Combined-Shape" class="st3" d="M17.7,5l5.1,1.9c0,0,0,0.1,0,0.1c-0.3,0.9,0.2,2,1.1,2.4l-5,13.8L10.3,20l5-13.8
		c1,0.3,2.1-0.2,2.4-1.1C17.7,5.1,17.7,5,17.7,5z"/>
	<path id="Path-10" class="st0" d="M24,18.4l0.8-0.5v10.3H7L7.5,18l0.3,0.2L3.3,14L15,20.7c0.6,0.3,1.4,0.3,2,0L28.7,14L24,18.4z"/>
	<polygon id="Path-11" class="st4" points="25.7,10.6 23.3,17.1 24.9,16.1 26.7,11.2 	"/>
</g>
</svg>
