<?xml version="1.0" encoding="utf-8"?>
<!-- Generator: Adobe Illustrator 22.0.1, SVG Export Plug-In . SVG Version: 6.00 Build 0)  -->
<svg version="1.1" id="Layer_1" xmlns="http://www.w3.org/2000/svg" xmlns:xlink="http://www.w3.org/1999/xlink" x="0px" y="0px"
	 viewBox="0 0 32 32" style="enable-background:new 0 0 32 32;" xml:space="preserve">
<style type="text/css">
	.st0{clip-path:url(#SVGID_2_);fill:#78B9E5;}
	.st1{clip-path:url(#SVGID_4_);fill:#FFFFFF;}
	.st2{clip-path:url(#SVGID_6_);fill:#FFFFFF;}
	.st3{clip-path:url(#SVGID_8_);fill:#B1DAF4;}
	.st4{clip-path:url(#SVGID_10_);fill:#4B9DD4;}
	.st5{clip-path:url(#SVGID_12_);fill:#4B9DD4;}
	.st6{clip-path:url(#SVGID_14_);fill:#4B9DD4;}
	.st7{clip-path:url(#SVGID_16_);fill:#4B9DD4;}
	.st8{clip-path:url(#SVGID_18_);fill:#FECC55;}
	.st9{clip-path:url(#SVGID_20_);fill:#4B9DD4;}
</style>
<g>
	<defs>
		<path id="SVGID_1_" d="M17.7,8.9c-0.6,0.5-1.6,1.3-3,2.5c0,0,0-0.8,0-2.5c-2-0.5-3.5-1.8-3.5-3.4c0-2,2.3-3.5,5.1-3.5
			c2.8,0,5.1,1.6,5.1,3.5C21.3,7.1,19.8,8.5,17.7,8.9z"/>
	</defs>
	<clipPath id="SVGID_2_">
		<use xlink:href="#SVGID_1_"  style="overflow:visible;"/>
	</clipPath>
	<rect x="6.2" y="-3" class="st0" width="20.2" height="19.4"/>
</g>
<g>
	<defs>
		<rect id="SVGID_3_" x="17.3" y="4.7" width="1.3" height="1.3"/>
	</defs>
	<clipPath id="SVGID_4_">
		<use xlink:href="#SVGID_3_"  style="overflow:visible;"/>
	</clipPath>
	<rect x="12.3" y="-0.3" class="st1" width="11.3" height="11.3"/>
</g>
<g>
	<defs>
		<rect id="SVGID_5_" x="14" y="4.7" width="1.3" height="1.3"/>
	</defs>
	<clipPath id="SVGID_6_">
		<use xlink:href="#SVGID_5_"  style="overflow:visible;"/>
	</clipPath>
	<rect x="9" y="-0.3" class="st2" width="11.3" height="11.3"/>
</g>
<g>
	<defs>
		<path id="SVGID_7_" d="M8.5,14.2c-0.6,0.5-1.6,1.3-3,2.5c0,0,0-0.8,0-2.5c-2-0.5-3.5-1.8-3.5-3.4c0-2,2.3-3.5,5.1-3.5
			s5.1,1.6,5.1,3.5C12.2,12.4,10.6,13.8,8.5,14.2z M26.3,14.2c-0.6,0.5-1.6,1.3-3,2.5c0,0,0-0.8,0-2.5c-2-0.5-3.5-1.8-3.5-3.4
			c0-2,2.3-3.5,5.1-3.5c2.8,0,5.1,1.6,5.1,3.5C30,12.4,28.5,13.8,26.3,14.2z"/>
	</defs>
	<clipPath id="SVGID_8_">
		<use xlink:href="#SVGID_7_"  style="overflow:visible;"/>
	</clipPath>
	<rect x="-3" y="2.3" class="st3" width="38" height="19.4"/>
</g>
<g>
	<defs>
		<rect id="SVGID_9_" x="8.2" y="9.9" width="1.3" height="1.3"/>
	</defs>
	<clipPath id="SVGID_10_">
		<use xlink:href="#SVGID_9_"  style="overflow:visible;"/>
	</clipPath>
	<rect x="3.2" y="4.9" class="st4" width="11.3" height="11.3"/>
</g>
<g>
	<defs>
		<rect id="SVGID_11_" x="4.8" y="9.9" width="1.3" height="1.3"/>
	</defs>
	<clipPath id="SVGID_12_">
		<use xlink:href="#SVGID_11_"  style="overflow:visible;"/>
	</clipPath>
	<rect x="-0.2" y="4.9" class="st5" width="11.3" height="11.3"/>
</g>
<g>
	<defs>
		<rect id="SVGID_13_" x="26" y="9.9" width="1.3" height="1.3"/>
	</defs>
	<clipPath id="SVGID_14_">
		<use xlink:href="#SVGID_13_"  style="overflow:visible;"/>
	</clipPath>
	<rect x="21" y="4.9" class="st6" width="11.3" height="11.3"/>
</g>
<g>
	<defs>
		<rect id="SVGID_15_" x="22.7" y="9.9" width="1.3" height="1.3"/>
	</defs>
	<clipPath id="SVGID_16_">
		<use xlink:href="#SVGID_15_"  style="overflow:visible;"/>
	</clipPath>
	<rect x="17.7" y="4.9" class="st7" width="11.3" height="11.3"/>
</g>
<g>
	<defs>
		<path id="SVGID_17_" d="M16,19.3c-1.7,0-3-1.3-3-3c0-1.7,1.3-3,3-3s3,1.3,3,3C19,18,17.7,19.3,16,19.3z M25.3,24c-1.7,0-3-1.3-3-3
			c0-1.7,1.3-3,3-3c1.7,0,3,1.3,3,3C28.3,22.7,27,24,25.3,24z M6.7,24c-1.7,0-3-1.3-3-3c0-1.7,1.3-3,3-3s3,1.3,3,3
			C9.7,22.7,8.3,24,6.7,24z"/>
	</defs>
	<clipPath id="SVGID_18_">
		<use xlink:href="#SVGID_17_"  style="overflow:visible;"/>
	</clipPath>
	<rect x="-1.3" y="8.3" class="st8" width="34.7" height="20.7"/>
</g>
<g>
	<defs>
		<path id="SVGID_19_" d="M15,20.3h2c1.7,0,3,1.3,3,3v2h-8v-2C12,21.7,13.3,20.3,15,20.3z M24.3,25h2c1.7,0,3,1.3,3,3v2h-8v-2
			C21.3,26.3,22.7,25,24.3,25z M5.7,25h2c1.7,0,3,1.3,3,3v2h-8v-2C2.7,26.3,4,25,5.7,25z"/>
	</defs>
	<clipPath id="SVGID_20_">
		<use xlink:href="#SVGID_19_"  style="overflow:visible;"/>
	</clipPath>
	<rect x="-2.3" y="15.3" class="st9" width="36.7" height="19.7"/>
</g>
</svg>
