<?xml version="1.0" encoding="utf-8"?>
<!-- Generator: Adobe Illustrator 22.0.1, SVG Export Plug-In . SVG Version: 6.00 Build 0)  -->
<svg version="1.1" id="Layer_1" xmlns="http://www.w3.org/2000/svg" xmlns:xlink="http://www.w3.org/1999/xlink" x="0px" y="0px"
	 viewBox="0 0 32 32" style="enable-background:new 0 0 32 32;" xml:space="preserve">
<style type="text/css">
	.st0{clip-path:url(#SVGID_4_);fill:#536A81;}
	.st1{clip-path:url(#SVGID_6_);fill:#536A81;}
	.st2{clip-path:url(#SVGID_8_);fill:#80C7FF;}
	.st3{opacity:0.15;clip-path:url(#SVGID_10_);fill:#131313;}
	.st4{clip-path:url(#SVGID_12_);fill:#80C7FF;}
	.st5{opacity:0.15;clip-path:url(#SVGID_14_);fill:#131313;}
	.st6{clip-path:url(#SVGID_16_);fill:#FFCD54;}
	.st7{clip-path:url(#SVGID_18_);fill:#FF5D5D;}
	.st8{clip-path:url(#SVGID_20_);fill:#FF5D5D;}
</style>
<g>
	<defs>
		<polygon id="SVGID_1_" points="2,16.2 30,26.6 30,2 		"/>
	</defs>
	<clipPath id="SVGID_2_">
		<use xlink:href="#SVGID_1_"  style="overflow:visible;"/>
	</clipPath>
</g>
<g>
	<defs>
		<path id="SVGID_3_" d="M27.6,13.5h-2c0-5.2-4.3-9.5-9.5-9.5s-9.5,4.3-9.5,9.5h-2C4.6,7.1,9.7,2,16.1,2S27.6,7.1,27.6,13.5z"/>
	</defs>
	<clipPath id="SVGID_4_">
		<use xlink:href="#SVGID_3_"  style="overflow:visible;"/>
	</clipPath>
	<rect x="-0.4" y="-3" class="st0" width="33" height="21.5"/>
</g>
<g>
	<defs>
		<path id="SVGID_5_" d="M16.1,27.5c5.2,0,9.5-4.3,9.5-9.5h2c0,6.4-5.1,11.5-11.5,11.5V27.5z M6.6,19h-2c0-0.3,0-0.7,0-1h2
			C6.6,18.3,6.6,18.7,6.6,19z"/>
	</defs>
	<clipPath id="SVGID_6_">
		<use xlink:href="#SVGID_5_"  style="overflow:visible;"/>
	</clipPath>
	<rect x="-0.4" y="13" class="st1" width="33" height="21.5"/>
</g>
<g>
	<defs>
		<path id="SVGID_7_" d="M26,13h-4.5v4.7c0,1.5,1.2,2.7,2.7,2.7h2.2c1.5,0,2.7-1.2,2.7-2.7V16C29,14.3,27.6,13,26,13z"/>
	</defs>
	<clipPath id="SVGID_8_">
		<use xlink:href="#SVGID_7_"  style="overflow:visible;"/>
	</clipPath>
	<rect x="16.5" y="8" class="st2" width="17.5" height="17.3"/>
</g>
<g>
	<defs>
		<path id="SVGID_9_" d="M28.7,19c-0.5,0.8-1.3,1.3-2.3,1.3h-2.2c-1.5,0-2.7-1.2-2.7-2.7v-2c0-0.6,0.2-1.1,0.5-1.5V19H28.7z
			 M29.1,16v1.7V16z"/>
	</defs>
	<clipPath id="SVGID_10_">
		<use xlink:href="#SVGID_9_"  style="overflow:visible;"/>
	</clipPath>
	<rect x="16.6" y="9.1" class="st3" width="17.5" height="16.2"/>
</g>
<g>
	<defs>
		<path id="SVGID_11_" d="M10.5,13H5.7C4.2,13,3,14.2,3,15.7v2c0,1.5,1.2,2.7,2.7,2.7h2.2c1.5,0,2.7-1.2,2.7-2.7V13z"/>
	</defs>
	<clipPath id="SVGID_12_">
		<use xlink:href="#SVGID_11_"  style="overflow:visible;"/>
	</clipPath>
	<rect x="-2" y="8" class="st4" width="17.5" height="17.3"/>
</g>
<g>
	<defs>
		<path id="SVGID_13_" d="M3.4,19c0.5,0.8,1.3,1.3,2.3,1.3h2.2c1.5,0,2.7-1.2,2.7-2.7v-2c0-0.6-0.2-1.1-0.5-1.5V19H3.4z M3.1,16v1.7
			V16z"/>
	</defs>
	<clipPath id="SVGID_14_">
		<use xlink:href="#SVGID_13_"  style="overflow:visible;"/>
	</clipPath>
	<rect x="-1.9" y="9.1" class="st5" width="17.5" height="16.2"/>
</g>
<g>
	<defs>
		<path id="SVGID_15_" d="M15.1,26h2c1.1,0,2,0.9,2,2c0,1.1-0.9,2-2,2h-2c-1.1,0-2-0.9-2-2C13.1,26.9,14,26,15.1,26z"/>
	</defs>
	<clipPath id="SVGID_16_">
		<use xlink:href="#SVGID_15_"  style="overflow:visible;"/>
	</clipPath>
	<rect x="8.1" y="21" class="st6" width="16" height="14"/>
</g>
<g>
	<defs>
		<path id="SVGID_17_" d="M9.5,12L9.5,12c0.8,0,1.5,0.7,1.5,1.5v6c0,0.8-0.7,1.5-1.5,1.5C8.7,21,8,20.3,8,19.5v-6
			C8,12.7,8.7,12,9.5,12z"/>
	</defs>
	<clipPath id="SVGID_18_">
		<use xlink:href="#SVGID_17_"  style="overflow:visible;"/>
	</clipPath>
	<rect x="3" y="7" class="st7" width="13" height="19"/>
</g>
<g>
	<defs>
		<path id="SVGID_19_" d="M22.5,21L22.5,21c0.8,0,1.5-0.7,1.5-1.5v-6c0-0.8-0.7-1.5-1.5-1.5S21,12.7,21,13.5v6
			C21,20.3,21.7,21,22.5,21z"/>
	</defs>
	<clipPath id="SVGID_20_">
		<use xlink:href="#SVGID_19_"  style="overflow:visible;"/>
	</clipPath>
	<rect x="16" y="7" class="st8" width="13" height="19"/>
</g>
</svg>
