<?xml version="1.0" encoding="utf-8"?>
<!-- Generator: Adobe Illustrator 22.0.1, SVG Export Plug-In . SVG Version: 6.00 Build 0)  -->
<svg version="1.1" id="Layer_1" xmlns="http://www.w3.org/2000/svg" xmlns:xlink="http://www.w3.org/1999/xlink" x="0px" y="0px"
	 viewBox="0 0 32 32" style="enable-background:new 0 0 32 32;" xml:space="preserve">
<style type="text/css">
	.st0{clip-path:url(#SVGID_2_);fill:#F06F6F;}
	.st1{clip-path:url(#SVGID_4_);fill:#69BDFF;}
	.st2{clip-path:url(#SVGID_6_);fill:#536A81;}
</style>
<g>
	<g>
		<defs>
			<circle id="SVGID_1_" cx="15.7" cy="16.3" r="2.6"/>
		</defs>
		<clipPath id="SVGID_2_">
			<use xlink:href="#SVGID_1_"  style="overflow:visible;"/>
		</clipPath>
		<rect x="7.9" y="8.5" class="st0" width="15.6" height="15.6"/>
	</g>
</g>
<g>
	<g>
		<defs>
			<path id="SVGID_3_" d="M22.7,12.4c0.7,1.2,1.1,2.6,1.1,4.1c0,4.6-3.7,8.3-8.3,8.3s-8.3-3.7-8.3-8.3s3.7-8.3,8.3-8.3
				c2.4,0,4.5,1,6,2.6l-2.1,2c-0.9-1-2.3-1.6-3.8-1.6c-2.9,0-5.2,2.3-5.2,5.2s2.3,5.2,5.2,5.2s5.2-2.3,5.2-5.2
				c0-0.7-0.1-1.3-0.4-1.9L22.7,12.4z M24.3,11l0.5-0.4l1.8-0.1l0.9-0.1c0.9,1.8,1.5,3.9,1.5,6.1C29,24,22.9,30,15.5,30S2,24,2,16.5
				S8,3,15.5,3c3.5,0,6.7,1.3,9.1,3.5l-0.8,1.4L23,9.3c-1.9-2-4.5-3.2-7.5-3.2c-5.7,0-10.4,4.6-10.4,10.4s4.6,10.4,10.4,10.4
				s10.4-4.6,10.4-10.4C25.9,14.5,25.3,12.6,24.3,11z"/>
		</defs>
		<clipPath id="SVGID_4_">
			<use xlink:href="#SVGID_3_"  style="overflow:visible;"/>
		</clipPath>
		<rect x="-3.2" y="-2.2" class="st1" width="37.4" height="37.4"/>
	</g>
</g>
<g>
	<g>
		<defs>
			<path id="SVGID_5_" d="M23.7,9.3l-7.4,7.4c-0.3,0.3-0.7,0.3-1,0s-0.3-0.8,0-1l7.5-7.5V5.9c0-0.2,0.1-0.4,0.2-0.6
				c0.5-0.6,1.9-2,2.9-3.1c0.5-0.5,1.3-0.2,1.3,0.6v0.7c0,0.5,0.3,0.8,0.8,0.8h1.3c0.7,0,1,0.9,0.5,1.4l-3,3.2
				c-0.2,0.2-0.3,0.2-0.5,0.2"/>
		</defs>
		<clipPath id="SVGID_6_">
			<use xlink:href="#SVGID_5_"  style="overflow:visible;"/>
		</clipPath>
		<rect x="9.8" y="-3.2" class="st2" width="25.4" height="25.5"/>
	</g>
</g>
</svg>
