<!-- Generated by IcoMoon.io -->
<svg version="1.1" xmlns="http://www.w3.org/2000/svg" width="257" height="256" viewBox="0 0 257 256">
<title>alpha-feedback</title>
<path fill="#333" d="M128.38 28.448c-55.184 0-99.848 37.702-99.848 84.219 0.435 24.642 12.221 46.445 30.338 60.457l0.18 0.134c-0.964 5.797-1.73 12.882-2.125 20.066l-0.023 0.526c0 16.888 0 30.221 6.444 33.258s27.11-11.185 38.369-19.406c4.849-3.699 9.151-7.484 13.175-11.546l0.009-0.009c4.040 0.512 8.722 0.808 13.472 0.815h0.009c55.109 0 99.774-37.776 99.774-84.293s-44.665-84.219-99.774-84.219zM166.156 149.777c-1.496 1.333-3.481 2.148-5.655 2.148-0.017 0-0.034 0-0.051-0h0.002c-0.016 0-0.036 0-0.054 0-1.494 0-2.885-0.442-4.047-1.202l0.029 0.017c-1.293-0.834-2.292-2.024-2.871-3.432l-0.018-0.049-5.926-13.258h-37.925l-5.926 13.258c-0.577 1.449-1.551 2.638-2.787 3.464l-0.026 0.017c-1.135 0.744-2.525 1.185-4.019 1.185-0.019 0-0.038 0-0.058-0h0.003c-0.017 0-0.037 0-0.058 0-2.219 0-4.248-0.814-5.806-2.157l0.012 0.010c-1.573-1.262-2.576-3.179-2.592-5.331v-0.002c0.059-1.328 0.38-2.567 0.914-3.687l-0.025 0.058 30.221-63.405c0.797-1.731 2.075-3.127 3.661-4.050l0.043-0.023c1.372-0.664 2.983-1.052 4.686-1.052 0.201 0 0.402 0.005 0.601 0.016l-0.028-0.001c0.004 0 0.008 0 0.012 0 1.966 0 3.803 0.551 5.366 1.507l-0.045-0.026c1.64 0.957 2.952 2.317 3.826 3.946l0.026 0.054 30.369 63.034c0.508 1.062 0.829 2.301 0.888 3.609l0.001 0.020c-0.043 2.179-1.103 4.103-2.723 5.321l-0.018 0.012z"></path>
<path fill="#333" d="M115.639 120.815h25.999l-12.963-29.11-13.037 29.11z"></path>
</svg>
