<!-- Generated by IcoMoon.io -->
<svg version="1.1" xmlns="http://www.w3.org/2000/svg" width="256" height="256" viewBox="0 0 256 256">
<title>beta-feedback</title>
<path fill="#333" d="M140.528 102.217c1.79-1.278 2.557-3.068 2.557-5.625 0-2.813-1.023-4.858-2.557-6.136-1.79-1.278-4.602-1.79-8.438-1.79h-14.574v15.341h14.574c3.835 0 6.648-0.511 8.438-1.79z"></path>
<path fill="#333" d="M142.829 121.649c-1.79-1.278-4.602-2.045-8.693-2.045h-16.619v16.619h16.619c4.091 0 6.903-0.767 8.693-2.045s2.557-3.324 2.557-6.392-0.767-4.858-2.557-6.136z"></path>
<path fill="#333" d="M128 30.882c-53.693 0-97.414 36.818-97.414 82.329 0 23.267 11.505 44.233 29.915 59.062-0.767 6.136-1.534 13.551-1.79 19.943-0.511 16.619-0.511 29.403 5.881 32.471s26.591-10.994 37.585-18.921c3.835-2.813 8.438-6.903 12.784-11.25 4.347 0.511 8.693 0.767 13.040 0.767 53.949 0 97.414-36.818 97.414-82.329 0-45.255-43.721-82.073-97.414-82.073zM161.238 141.591c-2.301 3.324-5.625 5.625-9.716 7.415s-9.204 2.557-14.829 2.557h-29.659c-3.068 0-5.369-0.767-6.903-2.557-1.534-1.534-2.557-4.091-2.557-6.903v-59.318c0-3.068 0.767-5.369 2.557-6.903 1.534-1.534 4.091-2.557 6.903-2.557h28.636c8.182 0 14.829 1.79 19.687 5.625 4.858 3.579 7.415 8.693 7.415 14.829 0 4.091-1.023 7.671-3.324 10.739-2.045 3.068-5.113 5.369-8.949 6.648 4.602 1.534 8.182 3.835 10.483 7.159 2.557 3.324 3.579 7.415 3.579 12.273 0 4.091-1.279 7.926-3.324 10.994z"></path>
</svg>
