<!-- Generated by IcoMoon.io -->
<svg version="1.1" xmlns="http://www.w3.org/2000/svg" width="256" height="256" viewBox="0 0 256 256">
<title>calendar</title>
<path fill="#333" d="M223.202 74.626c-0.236-6.362-5.42-11.311-11.782-11.782-9.897-0.471-17.438-0.707-27.1-0.943v-10.604c0-6.598-5.42-12.018-12.018-12.018s-12.018 5.42-12.018 12.018v10.604c-9.426-0.236-55.142-0.236-64.568 0v-10.604c0-6.598-5.42-12.018-12.018-12.018s-12.018 5.42-12.018 12.018v10.84c-9.897 0.236-17.438 0.471-27.1 0.943-6.362 0.236-11.547 5.42-11.782 11.782-1.885 43.595-1.885 85.069 0 128.665 0.236 6.363 5.42 11.311 11.782 11.782 27.335 1.178 56.32 1.414 83.42 1.414s56.32-0.471 83.42-1.414c6.363-0.236 11.547-5.42 11.782-11.782 1.885-43.831 1.885-85.305 0-128.9zM199.873 183.731c-0.236 4.242-3.535 7.541-7.776 7.541-20.737 0.707-43.359 0.943-63.861 0.943s-43.359-0.236-63.861-0.943c-4.242-0.236-7.541-3.299-7.776-7.541-0.707-18.617-0.943-37.468-0.707-56.085 0-4.242 3.535-7.776 8.012-7.776h128.665c4.477 0 8.012 3.299 8.012 7.776 0 18.616-0.236 37.468-0.707 56.085z"></path>
<path fill="#333" d="M169.474 152.154h-8.248c-4.477 0-8.248 3.77-8.248 8.248v8.248c0 4.477 3.77 8.248 8.248 8.248h8.248c4.477 0 8.248-3.77 8.248-8.248v-8.248c-0.236-4.477-3.535-8.248-8.248-8.248z"></path>
</svg>
