<!-- Generated by IcoMoon.io -->
<svg version="1.1" xmlns="http://www.w3.org/2000/svg" width="256" height="256" viewBox="0 0 256 256">
<title>close-circle</title>
<path fill="#333" d="M128 30.841c-53.693 0-97.159 43.721-97.159 97.159 0 53.693 43.466 97.159 97.159 97.159s97.159-43.466 97.159-97.159c0-53.437-43.721-97.159-97.159-97.159zM166.863 146.665c5.113 5.113 5.113 13.807 0 18.921l-1.534 1.534c-5.113 5.113-13.807 5.113-18.921 0l-18.409-18.665-18.409 18.409c-5.114 5.113-13.807 5.113-18.921 0l-1.534-1.534c-5.114-5.113-5.114-13.807 0-18.921l18.409-18.409-18.409-18.409c-5.114-5.114-5.114-13.807 0-18.921l1.534-1.534c5.114-5.114 13.807-5.114 18.921 0l18.409 18.409 18.409-18.409c5.113-5.114 13.807-5.114 18.921 0l1.534 1.534c5.113 5.114 5.113 13.807 0 18.921l-18.409 18.409 18.409 18.665z"></path>
</svg>
