<!-- Generated by IcoMoon.io -->
<svg version="1.1" xmlns="http://www.w3.org/2000/svg" width="256" height="256" viewBox="0 0 256 256">
<title>cost</title>
<path fill="#333" d="M224.938 62.163c-2.484-16.563-14.078-28.157-30.641-30.641 0 0-4.969-1.656-65.422-1.656-56.313 0-65.422 1.656-65.422 1.656-16.563 2.484-27.328 13.25-30.641 30.641 0 0-2.485 7.453-2.485 67.907 0 56.313 2.485 62.938 2.485 62.938 4.141 17.391 13.25 27.328 30.641 30.641 0 0 4.969 2.484 65.422 2.484 5.797 0 11.594 0 16.563 0-0.828-1.656-1.656-3.313-1.656-4.969v-6.625c-10.766-1.656-19.875-4.141-27.328-9.11-1.656-0.828-3.313-2.484-3.313-3.313-0.828-1.656-0.828-3.313-0.828-4.969 0-3.313 0.828-5.797 2.484-7.453 1.656-2.484 3.313-3.313 5.797-3.313 0.828 0 2.484 0 3.313 0.828 0.828 0 2.484 0.828 4.141 2.484 4.141 2.484 8.281 4.141 11.594 4.969s7.453 1.656 11.594 1.656c4.969 0 9.11-0.828 11.594-2.484s4.141-4.141 4.141-7.453c0-1.656-0.828-3.313-2.484-4.969s-3.313-2.484-5.797-3.313c-2.484-0.828-5.797-1.656-10.766-2.484-7.453-1.656-13.25-3.313-18.219-5.797-4.969-1.656-8.281-4.969-12.422-9.11-3.313-4.141-4.969-9.11-4.969-16.563s2.484-14.078 8.281-19.875c5.797-5.797 12.422-9.11 21.531-11.594v-7.453c0-3.313 0.828-4.969 3.313-7.453 1.656-1.656 4.141-2.484 7.453-2.484s5.797 0.828 7.453 2.484c1.656 1.656 2.484 4.141 2.484 7.453v6.625c8.281 1.656 15.734 4.141 23.188 9.11 1.656 0.828 3.313 2.484 3.313 4.141 0.828 1.656 0.828 3.312 0.828 4.969 0 3.313-0.828 5.797-2.484 7.453-1.656 2.484-4.141 3.313-5.797 3.313-0.828 0-2.484 0-3.313-0.828-0.828 0-2.484-0.828-4.969-2.484-0.828 0-2.484-0.828-4.141-2.484-2.484-0.828-4.969-2.484-7.453-3.313s-5.797-0.828-8.281-0.828c-4.141 0-8.281 0.828-10.766 2.484s-4.141 4.141-4.141 7.453c0 3.313 1.656 5.797 4.969 6.625 3.313 1.656 8.281 3.313 14.906 4.969 7.453 1.656 13.25 3.313 17.391 4.969 4.969 1.656 8.281 4.969 11.594 9.11s4.969 9.11 4.969 16.563c0 7.453-2.484 14.906-8.281 19.875-4.969 5.797-12.422 9.11-21.531 10.766v7.453c0 1.656-0.828 3.313-1.656 4.969 28.156-0.828 31.469-1.656 31.469-1.656 16.563-3.313 28.156-14.078 30.641-30.641 0 0 1.656-1.656 1.656-63.766 1.656-62.938 0-67.907 0-67.907z"></path>
</svg>
