<!-- Generated by IcoMoon.io -->
<svg version="1.1" xmlns="http://www.w3.org/2000/svg" width="256" height="256" viewBox="0 0 256 256">
<title>edit</title>
<path fill="#333" d="M199.216 40.349c-5.478-5.478-13.696-5.478-19.173-0.684 0 0 0 0-0.685 0.684l-65.054 64.369c-1.37 1.37-2.055 2.739-2.055 4.793v9.587c0 4.109 2.739 6.848 6.848 6.848h9.586c2.054 0 3.424-0.684 4.793-2.055l65.054-65.054c5.478-4.793 6.163-13.011 0.685-18.489 0 0 0 0 0 0z"></path>
<path fill="#333" d="M148.543 135.532c-3.424 3.424-7.532 4.793-11.641 4.793h-23.282c-8.902 0-16.434-7.532-16.434-16.434 0 0 0 0 0 0v-23.967c0-4.109 2.055-8.902 4.793-11.641l52.727-52.727h-90.391c-6.848 0-11.641 4.793-11.641 11.641-1.37 31.5-1.37 63-1.37 94.499 0 22.598 0 45.195 1.37 67.793 0 6.163 4.793 10.957 10.956 10.957h128.053c6.163 0 11.641-4.793 11.641-10.957 1.37-22.598 1.37-45.195 1.37-67.793 0-20.543 0-41.087-0.685-61.63l-55.466 55.466z"></path>
</svg>
