<!-- Generated by IcoMoon.io -->
<svg version="1.1" xmlns="http://www.w3.org/2000/svg" width="256" height="256" viewBox="0 0 256 256">
<title>feedback</title>
<path fill="#333" d="M128 30.882c-53.693 0-97.414 36.818-97.414 82.329 0 23.267 11.505 44.233 29.915 59.062-0.767 6.136-1.534 13.551-1.79 19.943-0.511 16.619-0.511 29.403 5.881 32.471s26.591-10.994 37.585-18.921c3.835-2.813 8.438-6.903 12.784-11.25 4.347 0.511 8.693 0.767 13.040 0.767 53.693 0 97.414-36.818 97.414-82.329s-43.721-82.073-97.414-82.073zM169.931 133.154c0 3.068-2.301 5.369-5.369 5.625-23.267 1.023-46.79 1.023-70.312 0-3.068 0-5.369-2.557-5.369-5.625v-5.881c0-3.068 2.301-5.369 5.369-5.625 23.267-1.023 46.789-1.023 70.312 0 3.068 0 5.369 2.557 5.369 5.625v5.881zM170.699 99.915c0 3.068-2.301 5.369-5.369 5.625-23.267 1.023-46.79 1.023-70.312 0-3.068 0-5.369-2.557-5.369-5.625v-5.881c0-3.068 2.301-5.369 5.369-5.625 23.267-1.023 46.789-1.023 70.312 0 3.068 0 5.369 2.557 5.369 5.625v5.881z"></path>
</svg>
