<!-- Generated by IcoMoon.io -->
<svg version="1.1" xmlns="http://www.w3.org/2000/svg" width="256" height="256" viewBox="0 0 256 256">
<title>folder</title>
<path fill="#333" d="M220.869 133.949c0-18.893-0.7-40.584-0.7-44.782 0 0 0 0 0 0s0-0.7 0-0.7c0 0 0 0 0 0v0c-0.7-5.598-4.898-9.796-10.496-9.796 0 0-0.7 0-0.7 0v0h-81.868c0 0-6.998 0.7-9.097-3.499s-13.295-23.791-13.295-23.791l-5.598-3.499h-53.879c-4.198 0-8.397 3.499-8.397 8.397v0c0 0-0.7 19.592-1.399 41.984 0 0-0.7 31.488 0 46.182 0 0 0.7 25.889 0.7 35.686s0.7 17.493 0.7 17.493v0c0.7 4.898 4.898 9.096 9.796 9.096v0c0 0 0 0 0.7 0 0 0 0 0 0 0s0 0 0 0c5.598 0 36.386 1.399 61.576 1.399 27.289 0 93.064-0.7 100.060-1.399 0 0 0 0 0 0s0 0 0 0 0.7 0 0.7 0c0 0 0 0 0 0 5.598 0 9.796-4.898 9.796-10.496v0c0.7 1.399 1.399-40.584 1.399-62.275z"></path>
</svg>
