<!-- Generated by IcoMoon.io -->
<svg version="1.1" xmlns="http://www.w3.org/2000/svg" width="256" height="256" viewBox="0 0 256 256">
<title>frown</title>
<path fill="#333" d="M203.957 49.093c-19.174-19.174-49.409-20.648-75.957-20.648s-56.783 1.475-75.957 20.648c-19.911 19.911-20.648 49.409-20.648 75.957 0 0.737 0 4.425 0 5.162 0 26.548 1.475 56.784 20.648 75.957 19.174 19.911 49.409 21.386 75.957 21.386s56.783-1.475 75.957-20.648c19.174-19.174 20.648-49.409 20.648-75.957 0-0.737 0-4.425 0-5.162 0-27.285-0.737-56.784-20.648-76.695zM89.652 74.166c9.587-2.95 19.911 2.95 21.386 6.637 0.737 2.95-8.112 1.475-17.698 4.425s-16.224 9.587-16.962 6.637c-1.475-2.95 3.687-14.749 13.274-17.698zM105.876 119.15c0 6.637-5.899 12.536-12.537 12.536s-12.537-5.899-12.537-12.537 5.899-12.537 12.537-12.537c6.637 0 12.537 5.899 12.537 12.537zM184.046 185.521c-1.475 2.95-4.425 4.425-7.375 2.95-12.536-5.162-30.235-8.112-48.672-8.112s-36.135 2.95-48.672 8.85c0 0-0.737 0-1.475 0-2.213 0-4.425-1.475-5.162-3.687-1.475-2.95 0-5.899 2.95-7.375 14.012-5.899 33.185-9.587 53.097-9.587s38.348 3.687 52.358 9.587c2.95 1.475 4.425 4.425 2.95 7.375zM154.548 119.15c0-6.637 5.899-12.537 12.536-12.537s12.536 5.899 12.536 12.537-5.899 12.536-12.536 12.536c-6.637 0-12.536-5.899-12.536-12.537zM184.784 91.865c-0.737 2.95-7.375-3.687-16.962-6.637s-18.436-1.475-17.698-4.425c0.737-2.95 11.799-9.587 21.386-5.899 9.587 2.213 14.012 14.012 13.274 16.962z"></path>
</svg>
