<!-- Generated by IcoMoon.io -->
<svg version="1.1" xmlns="http://www.w3.org/2000/svg" width="256" height="256" viewBox="0 0 256 256">
<title>history</title>
<path fill="#333" d="M148.547 102.073c-10.327 9.59-19.917 19.18-29.507 28.77l-8.852-8.115c-4.426-3.689-10.327-3.689-14.754 0v0c-4.426 3.689-4.426 10.327-0.738 14.016 0 0 0 0 0.738 0.738l16.229 15.491c4.426 3.689 10.327 3.689 14.754 0 12.54-11.803 25.081-23.606 36.884-36.146 4.426-3.689 4.426-10.327 0-14.754 0 0 0 0 0 0v0c-4.426-3.689-10.327-3.689-14.754 0z"></path>
<path fill="#333" d="M127.154 28.305c-25.081 0-49.425 9.59-67.129 26.556l-9.59-9.59c-2.95-4.426-8.115-5.164-12.541-2.95-2.95 2.213-4.426 5.901-4.426 8.852 0 10.327-3.689 41.31-3.689 47.949s1.475 8.115 2.213 8.115 2.213 2.951 8.115 2.951 37.621-0.738 47.949 0 14.754-8.852 7.377-16.966l-9.59-9.59c24.343-22.868 62.702-21.392 85.57 3.689s21.392 62.703-3.689 85.57-62.703 20.655-84.833-4.426c-1.475-1.475-2.951-2.951-3.689-4.426-5.901-8.852-17.704-11.803-27.294-5.164-8.852 5.901-11.803 17.704-5.164 27.294 0.738 0.738 0.738 1.475 1.475 2.213 33.196 43.523 95.16 52.375 138.684 19.18s52.375-95.16 19.18-138.684c-19.18-25.819-47.949-40.572-78.932-40.572z"></path>
</svg>
