<!-- Generated by IcoMoon.io -->
<svg version="1.1" xmlns="http://www.w3.org/2000/svg" width="256" height="256" viewBox="0 0 256 256">
<title>home</title>
<path fill="#333" d="M221.106 81.523c0-5.514-3.151-10.241-7.877-12.604l-77.987-43.326c-4.727-3.151-11.028-3.151-15.755 0l-76.412 42.538c-4.727 2.363-7.877 7.877-7.877 12.604-2.363 44.902-3.151 91.378 0 136.28 0 8.665 7.090 14.967 15.755 14.967h34.661c5.514 0 10.241-4.727 10.241-10.241v0-49.628c0-8.665 7.090-15.755 15.755-15.755h31.51c8.665 0 15.755 7.089 15.755 15.755v49.628c0 5.514 3.939 10.241 10.241 11.029h36.236c8.665 0 14.967-6.302 15.755-14.967 2.363-44.902 2.363-90.591 0-136.28z"></path>
</svg>
