<!-- Generated by IcoMoon.io -->
<svg version="1.1" xmlns="http://www.w3.org/2000/svg" width="256" height="256" viewBox="0 0 256 256">
<title>job-o</title>
<path fill="#333" d="M222.435 62.919h-188.871c-9.33 0-17.067 7.737-17.067 17.067v138.354c0 8.419 7.737 15.246 17.067 15.246h188.871c9.33 0 17.067-6.827 17.067-15.019v-138.581c0-9.557-7.737-17.067-17.067-17.067zM32.426 79.986c0-0.683 0.455-1.138 1.138-1.138h188.871c0.683 0 1.138 0.455 1.138 1.138v36.409l-52.565 11.833c-4.096-9.102-13.198-15.474-23.893-15.474h-38.684c-10.013 0-18.887 5.689-23.211 14.108l-52.793-13.653v-33.223zM157.355 139.15v15.246c0 5.689-4.551 10.24-10.24 10.24h-38.684c-5.689 0-10.24-4.551-10.24-10.24v-15.246c0-5.689 4.551-10.24 10.24-10.24h38.684c5.689 0 10.24 4.551 10.24 10.24zM223.573 217.429c-0.227 0-0.683 0.227-1.138 0.227h-188.871c-0.455 0-0.91 0-1.138-0.227v-87.837l49.835 12.971v11.605c0 14.336 11.833 26.169 26.169 26.169h38.684c14.336 0 26.169-11.833 26.169-26.169v-10.012l50.29-11.378v84.651z"></path>
<path fill="#333" d="M91.819 52.907c4.323 0 7.965-3.641 7.965-7.965v-6.599c0.228 0 0.683-0.227 1.138-0.227h53.931c0.455 0 0.91 0 1.138 0.227v5.689c0 4.324 3.641 7.965 7.964 7.965s7.964-3.641 7.964-7.965v-7.282c0-8.192-7.509-14.336-17.067-14.336h-53.931c-9.557 0-17.067 6.372-17.067 14.336v8.419c0 4.324 3.413 7.737 7.965 7.737z"></path>
</svg>
