<!-- Generated by IcoMoon.io -->
<svg version="1.1" xmlns="http://www.w3.org/2000/svg" width="256" height="256" viewBox="0 0 256 256">
<title>journal-o</title>
<path fill="#333" d="M204.003 29.696h-41.188c-1.593-7.282-7.964-12.743-15.474-12.743h-58.254c-7.737 0-14.109 5.461-15.474 12.743h-21.845c-9.33 0-17.067 7.737-17.067 17.067v175.218c0 9.33 7.737 17.067 17.067 17.067h152.462c9.33 0 17.067-7.737 17.067-17.067v-175.218c-0.227-9.33-7.737-17.067-17.294-17.067zM147.114 32.882v86.699l-29.355-19.57-28.672 19.342v-86.471h58.027zM205.141 221.98c0 0.683-0.455 1.138-1.138 1.138h-152.462c-0.683 0-1.138-0.455-1.138-1.138v-175.218c0-0.683 0.455-1.138 1.138-1.138h21.618v103.765l44.601-30.265 45.284 30.037v-103.538h40.96c0.683 0 1.138 0.455 1.138 1.138v175.218z"></path>
</svg>
