<!-- Generated by IcoMoon.io -->
<svg version="1.1" xmlns="http://www.w3.org/2000/svg" width="256" height="256" viewBox="0 0 256 256">
<title>lock</title>
<path fill="#333" d="M211.239 128.767c-0.511-6.392-5.625-11.505-12.017-12.017-1.79 0-9.971 0-12.017-0.256v-26.591c0-32.727-26.591-59.062-59.062-59.062-32.727 0-59.318 26.335-59.318 59.062v26.591c-1.79 0-9.971 0-12.017 0.256-6.392 0.256-11.761 5.369-12.017 12.017-1.79 29.148-1.79 53.949 0 82.841 0.511 6.392 5.625 11.506 12.017 12.017 43.21 2.045 98.948 2.045 142.158 0 6.392-0.256 11.761-5.369 12.017-12.017 2.045-28.892 2.045-53.949 0.256-82.841zM145.018 178.625c0 9.204-7.671 16.875-16.875 16.875s-16.875-7.671-16.875-16.875v-25.313c0-9.46 7.671-16.875 16.875-16.875s16.875 7.671 16.875 16.875v25.313zM153.456 115.472c-16.875-0.256-33.75-0.256-50.625 0v-25.568c0-14.063 11.25-25.313 25.313-25.313s25.313 11.25 25.313 25.313v25.568z"></path>
</svg>
