<!-- Generated by IcoMoon.io -->
<svg version="1.1" xmlns="http://www.w3.org/2000/svg" width="256" height="256" viewBox="0 0 256 256">
<title>menu-o</title>
<path fill="#333" d="M64.171 80.213h127.431c4.323 0 7.964-3.641 7.964-7.965s-3.641-7.965-7.964-7.965h-127.431c-4.324 0-7.965 3.641-7.965 7.965s3.641 7.965 7.965 7.965z"></path>
<path fill="#333" d="M191.829 120.035h-127.431c-4.324 0-7.965 3.641-7.965 7.965s3.641 7.964 7.965 7.964h127.431c4.323 0 7.964-3.641 7.964-7.965s-3.641-7.965-7.964-7.965z"></path>
<path fill="#333" d="M191.829 175.787h-127.431c-4.324 0-7.965 3.641-7.965 7.964s3.641 7.964 7.965 7.964h127.431c4.323 0 7.964-3.641 7.964-7.964s-3.641-7.964-7.964-7.964z"></path>
</svg>
