<!-- Generated by IcoMoon.io -->
<svg version="1.1" xmlns="http://www.w3.org/2000/svg" width="256" height="256" viewBox="0 0 256 256">
<title>preview</title>
<path fill="#333" d="M117.773 159.193c0 14.574 11.761 26.335 26.335 26.335s26.335-11.761 26.335-26.335c0-14.574-11.761-26.335-26.335-26.335s-26.335 11.761-26.335 26.335z"></path>
<path fill="#333" d="M208.029 202.914c0.767-20.199 1.023-40.398 1.023-60.596 0.256-33.239-0.256-66.477-1.534-99.715-0.256-6.648-5.625-11.761-12.273-11.761h-134.488c-6.648 0-12.017 5.113-12.273 11.761-1.279 33.239-1.79 66.477-1.534 99.715-0.256 23.778 0.256 47.556 1.279 71.335 0.256 6.392 5.625 11.506 12.273 11.506h129.885c-9.46-7.159-18.153-14.83-26.591-23.267-6.136 2.813-12.784 4.346-19.942 4.346-26.079 0-47.301-21.221-47.301-47.301s21.222-47.301 47.301-47.301 47.301 21.222 47.301 47.301c0 7.159-1.534 13.807-4.346 19.942 7.671 7.671 14.574 15.596 21.221 24.034zM109.592 115.216h-21.222c-4.091 0-7.415-3.324-7.415-7.415s3.324-7.415 7.415-7.415h21.221c4.091 0 7.415 3.324 7.415 7.415s-3.324 7.415-7.415 7.415zM173.768 83.512h-85.397c-4.858 0-8.949-4.091-8.949-8.949s4.091-8.949 8.949-8.949h85.141c4.858 0 8.949 4.091 8.949 8.949s-3.835 8.949-8.693 8.949z"></path>
</svg>
