<!-- Generated by IcoMoon.io -->
<svg version="1.1" xmlns="http://www.w3.org/2000/svg" width="256" height="256" viewBox="0 0 256 256">
<title>print</title>
<path fill="#333" d="M83.757 81.85h88.465c4.858 0 8.949-3.835 8.949-8.949v-21.989c0-7.415-5.881-13.295-13.295-13.295h-79.517c-7.415 0-13.295 5.881-13.295 13.295v21.989c0 5.114 3.835 8.949 8.693 8.949z"></path>
<path fill="#333" d="M185.262 181.309c-0.767-4.091-4.347-7.159-8.693-7.159h-97.159c-4.091 0-7.926 3.068-8.693 7.159l-4.347 21.221c-1.534 8.182 4.602 15.852 13.040 15.852h97.159c8.438 0 14.574-7.671 13.040-15.852l-4.347-21.221z"></path>
<path fill="#333" d="M224.893 112.275c0-9.716-7.926-17.386-17.642-17.386h-158.522c-9.716 0-17.642 7.671-17.642 17.386-0.256 20.966-0.511 57.017 0.767 75.681 0.511 6.903 5.881 12.273 12.784 12.529 3.835 0.256 5.369 0.256 8.949 0.256l9.716-34.517c1.534-5.625 6.903-9.716 12.784-9.716h104.062c5.881 0 11.25 4.091 12.784 9.716l9.716 34.517c3.835-0.256 5.369-0.256 8.949-0.256 6.903-0.256 12.529-5.625 12.784-12.529 1.023-18.665 0.767-54.715 0.511-75.681zM56.911 130.173c-4.858 0-8.949-3.835-8.949-8.949 0-4.858 4.091-8.949 8.949-8.949s8.949 3.835 8.949 8.949c0 4.858-3.835 8.949-8.949 8.949z"></path>
</svg>
