<!-- Generated by IcoMoon.io -->
<svg version="1.1" xmlns="http://www.w3.org/2000/svg" width="256" height="256" viewBox="0 0 256 256">
<title>refresh</title>
<path fill="#333" d="M222.364 42.157c-1.023-10.483-13.807-15.085-21.477-7.926l-23.778 21.989c-18.921-13.295-42.954-19.943-68.522-15.852-40.397 6.648-72.613 40.653-77.216 81.306-6.136 55.994 37.585 103.551 92.556 103.551 27.102 0 51.392-11.506 68.267-29.915 7.159-7.926 4.602-20.454-4.602-25.824v0c-6.903-3.835-15.341-2.301-20.71 3.324-12.784 13.551-32.216 21.221-52.926 17.642-23.778-3.835-43.21-22.756-47.812-46.534-7.415-37.841 21.477-71.079 58.040-71.079 10.227 0 19.687 2.557 28.125 7.159l-19.176 18.153c-7.671 7.159-3.579 20.199 6.903 21.733 24.034 3.579 48.323 5.114 72.613 4.347 6.648-0.256 12.017-5.625 12.273-12.273 0.767-23.267 0-46.278-2.557-69.801z"></path>
</svg>
