<!-- Generated by IcoMoon.io -->
<svg version="1.1" xmlns="http://www.w3.org/2000/svg" width="256" height="256" viewBox="0 0 256 256">
<title>right-end</title>
<path fill="#333" d="M62.39 47.63l-9.482 9.482c-4.741 3.792-5.689 9.481-2.844 14.222 18.015 19.911 36.030 38.874 54.993 56.889-18.963 18.015-36.978 36.978-54.992 56.889-2.845 4.741-1.896 11.378 2.845 14.222l9.481 9.482c3.793 3.792 9.481 4.741 14.222 1.896 25.6-22.756 51.2-48.356 76.8-76.8 0.948-1.896 1.896-3.792 1.896-5.689s0-4.741-1.896-5.689c-23.704-27.496-50.252-53.096-76.8-76.8-4.741-3.792-11.378-2.844-14.222 1.896z"></path>
<path fill="#333" d="M172.375 61.852v134.637c0.948 8.533 9.482 16.119 18.963 16.119 8.533-0.948 15.17-7.585 16.119-16.119v-134.637c0.948-8.533-6.637-17.067-16.119-18.015s-18.015 6.637-18.963 16.119c0 0 0 0.948 0 1.896z"></path>
</svg>
