<!-- Generated by IcoMoon.io -->
<svg version="1.1" xmlns="http://www.w3.org/2000/svg" width="256" height="256" viewBox="0 0 256 256">
<title>sketch</title>
<path fill="#333" d="M224.577 98.177c0.011-0.073 0.018-0.157 0.018-0.242s-0.007-0.17-0.020-0.251l0.001 0.009-37.173-52.93c-0.729-0.985-1.886-1.617-3.192-1.617-0.014 0-0.029 0-0.042 0h0.002l-56.567-4.040-56.567 4.040c-1.022 0.074-1.926 0.523-2.585 1.211l-0.001 0.002-37.010 53.011v0.646c-0.235 0.497-0.372 1.080-0.372 1.695 0 0.988 0.355 1.892 0.943 2.595l-0.005-0.006 92.931 113.133c0.746 0.896 1.863 1.463 3.111 1.463s2.364-0.566 3.106-1.456l0.005-0.006 92.931-113.133c0.524-0.674 0.839-1.533 0.839-2.466 0-0.6-0.131-1.169-0.365-1.68l0.011 0.025zM166.476 111.834l-38.87 90.749-38.87-90.749zM167.284 95.672h-79.355l39.677-46.304zM74.433 95.672h-22.222l18.182-26.263zM180.779 95.672l4.040-26.263 18.182 26.263z"></path>
</svg>
