<!-- Generated by IcoMoon.io -->
<svg version="1.1" xmlns="http://www.w3.org/2000/svg" width="256" height="256" viewBox="0 0 256 256">
<title>succession</title>
<path fill="#333" d="M166.585 67.588c0 21.095-17.101 38.196-38.196 38.196s-38.196-17.101-38.196-38.196c0-21.095 17.101-38.196 38.196-38.196s38.196 17.101 38.196 38.196z"></path>
<path fill="#333" d="M199.325 152.554c-7.015-22.606-26.503-39.755-49.109-39.755h-43.652c-22.606 0-42.094 16.369-49.109 38.975-16.37 4.677-28.062 18.708-28.062 36.637 0 21.047 17.149 38.196 38.196 38.196s38.196-17.149 38.196-38.196c0-16.369-10.913-30.401-25.724-35.858 5.457-10.134 15.59-16.369 26.503-16.369h43.652c10.913 0 21.047 6.236 26.503 16.369-14.811 4.677-26.503 19.488-26.503 35.858 0 21.047 17.149 38.196 38.196 38.196s38.196-17.149 38.196-38.196c0-16.369-11.692-30.401-27.283-35.858z"></path>
</svg>
