<!-- Generated by IcoMoon.io -->
<svg version="1.1" xmlns="http://www.w3.org/2000/svg" width="256" height="256" viewBox="0 0 256 256">
<title>team</title>
<path fill="#333" d="M191.262 179.293c-5.984-22.227-33.34-38.47-65.826-38.47-31.631 0-59.842 15.388-65.826 38.47-1.71 5.13 2.565 10.259 7.694 10.259 37.615 1.71 77.795 1.71 115.41 0 5.984 0 10.259-5.13 8.549-10.259z"></path>
<path fill="#333" d="M163.050 95.514c0 19.358-15.692 35.050-35.050 35.050s-35.050-15.692-35.050-35.050c0-19.358 15.692-35.050 35.050-35.050s35.050 15.693 35.050 35.050z"></path>
<path fill="#333" d="M83.546 98.079c0 12.748-10.335 23.082-23.082 23.082s-23.082-10.335-23.082-23.082c0-12.748 10.334-23.082 23.082-23.082s23.082 10.335 23.082 23.082z"></path>
<path fill="#333" d="M18.574 146.808c7.694-11.113 23.082-18.808 41.889-18.808 7.694 0 15.388 1.71 21.372 3.419 3.419 0.855 3.419 5.984 0 6.839-9.404 4.274-20.517 11.113-29.921 21.372-0.855 0.855-1.71 1.71-2.565 1.71-7.694 0-15.388 0-23.082 0-6.839 0-11.113-7.694-7.694-14.533z"></path>
<path fill="#333" d="M219.473 98.079c0 12.748-10.334 23.082-23.082 23.082s-23.082-10.335-23.082-23.082c0-12.748 10.334-23.082 23.082-23.082s23.082 10.335 23.082 23.082z"></path>
<path fill="#333" d="M237.426 146.808c-7.694-11.113-23.082-18.808-41.889-18.808-7.694 0-15.388 1.71-21.372 3.419-3.419 0.855-3.419 5.984 0 6.839 9.404 4.274 20.517 11.113 29.921 21.372 0.855 0.855 1.71 1.71 2.565 1.71 7.694 0 15.388 0 23.082 0s11.968-7.694 7.694-14.533z"></path>
</svg>
