<!-- Generated by IcoMoon.io -->
<svg version="1.1" xmlns="http://www.w3.org/2000/svg" width="256" height="256" viewBox="0 0 256 256">
<title>trash</title>
<path fill="#333" d="M187.19 47.589h-21.733l-1.534-5.881c-1.279-5.369-5.881-9.204-11.506-9.46-27.869-1.79-21.988-1.79-49.858 0-5.369 0.256-10.227 4.347-11.505 9.46l-1.534 5.881h-20.71c-6.903 0-12.784 5.625-12.784 12.784s5.625 12.784 12.784 12.784h118.38c6.903 0 12.784-5.625 12.784-12.784s-5.881-12.784-12.784-12.784z"></path>
<path fill="#333" d="M65.486 103.327c2.813 36.818 7.671 73.636 14.318 109.943 1.023 5.625 5.881 9.971 11.505 10.483 24.29 1.79 48.835 1.79 73.38 0 5.881-0.511 10.483-4.858 11.506-10.483 6.648-36.307 11.25-72.869 14.063-109.687 0.511-7.415-5.369-13.551-12.784-13.551h-99.204c-7.415-0.256-13.295 5.881-12.784 13.295z"></path>
</svg>
