<!-- Generated by IcoMoon.io -->
<svg version="1.1" xmlns="http://www.w3.org/2000/svg" width="256" height="256" viewBox="0 0 256 256">
<title>analytics</title>
<path fill="#333" d="M75.457 127.872h-24.29c-6.648 0-12.273 5.369-12.273 12.273v72.869c0 6.648 5.369 12.273 12.273 12.273h24.29c6.648 0 12.273-5.369 12.273-12.273v-73.125c-0.256-6.648-5.625-12.017-12.273-12.017z"></path>
<path fill="#333" d="M204.832 71.111h-24.29c-6.648 0-12.017 5.369-12.017 12.273v129.63c0 6.648 5.369 12.273 12.017 12.273h24.29c6.648 0 12.273-5.369 12.273-12.273v-129.63c0-6.903-5.369-12.273-12.273-12.273z"></path>
<path fill="#333" d="M140.144 30.713h-24.29c-6.648 0-12.273 5.369-12.273 12.017v170.028c0 6.648 5.369 12.273 12.273 12.273h24.29c6.648 0 12.273-5.369 12.273-12.273v-170.028c0-6.648-5.625-12.017-12.273-12.017z"></path>
</svg>
