<!-- Generated by IcoMoon.io -->
<svg version="1.1" xmlns="http://www.w3.org/2000/svg" width="256" height="256" viewBox="0 0 256 256">
<title>angle-up</title>
<path fill="#333" d="M43.114 169.932l9.716 9.716c4.858 4.858 11.506 6.136 15.085 2.813 20.71-18.665 40.909-38.096 60.085-58.295 19.176 20.199 39.119 39.63 60.085 58.295 3.579 3.324 10.227 2.045 15.085-2.813l9.716-9.716c4.858-4.858 6.136-11.506 2.813-15.085-25.568-28.636-52.67-55.738-81.306-81.306-1.534-1.534-3.835-2.045-6.392-1.79-2.557-0.256-4.858 0.256-6.392 1.79-28.636 25.568-55.738 52.67-81.306 81.306-3.324 3.579-2.045 10.227 2.813 15.085z"></path>
</svg>
