<!-- Generated by IcoMoon.io -->
<svg version="1.1" xmlns="http://www.w3.org/2000/svg" width="256" height="256" viewBox="0 0 256 256">
<title>angle-left</title>
<path fill="#333" d="M161.185 209.541l9.482-9.482c4.741-3.792 5.689-9.482 2.845-14.222-18.015-19.911-36.030-38.874-54.993-56.889 18.963-18.015 36.978-36.978 54.993-56.889 2.845-4.741 1.896-11.378-2.845-14.222l-9.482-9.481c-3.792-3.792-9.482-4.741-14.222-1.896-27.496 24.652-53.096 50.252-76.8 76.8-0.948 1.896-1.896 3.793-1.896 5.689s0 4.741 1.896 5.689c23.704 27.496 50.252 53.096 76.8 76.8 4.741 3.792 11.378 2.845 14.222-1.896z"></path>
</svg>
