<!-- Generated by IcoMoon.io -->
<svg version="1.1" xmlns="http://www.w3.org/2000/svg" width="256" height="256" viewBox="0 0 256 256">
<title>application</title>
<path fill="#333" d="M207.998 42.013c0-6.225-5.447-11.672-12.451-11.672h-135.4c-6.225 0-12.451 5.447-12.451 11.672-1.556 33.461-1.556 66.922-1.556 100.382 0 24.123 0 48.246 1.556 71.591 0 6.226 5.447 11.672 12.451 11.672v0h135.4c6.226 0 11.672-5.447 12.451-11.672 0.778-24.123 1.556-48.246 1.556-71.591 0.778-33.461 0-66.922-1.556-100.382zM155.861 61.468c7.782 0 14.785 6.225 14.785 14.785s-6.226 14.785-14.785 14.785c-7.782 0-14.785-6.225-14.785-14.785s6.226-14.785 14.785-14.785zM127.069 112.048c2.335-9.338 14.785-16.341 28.792-16.341s25.679 7.003 28.792 16.341c0.778 2.335-0.778 4.669-3.112 4.669-16.341 0.778-34.239 0.778-50.581 0-3.112 0-4.669-2.335-3.891-4.669zM81.158 82.478h26.457c3.112 0 6.225 3.112 6.225 6.225s-3.112 6.225-6.225 6.225h-26.457c-3.112 0-6.225-3.112-6.225-6.225 0-3.891 3.112-6.225 6.225-6.225zM81.936 104.266h24.901c3.891 0 7.003 3.112 7.003 6.225s-3.112 6.225-7.003 6.225h-24.901c-3.891 0-7.003-3.112-7.003-6.225s3.112-6.225 7.003-6.225zM180.763 168.853h-100.382c-3.891 0-7.003-3.112-7.003-7.003s3.112-7.003 7.003-7.003h100.382c3.891 0 7.003 3.112 7.003 7.003s-3.112 7.003-7.003 7.003zM181.541 147.065h-101.161c-3.891 0-7.003-3.112-7.003-7.003s3.112-7.003 7.003-7.003h100.382c3.891 0 7.003 3.112 7.003 7.003s-3.112 7.003-6.226 7.003z"></path>
</svg>
