<!-- Generated by IcoMoon.io -->
<svg version="1.1" xmlns="http://www.w3.org/2000/svg" width="256" height="256" viewBox="0 0 256 256">
<title>application</title>
<path fill="#333" d="M208.157 42.043c0-6.226-5.447-11.674-12.452-11.674h-135.411c-7.004-0.778-12.451 4.67-12.451 11.674-1.556 33.464-1.556 66.928-1.556 100.391 0 24.125 0 48.25 1.556 71.597 0 6.226 5.447 11.673 12.451 11.673v0h135.411c6.226 0 11.673-5.447 12.452-11.673 0.778-24.125 1.556-48.25 1.556-71.597 0-33.464-0.778-66.928-1.556-100.391zM127.999 61.499c14.008 0 25.681 11.674 25.681 25.681s-11.673 25.681-25.681 25.681c-14.008 0-25.681-11.674-25.681-25.681s11.674-25.681 25.681-25.681zM77.415 150.995c4.67-17.121 25.681-29.573 50.585-29.573s45.916 12.452 50.584 29.573c0.778 3.891-2.334 7.782-6.226 7.782-29.573 0.778-59.924 0.778-89.496 0-3.891 0-6.226-3.891-5.448-7.782zM179.363 187.571c0 4.67-3.891 8.561-8.561 8.561h-85.605c-4.67 0-8.561-3.891-8.561-8.561v-1.556c0-4.67 3.891-8.561 8.561-8.561h85.605c4.67 0 8.561 3.891 8.561 8.561v1.556z"></path>
</svg>
