<!-- Generated by IcoMoon.io -->
<svg version="1.1" xmlns="http://www.w3.org/2000/svg" width="256" height="256" viewBox="0 0 256 256">
<title>application-o</title>
<path fill="#333" d="M211.058 16.953h-166.115c-9.33 0-17.067 7.737-17.067 17.067v187.961c0 9.33 7.737 17.067 17.067 17.067h166.115c9.33 0 17.067-7.737 17.067-17.067v-187.961c0-9.33-7.509-17.067-17.067-17.067zM212.196 221.98c0 0.683-0.455 1.138-1.138 1.138h-166.115c-0.683 0-1.138-0.455-1.138-1.138v-187.961c0-0.683 0.455-1.138 1.138-1.138h166.115c0.683 0 1.138 0.455 1.138 1.138v187.961z"></path>
<path fill="#333" d="M79.303 125.041h37.319c9.33 0 17.067-7.737 17.067-17.067v-36.409c0-9.33-7.737-17.067-17.067-17.067h-37.319c-9.33 0-17.067 7.737-17.067 17.067v36.409c0 9.33 7.737 17.067 17.067 17.067zM78.165 71.338c0-0.683 0.455-1.138 1.138-1.138h37.319c0.683 0 1.138 0.455 1.138 1.138v36.409c0 0.683-0.455 1.138-1.138 1.138h-37.319c-0.683 0-1.138-0.455-1.138-1.138v-36.409z"></path>
<path fill="#333" d="M157.582 79.758h32.541c4.323 0 7.964-3.641 7.964-7.965s-3.641-7.965-7.964-7.965h-32.541c-4.323 0-7.964 3.641-7.964 7.965s3.641 7.965 7.964 7.965z"></path>
<path fill="#333" d="M191.488 145.066h-121.515c-4.323 0-7.965 3.641-7.965 7.964s3.641 7.964 7.965 7.964h121.515c4.323 0 7.964-3.641 7.964-7.964s-3.641-7.964-7.964-7.964z"></path>
<path fill="#333" d="M191.488 185.571h-121.515c-4.323 0-7.965 3.641-7.965 7.964s3.641 7.964 7.965 7.964h121.515c4.323 0 7.964-3.641 7.964-7.964s-3.641-7.964-7.964-7.964z"></path>
<path fill="#333" d="M157.582 120.263h32.541c4.323 0 7.964-3.641 7.964-7.965s-3.641-7.965-7.964-7.965h-32.541c-4.323 0-7.964 3.641-7.964 7.965s3.641 7.965 7.964 7.965z"></path>
</svg>
