<!-- Generated by IcoMoon.io -->
<svg version="1.1" xmlns="http://www.w3.org/2000/svg" width="256" height="256" viewBox="0 0 256 256">
<title>beta-o</title>
<path fill="#333" d="M150.073 110.023c8.419-1.82 15.929-9.33 15.929-20.935 0-12.743-9.33-23.211-25.941-23.211h-44.828v91.022h45.966c17.067 0 26.397-10.468 26.397-24.576 0.227-10.923-7.737-20.707-17.522-22.3zM111.161 79.986h25.486c8.192 0 12.743 5.006 12.743 11.833s-4.551 11.833-12.743 11.833h-25.486v-23.666zM137.558 143.018h-26.397v-25.259h26.169c9.102 0 13.881 5.689 13.881 12.516 0.227 7.964-5.006 12.743-13.653 12.743z"></path>
<path fill="#333" d="M128 16.498c-60.985 0-110.592 43.008-110.592 95.801 0 28.217 14.108 54.613 38.684 72.818v54.386l50.972-33.223c7.054 1.138 14.108 1.821 20.935 1.821 60.985 0 110.592-43.008 110.592-95.801s-49.607-95.801-110.592-95.801zM128 192.171c-7.054 0-14.108-0.683-21.163-2.048l-3.186-0.683-31.63 20.48v-33.223l-3.413-2.275c-22.528-15.246-35.271-38.002-35.271-62.123 0-43.918 42.553-79.872 94.663-79.872 52.338 0 94.663 35.726 94.663 79.872s-42.325 79.872-94.663 79.872z"></path>
</svg>
