<!-- Generated by IcoMoon.io -->
<svg version="1.1" xmlns="http://www.w3.org/2000/svg" width="256" height="256" viewBox="0 0 256 256">
<title>bullhorn-o</title>
<path fill="#333" d="M233.131 98.392c0-24.121-17.522-43.918-40.277-47.104v-13.653c0-1.138-0.227-11.378-7.509-17.067-3.186-2.503-8.875-4.779-17.294-2.276l-127.204 37.319c-6.599 2.276-17.977 10.467-17.977 26.396v31.403c0 15.929 11.15 24.121 17.977 26.396l16.157 4.779 28.217 88.747c1.138 3.413 4.323 5.461 7.509 5.461 0.91 0 1.593-0.227 2.503-0.455 4.096-1.365 6.599-5.917 5.234-10.012l-25.031-78.507 92.615 27.307c2.503 0.683 4.779 0.91 6.827 0.91 4.779 0 8.192-1.593 10.468-3.413 7.509-5.689 7.509-15.929 7.509-16.839v-12.516c22.756-2.958 40.277-22.983 40.277-46.876zM177.152 157.784c0 1.593-0.683 3.869-1.365 4.323-0.227 0.227-1.365 0.227-3.186-0.227l-126.749-37.091c-0.91-0.228-7.054-2.958-7.054-11.15v-31.63c0-7.965 5.689-10.695 7.054-11.15l126.521-37.319c2.048-0.683 3.186-0.455 3.413-0.227 0.683 0.455 1.365 2.731 1.365 4.324v120.149zM193.081 129.339v-62.123c13.881 2.958 24.349 15.701 24.349 30.948s-10.695 28.217-24.349 31.175z"></path>
</svg>
