<!-- Generated by IcoMoon.io -->
<svg version="1.1" xmlns="http://www.w3.org/2000/svg" width="256" height="256" viewBox="0 0 256 256">
<title>clock</title>
<path fill="#333" d="M128 32.236c-52.633 0-95.763 43.13-95.763 95.763s43.13 95.763 95.763 95.763 95.763-43.13 95.763-95.763c0-52.633-43.13-95.763-95.763-95.763zM176.978 119.959l-44.592 27.047c-5.848 3.655-13.159 1.462-16.814-3.655-1.462-2.194-1.462-4.386-1.462-6.579 0 0 0 0 0 0v-72.371c0-6.579 5.117-11.696 11.696-11.696s11.696 5.117 11.696 11.696v51.171l26.316-16.082c5.848-3.655 13.159-1.462 16.814 3.655v0c3.655 5.848 1.462 13.159-3.655 16.814z"></path>
</svg>
