<!-- Generated by IcoMoon.io -->
<svg version="1.1" xmlns="http://www.w3.org/2000/svg" width="256" height="256" viewBox="0 0 256 256">
<title>close-circle-o</title>
<path fill="#333" d="M127.772 17.522c-60.757 0-110.365 49.38-110.365 110.365s49.607 110.592 110.592 110.592 110.592-49.607 110.592-110.592c-0.227-60.985-49.835-110.365-110.82-110.365zM127.772 222.549c-52.11 0-94.436-42.553-94.436-94.663s42.325-94.436 94.436-94.436c52.11 0 94.663 42.325 94.663 94.663s-42.553 94.435-94.663 94.435z"></path>
<path fill="#333" d="M166.002 89.657c-3.186-3.186-8.192-3.186-11.15 0l-27.079 27.079-26.852-27.079c-3.186-3.186-8.192-3.186-11.15 0-3.186 3.186-3.186 8.192 0 11.15l27.079 26.852-27.307 27.307c-3.186 3.186-3.186 8.192 0 11.15 1.593 1.593 3.641 2.275 5.689 2.275s4.096-0.683 5.689-2.275l26.852-26.851 27.079 26.851c1.593 1.593 3.641 2.275 5.689 2.275s4.096-0.683 5.689-2.275c3.186-3.186 3.186-8.192 0-11.15l-27.079-27.079 27.079-26.852c2.958-3.186 2.958-8.192-0.227-11.378z"></path>
</svg>
