<!-- Generated by IcoMoon.io -->
<svg version="1.1" xmlns="http://www.w3.org/2000/svg" width="256" height="256" viewBox="0 0 256 256">
<title>copy</title>
<path fill="#333" d="M210.060 41.196c-0.256-5.369-4.602-9.716-9.971-9.716h-109.943c-5.369 0-9.716 4.347-9.972 9.716 0 2.813-0.256 5.625-0.256 8.438 0 1.279 1.023 4.602 7.415 4.602 7.926 0 83.352 0 88.721 0s13.040 4.602 13.551 19.176 1.279 83.863 1.023 97.67c-0.256 12.784-0.256 18.665 8.182 19.432h1.279c5.369 0 9.716-4.091 9.971-9.46 0.767-18.409 1.279-36.562 1.023-54.971 0.256-28.38 0-56.505-1.023-84.886z"></path>
<path fill="#333" d="M176.054 75.202c-0.256-5.369-4.602-9.716-9.971-9.716h-109.943c-5.369 0-9.716 4.347-9.971 9.716-1.023 28.38-1.534 56.505-1.279 84.886 0 18.409 0.256 36.562 1.023 54.971 0.256 5.369 4.602 9.46 9.971 9.46h110.454c5.369 0 9.716-4.091 9.971-9.46 0.767-18.409 1.279-36.562 1.023-54.971 0-28.381-0.256-56.761-1.279-84.886zM143.839 177.73h-65.71c-3.579 0-6.392-2.813-6.392-6.392s2.813-6.392 6.392-6.392h65.966c3.579 0 6.392 2.813 6.392 6.392s-3.068 6.392-6.648 6.392zM143.839 149.605h-65.71c-3.579 0-6.392-2.813-6.392-6.392s2.813-6.392 6.392-6.392h65.966c3.579 0 6.392 2.813 6.392 6.392s-3.068 6.392-6.648 6.392zM143.839 121.48h-65.71c-3.579 0-6.392-2.813-6.392-6.392s2.813-6.392 6.392-6.392h65.966c3.579 0 6.392 2.813 6.392 6.392s-3.068 6.392-6.648 6.392z"></path>
</svg>
