<!-- Generated by IcoMoon.io -->
<svg version="1.1" xmlns="http://www.w3.org/2000/svg" width="256" height="256" viewBox="0 0 256 256">
<title>employee</title>
<path fill="#333" d="M188.852 169.293c-3.579-13.551-20.199-23.011-39.631-23.011-19.176 0-35.795 9.46-39.63 23.011-0.767 3.068 1.534 5.881 4.602 6.136 22.755 0.767 46.789 0.767 69.801 0 3.068 0 5.625-3.068 4.858-6.136z"></path>
<path fill="#333" d="M223.88 74.435c-0.256-6.392-5.369-11.505-11.761-11.761-9.716-0.256-17.386-0.511-27.358-0.767v-10.739c0-6.648-5.369-12.273-12.273-12.273-6.648 0-12.017 5.369-12.017 12.273v10.483c-9.46 0-55.227 0-64.687 0v-10.483c0-6.648-5.369-12.273-12.273-12.273s-12.273 5.369-12.273 12.273v10.739c-9.716 0.256-17.386 0.511-27.358 0.767-6.392 0.256-11.505 5.369-11.761 11.761-2.045 43.721-2.045 85.653 0 129.374 0.256 6.392 5.369 11.506 11.761 11.761 27.614 1.023 57.017 1.534 84.374 1.534s56.505-0.511 83.863-1.534c6.392-0.256 11.506-5.369 11.761-11.761 2.045-43.721 2.045-85.397 0-129.374zM200.357 184.378c-0.256 4.091-3.579 7.671-7.926 7.671-20.71 0.511-43.721 0.767-64.176 0.767-20.71 0-43.466-0.256-64.176-0.767-4.347 0-7.67-3.579-7.926-7.671-0.511-18.665-0.767-37.585-0.511-56.505 0-4.347 3.58-7.926 8.182-7.926h51.647c-0.767-3.068-1.278-6.392-1.278-9.716-0.511-20.199 15.852-36.307 36.051-36.307s36.307 16.364 36.307 36.307c0 3.324-0.511 6.648-1.279 9.716h7.671c4.347 0 8.182 3.579 8.182 7.926 0 18.665 0 37.585-0.767 56.505z"></path>
<path fill="#333" d="M175.045 109.463c0 13.556-10.989 24.545-24.545 24.545s-24.545-10.989-24.545-24.545c0-13.556 10.989-24.545 24.545-24.545s24.545 10.989 24.545 24.545z"></path>
</svg>
