<!-- Generated by IcoMoon.io -->
<svg version="1.1" xmlns="http://www.w3.org/2000/svg" width="256" height="256" viewBox="0 0 256 256">
<title>error</title>
<path fill="#333" d="M226.097 205.388v0l-45.729-88.508-41.304-79.657v-0.737c-2.213-5.163-7.375-8.114-13.276-8.114s-10.326 2.951-13.276 8.114l-0.737 0.737-39.091 81.871-42.041 85.558-0.737 0.737c-2.212 5.163-2.951 10.326 0 15.489 2.951 4.425 8.114 7.375 13.277 6.638h169.641c5.9 0 10.326-2.213 13.276-6.638 2.951-5.163 2.213-10.326 0-15.489zM125.788 199.488c-8.114 0-14.751-6.638-14.751-14.751s6.638-14.751 14.751-14.751c8.114 0 14.751 6.638 14.751 14.751s-6.638 14.751-14.751 14.751zM140.539 144.17c0 8.114-6.638 15.489-15.489 15.489s-15.489-6.638-15.489-15.489v-45.729c0-8.114 6.638-15.489 15.489-15.489s15.489 6.638 15.489 15.489v45.729z"></path>
</svg>
