<!-- Generated by IcoMoon.io -->
<svg version="1.1" xmlns="http://www.w3.org/2000/svg" width="256" height="256" viewBox="0 0 256 256">
<title>feedback-o</title>
<path fill="#333" d="M127.772 16.27c-61.212 0-111.047 42.553-111.047 94.891 0 28.672 14.563 55.069 40.277 73.045v55.524l46.421-36.181c7.965 1.593 16.156 2.275 24.576 2.275 61.213 0 111.275-42.553 111.275-94.891s-50.062-94.663-111.502-94.663zM127.772 190.35c-8.419 0-16.839-0.91-24.803-2.731l-3.641-0.91-26.624 20.708v-31.63l-3.641-2.275c-23.211-15.246-36.409-37.774-36.409-62.35 0-43.691 42.78-78.962 95.346-78.962s95.118 35.499 95.118 78.962c0 43.691-42.781 79.189-95.346 79.189z"></path>
<path fill="#333" d="M171.235 83.399h-91.25c-4.323 0-7.965 3.641-7.965 7.965s3.641 7.965 7.965 7.965h91.25c4.323 0 7.964-3.641 7.964-7.965s-3.641-7.965-7.964-7.965z"></path>
<path fill="#333" d="M171.235 126.635h-91.25c-4.323 0-7.965 3.641-7.965 7.964s3.641 7.964 7.965 7.964h91.25c4.323 0 7.964-3.641 7.964-7.964s-3.641-7.965-7.964-7.965z"></path>
</svg>
