<!-- Generated by IcoMoon.io -->
<svg version="1.1" xmlns="http://www.w3.org/2000/svg" width="256" height="256" viewBox="0 0 256 256">
<title>help</title>
<path fill="#333" d="M202.962 52.94c-19.211-19.211-48.72-20.399-75.061-20.399s-55.85 1.188-75.061 20.399-20.399 48.72-20.399 75.060 1.188 55.85 20.399 75.060c19.211 19.211 48.72 20.399 75.061 20.399s55.85-1.189 75.061-20.399c19.211-19.211 20.597-48.522 20.597-75.061s-1.386-55.85-20.597-75.061zM130.278 180.483c-5.347 0-9.704-4.357-9.704-9.704s4.357-9.704 9.704-9.704c5.347 0 9.704 4.357 9.704 9.704s-4.357 9.704-9.704 9.704zM147.904 123.841c-11.685 8.714-11.289 17.032-11.289 17.428 0.396 3.961-2.575 7.526-6.734 7.922-0.198 0-0.594 0-0.792 0-3.961 0-7.13-2.773-7.724-6.536-0.792-6.139 2.179-19.409 17.23-30.499 6.536-4.753 7.724-10.893 6.734-15.052-0.594-2.179-2.376-5.941-7.922-7.13-12.477-2.377-22.578 5.545-22.775 5.743-3.169 2.575-8.12 2.179-10.695-0.792-2.773-2.971-2.376-7.724 0.792-10.299 0.594-0.594 15.646-12.675 35.649-8.912 10.101 1.782 17.626 8.516 20.003 18.022 2.376 11.091-2.179 22.578-12.477 30.103z"></path>
</svg>
