<!-- Generated by IcoMoon.io -->
<svg version="1.1" xmlns="http://www.w3.org/2000/svg" width="256" height="256" viewBox="0 0 256 256">
<title>help-pointer</title>
<path fill="#333" d="M220.059 122.76c0-25.519-1.097-53.781-19.756-72.44-18.385-18.384-46.921-19.482-72.166-19.482s-54.055 1.098-72.44 19.756c-18.385 18.385-19.756 46.921-19.756 72.44s1.097 53.781 19.756 72.44c13.171 13.171 31.555 17.561 50.214 18.933 7.134 14.817 13.994 25.244 21.677 24.97 6.311-0.274 14.817-12.073 22.5-24.97 18.659-1.372 37.043-5.762 50.214-18.933 18.659-18.659 19.756-47.196 19.756-72.714zM105.637 81.327c0.549-0.549 15.092-12.073 34.299-8.506 9.604 1.921 17.012 8.232 19.208 17.287 2.744 10.427-1.921 21.403-11.799 28.811-11.25 8.232-10.976 16.464-10.976 16.738 0.549 3.841-2.47 7.134-6.585 7.683-0.274 0-0.549 0-0.823 0-3.841 0-6.86-2.744-7.409-6.311-0.823-5.762 1.921-18.659 16.464-29.36 6.311-4.665 7.409-10.427 6.585-14.543-0.549-2.195-2.195-5.762-7.683-6.86-12.073-2.195-21.951 5.488-21.951 5.488-3.018 2.469-7.683 2.195-10.427-0.823-2.469-2.744-2.195-7.134 1.097-9.604zM121.003 164.194c0-5.214 4.116-9.329 9.329-9.329s9.329 4.116 9.329 9.329c0 5.214-4.116 9.329-9.329 9.329s-9.329-4.391-9.329-9.329z"></path>
</svg>
