<!-- Generated by IcoMoon.io -->
<svg version="1.1" xmlns="http://www.w3.org/2000/svg" width="256" height="256" viewBox="0 0 256 256">
<title>info-pointer</title>
<path fill="#333" d="M200.563 50.595c-18.385-18.384-46.921-19.756-72.44-19.756s-53.781 1.098-72.44 19.756c-18.385 18.384-19.756 46.921-19.756 72.44s1.097 53.781 19.756 72.44c13.171 13.171 31.555 17.561 50.214 18.933 7.134 14.817 13.994 25.244 21.677 24.97 6.311-0.274 14.817-12.073 22.5-24.97 18.659-1.372 37.043-5.762 50.214-18.933 18.385-18.385 19.756-46.921 19.756-72.44 0.274-25.519-1.097-53.781-19.482-72.44zM138.001 164.194c0 4.391-3.567 7.958-7.958 7.958h-3.293c-4.391 0-7.957-3.567-7.957-7.958v-50.488c0-4.391 3.567-7.957 7.957-7.957h3.293c4.391 0 7.958 3.567 7.958 7.957v50.488zM128.123 91.754c-5.488 0-10.153-4.391-10.153-10.153 0-5.488 4.391-10.153 10.153-10.153 5.488 0 10.153 4.391 10.153 10.153s-4.391 10.153-10.153 10.153z"></path>
</svg>
