<!-- Generated by IcoMoon.io -->
<svg version="1.1" xmlns="http://www.w3.org/2000/svg" width="256" height="256" viewBox="0 0 256 256">
<title>info-pointer</title>
<path fill="#333" d="M203.326 52.674c-19.015-19.015-48.999-20.477-75.326-20.477s-55.581 1.462-75.326 20.477c-19.015 19.015-20.477 48.999-20.477 75.326s1.462 55.581 20.477 75.326c11.701 10.97 27.059 16.089 42.416 18.283 0 0 0 0 0 0 1.462 0 2.925 0 3.657 0.731 2.194 0 3.657 0.731 5.85 0.731 0 0 0 0 0 0 28.522 2.925 57.044-1.462 58.506-1.462v0c14.626-2.194 28.522-7.314 39.492-18.283 19.015-19.015 20.477-48.999 20.477-75.326 0.731-26.327-0.731-56.313-19.746-75.326zM128 65.106c8.776 0 16.089 7.314 16.089 16.089s-7.314 16.089-16.089 16.089c-8.776 0-16.089-7.314-16.089-16.089s7.314-16.089 16.089-16.089zM144.821 174.804c0 8.776-7.314 16.821-16.821 16.821s-16.82-7.314-16.82-16.821v-48.999c0-8.776 7.314-16.82 16.82-16.82s16.821 7.314 16.821 16.82v48.999z"></path>
</svg>
