<!-- Generated by IcoMoon.io -->
<svg version="1.1" xmlns="http://www.w3.org/2000/svg" width="256" height="256" viewBox="0 0 256 256">
<title>info</title>
<path fill="#333" d="M127.963 28.455c-54.925 0.042-99.434 44.578-99.434 99.508 0 54.957 44.551 99.508 99.508 99.508 54.905 0 99.424-44.467 99.508-99.352v-0.008c0-0.044 0-0.096 0-0.148 0-54.957-44.551-99.508-99.508-99.508-0.026 0-0.052 0-0.078 0h0.004zM138.224 168.712c0.020 0.225 0.032 0.487 0.032 0.75 0 2.635-1.15 5.001-2.975 6.623l-0.009 0.008c-1.863 1.524-4.269 2.447-6.891 2.447-0.173 0-0.345-0.004-0.516-0.012l0.024 0.001c-0.124 0.005-0.271 0.008-0.417 0.008-2.645 0-5.075-0.922-6.986-2.461l0.022 0.017c-1.835-1.631-2.985-3.997-2.985-6.631 0-0.264 0.012-0.526 0.034-0.785l-0.002 0.033v-49.902c-0.023-0.236-0.036-0.509-0.036-0.785 0-2.639 1.184-5.002 3.050-6.587l0.012-0.010c1.898-1.522 4.336-2.443 6.99-2.443 0.138 0 0.275 0.002 0.412 0.007l-0.019-0.001c0.147-0.007 0.319-0.011 0.492-0.011 2.622 0 5.028 0.923 6.911 2.463l-0.019-0.016c1.835 1.618 2.988 3.975 2.988 6.6 0 0.275-0.012 0.547-0.037 0.817l0.002-0.034zM136.6 95.483c-2.116 1.761-4.863 2.829-7.859 2.829-0.274 0-0.545-0.009-0.814-0.026l0.037 0.002c-0.234 0.016-0.508 0.026-0.783 0.026-2.971 0-5.691-1.070-7.798-2.846l0.019 0.015c-1.954-1.776-3.177-4.328-3.177-7.166 0-0.076 0.001-0.152 0.002-0.228l-0 0.011c-0.002-0.065-0.002-0.14-0.002-0.216 0-2.838 1.222-5.389 3.168-7.159l0.008-0.007c2.111-1.716 4.831-2.755 7.794-2.755 0.271 0 0.539 0.009 0.806 0.026l-0.037-0.002c0.175-0.009 0.379-0.013 0.586-0.013 3.032 0 5.816 1.063 8 2.837l-0.023-0.019c1.954 1.727 3.181 4.238 3.181 7.037 0 0.121-0.002 0.242-0.007 0.362l0.001-0.017c0.001 0.051 0.002 0.11 0.002 0.17 0 2.792-1.192 5.305-3.095 7.058l-0.006 0.006z"></path>
</svg>
