<!-- Generated by IcoMoon.io -->
<svg version="1.1" xmlns="http://www.w3.org/2000/svg" width="256" height="256" viewBox="0 0 256 256">
<title>knowledge-portal</title>
<path fill="#333" d="M91.566 30.97c-15.852 0-28.892 13.040-28.892 29.148 0 1.79 0.256 3.58 0.511 5.369-0.256 0-0.511 0-0.767 0-17.386 0-31.449 17.131-31.449 38.352 0 6.648 1.534 13.040 3.835 18.409 7.926-7.415 18.665-11.761 29.915-11.761 4.858 0 9.46 0.767 14.063 2.301 2.813-7.159 8.949-12.784 16.619-15.085 2.813-0.767 5.881 0.767 6.648 3.324 0.767 2.813-0.767 5.625-3.579 6.392-4.858 1.534-8.693 5.114-10.227 9.972-1.79 5.625 0.256 11.761 5.114 15.596 2.301 1.79 2.557 5.113 0.767 7.159-1.023 1.279-2.557 1.79-4.091 1.79-1.278 0-2.301-0.256-3.324-1.279-5.881-4.602-9.204-10.994-9.46-17.898-3.835-1.534-7.926-2.301-12.273-2.301-9.46 0-18.153 4.091-24.29 10.739 0 0 0 0 0 0-2.045 2.301-3.835 4.858-5.114 7.415-0.256 0.511-0.511 1.023-0.767 1.79 0 0 0 0 0 0-1.79 4.091-2.813 8.693-2.813 13.295 0 13.807 8.182 25.568 20.199 31.193 2.045-6.903 8.182-20.199 25.568-27.102 2.813-1.023 5.881 0.256 6.903 2.813s-0.256 5.625-2.813 6.648c-13.807 5.369-18.153 15.852-19.432 20.71v0c-0.256 2.045-0.511 4.091-0.511 6.136 0 17.131 13.040 30.937 29.147 30.937 15.852 0 29.148-11.25 29.403-27.869v0-138.834c0 0 0-0.256 0-0.256-0.256-16.363-13.040-27.102-28.892-27.102z"></path>
<path fill="#333" d="M221.196 140.401c-0.256-0.511-0.511-1.023-0.767-1.79-1.279-2.813-3.068-5.369-5.113-7.415 0 0 0 0 0 0-6.136-6.648-14.829-10.739-24.29-10.739-4.347 0-8.438 0.767-12.273 2.301-0.511 6.903-3.835 13.295-9.46 17.898-1.023 0.767-2.301 1.279-3.324 1.279-1.534 0-3.068-0.767-4.091-1.79-1.79-2.301-1.534-5.369 0.767-7.159 4.858-3.835 6.903-9.716 5.113-15.597-1.534-4.858-5.369-8.438-10.227-9.972-2.813-0.767-4.347-3.835-3.579-6.392 0.767-2.813 3.835-4.347 6.648-3.324 7.671 2.301 13.807 7.926 16.619 15.085 4.602-1.534 9.204-2.301 14.063-2.301 11.506 0 21.988 4.347 29.915 11.761 2.557-5.369 3.835-11.761 3.835-18.409 0-21.221-14.063-38.352-31.449-38.352-0.256 0-0.511 0-0.767 0 0.256-1.79 0.511-3.58 0.511-5.369 0-16.108-12.784-29.148-28.892-29.148s-28.892 10.739-28.892 26.846c0 0 0 0.256 0 0.256v139.090c0.511 16.619 13.807 27.869 29.403 27.869 16.108 0 29.148-13.807 29.148-30.937 0-2.045-0.256-4.091-0.511-6.136v0c-1.279-4.602-5.625-15.341-19.432-20.71-2.813-1.023-4.091-4.091-2.813-6.648 1.023-2.557 4.347-3.835 6.903-2.813 17.386 6.903 23.523 20.199 25.568 27.102 12.017-5.625 20.199-17.642 20.199-31.193 0-4.602-1.023-8.949-2.813-13.295 0 0 0 0 0 0z"></path>
</svg>
