<!-- Generated by IcoMoon.io -->
<svg version="1.1" xmlns="http://www.w3.org/2000/svg" width="256" height="256" viewBox="0 0 256 256">
<title>learning-o</title>
<path fill="#333" d="M231.316 74.899l-87.381-45.966c-7.737-4.096-19.57-4.323-27.534-0.683l-91.022 41.188c-5.689 2.503-8.875 6.827-9.102 12.061-0.227 5.006 2.731 9.557 8.192 12.288l20.48 10.695v70.542l1.821 2.275c0.91 1.138 21.845 25.259 70.77 27.307 0.228 0 0.228 0 0.455 0 4.323 0 7.737-3.413 7.965-7.509 0.228-4.323-3.186-8.192-7.509-8.419-34.133-1.593-51.883-14.791-57.344-19.797v-55.979l50.972 26.852c4.096 2.048 9.33 3.186 14.564 3.186 4.551 0 9.102-0.91 12.743-2.503l22.073-10.012v46.194c-11.15 3.641-19.115 13.881-19.115 26.169 0 15.246 12.743 27.534 28.217 27.534s28.217-12.288 28.217-27.534c0-4.779-1.138-9.102-3.413-12.971 11.833-6.827 19.57-15.701 19.797-16.156l2.048-2.275v-38.684c0-4.323-3.641-7.965-7.964-7.965s-7.964 3.641-7.964 7.965v32.541c-3.186 3.186-9.785 9.102-18.204 12.971-1.821-0.91-3.641-1.593-5.689-2.048v-53.020l53.248-24.121c5.689-2.503 8.875-6.827 9.102-12.061 0-4.779-3.186-9.33-8.419-12.061zM170.331 214.391c-6.827 0-12.288-5.234-12.288-11.605s5.461-11.605 12.288-11.605 12.288 5.234 12.288 11.605-5.461 11.605-12.288 11.605zM173.517 107.44l-43.236-27.307c-3.641-2.275-8.647-1.138-10.923 2.503s-1.138 8.647 2.503 10.923l34.361 21.845-23.666 10.695c-3.413 1.593-10.24 1.365-13.426-0.228l-82.83-43.691 86.699-39.367c3.413-1.593 10.24-1.365 13.426 0.227l83.058 43.463-45.966 20.935z"></path>
</svg>
