<!-- Generated by IcoMoon.io -->
<svg version="1.1" xmlns="http://www.w3.org/2000/svg" width="256" height="256" viewBox="0 0 256 256">
<title>left-end</title>
<path fill="#333" d="M194.173 209.061l9.563-9.563c4.781-3.825 5.738-9.563 2.869-14.345-18.169-20.082-36.339-39.208-55.465-57.377 19.126-18.169 37.295-37.295 55.465-57.377 2.869-4.781 1.912-11.475-2.869-14.344l-9.563-9.563c-3.825-3.825-9.563-4.781-14.345-1.913-25.82 22.951-51.639 48.77-77.459 77.459-0.956 1.912-1.912 3.825-1.912 5.737s0 4.781 1.912 5.737c23.907 27.732 50.683 53.552 77.459 77.459 4.781 3.825 11.476 2.869 14.345-1.912z"></path>
<path fill="#333" d="M83.245 195.673v-136.749c-0.956-8.606-9.563-16.257-19.126-16.257-8.606 1.913-15.3 8.606-16.257 16.257v135.793c-0.956 8.606 6.694 17.213 16.257 18.169s18.169-6.694 19.126-16.257c0 0 0 0 0-0.956z"></path>
</svg>
