<!-- Generated by IcoMoon.io -->
<svg version="1.1" xmlns="http://www.w3.org/2000/svg" width="256" height="256" viewBox="0 0 256 256">
<title>location</title>
<path fill="#333" d="M128.367 30.341c-35.98 0-65.351 29.371-65.351 65.351 0 27.169 35.98 93.254 54.337 124.093 3.672 5.874 11.014 7.343 16.889 4.406 1.468-0.734 2.937-2.202 4.406-4.406 18.357-30.84 54.337-97.659 54.337-124.093 0-35.98-28.637-65.351-64.617-65.351zM128.367 128c-17.623 0-32.309-14.686-32.309-32.309s14.686-32.309 32.309-32.309c17.623-0.734 32.309 13.951 32.309 32.309 0 0 0 0 0 0 0 17.623-14.686 32.309-32.309 32.309z"></path>
</svg>
