<!-- Generated by IcoMoon.io -->
<svg version="1.1" xmlns="http://www.w3.org/2000/svg" width="256" height="256" viewBox="0 0 256 256">
<title>meh</title>
<path fill="#333" d="M203.957 49.093c-19.174-19.174-49.409-20.648-75.957-20.648s-56.783 1.475-75.957 20.648c-19.911 19.911-20.648 49.409-20.648 75.957 0 0.737 0 4.425 0 5.162 0 26.548 1.475 56.784 20.648 75.957 19.174 19.911 49.409 21.386 75.957 21.386s56.783-1.475 75.957-20.648c19.174-19.174 20.648-49.409 20.648-75.957 0-0.737 0-4.425 0-5.162 0-27.285-0.737-56.784-20.648-76.695zM93.34 106.614c6.637 0 12.537 5.899 12.537 12.537s-5.899 12.536-12.537 12.536c-6.637 0-12.537-5.899-12.537-12.537s5.899-12.537 12.537-12.537zM172.247 183.309h-85.544c-2.95 0-5.899-2.213-5.899-5.899s2.213-5.899 5.899-5.899h86.281c2.95 0 5.899 2.213 5.899 5.899s-2.95 5.899-6.637 5.899zM167.085 131.687c-6.637 0-12.536-5.899-12.536-12.537s5.899-12.537 12.536-12.537c6.637 0 12.536 5.899 12.536 12.537s-5.899 12.537-12.536 12.537z"></path>
</svg>
