<!-- Generated by IcoMoon.io -->
<svg version="1.1" xmlns="http://www.w3.org/2000/svg" width="256" height="256" viewBox="0 0 256 256">
<title>money</title>
<path fill="#333" d="M216.101 98.222c0 0-29.758-2.35-87.709-1.566-62.649 0.783-88.492 3.916-88.492 3.916-5.482 0-10.181 5.482-10.181 11.747v69.697c0 6.265 4.699 11.747 10.181 11.747 0 0 29.758 2.35 87.709 1.566 61.866-0.783 88.492-3.132 88.492-3.132 5.482 0 10.18-5.482 10.18-11.747v-69.697c0-7.048-4.699-12.53-10.18-12.53zM92.368 145.992c0-18.795 12.53-34.457 28.975-37.59v5.482h-3.132c-2.35 0-4.699 0.783-6.265 2.35s-2.35 3.916-2.35 6.265v13.313c0 4.699 1.566 8.614 5.482 11.747 3.132 3.132 7.831 3.916 12.53 3.916 3.916 0 5.482 1.566 5.482 3.916v10.18h-11.747v-10.18h-11.747v13.313c0 2.35 0.783 4.699 2.35 6.265s3.916 2.35 6.265 2.35h3.132v5.482c-15.662-2.35-28.192-18.012-28.975-36.806zM134.656 183.582v-5.482h3.132c2.35 0 4.699-0.783 6.265-2.35s2.35-3.916 2.35-6.265v-13.313c0-4.699-1.566-8.614-5.482-11.747-3.132-3.132-7.831-3.916-12.53-3.916-3.916 0-5.482-1.566-5.482-3.916v-10.18h11.747v10.18h11.747v-13.313c0-2.35-0.783-4.699-2.35-6.265s-3.916-2.35-6.265-2.35h-3.132v-5.482c17.229 3.132 30.542 18.012 30.542 37.589-0.783 17.229-13.313 33.673-30.541 36.806z"></path>
<path fill="#333" d="M210.619 83.343l-173.069 7.831c0 0 132.346-32.891 154.274-30.541s18.795 22.71 18.795 22.71z"></path>
</svg>
