<!-- Generated by IcoMoon.io -->
<svg version="1.1" xmlns="http://www.w3.org/2000/svg" width="256" height="256" viewBox="0 0 256 256">
<title>new</title>
<path fill="#333" d="M158.266 44.904v29.915c0 0 0 0 0 0 0 1.278 1.023 2.557 2.557 2.557 0 0 0 0 0 0v0h29.659c1.023 0 3.324 0 6.137 0 0 0 0 0 0 0s0 0 0 0 0 0 0 0v0c1.279 0 2.301-1.023 2.301-2.557 0-0.767-0.256-1.278-0.767-1.79v0c-11.761-10.739-28.125-25.313-36.051-31.449-0.511-0.511-1.023-0.767-1.79-0.767-1.279 0-2.301 1.023-2.557 2.301 0 0 0 0 0 0s0 0 0 0v0 0 0c0.511 0.511 0.511 1.279 0.511 1.79z"></path>
<path fill="#333" d="M207.612 93.739h-53.437c-6.648 0-12.017-5.369-12.017-12.017v-36.562c0-6.392 0.256-10.994 0.511-14.318h-81.818c-6.648 0-12.017 5.114-12.273 11.761-2.045 57.017-2.045 114.034 0 170.794 0.256 6.648 5.625 11.761 12.273 11.761h134.488c6.392 0 11.761-5.113 12.273-11.506 1.79-40.142 1.79-80.028 0-119.914zM153.919 154.335h-17.898v17.898c0 4.347-3.579 7.926-7.926 7.926s-7.926-3.579-7.926-7.926v-17.898h-17.897c-4.347 0-7.926-3.579-7.926-7.926s3.579-7.926 7.926-7.926h17.898v-17.898c0-4.347 3.579-7.926 7.926-7.926s7.926 3.579 7.926 7.926v17.898h17.898c4.347 0 7.926 3.579 7.926 7.926s-3.579 7.926-7.926 7.926z"></path>
</svg>
