<!-- Generated by IcoMoon.io -->
<svg version="1.1" xmlns="http://www.w3.org/2000/svg" width="256" height="256" viewBox="0 0 256 256">
<title>orgchart-o</title>
<path fill="#333" d="M216.746 179.2v-35.499c0-2.048 0-11.378-6.599-18.432-2.958-3.186-8.647-7.054-17.977-7.054h-55.296v-41.415c13.198-3.413 22.983-15.474 22.983-29.582 0-16.839-13.881-30.72-30.72-30.72s-30.72 13.881-30.72 30.72c0 14.108 9.557 25.941 22.528 29.582v41.415h-56.661c-9.557 0-15.246 3.868-18.432 7.054-6.599 7.054-6.827 16.384-6.599 18.204v35.499c-13.198 3.413-22.756 15.474-22.756 29.582 0 16.839 13.881 30.72 30.72 30.72s30.72-13.881 30.72-30.72c0-14.108-9.557-26.169-22.755-29.582v-35.954c0 0 0-4.323 2.276-6.827 0.455-0.455 2.048-2.275 6.827-2.275h56.661v45.056c-13.198 3.413-22.755 15.474-22.755 29.582 0 16.839 13.881 30.72 30.72 30.72s30.72-13.881 30.72-30.72c0-14.108-9.785-26.169-22.756-29.582v-44.828h55.296c4.323 0 5.917 1.593 6.371 2.048 2.048 2.048 2.275 5.689 2.275 7.054v35.954c-12.971 3.413-22.756 15.474-22.756 29.582 0 16.839 13.881 30.72 30.72 30.72s30.72-13.881 30.72-30.72c0-14.108-9.785-26.169-22.756-29.582zM62.009 208.782c0 8.192-6.599 14.791-14.791 14.791s-14.791-6.599-14.791-14.791 6.599-14.791 14.791-14.791 14.791 6.599 14.791 14.791zM114.347 47.218c0-8.192 6.599-14.791 14.791-14.791s14.791 6.599 14.791 14.791-6.599 14.791-14.791 14.791c-8.192 0-14.791-6.599-14.791-14.791zM143.701 208.782c0 8.192-6.599 14.791-14.791 14.791s-14.791-6.599-14.791-14.791 6.599-14.791 14.791-14.791c8.192 0 14.791 6.599 14.791 14.791zM208.782 223.573c-8.192 0-14.791-6.599-14.791-14.791s6.599-14.791 14.791-14.791 14.791 6.599 14.791 14.791-6.599 14.791-14.791 14.791z"></path>
</svg>
