<!-- Generated by IcoMoon.io -->
<svg version="1.1" xmlns="http://www.w3.org/2000/svg" width="256" height="256" viewBox="0 0 256 256">
<title>plus</title>
<path fill="#333" d="M199.522 104.159c-15.405-0.733-30.809-0.733-46.947-1.467 0-14.671-0.733-29.342-0.733-44.013v-2.934c0.733-13.204-9.536-24.207-22.74-24.941s-24.207 9.536-24.941 22.741c0 0.733 0 1.467 0 2.934v0c-0.733 15.405-1.467 30.809-1.467 46.948-14.671 0-29.342 0.733-44.013 0.733h-2.934c-13.204-0.733-24.207 9.536-24.941 22.74s9.536 24.207 22.741 24.941c0.733 0 1.467 0 2.934 0v0c15.405 0.733 30.809 0.733 46.948 1.467 0 14.671 0.733 29.342 0.733 44.013v2.935c-0.733 13.204 9.536 24.207 22.74 24.941s24.207-9.536 24.941-22.74c0-0.733 0-1.467 0-2.934v-0.733c0.733-15.405 0.733-30.809 1.467-46.947 14.671 0 29.342-0.733 44.013-0.733h2.935c13.204 0.733 24.207-9.536 24.941-22.74s-9.536-24.207-22.74-24.941c-0.733 0.733-2.201 0.733-2.934 0.733v0z"></path>
</svg>
