<!-- Generated by IcoMoon.io -->
<svg version="1.1" xmlns="http://www.w3.org/2000/svg" width="256" height="256" viewBox="0 0 256 256">
<title>sad</title>
<path fill="#333" d="M203.957 49.093c-19.174-19.174-49.409-20.648-75.957-20.648s-56.783 1.475-75.957 20.648c-19.911 19.911-20.648 49.409-20.648 75.957 0 0.737 0 4.425 0 5.162 0 26.548 1.475 56.784 20.648 75.957 19.174 19.911 49.409 21.386 75.957 21.386s56.783-1.475 75.957-20.648c19.174-19.174 20.648-49.409 20.648-75.957 0-0.737 0-4.425 0-5.162 0-27.285-0.737-56.784-20.648-76.695zM74.166 86.702c1.475-2.95 13.274-8.85 22.123-4.425s12.537 16.224 11.062 19.174c-1.475 2.95-7.374-5.162-16.224-8.85s-18.436-3.687-16.962-5.899zM103.664 119.15c0 6.637-5.899 12.537-12.537 12.537s-12.537-5.899-12.537-12.537 5.899-12.537 12.537-12.537 12.537 5.899 12.537 12.537zM128 183.308c-27.285 0-49.409 16.224-49.409 5.899s22.124-42.772 49.409-42.772 49.409 32.447 49.409 42.772-22.124-5.899-49.409-5.899zM164.873 131.687c-6.637 0-12.536-5.899-12.536-12.537s5.899-12.537 12.536-12.537 12.536 5.899 12.536 12.537-5.899 12.537-12.536 12.537zM164.135 93.34c-8.85 4.425-14.749 11.799-16.224 8.85s2.213-14.749 11.062-19.174c8.85-4.425 21.386 0.737 22.124 3.687 1.475 2.95-8.112 2.213-16.962 6.637z"></path>
</svg>
