<!-- Generated by IcoMoon.io -->
<svg version="1.1" xmlns="http://www.w3.org/2000/svg" width="256" height="256" viewBox="0 0 256 256">
<title>salary-o</title>
<path fill="#333" d="M128 17.408c-60.985 0-110.592 49.607-110.592 110.592s49.607 110.592 110.592 110.592 110.592-49.607 110.592-110.592-49.607-110.592-110.592-110.592zM128 222.435c-52.11 0-94.663-42.325-94.663-94.436s42.325-94.663 94.663-94.663c52.11 0 94.663 42.325 94.663 94.663 0 52.11-42.553 94.436-94.663 94.436z"></path>
<path fill="#333" d="M121.856 97.507c6.144-2.958 19.57 2.275 27.307 6.827 3.869 2.275 8.647 0.91 10.923-2.731 2.275-3.868 0.91-8.647-2.731-10.923-1.593-0.91-10.012-5.689-20.025-8.192v-15.929c0-4.324-3.641-7.965-7.964-7.965s-7.965 3.641-7.965 7.965v14.564c-2.048 0.455-4.323 0.91-6.144 1.82-4.779 2.275-10.923 7.282-12.743 18.659-3.186 20.707 14.336 27.762 25.941 32.313 13.881 5.689 17.977 8.419 16.612 16.156-0.91 5.917-3.413 7.054-4.323 7.282-7.054 3.186-22.3-2.958-30.948-8.419-3.641-2.275-8.647-1.138-10.923 2.503s-1.138 8.647 2.503 10.923c1.593 0.91 9.785 6.144 19.797 9.102v17.294c0 4.323 3.641 7.964 7.964 7.964s7.964-3.641 7.964-7.964v-14.791c3.641-0.227 7.054-0.683 10.24-2.275 5.006-2.275 11.605-7.509 13.426-19.57 3.186-21.39-14.791-28.445-26.624-33.223-13.653-5.461-17.294-7.965-16.156-15.019 0.683-5.006 2.958-5.916 3.868-6.371z"></path>
</svg>
