<!-- Generated by IcoMoon.io -->
<svg version="1.1" xmlns="http://www.w3.org/2000/svg" width="256" height="256" viewBox="0 0 256 256">
<title>slack</title>
<path fill="#333" d="M136.978 110.888l8.578 25.644-26.578 8.889-8.578-25.644 26.578-8.889zM155.378 219.2c-68.445 20.533-98.044 4.622-118.578-63.822s-4.622-98.044 63.822-118.578c68.445-20.533 98.044-4.622 118.578 63.822s4.622 98.044-63.822 118.578zM191.2 132c-1.733-5.422-7.644-8.267-13.067-6.533l-12.889 4.311-8.578-25.644 12.889-4.311c5.422-1.733 8.267-7.644 6.533-13.067s-7.644-8.267-13.067-6.533l-12.889 4.311-4.445-13.378c-1.733-5.422-7.644-8.267-13.067-6.533s-8.267 7.644-6.533 13.067l4.444 13.378-26.578 8.933-4.445-13.378c-1.733-5.422-7.644-8.267-13.067-6.533s-8.267 7.644-6.533 13.067l4.445 13.378-12.889 4.311c-5.422 1.733-8.267 7.644-6.533 13.067 1.422 4.133 5.422 6.844 9.555 7.022 1.911 0.267 3.422-0.445 16.4-4.755l8.578 25.644-12.889 4.311c-5.422 1.733-8.267 7.644-6.533 13.067 1.422 4.133 5.422 6.845 9.555 7.022 1.911 0.267 3.422-0.445 16.4-4.756l4.445 13.378c1.644 4.8 7.022 8.267 13.067 6.533 5.422-1.733 8.267-7.644 6.533-13.067l-4.445-13.378 26.578-8.933 4.445 13.378c1.644 4.8 7.022 8.267 13.067 6.533 5.422-1.733 8.267-7.644 6.533-13.067l-4.445-13.378 12.889-4.311c5.422-1.867 8.267-7.778 6.533-13.155z"></path>
</svg>
