<!-- Generated by IcoMoon.io -->
<svg version="1.1" xmlns="http://www.w3.org/2000/svg" width="256" height="256" viewBox="0 0 256 256">
<title>sourcing</title>
<path fill="#333" d="M203.547 206.662c-12.461-8.567-24.144-18.692-34.269-28.817-6.231 3.115-13.24 4.673-20.25 4.673-27.26 0-49.067-21.808-49.067-49.067s21.808-49.067 49.067-49.067 49.067 21.808 49.067 49.067c0 7.009-1.558 14.019-4.673 20.25 5.452 5.452 10.904 11.683 16.355 17.913 0-10.125 0-19.471 0-29.596 0-33.49 0-66.98-1.558-100.469 0-6.231-5.452-11.683-12.461-11.683h-135.518c-7.009 0-12.461 5.452-12.461 12.461-1.558 33.49-1.558 66.98-1.558 100.47 0 24.144 0 47.509 1.558 71.653 0 6.231 5.452 11.683 12.461 11.683v0h135.518c6.231 0 11.683-5.452 12.461-11.683 0-1.558 0-3.894 0-5.452-2.337-0.779-3.894-1.558-4.673-2.337z"></path>
<path fill="#333" d="M120.99 133.451c0 14.798 12.461 27.26 27.26 27.26s27.26-12.461 27.26-27.26-12.461-27.26-27.26-27.26-27.26 12.461-27.26 27.26z"></path>
</svg>
