<!-- Generated by IcoMoon.io -->
<svg version="1.1" xmlns="http://www.w3.org/2000/svg" width="256" height="256" viewBox="0 0 256 256">
<title>third-party</title>
<path fill="#333" d="M209.78 113.761h-56.954c-5.111-7.302-13.143-12.413-22.636-12.413-15.334 0-27.017 12.413-27.017 27.017s12.413 27.017 27.017 27.017c9.492 0 18.255-5.111 22.636-12.413h56.954c8.032 0 14.604-6.571 14.604-14.604s-6.571-14.604-14.604-14.604z"></path>
<path fill="#333" d="M129.46 86.744c0.73 0 2.921 0 3.651 0 6.571 0 8.762-2.921 8.762-2.921s2.19-2.191 5.841-5.111c0 0 2.921-2.191 2.921-10.953 0-6.571 0-16.064 0-16.064v-3.651c0-8.762-7.302-15.334-15.334-15.334h-11.683c-8.762 0-15.334 7.301-15.334 15.334v7.301c0 1.46-2.191 4.381-5.111 5.841-1.46 0-2.921 0-3.651 0.73-1.46 0.73-2.921 0.73-3.651 0.73-1.46 0-2.921-0.73-3.651-1.46l-5.111-4.381c-2.921-2.92-7.302-5.111-11.683-5.111s-8.032 2.191-10.953 5.111l-8.032 8.032c-5.841 5.841-5.841 16.064 0 21.906l5.111 5.111c1.46 1.46 1.46 4.381 0 7.302 0 1.46-0.73 2.191-1.46 3.651-1.46 2.921-3.651 5.111-5.841 5.111h-7.301c-8.762 0-15.334 7.302-15.334 15.334v10.222c0 8.762 7.302 15.334 15.334 15.334h7.301c1.46 0 4.381 2.191 5.841 5.111 0.73 0.73 0.73 2.191 1.46 2.921 1.46 2.921 0.73 6.571 0 7.302l-5.111 5.111c-5.841 5.841-5.841 16.064 0 21.905l8.032 8.032c2.921 2.921 6.571 4.381 10.953 4.381s8.032-1.46 10.953-4.381l5.111-5.111c0.73-0.73 2.191-1.46 3.651-1.46s2.921 0 3.651 0.73c0.73 0.73 2.191 0.73 2.921 1.46 2.921 1.46 5.111 3.651 5.111 5.841v7.302c0 8.762 7.302 15.334 15.334 15.334h11.683c8.762 0 15.334-7.302 15.334-15.334v-2.19c0 0 0-9.492 0-16.064 0-8.762-2.921-10.953-2.921-10.953-2.921-2.921-5.841-5.841-5.841-5.841s-2.921-2.921-8.762-2.921c-0.73 0-2.921 0-3.651 0-23.366 0-41.621-18.255-42.35-41.62 1.46-22.636 20.445-41.62 43.811-41.62z"></path>
</svg>
