<!-- Generated by IcoMoon.io -->
<svg version="1.1" xmlns="http://www.w3.org/2000/svg" width="256" height="256" viewBox="0 0 256 256">
<title>unlock-o</title>
<path fill="#333" d="M192.967 111.047v-30.493c0-35.271-29.127-63.943-65.081-63.943s-65.081 28.672-65.081 63.943c0 4.323 3.641 7.965 7.965 7.965s7.965-3.641 7.965-7.965c0-26.397 22.073-48.014 49.152-48.014s49.152 21.618 49.152 48.014v30.493h-131.072v102.172c0 14.336 11.833 26.169 26.169 26.169h111.73c14.336 0 26.169-11.833 26.169-26.169v-102.172h-17.067zM194.105 213.219c0 5.689-4.551 10.24-10.24 10.24h-111.73c-5.689 0-10.24-4.551-10.24-10.24v-86.243h132.21v86.243z"></path>
<path fill="#333" d="M127.886 204.345c16.157 0 29.355-13.198 29.355-29.355s-13.198-29.355-29.355-29.355c-16.156 0-29.355 13.198-29.355 29.355s13.198 29.355 29.355 29.355zM127.886 161.564c7.282 0 13.426 5.917 13.426 13.426s-5.917 13.426-13.426 13.426-13.426-5.917-13.426-13.426 6.144-13.426 13.426-13.426z"></path>
</svg>
