<!-- Generated by IcoMoon.io -->
<svg version="1.1" xmlns="http://www.w3.org/2000/svg" width="256" height="256" viewBox="0 0 256 256">
<title>view</title>
<path fill="#333" d="M223.37 121.975c-21.82-53.095-82.188-77.824-135.283-56.732-25.456 10.183-45.822 30.548-56.004 56.004-1.454 4.364-1.454 8.728 0 13.092 21.82 53.095 82.188 77.824 135.283 56.004 25.457-10.183 45.822-30.548 56.004-56.004 2.182-3.637 2.182-8.001 0-12.365zM128.090 164.16c-19.638 0-35.639-16.001-35.639-34.912s16.001-35.639 34.912-35.639c19.638 0 35.639 16.001 35.639 34.912 0 0 0 0 0 0 0 19.638-16.001 35.639-34.912 35.639 0 0 0 0 0 0z"></path>
<path fill="#333" d="M146.274 127.793c0 10.042-8.141 18.183-18.183 18.183s-18.183-8.141-18.183-18.183c0-10.043 8.141-18.183 18.183-18.183s18.183 8.141 18.183 18.183z"></path>
</svg>
