<!-- Generated by IcoMoon.io -->
<svg version="1.1" xmlns="http://www.w3.org/2000/svg" width="256" height="256" viewBox="0 0 256 256">
<title>warning</title>
<path fill="#333" d="M127.963 28.434c-55.010 0-99.603 44.594-99.603 99.603s44.594 99.603 99.603 99.603c55.010 0 99.604-44.594 99.604-99.603v0c0-55.010-44.594-99.603-99.603-99.603v0zM136.232 174.332c-2.042 2.101-4.894 3.405-8.052 3.405-0.155 0-0.308-0.003-0.461-0.009l0.022 0.001c-0.104 0.003-0.226 0.005-0.349 0.005-3.185 0-6.066-1.301-8.141-3.401l-0.001-0.001c-2.059-2.113-3.328-5.003-3.328-8.19 0-0.131 0.002-0.263 0.006-0.394l-0.001 0.019c-0.004-0.111-0.006-0.242-0.006-0.373 0-6.361 5.156-11.518 11.519-11.518 0.106 0 0.212 0.002 0.317 0.005l-0.016-0c0.131-0.005 0.285-0.009 0.439-0.009 3.157 0 6.011 1.304 8.049 3.402l0.002 0.002c2.057 2.091 3.328 4.962 3.328 8.129 0 0.127-0.002 0.254-0.006 0.38l0-0.019c0.004 0.112 0.006 0.243 0.006 0.375 0 3.187-1.269 6.077-3.331 8.192l0.002-0.002zM140.293 91.563l-6.276 48.51c-0.088 1.884-0.828 3.579-2 4.88l0.006-0.007c-1.1 1.058-2.596 1.709-4.246 1.709s-3.146-0.651-4.248-1.71l0.002 0.002c-1.251-1.258-2.052-2.964-2.141-4.857l-0.001-0.016-6.129-48.584c-0.024-0.299-0.038-0.646-0.038-0.996s0.014-0.698 0.041-1.042l-0.003 0.045c-0.005-0.12-0.008-0.261-0.008-0.402 0-3.12 1.403-5.912 3.611-7.781l0.015-0.012c2.316-1.889 5.303-3.034 8.558-3.034 0.158 0 0.316 0.002 0.472 0.008l-0.023-0.001c0.125-0.004 0.272-0.006 0.42-0.006 3.288 0 6.31 1.143 8.688 3.055l-0.027-0.021c2.184 1.931 3.555 4.74 3.555 7.868 0 0.167-0.004 0.334-0.012 0.499l0.001-0.023c0.022 0.287 0.033 0.622 0.033 0.96s-0.012 0.673-0.036 1.004l0.002-0.044z"></path>
</svg>
