<?xml version="1.0" encoding="utf-8"?>
<!-- Generator: Adobe Illustrator 22.0.1, SVG Export Plug-In . SVG Version: 6.00 Build 0)  -->
<svg version="1.1" id="Layer_1" xmlns="http://www.w3.org/2000/svg" xmlns:xlink="http://www.w3.org/1999/xlink" x="0px" y="0px"
	 viewBox="0 0 234.1 214.1" style="enable-background:new 0 0 234.1 214.1;" xml:space="preserve">
<style type="text/css">
	.st0{fill:#172E55;}
	.st1{fill:#E2E2E2;}
	.st2{fill:#7CC242;}
	.st3{fill:#65A944;}
</style>
<g>
	<path class="st0" d="M202.2,34.4c-2.1-1.5-2.5-4.5-1-6.7l5.2-6.9c1.5-2.1,4.5-2.5,6.7-1c2.1,1.5,2.5,4.5,1,6.7l-5.2,6.9
		C207.4,35.5,204.4,36.1,202.2,34.4z"/>
	<g>
		<polygon class="st1" points="38.3,109.3 28.6,121.9 59.3,153.5 76.8,129.9 		"/>
		<path class="st2" d="M80.7,166l-10.1-7.5c-1.4-1-1.8-3.1-0.7-4.4l11.1-15c1-1.4,3.1-1.8,4.4-0.7l9.8,7.3"/>
		<polygon class="st2" points="160.9,57.6 192,79.8 191.3,83.2 117.2,184.2 84.8,160.7 158.7,60.1 		"/>
		<path class="st0" d="M108,197c-1.2,0-2.5-0.3-3.5-1.2l-27.6-20.3c-2.6-2-3.3-5.7-1.3-8.5l81-109.6c2-2.6,5.7-3.3,8.5-1.3
			l27.6,20.3c1.3,1,2.1,2.3,2.4,4c0.2,1.6-0.1,3.2-1.1,4.5l-81,109.7C111.6,196.2,109.9,197,108,197z M108,191.1l-1.8,2.4L108,191.1
			L108,191.1z M161.4,61l-81,109.7l27.6,20.3l81-109.7L161.4,61z"/>
		<path class="st0" d="M191.4,79.4l-5.3-3l21-37.8l-10.2-7.8l-0.1,0.1l-0.3,0.2l-29.2,30.2l-4.3-4.2L192.1,27c1-1.2,2.4-2.1,4-2.3
			c1.6-0.2,3.3,0.1,4.6,1.1l10.2,7.6c1.3,1,2.2,2.4,2.4,4.1c0.2,1.5-0.1,3.1-1,4.4L191.4,79.4z"/>
		<path class="st0" d="M115.5,186.3c-0.7,0-1.2-0.2-1.8-0.5l-29.1-21.5c-1.3-1-1.6-2.9-0.7-4.2c1-1.3,2.9-1.6,4.2-0.7l29.1,21.4
			c1.3,1,1.6,2.9,0.7,4.2C117.2,185.9,116.3,186.3,115.5,186.3z"/>
		<polygon class="st0" points="143.4,121.4 139.5,126.5 144.7,130.3 148.5,125.2 		"/>
		
			<rect x="96.6" y="151.9" transform="matrix(0.5937 -0.8047 0.8047 0.5937 -74.9412 161.3432)" class="st0" width="51.4" height="6"/>
		<path class="st0" d="M90.7,185.9l-32.4-24c-1.3-1-2.2-2.4-2.4-4.1c-0.2-1.6,0.1-3.3,1.1-4.6l20-27c1-1.3,2.4-2.2,4.1-2.4
			s3.3,0.2,4.6,1.1l16.6,12.2l-3.6,4.8l-16.6-12.2l-20.2,27l32.4,24.1L90.7,185.9z"/>
		<path class="st0" d="M57.9,155.9l-30.1-29.1c-2.6-2.1-3.1-5.8-1.1-8.6l7.6-10.2c1-1.3,2.4-2.2,4.1-2.4c1.5-0.2,3.2,0.1,4.4,1
			l37.4,20.7l-3,5.3l-37.8-21l-7.8,10.2l0.1,0.1l0.2,0.4L62,151.6L57.9,155.9z"/>
		<path class="st0" d="M35,116.4c-1.5,2.1-4.5,2.5-6.7,1l-6.9-5.2c-2.1-1.5-2.5-4.5-1-6.7c1.5-2.1,4.5-2.5,6.7-1l6.9,5.2
			C36.1,111.4,36.5,114.3,35,116.4z"/>
		<polygon class="st3" points="183.3,77.4 111,175.8 116,179.9 188.7,81.3 		"/>
	</g>
</g>
</svg>
