<?xml version="1.0" encoding="utf-8"?>
<!-- Generator: Adobe Illustrator 22.0.1, SVG Export Plug-In . SVG Version: 6.00 Build 0)  -->
<svg version="1.1" id="Layer_1" xmlns="http://www.w3.org/2000/svg" xmlns:xlink="http://www.w3.org/1999/xlink" x="0px" y="0px"
	 viewBox="0 0 1256.7 257.8" style="enable-background:new 0 0 1256.7 257.8;" xml:space="preserve">
<style type="text/css">
	.st0{fill:#2EC5E8;stroke:#172E55;stroke-width:5.5;stroke-miterlimit:10;}
	.st1{fill:#FFFACC;}
	.st2{fill:#172E55;}
	.st3{fill:#FFC145;}
	.st4{fill:#2EC5E8;}
	.st5{fill:#19243F;}
	.st6{fill:#F40808;}
	.st7{fill:#E2E2E2;}
	.st8{fill:none;stroke:#F40808;stroke-width:5.5;stroke-linecap:round;stroke-miterlimit:10;}
</style>
<rect x="41.1" y="52.8" class="st0" width="147" height="65"/>
<circle class="st1" cx="151.6" cy="164.8" r="33"/>
<path class="st2" d="M151.6,200.6c-19.7,0-35.7-16-35.7-35.8s16-35.8,35.7-35.8s35.8,16,35.8,35.8S171.3,200.6,151.6,200.6z
	 M151.6,134.6c-16.7,0-30.2,13.6-30.2,30.2s13.6,30.2,30.2,30.2s30.2-13.6,30.2-30.2S168.3,134.6,151.6,134.6z"/>
<circle class="st3" cx="151.6" cy="164.8" r="20.6"/>
<path class="st2" d="M56,165.4h-6.8c-4,0-7.3-3.3-7.3-7.3v-6.8c0-4,3.3-7.3,7.3-7.3H56c4,0,7.3,3.3,7.3,7.3v6.8
	C63.3,162.1,60,165.4,56,165.4z"/>
<path class="st2" d="M84.9,165.4h-6.8c-4,0-7.3-3.3-7.3-7.3v-6.8c0-4,3.3-7.3,7.3-7.3h6.8c4,0,7.3,3.3,7.3,7.3v6.8
	C92.1,162.1,88.9,165.4,84.9,165.4z"/>
<path class="st2" d="M56,193.6h-6.8c-4,0-7.3-3.3-7.3-7.3v-6.8c0-4,3.3-7.3,7.3-7.3H56c4,0,7.3,3.3,7.3,7.3v6.8
	C63.3,190.4,60,193.6,56,193.6z"/>
<path class="st2" d="M84.9,193.6h-6.8c-4,0-7.3-3.3-7.3-7.3v-6.8c0-4,3.3-7.3,7.3-7.3h6.8c4,0,7.3,3.3,7.3,7.3v6.8
	C92.1,190.4,88.9,193.6,84.9,193.6z"/>
<rect x="295.5" y="89.2" class="st4" width="147" height="65"/>
<path class="st2" d="M445.2,156.9H292.7V86.4h152.5V156.9z M298.2,151.4h141.5V91.9H298.2V151.4z"/>
<g>
	<g>
		<circle class="st1" cx="330.4" cy="122" r="18.4"/>
		<path class="st5" d="M330.4,141.9c-11,0-19.9-8.9-19.9-19.9c0-11,8.9-19.9,19.9-19.9s19.9,8.9,19.9,19.9
			C350.3,132.9,341.4,141.9,330.4,141.9z M330.4,105.1c-9.3,0-16.8,7.6-16.8,16.8c0,9.3,7.6,16.8,16.8,16.8s16.8-7.6,16.8-16.8
			C347.3,112.7,339.7,105.1,330.4,105.1z"/>
	</g>
	<circle class="st3" cx="330.4" cy="122" r="11.4"/>
</g>
<path class="st5" d="M407.5,119.7h-5.8c-2.3,0-4.2-1.9-4.2-4.2v-5.8c0-2.3,1.9-4.2,4.2-4.2h5.8c2.3,0,4.2,1.9,4.2,4.2v5.8
	C411.7,117.8,409.8,119.7,407.5,119.7z"/>
<path class="st5" d="M426.8,119.7h-5.8c-2.3,0-4.2-1.9-4.2-4.2v-5.8c0-2.3,1.9-4.2,4.2-4.2h5.8c2.3,0,4.2,1.9,4.2,4.2v5.8
	C431,117.8,429.1,119.7,426.8,119.7z"/>
<path class="st5" d="M407.5,138.6h-5.8c-2.3,0-4.2-1.9-4.2-4.2v-5.8c0-2.3,1.9-4.2,4.2-4.2h5.8c2.3,0,4.2,1.9,4.2,4.2v5.8
	C411.7,136.7,409.8,138.6,407.5,138.6z"/>
<path class="st5" d="M426.8,138.6h-5.8c-2.3,0-4.2-1.9-4.2-4.2v-5.8c0-2.3,1.9-4.2,4.2-4.2h5.8c2.3,0,4.2,1.9,4.2,4.2v5.8
	C431,136.7,429.1,138.6,426.8,138.6z"/>
<rect x="571.8" y="37.2" class="st4" width="118.3" height="52.3"/>
<path class="st2" d="M692.3,91.8H569.6V35h122.8V91.8z M574,87.3h113.9V39.4H574V87.3z"/>
<circle class="st1" cx="599.9" cy="63.6" r="14.8"/>
<path class="st2" d="M599.9,79.6c-8.8,0-16-7.2-16-16s7.2-16,16-16c8.8,0,16,7.2,16,16S608.7,79.6,599.9,79.6z M599.9,50.1
	c-7.5,0-13.6,6.1-13.6,13.6c0,7.5,6.1,13.6,13.6,13.6c7.5,0,13.6-6.1,13.6-13.6C613.5,56.2,607.4,50.1,599.9,50.1z"/>
<circle class="st3" cx="599.9" cy="63.6" r="9.2"/>
<path class="st2" d="M661.1,61.8h-3c-2.3,0-4.2-1.9-4.2-4.2v-3c0-2.3,1.9-4.2,4.2-4.2h3c2.3,0,4.2,1.9,4.2,4.2v3
	C665.3,59.9,663.4,61.8,661.1,61.8z"/>
<path class="st2" d="M676.6,61.8h-3.1c-2.3,0-4.2-1.9-4.2-4.2v-3.1c0-2.3,1.9-4.2,4.2-4.2h3.1c2.3,0,4.2,1.9,4.2,4.2v3.1
	C680.9,59.9,679,61.8,676.6,61.8z"/>
<path class="st2" d="M661.1,77h-3c-2.3,0-4.2-1.9-4.2-4.2v-3c0-2.3,1.9-4.2,4.2-4.2h3c2.3,0,4.2,1.9,4.2,4.2v3
	C665.3,75.1,663.4,77,661.1,77z"/>
<path class="st2" d="M676.6,77h-3c-2.3,0-4.2-1.9-4.2-4.2v-3c0-2.3,1.9-4.2,4.2-4.2h3c2.3,0,4.2,1.9,4.2,4.2v3
	C680.9,75.1,679,77,676.6,77z"/>
<rect x="571.8" y="98.2" class="st4" width="118.3" height="52.3"/>
<path class="st2" d="M692.3,152.8H569.6V96h122.8V152.8z M574,148.3h113.9v-47.9H574V148.3z"/>
<circle class="st1" cx="599.9" cy="124.6" r="14.8"/>
<path class="st2" d="M599.9,140.6c-8.8,0-16-7.2-16-16s7.2-16,16-16c8.8,0,16,7.2,16,16S608.7,140.6,599.9,140.6z M599.9,111.1
	c-7.5,0-13.6,6.1-13.6,13.6s6.1,13.6,13.6,13.6c7.5,0,13.6-6.1,13.6-13.6S607.4,111.1,599.9,111.1z"/>
<circle class="st3" cx="599.9" cy="124.6" r="9.2"/>
<path class="st2" d="M661.1,122.8h-3c-2.3,0-4.2-1.9-4.2-4.2v-3c0-2.3,1.9-4.2,4.2-4.2h3c2.3,0,4.2,1.9,4.2,4.2v3
	C665.3,120.9,663.4,122.8,661.1,122.8z"/>
<path class="st2" d="M676.6,122.8h-3.1c-2.3,0-4.2-1.9-4.2-4.2v-3.1c0-2.3,1.9-4.2,4.2-4.2h3.1c2.3,0,4.2,1.9,4.2,4.2v3.1
	C680.9,120.9,679,122.8,676.6,122.8z"/>
<path class="st2" d="M661.1,138h-3c-2.3,0-4.2-1.9-4.2-4.2v-3c0-2.3,1.9-4.2,4.2-4.2h3c2.3,0,4.2,1.9,4.2,4.2v3
	C665.3,136.1,663.4,138,661.1,138z"/>
<path class="st2" d="M676.6,138h-3c-2.3,0-4.2-1.9-4.2-4.2v-3c0-2.3,1.9-4.2,4.2-4.2h3c2.3,0,4.2,1.9,4.2,4.2v3
	C680.9,136.1,679,138,676.6,138z"/>
<rect x="571.8" y="159.2" class="st4" width="118.3" height="52.3"/>
<path class="st2" d="M692.3,213.8H569.6V157h122.8V213.8z M574,209.3h113.9v-47.9H574V209.3z"/>
<circle class="st1" cx="599.9" cy="185.6" r="14.8"/>
<path class="st2" d="M599.9,201.6c-8.8,0-16-7.2-16-16s7.2-16,16-16c8.8,0,16,7.2,16,16S608.7,201.6,599.9,201.6z M599.9,172.1
	c-7.5,0-13.6,6.1-13.6,13.6s6.1,13.6,13.6,13.6c7.5,0,13.6-6.1,13.6-13.6S607.4,172.1,599.9,172.1z"/>
<circle class="st3" cx="599.9" cy="185.6" r="9.2"/>
<path class="st2" d="M661.1,183.8h-3c-2.3,0-4.2-1.9-4.2-4.2v-3c0-2.3,1.9-4.2,4.2-4.2h3c2.3,0,4.2,1.9,4.2,4.2v3
	C665.3,181.9,663.4,183.8,661.1,183.8z"/>
<path class="st2" d="M676.6,183.8h-3.1c-2.3,0-4.2-1.9-4.2-4.2v-3.1c0-2.3,1.9-4.2,4.2-4.2h3.1c2.3,0,4.2,1.9,4.2,4.2v3.1
	C680.9,181.9,679,183.8,676.6,183.8z"/>
<path class="st2" d="M661.1,199h-3c-2.3,0-4.2-1.9-4.2-4.2v-3c0-2.3,1.9-4.2,4.2-4.2h3c2.3,0,4.2,1.9,4.2,4.2v3
	C665.3,197.1,663.4,199,661.1,199z"/>
<path class="st2" d="M676.6,199h-3c-2.3,0-4.2-1.9-4.2-4.2v-3c0-2.3,1.9-4.2,4.2-4.2h3c2.3,0,4.2,1.9,4.2,4.2v3
	C680.9,197.1,679,199,676.6,199z"/>
<g>
	<path class="st6" d="M930.4,60.5h-6c-1.5,0-2.8-1.2-2.8-2.8s1.2-2.8,2.8-2.8h6c1.5,0,2.8,1.2,2.8,2.8S932,60.5,930.4,60.5z"/>
	<path class="st6" d="M950,60.5h-9.8c-1.5,0-2.8-1.2-2.8-2.8s1.2-2.8,2.8-2.8h9.8c1.5,0,2.8,1.2,2.8,2.8S951.5,60.5,950,60.5z"/>
	<path class="st6" d="M965.8,66.5c-1.5,0-2.8-1.2-2.8-2.8v-3.2h-3.2c-1.5,0-2.8-1.2-2.8-2.8s1.2-2.8,2.8-2.8h8.8v8.8
		C968.5,65.2,967.3,66.5,965.8,66.5z"/>
	<path class="st6" d="M965.8,171.9c-1.5,0-2.8-1.2-2.8-2.8V156c0-1.5,1.2-2.8,2.8-2.8s2.8,1.2,2.8,2.8v13.2
		C968.5,170.7,967.3,171.9,965.8,171.9z M965.8,145.6c-1.5,0-2.8-1.2-2.8-2.8v-13.2c0-1.5,1.2-2.7,2.8-2.7s2.8,1.2,2.8,2.7v13.2
		C968.5,144.3,967.3,145.6,965.8,145.6z M965.8,119.2c-1.5,0-2.8-1.2-2.8-2.8v-13.2c0-1.5,1.2-2.8,2.8-2.8s2.8,1.2,2.8,2.8v13.2
		C968.5,118,967.3,119.2,965.8,119.2z M965.8,92.8c-1.5,0-2.8-1.2-2.8-2.8V76.9c0-1.5,1.2-2.8,2.8-2.8s2.8,1.2,2.8,2.8v13.2
		C968.5,91.6,967.3,92.8,965.8,92.8z"/>
	<path class="st6" d="M968.5,191.1h-8.8c-1.5,0-2.8-1.2-2.8-2.8s1.2-2.8,2.8-2.8h3.2v-3.2c0-1.5,1.2-2.8,2.8-2.8s2.8,1.2,2.8,2.8
		V191.1z"/>
	<path class="st6" d="M951.3,191.1h-8.5c-1.5,0-2.8-1.2-2.8-2.8s1.2-2.8,2.8-2.8h8.5c1.5,0,2.8,1.2,2.8,2.8S952.8,191.1,951.3,191.1
		z"/>
	<path class="st6" d="M934.3,191.1h-6c-1.5,0-2.8-1.2-2.8-2.8s1.2-2.8,2.8-2.8h6c1.5,0,2.8,1.2,2.8,2.8S935.8,191.1,934.3,191.1z"/>
</g>
<g>
	<path class="st2" d="M922.6,214.5h-8.8c-1.5,0-2.8-1.2-2.8-2.8s1.2-2.8,2.8-2.8h3.2v-3.2c0-1.5,1.2-2.8,2.8-2.8s2.8,1.2,2.8,2.8
		V214.5z"/>
	<path class="st2" d="M901.9,214.5h-11.9c-1.5,0-2.8-1.2-2.8-2.8s1.2-2.8,2.8-2.8h11.9c1.5,0,2.8,1.2,2.8,2.8
		S903.5,214.5,901.9,214.5z M878.2,214.5h-11.9c-1.5,0-2.8-1.2-2.8-2.8s1.2-2.8,2.8-2.8h11.9c1.5,0,2.8,1.2,2.8,2.8
		S879.7,214.5,878.2,214.5z M854.5,214.5h-11.9c-1.5,0-2.8-1.2-2.8-2.8s1.2-2.8,2.8-2.8h11.9c1.5,0,2.8,1.2,2.8,2.8
		S856,214.5,854.5,214.5z M830.8,214.5h-11.9c-1.5,0-2.8-1.2-2.8-2.8s1.2-2.8,2.8-2.8h11.9c1.5,0,2.8,1.2,2.8,2.8
		S832.3,214.5,830.8,214.5z"/>
	<path class="st2" d="M807.1,214.5h-8.8v-8.8c0-1.5,1.2-2.8,2.8-2.8s2.8,1.2,2.8,2.8v3.2h3.2c1.5,0,2.8,1.2,2.8,2.8
		S808.6,214.5,807.1,214.5z"/>
	<path class="st2" d="M801.1,196c-1.5,0-2.8-1.2-2.8-2.8v-12.5c0-1.5,1.2-2.8,2.8-2.8s2.8,1.2,2.8,2.8v12.5
		C803.8,194.8,802.6,196,801.1,196z M801.1,171.1c-1.5,0-2.8-1.2-2.8-2.8v-12.5c0-1.5,1.2-2.8,2.8-2.8s2.8,1.2,2.8,2.8v12.5
		C803.8,169.9,802.6,171.1,801.1,171.1z M801.1,146.2c-1.5,0-2.8-1.2-2.8-2.8V131c0-1.5,1.2-2.8,2.8-2.8s2.8,1.2,2.8,2.8v12.5
		C803.8,145,802.6,146.2,801.1,146.2z M801.1,121.3c-1.5,0-2.8-1.2-2.8-2.8v-12.5c0-1.5,1.2-2.8,2.8-2.8s2.8,1.2,2.8,2.8v12.5
		C803.8,120.1,802.6,121.3,801.1,121.3z M801.1,96.4c-1.5,0-2.8-1.2-2.8-2.8V81.2c0-1.5,1.2-2.8,2.8-2.8s2.8,1.2,2.8,2.8v12.5
		C803.8,95.2,802.6,96.4,801.1,96.4z M801.1,71.5c-1.5,0-2.8-1.2-2.8-2.8V56.3c0-1.5,1.2-2.8,2.8-2.8s2.8,1.2,2.8,2.8v12.5
		C803.8,70.3,802.6,71.5,801.1,71.5z"/>
	<path class="st2" d="M801.1,46.6c-1.5,0-2.8-1.2-2.8-2.8v-8.8h8.8c1.5,0,2.8,1.2,2.8,2.8s-1.2,2.8-2.8,2.8h-3.2v3.2
		C803.8,45.4,802.6,46.6,801.1,46.6z"/>
	<path class="st2" d="M901.9,40.6h-11.9c-1.5,0-2.8-1.2-2.8-2.8s1.2-2.8,2.8-2.8h11.9c1.5,0,2.8,1.2,2.8,2.8S903.5,40.6,901.9,40.6z
		 M878.2,40.6h-11.9c-1.5,0-2.8-1.2-2.8-2.8s1.2-2.8,2.8-2.8h11.9c1.5,0,2.8,1.2,2.8,2.8S879.7,40.6,878.2,40.6z M854.5,40.6h-11.9
		c-1.5,0-2.8-1.2-2.8-2.8s1.2-2.8,2.8-2.8h11.9c1.5,0,2.8,1.2,2.8,2.8S856,40.6,854.5,40.6z M830.8,40.6h-11.9
		c-1.5,0-2.8-1.2-2.8-2.8s1.2-2.8,2.8-2.8h11.9c1.5,0,2.8,1.2,2.8,2.8S832.3,40.6,830.8,40.6z"/>
	<path class="st2" d="M919.8,46.6c-1.5,0-2.8-1.2-2.8-2.8v-3.2h-3.2c-1.5,0-2.8-1.2-2.8-2.8s1.2-2.8,2.8-2.8h8.8v8.8
		C922.6,45.4,921.3,46.6,919.8,46.6z"/>
	<path class="st2" d="M919.8,196c-1.5,0-2.8-1.2-2.8-2.8v-12.5c0-1.5,1.2-2.8,2.8-2.8s2.8,1.2,2.8,2.8v12.5
		C922.6,194.8,921.3,196,919.8,196z M919.8,171.1c-1.5,0-2.8-1.2-2.8-2.8v-12.5c0-1.5,1.2-2.8,2.8-2.8s2.8,1.2,2.8,2.8v12.5
		C922.6,169.9,921.3,171.1,919.8,171.1z M919.8,146.2c-1.5,0-2.8-1.2-2.8-2.8V131c0-1.5,1.2-2.8,2.8-2.8s2.8,1.2,2.8,2.8v12.5
		C922.6,145,921.3,146.2,919.8,146.2z M919.8,121.3c-1.5,0-2.8-1.2-2.8-2.8v-12.5c0-1.5,1.2-2.8,2.8-2.8s2.8,1.2,2.8,2.8v12.5
		C922.6,120.1,921.3,121.3,919.8,121.3z M919.8,96.4c-1.5,0-2.8-1.2-2.8-2.8V81.2c0-1.5,1.2-2.8,2.8-2.8s2.8,1.2,2.8,2.8v12.5
		C922.6,95.2,921.3,96.4,919.8,96.4z M919.8,71.5c-1.5,0-2.8-1.2-2.8-2.8V56.3c0-1.5,1.2-2.8,2.8-2.8s2.8,1.2,2.8,2.8v12.5
		C922.6,70.3,921.3,71.5,919.8,71.5z"/>
</g>
<rect x="821.3" y="57.8" class="st7" width="81.5" height="24.8"/>
<rect x="821.3" y="93.3" class="st7" width="81.5" height="24.8"/>
<rect x="821.3" y="128.9" class="st7" width="81.5" height="24.8"/>
<g>
	<circle class="st7" cx="832.6" cy="178.3" r="10.9"/>
	<circle class="st7" cx="861.6" cy="178.3" r="10.9"/>
	<rect x="883.5" y="168.8" class="st7" width="18.9" height="18.9"/>
</g>
<polyline class="st8" points="1175.9,59.6 1217.2,59.6 1217.2,190.2 1172.5,190.2 "/>
<g>
	<path class="st2" d="M1169.4,42.4v167.5h-110.9V42.4H1169.4 M1174.9,36.9H1053v178.5h121.9V36.9L1174.9,36.9z"/>
</g>
<rect x="1068.7" y="51.8" class="st4" width="90.7" height="32.2"/>
<path class="st2" d="M1161,85.4H1067V50.4h94.1V85.4z M1070.3,82.6h87.3V53.1h-87.3V82.6z"/>
<circle class="st1" cx="1085.6" cy="68" r="9.1"/>
<path class="st2" d="M1085.6,77.9c-5.4,0-9.9-4.4-9.9-9.9c0-5.4,4.4-9.9,9.9-9.9c5.4,0,9.9,4.4,9.9,9.9
	C1095.5,73.5,1091.1,77.9,1085.6,77.9z M1085.6,59.7c-4.6,0-8.3,3.7-8.3,8.3c0,4.6,3.7,8.3,8.3,8.3c4.6,0,8.3-3.7,8.3-8.3
	C1094,63.4,1090.2,59.7,1085.6,59.7z"/>
<circle class="st3" cx="1085.6" cy="68" r="5.7"/>
<path class="st2" d="M1140.5,66.9h-2.2c-1.3,0-2.4-1.1-2.4-2.4v-2.2c0-1.3,1.1-2.4,2.4-2.4h2.2c1.3,0,2.4,1.1,2.4,2.4v2.2
	C1142.9,65.8,1141.8,66.9,1140.5,66.9z"/>
<path class="st2" d="M1150.1,66.9h-2.2c-1.3,0-2.4-1.1-2.4-2.4v-2.2c0-1.3,1.1-2.4,2.4-2.4h2.2c1.3,0,2.4,1.1,2.4,2.4v2.2
	C1152.5,65.8,1151.4,66.9,1150.1,66.9z"/>
<path class="st2" d="M1140.5,76.3h-2.2c-1.3,0-2.4-1.1-2.4-2.4v-2.2c0-1.3,1.1-2.4,2.4-2.4h2.2c1.3,0,2.4,1.1,2.4,2.4v2.2
	C1142.9,75.2,1141.8,76.3,1140.5,76.3z"/>
<path class="st2" d="M1150.1,76.3h-2.2c-1.3,0-2.4-1.1-2.4-2.4v-2.2c0-1.3,1.1-2.4,2.4-2.4h2.2c1.3,0,2.4,1.1,2.4,2.4v2.2
	C1152.5,75.2,1151.4,76.3,1150.1,76.3z"/>
<rect x="1068.7" y="89.3" class="st4" width="90.7" height="32.2"/>
<path class="st2" d="M1161,122.9H1067V88h94.1V122.9z M1070.3,120.2h87.3V90.7h-87.3V120.2z"/>
<circle class="st1" cx="1085.6" cy="105.6" r="9.1"/>
<path class="st2" d="M1085.6,115.5c-5.4,0-9.9-4.4-9.9-9.9c0-5.4,4.4-9.9,9.9-9.9c5.4,0,9.9,4.4,9.9,9.9
	C1095.5,111,1091.1,115.5,1085.6,115.5z M1085.6,97.3c-4.6,0-8.3,3.7-8.3,8.3c0,4.6,3.7,8.3,8.3,8.3c4.6,0,8.3-3.7,8.3-8.3
	C1094,101,1090.2,97.3,1085.6,97.3z"/>
<circle class="st3" cx="1085.6" cy="105.6" r="5.7"/>
<path class="st2" d="M1140.5,104.5h-2.2c-1.3,0-2.4-1.1-2.4-2.4v-2.2c0-1.3,1.1-2.4,2.4-2.4h2.2c1.3,0,2.4,1.1,2.4,2.4v2.2
	C1142.9,103.4,1141.8,104.5,1140.5,104.5z"/>
<path class="st2" d="M1150.1,104.5h-2.2c-1.3,0-2.4-1.1-2.4-2.4v-2.2c0-1.3,1.1-2.4,2.4-2.4h2.2c1.3,0,2.4,1.1,2.4,2.4v2.2
	C1152.5,103.4,1151.4,104.5,1150.1,104.5z"/>
<path class="st2" d="M1140.5,113.8h-2.2c-1.3,0-2.4-1.1-2.4-2.4v-2.2c0-1.3,1.1-2.4,2.4-2.4h2.2c1.3,0,2.4,1.1,2.4,2.4v2.2
	C1142.9,112.7,1141.8,113.8,1140.5,113.8z"/>
<path class="st2" d="M1150.1,113.8h-2.2c-1.3,0-2.4-1.1-2.4-2.4v-2.2c0-1.3,1.1-2.4,2.4-2.4h2.2c1.3,0,2.4,1.1,2.4,2.4v2.2
	C1152.5,112.7,1151.4,113.8,1150.1,113.8z"/>
<rect x="1068.7" y="126.9" class="st4" width="90.7" height="32.2"/>
<path class="st2" d="M1161,160.5H1067v-34.9h94.1V160.5z M1070.3,157.8h87.3v-29.5h-87.3V157.8z"/>
<circle class="st1" cx="1085.6" cy="143.2" r="9.1"/>
<path class="st2" d="M1085.6,153c-5.4,0-9.9-4.4-9.9-9.9c0-5.4,4.4-9.9,9.9-9.9c5.4,0,9.9,4.4,9.9,9.9
	C1095.5,148.6,1091.1,153,1085.6,153z M1085.6,134.8c-4.6,0-8.3,3.7-8.3,8.3c0,4.6,3.7,8.3,8.3,8.3c4.6,0,8.3-3.7,8.3-8.3
	C1094,138.6,1090.2,134.8,1085.6,134.8z"/>
<circle class="st3" cx="1085.6" cy="143.2" r="5.7"/>
<path class="st2" d="M1140.5,142h-2.2c-1.3,0-2.4-1.1-2.4-2.4v-2.2c0-1.3,1.1-2.4,2.4-2.4h2.2c1.3,0,2.4,1.1,2.4,2.4v2.2
	C1142.9,140.9,1141.8,142,1140.5,142z"/>
<path class="st2" d="M1150.1,142h-2.2c-1.3,0-2.4-1.1-2.4-2.4v-2.2c0-1.3,1.1-2.4,2.4-2.4h2.2c1.3,0,2.4,1.1,2.4,2.4v2.2
	C1152.5,140.9,1151.4,142,1150.1,142z"/>
<path class="st2" d="M1140.5,151.4h-2.2c-1.3,0-2.4-1.1-2.4-2.4v-2.2c0-1.3,1.1-2.4,2.4-2.4h2.2c1.3,0,2.4,1.1,2.4,2.4v2.2
	C1142.9,150.3,1141.8,151.4,1140.5,151.4z"/>
<path class="st2" d="M1150.1,151.4h-2.2c-1.3,0-2.4-1.1-2.4-2.4v-2.2c0-1.3,1.1-2.4,2.4-2.4h2.2c1.3,0,2.4,1.1,2.4,2.4v2.2
	C1152.5,150.3,1151.4,151.4,1150.1,151.4z"/>
<g>
	<g>
		<circle class="st1" cx="1078.1" cy="187.6" r="9.6"/>
		<path class="st5" d="M1078.1,198c-5.7,0-10.4-4.7-10.4-10.4s4.7-10.4,10.4-10.4s10.4,4.7,10.4,10.4S1083.8,198,1078.1,198z
			 M1078.1,178.8c-4.9,0-8.8,4-8.8,8.8s4,8.8,8.8,8.8c4.9,0,8.8-4,8.8-8.8S1082.9,178.8,1078.1,178.8z"/>
	</g>
	<circle class="st3" cx="1078.1" cy="187.6" r="6"/>
</g>
<g>
	<g>
		<circle class="st1" cx="1111.1" cy="187.6" r="9.6"/>
		<path class="st5" d="M1111.1,198c-5.7,0-10.4-4.7-10.4-10.4s4.7-10.4,10.4-10.4s10.4,4.7,10.4,10.4S1116.8,198,1111.1,198z
			 M1111.1,178.8c-4.9,0-8.8,4-8.8,8.8s4,8.8,8.8,8.8c4.9,0,8.8-4,8.8-8.8S1115.9,178.8,1111.1,178.8z"/>
	</g>
	<circle class="st3" cx="1111.1" cy="187.6" r="6"/>
</g>
<path class="st5" d="M1140.9,185.9h-1.5c-1.9,0-3.5-1.6-3.5-3.5v-1.5c0-1.9,1.6-3.5,3.5-3.5h1.5c1.9,0,3.5,1.6,3.5,3.5v1.5
	C1144.4,184.3,1142.8,185.9,1140.9,185.9z"/>
<path class="st5" d="M1152.5,185.9h-1.5c-1.9,0-3.5-1.6-3.5-3.5v-1.5c0-1.9,1.6-3.5,3.5-3.5h1.5c1.9,0,3.5,1.6,3.5,3.5v1.5
	C1156,184.3,1154.4,185.9,1152.5,185.9z"/>
<path class="st5" d="M1140.9,197.2h-1.5c-1.9,0-3.5-1.6-3.5-3.5v-1.5c0-1.9,1.6-3.5,3.5-3.5h1.5c1.9,0,3.5,1.6,3.5,3.5v1.5
	C1144.4,195.6,1142.8,197.2,1140.9,197.2z"/>
<path class="st5" d="M1152.5,197.2h-1.5c-1.9,0-3.5-1.6-3.5-3.5v-1.5c0-1.9,1.6-3.5,3.5-3.5h1.5c1.9,0,3.5,1.6,3.5,3.5v1.5
	C1156,195.6,1154.4,197.2,1152.5,197.2z"/>
</svg>
