<?xml version="1.0" encoding="utf-8"?>
<!-- Generator: Adobe Illustrator 22.0.1, SVG Export Plug-In . SVG Version: 6.00 Build 0)  -->
<svg version="1.1" id="Layer_1" xmlns="http://www.w3.org/2000/svg" xmlns:xlink="http://www.w3.org/1999/xlink" x="0px" y="0px"
	 viewBox="0 0 1256.7 257.8" style="enable-background:new 0 0 1256.7 257.8;" xml:space="preserve">
<style type="text/css">
	.st0{fill:#2EC5E8;}
	.st1{fill:#19243F;}
	.st2{fill:#FFFACC;}
	.st3{fill:#FFC145;}
	.st4{fill:#F40808;}
	.st5{fill:#E2E2E2;}
</style>
<g>
	<g>
		<g>
			<rect x="39.2" y="57.2" class="st0" width="147" height="65"/>
			<path class="st1" d="M188.9,125H36.4V54.5h152.5V125z M41.9,119.5h141.5V60H41.9V119.5z"/>
		</g>
	</g>
	<g>
		<g>
			<circle class="st2" cx="149.6" cy="169.3" r="33"/>
			<path class="st1" d="M149.6,205c-19.7,0-35.8-16-35.8-35.8s16-35.8,35.8-35.8s35.8,16,35.8,35.8S169.4,205,149.6,205z M149.6,139
				c-16.7,0-30.2,13.6-30.2,30.2s13.6,30.2,30.2,30.2s30.2-13.6,30.2-30.2S166.3,139,149.6,139z"/>
		</g>
		<circle class="st3" cx="149.6" cy="169.3" r="20.6"/>
	</g>
	<g>
		<g>
			<path class="st1" d="M54.1,169.9h-6.8c-4,0-7.3-3.3-7.3-7.3v-6.8c0-4,3.3-7.3,7.3-7.3h6.8c4,0,7.3,3.3,7.3,7.3v6.8
				C61.3,166.6,58.1,169.9,54.1,169.9z"/>
			<path class="st1" d="M82.9,169.9h-6.8c-4,0-7.3-3.3-7.3-7.3v-6.8c0-4,3.3-7.3,7.3-7.3h6.8c4,0,7.3,3.3,7.3,7.3v6.8
				C90.2,166.6,86.9,169.9,82.9,169.9z"/>
		</g>
		<g>
			<path class="st1" d="M54.1,198.1h-6.8c-4,0-7.3-3.3-7.3-7.3V184c0-4,3.3-7.3,7.3-7.3h6.8c4,0,7.3,3.3,7.3,7.3v6.8
				C61.3,194.8,58.1,198.1,54.1,198.1z"/>
			<path class="st1" d="M82.9,198.1h-6.8c-4,0-7.3-3.3-7.3-7.3V184c0-4,3.3-7.3,7.3-7.3h6.8c4,0,7.3,3.3,7.3,7.3v6.8
				C90.2,194.8,86.9,198.1,82.9,198.1z"/>
		</g>
	</g>
</g>
<g>
	<rect x="294.9" y="99.2" class="st0" width="147" height="65"/>
	<path class="st1" d="M444.6,167H292.1V96.5h152.5V167z M297.6,161.5h141.5V102H297.6V161.5z"/>
	<g>
		<g>
			<circle class="st2" cx="329.8" cy="132" r="18.4"/>
			<path class="st1" d="M329.8,151.9c-11,0-19.9-8.9-19.9-19.9s8.9-19.9,19.9-19.9s19.9,8.9,19.9,19.9S340.8,151.9,329.8,151.9z
				 M329.8,115.2c-9.3,0-16.8,7.6-16.8,16.8s7.6,16.8,16.8,16.8s16.8-7.6,16.8-16.8S339.1,115.2,329.8,115.2z"/>
		</g>
		<circle class="st3" cx="329.8" cy="132" r="11.4"/>
	</g>
	<path class="st1" d="M406.8,129.7H401c-2.3,0-4.2-1.9-4.2-4.2v-5.8c0-2.3,1.9-4.2,4.2-4.2h5.8c2.3,0,4.2,1.9,4.2,4.2v5.8
		C411.1,127.8,409.2,129.7,406.8,129.7z"/>
	<path class="st1" d="M426.1,129.7h-5.8c-2.3,0-4.2-1.9-4.2-4.2v-5.8c0-2.3,1.9-4.2,4.2-4.2h5.8c2.3,0,4.2,1.9,4.2,4.2v5.8
		C430.4,127.8,428.5,129.7,426.1,129.7z"/>
	<path class="st1" d="M406.8,148.6H401c-2.3,0-4.2-1.9-4.2-4.2v-5.8c0-2.3,1.9-4.2,4.2-4.2h5.8c2.3,0,4.2,1.9,4.2,4.2v5.8
		C411.1,146.7,409.2,148.6,406.8,148.6z"/>
	<path class="st1" d="M426.1,148.6h-5.8c-2.3,0-4.2-1.9-4.2-4.2v-5.8c0-2.3,1.9-4.2,4.2-4.2h5.8c2.3,0,4.2,1.9,4.2,4.2v5.8
		C430.4,146.7,428.5,148.6,426.1,148.6z"/>
</g>
<g>
	<g>
		<rect x="567.8" y="47.7" class="st0" width="118.3" height="52.3"/>
		<path class="st1" d="M688.4,102.2H565.6V45.5h122.8V102.2z M570,97.8h113.9V49.9H570V97.8z"/>
		<g>
			<g>
				<circle class="st2" cx="595.9" cy="74.1" r="14.8"/>
				<path class="st1" d="M595.9,90.1c-8.8,0-16-7.2-16-16s7.2-16,16-16c8.8,0,16,7.2,16,16S604.8,90.1,595.9,90.1z M595.9,60.5
					c-7.5,0-13.6,6.1-13.6,13.6c0,7.5,6.1,13.6,13.6,13.6c7.5,0,13.6-6.1,13.6-13.6C609.5,66.6,603.4,60.5,595.9,60.5z"/>
			</g>
			<circle class="st3" cx="595.9" cy="74.1" r="9.2"/>
		</g>
		<path class="st1" d="M657.1,72.2h-3c-2.3,0-4.2-1.9-4.2-4.2v-3c0-2.3,1.9-4.2,4.2-4.2h3c2.3,0,4.2,1.9,4.2,4.2v3
			C661.4,70.3,659.5,72.2,657.1,72.2z"/>
		<path class="st1" d="M672.7,72.2h-3.1c-2.3,0-4.2-1.9-4.2-4.2V65c0-2.3,1.9-4.2,4.2-4.2h3.1c2.3,0,4.2,1.9,4.2,4.2V68
			C676.9,70.3,675,72.2,672.7,72.2z"/>
		<path class="st1" d="M657.1,87.4h-3c-2.3,0-4.2-1.9-4.2-4.2v-3c0-2.3,1.9-4.2,4.2-4.2h3c2.3,0,4.2,1.9,4.2,4.2v3
			C661.4,85.5,659.5,87.4,657.1,87.4z"/>
		<path class="st1" d="M672.7,87.4h-3c-2.3,0-4.2-1.9-4.2-4.2v-3c0-2.3,1.9-4.2,4.2-4.2h3c2.3,0,4.2,1.9,4.2,4.2v3
			C676.9,85.5,675,87.4,672.7,87.4z"/>
	</g>
	<g>
		<rect x="567.8" y="108.7" class="st0" width="118.3" height="52.3"/>
		<path class="st1" d="M688.4,163.2H565.6v-56.8h122.8V163.2z M570,158.8h113.9v-47.9H570V158.8z"/>
		<g>
			<g>
				<circle class="st2" cx="595.9" cy="135.1" r="14.8"/>
				<path class="st1" d="M595.9,151.1c-8.8,0-16-7.2-16-16c0-8.8,7.2-16,16-16c8.8,0,16,7.2,16,16
					C612,143.9,604.8,151.1,595.9,151.1z M595.9,121.5c-7.5,0-13.6,6.1-13.6,13.6c0,7.5,6.1,13.6,13.6,13.6
					c7.5,0,13.6-6.1,13.6-13.6C609.5,127.6,603.4,121.5,595.9,121.5z"/>
			</g>
			<circle class="st3" cx="595.9" cy="135.1" r="9.2"/>
		</g>
		<path class="st1" d="M657.1,133.2h-3c-2.3,0-4.2-1.9-4.2-4.2v-3c0-2.3,1.9-4.2,4.2-4.2h3c2.3,0,4.2,1.9,4.2,4.2v3
			C661.4,131.3,659.5,133.2,657.1,133.2z"/>
		<path class="st1" d="M672.7,133.2h-3.1c-2.3,0-4.2-1.9-4.2-4.2V126c0-2.3,1.9-4.2,4.2-4.2h3.1c2.3,0,4.2,1.9,4.2,4.2v3.1
			C676.9,131.3,675,133.2,672.7,133.2z"/>
		<path class="st1" d="M657.1,148.4h-3c-2.3,0-4.2-1.9-4.2-4.2v-3c0-2.3,1.9-4.2,4.2-4.2h3c2.3,0,4.2,1.9,4.2,4.2v3
			C661.4,146.5,659.5,148.4,657.1,148.4z"/>
		<path class="st1" d="M672.7,148.4h-3c-2.3,0-4.2-1.9-4.2-4.2v-3c0-2.3,1.9-4.2,4.2-4.2h3c2.3,0,4.2,1.9,4.2,4.2v3
			C676.9,146.5,675,148.4,672.7,148.4z"/>
	</g>
	<g>
		<rect x="567.8" y="169.7" class="st0" width="118.3" height="52.3"/>
		<path class="st1" d="M688.4,224.2H565.6v-56.8h122.8V224.2z M570,219.8h113.9v-47.9H570V219.8z"/>
		<g>
			<g>
				<circle class="st2" cx="595.9" cy="196.1" r="14.8"/>
				<path class="st1" d="M595.9,212.1c-8.8,0-16-7.2-16-16c0-8.8,7.2-16,16-16c8.8,0,16,7.2,16,16
					C612,204.9,604.8,212.1,595.9,212.1z M595.9,182.5c-7.5,0-13.6,6.1-13.6,13.6s6.1,13.6,13.6,13.6c7.5,0,13.6-6.1,13.6-13.6
					S603.4,182.5,595.9,182.5z"/>
			</g>
			<circle class="st3" cx="595.9" cy="196.1" r="9.2"/>
		</g>
		<path class="st1" d="M657.1,194.2h-3c-2.3,0-4.2-1.9-4.2-4.2v-3c0-2.3,1.9-4.2,4.2-4.2h3c2.3,0,4.2,1.9,4.2,4.2v3
			C661.4,192.3,659.5,194.2,657.1,194.2z"/>
		<path class="st1" d="M672.7,194.2h-3.1c-2.3,0-4.2-1.9-4.2-4.2V187c0-2.3,1.9-4.2,4.2-4.2h3.1c2.3,0,4.2,1.9,4.2,4.2v3.1
			C676.9,192.3,675,194.2,672.7,194.2z"/>
		<path class="st1" d="M657.1,209.4h-3c-2.3,0-4.2-1.9-4.2-4.2v-3c0-2.3,1.9-4.2,4.2-4.2h3c2.3,0,4.2,1.9,4.2,4.2v3
			C661.4,207.5,659.5,209.4,657.1,209.4z"/>
		<path class="st1" d="M672.7,209.4h-3c-2.3,0-4.2-1.9-4.2-4.2v-3c0-2.3,1.9-4.2,4.2-4.2h3c2.3,0,4.2,1.9,4.2,4.2v3
			C676.9,207.5,675,209.4,672.7,209.4z"/>
	</g>
</g>
<g>
	<g>
		<path class="st4" d="M929.5,71.8h-6c-1.5,0-2.8-1.2-2.8-2.8s1.2-2.8,2.8-2.8h6c1.5,0,2.8,1.2,2.8,2.8S931,71.8,929.5,71.8z"/>
		<path class="st4" d="M949.1,71.8h-9.8c-1.5,0-2.8-1.2-2.8-2.8s1.2-2.8,2.8-2.8h9.8c1.5,0,2.8,1.2,2.8,2.8S950.6,71.8,949.1,71.8z"
			/>
		<path class="st4" d="M964.9,77.8c-1.5,0-2.8-1.2-2.8-2.8v-3.2h-3.2c-1.5,0-2.8-1.2-2.8-2.8s1.2-2.8,2.8-2.8h8.8v8.8
			C967.6,76.6,966.4,77.8,964.9,77.8z"/>
		<path class="st4" d="M964.9,183.3c-1.5,0-2.8-1.2-2.8-2.8v-13.2c0-1.5,1.2-2.8,2.8-2.8s2.8,1.2,2.8,2.8v13.2
			C967.6,182.1,966.4,183.3,964.9,183.3z M964.9,156.9c-1.5,0-2.8-1.2-2.8-2.8V141c0-1.5,1.2-2.8,2.8-2.8s2.8,1.2,2.8,2.8v13.2
			C967.6,155.7,966.4,156.9,964.9,156.9z M964.9,130.5c-1.5,0-2.8-1.2-2.8-2.8v-13.2c0-1.5,1.2-2.8,2.8-2.8s2.8,1.2,2.8,2.8v13.2
			C967.6,129.3,966.4,130.5,964.9,130.5z M964.9,104.2c-1.5,0-2.8-1.2-2.8-2.8V88.2c0-1.5,1.2-2.8,2.8-2.8s2.8,1.2,2.8,2.8v13.2
			C967.6,102.9,966.4,104.2,964.9,104.2z"/>
		<path class="st4" d="M967.6,202.5h-8.8c-1.5,0-2.8-1.2-2.8-2.8s1.2-2.8,2.8-2.8h3.2v-3.2c0-1.5,1.2-2.8,2.8-2.8s2.8,1.2,2.8,2.8
			V202.5z"/>
		<path class="st4" d="M950.4,202.5h-8.5c-1.5,0-2.8-1.2-2.8-2.8s1.2-2.8,2.8-2.8h8.5c1.5,0,2.8,1.2,2.8,2.8
			S951.9,202.5,950.4,202.5z"/>
		<path class="st4" d="M933.4,202.5h-6c-1.5,0-2.8-1.2-2.8-2.8s1.2-2.8,2.8-2.8h6c1.5,0,2.8,1.2,2.8,2.8S934.9,202.5,933.4,202.5z"
			/>
	</g>
	<g>
		<path class="st1" d="M921.6,225.8h-8.8c-1.5,0-2.8-1.2-2.8-2.8s1.2-2.8,2.8-2.8h3.2v-3.2c0-1.5,1.2-2.8,2.8-2.8s2.8,1.2,2.8,2.8
			V225.8z"/>
		<path class="st1" d="M901,225.8h-11.9c-1.5,0-2.8-1.2-2.8-2.8s1.2-2.8,2.8-2.8H901c1.5,0,2.8,1.2,2.8,2.8S902.6,225.8,901,225.8z
			 M877.3,225.8h-11.9c-1.5,0-2.8-1.2-2.8-2.8s1.2-2.8,2.8-2.8h11.9c1.5,0,2.8,1.2,2.8,2.8S878.8,225.8,877.3,225.8z M853.6,225.8
			h-11.9c-1.5,0-2.8-1.2-2.8-2.8s1.2-2.8,2.8-2.8h11.9c1.5,0,2.8,1.2,2.8,2.8S855.1,225.8,853.6,225.8z M829.9,225.8H818
			c-1.5,0-2.8-1.2-2.8-2.8s1.2-2.8,2.8-2.8h11.9c1.5,0,2.8,1.2,2.8,2.8S831.4,225.8,829.9,225.8z"/>
		<path class="st1" d="M806.1,225.8h-8.8v-8.8c0-1.5,1.2-2.8,2.8-2.8s2.8,1.2,2.8,2.8v3.2h3.2c1.5,0,2.8,1.2,2.8,2.8
			S807.7,225.8,806.1,225.8z"/>
		<path class="st1" d="M800.1,207.4c-1.5,0-2.8-1.2-2.8-2.8v-12.5c0-1.5,1.2-2.8,2.8-2.8s2.8,1.2,2.8,2.8v12.5
			C802.9,206.1,801.7,207.4,800.1,207.4z M800.1,182.4c-1.5,0-2.8-1.2-2.8-2.8v-12.5c0-1.5,1.2-2.8,2.8-2.8s2.8,1.2,2.8,2.8v12.5
			C802.9,181.2,801.7,182.4,800.1,182.4z M800.1,157.5c-1.5,0-2.8-1.2-2.8-2.8v-12.5c0-1.5,1.2-2.8,2.8-2.8s2.8,1.2,2.8,2.8v12.5
			C802.9,156.3,801.7,157.5,800.1,157.5z M800.1,132.6c-1.5,0-2.8-1.2-2.8-2.8v-12.5c0-1.5,1.2-2.8,2.8-2.8s2.8,1.2,2.8,2.8v12.5
			C802.9,131.4,801.7,132.6,800.1,132.6z M800.1,107.7c-1.5,0-2.8-1.2-2.8-2.8V92.5c0-1.5,1.2-2.8,2.8-2.8s2.8,1.2,2.8,2.8V105
			C802.9,106.5,801.7,107.7,800.1,107.7z M800.1,82.8c-1.5,0-2.8-1.2-2.8-2.8V67.6c0-1.5,1.2-2.8,2.8-2.8s2.8,1.2,2.8,2.8v12.5
			C802.9,81.6,801.7,82.8,800.1,82.8z"/>
		<path class="st1" d="M800.1,57.9c-1.5,0-2.8-1.2-2.8-2.8v-8.8h8.8c1.5,0,2.8,1.2,2.8,2.8s-1.2,2.8-2.8,2.8h-3.2v3.2
			C802.9,56.7,801.7,57.9,800.1,57.9z"/>
		<path class="st1" d="M901,51.9h-11.9c-1.5,0-2.8-1.2-2.8-2.8s1.2-2.8,2.8-2.8H901c1.5,0,2.8,1.2,2.8,2.8S902.6,51.9,901,51.9z
			 M877.3,51.9h-11.9c-1.5,0-2.8-1.2-2.8-2.8s1.2-2.8,2.8-2.8h11.9c1.5,0,2.8,1.2,2.8,2.8S878.8,51.9,877.3,51.9z M853.6,51.9h-11.9
			c-1.5,0-2.8-1.2-2.8-2.8s1.2-2.8,2.8-2.8h11.9c1.5,0,2.8,1.2,2.8,2.8S855.1,51.9,853.6,51.9z M829.9,51.9H818
			c-1.5,0-2.8-1.2-2.8-2.8s1.2-2.8,2.8-2.8h11.9c1.5,0,2.8,1.2,2.8,2.8S831.4,51.9,829.9,51.9z"/>
		<path class="st1" d="M918.9,57.9c-1.5,0-2.8-1.2-2.8-2.8v-3.2h-3.2c-1.5,0-2.8-1.2-2.8-2.8s1.2-2.8,2.8-2.8h8.8v8.8
			C921.6,56.7,920.4,57.9,918.9,57.9z"/>
		<path class="st1" d="M918.9,207.4c-1.5,0-2.8-1.2-2.8-2.8v-12.5c0-1.5,1.2-2.8,2.8-2.8s2.8,1.2,2.8,2.8v12.5
			C921.6,206.1,920.4,207.4,918.9,207.4z M918.9,182.4c-1.5,0-2.8-1.2-2.8-2.8v-12.5c0-1.5,1.2-2.8,2.8-2.8s2.8,1.2,2.8,2.8v12.5
			C921.6,181.2,920.4,182.4,918.9,182.4z M918.9,157.5c-1.5,0-2.8-1.2-2.8-2.8v-12.5c0-1.5,1.2-2.8,2.8-2.8s2.8,1.2,2.8,2.8v12.5
			C921.6,156.3,920.4,157.5,918.9,157.5z M918.9,132.6c-1.5,0-2.8-1.2-2.8-2.8v-12.5c0-1.5,1.2-2.8,2.8-2.8s2.8,1.2,2.8,2.8v12.5
			C921.6,131.4,920.4,132.6,918.9,132.6z M918.9,107.7c-1.5,0-2.8-1.2-2.8-2.8V92.5c0-1.5,1.2-2.8,2.8-2.8s2.8,1.2,2.8,2.8V105
			C921.6,106.5,920.4,107.7,918.9,107.7z M918.9,82.8c-1.5,0-2.8-1.2-2.8-2.8V67.6c0-1.5,1.2-2.8,2.8-2.8s2.8,1.2,2.8,2.8v12.5
			C921.6,81.6,920.4,82.8,918.9,82.8z"/>
	</g>
	<rect x="820.4" y="69.2" class="st5" width="81.5" height="24.8"/>
	<rect x="820.4" y="104.7" class="st5" width="81.5" height="24.8"/>
	<rect x="820.4" y="140.2" class="st5" width="81.5" height="24.8"/>
	<g>
		<circle class="st5" cx="831.7" cy="189.6" r="10.9"/>
		<circle class="st5" cx="860.7" cy="189.6" r="10.9"/>
		<rect x="882.6" y="180.2" class="st5" width="18.9" height="18.9"/>
	</g>
</g>
<g>
	<path class="st4" d="M1226.6,201.5h-47.4c-1.5,0-2.8-1.2-2.8-2.8s1.2-2.8,2.8-2.8h41.9V70.8h-38.6c-1.5,0-2.8-1.2-2.8-2.8
		s1.2-2.8,2.8-2.8h44.1V201.5z"/>
	<path class="st1" d="M1176,50.9v167.5h-110.9V50.9H1176 M1181.5,45.4h-121.9v178.5h121.9V45.4L1181.5,45.4z"/>
	<rect x="1075.3" y="60.3" class="st0" width="90.7" height="32.2"/>
	<path class="st1" d="M1167.7,93.9h-94.1V58.9h94.1V93.9z M1077,91.1h87.3V61.6H1077V91.1z"/>
	<g>
		<g>
			<circle class="st2" cx="1092.3" cy="76.5" r="9.1"/>
			<path class="st1" d="M1092.3,86.4c-5.4,0-9.9-4.4-9.9-9.9c0-5.4,4.4-9.9,9.9-9.9s9.9,4.4,9.9,9.9
				C1102.1,82,1097.7,86.4,1092.3,86.4z M1092.3,68.2c-4.6,0-8.3,3.7-8.3,8.3c0,4.6,3.7,8.3,8.3,8.3s8.3-3.7,8.3-8.3
				C1100.6,71.9,1096.9,68.2,1092.3,68.2z"/>
		</g>
		<circle class="st3" cx="1092.3" cy="76.5" r="5.7"/>
	</g>
	<path class="st1" d="M1147.1,75.4h-2.2c-1.3,0-2.4-1.1-2.4-2.4v-2.2c0-1.3,1.1-2.4,2.4-2.4h2.2c1.3,0,2.4,1.1,2.4,2.4V73
		C1149.6,74.3,1148.5,75.4,1147.1,75.4z"/>
	<path class="st1" d="M1156.7,75.4h-2.2c-1.3,0-2.4-1.1-2.4-2.4v-2.2c0-1.3,1.1-2.4,2.4-2.4h2.2c1.3,0,2.4,1.1,2.4,2.4V73
		C1159.1,74.3,1158,75.4,1156.7,75.4z"/>
	<path class="st1" d="M1147.1,84.8h-2.2c-1.3,0-2.4-1.1-2.4-2.4v-2.2c0-1.3,1.1-2.4,2.4-2.4h2.2c1.3,0,2.4,1.1,2.4,2.4v2.2
		C1149.6,83.7,1148.5,84.8,1147.1,84.8z"/>
	<path class="st1" d="M1156.7,84.8h-2.2c-1.3,0-2.4-1.1-2.4-2.4v-2.2c0-1.3,1.1-2.4,2.4-2.4h2.2c1.3,0,2.4,1.1,2.4,2.4v2.2
		C1159.1,83.7,1158,84.8,1156.7,84.8z"/>
	<rect x="1075.3" y="97.8" class="st0" width="90.7" height="32.2"/>
	<path class="st1" d="M1167.7,131.4h-94.1V96.5h94.1V131.4z M1077,128.7h87.3V99.2H1077V128.7z"/>
	<g>
		<g>
			<circle class="st2" cx="1092.3" cy="114.1" r="9.1"/>
			<path class="st1" d="M1092.3,124c-5.4,0-9.9-4.4-9.9-9.9c0-5.4,4.4-9.9,9.9-9.9s9.9,4.4,9.9,9.9
				C1102.1,119.5,1097.7,124,1092.3,124z M1092.3,105.8c-4.6,0-8.3,3.7-8.3,8.3c0,4.6,3.7,8.3,8.3,8.3s8.3-3.7,8.3-8.3
				C1100.6,109.5,1096.9,105.8,1092.3,105.8z"/>
		</g>
		<circle class="st3" cx="1092.3" cy="114.1" r="5.7"/>
	</g>
	<path class="st1" d="M1147.1,113h-2.2c-1.3,0-2.4-1.1-2.4-2.4v-2.2c0-1.3,1.1-2.4,2.4-2.4h2.2c1.3,0,2.4,1.1,2.4,2.4v2.2
		C1149.6,111.9,1148.5,113,1147.1,113z"/>
	<path class="st1" d="M1156.7,113h-2.2c-1.3,0-2.4-1.1-2.4-2.4v-2.2c0-1.3,1.1-2.4,2.4-2.4h2.2c1.3,0,2.4,1.1,2.4,2.4v2.2
		C1159.1,111.9,1158,113,1156.7,113z"/>
	<path class="st1" d="M1147.1,122.3h-2.2c-1.3,0-2.4-1.1-2.4-2.4v-2.2c0-1.3,1.1-2.4,2.4-2.4h2.2c1.3,0,2.4,1.1,2.4,2.4v2.2
		C1149.6,121.2,1148.5,122.3,1147.1,122.3z"/>
	<path class="st1" d="M1156.7,122.3h-2.2c-1.3,0-2.4-1.1-2.4-2.4v-2.2c0-1.3,1.1-2.4,2.4-2.4h2.2c1.3,0,2.4,1.1,2.4,2.4v2.2
		C1159.1,121.2,1158,122.3,1156.7,122.3z"/>
	<rect x="1075.3" y="135.4" class="st0" width="90.7" height="32.2"/>
	<path class="st1" d="M1167.7,169h-94.1V134h94.1V169z M1077,166.3h87.3v-29.5H1077V166.3z"/>
	<g>
		<g>
			<circle class="st2" cx="1092.3" cy="151.7" r="9.1"/>
			<path class="st1" d="M1092.3,161.5c-5.4,0-9.9-4.4-9.9-9.9c0-5.4,4.4-9.9,9.9-9.9s9.9,4.4,9.9,9.9
				C1102.1,157.1,1097.7,161.5,1092.3,161.5z M1092.3,143.3c-4.6,0-8.3,3.7-8.3,8.3c0,4.6,3.7,8.3,8.3,8.3s8.3-3.7,8.3-8.3
				C1100.6,147.1,1096.9,143.3,1092.3,143.3z"/>
		</g>
		<circle class="st3" cx="1092.3" cy="151.7" r="5.7"/>
	</g>
	<path class="st1" d="M1147.1,150.5h-2.2c-1.3,0-2.4-1.1-2.4-2.4v-2.2c0-1.3,1.1-2.4,2.4-2.4h2.2c1.3,0,2.4,1.1,2.4,2.4v2.2
		C1149.6,149.4,1148.5,150.5,1147.1,150.5z"/>
	<path class="st1" d="M1156.7,150.5h-2.2c-1.3,0-2.4-1.1-2.4-2.4v-2.2c0-1.3,1.1-2.4,2.4-2.4h2.2c1.3,0,2.4,1.1,2.4,2.4v2.2
		C1159.1,149.4,1158,150.5,1156.7,150.5z"/>
	<path class="st1" d="M1147.1,159.9h-2.2c-1.3,0-2.4-1.1-2.4-2.4v-2.2c0-1.3,1.1-2.4,2.4-2.4h2.2c1.3,0,2.4,1.1,2.4,2.4v2.2
		C1149.6,158.8,1148.5,159.9,1147.1,159.9z"/>
	<path class="st1" d="M1156.7,159.9h-2.2c-1.3,0-2.4-1.1-2.4-2.4v-2.2c0-1.3,1.1-2.4,2.4-2.4h2.2c1.3,0,2.4,1.1,2.4,2.4v2.2
		C1159.1,158.8,1158,159.9,1156.7,159.9z"/>
	<g>
		<g>
			<circle class="st2" cx="1084.7" cy="196.1" r="9.6"/>
			<path class="st1" d="M1084.7,206.5c-5.7,0-10.4-4.7-10.4-10.4s4.7-10.4,10.4-10.4c5.7,0,10.4,4.7,10.4,10.4
				S1090.5,206.5,1084.7,206.5z M1084.7,187.3c-4.9,0-8.8,4-8.8,8.8s4,8.8,8.8,8.8c4.9,0,8.8-4,8.8-8.8S1089.6,187.3,1084.7,187.3z"
				/>
		</g>
		<circle class="st3" cx="1084.7" cy="196.1" r="6"/>
	</g>
	<g>
		<g>
			<circle class="st2" cx="1117.7" cy="196.1" r="9.6"/>
			<path class="st1" d="M1117.7,206.5c-5.7,0-10.4-4.7-10.4-10.4s4.7-10.4,10.4-10.4c5.7,0,10.4,4.7,10.4,10.4
				S1123.5,206.5,1117.7,206.5z M1117.7,187.3c-4.9,0-8.8,4-8.8,8.8s4,8.8,8.8,8.8c4.9,0,8.8-4,8.8-8.8S1122.6,187.3,1117.7,187.3z"
				/>
		</g>
		<circle class="st3" cx="1117.7" cy="196.1" r="6"/>
	</g>
	<path class="st1" d="M1147.5,194.4h-1.5c-1.9,0-3.5-1.6-3.5-3.5v-1.5c0-1.9,1.6-3.5,3.5-3.5h1.5c1.9,0,3.5,1.6,3.5,3.5v1.5
		C1151.1,192.8,1149.5,194.4,1147.5,194.4z"/>
	<path class="st1" d="M1159.1,194.4h-1.5c-1.9,0-3.5-1.6-3.5-3.5v-1.5c0-1.9,1.6-3.5,3.5-3.5h1.5c1.9,0,3.5,1.6,3.5,3.5v1.5
		C1162.7,192.8,1161.1,194.4,1159.1,194.4z"/>
	<path class="st1" d="M1147.5,205.7h-1.5c-1.9,0-3.5-1.6-3.5-3.5v-1.5c0-1.9,1.6-3.5,3.5-3.5h1.5c1.9,0,3.5,1.6,3.5,3.5v1.5
		C1151.1,204.1,1149.5,205.7,1147.5,205.7z"/>
	<path class="st1" d="M1159.1,205.7h-1.5c-1.9,0-3.5-1.6-3.5-3.5v-1.5c0-1.9,1.6-3.5,3.5-3.5h1.5c1.9,0,3.5,1.6,3.5,3.5v1.5
		C1162.7,204.1,1161.1,205.7,1159.1,205.7z"/>
</g>
</svg>
