<?xml version="1.0" encoding="utf-8"?>
<!-- Generator: Adobe Illustrator 22.0.1, SVG Export Plug-In . SVG Version: 6.00 Build 0)  -->
<svg version="1.1" id="Layer_1" xmlns="http://www.w3.org/2000/svg" xmlns:xlink="http://www.w3.org/1999/xlink" x="0px" y="0px"
	 viewBox="0 0 32 32" style="enable-background:new 0 0 32 32;" xml:space="preserve">
<style type="text/css">
	.st0{clip-path:url(#SVGID_2_);fill:#536A81;}
	.st1{clip-path:url(#SVGID_4_);fill:#BAC6D2;}
	.st2{clip-path:url(#SVGID_6_);fill:#FECC53;}
	.st3{opacity:0.15;clip-path:url(#SVGID_8_);}
	.st4{opacity:0.5;clip-path:url(#SVGID_10_);fill:#FFFFFF;}
	.st5{clip-path:url(#SVGID_12_);fill:#8298AE;}
	.st6{clip-path:url(#SVGID_14_);fill:#8298AE;}
</style>
<g>
	<defs>
		<path id="SVGID_1_" d="M13.4,27.5c0,1.4,1.2,2.6,2.6,2.6c1.4,0,2.6-1.2,2.6-2.6c0-1.4-1.2-2.6-2.6-2.6
			C14.6,24.9,13.4,26,13.4,27.5"/>
	</defs>
	<clipPath id="SVGID_2_">
		<use xlink:href="#SVGID_1_"  style="overflow:visible;"/>
	</clipPath>
	<rect x="8.3" y="19" class="st0" width="15.5" height="15.4"/>
</g>
<g>
	<defs>
		<path id="SVGID_3_" d="M18.8,28.1c1.4,0,2.5-1.2,2.5-2.5l0-2l-10.7,0.1v1.9c0,1.4,1.2,2.5,2.6,2.5H18.8z"/>
	</defs>
	<clipPath id="SVGID_4_">
		<use xlink:href="#SVGID_3_"  style="overflow:visible;"/>
	</clipPath>
	<rect x="5.4" y="18.4" class="st1" width="21.1" height="14.8"/>
</g>
<g>
	<defs>
		<path id="SVGID_5_" d="M16,23.5l-5.2,0c-0.1,0-0.1-2.7-1.5-4.1c-1.6-1.6-2.3-3.2-2.5-3.8C6.3,14.5,6,13.2,6,12
			C6,6.5,10.3,2,15.7,2c0.1,0,0.2,0,0.3,0c0.1,0,0.2,0,0.3,0C21.7,2,26,6.5,26,12c0,1.3-0.3,2.5-0.7,3.6c-0.2,0.6-0.9,2.2-2.5,3.8
			c-1.5,1.5-1.5,4.1-1.5,4.1L16,23.5z"/>
	</defs>
	<clipPath id="SVGID_6_">
		<use xlink:href="#SVGID_5_"  style="overflow:visible;"/>
	</clipPath>
	<rect x="0.8" y="-3.1" class="st2" width="30.4" height="31.8"/>
</g>
<g>
	<defs>
		<path id="SVGID_7_" d="M13.6,13.4c-0.6,0-1-0.6-1.4-1.3c-0.2-0.4-0.4-0.6-0.5-0.7c-0.2,0.1-0.4,0.1-0.6-0.1
			c-0.3-0.2-0.4-0.6-0.2-0.9c0.1-0.2,0.5-0.4,0.9-0.4c0.8,0,1.3,0.9,1.6,1.5c0.1,0.1,0.1,0.3,0.2,0.4c0-0.1,0.1-0.1,0.1-0.2
			c0.1-0.2,0.2-0.4,0.4-0.6c0.6-0.8,1.3-1.2,2-1.2c0.5,0,1.2,0.3,1.7,1.5c0.1,0.3,0.2,0.4,0.3,0.5c0.1-0.1,0.2-0.3,0.3-0.6
			c0.5-1.3,1.6-1.4,2.1-1.4c0.4,0.1,0.6,0.4,0.6,0.7c-0.1,0.4-0.4,0.6-0.8,0.6c0,0-0.4-0.1-0.7,0.5c-0.5,1.2-1.1,1.4-1.6,1.5
			c0,0,0,0,0,0c-0.6,0-1.1-0.4-1.5-1.3c-0.2-0.5-0.5-0.7-0.6-0.8c-0.1,0-0.4,0.1-0.7,0.6c-0.1,0.2-0.2,0.4-0.3,0.5
			C14.5,12.9,14.2,13.4,13.6,13.4C13.6,13.4,13.6,13.4,13.6,13.4z"/>
	</defs>
	<clipPath id="SVGID_8_">
		<use xlink:href="#SVGID_7_"  style="overflow:visible;"/>
	</clipPath>
	<rect x="5.6" y="4.8" class="st3" width="20.8" height="13.7"/>
</g>
<g>
	<defs>
		<path id="SVGID_9_" d="M20.9,7.1c0.2,0,0.3-0.1,0.4-0.2c0.2-0.2,0.2-0.6,0-0.8c-1.6-1.6-3.8-2.4-6.1-2.4c-0.3,0-0.6,0.3-0.6,0.6
			c0,0.3,0.3,0.6,0.6,0.6c2,0,3.8,0.7,5.2,2.1C20.6,7,20.8,7.1,20.9,7.1"/>
	</defs>
	<clipPath id="SVGID_10_">
		<use xlink:href="#SVGID_9_"  style="overflow:visible;"/>
	</clipPath>
	<rect x="9.5" y="-1.5" class="st4" width="17.3" height="13.6"/>
</g>
<g>
	<defs>
		<path id="SVGID_11_" d="M10.7,22.8h10.7c0.4,0,0.7,0.3,0.7,0.7s-0.3,0.7-0.7,0.7H10.7c-0.4,0-0.7-0.3-0.7-0.7S10.3,22.8,10.7,22.8
			z"/>
	</defs>
	<clipPath id="SVGID_12_">
		<use xlink:href="#SVGID_11_"  style="overflow:visible;"/>
	</clipPath>
	<rect x="4.8" y="17.7" class="st5" width="22.5" height="11.5"/>
</g>
<g>
	<defs>
		<path id="SVGID_13_" d="M10.7,25.5h10.7c0.4,0,0.7,0.3,0.7,0.7c0,0.4-0.3,0.7-0.7,0.7H10.7c-0.4,0-0.7-0.3-0.7-0.7
			C10,25.7,10.3,25.5,10.7,25.5z"/>
	</defs>
	<clipPath id="SVGID_14_">
		<use xlink:href="#SVGID_13_"  style="overflow:visible;"/>
	</clipPath>
	<rect x="4.8" y="20.3" class="st6" width="22.5" height="11.5"/>
</g>
</svg>
