<?xml version="1.0" encoding="utf-8"?>
<!-- Generator: Adobe Illustrator 22.0.1, SVG Export Plug-In . SVG Version: 6.00 Build 0)  -->
<svg version="1.1" id="Layer_1" xmlns="http://www.w3.org/2000/svg" xmlns:xlink="http://www.w3.org/1999/xlink" x="0px" y="0px"
	 viewBox="0 0 32 32" style="enable-background:new 0 0 32 32;" xml:space="preserve">
<style type="text/css">
	.st0{fill:#69BDFF;}
	.st1{fill:#F1F4F6;}
	.st2{fill:#BAC6D2;}
	.st3{fill:#D6DDE4;}
	.st4{fill:#FF5D5D;}
</style>
<title>Illustration /  Core</title>
<desc>Created with Sketch.</desc>
<circle id="Oval" class="st0" cx="16" cy="16" r="14"/>
<path id="Path-40" class="st1" d="M16,3.6c-2.6,1.6-4.6,4.2-5.7,7.9s-1.7,7.1-1.4,10.3c4.6,0.6,8.6,0.6,11.8,0s5.7-2,7.7-4.2
	c0.2-4-1-7.3-3.5-10S19.4,3.6,16,3.6z"/>
<path id="Combined-Shape" class="st2" d="M16,3.6v12.7l-7.1,5.5c-0.5-3.1-0.1-6.5,1.1-10.2C11.3,7.9,13.2,5.2,16,3.6L16,3.6z"/>
<path id="Combined-Shape_1_" class="st3" d="M28.4,17.6L16,16V3.6c0,0,0,0.1,0,0c3.4,0,6.5,1.2,8.9,3.9S28.6,13.7,28.4,17.6
	L28.4,17.6z"/>
<path id="Path-40_1_" class="st4" d="M16,10.9c-1.1,0.7-1.9,1.8-2.4,3.3s-0.5,3-0.3,4.2c1.8,0.4,3.3,0.3,4.6,0.1
	c1.3-0.3,2.5-1,3.3-1.9c0.1-1.7-0.5-2.8-1.5-4S17.4,10.9,16,10.9z"/>
</svg>
