<?xml version="1.0" encoding="utf-8"?>
<!-- Generator: Adobe Illustrator 22.0.1, SVG Export Plug-In . SVG Version: 6.00 Build 0)  -->
<svg version="1.1" id="Layer_1" xmlns="http://www.w3.org/2000/svg" xmlns:xlink="http://www.w3.org/1999/xlink" x="0px" y="0px"
	 viewBox="0 0 32 32" style="enable-background:new 0 0 32 32;" xml:space="preserve">
<style type="text/css">
	.st0{clip-path:url(#SVGID_2_);fill:#80C7FF;}
	.st1{clip-path:url(#SVGID_4_);fill:#80C7FF;}
	.st2{clip-path:url(#SVGID_6_);fill:#2F3C49;}
	.st3{clip-path:url(#SVGID_8_);fill:#FFFFFF;}
	.st4{clip-path:url(#SVGID_10_);fill:#FECC53;}
	.st5{clip-path:url(#SVGID_12_);fill:#FFCD54;}
	.st6{clip-path:url(#SVGID_14_);fill:#2F3C49;}
</style>
<g>
	<defs>
		<path id="SVGID_1_" d="M3.2,14.1l-1.2,5c-0.1,0.3,0.1,0.5,0.4,0.6c0.1,0,0.2,0,0.3,0l5.4-2.3L3.2,14.1z"/>
	</defs>
	<clipPath id="SVGID_2_">
		<use xlink:href="#SVGID_1_"  style="overflow:visible;"/>
	</clipPath>
	<rect x="-3" y="9.1" class="st0" width="16.1" height="15.7"/>
</g>
<g>
	<defs>
		<circle id="SVGID_3_" cx="10.9" cy="10.8" r="8.9"/>
	</defs>
	<clipPath id="SVGID_4_">
		<use xlink:href="#SVGID_3_"  style="overflow:visible;"/>
	</clipPath>
	<rect x="-3.2" y="-3.3" class="st1" width="28.2" height="28.2"/>
</g>
<g>
	<defs>
		<path id="SVGID_5_" d="M11,7C12.1,7,13,7.9,13,8.9c0,0.9-0.6,1.6-1.3,1.8v0.4c0,0.3-0.3,0.6-0.6,0.6c-0.3,0-0.6-0.3-0.6-0.6v-1
			c0-0.3,0.3-0.6,0.6-0.6c0.4,0,0.7-0.3,0.7-0.7c0-0.4-0.3-0.7-0.7-0.7c-0.4,0-0.7,0.3-0.7,0.7c0,0.3-0.3,0.6-0.6,0.6
			S9.1,9.3,9.1,8.9C9.1,7.9,9.9,7,11,7z M11,12.2c0.3,0,0.6,0.3,0.6,0.6c0,0.3-0.3,0.6-0.6,0.6c-0.3,0-0.6-0.3-0.6-0.6
			C10.4,12.5,10.7,12.2,11,12.2z"/>
	</defs>
	<clipPath id="SVGID_6_">
		<use xlink:href="#SVGID_5_"  style="overflow:visible;"/>
	</clipPath>
	<rect x="4.1" y="2" class="st2" width="13.9" height="16.5"/>
</g>
<g>
	<defs>
		<path id="SVGID_7_" d="M21.8,11.3c-6.2,0-11.1,4.4-11.1,11.3h11.4L21.8,11.3z"/>
	</defs>
	<clipPath id="SVGID_8_">
		<use xlink:href="#SVGID_7_"  style="overflow:visible;"/>
	</clipPath>
	<rect x="5.5" y="6.3" class="st3" width="21.5" height="21.3"/>
</g>
<g>
	<defs>
		<circle id="SVGID_9_" cx="21" cy="21.5" r="8.5"/>
	</defs>
	<clipPath id="SVGID_10_">
		<use xlink:href="#SVGID_9_"  style="overflow:visible;"/>
	</clipPath>
	<rect x="7.5" y="8" class="st4" width="26.9" height="26.9"/>
</g>
<g>
	<defs>
		<path id="SVGID_11_" d="M28.1,24.3l1.9,5c0.1,0.3,0,0.5-0.3,0.6c-0.1,0-0.2,0-0.3,0l-5.7-1.4L28.1,24.3z"/>
	</defs>
	<clipPath id="SVGID_12_">
		<use xlink:href="#SVGID_11_"  style="overflow:visible;"/>
	</clipPath>
	<rect x="18.7" y="19.3" class="st5" width="16.3" height="15.7"/>
</g>
<g>
	<defs>
		<path id="SVGID_13_" d="M21,18c1.2,0,2.1,0.9,2.1,2.1c0,0.9-0.6,1.7-1.4,2v0.5c0,0.4-0.3,0.7-0.7,0.7c-0.4,0-0.7-0.3-0.7-0.7v-1
			c0-0.4,0.3-0.7,0.7-0.7c0.4,0,0.8-0.3,0.8-0.8c0-0.4-0.3-0.8-0.8-0.8c-0.4,0-0.8,0.3-0.8,0.8c0,0.4-0.3,0.7-0.7,0.7
			c-0.4,0-0.7-0.3-0.7-0.7C18.9,18.9,19.8,18,21,18z M21,23.7c0.4,0,0.6,0.3,0.7,0.7c0,0.4-0.3,0.7-0.7,0.7c-0.4,0-0.6-0.3-0.7-0.7
			C20.3,24,20.7,23.7,21,23.7z"/>
	</defs>
	<clipPath id="SVGID_14_">
		<use xlink:href="#SVGID_13_"  style="overflow:visible;"/>
	</clipPath>
	<rect x="13.9" y="13" class="st6" width="14.2" height="17"/>
</g>
</svg>
