<?xml version="1.0" encoding="utf-8"?>
<!-- Generator: Adobe Illustrator 22.0.1, SVG Export Plug-In . SVG Version: 6.00 Build 0)  -->
<svg version="1.1" id="Layer_1" xmlns="http://www.w3.org/2000/svg" xmlns:xlink="http://www.w3.org/1999/xlink" x="0px" y="0px"
	 viewBox="0 0 32 32" style="enable-background:new 0 0 32 32;" xml:space="preserve">
<style type="text/css">
	.st0{fill:#3BA9FF;}
	.st1{fill:#FECC53;}
	.st2{fill:#FFCD54;}
	.st3{fill:#69BDFF;}
</style>
<path class="st0" d="M28,5H17c-0.6,0-1-0.4-1-1V3.5C16,2.6,15.3,2,14.5,2H9C7.9,2,7,2.9,7,4v5h4.5c0.8,0,1.5,0.7,1.5,1.5V11
	c0,0.6,0.4,1,1,1h11c1.1,0,2,0.9,2,2v7h1c1.1,0,2-0.9,2-2V7C30,5.9,29.1,5,28,5z"/>
<path id="Rectangle_3_" class="st1" d="M4,11h5.5c0.8,0,1.5,0.7,1.5,1.5V13c0,0.6,0.4,1,1,1h11c1.1,0,2,0.9,2,2v12c0,1.1-0.9,2-2,2
	l0,0H4c-1.1,0-2-0.9-2-2V13C2,11.9,2.9,11,4,11z"/>
<path id="Combined-Shape" class="st2" d="M11.8,14H2v-1c0-1.1,0.9-2,2-2h5.5c0.8,0,1.5,0.7,1.5,1.5V13C11,13.5,11.3,13.9,11.8,14z
	 M23,30L23,30L23,30H4H23z"/>
<path class="st3" d="M28,5H17c0,0,0,0,0,0H7v4h4.5c0.8,0,1.5,0.7,1.5,1.5V11c0,0.6,0.4,1,1,1h11c1.1,0,2,0.9,2,2v7h1
	c1.1,0,2-0.9,2-2V7C30,5.9,29.1,5,28,5z"/>
</svg>
