<?xml version="1.0" encoding="utf-8"?>
<!-- Generator: Adobe Illustrator 22.0.1, SVG Export Plug-In . SVG Version: 6.00 Build 0)  -->
<svg version="1.1" id="Layer_1" xmlns="http://www.w3.org/2000/svg" xmlns:xlink="http://www.w3.org/1999/xlink" x="0px" y="0px"
	 viewBox="0 0 234.1 214.1" style="enable-background:new 0 0 234.1 214.1;" xml:space="preserve">
<style type="text/css">
	.st0{fill:#E2E2E2;}
	.st1{fill:#E84798;}
	.st2{fill:#172E55;}
	.st3{fill:#C7378D;}
</style>
<g>
	<g>
		<ellipse class="st0" cx="118.4" cy="48.1" rx="22.4" ry="15.1"/>
		<path class="st1" d="M141.7,196.4c0.1-0.9,0.2-1.8,0.2-2.8c0-13.9-11.3-25.2-25.2-25.2s-25.2,11.3-25.2,25.2
			c0,0.9,0.1,1.9,0.2,2.8H141.7z"/>
		<path class="st1" d="M203.6,196.8c0.1-0.9,0.2-1.8,0.2-2.8c0-13.9-11.3-25.2-25.2-25.2c-13.9,0-25.2,11.3-25.2,25.2
			c0,0.9,0.1,1.9,0.2,2.8H203.6z"/>
		<path class="st1" d="M80.9,196.4c0.1-0.9,0.2-1.8,0.2-2.8c0-13.9-11.3-25.2-25.2-25.2s-25.2,11.3-25.2,25.2c0,0.9,0.1,1.9,0.2,2.8
			H80.9z"/>
		<g>
			<path class="st2" d="M56.1,162.1c-10.6,0-19.2-8.6-19.2-19.2c0-10.6,8.6-19.2,19.2-19.2s19.2,8.6,19.2,19.2
				C75.3,153.5,66.7,162.1,56.1,162.1z M56.1,129.2c-7.6,0-13.7,6.2-13.7,13.7s6.2,13.7,13.7,13.7s13.7-6.2,13.7-13.7
				S63.7,129.2,56.1,129.2z"/>
			<path class="st2" d="M83.6,199.1H28.7l-0.3-2.4c-0.1-1-0.2-2-0.2-3.1c0-15.4,12.5-27.9,27.9-27.9S84,178.2,84,193.6
				c0,1-0.1,2.1-0.2,3.1L83.6,199.1z M33.7,193.6h44.9c0,0,0,0,0,0c0-12.4-10.1-22.4-22.4-22.4S33.7,181.2,33.7,193.6
				C33.7,193.6,33.7,193.6,33.7,193.6z"/>
		</g>
		<g>
			<path class="st2" d="M117.2,162.1c-10.6,0-19.2-8.6-19.2-19.2c0-10.6,8.6-19.2,19.2-19.2s19.2,8.6,19.2,19.2
				C136.4,153.5,127.8,162.1,117.2,162.1z M117.2,129.2c-7.6,0-13.7,6.2-13.7,13.7s6.2,13.7,13.7,13.7c7.6,0,13.7-6.2,13.7-13.7
				S124.8,129.2,117.2,129.2z"/>
			<path class="st2" d="M144.7,199.1H89.8l-0.3-2.4c-0.1-1-0.2-2-0.2-3.1c0-15.4,12.5-27.9,27.9-27.9c15.4,0,27.9,12.5,27.9,27.9
				c0,1-0.1,2.1-0.2,3.1L144.7,199.1z M94.8,193.6h44.9c0,0,0,0,0,0c0-12.4-10.1-22.4-22.4-22.4S94.8,181.2,94.8,193.6
				C94.8,193.6,94.8,193.6,94.8,193.6z"/>
		</g>
		<g>
			<path class="st2" d="M178.4,162.1c-10.6,0-19.2-8.6-19.2-19.2c0-10.6,8.6-19.2,19.2-19.2c10.6,0,19.2,8.6,19.2,19.2
				C197.6,153.5,189,162.1,178.4,162.1z M178.4,129.2c-7.6,0-13.7,6.2-13.7,13.7s6.2,13.7,13.7,13.7c7.6,0,13.7-6.2,13.7-13.7
				S185.9,129.2,178.4,129.2z"/>
			<path class="st2" d="M205.8,199.1h-54.9l-0.3-2.4c-0.1-1-0.2-2-0.2-3.1c0-15.4,12.5-27.9,27.9-27.9c15.4,0,27.9,12.5,27.9,27.9
				c0,1-0.1,2.1-0.2,3.1L205.8,199.1z M155.9,193.6h44.9c0,0,0,0,0,0c0-12.4-10.1-22.4-22.4-22.4S155.9,181.2,155.9,193.6
				C155.9,193.6,155.9,193.6,155.9,193.6z"/>
		</g>
		<g>
			<path class="st2" d="M54.5,123v-14.5c-15-3.2-25.7-14.2-25.7-26.9c0-15.4,15.5-27.8,34.6-27.8S98,66.2,98,81.5
				c0,14.2-13,26-30.4,27.6L54.5,123z M63.4,59.2c-16.1,0-29.1,10-29.1,22.4c0,10.6,9.8,19.8,23.4,21.9l2.3,0.4v5.4l5-5.3l1.1-0.1
				c14.8-1,26.4-10.8,26.4-22.2C92.5,69.2,79.4,59.2,63.4,59.2z"/>
		</g>
		<g>
			<path class="st2" d="M180.6,123l-13-13.8c-17.4-1.7-30.5-13.4-30.5-27.6c0-15.4,15.5-27.8,34.6-27.8s34.6,12.5,34.6,27.8
				c0,12.7-10.7,23.7-25.7,26.9V123z M171.7,59.2c-16.1,0-29.1,10-29.1,22.4c0,11.4,11.6,21.2,26.4,22.2l1.1,0.1l5,5.3v-5.4l2.3-0.4
				c13.5-2.1,23.4-11.3,23.4-21.9C200.8,69.2,187.8,59.2,171.7,59.2z"/>
		</g>
		<g>
			<path class="st2" d="M109.3,89.9V75.4c-15-3.2-25.7-14.2-25.7-26.9c0-15.4,15.5-27.8,34.6-27.8s34.6,12.5,34.6,27.8
				c0,14.2-13,26-30.4,27.6L109.3,89.9z M118.2,26.1c-16.1,0-29.1,10-29.1,22.4c0,10.6,9.8,19.8,23.4,21.9l2.3,0.4v5.4l5-5.3
				l1.1-0.1c14.8-1,26.4-10.8,26.4-22.2C147.3,36.1,134.3,26.1,118.2,26.1z"/>
		</g>
		<g>
			<polygon class="st2" points="114.3,45.5 108.8,45.5 108.8,51 114.3,51 114.3,45.5 			"/>
			<polygon class="st2" points="130.2,45.5 124.8,45.5 124.8,51 130.2,51 130.2,45.5 			"/>
		</g>
		<ellipse class="st0" cx="63.6" cy="81.4" rx="22.4" ry="15.1"/>
		<g>
			<polygon class="st2" points="58.6,78.2 53.1,78.2 53.1,83.7 58.6,83.7 58.6,78.2 			"/>
			<polygon class="st2" points="74.5,78.2 69,78.2 69,83.7 74.5,83.7 74.5,78.2 			"/>
		</g>
		<ellipse class="st0" cx="171.9" cy="81.2" rx="22.4" ry="15.1"/>
		<g>
			<polygon class="st2" points="167.8,78.7 162.3,78.7 162.3,84.2 167.8,84.2 167.8,78.7 			"/>
			<polygon class="st2" points="183.7,78.7 178.2,78.7 178.2,84.2 183.7,84.2 183.7,78.7 			"/>
		</g>
	</g>
	<path class="st3" d="M72.7,193.5c-1.1-8.5-7.9-15.1-16.3-15.1c-8.4,0-15.2,6.6-16.3,15.1H72.7z"/>
	<path class="st3" d="M134.2,193.5c-1.1-8.5-7.9-15.1-16.3-15.1c-8.4,0-15.2,6.6-16.3,15.1H134.2z"/>
	<path class="st3" d="M195.1,193.5c-1.1-8.5-7.9-15.1-16.3-15.1c-8.4,0-15.2,6.6-16.3,15.1H195.1z"/>
</g>
</svg>
