<?xml version="1.0" encoding="utf-8"?>
<!-- Generator: Adobe Illustrator 22.0.1, SVG Export Plug-In . SVG Version: 6.00 Build 0)  -->
<svg version="1.1" id="Layer_1" xmlns="http://www.w3.org/2000/svg" xmlns:xlink="http://www.w3.org/1999/xlink" x="0px" y="0px"
	 viewBox="0 0 48 48" style="enable-background:new 0 0 48 48;" xml:space="preserve">
<style type="text/css">
	.st0{fill:#FFCD54;}
	.st1{fill:#ADDBFF;}
	.st2{fill:#72BBFF;}
	.st3{fill:#333D56;}
</style>
<title>Illustration / Paper-plane</title>
<desc>Created with Sketch.</desc>
<g id="Illustration-_x2F_-Paper-plane">
	<g id="Group" transform="translate(2.000000, 2.000000)">
		<polygon id="Path-22" class="st0" points="40,5.7 10.7,22 40,32.6 		"/>
		<path id="Path-23" class="st1" d="M41.6,3.1c-8.9,17-14,26.4-15.1,28.3c-1.2,1.9-4.8,5.4-11,10.4L41.6,3.1z"/>
		<polygon id="Path-27" class="st2" points="42.8,1.6 15.9,41.8 15.5,28.2 		"/>
		<path id="Combined-Shape" class="st3" d="M16.3,28.1v12.2l9.9-8.9L40.1,5.5L16.3,28.1z M15.3,27l24-22.9L3.7,22.8L15.3,27z
			 M27.9,31.6l14.7,5.3V4.1L27.9,31.6z M14.8,28.5L0,23.1L44,0v39l-17.1-6.2L14.8,43.7V28.5z"/>
	</g>
</g>
</svg>
