<?xml version="1.0" encoding="utf-8"?>
<!-- Generator: Adobe Illustrator 22.0.1, SVG Export Plug-In . SVG Version: 6.00 Build 0)  -->
<svg version="1.1" id="Layer_1" xmlns="http://www.w3.org/2000/svg" xmlns:xlink="http://www.w3.org/1999/xlink" x="0px" y="0px"
	 viewBox="0 0 234.1 214.1" style="enable-background:new 0 0 234.1 214.1;" xml:space="preserve">
<style type="text/css">
	.st0{fill:#EAE095;}
	.st1{fill:#172E55;}
	.st2{fill:#FFFFFF;}
	.st3{fill:#CEC27C;}
	.st4{fill:#E2E2E2;}
	.st5{fill:#BBBBBB;}
</style>
<g>
	<g>
		<path class="st0" d="M195.9,180.5h-158c-1.2,0-2.2-1-2.2-2.2V62.8c0-1.2,1-2.2,2.2-2.2h158c1.2,0,2.2,1,2.2,2.2v115.5
			C198.1,179.5,197.1,180.5,195.9,180.5z"/>
	</g>
	<path class="st1" d="M199.5,196.5H34.6c-8.1,0-14.6-6.6-14.6-14.9v-122c0-8.2,6.5-14.9,14.6-14.9h61.7v6H34.6c-4.8,0-8.6,4-8.6,8.9
		v122c0,4.9,3.9,8.9,8.6,8.9h164.9c4.8,0,8.6-4,8.6-8.9v-122c0-4.9-3.9-8.9-8.6-8.9h-63.2v-6h63.2c8.1,0,14.6,6.6,14.6,14.9v122
		C214.1,189.7,207.5,196.5,199.5,196.5z"/>
	<g>
		<circle class="st2" cx="76" cy="107.9" r="18"/>
		<path class="st1" d="M76,128.8c-11.5,0-20.9-9.4-20.9-20.9S64.5,87,76,87s20.9,9.4,20.9,20.9S87.5,128.8,76,128.8z M76,92.9
			c-8.3,0-14.9,6.8-14.9,14.9s6.8,14.9,14.9,14.9c8.3,0,14.9-6.8,14.9-14.9S84.2,92.9,76,92.9z"/>
	</g>
	<g>
		<path class="st2" d="M103.2,166.1c0.1-1,0.2-2,0.2-3c0-15.1-12.3-27.4-27.4-27.4s-27.4,12.3-27.4,27.4c0,1,0.1,2.1,0.2,3H103.2z"
			/>
		<path class="st1" d="M105.8,169.1H46.1l-0.3-2.6c-0.1-1.1-0.2-2.2-0.2-3.4c0-16.8,13.6-30.4,30.4-30.4s30.4,13.6,30.4,30.4
			c0,1.1-0.1,2.3-0.2,3.4L105.8,169.1z M51.6,163.1h48.8l0,0c0-13.5-11-24.4-24.4-24.4S51.6,149.6,51.6,163.1L51.6,163.1z"/>
	</g>
	<g>
		<polygon class="st1" points="141.7,95.3 135.7,95.3 135.7,101.3 141.7,101.3 		"/>
		<polygon class="st1" points="176.3,95.3 170.4,95.3 170.4,101.3 176.3,101.3 		"/>
		<polygon class="st1" points="159,95.3 153,95.3 153,101.3 159,101.3 		"/>
	</g>
	<path class="st1" d="M188.2,125.3H125c-1.6,0-2.9-1.3-2.9-2.9s1.3-2.9,2.9-2.9h63.2c1.6,0,2.9,1.3,2.9,2.9S189.8,125.3,188.2,125.3
		z"/>
	<path class="st1" d="M188.2,146.2H125c-1.6,0-2.9-1.3-2.9-2.9c0-1.6,1.3-2.9,2.9-2.9h63.2c1.6,0,2.9,1.3,2.9,2.9
		C191.1,144.9,189.8,146.2,188.2,146.2z"/>
	<path class="st1" d="M188.2,167.1H125c-1.6,0-2.9-1.3-2.9-2.9c0-1.6,1.3-2.9,2.9-2.9h63.2c1.6,0,2.9,1.3,2.9,2.9
		C191.1,165.8,189.8,167.1,188.2,167.1z"/>
	<g>
		<path class="st3" d="M137.6,85.3H96.5c-1.2,0-2.2-1-2.2-2.2V61.8c0-1.2,1-2.2,2.2-2.2h41.2c1.2,0,2.2,1,2.2,2.2v21.3
			C139.8,84.3,138.8,85.3,137.6,85.3z"/>
	</g>
	<g>
		<path class="st4" d="M138.1,76.6H96.7c-1.2,0-2.2-1-2.2-2.2V22.7c0-1.2,1-2.2,2.2-2.2h41.4c1.2,0,2.2,1,2.2,2.2v51.7
			C140.2,75.6,139.3,76.6,138.1,76.6z"/>
		<path class="st1" d="M134.3,79.6h-33.9c-4.9,0-8.9-4-8.9-8.9V26.5c0-4.9,4-8.9,8.9-8.9h33.9c4.9,0,8.9,4,8.9,8.9v44.1
			C143.2,75.5,139.3,79.6,134.3,79.6z M100.4,23.5c-1.6,0-2.9,1.3-2.9,2.9v44.1c0,1.6,1.3,2.9,2.9,2.9h33.9c1.6,0,2.9-1.3,2.9-2.9
			v-44c0-1.6-1.3-2.9-2.9-2.9h-33.9V23.5z"/>
	</g>
	<path class="st5" d="M134.4,63.1c-0.4,2.5-1.9,4.4-3.7,4.4h-27.2c-1.7,0-3.2-1.7-3.6-4c-0.2,0.8-0.4,1.5-0.4,2.4
		c0,3.2,1.7,5.7,3.9,5.7H131c2.2,0,3.9-2.6,3.9-5.7C134.9,64.9,134.7,64,134.4,63.1z"/>
</g>
</svg>
