<?xml version="1.0" encoding="utf-8"?>
<!-- Generator: Adobe Illustrator 22.0.1, SVG Export Plug-In . SVG Version: 6.00 Build 0)  -->
<svg version="1.1" id="Layer_1" xmlns="http://www.w3.org/2000/svg" xmlns:xlink="http://www.w3.org/1999/xlink" x="0px" y="0px"
	 viewBox="0 0 32 32" style="enable-background:new 0 0 32 32;" xml:space="preserve">
<style type="text/css">
	.st0{clip-path:url(#SVGID_2_);fill:#FECC55;}
	.st1{clip-path:url(#SVGID_4_);fill:#D7DDE4;}
	.st2{clip-path:url(#SVGID_6_);fill:#BAC6D2;}
	.st3{clip-path:url(#SVGID_8_);fill:#8BC3EA;}
	.st4{clip-path:url(#SVGID_10_);fill:#5BA2D9;}
	.st5{opacity:0.15;clip-path:url(#SVGID_12_);fill:#1D252E;}
</style>
<g>
	<defs>
		<path id="SVGID_1_" d="M17.4,2h6.2C24.4,2,25,2.6,25,3.4v25.2c0,0.8-0.6,1.4-1.4,1.4h-6.2c-0.8,0-1.4-0.6-1.4-1.4V3.4
			C16,2.6,16.6,2,17.4,2z"/>
	</defs>
	<clipPath id="SVGID_2_">
		<use xlink:href="#SVGID_1_"  style="overflow:visible;"/>
	</clipPath>
	<rect x="11" y="-3" class="st0" width="19" height="38"/>
</g>
<g>
	<defs>
		<path id="SVGID_3_" d="M7,7.6v19.9l1.8,2.1c0.4,0.4,1,0.5,1.4,0.1c0,0,0.1-0.1,0.1-0.1l1.7-2.1V7.6H7z"/>
	</defs>
	<clipPath id="SVGID_4_">
		<use xlink:href="#SVGID_3_"  style="overflow:visible;"/>
	</clipPath>
	<rect x="2" y="2.6" class="st1" width="15" height="32.5"/>
</g>
<g>
	<defs>
		<path id="SVGID_5_" d="M9.8,7.6H12v19.9l-1.7,2.1c0,0-0.1,0.1-0.1,0.1c-0.1,0.1-0.2,0.1-0.3,0.2V7.6z"/>
	</defs>
	<clipPath id="SVGID_6_">
		<use xlink:href="#SVGID_5_"  style="overflow:visible;"/>
	</clipPath>
	<rect x="4.8" y="2.6" class="st2" width="12.1" height="32.4"/>
</g>
<g>
	<defs>
		<path id="SVGID_7_" d="M7,7.6h5v-3C12,3.2,10.9,2,9.5,2S7,3.2,7,4.6V7.6z"/>
	</defs>
	<clipPath id="SVGID_8_">
		<use xlink:href="#SVGID_7_"  style="overflow:visible;"/>
	</clipPath>
	<rect x="2" y="-3.2" class="st3" width="15" height="16"/>
</g>
<g>
	<defs>
		<path id="SVGID_9_" d="M9.9,3.4L9.9,3.4c0.8,0,1.5,0.7,1.5,1.5v1.8H9.9V3.4z"/>
	</defs>
	<clipPath id="SVGID_10_">
		<use xlink:href="#SVGID_9_"  style="overflow:visible;"/>
	</clipPath>
	<rect x="4.8" y="-1.7" class="st4" width="11.7" height="13.5"/>
</g>
<g>
	<defs>
		<path id="SVGID_11_" d="M21.4,25.9V27H17v-1.1H21.4z M20.2,21.7v1.1H17v-1.1H20.2z M20.2,17.5v1.1H17v-1.1H20.2z M21.6,13.4v1.1
			H17v-1.1H21.6z M20.2,9.2v1.1H17V9.2H20.2z M20.2,5v1.1H17V5H20.2z"/>
	</defs>
	<clipPath id="SVGID_12_">
		<use xlink:href="#SVGID_11_"  style="overflow:visible;"/>
	</clipPath>
	<rect x="12" class="st5" width="14.6" height="32"/>
</g>
</svg>
