<?xml version="1.0" encoding="utf-8"?>
<!-- Generator: Adobe Illustrator 22.0.1, SVG Export Plug-In . SVG Version: 6.00 Build 0)  -->
<svg version="1.1" id="Layer_1" xmlns="http://www.w3.org/2000/svg" xmlns:xlink="http://www.w3.org/1999/xlink" x="0px" y="0px"
	 viewBox="0 0 234.1 214.1" style="enable-background:new 0 0 234.1 214.1;" xml:space="preserve">
<style type="text/css">
	.st0{fill:#FADE9E;}
	.st1{fill:#19243F;}
	.st2{fill:#DDBB78;}
	.st3{filter:url(#Adobe_OpacityMaskFilter);}
	.st4{fill:#FFFFFF;}
	.st5{mask:url(#mask-2_26_);fill:#19243F;}
	.st6{filter:url(#Adobe_OpacityMaskFilter_1_);}
	.st7{mask:url(#mask-2_25_);fill:#19243F;}
	.st8{filter:url(#Adobe_OpacityMaskFilter_2_);}
	.st9{mask:url(#mask-2_24_);fill:#19243F;}
	.st10{filter:url(#Adobe_OpacityMaskFilter_3_);}
	.st11{mask:url(#mask-2_23_);fill:#19243F;}
	.st12{filter:url(#Adobe_OpacityMaskFilter_4_);}
	.st13{mask:url(#mask-2_22_);fill:#19243F;}
	.st14{filter:url(#Adobe_OpacityMaskFilter_5_);}
	.st15{mask:url(#mask-2_21_);fill:#19243F;}
	.st16{filter:url(#Adobe_OpacityMaskFilter_6_);}
	.st17{mask:url(#mask-2_20_);fill:#19243F;}
	.st18{filter:url(#Adobe_OpacityMaskFilter_7_);}
	.st19{mask:url(#mask-2_19_);fill:#EFEFEF;}
	.st20{filter:url(#Adobe_OpacityMaskFilter_8_);}
	.st21{mask:url(#mask-2_18_);fill:#CFD2D3;}
	.st22{filter:url(#Adobe_OpacityMaskFilter_9_);}
	.st23{mask:url(#mask-2_17_);fill:#67CAE5;}
	.st24{filter:url(#Adobe_OpacityMaskFilter_10_);}
	.st25{mask:url(#mask-2_16_);fill:#19243F;}
	.st26{filter:url(#Adobe_OpacityMaskFilter_11_);}
	.st27{mask:url(#mask-2_15_);fill:#19243F;}
	.st28{filter:url(#Adobe_OpacityMaskFilter_12_);}
	.st29{mask:url(#mask-2_14_);fill:#47ACC4;}
</style>
<g>
	<path id="Fill-1_2_" class="st0" d="M85.8,191.6l-21.7-21.7c-2.1-2.1-2.1-5.6,0-7.7L167.7,58.6c2.1-2.1,5.6-2.1,7.7,0l21.7,21.7
		c2.1,2.1,2.1,5.6,0,7.7L93.5,191.6C91.4,193.7,87.9,193.7,85.8,191.6"/>
	<path id="Fill-3_3_" class="st1" d="M173.4,60.5c-1.1-1.1-2.8-1.1-3.8,0L66,164.1c-1.1,1.1-1.1,2.8,0,3.8l21.7,21.7
		c1.1,1.1,2.8,1.1,3.8,0L195.2,86.1c1.1-1.1,1.1-2.8,0-3.8L173.4,60.5z M83.9,193.5l-21.7-21.7c-3.2-3.2-3.2-8.3,0-11.5L165.8,56.6
		c3.2-3.2,8.3-3.2,11.5,0L199,78.4c3.2,3.2,3.2,8.3,0,11.5L95.4,193.5C92.3,196.7,87.1,196.7,83.9,193.5z"/>
	<path id="Fill-5_2_" class="st2" d="M195.2,82l-5.7-5.7L81.9,184l5.7,5.7c1.1,1.1,2.8,1.1,3.8,0L195.2,85.9
		C196.3,84.8,196.3,83.1,195.2,82"/>
	<defs>
		<filter id="Adobe_OpacityMaskFilter" filterUnits="userSpaceOnUse" x="156.4" y="64.1" width="18.9" height="18.9">
			<feColorMatrix  type="matrix" values="1 0 0 0 0  0 1 0 0 0  0 0 1 0 0  0 0 0 1 0"/>
		</filter>
	</defs>
	<mask maskUnits="userSpaceOnUse" x="156.4" y="64.1" width="18.9" height="18.9" id="mask-2_26_">
		<g class="st3">
			<polygon id="path-1_26_" class="st4" points="9.5,119.1 89.7,199.2 204.9,84 124.7,3.9 			"/>
		</g>
	</mask>
	<polygon id="Fill-7_2_" class="st5" points="156.4,68 171.5,83.1 175.3,79.2 160.2,64.1 	"/>
	<defs>
		<filter id="Adobe_OpacityMaskFilter_1_" filterUnits="userSpaceOnUse" x="128.2" y="94" width="18.9" height="18.9">
			<feColorMatrix  type="matrix" values="1 0 0 0 0  0 1 0 0 0  0 0 1 0 0  0 0 0 1 0"/>
		</filter>
	</defs>
	<mask maskUnits="userSpaceOnUse" x="128.2" y="94" width="18.9" height="18.9" id="mask-2_25_">
		<g class="st6">
			<polygon id="path-1_25_" class="st4" points="9.5,119.1 89.7,199.2 204.9,84 124.7,3.9 			"/>
		</g>
	</mask>
	<polygon id="Fill-9_2_" class="st7" points="128.2,97.9 143.3,113 147.2,109.1 132.1,94 	"/>
	<defs>
		<filter id="Adobe_OpacityMaskFilter_2_" filterUnits="userSpaceOnUse" x="99.2" y="123" width="18.9" height="18.9">
			<feColorMatrix  type="matrix" values="1 0 0 0 0  0 1 0 0 0  0 0 1 0 0  0 0 0 1 0"/>
		</filter>
	</defs>
	<mask maskUnits="userSpaceOnUse" x="99.2" y="123" width="18.9" height="18.9" id="mask-2_24_">
		<g class="st8">
			<polygon id="path-1_24_" class="st4" points="9.5,119.1 89.7,199.2 204.9,84 124.7,3.9 			"/>
		</g>
	</mask>
	<polygon id="Fill-10_2_" class="st9" points="99.2,126.9 114.3,142 118.2,138.1 103.1,123 	"/>
	<defs>
		<filter id="Adobe_OpacityMaskFilter_3_" filterUnits="userSpaceOnUse" x="69.9" y="151.7" width="18.9" height="18.9">
			<feColorMatrix  type="matrix" values="1 0 0 0 0  0 1 0 0 0  0 0 1 0 0  0 0 0 1 0"/>
		</filter>
	</defs>
	<mask maskUnits="userSpaceOnUse" x="69.9" y="151.7" width="18.9" height="18.9" id="mask-2_23_">
		<g class="st10">
			<polygon id="path-1_23_" class="st4" points="9.5,119.1 89.7,199.2 204.9,84 124.7,3.9 			"/>
		</g>
	</mask>
	<polygon id="Fill-11_2_" class="st11" points="69.9,155.6 85,170.7 88.9,166.8 73.8,151.7 	"/>
	<defs>
		<filter id="Adobe_OpacityMaskFilter_4_" filterUnits="userSpaceOnUse" x="142.3" y="78.8" width="24.3" height="24.3">
			<feColorMatrix  type="matrix" values="1 0 0 0 0  0 1 0 0 0  0 0 1 0 0  0 0 0 1 0"/>
		</filter>
	</defs>
	<mask maskUnits="userSpaceOnUse" x="142.3" y="78.8" width="24.3" height="24.3" id="mask-2_22_">
		<g class="st12">
			<polygon id="path-1_22_" class="st4" points="9.5,119.1 89.7,199.2 204.9,84 124.7,3.9 			"/>
		</g>
	</mask>
	<polygon id="Fill-12_1_" class="st13" points="142.3,82.7 162.8,103.1 166.6,99.3 146.1,78.8 	"/>
	<defs>
		<filter id="Adobe_OpacityMaskFilter_5_" filterUnits="userSpaceOnUse" x="112.7" y="108.1" width="24.3" height="24.3">
			<feColorMatrix  type="matrix" values="1 0 0 0 0  0 1 0 0 0  0 0 1 0 0  0 0 0 1 0"/>
		</filter>
	</defs>
	<mask maskUnits="userSpaceOnUse" x="112.7" y="108.1" width="24.3" height="24.3" id="mask-2_21_">
		<g class="st14">
			<polygon id="path-1_21_" class="st4" points="9.5,119.1 89.7,199.2 204.9,84 124.7,3.9 			"/>
		</g>
	</mask>
	<polygon id="Fill-13" class="st15" points="112.7,112 133.2,132.4 137,128.6 116.5,108.1 	"/>
	<defs>
		<filter id="Adobe_OpacityMaskFilter_6_" filterUnits="userSpaceOnUse" x="83.4" y="137.7" width="24.3" height="24.3">
			<feColorMatrix  type="matrix" values="1 0 0 0 0  0 1 0 0 0  0 0 1 0 0  0 0 0 1 0"/>
		</filter>
	</defs>
	<mask maskUnits="userSpaceOnUse" x="83.4" y="137.7" width="24.3" height="24.3" id="mask-2_20_">
		<g class="st16">
			<polygon id="path-1_20_" class="st4" points="9.5,119.1 89.7,199.2 204.9,84 124.7,3.9 			"/>
		</g>
	</mask>
	<polygon id="Fill-14_1_" class="st17" points="83.4,141.5 103.9,162 107.7,158.2 87.3,137.7 	"/>
	<defs>
		<filter id="Adobe_OpacityMaskFilter_7_" filterUnits="userSpaceOnUse" x="35.6" y="40.8" width="92.8" height="101.3">
			<feColorMatrix  type="matrix" values="1 0 0 0 0  0 1 0 0 0  0 0 1 0 0  0 0 0 1 0"/>
		</filter>
	</defs>
	<mask maskUnits="userSpaceOnUse" x="35.6" y="40.8" width="92.8" height="101.3" id="mask-2_19_">
		<g class="st18">
			<polygon id="path-1_19_" class="st4" points="9.5,119.1 89.7,199.2 204.9,84 124.7,3.9 			"/>
		</g>
	</mask>
	<polygon id="Fill-15" class="st19" points="128.3,53.6 115.5,40.8 36.5,120.5 35.6,142.1 46,141 	"/>
	<defs>
		<filter id="Adobe_OpacityMaskFilter_8_" filterUnits="userSpaceOnUse" x="38.1" y="52.3" width="100" height="90.5">
			<feColorMatrix  type="matrix" values="1 0 0 0 0  0 1 0 0 0  0 0 1 0 0  0 0 0 1 0"/>
		</filter>
	</defs>
	<mask maskUnits="userSpaceOnUse" x="38.1" y="52.3" width="100" height="90.5" id="mask-2_18_">
		<g class="st20">
			<polygon id="path-1_18_" class="st4" points="9.5,119.1 89.7,199.2 204.9,84 124.7,3.9 			"/>
		</g>
	</mask>
	<polygon id="Fill-16_1_" class="st21" points="127.1,52.3 38.1,141.2 57.2,142.8 138.1,61.9 	"/>
	<defs>
		<filter id="Adobe_OpacityMaskFilter_9_" filterUnits="userSpaceOnUse" x="116.7" y="20.3" width="41.6" height="41.6">
			<feColorMatrix  type="matrix" values="1 0 0 0 0  0 1 0 0 0  0 0 1 0 0  0 0 0 1 0"/>
		</filter>
	</defs>
	<mask maskUnits="userSpaceOnUse" x="116.7" y="20.3" width="41.6" height="41.6" id="mask-2_17_">
		<g class="st22">
			<polygon id="path-1_17_" class="st4" points="9.5,119.1 89.7,199.2 204.9,84 124.7,3.9 			"/>
		</g>
	</mask>
	<polygon id="Fill-17" class="st23" points="116.7,40.5 138.1,61.9 158.3,41.7 136.9,20.3 	"/>
	<defs>
		<filter id="Adobe_OpacityMaskFilter_10_" filterUnits="userSpaceOnUse" x="32.7" y="18.2" width="128.1" height="127.4">
			<feColorMatrix  type="matrix" values="1 0 0 0 0  0 1 0 0 0  0 0 1 0 0  0 0 0 1 0"/>
		</filter>
	</defs>
	<mask maskUnits="userSpaceOnUse" x="32.7" y="18.2" width="128.1" height="127.4" id="mask-2_16_">
		<g class="st24">
			<polygon id="path-1_16_" class="st4" points="9.5,119.1 89.7,199.2 204.9,84 124.7,3.9 			"/>
		</g>
	</mask>
	<path id="Fill-18_1_" class="st25" d="M136.8,23.7L39,121.4l-0.3,0.7l-0.6,0.5l0.1,17.5l17.9,0.2l0.7-0.3l0.7,0.1l97.8-97.7l0-0.1
		L136.8,23.7z M34.4,143.9c-1-1-1.6-2.4-1.6-3.9l-0.1-17.5c0-1.4,0.5-2.7,1.5-3.8c0.3-0.5,0.6-0.9,0.9-1.3l97.7-97.7
		c2.1-2.1,5.6-2.1,7.8,0l18.5,18.5c2.2,2.2,2.2,5.6,0,7.8l-97.7,97.7c-1.1,1.1-2.5,1.6-4,1.6c-0.4,0.1-0.9,0.2-1.4,0.2l-17.8-0.1
		C36.8,145.6,35.4,144.9,34.4,143.9z"/>
	<defs>
		<filter id="Adobe_OpacityMaskFilter_11_" filterUnits="userSpaceOnUse" x="44.4" y="31.2" width="97.1" height="56.9">
			<feColorMatrix  type="matrix" values="1 0 0 0 0  0 1 0 0 0  0 0 1 0 0  0 0 0 1 0"/>
		</filter>
	</defs>
	<mask maskUnits="userSpaceOnUse" x="44.4" y="31.2" width="97.1" height="56.9" id="mask-2_15_">
		<g class="st26">
			<polygon id="path-1_15_" class="st4" points="9.5,119.1 89.7,199.2 204.9,84 124.7,3.9 			"/>
		</g>
	</mask>
	<path id="Fill-19" class="st27" d="M45.2,87.3c-1.1-1.1-1.1-2.8,0-3.8l45.2-45.2c5.1-5.1,10.4-7.5,15.7-7c6.9,0.6,11.3,6,12.2,7.1
		l22.4,22.4c1.1,1.1,1.1,2.8,0,3.8c-1.1,1.1-2.8,1.1-3.8,0l-22.9-23c0,0-3.4-4.6-8.4-5.1c-3.6-0.3-7.4,1.5-11.3,5.4L49,87.3
		C48,88.4,46.2,88.4,45.2,87.3"/>
	<defs>
		<filter id="Adobe_OpacityMaskFilter_12_" filterUnits="userSpaceOnUse" x="133.9" y="37.3" width="15.4" height="15.4">
			<feColorMatrix  type="matrix" values="1 0 0 0 0  0 1 0 0 0  0 0 1 0 0  0 0 0 1 0"/>
		</filter>
	</defs>
	<mask maskUnits="userSpaceOnUse" x="133.9" y="37.3" width="15.4" height="15.4" id="mask-2_14_">
		<g class="st28">
			<polygon id="path-1_14_" class="st4" points="9.5,119.1 89.7,199.2 204.9,84 124.7,3.9 			"/>
		</g>
	</mask>
	<path id="Fill-20_1_" class="st29" d="M136.3,52l-1.6-1.6c-1.1-1.1-1.1-2.8,0-3.8l8.4-8.4c1.1-1.1,2.8-1.1,3.8,0l1.6,1.6
		c1.1,1.1,1.1,2.8,0,3.8l-8.4,8.4C139.1,53,137.4,53,136.3,52"/>
</g>
</svg>
