<?xml version="1.0" encoding="utf-8"?>
<!-- Generator: Adobe Illustrator 22.0.1, SVG Export Plug-In . SVG Version: 6.00 Build 0)  -->
<svg version="1.1" id="Layer_1" xmlns="http://www.w3.org/2000/svg" xmlns:xlink="http://www.w3.org/1999/xlink" x="0px" y="0px"
	 viewBox="0 0 234.1 214.1" style="enable-background:new 0 0 234.1 214.1;" xml:space="preserve">
<style type="text/css">
	.st0{fill:#EF54CA;}
	.st1{fill:#19243F;}
	.st2{fill:#CC2FAE;}
	.st3{fill:#FFFFFF;}
	.st4{fill:#81E224;}
	.st5{fill:#6FBC1D;}
	.st6{fill:#22D7EF;}
	.st7{fill:#159FAD;}
	.st8{fill:#F4E190;}
	.st9{fill:#C9C3A7;}
	.st10{fill:#FFDB80;}
</style>
<g>
	<path class="st0" d="M81.5,139.8v-26.6c0-8.9-7.3-16.2-16.2-16.2h-1.1c-2.2,3.3-5.9,5.5-10.1,5.5s-7.9-2.2-10.1-5.5h-1.1
		c-8.9,0-16.2,7.3-16.2,16.2v26.6H81.5z"/>
	<path class="st1" d="M84.3,142.5H23.8v-29.4c0-10.5,8.5-19,19-19h2.6l0.8,1.2c1.7,2.7,4.7,4.2,7.8,4.2s6.1-1.6,7.8-4.2l0.8-1.2h2.6
		c10.5,0,19,8.5,19,19V142.5z M29.3,137h49.4v-23.9c0-7.3-5.9-13.3-13.2-13.5c-2.8,3.5-7,5.5-11.5,5.5c-4.5,0-8.7-2-11.5-5.5
		c-7.3,0.1-13.2,6.1-13.2,13.5V137z"/>
	<path class="st2" d="M71.7,136.9v-20.7c0-6.2-5.2-11.2-11.6-11.2H48c-6.4,0-11.6,5-11.6,11.2v20.7H71.7z"/>
	<circle class="st3" cx="54.5" cy="65.8" r="19.9"/>
	<path class="st1" d="M54.5,88.5c-12.5,0-22.7-10.2-22.7-22.7s10.2-22.7,22.7-22.7c12.5,0,22.7,10.2,22.7,22.7S67,88.5,54.5,88.5z
		 M54.5,48.7c-9.5,0-17.2,7.7-17.2,17.2S45.1,83,54.5,83c9.5,0,17.2-7.7,17.2-17.2S64,48.7,54.5,48.7z"/>
	<path class="st4" d="M207.5,138.8v-26.6c0-8.9-7.3-16.2-16.2-16.2h-1.1c-2.2,3.3-5.9,5.5-10.1,5.5s-7.9-2.2-10.1-5.5h-1.1
		c-8.9,0-16.2,7.3-16.2,16.2v26.6H207.5z"/>
	<path class="st1" d="M210.3,141.5h-60.4v-29.4c0-10.5,8.5-19,19-19h2.6l0.8,1.2c1.7,2.7,4.7,4.2,7.8,4.2s6.1-1.6,7.8-4.2l0.8-1.2
		h2.6c10.5,0,19,8.5,19,19V141.5z M155.3,136h49.4v-23.9c0-7.3-5.9-13.3-13.2-13.5c-2.8,3.5-7,5.5-11.5,5.5c-4.5,0-8.7-2-11.5-5.5
		c-7.3,0.1-13.2,6.1-13.2,13.5V136z"/>
	<path class="st5" d="M197.7,135.9v-20.7c0-6.2-5.2-11.2-11.6-11.2H174c-6.4,0-11.6,5-11.6,11.2v20.7H197.7z"/>
	<path class="st6" d="M165.5,178.9v-46c0-15.4-12.6-28-28-28h-2c-3.7,5.7-10.2,9.5-17.5,9.5s-13.7-3.8-17.5-9.5h-2
		c-15.4,0-28,12.6-28,28v46H165.5z"/>
	<path class="st1" d="M168.2,181.7H67.8v-48.7c0-17,13.8-30.8,30.8-30.8h3.4l0.8,1.2c3.4,5.2,9.1,8.2,15.2,8.2
		c6.1,0,11.8-3.1,15.2-8.2l0.8-1.2h3.4c17,0,30.8,13.8,30.8,30.8V181.7z M73.3,176.2h89.4v-43.2c0-13.9-11.3-25.3-25.3-25.3h-0.5
		c-4.5,6-11.4,9.5-18.9,9.5c-7.5,0-14.4-3.5-18.9-9.5h-0.5c-13.9,0-25.3,11.3-25.3,25.3V176.2z"/>
	<circle class="st3" cx="118.3" cy="65.7" r="30.5"/>
	<path class="st1" d="M118.3,98.9C99.9,98.9,85,84,85,65.7s14.9-33.2,33.2-33.2s33.2,14.9,33.2,33.2S136.6,98.9,118.3,98.9z
		 M118.3,37.9c-15.3,0-27.8,12.4-27.8,27.8s12.4,27.8,27.8,27.8S146,81,146,65.7S133.6,37.9,118.3,37.9z"/>
	<circle class="st3" cx="180.5" cy="64.8" r="19.9"/>
	<path class="st1" d="M180.5,87.5c-12.5,0-22.7-10.2-22.7-22.7s10.2-22.7,22.7-22.7c12.5,0,22.7,10.2,22.7,22.7S193,87.5,180.5,87.5
		z M180.5,47.7c-9.5,0-17.2,7.7-17.2,17.2S171.1,82,180.5,82c9.5,0,17.2-7.7,17.2-17.2S190,47.7,180.5,47.7z"/>
	<path class="st7" d="M148.5,175.9v-37c0-11-9-20-20-20h-20.9c-11,0-20,9-20,20v37H148.5z"/>
	<circle class="st8" cx="118.3" cy="65.7" r="21"/>
	<circle class="st9" cx="180.4" cy="65.5" r="12.1"/>
	<circle class="st10" cx="54.4" cy="65.5" r="12.1"/>
</g>
</svg>
