<?xml version="1.0" encoding="utf-8"?>
<!-- Generator: Adobe Illustrator 22.0.1, SVG Export Plug-In . SVG Version: 6.00 Build 0)  -->
<svg version="1.1" id="Layer_1" xmlns="http://www.w3.org/2000/svg" xmlns:xlink="http://www.w3.org/1999/xlink" x="0px" y="0px"
	 viewBox="0 0 234.1 214.1" style="enable-background:new 0 0 234.1 214.1;" xml:space="preserve">
<style type="text/css">
	.st0{fill:#FBB857;}
	.st1{fill:#D89336;}
	.st2{fill:#E2E2E2;}
	.st3{fill:#172E55;}
</style>
<g>
	<path class="st0" d="M156.6,195.9V163c0-3.7-4.9-6.8-10.9-6.8H138c-6,0-10.9,3-10.9,6.8v32.9H156.6z"/>
	<path class="st1" d="M147.8,195.8h7.5v-33.2c0-2.8-2.3-5.1-5.1-5.1c-1.1,0-2.1,0.4-3,1c0.4,0.7,0.6,1.5,0.6,2.4V195.8z"/>
	<path class="st2" d="M169.3,32.5h-66.2v19.1c0,12.1-9.9,21.9-21.9,21.9H60.6V176c0,3,2.5,5.5,5.5,5.5h61v-22.3h5.8V157h18.2v2.2h5
		v22.3h13.2c3,0,5.5-2.5,5.5-5.5V38C174.8,35,172.3,32.5,169.3,32.5z M141.7,136.2c-16.3,0-29.5-13.2-29.5-29.5s13.3-29.5,29.5-29.5
		c16.3,0,29.5,13.2,29.5,29.5S158,136.2,141.7,136.2z"/>
	<path class="st0" d="M91.5,23.1L49.1,61.4L77,62.3c0,0,14.6-0.9,14.6-13.5S91.5,23.1,91.5,23.1z"/>
	<path class="st3" d="M80.2,65.1H47.3v-5.5h32.9c4.5,0,8.2-3.7,8.2-8.2v-30h5.5v30C93.9,59,87.7,65.1,80.2,65.1z"/>
	<path class="st3" d="M142,140.4c-18.4,0-33.4-15-33.4-33.4s15-33.4,33.4-33.4s33.4,15,33.4,33.4C175.3,125.4,160.4,140.4,142,140.4
		z M142,79.2c-15.4,0-27.9,12.5-27.9,27.9s12.5,27.9,27.9,27.9s27.9-12.5,27.9-27.9C169.8,91.7,157.3,79.2,142,79.2z"/>
	<rect x="139.2" y="138.6" class="st3" width="5.5" height="16.9"/>
	<path class="st3" d="M154.8,196.1v-29.2c0-4.5-3.7-8.2-8.2-8.2H137c-4.5,0-8.2,3.7-8.2,8.2l-0.1,29L58.3,196
		c-7.6,0-13.7-6.2-13.7-13.7V60.1l45.8-42h85.3c7.6,0,13.7,6.2,13.7,13.7v150.5c0,7.6-6.2,13.7-13.7,13.7L154.8,196.1z M136.9,153.1
		h9.6c7.6,0,13.7,6.2,13.7,13.7v23.6h0.6h15c4.5,0,8.2-3.7,8.2-8.2V31.9c0-4.5-3.7-8.2-8.2-8.2H92.5L50.1,62.4v119.8
		c0,4.5,3.7,8.2,8.2,8.2l64.9-0.1v-0.9v-22.6C123.2,159.2,129.4,153.1,136.9,153.1z"/>
	<g>
		<polygon class="st3" points="125.5,47.2 120,47.2 120,52.8 125.5,52.8 		"/>
		<polygon class="st3" points="157.3,47.2 151.9,47.2 151.9,52.8 157.3,52.8 		"/>
		<polygon class="st3" points="141.4,47.2 135.9,47.2 135.9,52.8 141.4,52.8 		"/>
	</g>
	<g>
		<path class="st3" d="M117.7,89.3H74.6c-1.5,0-2.7-1.2-2.7-2.7s1.2-2.7,2.7-2.7h43.2c1.5,0,2.7,1.2,2.7,2.7S119.3,89.3,117.7,89.3z
			"/>
	</g>
	<g>
		<path class="st3" d="M111.1,109.2H74.6c-1.5,0-2.7-1.2-2.7-2.7s1.2-2.7,2.7-2.7h36.6c1.5,0,2.7,1.2,2.7,2.7
			S112.6,109.2,111.1,109.2z"/>
	</g>
	<g>
		<path class="st3" d="M118.4,129.1H74.6c-1.5,0-2.7-1.2-2.7-2.7s1.2-2.7,2.7-2.7h43.9c1.5,0,2.7,1.2,2.7,2.7
			S119.9,129.1,118.4,129.1z"/>
	</g>
	<path class="st0" d="M123.7,118.8c-0.6-2-1-4.2-1-6.5c0-12,9.7-21.7,21.7-21.7c8.4,0,15.7,4.8,19.3,11.8c-1.9-10.2-10.9-18-21.7-18
		c-12.2,0-22.1,9.9-22.1,22.1C120,111.1,121.3,115.2,123.7,118.8z"/>
</g>
</svg>
