<?xml version="1.0" encoding="utf-8"?>
<!-- Generator: Adobe Illustrator 22.0.1, SVG Export Plug-In . SVG Version: 6.00 Build 0)  -->
<svg version="1.1" id="Layer_1" xmlns="http://www.w3.org/2000/svg" xmlns:xlink="http://www.w3.org/1999/xlink" x="0px" y="0px"
	 viewBox="0 0 234.1 214.1" style="enable-background:new 0 0 234.1 214.1;" xml:space="preserve">
<style type="text/css">
	.st0{fill:#FBB857;}
	.st1{fill:#D89336;}
	.st2{fill:#E2E2E2;}
	.st3{fill:#172E55;}
</style>
<g>
	<path class="st0" d="M156.8,198.6v-32.9c0-3.7-4.9-6.8-10.9-6.8h-7.7c-6,0-10.9,3-10.9,6.8v32.9H156.8z"/>
	<path class="st1" d="M148,198.5h7.5v-33.2c0-2.8-2.3-5.1-5.1-5.1c-1.1,0-2.1,0.4-3,1c0.4,0.7,0.6,1.5,0.6,2.4V198.5z"/>
	<path class="st2" d="M169.5,35.2h-66.2v19.1c0,12.1-9.9,21.9-21.9,21.9H60.8v102.5c0,3,2.5,5.5,5.5,5.5h61v-22.3h5.8v-2.2h18.2v2.2
		h5v22.3h13.2c3,0,5.5-2.5,5.5-5.5v-138C175,37.7,172.5,35.2,169.5,35.2z M141.9,139c-16.3,0-29.5-13.2-29.5-29.5S125.7,80,141.9,80
		c16.3,0,29.5,13.2,29.5,29.5S158.2,139,141.9,139z"/>
	<path class="st0" d="M91.7,25.8L49.3,64.2l27.9,0.9c0,0,14.6-0.9,14.6-13.5S91.7,25.8,91.7,25.8z"/>
	<path class="st3" d="M80.4,67.8H47.5v-5.5h32.9c4.5,0,8.2-3.7,8.2-8.2v-30h5.5v30C94.1,61.7,87.9,67.8,80.4,67.8z"/>
	<path class="st3" d="M142.2,143.1c-18.4,0-33.4-15-33.4-33.4c0-18.4,15-33.4,33.4-33.4s33.4,15,33.4,33.4
		C175.5,128.1,160.6,143.1,142.2,143.1z M142.2,81.9c-15.4,0-27.9,12.5-27.9,27.9c0,15.4,12.5,27.9,27.9,27.9
		c15.4,0,27.9-12.5,27.9-27.9C170,94.4,157.5,81.9,142.2,81.9z"/>
	<rect x="139.4" y="141.3" class="st3" width="5.5" height="16.9"/>
	<path class="st3" d="M155,198.8v-29.2c0-4.5-3.7-8.2-8.2-8.2h-9.6c-4.5,0-8.2,3.7-8.2,8.2l-0.1,29l-70.3,0.1
		c-7.6,0-13.7-6.2-13.7-13.7V62.8l45.8-42H176c7.6,0,13.7,6.2,13.7,13.7V185c0,7.6-6.2,13.7-13.7,13.7L155,198.8z M137.1,155.9h9.6
		c7.6,0,13.7,6.2,13.7,13.7v23.6l0.6,0h15c4.5,0,8.2-3.7,8.2-8.2V34.6c0-4.5-3.7-8.2-8.2-8.2H92.7L50.3,65.2V185
		c0,4.5,3.7,8.2,8.2,8.2l64.9-0.1l0-0.9v-22.6C123.4,162,129.6,155.9,137.1,155.9z"/>
	<g>
		<polygon class="st3" points="125.7,50 120.2,50 120.2,55.5 125.7,55.5 125.7,50 		"/>
		<polygon class="st3" points="157.5,50 152.1,50 152.1,55.5 157.5,55.5 157.5,50 		"/>
		<polygon class="st3" points="141.6,50 136.1,50 136.1,55.5 141.6,55.5 141.6,50 		"/>
	</g>
	<g>
		<path class="st3" d="M117.9,92.1H74.8c-1.5,0-2.7-1.2-2.7-2.7s1.2-2.7,2.7-2.7h43.2c1.5,0,2.7,1.2,2.7,2.7S119.5,92.1,117.9,92.1z
			"/>
	</g>
	<g>
		<path class="st3" d="M111.3,112H74.8c-1.5,0-2.7-1.2-2.7-2.7c0-1.5,1.2-2.7,2.7-2.7h36.6c1.5,0,2.7,1.2,2.7,2.7
			C114.1,110.8,112.8,112,111.3,112z"/>
	</g>
	<g>
		<path class="st3" d="M118.6,131.9H74.8c-1.5,0-2.7-1.2-2.7-2.7s1.2-2.7,2.7-2.7h43.9c1.5,0,2.7,1.2,2.7,2.7
			S120.1,131.9,118.6,131.9z"/>
	</g>
	<path class="st0" d="M123.9,121.5c-0.6-2-1-4.2-1-6.5c0-12,9.7-21.7,21.7-21.7c8.4,0,15.7,4.8,19.3,11.8c-1.9-10.2-10.9-18-21.7-18
		c-12.2,0-22.1,9.9-22.1,22.1C120.2,113.8,121.5,118,123.9,121.5z"/>
</g>
</svg>
