<?xml version="1.0" encoding="UTF-8"?>
<svg width="99px" height="100px" viewBox="0 0 99 100" version="1.1" xmlns="http://www.w3.org/2000/svg" xmlns:xlink="http://www.w3.org/1999/xlink">
    <!-- Generator: Sketch 52.4 (67378) - http://www.bohemiancoding.com/sketch -->
    <title>Success illustration</title>
    <desc>Created with Sketch.</desc>
    <g id="Page-1" stroke="none" stroke-width="1" fill="none" fill-rule="evenodd">
        <g id="Artboard" transform="translate(-348.000000, -159.000000)">
            <g id="Success-illustration" transform="translate(349.000000, 160.000000)">
                <circle id="Oval" fill="#D7F3D2" cx="53" cy="54" r="45"></circle>
                <g id="noun_success_2019805" fill="#328423" stroke="#328423">
                    <path d="M47.3,94 C21.3,93.9 0.3,72.9 0.4,46.9 C0.5,20.9 21.5,-0.1 47.5,7.10531894e-15 C52.5,7.10531894e-15 57.4,0.8 62.1,2.4 C63.2,2.7 63.8,3.8 63.5,4.9 C63.2,6 62,6.5 61,6.2 C61,6.2 60.9,6.2 60.9,6.2 C38.1,-1.3 13.6,11.1 6.2,33.8 C4.8,38.1 4,42.5 4,47 C4.2,70.9 23.8,90.1 47.7,89.9 C68.8,89.7 86.6,74.3 90,53.5 C90.2,52.4 91.2,51.6 92.3,51.8 C93.4,52 94.2,53 94,54.1 C90.5,76.9 70.4,94 47.3,94 Z" id="Path"></path>
                    <path d="M45.5,62.6 C45,62.6 44.5,62.4 44.1,62 L24.6,42.6 C23.8,41.8 23.8,40.6 24.6,39.8 C25.4,39 26.6,39 27.4,39.8 L45.5,57.8 L87,16.5 C87.7,15.7 89,15.6 89.8,16.4 C90.6,17.1 90.7,18.4 89.9,19.2 C89.9,19.2 89.8,19.3 89.8,19.3 L46.9,62 C46.5,62.4 46,62.6 45.5,62.6 Z" id="Path"></path>
                </g>
            </g>
        </g>
    </g>
</svg>