<!-- Generated by IcoMoon.io -->
<svg version="1.1" xmlns="http://www.w3.org/2000/svg" width="256" height="256" viewBox="0 0 256 256">
<title>bell</title>
<path fill="#333" d="M42.667 160c12.8 0 20.267-9.6 21.333-28.8v-50.133c0-33.067 28.8-59.733 64-59.733s64 26.667 64 59.733v48c1.067 20.267 7.467 30.933 21.333 30.933h10.667c6.4 0 10.667 4.267 10.667 10.667s-4.267 10.667-10.667 10.667h-192c-6.4 0-10.667-4.267-10.667-10.667s4.267-10.667 10.667-10.667c0 0 10.667 0 10.667 0zM82.133 202.667h92.8c-9.6 19.2-26.667 32-45.867 32s-38.4-12.8-46.933-32z"></path>
</svg>
