<!-- Generated by IcoMoon.io -->
<svg version="1.1" xmlns="http://www.w3.org/2000/svg" width="256" height="256" viewBox="0 0 256 256">
<title>bucket-3</title>
<path fill="#333" d="M154.724 34.327l66.217 67.068c6.688 6.82 10.816 16.171 10.816 26.486s-4.128 19.667-10.822 26.493l0.005-0.006-66.217 67.068c-6.867 6.97-16.41 11.289-26.96 11.289-10.315 0-19.666-4.128-26.492-10.822l0.006 0.005v-0.474l-66.217-67.068c-6.688-6.82-10.816-16.171-10.816-26.486s4.128-19.667 10.822-26.493l-0.005 0.006 66.217-67.068c6.844-6.828 16.29-11.050 26.724-11.050s19.879 4.222 26.724 11.050l-0.001-0.001zM127.763 184.64c31.347 0 56.757-25.412 56.757-56.757s-25.412-56.757-56.757-56.757c-31.347 0-56.757 25.412-56.757 56.757v0c0 31.347 25.412 56.757 56.757 56.757v0zM127.763 156.262c-15.673 0-28.379-12.706-28.379-28.379s12.706-28.379 28.379-28.379c15.673 0 28.379 12.706 28.379 28.379v0c0 15.673-12.706 28.379-28.379 28.379v0z"></path>
</svg>
