<!-- Generated by IcoMoon.io -->
<svg version="1.1" xmlns="http://www.w3.org/2000/svg" width="256" height="256" viewBox="0 0 256 256">
<title>bullhorn</title>
<path fill="#333" d="M105.6 161.067l11.733 43.733c3.2 11.733-3.2 23.467-14.933 25.6-11.733 3.2-23.467-3.2-25.6-14.933l-18.133-67.2-21.333-5.333c-9.6-2.133-16-10.667-16-20.267v-40.533c0-9.6 6.4-18.133 16-20.267l117.333-33.067c11.733-3.2 23.467 3.2 26.667 14.933 0 2.133 0 4.267 0 5.333v104.533c0 11.733-9.6 21.333-21.333 21.333-2.133 0-3.2 0-5.333-1.067l-49.067-12.8zM202.667 134.4v-64c18.133 0 32 13.867 32 32s-13.867 32-32 32z"></path>
</svg>
