<!-- Generated by IcoMoon.io -->
<svg version="1.1" xmlns="http://www.w3.org/2000/svg" width="256" height="256" viewBox="0 0 256 256">
<title>camera</title>
<path fill="#333" d="M74.667 32l-10.667 21.333h-21.333c-11.733 0-21.333 9.6-21.333 21.333v128c0 11.733 9.6 21.333 21.333 21.333h170.667c11.733 0 21.333-9.6 21.333-21.333v-128c0-11.733-9.6-21.333-21.333-21.333h-21.333l-9.6-21.333h-107.733zM128 192c-29.867 0-53.333-23.467-53.333-53.333s23.467-53.333 53.333-53.333 53.333 23.467 53.333 53.333-23.467 53.333-53.333 53.333zM128 172.8c19.2 0 34.133-14.933 34.133-34.133s-14.933-34.133-34.133-34.133-34.133 14.933-34.133 34.133 14.933 34.133 34.133 34.133z"></path>
</svg>
