<!-- Generated by IcoMoon.io -->
<svg version="1.1" xmlns="http://www.w3.org/2000/svg" width="256" height="256" viewBox="0 0 256 256">
<title>cost-o</title>
<path fill="#333" d="M128 234.667c-58.667 0-106.667-48-106.667-106.667s48-106.667 106.667-106.667 106.667 48 106.667 106.667-48 106.667-106.667 106.667zM128 213.333c46.933 0 85.333-38.4 85.333-85.333s-38.4-85.333-85.333-85.333-85.333 38.4-85.333 85.333 38.4 85.333 85.333 85.333zM170.667 149.333c0 8.533-3.2 14.933-8.533 20.267s-12.8 9.6-22.4 11.733v7.467c0 3.2-1.067 5.333-3.2 7.467s-4.267 3.2-7.467 3.2c-3.2 0-5.333-1.067-7.467-3.2s-3.2-4.267-3.2-7.467v-7.467c-10.667-1.067-20.267-4.267-28.8-9.6-2.133-1.067-3.2-2.133-4.267-4.267 1.067-1.067 0-2.133 0-5.333s1.067-5.333 2.133-7.467c2.133-2.133 4.267-3.2 6.4-3.2 1.067 0 2.133 0 3.2 1.067s3.2 1.067 4.267 2.133c4.267 2.133 8.533 4.267 12.8 5.333s7.467 1.067 11.733 1.067c5.333 0 9.6-1.067 11.733-2.133 3.2-2.133 4.267-4.267 4.267-7.467 0-2.133-1.067-4.267-2.133-5.333-2.133-1.067-3.2-2.133-6.4-3.2s-6.4-2.133-10.667-3.2-13.867-4.267-18.133-5.333c-4.267-3.2-8.533-6.4-11.733-10.667s-5.333-9.6-5.333-17.067c0-7.467 3.2-14.933 8.533-20.267 5.333-6.4 12.8-9.6 22.4-11.733v-7.467c0-3.2 1.067-5.333 3.2-7.467s4.267-3.2 7.467-3.2c3.2 0 5.333 1.067 7.467 3.2s3.2 4.267 3.2 7.467v7.467c8.533 1.067 16 4.267 24.533 9.6 2.133 1.067 3.2 2.133 4.267 4.267s1.067 3.2 1.067 5.333-1.067 5.333-3.2 7.467c-2.133 2.133-4.267 3.2-6.4 3.2-1.067 0-2.133 0-3.2-1.067s-3.2-1.067-4.267-2.133c-1.067 0-2.133-1.067-4.267-2.133-4.267-1.067-6.4-2.133-9.6-3.2s-5.333-1.067-8.533-1.067c-4.267 0-8.533 1.067-10.667 3.2-3.2 2.133-4.267 4.267-4.267 7.467s1.067 5.333 4.267 7.467 8.533 3.2 14.933 4.267c7.467 2.133 13.867 3.2 18.133 5.333s8.533 5.333 12.8 9.6c3.2 4.267 5.333 9.6 5.333 17.067z"></path>
</svg>
