<!-- Generated by IcoMoon.io -->
<svg version="1.1" xmlns="http://www.w3.org/2000/svg" width="256" height="256" viewBox="0 0 256 256">
<title>feedback</title>
<path fill="#333" d="M97.067 198.4l-54.4 36.267 8.533-59.733c-18.133-16-29.867-38.4-29.867-62.933 0-50.133 48-90.667 106.667-90.667s106.667 40.533 106.667 90.667-46.933 90.667-106.667 90.667c-10.667 0-21.333-1.067-30.933-4.267zM181.333 85.333c0-6.4-4.267-10.667-10.667-10.667h-85.333c-6.4 0-10.667 4.267-10.667 10.667s4.267 10.667 10.667 10.667h85.333c6.4 0 10.667-4.267 10.667-10.667zM181.333 128c0-6.4-4.267-10.667-10.667-10.667h-85.333c-6.4 0-10.667 4.267-10.667 10.667s4.267 10.667 10.667 10.667h85.333c6.4 0 10.667-4.267 10.667-10.667z"></path>
</svg>
