<!-- Generated by IcoMoon.io -->
<svg version="1.1" xmlns="http://www.w3.org/2000/svg" width="256" height="256" viewBox="0 0 256 256">
<title>help-o</title>
<path fill="#333" d="M127.798 139.55c-2.335 0-4.154-0.764-5.457-2.293s-1.954-3.687-1.954-6.475c0-4.227 0.808-7.757 2.425-10.589s3.862-5.733 6.737-8.701c2.066-2.248 3.615-4.182 4.649-5.8s1.549-3.417 1.549-5.396c0-1.978-0.719-3.552-2.156-4.721s-3.413-1.754-5.928-1.754c-2.066 0-4.109 0.382-6.13 1.147s-4.289 1.866-6.804 3.305l-3.234 1.619c-3.054 1.709-5.524 2.563-7.41 2.563-2.246 0-4.154-0.967-5.726-2.9s-2.358-4.294-2.358-7.082c0-1.888 0.337-3.462 1.010-4.721s1.774-2.473 3.301-3.642c4.042-2.968 8.645-5.283 13.811-6.947s10.352-2.495 15.562-2.495c5.839 0 11.048 1.012 15.63 3.035s8.174 4.811 10.779 8.364c2.605 3.552 3.907 7.576 3.907 12.073 0 3.328-0.696 6.385-2.089 9.173s-3.077 5.171-5.053 7.149c-1.976 1.978-4.536 4.362-7.68 7.149-2.964 2.428-5.232 4.519-6.804 6.272s-2.583 3.575-3.031 5.463c-0.359 1.978-1.235 3.507-2.627 4.587s-3.031 1.619-4.918 1.619zM128.067 181.333c-3.683 0-6.759-1.259-9.23-3.777s-3.705-5.62-3.705-9.308c0-3.687 1.235-6.79 3.705-9.308s5.547-3.777 9.23-3.777c3.773 0 6.894 1.259 9.364 3.777s3.705 5.62 3.705 9.308c0 3.687-1.235 6.79-3.705 9.308s-5.591 3.777-9.364 3.777zM128 234.667c-58.91 0-106.667-47.756-106.667-106.667s47.756-106.667 106.667-106.667c58.91 0 106.667 47.756 106.667 106.667s-47.756 106.667-106.667 106.667zM128 213.333c47.128 0 85.333-38.205 85.333-85.333s-38.205-85.333-85.333-85.333c-47.128 0-85.333 38.205-85.333 85.333s38.205 85.333 85.333 85.333z"></path>
</svg>
