<!-- Generated by IcoMoon.io -->
<svg version="1.1" xmlns="http://www.w3.org/2000/svg" width="256" height="256" viewBox="0 0 256 256">
<title>history</title>
<path fill="#333" d="M93.867 194.133c10.667 5.333 22.4 8.533 34.133 8.533 40.533 0 73.6-33.067 73.6-73.6s-32-74.667-73.6-74.667c-21.333 0-40.533 9.6-54.4 23.467l22.4 12.8-54.4 14.933-14.933-55.467 19.2 11.733c19.2-24.533 49.067-39.467 82.133-39.467 58.667 0 105.6 48 105.6 105.6s-46.933 106.667-105.6 106.667c-18.133 0-35.2-4.267-50.133-12.8v0c0 0-1.067 0-1.067-1.067-7.467-4.267-10.667-13.867-5.333-21.333 4.267-7.467 13.867-10.667 22.4-5.333 0 0 0 0 0 0zM148.267 152.533c-1.067 4.267-5.333 7.467-10.667 7.467h-50.133c-6.4 0-10.667-4.267-10.667-10.667s4.267-10.667 10.667-10.667h40.533v-44.8c0-6.4 4.267-10.667 10.667-10.667s10.667 4.267 10.667 10.667v53.333c0 2.133 0 4.267-1.067 5.333z"></path>
</svg>
