<!-- Generated by IcoMoon.io -->
<svg version="1.1" xmlns="http://www.w3.org/2000/svg" width="256" height="256" viewBox="0 0 256 256">
<title>knowledge-portal</title>
<path fill="#333" d="M117.333 52.267v0 147.2c0 19.2-16 35.2-35.2 35.2s-35.2-16-35.2-35.2c0-2.133 0-5.333 1.067-7.467 3.2-10.667 10.667-18.133 21.333-21.333 5.333-1.067 7.467-6.4 6.4-10.667-1.067-5.333-6.4-7.467-10.667-6.4-14.933 4.267-27.733 16-33.067 29.867-6.4-6.4-10.667-16-10.667-25.6 0-8.533 3.2-17.067 8.533-23.467 0 0 0 0 1.067-1.067 1.067-2.133 3.2-3.2 5.333-5.333 1.067-1.067 2.133-1.067 3.2-2.133s2.133-1.067 3.2-2.133 4.267-2.133 6.4-2.133c0 1.067 0 1.067 1.067 2.133 3.2 6.4 8.533 11.733 14.933 13.867 2.133 1.067 5.333 1.067 7.467 0s3.2-2.133 4.267-4.267c2.133-4.267 0-9.6-4.267-11.733-2.133-1.067-4.267-3.2-6.4-5.333-5.333-6.4-2.133-13.867 3.2-17.067 4.267-2.133 5.333-7.467 3.2-11.733s-7.467-6.4-11.733-4.267c0 0 0 0 0 0-7.467 5.333-12.8 12.8-14.933 21.333-4.267 1.067-8.533 3.2-13.867 5.333-2.133 1.067-3.2 2.133-4.267 3.2-4.267-6.4-6.4-12.8-6.4-20.267 0-19.2 16-35.2 35.2-35.2 0 0 0 0 0 0 0-1.067 0-3.2 0-4.267 0-18.133 13.867-32 29.867-32 17.067 0 30.933 13.867 30.933 30.933zM138.667 52.267c0-17.067 13.867-30.933 30.933-30.933s30.933 13.867 30.933 30.933c0 1.067 0 3.2 0 4.267 0 0 0 0 0 0 19.2 0 35.2 16 35.2 35.2 0 7.467-2.133 14.933-6.4 20.267-1.067-1.067-3.2-2.133-4.267-3.2-4.267-2.133-9.6-4.267-13.867-5.333-2.133-8.533-6.4-17.067-14.933-21.333 0 0 0 0 0 0-4.267-2.133-9.6-1.067-11.733 3.2s-1.067 9.6 3.2 11.733c5.333 3.2 8.533 10.667 5.333 17.067-1.067 2.133-3.2 4.267-6.4 5.333-4.267 2.133-6.4 7.467-4.267 11.733 1.067 2.133 2.133 3.2 4.267 4.267s5.333 1.067 7.467 0c6.4-3.2 11.733-7.467 14.933-13.867 0-1.067 0-1.067 1.067-2.133 2.133 1.067 4.267 1.067 6.4 2.133 1.067 0 2.133 1.067 3.2 2.133s2.133 1.067 3.2 2.133 3.2 3.2 5.333 4.267c0 0 0 0 1.067 1.067 5.333 6.4 8.533 14.933 8.533 23.467 0 10.667-4.267 19.2-10.667 25.6-5.333-14.933-17.067-26.667-33.067-29.867-4.267-1.067-9.6 2.133-10.667 6.4-1.067 5.333 2.133 9.6 6.4 10.667 10.667 3.2 18.133 10.667 21.333 21.333 0 2.133 1.067 5.333 1.067 7.467 0 19.2-16 35.2-35.2 35.2s-35.2-16-35.2-35.2v0l-3.2-144z"></path>
</svg>
