<!-- Generated by IcoMoon.io -->
<svg version="1.1" xmlns="http://www.w3.org/2000/svg" width="256" height="256" viewBox="0 0 256 256">
<title>linkedin</title>
<path fill="#333" d="M128 234.667c-58.667 0-106.667-48-106.667-106.667s48-106.667 106.667-106.667 106.667 48 106.667 106.667-48 106.667-106.667 106.667zM181.333 139.733c0-21.333-11.733-30.933-26.667-30.933-11.733 0-17.067 6.4-20.267 11.733v0 0c0 0 0 0 0 0v-9.6h-22.4c0 6.4 0 69.333 0 69.333h22.4v-38.4c0-2.133 0-4.267 1.067-5.333 2.133-4.267 5.333-8.533 11.733-8.533 8.533 0 11.733 6.4 11.733 16v37.333h22.4v-41.6zM87.467 76.8c-7.467 0-12.8 5.333-12.8 11.733s5.333 11.733 12.8 11.733v0c7.467 0 12.8-5.333 12.8-11.733s-5.333-11.733-12.8-11.733zM75.733 179.2h22.4v-69.333h-22.4v69.333z"></path>
</svg>
