<!-- Generated by IcoMoon.io -->
<svg version="1.1" xmlns="http://www.w3.org/2000/svg" width="256" height="256" viewBox="0 0 256 256">
<title>offer-o</title>
<path fill="#333" d="M53.333 42.667v170.667h149.333v-170.667h-149.333zM53.333 21.333h149.333c11.733 0 21.333 9.6 21.333 21.333v170.667c0 11.733-9.6 21.333-21.333 21.333h-149.333c-11.733 0-21.333-9.6-21.333-21.333v-170.667c0-11.733 9.6-21.333 21.333-21.333zM74.667 117.333h21.333c6.4 0 10.667 4.267 10.667 10.667s-4.267 10.667-10.667 10.667h-21.333c-6.4 0-10.667-4.267-10.667-10.667s4.267-10.667 10.667-10.667zM74.667 169.6h106.667c6.4 0 10.667 4.267 10.667 10.667s-4.267 10.667-10.667 10.667h-106.667c-6.4 0-10.667-4.267-10.667-10.667s4.267-10.667 10.667-10.667zM74.667 74.667h21.333c6.4 0 10.667 4.267 10.667 10.667s-4.267 10.667-10.667 10.667h-21.333c-6.4 0-10.667-4.267-10.667-10.667s4.267-10.667 10.667-10.667zM185.6 122.667c0 6.4-2.133 11.733-6.4 16s-9.6 7.467-17.067 8.533v5.333c0 2.133-1.067 4.267-2.133 5.333s-3.2 2.133-5.333 2.133c-2.133 0-4.267-1.067-5.333-2.133s-2.133-3.2-2.133-5.333v-5.333c-8.533-1.067-16-3.2-21.333-7.467-1.067-1.067-2.133-2.133-3.2-3.2s-1.067-2.133-1.067-4.267c0-2.133 1.067-4.267 2.133-6.4s3.2-2.133 4.267-2.133c1.067 0 2.133 0 3.2 0s2.133 1.067 3.2 2.133c3.2 2.133 6.4 3.2 9.6 4.267s6.4 1.067 9.6 1.067c4.267 0 7.467-1.067 9.6-2.133s3.2-3.2 3.2-6.4c0-1.067-1.067-3.2-2.133-4.267s-4.267 0-6.4-1.067c-2.133-1.067-4.267-1.067-8.533-2.133-5.333-1.067-10.667-3.2-13.867-4.267s-6.4-4.267-9.6-6.4-3.2-8.533-3.2-12.8c0-6.4 2.133-11.733 6.4-16s9.6-7.467 17.067-8.533v-6.4c0-2.133 1.067-4.267 2.133-5.333s3.2-2.133 5.333-2.133c2.133 0 4.267 1.067 5.333 2.133s2.133 3.2 2.133 5.333v5.333c6.4 1.067 12.8 3.2 18.133 7.467 2.133 1.067 3.2 2.133 3.2 3.2 1.067 1.067 1.067 2.133 1.067 4.267s-1.067 4.267-2.133 6.4c-1.067 2.133-3.2 2.133-4.267 2.133s-2.133 0-2.133 0-2.133-1.067-3.2-2.133c0 0-2.133-1.067-3.2-2.133-2.133-1.067-4.267-2.133-5.333-2.133-2.133-1.067-4.267-1.067-6.4-1.067-3.2 0-6.4 1.067-8.533 2.133s-3.2 3.2-3.2 6.4c0 2.133 1.067 4.267 3.2 5.333 1.067 0 4.267 2.133 9.6 3.2s10.667 2.133 13.867 4.267c3.2 1.067 6.4 3.2 9.6 6.4s4.267 7.467 4.267 12.8z"></path>
</svg>
