<!-- Generated by IcoMoon.io -->
<svg version="1.1" xmlns="http://www.w3.org/2000/svg" width="256" height="256" viewBox="0 0 256 256">
<title>palette</title>
<path fill="#333" d="M128 21.333c58.667 0 106.667 42.667 106.667 94.933 0 33.067-26.667 59.733-59.733 59.733h-21.333c-9.6 0-18.133 7.467-18.133 18.133 0 4.267 2.133 8.533 4.267 11.733 3.2 3.2 4.267 7.467 4.267 11.733 0 9.6-7.467 18.133-18.133 18.133-56.533-1.067-104.533-49.067-104.533-107.733s48-106.667 106.667-106.667zM189.867 137.6c12.8 0 23.467-10.667 23.467-23.467s-10.667-23.467-23.467-23.467-23.467 10.667-23.467 23.467 10.667 23.467 23.467 23.467zM144 88.533c12.8 0 23.467-10.667 23.467-23.467s-10.667-23.467-23.467-23.467-23.467 10.667-23.467 23.467 10.667 23.467 23.467 23.467zM80 105.6c12.8 0 23.467-10.667 23.467-23.467s-10.667-23.467-23.467-23.467-23.467 10.667-23.467 23.467 10.667 23.467 23.467 23.467zM66.133 170.667c12.8 0 23.467-10.667 23.467-23.467s-10.667-23.467-23.467-23.467-23.467 10.667-23.467 23.467 10.667 23.467 23.467 23.467z"></path>
</svg>
