<!-- Generated by IcoMoon.io -->
<svg version="1.1" xmlns="http://www.w3.org/2000/svg" width="256" height="256" viewBox="0 0 256 256">
<title>print</title>
<path fill="#333" d="M85.333 32h85.333c11.733 0 21.333 9.6 21.333 21.333v21.333h-128v-21.333c0-11.733 9.6-21.333 21.333-21.333zM195.2 224h-133.333l16-42.667h100.267l17.067 42.667zM64 160l-22.4 53.333c-10.667 0-20.267-9.6-20.267-20.267v-75.733c0-11.733 9.6-21.333 21.333-21.333 28.8 0 56.533 0 85.333 0s56.533 0 85.333 0c11.733 0 21.333 9.6 21.333 21.333v74.667c0 11.733-9.6 21.333-21.333 21.333l-21.333-53.333h-128zM53.333 138.667c6.4 0 10.667-4.267 10.667-10.667s-4.267-10.667-10.667-10.667-10.667 4.267-10.667 10.667 4.267 10.667 10.667 10.667z"></path>
</svg>
