<!-- Generated by IcoMoon.io -->
<svg version="1.1" xmlns="http://www.w3.org/2000/svg" width="256" height="256" viewBox="0 0 256 256">
<title>seek</title>
<path fill="#333" d="M128 234.667c-58.667 0-106.667-48-106.667-106.667s48-106.667 106.667-106.667 106.667 48 106.667 106.667-48 106.667-106.667 106.667zM192 128c0-5.333-4.267-8.533-8.533-8.533-5.333 0-8.533 4.267-8.533 8.533 0 5.333 4.267 8.533 8.533 8.533s8.533-3.2 8.533-8.533zM167.467 128c0-4.267-3.2-8.533-8.533-8.533-4.267 0-8.533 3.2-8.533 8.533 0 4.267 3.2 8.533 8.533 8.533s8.533-4.267 8.533-8.533zM167.467 105.6c0-4.267-3.2-8.533-8.533-8.533-4.267 0-8.533 3.2-8.533 8.533 0 4.267 3.2 8.533 8.533 8.533s8.533-4.267 8.533-8.533zM167.467 150.4c0-4.267-3.2-8.533-8.533-8.533-4.267 0-8.533 3.2-8.533 8.533 0 4.267 3.2 8.533 8.533 8.533s8.533-4.267 8.533-8.533zM144 150.4c0-4.267-3.2-7.467-7.467-7.467s-7.467 3.2-7.467 7.467c0 4.267 3.2 7.467 7.467 7.467 4.267-1.067 7.467-3.2 7.467-7.467zM144 172.8c0-4.267-3.2-7.467-7.467-7.467s-7.467 3.2-7.467 7.467c0 4.267 3.2 7.467 7.467 7.467s7.467-3.2 7.467-7.467zM144 128c0-4.267-3.2-7.467-7.467-7.467s-7.467 3.2-7.467 7.467c0 4.267 3.2 7.467 7.467 7.467 4.267-1.067 7.467-4.267 7.467-7.467zM144 105.6c0-4.267-3.2-7.467-7.467-7.467s-7.467 3.2-7.467 7.467c0 4.267 3.2 7.467 7.467 7.467s7.467-3.2 7.467-7.467zM144 83.2c0-4.267-3.2-7.467-7.467-7.467s-7.467 3.2-7.467 7.467c0 4.267 3.2 7.467 7.467 7.467 4.267-1.067 7.467-3.2 7.467-7.467zM121.6 83.2c0-3.2-3.2-6.4-6.4-6.4s-6.4 3.2-6.4 6.4 3.2 6.4 6.4 6.4c4.267 0 6.4-3.2 6.4-6.4zM121.6 105.6c0-3.2-3.2-6.4-6.4-6.4s-6.4 3.2-6.4 6.4c0 3.2 3.2 6.4 6.4 6.4 4.267 0 6.4-3.2 6.4-6.4zM100.267 105.6c0-3.2-2.133-5.333-5.333-5.333s-5.333 2.133-5.333 5.333c0 3.2 2.133 5.333 5.333 5.333s5.333-2.133 5.333-5.333zM100.267 128c0-3.2-2.133-5.333-5.333-5.333s-5.333 2.133-5.333 5.333c0 3.2 2.133 5.333 5.333 5.333s5.333-2.133 5.333-5.333zM100.267 150.4c0-3.2-2.133-5.333-5.333-5.333s-5.333 2.133-5.333 5.333c0 3.2 2.133 5.333 5.333 5.333s5.333-2.133 5.333-5.333zM83.2 105.6c0-3.2-2.133-5.333-5.333-5.333s-5.333 2.133-5.333 5.333c0 3.2 2.133 5.333 5.333 5.333s5.333-2.133 5.333-5.333zM83.2 128c0-3.2-2.133-5.333-5.333-5.333s-5.333 2.133-5.333 5.333c0 3.2 2.133 5.333 5.333 5.333 3.2-1.067 5.333-3.2 5.333-5.333zM83.2 150.4c0-3.2-2.133-5.333-5.333-5.333s-5.333 2.133-5.333 5.333c0 3.2 2.133 5.333 5.333 5.333s5.333-2.133 5.333-5.333zM121.6 128c0-3.2-3.2-6.4-6.4-6.4s-6.4 3.2-6.4 6.4c0 3.2 3.2 6.4 6.4 6.4 4.267 0 6.4-3.2 6.4-6.4zM121.6 150.4c0-3.2-3.2-6.4-6.4-6.4s-6.4 3.2-6.4 6.4 3.2 6.4 6.4 6.4c4.267 0 6.4-3.2 6.4-6.4zM121.6 172.8c0-3.2-3.2-6.4-6.4-6.4s-6.4 3.2-6.4 6.4c0 3.2 3.2 6.4 6.4 6.4 4.267 0 6.4-3.2 6.4-6.4zM121.6 195.2c0-3.2-3.2-6.4-6.4-6.4s-6.4 3.2-6.4 6.4c0 3.2 3.2 6.4 6.4 6.4 4.267-1.067 6.4-3.2 6.4-6.4zM121.6 60.8c0-3.2-3.2-6.4-6.4-6.4s-6.4 3.2-6.4 6.4c0 3.2 3.2 6.4 6.4 6.4 4.267 0 6.4-2.133 6.4-6.4z"></path>
</svg>
