<!-- Generated by IcoMoon.io -->
<svg version="1.1" xmlns="http://www.w3.org/2000/svg" width="256" height="256" viewBox="0 0 256 256">
<title>upload-o</title>
<path fill="#333" d="M32 213.333h192c6.4 0 10.667 4.267 10.667 10.667s-4.267 10.667-10.667 10.667h-192c-6.4 0-10.667-4.267-10.667-10.667s4.267-10.667 10.667-10.667zM117.333 57.6l-42.667 42.667c-4.267 4.267-10.667 4.267-14.933 0s-4.267-10.667 0-14.933l60.8-60.8c1.067-1.067 2.133-2.133 4.267-2.133 0-1.067 2.133-1.067 3.2-1.067 2.133 0 3.2 0 5.333 1.067 1.067 0 2.133 1.067 3.2 2.133l59.733 60.8c4.267 4.267 4.267 10.667 0 14.933s-10.667 4.267-14.933 0l-42.667-42.667v123.733c0 6.4-4.267 10.667-10.667 10.667s-10.667-4.267-10.667-10.667v-123.733z"></path>
</svg>
