<!-- Generated by IcoMoon.io -->
<svg version="1.1" xmlns="http://www.w3.org/2000/svg" width="256" height="256" viewBox="0 0 256 256">
<title>user-o</title>
<path fill="#333" d="M50.133 232.533c-14.933-6.4-22.4-23.467-16-37.333 16-35.2 48-52.267 93.867-52.267s77.867 17.067 93.867 51.2c2.133 3.2 2.133 7.467 2.133 11.733 0 16-13.867 28.8-29.867 28.8h-132.267c-4.267 0-7.467-1.067-11.733-2.133zM193.067 213.333c5.333 0 9.6-4.267 9.6-8.533 0-1.067 0-2.133-1.067-3.2-11.733-24.533-36.267-37.333-73.6-37.333-38.4 0-61.867 12.8-73.6 37.333-2.133 4.267 0 9.6 5.333 11.733 1.067 0 2.133 0 3.2 0h130.133zM128 128c-29.867 0-53.333-23.467-53.333-53.333s23.467-53.333 53.333-53.333 53.333 23.467 53.333 53.333-23.467 53.333-53.333 53.333zM128 106.667c18.133 0 32-13.867 32-32s-13.867-32-32-32-32 13.867-32 32 13.867 32 32 32z"></path>
</svg>
