<?xml version="1.0" encoding="utf-8"?>
<!-- Generator: Adobe Illustrator 22.0.1, SVG Export Plug-In . SVG Version: 6.00 Build 0)  -->
<svg version="1.1" id="Layer_1" xmlns="http://www.w3.org/2000/svg" xmlns:xlink="http://www.w3.org/1999/xlink" x="0px" y="0px"
	 viewBox="0 0 234.1 214.1" style="enable-background:new 0 0 234.1 214.1;" xml:space="preserve">
<style type="text/css">
	.st0{fill:#172E55;}
	.st1{fill:#FFE04A;}
	.st2{fill:#FFC704;}
</style>
<path class="st0" d="M121.6,193.8c-48.4,0-87.8-39.4-87.8-87.8s39.4-87.8,87.8-87.8c48.4,0,87.8,39.4,87.8,87.8
	S170.1,193.8,121.6,193.8z M121.6,23.7c-45.4,0-82.3,36.9-82.3,82.3c0,45.4,36.9,82.3,82.3,82.3c45.4,0,82.3-36.9,82.3-82.3
	C203.9,60.6,167,23.7,121.6,23.7z"/>
<circle class="st1" cx="121.3" cy="105.7" r="77"/>
<circle class="st2" cx="124.1" cy="111.8" r="67.8"/>
<path class="st0" d="M121.7,166.2c-28.1,0-52.6-20-58.3-47.5c-0.3-1.5,0.7-2.9,2.1-3.2c1.5-0.3,2.9,0.7,3.2,2.1
	c5.1,25,27.4,43.1,52.9,43.1c18.9,0,36.7-10.1,46.4-26.4c0.8-1.3,2.5-1.7,3.8-1c1.3,0.8,1.7,2.5,1,3.8
	C162.2,155.1,142.6,166.2,121.7,166.2z"/>
<path class="st0" d="M176.4,124.8c-0.2,0-0.5,0-0.7-0.1c-1.5-0.4-2.3-1.9-1.9-3.4c0.6-2.1,1-4.2,1.4-6.3c0.2-1.5,1.6-2.5,3.1-2.3
	c1.5,0.2,2.5,1.6,2.3,3.1c-0.4,2.3-0.9,4.7-1.5,7C178.7,124.1,177.6,124.8,176.4,124.8z"/>
<g>
	<path class="st0" d="M175,93.5c-1.3,0-2.4-0.9-2.7-2.2c-1.6-7.7-8.5-13.3-16.4-13.3c-7.3,0-13.7,4.7-15.9,11.6
		c-0.5,1.4-2,2.2-3.5,1.8c-1.4-0.5-2.2-2-1.8-3.5c3-9.2,11.5-15.4,21.2-15.4c10.5,0,19.7,7.5,21.8,17.7c0.3,1.5-0.7,2.9-2.1,3.2
		C175.4,93.5,175.2,93.5,175,93.5z"/>
</g>
<g>
	<path class="st0" d="M108.7,93.5c-1.3,0-2.4-0.9-2.7-2.2C104.4,83.6,97.5,78,89.6,78c-7.3,0-13.7,4.7-15.9,11.6
		c-0.5,1.4-2,2.2-3.5,1.8c-1.4-0.5-2.2-2-1.8-3.5c3-9.2,11.5-15.4,21.2-15.4c10.5,0,19.7,7.5,21.8,17.7c0.3,1.5-0.7,2.9-2.1,3.2
		C109,93.5,108.8,93.5,108.7,93.5z"/>
</g>
</svg>
