<?xml version="1.0" encoding="utf-8"?>
<!-- Generator: Adobe Illustrator 22.0.1, SVG Export Plug-In . SVG Version: 6.00 Build 0)  -->
<svg version="1.1" id="Layer_1" xmlns="http://www.w3.org/2000/svg" xmlns:xlink="http://www.w3.org/1999/xlink" x="0px" y="0px"
	 viewBox="0 0 234.1 214.1" style="enable-background:new 0 0 234.1 214.1;" xml:space="preserve">
<style type="text/css">
	.st0{fill:#FFFFFF;}
	.st1{fill:#08B5F9;}
	.st2{fill:#0D83B2;}
	.st3{fill:#172E55;}
</style>
<circle class="st0" cx="120.5" cy="107.5" r="83.8"/>
<g>
	<path class="st1" d="M156,185.5c0.1-1.2-0.8-6.9-0.8-8.2c0-18.4-14.9-33.3-33.3-33.3s-33.3,14.9-33.3,33.3c0,1.2,0.6,6.5,0.7,7.7
		c0,0,13,7,32,7S156,185.5,156,185.5z"/>
</g>
<path class="st2" d="M101.8,188.3c-1.3-2.9-2.1-6-2.1-9.4c0-12.4,10-22.4,22.4-22.4s22.4,10,22.4,22.4c0,3.6-0.8,7-2.4,10"/>
<path class="st3" d="M121.7,29.3c43.5,0,78.9,35.4,78.9,78.9s-35.4,78.9-78.9,78.9s-78.9-35.4-78.9-78.9S78.2,29.3,121.7,29.3
	 M121.7,21.3c-48,0-86.9,38.9-86.9,86.9s38.9,86.9,86.9,86.9s86.9-38.9,86.9-86.9S169.7,21.3,121.7,21.3L121.7,21.3z"/>
<g>
	<circle class="st1" cx="122.2" cy="100.8" r="30.8"/>
	<path class="st3" d="M122.2,78c12.6,0,22.8,10.2,22.8,22.8c0,12.6-10.2,22.8-22.8,22.8c-12.6,0-22.8-10.2-22.8-22.8
		C99.4,88.2,109.6,78,122.2,78 M122.2,70c-17,0-30.8,13.8-30.8,30.8c0,17,13.8,30.8,30.8,30.8s30.8-13.8,30.8-30.8
		C153,83.8,139.2,70,122.2,70L122.2,70z"/>
</g>
<path class="st3" d="M84,185.6c-0.6-2.7-0.9-5.4-0.9-8.1c0-21.2,17.3-38.5,38.5-38.5s38.5,17.3,38.5,38.5c0,2.6-0.3,5.2-0.8,7.8
	l-7.8-1.6c0.4-2,0.6-4.1,0.6-6.2c0-16.8-13.7-30.5-30.5-30.5s-30.5,13.7-30.5,30.5c0,2.2,0.2,4.3,0.7,6.5L84,185.6z"/>
</svg>
