
<svg width="48px" height="48px" viewBox="0 0 48 48" version="1.1" xmlns="http://www.w3.org/2000/svg" xmlns:xlink="http://www.w3.org/1999/xlink">
    <!-- Generator: Sketch 50.2 (55047) - http://www.bohemiancoding.com/sketch -->
    <desc>Created with Sketch.</desc>
    <defs></defs>
    <g id="Iconography" stroke="none" stroke-width="1" fill="none" fill-rule="evenodd">
        <g id="Artboard-2" transform="translate(-513.000000, -1136.000000)">
            <g id="icon-rating-2unsatisfactory-L" transform="translate(513.000000, 1136.000000)">
                <g id="Group">
                    <g id="Group-3" fill="#FF6200">
                        <path d="M48.0000923,24 C48.0000923,37.2549231 37.2550154,48 24.0000923,48 C10.7451692,48 9.23076923e-05,37.2549231 9.23076923e-05,24 C9.23076923e-05,10.7450769 10.7451692,0 24.0000923,0 C37.2550154,0 48.0000923,10.7450769 48.0000923,24" id="Fill-1"></path>
                    </g>
                    <path d="M34.6321385,19.8461538 C34.6321385,21.6304615 33.1856769,23.0769231 31.4013692,23.0769231 C29.6170615,23.0769231 28.1706,21.6304615 28.1706,19.8461538 C28.1706,18.0618462 29.6170615,16.6153846 31.4013692,16.6153846 C33.1856769,16.6153846 34.6321385,18.0618462 34.6321385,19.8461538" id="Fill-4" fill="#231F20"></path>
                    <path d="M19.4013692,19.8461538 C19.4013692,21.6304615 17.9549077,23.0769231 16.1706,23.0769231 C14.3862923,23.0769231 12.9398308,21.6304615 12.9398308,19.8461538 C12.9398308,18.0618462 14.3862923,16.6153846 16.1706,16.6153846 C17.9549077,16.6153846 19.4013692,18.0618462 19.4013692,19.8461538" id="Fill-6" fill="#231F20"></path>
                    <path d="M16.4473385,37.4139231 C16.0536462,37.4139231 15.6631846,37.2473077 15.3890308,36.9233077 C14.8956462,36.3394615 14.9685692,35.4653077 15.5528769,34.9719231 C17.8541077,33.0265385 21.1038,31.9105385 24.4693385,31.9105385 C27.3396462,31.9105385 30.1278,32.7136154 32.3205692,34.1725385 C32.9570308,34.5962308 33.1301077,35.4556154 32.7068769,36.0920769 C32.2836462,36.729 31.4238,36.9025385 30.7868769,36.4783846 C29.0431846,35.3185385 26.7996462,34.6797692 24.4693385,34.6797692 C21.7481077,34.6797692 19.1496462,35.5571538 17.3404154,37.0866923 C17.0801077,37.3068462 16.7630308,37.4139231 16.4473385,37.4139231" id="Fill-8" fill="#231F20"></path>
                </g>
            </g>
        </g>
    </g>
</svg>
