
<svg width="48px" height="48px" viewBox="0 0 48 48" version="1.1" xmlns="http://www.w3.org/2000/svg" xmlns:xlink="http://www.w3.org/1999/xlink">
    <!-- Generator: Sketch 50.2 (55047) - http://www.bohemiancoding.com/sketch -->
    <desc>Created with Sketch.</desc>
    <defs>
        <polygon id="path-1" points="0 0 47.9999538 0 47.9999538 48 0 48"></polygon>
    </defs>
    <g id="Iconography" stroke="none" stroke-width="1" fill="none" fill-rule="evenodd">
        <g id="Artboard-2" transform="translate(-627.000000, -1136.000000)">
            <g id="icon-rating-3fair-L" transform="translate(627.000000, 1136.000000)">
                <g id="Group">
                    <g id="Group-3">
                        <mask id="mask-2" fill="white">
                            <use xlink:href="#path-1"></use>
                        </mask>
                        <g id="Clip-2"></g>
                        <path d="M23.9999538,48 C10.7450308,48 -4.61538461e-05,37.2549231 -4.61538461e-05,24 C-4.61538461e-05,10.7450769 10.7450308,0 23.9999538,0 C37.2548769,0 47.9999538,10.7450769 47.9999538,24 C47.9999538,37.2549231 37.2548769,48 23.9999538,48 Z" id="Fill-1" fill="#EDE03E" mask="url(#mask-2)"></path>
                    </g>
                    <path d="M34.8461077,19.8461538 C34.8461077,21.6304615 33.3996462,23.0769231 31.6153385,23.0769231 C29.8310308,23.0769231 28.3845692,21.6304615 28.3845692,19.8461538 C28.3845692,18.0618462 29.8310308,16.6153846 31.6153385,16.6153846 C33.3996462,16.6153846 34.8461077,18.0618462 34.8461077,19.8461538" id="Fill-4" fill="#231F20"></path>
                    <path d="M19.6153385,19.8461538 C19.6153385,21.6304615 18.1688769,23.0769231 16.3845692,23.0769231 C14.6002615,23.0769231 13.1538,21.6304615 13.1538,19.8461538 C13.1538,18.0618462 14.6002615,16.6153846 16.3845692,16.6153846 C18.1688769,16.6153846 19.6153385,18.0618462 19.6153385,19.8461538" id="Fill-6" fill="#231F20"></path>
                    <path d="M32.3076462,35.6921538 L15.6922615,35.6921538 C14.9274923,35.6921538 14.3076462,35.0723077 14.3076462,34.3075385 C14.3076462,33.5427692 14.9274923,32.9229231 15.6922615,32.9229231 L32.3076462,32.9229231 C33.0724154,32.9229231 33.6922615,33.5427692 33.6922615,34.3075385 C33.6922615,35.0723077 33.0724154,35.6921538 32.3076462,35.6921538" id="Fill-8" fill="#231F20"></path>
                </g>
            </g>
        </g>
    </g>
</svg>
