
<svg width="48px" height="48px" viewBox="0 0 48 48" version="1.1" xmlns="http://www.w3.org/2000/svg" xmlns:xlink="http://www.w3.org/1999/xlink">
    <!-- Generator: Sketch 50.2 (55047) - http://www.bohemiancoding.com/sketch -->
    <desc>Created with Sketch.</desc>
    <defs></defs>
    <g id="Iconography" stroke="none" stroke-width="1" fill="none" fill-rule="evenodd">
        <g id="Artboard-2" transform="translate(-740.000000, -1136.000000)">
            <g id="icon-rating-4good-L" transform="translate(740.000000, 1136.000000)">
                <g id="Group">
                    <g id="Group-3" fill="#BFF01F">
                        <path d="M47.9999077,24 C47.9999077,37.2549231 37.2548308,48 23.9999077,48 C10.7449846,48 -9.23076923e-05,37.2549231 -9.23076923e-05,24 C-9.23076923e-05,10.7450769 10.7449846,0 23.9999077,0 C37.2548308,0 47.9999077,10.7450769 47.9999077,24" id="Fill-1"></path>
                    </g>
                    <path d="M34.8460615,19.8461538 C34.8460615,21.6304615 33.3996,23.0769231 31.6152923,23.0769231 C29.8309846,23.0769231 28.3845231,21.6304615 28.3845231,19.8461538 C28.3845231,18.0618462 29.8309846,16.6153846 31.6152923,16.6153846 C33.3996,16.6153846 34.8460615,18.0618462 34.8460615,19.8461538" id="Fill-4" fill="#231F20"></path>
                    <path d="M19.6152923,19.8461538 C19.6152923,21.6304615 18.1688308,23.0769231 16.3845231,23.0769231 C14.6002154,23.0769231 13.1537538,21.6304615 13.1537538,19.8461538 C13.1537538,18.0618462 14.6002154,16.6153846 16.3845231,16.6153846 C18.1688308,16.6153846 19.6152923,18.0618462 19.6152923,19.8461538" id="Fill-6" fill="#231F20"></path>
                    <path d="M23.5307077,37.2597692 C20.6604,37.2597692 17.8722462,36.4566923 15.6794769,34.9982308 C15.0430154,34.5745385 14.8704,33.7146923 15.2936308,33.0777692 C15.7177846,32.4422308 16.5762462,32.2686923 17.2136308,32.6923846 C18.9568615,33.8517692 21.1999385,34.4905385 23.5307077,34.4905385 C26.2519385,34.4905385 28.8499385,33.6136154 30.6596308,32.0836154 C31.2444,31.5897692 32.1171692,31.6631538 32.6110154,32.2474615 C33.1044,32.8308462 33.0314769,33.705 32.4471692,34.1983846 C30.1459385,36.1437692 26.8962462,37.2597692 23.5307077,37.2597692" id="Fill-8" fill="#231F20"></path>
                </g>
            </g>
        </g>
    </g>
</svg>
