<?xml version="1.0" encoding="utf-8"?>
<!-- Generator: Adobe Illustrator 22.0.1, SVG Export Plug-In . SVG Version: 6.00 Build 0)  -->
<svg version="1.1" id="Layer_1" xmlns="http://www.w3.org/2000/svg" xmlns:xlink="http://www.w3.org/1999/xlink" x="0px" y="0px"
	 viewBox="0 0 234.1 214.1" style="enable-background:new 0 0 234.1 214.1;" xml:space="preserve">
<style type="text/css">
	.st0{fill:#FADE9E;}
	.st1{fill:#E2C283;}
	.st2{fill:#172E55;}
	.st3{filter:url(#Adobe_OpacityMaskFilter);}
	.st4{fill:#FFFFFF;}
	.st5{mask:url(#mask-2_2_);fill:#172E55;}
</style>
<g>
	<path id="Fill-1" class="st0" d="M51.7,49.6v-20c0,0,0.7-7,9.3-7h38.6c0,0,9.7,1.1,9.7,7v11.9h95.8c0,0,8.9,0.4,8.9,10.8v104.2
		l-42.7,0.7l-117-56.4L51.7,49.6z"/>
	<polygon id="Fill-3_1_" class="st1" points="183.1,138.2 211.4,138.2 211.4,160.1 185.3,160.1 	"/>
	<path id="Fill-5" class="st2" d="M59.5,24.7c-1.8,0-3.3,1.5-3.3,3.3v128.3c0,1.8,1.5,3.3,3.3,3.3H208c1.8,0,3.3-1.5,3.3-3.3V46.6
		c0-1.8-1.5-3.3-3.3-3.3H107V28.1c0-1.8-1.5-3.3-3.3-3.3H59.5z M208,166.4H59.5c-5.5,0-10-4.5-10-10V28.1c0-5.5,4.5-10,10-10h44.2
		c5.5,0,10,4.5,10,10v8.5H208c5.5,0,10,4.5,10,10v109.8C218.1,161.9,213.6,166.4,208,166.4z"/>
	<path id="Fill-7" class="st0" d="M78.5,57.4v11.9h94.3c0,0,10-2.2,10,13.3s0.4,98.3,0.4,98.3s0.7,11.5-13.4,11.5H27.6
		c0,0-7.1,1.1-7.1-11.9V62.2c0,0-1.1-10.8,9.7-10.8h38.2l7.4,0.7L78.5,57.4z"/>
	<path id="Fill-9" class="st1" d="M147.5,70.7c0,0,7.4,3.7,7.4,14.8v80.1c0,0,2.2,10.2-10.2,10.2H43.5h-9.7v15.4h139.6
		c0,0,7.8,1.1,7.8-12.2V81.1c0,0,1.9-11.9-10-11.9h-27.9C143.4,69.2,148.1,71.3,147.5,70.7"/>
	<defs>
		<filter id="Adobe_OpacityMaskFilter" filterUnits="userSpaceOnUse" x="16" y="47.7" width="168.6" height="148.3">
			<feColorMatrix  type="matrix" values="1 0 0 0 0  0 1 0 0 0  0 0 1 0 0  0 0 0 1 0"/>
		</filter>
	</defs>
	<mask maskUnits="userSpaceOnUse" x="16" y="47.7" width="168.6" height="148.3" id="mask-2_2_">
		<g class="st3">
			<polygon id="path-1_2_" class="st4" points="16,47.7 184.6,47.7 184.6,196 16,196 			"/>
		</g>
	</mask>
	<path id="Fill-11" class="st5" d="M26.1,54.4c-1.8,0-3.3,1.5-3.3,3.3V186c0,1.8,1.5,3.3,3.3,3.3h148.5c1.8,0,3.3-1.5,3.3-3.3V76.3
		c0-1.8-1.5-3.3-3.3-3.3h-101V57.7c0-1.8-1.5-3.3-3.3-3.3H26.1z M174.6,196.1H26.1c-5.5,0-10-4.5-10-10V57.7c0-5.5,4.5-10,10-10
		h44.2c5.5,0,10,4.5,10,10v8.5h94.3c5.5,0,10,4.5,10,10V186C184.6,191.6,180.1,196.1,174.6,196.1z"/>
</g>
</svg>
