<?xml version="1.0" encoding="utf-8"?>
<!-- Generator: Adobe Illustrator 22.0.1, SVG Export Plug-In . SVG Version: 6.00 Build 0)  -->
<svg version="1.1" id="Layer_1" xmlns="http://www.w3.org/2000/svg" xmlns:xlink="http://www.w3.org/1999/xlink" x="0px" y="0px"
	 viewBox="0 0 234.1 214.1" style="enable-background:new 0 0 234.1 214.1;" xml:space="preserve">
<style type="text/css">
	.st0{fill:#F9F9F9;}
	.st1{fill:#172E55;}
	.st2{fill:#F0BC5E;}
	.st3{fill:#D3D0C5;}
	.st4{fill:#F8FBFF;}
	.st5{fill:#11EA34;}
	.st6{opacity:0.25;}
</style>
<polygon class="st0" points="128,97 198.2,167.8 203,188 197,194 176.8,189.2 176.8,171.4 160.1,171.4 160.1,154.7 143.4,154.7 
	143.4,140.4 128.7,140.4 104,116 "/>
<path class="st1" d="M197.9,197l-23.9-5.6v-17.3h-16.7v-16.7h-16.7v-14.3h-13.1l-27.7-27.3l28.4-22.5l72.5,73.1l5.3,22.5L197.9,197z
	 M179.5,187.1l16.7,3.9l3.8-3.8l-4.2-18l-68-68.5l-19.6,15.5l21.7,21.4h16.3v14.3h16.7v16.7h16.7V187.1z"/>
<polygon class="st2" points="132,115.8 194.6,180.4 193,172 136,114 "/>
<path class="st3" d="M88,20c-32,0-58,26-58,58c0,32,26,58,58,58s58-26,58-58C146,46,120,20,88,20z M88,110c-17.7,0-32-14.3-32-32
	c0-17.7,14.3-32,32-32s32,14.3,32,32C120,95.7,105.7,110,88,110z"/>
<path class="st1" d="M88,138.8c-33.5,0-60.8-27.3-60.8-60.8c0-33.5,27.3-60.8,60.8-60.8s60.8,27.3,60.8,60.8
	C148.8,111.5,121.5,138.8,88,138.8z M88,22.8c-30.5,0-55.2,24.8-55.2,55.2s24.8,55.2,55.2,55.2s55.2-24.8,55.2-55.2
	S118.5,22.8,88,22.8z M88,112.8c-19.2,0-34.8-15.6-34.8-34.8S68.8,43.2,88,43.2s34.8,15.6,34.8,34.8S107.2,112.8,88,112.8z M88,48.8
	c-16.1,0-29.2,13.1-29.2,29.2s13.1,29.2,29.2,29.2s29.2-13.1,29.2-29.2S104.1,48.8,88,48.8z"/>
<g>
	<path class="st4" d="M88.2,133c-30.3,0-55-24.7-55-55s24.7-55,55-55s55,24.7,55,55S118.6,133,88.2,133z M88.2,28.5
		C61,28.5,38.8,50.7,38.8,78c0,27.3,22.2,49.5,49.5,49.5s49.5-22.2,49.5-49.5C137.7,50.7,115.5,28.5,88.2,28.5z"/>
</g>
<path class="st5" d="M128.5,30.9L89.9,69.5L75.1,54.7c-4.2-4.2-11.2-4.2-15.4,0s-4.2,11.2,0,15.4l22.5,22.5c4.2,4.2,11.2,4.2,15.4,0
	l46.3-46.3c4.2-4.2,4.2-11.2,0-15.4C139.7,26.7,132.7,26.7,128.5,30.9z"/>
<path class="st1" d="M89.9,98.5c-3.7,0-7.1-1.4-9.7-4L57.8,72c-2.6-2.6-4-6-4-9.7s1.4-7.1,4-9.7c2.6-2.6,6-4,9.7-4
	c3.7,0,7.1,1.4,9.7,4l12.8,12.8L126.5,29c5.3-5.3,14-5.3,19.3,0c5.3,5.3,5.3,14,0,19.3L99.6,94.5C97,97.1,93.6,98.5,89.9,98.5z
	 M67.4,54.2c-2.2,0-4.2,0.8-5.8,2.4c-1.5,1.5-2.4,3.6-2.4,5.8c0,2.2,0.8,4.2,2.4,5.8l22.5,22.5c3.2,3.2,8.4,3.2,11.5,0L142,44.4
	c3.2-3.2,3.2-8.4,0-11.5c-3.2-3.2-8.4-3.2-11.5,0L89.9,73.3L73.2,56.6C71.7,55.1,69.6,54.2,67.4,54.2z"/>
<polygon class="st6" points="139.8,53.8 142,60 120.8,81.2 120,71.5 "/>
<path class="st1" d="M135.8,131.5l-7.8-7.8c-0.8-0.8-2.1-0.8-2.8,0l0,0c-0.8,0.8-0.8,2.1,0,2.8l7.8,7.8c0.8,0.8,2.1,0.8,2.8,0l0,0
	C136.6,133.5,136.6,132.3,135.8,131.5z"/>
</svg>
