<?xml version="1.0" encoding="utf-8"?>
<!-- Generator: Adobe Illustrator 22.0.1, SVG Export Plug-In . SVG Version: 6.00 Build 0)  -->
<svg version="1.1" id="Layer_1" xmlns="http://www.w3.org/2000/svg" xmlns:xlink="http://www.w3.org/1999/xlink" x="0px" y="0px"
	 viewBox="0 0 234.1 214.1" style="enable-background:new 0 0 234.1 214.1;" xml:space="preserve">
<style type="text/css">
	.st0{fill:#33E9F2;}
	.st1{fill:#E8E8E8;}
	.st2{fill:#172E55;}
	.st3{fill:#FFFFFF;}
	.st4{fill:#F70303;}
</style>
<g>
	<path class="st0" d="M94,115L79.2,93.8L80,103c0,0,29.8,46.5,29.8,45.8s1.8-13.5,1.8-13.5L99.2,121"/>
	<polygon class="st1" points="158.8,119.5 158.5,135.8 113.5,152 112.2,133.2 	"/>
	<path class="st0" d="M77,77.5c2.2-1.2,47.2-12.2,47.2-12.2l41.2,49.8L114,132L77,77.5z"/>
	<g>
		<path class="st2" d="M111.7,155.8c-0.9,0-1.8-0.4-2.3-1.2L71.7,98c-0.3-0.5-0.5-1-0.5-1.5V77c0-1.2,0.8-2.3,2-2.7l51.5-14
			c1.1-0.3,2.2,0.1,2.9,1l41.7,52.9c0.6,0.7,0.7,1.6,0.5,2.5s-0.9,1.5-1.8,1.8l-53.9,17.8c-1.2,0.4-2.4,0-3.1-1L76.7,86v9.7l36.1,54
			l54.8-18.7l1.8,5.2l-56.8,19.4C112.3,155.7,112,155.8,111.7,155.8z M78.3,78.6l36,51.8l48.2-16l-38.1-48.4L78.3,78.6z"/>
		<rect x="109.1" y="131.7" class="st2" width="5.5" height="20.3"/>
		<rect x="161.7" y="116.9" class="st2" width="5.5" height="18"/>
		
			<rect x="110.9" y="132.2" transform="matrix(0.9526 -0.3044 0.3044 0.9526 -34.5238 48.4959)" class="st2" width="54.8" height="5.5"/>
	</g>
	<g>
		<path class="st3" d="M116.5,21.3c-47.7,0-86.3,38.7-86.3,86.3c0,47.7,38.7,86.3,86.3,86.3s86.3-38.7,86.3-86.3
			C202.9,60,164.2,21.3,116.5,21.3z M52.6,107.6c0-35.3,28.6-63.9,63.9-63.9c13.9,0,26.7,4.4,37.2,12l-89.2,89.2
			C57,134.4,52.6,121.5,52.6,107.6z M116.5,171.6c-13.6,0-26.2-4.3-36.5-11.5l89-89c7.2,10.4,11.5,23,11.5,36.5
			C180.5,143,151.8,171.6,116.5,171.6z"/>
		<path class="st2" d="M116.5,196.7c-49.1,0-89.1-40-89.1-89.1s40-89.1,89.1-89.1s89.1,40,89.1,89.1S165.6,196.7,116.5,196.7z
			 M116.5,24.1c-46.1,0-83.6,37.5-83.6,83.6s37.5,83.6,83.6,83.6s83.6-37.5,83.6-83.6S162.6,24.1,116.5,24.1z M116.5,174.3
			c-13.7,0-26.9-4.1-38.1-12c-0.7-0.5-1.1-1.2-1.2-2c-0.1-0.8,0.2-1.6,0.8-2.2l89-89c0.6-0.6,1.4-0.9,2.2-0.8c0.8,0.1,1.5,0.5,2,1.2
			c7.8,11.2,12,24.4,12,38.1C183.2,144.4,153.3,174.3,116.5,174.3z M84.3,159.7c9.7,6,20.7,9.2,32.2,9.2c33.7,0,61.2-27.4,61.2-61.2
			c0-11.5-3.2-22.5-9.2-32.2L84.3,159.7z M64.5,147.6c-0.1,0-0.1,0-0.2,0c-0.8-0.1-1.5-0.5-2-1.1c-8.2-11.4-12.5-24.8-12.5-38.8
			c0-36.8,29.9-66.7,66.7-66.7c14,0,27.4,4.3,38.8,12.5c0.7,0.5,1.1,1.2,1.1,2c0.1,0.8-0.2,1.6-0.8,2.2l-89.2,89.2
			C66,147.3,65.3,147.6,64.5,147.6z M116.5,46.5c-33.7,0-61.2,27.4-61.2,61.2c0,11.8,3.3,23.1,9.6,32.9l84.5-84.5
			C139.6,49.8,128.3,46.5,116.5,46.5z"/>
	</g>
	<path class="st4" d="M116.2,29.7C73,29.7,38,64.8,38,108s35,78.2,78.2,78.2s78.2-35,78.2-78.2S159.5,29.7,116.2,29.7z M116.2,175.3
		c-37.2,0-67.3-30.1-67.3-67.3s30.1-67.3,67.3-67.3s67.3,30.1,67.3,67.3S153.4,175.3,116.2,175.3z"/>
	<path class="st4" d="M116.5,188.1c-44.4,0-80.4-36.1-80.4-80.4s36.1-80.4,80.4-80.4S197,63.3,197,107.7S160.9,188.1,116.5,188.1z
		 M116.5,30.3c-42.7,0-77.4,34.7-77.4,77.4s34.7,77.4,77.4,77.4s77.4-34.7,77.4-77.4S159.2,30.3,116.5,30.3z M116.5,177.1
		c-38.3,0-69.4-31.1-69.4-69.4s31.1-69.4,69.4-69.4S186,69.4,186,107.7S154.8,177.1,116.5,177.1z M116.5,41.3
		c-36.6,0-66.4,29.8-66.4,66.4c0,36.6,29.8,66.4,66.4,66.4s66.4-29.8,66.4-66.4C183,71.1,153.2,41.3,116.5,41.3z"/>
	<path class="st4" d="M175.8,60.4l-11.4-11.4l-4.8,4.8c-1.1-0.9-2.4-1.6-2.4-1.6l-1.9,1.6c0,0,2.4,1.8,0.5,3.8
		c-0.1,0.1-0.2,0.2-0.2,0.3l-88.7,88.7c0,0,0,0,0,0s-1.2,1.3-2.3,1.1s-2-1.2-2.1-1.5s0,3.1,0,3.1s0.4,0.3,1,0.7l-3.5,3.5L71.2,165
		l2.4-2.4c0.1,0.1,0.2,0.2,0.2,0.3c0.4,0.5,5.8-0.1,4.8-0.7s-1.3-1-1.4-2.2c0-0.7,0.4-1.4,0.7-1.8l87.2-87.3l0,0.1
		c0,0,2.2-2.4,3.6-2.6c1.5-0.2,2.1,1.4,2.1,1.4l0.9-5l-0.4-0.1L175.8,60.4z"/>
	<path class="st4" d="M158.2,121"/>
</g>
</svg>
