<?xml version="1.0" encoding="utf-8"?>
<!-- Generator: Adobe Illustrator 22.0.1, SVG Export Plug-In . SVG Version: 6.00 Build 0)  -->
<svg version="1.1" id="Layer_1" xmlns="http://www.w3.org/2000/svg" xmlns:xlink="http://www.w3.org/1999/xlink" x="0px" y="0px"
	 viewBox="0 0 234.1 214.1" style="enable-background:new 0 0 234.1 214.1;" xml:space="preserve">
<style type="text/css">
	.st0{fill:#FF3167;}
	.st1{fill:#172E55;}
	.st2{filter:url(#Adobe_OpacityMaskFilter);}
	.st3{fill:#FFFFFF;}
	.st4{mask:url(#mask-2_1_);fill:#172E55;}
</style>
<g>
	<path id="Fill-1_3_" class="st0" d="M191.3,107.9c0,41.2-33.4,74.7-74.7,74.7s-74.7-33.4-74.7-74.7s33.4-74.7,74.7-74.7
		S191.3,66.7,191.3,107.9"/>
	<path id="Fill-3_4_" class="st1" d="M116.8,51c-31.5,0-57.2,25.6-57.2,57.2c0,31.5,25.6,57.2,57.2,57.2c31.5,0,57.2-25.6,57.2-57.2
		c0-18.6-9.1-36.1-24.4-46.8C140,54.6,128.7,51,116.8,51 M116.8,171.1c-34.7,0-63-28.2-63-63c0-34.7,28.2-63,63-63
		c13,0,25.5,3.9,36.1,11.4c16.8,11.8,26.8,31.1,26.8,51.6C179.8,142.9,151.5,171.1,116.8,171.1"/>
	<path id="Fill-5_3_" class="st1" d="M190.4,25.8V29c0,2,1.6,3.6,3.6,3.6h6.1c3.2,0,4.8,3.8,2.5,6.1l-13.9,13.9
		c-0.7,0.7-1.6,1-2.5,1h-12.7c-2,0-3.6-1.6-3.6-3.6V39c0-1,0.4-1.9,1.1-2.5c2.4-2.4,8.6-8.4,13.3-13.1
		C186.5,21,190.4,22.6,190.4,25.8"/>
	<g id="Group-9">
		<g id="Clip-8_1_">
		</g>
		<defs>
			<filter id="Adobe_OpacityMaskFilter" filterUnits="userSpaceOnUse" x="28.9" y="19.8" width="176.4" height="176.4">
				<feColorMatrix  type="matrix" values="1 0 0 0 0  0 1 0 0 0  0 0 1 0 0  0 0 0 1 0"/>
			</filter>
		</defs>
		<mask maskUnits="userSpaceOnUse" x="28.9" y="19.8" width="176.4" height="176.4" id="mask-2_1_">
			<g class="st2">
				<polygon id="path-1_1_" class="st3" points="28.9,19.8 205.3,19.8 205.3,196.2 28.9,196.2 				"/>
			</g>
		</mask>
		<path id="Fill-7_3_" class="st4" d="M190,58.4l-7.3-0.2c10.6,13.9,16.9,31.1,16.9,49.9c0,45.4-37,82.4-82.4,82.4
			s-82.4-37-82.4-82.4c0-45.4,37-82.4,82.4-82.4c18.1,0,34.8,5.9,48.4,15.8l-1-7.7c-13.7-8.8-29.9-13.9-47.4-13.9
			c-48.6,0-88.2,39.6-88.2,88.2c0,48.6,39.6,88.2,88.2,88.2s88.2-39.6,88.2-88.2C205.3,89.6,199.6,72.5,190,58.4"/>
	</g>
	<path id="Fill-10_3_" class="st3" d="M146.7,109.1c0,16.5-13.4,29.9-29.9,29.9s-29.9-13.4-29.9-29.9s13.4-29.9,29.9-29.9
		S146.7,92.6,146.7,109.1"/>
	<path id="Fill-12_2_" class="st1" d="M126.7,108.1c0,5.5-4.4,9.9-9.9,9.9s-9.9-4.4-9.9-9.9c0-5.5,4.4-9.9,9.9-9.9
		S126.7,102.7,126.7,108.1"/>
	<path id="Fill-14_2_" class="st1" d="M116.9,79c-16.1,0-29.3,13.1-29.3,29.3c0,16.1,13.1,29.3,29.3,29.3
		c16.1,0,29.3-13.1,29.3-29.3C146.2,92.1,133.1,79,116.9,79 M116.9,143.3c-19.3,0-35.1-15.7-35.1-35.1c0-19.3,15.7-35.1,35.1-35.1
		c19.3,0,35.1,15.7,35.1,35.1C152,127.6,136.3,143.3,116.9,143.3"/>
	<path id="Fill-16_2_" class="st1" d="M120.8,107.9c-0.7,0-1.5-0.3-2-0.8c-1.1-1.1-1.1-3,0-4.1l65.9-65.9c1.1-1.1,3-1.1,4.1,0
		c1.1,1.1,1.1,3,0,4.1l-65.9,65.9C122.3,107.6,121.5,107.9,120.8,107.9"/>
	<polygon id="Fill-18_2_" class="st3" points="180.6,59.6 134.9,106.4 135.4,94.6 175.8,54.2 	"/>
</g>
</svg>
