<?xml version="1.0" encoding="utf-8"?>
<!-- Generator: Adobe Illustrator 22.0.1, SVG Export Plug-In . SVG Version: 6.00 Build 0)  -->
<svg version="1.1" id="Layer_1" xmlns="http://www.w3.org/2000/svg" xmlns:xlink="http://www.w3.org/1999/xlink" x="0px" y="0px"
	 viewBox="0 0 48 48" style="enable-background:new 0 0 48 48;" xml:space="preserve">
<style type="text/css">
	.st0{fill:#ADDBFF;}
	.st1{fill:#FFCD54;}
	.st2{fill:#72BBFF;}
	.st3{fill:#333D56;}
</style>
<title>Illustration / Approval</title>
<desc>Created with Sketch.</desc>
<g id="Illustration-_x2F_-Approval">
	<path id="Combined-Shape" class="st0" d="M16.9,29.6l13.5-13.7h0.7l5,4.7l0.6,1.6L21,37.8l-2.4,0.9l-1.9-0.4l-4-4.3l1.5-1.5
		L12.6,31l2.8-2.8L16.9,29.6z"/>
	<path id="Combined-Shape_1_" class="st1" d="M33.5,17.2l7.4-5.6l1.2,0.7c-3.6,5.6-5.3,8.5-5.3,8.5S35.6,19.7,33.5,17.2z M12.9,28.1
		l-2.3,2.2l-4.3-7.3L7.6,22L12.9,28.1z"/>
	<path id="Path-90" class="st2" d="M34.9,19.2L16.4,37.4c1.4,1.8,3,1.8,4.8,0c1.8-1.8,7-6.8,15.5-15.1v-1.7L34.9,19.2z"/>
	<path id="Combined-Shape_2_" class="st3" d="M21.3,36.2l-4.9-5l-2.9,2.9l3.2,3.2c1,1,2.6,1,3.5,0L21.3,36.2z M22.4,35.1l13.3-13.3
		c0.2-0.2,0.2-0.5,0-0.7l-4.2-4.2c-0.2-0.2-0.5-0.2-0.7,0L17.4,30.1L22.4,35.1z M7.6,20.5l0.7-0.7l7.5,5.5c0.5,0,1,0.2,1.4,0.6
		l1.1,1.1l11.3-11.3c0.5-0.5,1.3-0.7,2-0.5l0,0l8.3-5.7l0.9,0.8l0.9-0.9c0.4-0.4,1-0.4,1.4,0s0.4,1,0,1.4l-0.8,0.9l0.8,0.7l-5.8,9.1
		c0,0.5-0.2,1-0.6,1.4L21.2,38.4c-1.6,1.6-4.1,1.6-5.7,0l-4.2-4.2l0,0L10.2,33c-0.7-0.7-0.8-1.7-0.3-2.5l-4.6-7.7l0.9-0.9l-1-1.1
		c-0.4-0.4-0.3-1,0.1-1.4s1-0.3,1.4,0.1L7.6,20.5z M11,29.4l3.3-3.3l-5.8-4.3l-1.3,1.3L11,29.4z M11.7,30.7L11.7,30.7L11.7,30.7
		l-0.5,0.5c-0.2,0.2-0.2,0.5,0,0.7l1.1,1.1l4.9-4.9L16.2,27c-0.2-0.2-0.5-0.2-0.7,0L11.7,30.7z M32.9,16.1l3.7,3.7l4.6-7.2l-1.3-1.2
		L32.9,16.1z"/>
</g>
</svg>
