<?xml version="1.0" encoding="utf-8"?>
<!-- Generator: Adobe Illustrator 22.0.1, SVG Export Plug-In . SVG Version: 6.00 Build 0)  -->
<svg version="1.1" id="Layer_1" xmlns="http://www.w3.org/2000/svg" xmlns:xlink="http://www.w3.org/1999/xlink" x="0px" y="0px"
	 viewBox="0 0 48 48" style="enable-background:new 0 0 48 48;" xml:space="preserve">
<style type="text/css">
	.st0{fill:#DCE9F4;}
	.st1{fill:#B1B1C4;}
	.st2{fill:#FFCD54;}
	.st3{fill:#333D56;}
</style>
<title>Illustration / Bulb</title>
<desc>Created with Sketch.</desc>
<g id="Illustration-_x2F_-Bulb">
	<path id="Fill-10" class="st0" d="M29,39.9H18.3c-0.8,0-1.5-0.6-1.5-1.4c0-0.8,0.7-1.4,1.5-1.4H29c0.8,0,1.5,0.6,1.5,1.4
		C30.5,39.2,29.8,39.9,29,39.9"/>
	<path id="Fill-16" class="st0" d="M29.5,35.9H18.4c-0.8,0-1.5-0.7-1.5-1.6c0-0.9,0.7-1.6,1.5-1.6h11.1c0.8,0,1.5,0.7,1.5,1.6
		C31.1,35.2,30.4,35.9,29.5,35.9"/>
	<path id="Fill-24" class="st1" d="M27.7,35.1c0-0.1,0-0.1,0-0.2v-1c0-0.4-0.3-0.6-0.6-0.6h-0.3c-0.4,0-0.6,0.3-0.6,0.6v1
		c0,0.1,0,0.1,0,0.2H27.7z"/>
	<path id="Fill-26" class="st1" d="M27.7,39.7c0-0.1,0-0.1,0-0.2v-1c0-0.4-0.3-0.6-0.6-0.6h-0.3c-0.4,0-0.6,0.3-0.6,0.6v1
		c0,0.1,0,0.1,0,0.2H27.7z"/>
	<path id="Combined-Shape" class="st2" d="M27.1,28.8h-6.9c0-0.3-0.1-0.7-0.2-1.2c-0.3-1.5-1-2.7-2.2-3.5l-0.5-0.4
		c-1.9-1.7-3-4.2-3-6.9c0-0.4,0-0.8,0.1-1.2c1.5,1.3,4.3,1.1,6.7-0.4c2.8-1.8,4.1-4.8,2.9-6.7c-0.3-0.5-0.7-0.8-1.2-1.1
		c0.3,0,0.6,0,0.9,0c5.2,0,9.4,4.2,9.4,9.4c0,2.5-1,4.8-2.6,6.5c-0.3,0.4-0.7,0.7-1.1,1c-0.7,0.7-1.9,1.9-2.2,3.4
		C27.2,28.1,27.2,28.5,27.1,28.8z M15.2,14.3c-0.5-0.5,0.6-2.3,2.4-3.9c1.8-1.6,3.7-2.5,4.1-2c0.5,0.5,0.6,3.1-1.2,4.8
		C18.7,14.8,15.6,14.8,15.2,14.3z"/>
	<path id="Fill-28" class="st0" d="M19.4,40.7c0,0,0,0.1,0,0.1c0,0.5,0.3,0.9,0.7,0.9h8.1c0.4,0,0.7-0.4,0.7-0.9c0,0,0-0.1,0-0.1
		H19.4z"/>
	<path id="Combined-Shape_1_" class="st3" d="M16.8,35.7c-0.6-0.5-1-1.4-1-2.2c0-1,0.5-1.9,1.3-2.5v-1.7c0-0.9-0.5-1.8-1.5-2.8
		c-2.8-2.3-4.5-5.8-4.5-9.7C11,9.7,16.7,4,23.8,4s12.8,5.7,12.8,12.7c0,3.9-1.8,7.4-4.6,9.8c-1,1-1.5,1.9-1.5,2.8V31
		c0.8,0.5,1.3,1.4,1.3,2.5c0,0.9-0.4,1.7-1,2.2c0.6,0.5,1,1.4,1,2.2c0,1.1-0.6,2.1-1.6,2.6c-0.6,1.9-2.2,3.3-4.1,3.3h-4.1
		c-1.8,0-3.4-1.3-4.1-3c-1.2-0.4-2.1-1.5-2.1-2.9C15.8,37.1,16.1,36.3,16.8,35.7z M18.8,36.5c-0.8,0-1.5,0.7-1.5,1.5
		s0.7,1.5,1.5,1.5h10c0.8,0,1.5-0.7,1.5-1.5s-0.7-1.5-1.5-1.5H18.8z M19.5,41c0.5,0.9,1.4,1.4,2.5,1.4h4.1c1,0,1.9-0.6,2.5-1.4H19.5
		z M18.8,35h10c0.8,0,1.5-0.7,1.5-1.5S29.6,32,28.8,32h-10c-0.8,0-1.5,0.7-1.5,1.5S17.9,35,18.8,35z M28.9,30.5v-1.2
		c0-1.3,0.7-2.6,2-3.9l0,0c2.5-2.1,4-5.2,4-8.6c0-6.2-5-11.2-11.2-11.2s-11.2,5-11.2,11.2c0,3.5,1.6,6.6,4.1,8.6l0,0
		c1.3,1.3,2,2.6,2,3.9v1.2c0.1,0,0.1,0,0.2,0h5.1v-6.1l4.2-4.2h-7.3l2.1,2.1l-0.9,0.9l-4.3-4.3h13.5l-6,6v5.6h3.7
		C28.8,30.5,28.9,30.5,28.9,30.5z"/>
</g>
</svg>
