<?xml version="1.0" encoding="utf-8"?>
<!-- Generator: Adobe Illustrator 22.0.1, SVG Export Plug-In . SVG Version: 6.00 Build 0)  -->
<svg version="1.1" id="Layer_1" xmlns="http://www.w3.org/2000/svg" xmlns:xlink="http://www.w3.org/1999/xlink" x="0px" y="0px"
	 viewBox="0 0 48 48" style="enable-background:new 0 0 48 48;" xml:space="preserve">
<style type="text/css">
	.st0{opacity:0.221;fill:#D5AD50;enable-background:new    ;}
	.st1{fill:#FFCD54;}
	.st2{fill:#333D56;}
	.st3{fill:#D5AD50;}
</style>
<title>Illustration / Folders</title>
<desc>Created with Sketch.</desc>
<g id="Illustration-_x2F_-Folders">
	<path id="Combined-Shape" class="st0" d="M2,35h37.4v11H2V35z M42,28.5h2.4v4.9H42V28.5z"/>
	<path id="Combined-Shape_1_" class="st1" d="M19.6,17.4v0.5h-3.3L14.3,14l-2-1.1V6h7.3v4H42v7.4h0V35h-2.6V17.4H19.6z M5.8,17.1H13
		v4.1h22.7V35H5.8V17.1z"/>
	<path id="Combined-Shape_2_" class="st2" d="M8.6,13V5.1c0-1.7,1.4-3.1,3-3.1h8.4c1.7,0,3,1.4,3,3.1v1.1H46V35h-6.6v11H2V16.1
		C2,14.4,3.4,13,5,13H8.6z M39.4,33.3h4.9V7.9H21.4V5.1c0-0.8-0.6-1.4-1.4-1.4h-8.4c-0.8,0-1.4,0.6-1.4,1.4V13h3.2
		c1.7,0,3,1.4,3,3.1v1.1h22.9V33.3z M37.7,18.9H14.8v-2.8c0-0.8-0.6-1.4-1.4-1.4H5c-0.8,0-1.4,0.6-1.4,1.4v28.3h34.1V18.9z"/>
	<path id="Combined-Shape_3_" class="st3" d="M5.8,35h29.9v6.6H5.8V35z M39.4,28.5H42v4.9h-2.6V28.5z"/>
</g>
</svg>
