<!-- Generated by IcoMoon.io -->
<svg version="1.1" xmlns="http://www.w3.org/2000/svg" width="256" height="256" viewBox="0 0 256 256">
<title>analytics-o</title>
<path fill="#333" d="M79.076 197.859c4.323 0 7.965-3.641 7.965-7.964v-61.44c0-4.323-3.641-7.965-7.965-7.965s-7.965 3.641-7.965 7.965v61.44c0 4.323 3.641 7.964 7.965 7.964z"></path>
<path fill="#333" d="M119.353 197.859c4.323 0 7.965-3.641 7.965-7.964v-97.849c0-4.323-3.641-7.965-7.965-7.965s-7.965 3.641-7.965 7.965v97.849c0 4.323 3.413 7.964 7.965 7.964z"></path>
<path fill="#333" d="M199.68 197.859c4.323 0 7.964-3.641 7.964-7.964v-154.738c0-4.323-3.641-7.965-7.964-7.965s-7.964 3.641-7.964 7.965v154.738c0 4.323 3.641 7.964 7.964 7.964z"></path>
<path fill="#333" d="M231.538 223.573h-188.871c-5.689 0-10.24-4.323-10.24-9.557v-189.554c0-4.323-3.641-7.965-7.965-7.965s-7.965 3.641-7.965 7.965v189.554c0 14.108 11.833 25.486 26.169 25.486h188.871c4.323 0 7.964-3.641 7.964-7.964s-3.641-7.964-7.964-7.964z"></path>
<path fill="#333" d="M159.403 197.859c4.323 0 7.964-3.641 7.964-7.964v-122.88c0-4.324-3.641-7.965-7.964-7.965s-7.964 3.641-7.964 7.965v122.88c0 4.323 3.641 7.964 7.964 7.964z"></path>
</svg>
