<!-- Generated by IcoMoon.io -->
<svg version="1.1" xmlns="http://www.w3.org/2000/svg" width="256" height="256" viewBox="0 0 256 256">
<title>beta</title>
<path fill="#333" d="M144.051 116.269c2.276-1.719 3.731-4.42 3.731-7.461 0-0.265-0.011-0.528-0.033-0.788l0.002 0.034c0.019-0.227 0.030-0.492 0.030-0.758 0-3.106-1.45-5.874-3.709-7.663l-0.020-0.016c-2.91-1.709-6.407-2.718-10.142-2.718-0.52 0-1.036 0.019-1.546 0.058l0.068-0.004h-19.242v22.203h19.242c0.34 0.020 0.738 0.032 1.139 0.032 3.873 0 7.492-1.085 10.57-2.969l-0.089 0.051z"></path>
<path fill="#333" d="M134.799 134.55h-21.611v23.535h21.611c0.53 0.051 1.144 0.079 1.767 0.079 3.749 0 7.253-1.048 10.236-2.867l-0.087 0.049c2.292-1.927 3.737-4.796 3.737-8.002 0-0.31-0.013-0.615-0.040-0.918l0.002 0.040c0.026-0.276 0.040-0.597 0.040-0.922 0-3.239-1.446-6.141-3.726-8.096l-0.014-0.012c-2.893-1.858-6.425-2.963-10.215-2.963-0.599 0-1.191 0.028-1.775 0.082l0.075-0.005z"></path>
<path fill="#333" d="M221.762 110.201s0-2.22-35.895-38.263-39.744-37.375-39.744-37.375c-4.885-3.846-11.127-6.169-17.911-6.169s-13.026 2.322-17.973 6.216l0.062-0.047s-3.849 1.554-39.152 37.005c-12.959 12.073-24.912 24.731-36.023 38.114l-0.538 0.668c-3.834 4.889-6.148 11.13-6.148 17.91s2.314 13.021 6.197 17.974l-0.048-0.064s2.665 5.551 37.671 40.631c32.786 32.712 38.041 35.081 38.041 35.081 4.951 3.655 11.175 5.85 17.911 5.85s12.959-2.195 17.994-5.909l-0.083 0.058s4.293-1.702 39.004-36.413 36.635-39.299 36.635-39.299c3.799-4.928 6.089-11.189 6.089-17.984s-2.29-13.057-6.141-18.054l0.051 0.069zM160.777 166.819c-5.965 4.296-13.421 6.87-21.478 6.87-0.75 0-1.494-0.023-2.234-0.066l0.102 0.005h-34.267c-0.26 0.024-0.563 0.038-0.868 0.038-2.512 0-4.804-0.941-6.543-2.489l0.010 0.009c-1.541-1.72-2.483-4.004-2.483-6.508 0-0.314 0.015-0.625 0.044-0.932l-0.003 0.039v-72.826c-0.025-0.26-0.038-0.563-0.038-0.868 0-2.512 0.941-4.804 2.49-6.543l-0.009 0.010c1.729-1.54 4.021-2.481 6.533-2.481 0.306 0 0.608 0.014 0.906 0.041l-0.038-0.003h32.935c0.608-0.036 1.32-0.056 2.037-0.056 7.78 0 14.999 2.401 20.957 6.502l-0.125-0.081c5.161 3.844 8.467 9.928 8.467 16.786 0 0.396-0.011 0.789-0.033 1.179l0.002-0.054c0.004 0.142 0.005 0.31 0.005 0.478 0 4.562-1.443 8.787-3.898 12.243l0.044-0.065c-2.646 3.614-6.279 6.364-10.503 7.871l-0.155 0.048c9.695 2.523 16.737 11.199 16.737 21.52 0 0.24-0.004 0.48-0.012 0.718l0.001-0.035c0.017 0.327 0.026 0.709 0.026 1.093 0 7.12-3.351 13.457-8.562 17.52l-0.049 0.037z"></path>
</svg>
