<!-- Generated by IcoMoon.io -->
<svg version="1.1" xmlns="http://www.w3.org/2000/svg" width="256" height="256" viewBox="0 0 256 256">
<title>bullhorn</title>
<path fill="#333" d="M194.464 56.537c-0.256 0-0.256 0-0.511 0 0 0 1.79 5.625 1.79 40.653-0.256 35.028-1.79 39.119-1.79 39.119 0.256 0 0.256 0 0.511 0 17.131 0 30.937-17.898 30.937-39.886-0.256-21.989-14.063-39.886-30.937-39.886z"></path>
<path fill="#333" d="M164.55 30.713c-1.023 0-2.045 0.256-3.068 0.511v0c-64.943 12.784-121.96 37.585-121.96 37.585v0c-4.602 2.045-7.926 6.392-8.182 11.761-0.256 2.301-1.534 16.619 0 40.142 0 5.114 2.813 9.716 7.159 12.017v0c0 0 0 0 0 0 0.511 0.511 1.279 0.767 2.045 1.023 5.369 2.301 10.739 4.602 16.108 6.648l2.557 1.023c1.79 0.767 3.324 2.557 4.091 4.858l0.767 2.557 19.687 62.642c2.557 8.438 10.227 13.807 18.409 13.807 2.045 0 3.835-0.256 5.881-1.023 10.227-3.324 15.852-14.318 12.528-24.801l-10.227-32.471-0.256-1.279c0-0.256-0.256-0.511-0.256-0.767 0-2.813 2.557-5.369 5.369-5.369 0.256 0 0.767 0 1.023 0h0.511c21.221 5.369 37.073 8.182 43.466 9.204 2.557 0.256 3.324 0.511 4.091 0.511 6.903 0.256 12.529-5.625 12.529-12.784 5.881-64.687 0.767-107.386 0-113.778 0-6.648-5.625-12.017-12.273-12.017z"></path>
</svg>
