<!-- Generated by IcoMoon.io -->
<svg version="1.1" xmlns="http://www.w3.org/2000/svg" width="256" height="256" viewBox="0 0 256 256">
<title>close-app</title>
<path fill="#333" d="M206.848 42.55c0-6.601-5.868-11.735-12.469-11.735h-134.225c-6.601 0-11.735 5.134-11.735 11.735-1.467 33.007-1.467 66.746-1.467 99.752 0 23.471 0 47.676 1.467 71.147 0 6.601 5.868 11.735 12.469 11.735v0h134.225c6.601 0 11.735-5.134 12.469-11.735 1.467-23.471 1.467-47.676 1.467-71.147-0.733-33.74-0.733-66.746-2.201-99.752zM182.643 98.295v0c3.668 3.668 3.668 8.802 0 12.469s-8.802 3.668-12.469 0l-0.733-0.733c-3.668-3.668-8.069-7.335-11.735-11.002-4.401 3.668-8.069 8.069-12.469 11.735v0c-3.668 3.668-8.802 3.668-12.469 0s-3.668-8.802 0-12.469l0.733-0.733c3.668-3.668 7.334-8.069 11.002-11.735-3.668-4.401-8.069-8.069-11.735-12.469v0c-3.668-3.668-3.668-8.802 0-12.469s8.802-3.668 12.469 0l0.733 0.733c3.668 3.668 8.069 7.334 11.735 11.002 4.401-3.668 8.069-8.069 12.469-11.735v0c3.668-3.668 8.802-3.668 12.469 0s3.668 8.802 0 12.469l-0.733 0.733c-3.668 3.668-7.334 8.069-11.002 11.735 3.668 3.668 8.069 8.069 11.735 12.469z"></path>
</svg>
