<!-- Generated by IcoMoon.io -->
<svg version="1.1" xmlns="http://www.w3.org/2000/svg" width="256" height="256" viewBox="0 0 256 256">
<title>close-o</title>
<path fill="#333" d="M139.378 128.071l50.745-49.152c3.186-2.958 3.186-8.192 0.227-11.15-2.958-3.186-8.192-3.186-11.15-0.228l-51.2 49.38-51.2-49.38c-3.186-2.958-8.192-2.958-11.15 0.228s-2.958 8.192 0.228 11.15l50.745 49.152-50.745 48.924c-3.186 2.958-3.186 8.192-0.228 11.15 1.593 1.593 3.641 2.503 5.689 2.503s4.096-0.683 5.461-2.275l51.2-49.38 50.972 49.38c1.593 1.593 3.641 2.275 5.461 2.275 2.048 0 4.096-0.91 5.689-2.503 2.958-3.186 2.958-8.192-0.227-11.15l-50.517-48.924z"></path>
</svg>
