<!-- Generated by IcoMoon.io -->
<svg version="1.1" xmlns="http://www.w3.org/2000/svg" width="256" height="256" viewBox="0 0 256 256">
<title>close</title>
<path fill="#333" d="M171.721 128c10.739-11.25 21.733-22.244 32.471-33.494 10.994-11.761 10.739-30.426-0.767-41.931s-30.17-12.017-41.931-0.767c-11.25 10.739-22.5 21.477-33.494 32.471-11.25-10.739-22.244-21.733-33.494-32.471-11.761-10.994-30.426-10.739-41.931 0.767s-12.017 30.17-0.767 41.931c10.739 11.25 21.477 22.5 32.471 33.494-10.739 11.25-21.733 22.244-32.471 33.494-10.994 11.761-10.739 30.426 0.767 41.931v0c11.506 11.506 30.17 12.017 41.931 0.767 11.25-10.739 22.5-21.477 33.494-32.471 11.25 10.739 22.244 21.733 33.494 32.471 11.761 10.994 30.426 10.739 41.931-0.767v0c11.506-11.506 12.017-30.17 0.767-41.931-10.483-11.25-21.477-22.244-32.471-33.494z"></path>
</svg>
