<!-- Generated by IcoMoon.io -->
<svg version="1.1" xmlns="http://www.w3.org/2000/svg" width="256" height="256" viewBox="0 0 256 256">
<title>database</title>
<path fill="#333" d="M127.999 140.576c-41.22 0-77.549-10.479-90.124-25.151-2.096 2.794-4.192 6.987-4.192 11.178 0 20.26 42.617 36.329 94.316 36.329s94.316-11.876 94.316-34.931c0-4.192-1.397-7.685-4.192-10.479-11.876 14.671-47.507 23.055-90.124 23.055z"></path>
<path fill="#333" d="M222.315 83.987c0 23.754-41.918 34.931-93.617 34.931s-95.014-16.069-95.014-36.329 42.617-34.233 94.316-34.233 94.316 16.069 94.316 35.63z"></path>
<path fill="#333" d="M127.999 185.288c-41.22 0-77.549-9.781-90.124-24.452-2.096 2.794-4.192 6.287-4.192 10.479 0 20.26 42.617 36.329 94.316 36.329s94.316-11.178 94.316-34.931c0-3.493-1.397-7.685-4.192-10.479-11.876 15.37-47.507 23.055-90.124 23.055z"></path>
</svg>
