<!-- Generated by IcoMoon.io -->
<svg version="1.1" xmlns="http://www.w3.org/2000/svg" width="256" height="256" viewBox="0 0 256 256">
<title>download</title>
<path fill="#333" d="M119.435 165.002c-21.733-21.733-34.517-36.307-52.926-57.273-6.903-7.926-1.534-20.199 8.949-20.199h19.687l11.505-40.142c2.557-7.926 8.949-14.574 17.131-16.108 11.25-2.045 21.988 4.602 25.313 15.085l12.017 41.164h19.687c10.483 0 16.108 12.273 8.949 20.199-18.409 20.966-31.193 35.539-52.926 57.272-4.858 4.858-12.784 4.858-17.386 0z"></path>
<path fill="#333" d="M192.815 192.872h-129.63c-8.949 0-16.108 7.159-16.108 16.108s7.159 16.108 16.108 16.108h129.63c8.949 0 16.108-7.159 16.108-16.108 0-8.693-7.159-16.108-16.108-16.108z"></path>
</svg>
