<!-- Generated by IcoMoon.io -->
<svg version="1.1" xmlns="http://www.w3.org/2000/svg" width="256" height="256" viewBox="0 0 256 256">
<title>ellipsis</title>
<path fill="#333" d="M156.889 128c0 15.969-12.92 28.889-28.889 28.889s-28.889-12.92-28.889-28.889 12.92-28.889 28.889-28.889 28.889 12.92 28.889 28.889zM198.617 99.111c-15.969 0-28.889 12.92-28.889 28.889s12.92 28.889 28.889 28.889 28.889-12.92 28.889-28.889-12.92-28.889-28.889-28.889zM57.383 99.111c-15.969 0-28.889 12.92-28.889 28.889s12.92 28.889 28.889 28.889 28.889-12.92 28.889-28.889-12.92-28.889-28.889-28.889z"></path>
</svg>
