<!-- Generated by IcoMoon.io -->
<svg version="1.1" xmlns="http://www.w3.org/2000/svg" width="256" height="256" viewBox="0 0 256 256">
<title>eye</title>
<path fill="#333" d="M218.159 121.864c-15.085-35.539-49.602-60.341-90.255-60.341-40.398 0-75.17 24.801-90.255 60.341-1.534 3.835-1.534 8.437 0 12.273 15.085 35.54 49.602 60.341 90.255 60.341 40.398 0 75.17-24.801 90.255-60.341 1.79-4.091 1.79-8.438 0-12.273zM128.16 161.238c-18.409 0-33.239-14.829-33.239-33.239s14.829-33.239 33.239-33.239c18.409 0 33.239 14.829 33.239 33.239s-14.829 33.239-33.238 33.239z"></path>
</svg>
