<!-- Generated by IcoMoon.io -->
<svg version="1.1" xmlns="http://www.w3.org/2000/svg" width="256" height="256" viewBox="0 0 256 256">
<title>github</title>
<path fill="#333" d="M96.339 184.917c0 0.771-0.887 1.388-2.005 1.388-1.272 0.115-2.159-0.501-2.159-1.388 0-0.771 0.887-1.388 2.005-1.388 1.157-0.115 2.159 0.501 2.159 1.388zM84.346 183.182c-0.27 0.771 0.501 1.658 1.658 1.89 1.003 0.386 2.159 0 2.391-0.771s-0.501-1.658-1.658-2.005c-1.003-0.27-2.121 0.115-2.391 0.887zM101.391 182.526c-1.118 0.27-1.89 1.003-1.774 1.89 0.115 0.771 1.118 1.273 2.275 1.003 1.118-0.27 1.89-1.003 1.774-1.774-0.115-0.733-1.157-1.234-2.275-1.118zM126.765 34.754c-53.487 0-94.401 40.607-94.401 94.093 0 42.766 26.917 79.362 65.364 92.242 4.936 0.887 6.671-2.16 6.671-4.666 0-2.391-0.115-15.579-0.115-23.677 0 0-26.994 5.785-32.663-11.492 0 0-4.396-11.222-10.721-14.114 0 0-8.831-6.054 0.617-5.939 0 0 9.602 0.771 14.885 9.949 8.445 14.885 22.598 10.605 28.112 8.059 0.887-6.17 3.393-10.451 6.17-12.995-21.556-2.391-43.306-5.515-43.306-42.612 0-10.605 2.931-15.926 9.101-22.713-1.003-2.507-4.281-12.841 1.003-26.184 8.059-2.507 26.608 10.412 26.608 10.412 7.713-2.159 16.004-3.278 24.217-3.278s16.505 1.118 24.217 3.278c0 0 18.549-12.957 26.608-10.412 5.283 13.381 2.005 23.677 1.003 26.184 6.17 6.826 9.949 12.147 9.949 22.713 0 37.213-22.713 40.182-44.27 42.612 3.548 3.047 6.555 8.831 6.555 17.893 0 12.995-0.115 29.077-0.115 32.239 0 2.507 1.774 5.553 6.672 4.666 38.563-12.803 64.709-49.399 64.709-92.165 0-53.487-43.383-94.093-96.87-94.093zM69.847 167.757c-0.501 0.386-0.386 1.273 0.27 2.005 0.617 0.617 1.504 0.887 2.005 0.386 0.501-0.386 0.386-1.273-0.27-2.005-0.617-0.617-1.504-0.887-2.005-0.386zM65.682 164.633c-0.27 0.501 0.115 1.118 0.887 1.504 0.617 0.386 1.388 0.27 1.658-0.27 0.27-0.501-0.115-1.118-0.887-1.504-0.771-0.232-1.388-0.115-1.658 0.27zM78.176 178.362c-0.617 0.501-0.386 1.658 0.501 2.391 0.887 0.887 2.005 1.003 2.507 0.386 0.501-0.501 0.27-1.658-0.501-2.391-0.849-0.887-2.005-1.003-2.507-0.386zM73.78 172.693c-0.617 0.386-0.617 1.388 0 2.275s1.658 1.273 2.159 0.887c0.617-0.501 0.617-1.504 0-2.391-0.54-0.887-1.543-1.273-2.159-0.771z"></path>
</svg>
