<!-- Generated by IcoMoon.io -->
<svg version="1.1" xmlns="http://www.w3.org/2000/svg" width="256" height="256" viewBox="0 0 256 256">
<title>help</title>
<path fill="#333" d="M205.154 49.187c-19.911-19.91-50.606-21.57-77.984-21.57s-58.073 1.659-77.984 21.57c-19.91 19.91-21.57 50.606-21.57 77.984s1.659 58.073 21.57 77.983c11.614 11.614 27.377 17.422 43.969 19.081 0 0 0 0 0 0 1.659 0 2.489 0 4.148 0.83 1.659 0 4.148 0.83 5.807 0.83 0 0 0 0 0 0 29.866 2.489 58.902-1.659 60.561-1.659v0c14.933-2.489 29.866-7.466 40.651-19.081 19.911-19.911 21.57-50.606 21.57-77.984s-0.83-58.073-20.74-77.984zM139.614 185.243c-3.319 3.319-7.466 4.978-12.444 4.978s-9.126-1.659-11.615-4.978c-3.319-3.319-4.978-7.466-4.978-12.444s1.659-9.126 4.978-12.444c3.319-3.319 7.466-4.978 11.614-4.978 4.978 0 9.126 1.659 12.444 4.978s4.978 7.466 4.978 12.444c0 4.978-1.659 9.126-4.978 12.444zM166.162 106.43c-1.659 3.319-4.148 6.637-6.637 9.126s-5.807 5.807-9.955 9.126c-4.148 3.319-6.637 5.807-9.126 8.296-1.659 2.489-3.319 4.978-4.148 7.466s-1.659 4.148-3.319 5.807c-1.659 1.659-4.148 2.489-6.637 2.489-3.319 0-4.978-0.83-7.466-3.319-1.659-1.659-2.489-4.978-2.489-8.296 0-5.807 0.83-9.955 3.319-14.103s4.978-7.466 9.126-11.614c2.489-3.319 4.978-5.807 5.807-7.466 1.659-2.489 1.659-4.148 1.659-6.637s-0.83-4.978-2.489-5.807c-1.659-1.659-4.148-2.489-7.466-2.489-2.489 0-4.978 0.83-8.296 1.659-2.489 0.83-5.807 2.489-9.126 4.148l-4.148 2.489c-4.148 2.489-7.466 3.319-9.955 3.319-1.659-0.83-4.148-1.659-5.807-4.148-2.489-2.489-3.319-5.807-3.319-9.126 0-2.489 0.83-4.148 1.659-5.807s2.489-3.319 4.148-4.978c4.978-4.148 11.615-6.637 18.251-9.126s13.274-3.319 19.91-3.319c7.466 0 14.103 1.659 19.91 4.148s10.785 6.637 14.103 10.785 4.978 9.955 4.978 15.763c0 4.148-0.83 8.296-2.489 11.614z"></path>
</svg>
