<!-- Generated by IcoMoon.io -->
<svg version="1.1" xmlns="http://www.w3.org/2000/svg" width="257" height="256" viewBox="0 0 257 256">
<title>login</title>
<path fill="#333" d="M128.809 28.434c-0.005 0-0.010 0-0.016 0-30.109 0-57.093 13.379-75.33 34.517l-0.108 0.128c-2.891 3.229-4.659 7.517-4.659 12.218 0 10.135 8.216 18.35 18.35 18.35 5.669 0 10.737-2.571 14.103-6.609l0.024-0.030c11.607-13.532 28.725-22.052 47.832-22.052 34.74 0 62.903 28.162 62.903 62.903s-28.162 62.903-62.903 62.903c-19.55 0-37.017-8.918-48.553-22.909l-0.086-0.107c-3.428-4.107-8.549-6.702-14.276-6.702-10.248 0-18.556 8.308-18.556 18.556 0 4.521 1.617 8.665 4.304 11.883l-0.024-0.030c18.402 22.171 45.967 36.185 76.805 36.185 55.010 0 99.603-44.594 99.603-99.603 0-54.942-44.485-99.494-99.401-99.603h-0.011z"></path>
<path fill="#333" d="M110.532 167.672c-0 0.024-0.001 0.053-0.001 0.081 0 4.5 3.647 8.147 8.147 8.147 2.16 0 4.124-0.841 5.583-2.214l-0.004 0.004c14.68-13.505 28.919-25.47 44.039-40.81 1.441-1.49 2.328-3.522 2.328-5.762s-0.888-4.272-2.33-5.764l0.002 0.002c-14.68-14.68-29.36-25.469-44.039-38.314-1.451-1.312-3.384-2.116-5.505-2.116-4.54 0-8.22 3.68-8.22 8.22 0 0.021 0 0.043 0 0.064v-0.003 18.864h-63.638c-10.135 0-18.35 8.216-18.35 18.35s8.216 18.35 18.35 18.35v0h63.638z"></path>
</svg>
