<!-- Generated by IcoMoon.io -->
<svg version="1.1" xmlns="http://www.w3.org/2000/svg" width="256" height="256" viewBox="0 0 256 256">
<title>logo-o</title>
<path fill="#333" d="M127.886 238.82c-10.468 0-20.025-4.096-27.534-11.378l-72.363-71.907c-7.282-7.282-11.378-17.067-11.378-27.534s4.096-20.025 11.378-27.307l72.363-72.135c7.282-7.282 17.067-11.378 27.534-11.378 10.24 0 20.025 4.096 27.534 11.15l72.59 72.135c7.282 7.282 11.378 17.067 11.378 27.307 0 10.468-4.096 20.025-11.378 27.534l-72.59 72.135c-7.509 7.509-17.294 11.378-27.534 11.378zM127.886 33.337c-6.144 0-11.833 2.276-16.384 6.599l-72.363 72.135c-4.324 4.323-6.599 10.013-6.599 16.156s2.276 11.833 6.599 16.156l72.59 71.907c4.323 4.323 10.013 6.599 16.156 6.599s11.833-2.503 16.384-6.827l72.363-71.907c4.323-4.323 6.599-10.012 6.599-16.156s-2.275-11.833-6.599-16.156l-72.59-71.907c-4.323-4.324-10.012-6.599-16.156-6.599z"></path>
</svg>
