<!-- Generated by IcoMoon.io -->
<svg version="1.1" xmlns="http://www.w3.org/2000/svg" width="256" height="256" viewBox="0 0 256 256">
<title>meh-o</title>
<path fill="#333" d="M128 39.506c25.811 0 52.358 1.475 68.583 17.699s17.698 42.772 17.698 68.583v5.162c0 25.811-1.475 52.358-17.698 68.583s-42.772 17.698-68.583 17.698c-25.811 0-52.358-1.475-68.583-17.698s-17.698-42.772-17.698-68.583v-5.162c0-25.811 1.475-52.358 17.698-68.583s42.772-17.698 68.583-17.698zM128 28.444c-26.548 0-56.784 1.475-75.957 20.648-19.911 19.911-20.648 49.409-20.648 75.957 0 0.737 0 4.425 0 5.162 0 26.548 1.475 56.784 20.648 75.957 19.174 19.911 49.409 21.386 75.957 21.386s56.784-1.475 75.957-20.648c19.174-19.174 20.648-49.409 20.648-75.957 0-0.737 0-4.425 0-5.162 0-26.548-1.475-56.784-20.648-75.957-19.174-19.911-49.409-21.386-75.957-21.386v0z"></path>
<path fill="#333" d="M179.621 119.15c0 6.924-5.613 12.536-12.536 12.536s-12.536-5.612-12.536-12.537c0-6.924 5.613-12.537 12.536-12.537s12.536 5.612 12.536 12.537z"></path>
<path fill="#333" d="M105.876 119.15c0 6.924-5.612 12.536-12.537 12.536s-12.537-5.612-12.537-12.537c0-6.924 5.612-12.537 12.537-12.537s12.537 5.612 12.537 12.537z"></path>
<path fill="#333" d="M172.247 183.309h-85.544c-2.95 0-5.899-2.213-5.899-5.899s2.213-5.899 5.899-5.899h86.281c2.95 0 5.899 2.213 5.899 5.899s-2.95 5.899-6.637 5.899z"></path>
</svg>
