<!-- Generated by IcoMoon.io -->
<svg version="1.1" xmlns="http://www.w3.org/2000/svg" width="256" height="256" viewBox="0 0 256 256">
<title>menu</title>
<path fill="#333" d="M197.417 162.006c-46.278-1.79-92.556-1.79-138.834 0-5.881 0.256-10.483 5.113-10.483 10.994v11.761c0 5.881 4.602 10.739 10.483 10.994 46.278 1.79 92.556 1.79 138.834 0 5.881-0.256 10.483-5.113 10.483-10.994v-11.761c0-5.881-4.602-10.739-10.483-10.994z"></path>
<path fill="#333" d="M197.417 111.125c-46.278-1.79-92.556-1.79-138.834 0-5.881 0.256-10.483 5.114-10.483 10.994v11.761c0 5.881 4.602 10.739 10.483 10.994 46.278 1.79 92.556 1.79 138.834 0 5.881-0.256 10.483-5.113 10.483-10.994v-11.761c0-5.881-4.602-10.739-10.483-10.994z"></path>
<path fill="#333" d="M197.417 60.245c-46.278-1.79-92.556-1.79-138.834 0-5.881 0.256-10.483 5.113-10.483 10.994v11.761c0 5.881 4.602 10.739 10.483 10.994 46.278 1.79 92.556 1.79 138.834 0 5.881-0.256 10.483-5.114 10.483-10.994v-11.761c0-5.881-4.602-10.739-10.483-10.994z"></path>
</svg>
