<!-- Generated by IcoMoon.io -->
<svg version="1.1" xmlns="http://www.w3.org/2000/svg" width="256" height="256" viewBox="0 0 256 256">
<title>notes</title>
<path fill="#333" d="M210.329 61.012c-0.256-7.159-6.136-12.784-13.295-12.784h-20.454v-4.347c0-7.415-5.881-13.295-13.295-13.295s-13.295 5.881-13.295 13.295v4.602h-43.977v-4.347c0-7.415-5.881-13.295-13.295-13.295s-13.295 5.881-13.295 13.295v4.347h-20.454c-7.159 0-13.040 5.625-13.295 12.784-2.045 50.369-2.045 100.738 0 151.363 0.256 7.159 6.136 12.784 13.295 12.784h138.067c7.159 0 13.040-5.625 13.295-12.784 2.045-50.625 2.045-101.249 0-151.619zM134.648 154.335h-46.278c-4.858 0-8.949-3.835-8.949-8.949 0-4.858 3.835-8.949 8.949-8.949h46.278c4.858 0 8.949 3.835 8.949 8.949-0.256 5.113-4.091 8.949-8.949 8.949zM158.937 119.051h-70.568c-4.858 0-8.949-3.835-8.949-8.949s3.835-8.949 8.949-8.949h70.568c4.858 0 8.949 3.835 8.949 8.949s-4.091 8.949-8.949 8.949z"></path>
</svg>
