<!-- Generated by IcoMoon.io -->
<svg version="1.1" xmlns="http://www.w3.org/2000/svg" width="256" height="256" viewBox="0 0 256 256">
<title>pencil</title>
<path fill="#333" d="M199.949 95.887l10.215-10.215c11.577-10.215 13.619-27.919 3.404-39.496s-27.919-13.619-39.496-3.404c-1.362 0.681-2.043 2.043-3.404 3.404l-10.896 9.534 40.177 40.177z"></path>
<path fill="#333" d="M135.938 79.544l-96.017 96.017c-2.043 2.724-4.086 6.128-4.086 10.215v19.749c0 7.492 6.128 14.3 14.3 14.3h19.749c3.404 0 7.492-1.362 10.215-4.086l96.017-96.017-40.177-40.177z"></path>
<path fill="#333" d="M211.526 219.823h-102.145c-4.086-0.681-7.492-4.766-6.809-8.854 0.681-3.404 3.404-6.128 6.809-6.809h102.145c4.086 0.681 7.492 4.766 6.81 8.854-0.681 3.404-3.404 6.128-6.81 6.81z"></path>
</svg>
