<!-- Generated by IcoMoon.io -->
<svg version="1.1" xmlns="http://www.w3.org/2000/svg" width="256" height="256" viewBox="0 0 256 256">
<title>print-o</title>
<path fill="#333" d="M222.891 67.584h-23.666v-34.133c0-9.102-7.282-16.384-16.384-16.384h-108.999c-9.102 0-16.384 7.282-16.384 16.384v34.133h-24.576c-9.102 0-16.384 7.282-16.384 16.384v93.981c0 9.102 7.282 16.384 16.384 16.384h24.576v28.445c0 8.875 7.282 16.156 16.384 16.156h108.316c9.102 0 16.384-7.282 16.384-16.156v-28.445h24.576c9.102 0 16.384-7.282 16.384-16.384v-93.981c-0.227-9.102-7.509-16.384-16.612-16.384zM73.159 33.45c0-0.227 0.228-0.455 0.455-0.455h108.999c0.227 0 0.455 0.227 0.455 0.455v34.133h-109.909v-34.133zM181.93 223.004h-108.089c-0.228 0-0.455-0.227-0.455-0.227s0 0 0 0v-79.417h109.227v79.417c-0.227 0-0.227 0.227-0.683 0.227zM223.346 177.948c0 0.227-0.227 0.455-0.455 0.455h-24.576v-50.972h-141.084v50.972h-24.349c-0.227 0-0.455-0.227-0.455-0.455v-93.981c0-0.228 0.227-0.455 0.455-0.455h190.009c0.227 0 0.455 0.228 0.455 0.455v93.981z"></path>
<path fill="#333" d="M158.493 159.288h-61.44c-4.323 0-7.965 3.641-7.965 7.964s3.641 7.964 7.965 7.964h61.44c4.323 0 7.964-3.641 7.964-7.964s-3.413-7.964-7.964-7.964z"></path>
<path fill="#333" d="M158.493 191.146h-61.44c-4.323 0-7.965 3.641-7.965 7.964s3.641 7.964 7.965 7.964h61.44c4.323 0 7.964-3.641 7.964-7.964s-3.413-7.964-7.964-7.964z"></path>
</svg>
