<!-- Generated by IcoMoon.io -->
<svg version="1.1" xmlns="http://www.w3.org/2000/svg" width="256" height="256" viewBox="0 0 256 256">
<title>resume</title>
<path fill="#333" d="M204.561 141.695c0-31.5-0.685-63-1.37-94.499 0-6.163-5.478-11.641-11.641-11.641h-127.368c-6.163 0-10.956 4.793-11.641 11.641-1.37 31.5-1.37 63-1.37 94.499 0 22.598 0.684 45.195 1.37 67.793 0 6.163 5.478 10.957 11.641 10.957h127.368c6.163 0 10.957-4.793 11.641-10.957 1.37-22.598 2.054-45.195 1.37-67.793zM131.29 56.783c8.902 0 16.434 7.532 16.434 15.75s-7.532 15.75-16.434 15.75-16.434-7.532-16.434-15.75 7.532-15.75 16.434-15.75v0zM99.106 112.249c2.739-10.957 16.434-18.489 31.5-18.489s28.761 7.532 31.5 18.489c0.685 2.055-0.685 4.109-2.739 4.793 0 0-0.685 0-0.685 0-18.489 0.684-37.663 0.684-55.466 0-2.055 0-4.109-2.055-4.109-4.109 0 0 0 0 0-0.684zM173.061 185.52h-84.227c-4.109 0.685-8.218-2.739-8.218-6.848s2.739-8.218 6.848-8.218c0.684 0 0.684 0 1.37 0h84.227c4.109 0.685 7.532 4.109 6.848 8.218-0.685 3.424-3.424 6.163-6.848 6.848zM173.061 151.967h-84.227c-4.109 0.685-8.218-2.739-8.218-6.848-0.684-4.109 2.739-8.218 6.848-8.218 0.684 0 0.684 0 1.37 0h84.227c4.109 0.685 7.532 4.109 6.848 8.218-0.685 3.424-3.424 6.163-6.848 6.848z"></path>
</svg>
