<!-- Generated by IcoMoon.io -->
<svg version="1.1" xmlns="http://www.w3.org/2000/svg" width="256" height="256" viewBox="0 0 256 256">
<title>search-o</title>
<path fill="#333" d="M234.667 224.37l-53.248-53.020c14.108-16.384 22.756-37.547 22.756-60.757 0-50.972-41.643-92.615-92.615-92.615s-92.615 41.415-92.615 92.615c0 50.972 41.643 92.615 92.615 92.615 22.073 0 42.553-7.737 58.482-20.708l53.248 53.248c1.593 1.593 3.641 2.275 5.689 2.275s4.096-0.683 5.689-2.275c3.186-3.186 3.186-8.192 0-11.378zM34.873 110.592c0-42.325 34.361-76.686 76.686-76.686s76.686 34.361 76.686 76.686-34.361 76.686-76.686 76.686-76.686-34.361-76.686-76.686z"></path>
</svg>
