<!-- Generated by IcoMoon.io -->
<svg version="1.1" xmlns="http://www.w3.org/2000/svg" width="256" height="256" viewBox="0 0 256 256">
<title>search</title>
<path fill="#333" d="M221.385 192.94c-13.551-19.176-28.892-37.073-45.511-53.949 4.602-9.716 7.159-20.454 7.159-31.96-0.256-41.931-34.261-76.193-76.193-76.193s-75.937 34.261-75.937 76.193c0 41.931 34.005 75.937 75.937 75.937 11.505 0 22.244-2.557 31.96-7.159 16.619 16.619 34.517 31.96 53.949 45.511 8.182 5.881 19.432 4.858 26.335-2.045 7.159-7.159 7.926-18.153 2.301-26.335zM64.653 107.032c0-23.267 18.921-42.187 42.187-42.187s42.187 18.921 42.187 42.187-18.921 42.187-42.187 42.187-42.187-18.921-42.187-42.187z"></path>
</svg>
