<!-- Generated by IcoMoon.io -->
<svg version="1.1" xmlns="http://www.w3.org/2000/svg" width="256" height="256" viewBox="0 0 256 256">
<title>sort-down</title>
<path fill="#333" d="M135.438 80.727c29.389 1.547 58.003 1.547 87.392 0 3.866 0 6.959-5.413 6.959-10.828v-11.6c0-6.188-3.094-10.828-6.959-10.828-29.389-1.547-58.003-1.547-87.392 0-3.866 0-6.959 5.413-6.959 10.828v11.6c0 5.413 3.094 10.828 6.959 10.828z"></path>
<path fill="#333" d="M136.212 144.144c23.201 1.547 45.63 1.547 68.831 0 3.094 0 5.413-5.413 5.413-10.828v-11.6c0-6.188-2.32-10.828-5.413-10.828-23.201-1.547-45.63-1.547-68.831 0-3.094 0-5.413 5.413-5.413 10.828v11.6c0.774 5.413 2.32 10.054 5.413 10.828z"></path>
<path fill="#333" d="M134.666 207.563c16.241 1.547 31.708 1.547 47.949 0 2.32 0 3.866-5.413 3.866-10.828v-11.601c0-6.188-1.547-10.828-3.866-10.828-16.241-1.547-31.708-1.547-47.949 0-2.32 0-3.866 5.413-3.866 10.828v11.601c0.774 5.413 2.32 10.054 3.866 10.828z"></path>
<path fill="#333" d="M110.689 161.159h-21.654c1.547-35.576 1.547-71.151-0.773-106.725 0-4.641-5.413-9.281-10.828-9.281h-11.6c-6.188 0.773-10.828 4.641-11.6 10.053-1.547 35.576-1.547 71.151-0.773 106.725h-20.882c-5.413 0-8.507 6.188-4.641 10.053 11.601 13.147 25.522 24.748 39.442 37.123 2.32 2.32 6.96 2.32 9.281 0 13.147-12.374 27.069-23.975 39.442-37.895 3.866-3.094 0.773-10.053-5.413-10.053z"></path>
</svg>
