<!-- Generated by IcoMoon.io -->
<svg version="1.1" xmlns="http://www.w3.org/2000/svg" width="256" height="256" viewBox="0 0 256 256">
<title>sort-up</title>
<path fill="#333" d="M135.737 81.583c29.398 1.547 58.021 1.547 87.418 0 3.868 0 6.962-5.415 6.962-10.831v-11.605c0-6.188-3.094-10.831-6.962-10.831-29.398-1.547-58.021-1.547-87.418 0-3.868 0-6.962 5.415-6.962 10.831v11.605c0.774 6.189 3.868 10.831 6.962 10.831z"></path>
<path fill="#333" d="M137.283 145.019c23.208 1.548 45.643 1.548 68.852 0 3.094 0 5.415-5.415 5.415-10.831v-11.605c0-6.189-2.321-10.831-5.415-10.831-23.209-1.547-45.642-1.547-68.852 0-3.094 0-5.415 5.415-5.415 10.831v11.605c0 5.415 2.321 10.831 5.415 10.831z"></path>
<path fill="#333" d="M135.737 208.456c16.246 1.548 31.718 1.548 47.964 0 2.321 0 3.868-5.415 3.868-10.831v-11.605c0-6.189-1.548-10.831-3.868-10.831-16.246-1.548-31.718-1.548-47.964 0-2.321 0-3.868 5.415-3.868 10.831v11.605c0 5.415 1.548 10.831 3.868 10.831z"></path>
<path fill="#333" d="M32.846 97.056h21.661c-1.547 35.586-1.547 71.172 0.774 106.758 0 4.642 5.415 9.283 10.831 9.283h11.605c6.189 0 10.831-3.868 10.831-9.283 1.547-35.586 1.547-71.172 0.774-106.758h21.661c5.415 0 8.51-6.189 4.642-10.057-12.378-13.151-26.303-24.755-39.454-37.907-1.547-2.321-5.415-2.321-8.51 0-13.151 12.378-27.076 23.981-39.454 37.134-3.868 4.642-0.774 10.831 4.642 10.831z"></path>
</svg>
