<!-- Generated by IcoMoon.io -->
<svg version="1.1" xmlns="http://www.w3.org/2000/svg" width="256" height="256" viewBox="0 0 256 256">
<title>star</title>
<path fill="#333" d="M125.198 211.69h2.886z"></path>
<path fill="#333" d="M136.743 42.856l21.645 43.291c1.443 2.886 4.329 5.051 7.937 5.772l48.341 7.216c7.937 1.443 11.544 11.544 5.772 17.317l-34.632 33.911c-2.165 2.165-3.608 5.772-2.886 8.658l7.937 47.62c1.443 7.937-7.215 14.43-14.43 10.822l-43.291-22.367c-2.886-1.443-6.493-1.443-9.38 0l-43.291 22.367c-7.216 3.608-15.873-2.165-14.43-10.822l7.216-47.62c0.721-3.608-0.721-6.493-2.886-8.658l-34.633-33.911c-5.772-5.772-2.886-16.594 5.772-17.317l48.341-7.216c3.608-0.721 5.772-2.886 7.937-5.772l21.645-43.291c2.886-7.215 12.988-7.215 17.316 0z"></path>
</svg>
