<!-- Generated by IcoMoon.io -->
<svg version="1.1" xmlns="http://www.w3.org/2000/svg" width="256" height="256" viewBox="0 0 256 256">
<title>support-o</title>
<path fill="#333" d="M213.446 85.22v-41.87c0-14.336-11.833-26.169-26.169-26.169h-118.329c-14.336 0-26.169 11.833-26.169 26.169v41.87c-14.563 2.048-25.714 14.564-25.714 29.582v43.463c0 16.612 13.426 30.037 30.037 30.037h5.916c16.611 0 30.037-13.426 30.037-30.037v-43.463c0-14.564-10.468-26.852-24.349-29.355v-42.098c0-5.689 4.551-10.24 10.24-10.24h118.329c5.689 0 10.24 4.551 10.24 10.24v42.098c-13.881 2.503-24.576 14.791-24.576 29.355v43.463c0 11.378 6.371 21.39 15.701 26.397-7.054 7.737-16.384 13.426-26.851 16.156-3.641-12.060-15.019-21.163-28.217-21.163-16.384 0-29.582 13.198-29.582 29.582s13.198 29.582 29.582 29.582c13.653 0 25.031-9.33 28.445-21.845 17.977-3.641 33.451-13.881 43.918-28.672h2.958c16.612 0 30.037-13.426 30.037-30.037v-43.463c0.227-15.019-10.923-27.534-25.486-29.582zM67.127 114.802v43.463c0 7.737-6.371 14.108-14.108 14.108h-6.144c-7.737 0-14.108-6.371-14.108-14.108v-43.463c0-7.737 6.371-14.108 14.108-14.108h6.144c7.737 0 14.108 6.371 14.108 14.108zM133.574 222.891c-7.509 0-13.653-6.144-13.653-13.653s6.144-13.653 13.653-13.653 13.653 6.144 13.653 13.653-5.917 13.653-13.653 13.653zM223.231 158.493c0 7.737-6.371 14.108-14.108 14.108h-6.144c-7.737 0-14.108-6.371-14.108-14.108v-43.691c0-7.737 6.371-14.108 14.108-14.108h6.144c7.737 0 14.108 6.371 14.108 14.108v43.691z"></path>
</svg>
