<!-- Generated by IcoMoon.io -->
<svg version="1.1" xmlns="http://www.w3.org/2000/svg" width="256" height="256" viewBox="0 0 256 256">
<title>target</title>
<path fill="#333" d="M167.084 128c0 21.585-17.499 39.084-39.084 39.084s-39.084-17.499-39.084-39.084c0-21.585 17.499-39.084 39.084-39.084s39.084 17.499 39.084 39.084z"></path>
<path fill="#333" d="M128 26.548c-55.715 0-101.452 45.737-101.452 101.452s45.737 101.452 101.452 101.452 101.452-45.737 101.452-101.452c0-55.715-45.737-101.452-101.452-101.452zM128 195.357c-36.589 0-67.358-29.937-67.358-67.358s29.937-67.358 67.358-67.358 67.358 29.937 67.358 67.358-30.768 67.358-67.358 67.358z"></path>
</svg>
