<!-- Generated by IcoMoon.io -->
<svg version="1.1" xmlns="http://www.w3.org/2000/svg" width="256" height="256" viewBox="0 0 256 256">
<title>tick-circle</title>
<path fill="#333" d="M128 30.841c-53.693 0-97.159 43.466-97.159 97.159s43.466 97.159 97.159 97.159c53.693 0 97.159-43.466 97.159-97.159s-43.721-97.159-97.159-97.159zM175.045 113.17c-16.619 16.875-33.75 33.494-51.136 49.858-5.881 5.369-15.085 5.369-20.71-0.256l-21.989-21.477c-5.625-5.369-5.881-14.574-0.256-19.943 0 0 0.256-0.256 0.256-0.256 5.625-5.369 14.829-5.114 20.454 0.256l11.505 11.25c13.551-13.295 27.102-26.591 40.909-39.63 5.881-5.369 15.085-5.369 20.71 0.256v0c5.625 5.625 5.881 14.318 0.256 19.943z"></path>
</svg>
