<!-- Generated by IcoMoon.io -->
<svg version="1.1" xmlns="http://www.w3.org/2000/svg" width="256" height="256" viewBox="0 0 256 256">
<title>tick</title>
<path fill="#333" d="M177.173 58.398c-26.072 25.809-51.648 52.173-76.962 78.943l-21.615-22.197c-4.923-5.2-11.875-8.436-19.582-8.436-7.436 0-14.169 3.013-19.045 7.883l-0.379 0.379c-4.752 5.114-7.668 11.99-7.668 19.548 0 7.825 3.126 14.919 8.197 20.104l41.389 42.467c4.961 5.17 11.927 8.383 19.644 8.383 7.473 0 14.242-3.013 19.159-7.89l-0.002 0.002q49.085-48.386 96.13-98.781c4.735-5.163 7.637-12.073 7.637-19.662 0-7.828-3.088-14.935-8.112-20.169l0.010 0.010c-4.957-5.211-11.943-8.453-19.686-8.453-7.457 0-14.211 3.006-19.117 7.872l0.002-0.002z"></path>
</svg>
