<!-- Generated by IcoMoon.io -->
<svg version="1.1" xmlns="http://www.w3.org/2000/svg" width="256" height="256" viewBox="0 0 256 256">
<title>tray</title>
<path fill="#333" d="M226.177 94.174c-8.25-32.175-11.55-46.201-18.15-53.626-6.6-6.6-33-7.425-80.026-7.425v0c-47.026 0-73.426 0.825-80.026 7.425-6.6 7.425-9.9 21.45-18.15 53.626s-11.55 66.826-11.55 77.551c0 11.55 0.825 18.15 2.475 28.875 1.65 9.075 5.775 15.675 13.2 18.976 8.25 3.3 45.376 4.125 91.577 4.125h3.3c46.201 0 83.326-0.825 91.576-4.125s11.55-9.9 13.2-18.976c1.65-10.725 2.475-17.325 2.475-28.875 1.65-10.725-1.65-45.376-9.9-77.551zM207.201 162.651c0 4.95-0.825 6.6-4.125 6.6-5.775 0-33.826 0-37.126 0s-6.6 0-7.425 6.6c-0.825 6.6-1.65 19.8-10.725 19.8-8.25 0-17.325 0-19.8 0 0 0 0 0 0 0s0 0 0 0c-2.475 0-11.55 0-19.8 0-9.075 0-9.9-13.2-10.725-19.8s-4.125-6.6-7.425-6.6c-3.3 0-31.351 0-37.126 0-3.3 0-4.125-1.65-4.125-6.6 0 0 0 0 0 0s0-0.825 0-0.825c0 0 0 0 0-0.825 0.825-6.6 1.65-28.050 8.25-60.226 2.475-18.15 4.95-26.4 6.6-30.525 0-1.65 0.825-2.475 1.65-3.3-0.825-0.825 0-0.825 0-0.825 0.825-1.65 1.65-1.65 4.125-2.475v0c0 0 15.675-1.65 58.576-1.65l58.576 1.65c1.65 0 3.3 0.825 4.125 1.65 0 0 0 0 0.825 0.825s0.825 1.65 1.65 3.3c1.65 4.125 3.3 13.2 6.6 30.526 6.6 32.175 7.425 54.451 8.25 60.226 0 0 0 0 0 0.825-0.825 0.825-0.825 0.825-0.825 1.65 0-0.825 0 0 0 0z"></path>
</svg>
