<!-- Generated by IcoMoon.io -->
<svg version="1.1" xmlns="http://www.w3.org/2000/svg" width="256" height="256" viewBox="0 0 256 256">
<title>view-o</title>
<path fill="#333" d="M21.163 97.621c3.641 2.731 8.419 1.82 11.15-1.593 0.227-0.455 29.355-38.457 95.801-38.457 65.763 0 94.436 36.864 95.573 38.457 1.593 2.048 3.869 3.186 6.371 3.186 1.593 0 3.413-0.455 4.779-1.593 3.413-2.731 4.323-7.509 1.593-11.15-1.365-1.82-34.133-44.828-108.317-44.828s-107.179 43.008-108.544 44.828c-2.731 3.413-1.82 8.419 1.593 11.15z"></path>
<path fill="#333" d="M130.845 97.849h-5.916c-64.398 0-107.179 40.050-107.179 56.206 0.227 13.426 25.941 60.302 107.406 60.302h5.917c81.465 0 107.179-46.876 107.179-60.075-0.227-16.384-42.781-56.434-107.406-56.434zM127.204 195.698c-22.983 0-41.415-18.66-41.415-41.415 0-21.618 18.204-37.774 42.325-37.774 23.893 0 40.733 15.474 40.733 37.774-0.227 22.756-18.66 41.415-41.643 41.415zM33.906 154.51c1.821-5.917 18.887-23.211 47.331-33.223-7.282 9.102-11.605 20.253-11.605 32.996 0 15.246 5.916 29.127 15.701 39.367-38.457-10.468-50.745-34.361-51.428-39.139zM168.391 194.105c10.012-10.468 16.384-24.576 16.384-40.050 0-12.971-4.096-24.576-11.378-33.451 29.582 10.012 47.104 27.762 48.924 33.678-0.91 5.234-13.653 29.81-53.931 39.822z"></path>
<path fill="#333" d="M137.671 156.786c-8.192 0-14.791-6.599-14.791-14.791 0-2.958 0.91-5.689 2.503-8.192-9.785 1.365-17.294 9.557-17.294 19.57 0 10.923 8.875 19.797 19.797 19.797s19.797-8.875 19.797-19.797c0-0.227 0-0.455 0-0.683-2.503 2.731-6.144 4.096-10.012 4.096z"></path>
</svg>
