<!-- Generated by IcoMoon.io -->
<svg version="1.1" xmlns="http://www.w3.org/2000/svg" width="256" height="256" viewBox="0 0 256 256">
<title>add-circle-o</title>
<path fill="#333" d="M128 213.333c47.128 0 85.333-38.205 85.333-85.333s-38.205-85.333-85.333-85.333c-47.128 0-85.333 38.205-85.333 85.333v0c0 47.128 38.205 85.333 85.333 85.333v0zM128 234.667c-58.91 0-106.667-47.756-106.667-106.667s47.757-106.667 106.667-106.667c58.911 0 106.667 47.757 106.667 106.667v0c0 58.911-47.756 106.667-106.667 106.667v0zM138.667 117.333h32c5.891 0 10.667 4.776 10.667 10.667s-4.776 10.667-10.667 10.667v0h-32v32c0 5.891-4.776 10.667-10.667 10.667s-10.667-4.776-10.667-10.667v0-32h-32c-5.891 0-10.667-4.776-10.667-10.667s4.776-10.667 10.667-10.667v0h32v-32c0-5.891 4.776-10.667 10.667-10.667s10.667 4.776 10.667 10.667v0z"></path>
</svg>
