<!-- Generated by IcoMoon.io -->
<svg version="1.1" xmlns="http://www.w3.org/2000/svg" width="256" height="256" viewBox="0 0 256 256">
<title>block</title>
<path fill="#333" d="M194.133 92.8l-101.333 101.333c10.667 5.333 22.4 8.533 35.2 8.533 41.6 0 74.667-33.067 74.667-74.667 0-12.8-3.2-24.533-8.533-35.2zM163.2 61.867c-10.667-5.333-22.4-8.533-35.2-8.533-41.6 0-74.667 33.067-74.667 74.667 0 12.8 3.2 24.533 8.533 35.2l101.333-101.333zM128 234.667c-58.667 0-106.667-48-106.667-106.667s48-106.667 106.667-106.667 106.667 48 106.667 106.667-48 106.667-106.667 106.667z"></path>
</svg>
