<!-- Generated by IcoMoon.io -->
<svg version="1.1" xmlns="http://www.w3.org/2000/svg" width="256" height="256" viewBox="0 0 256 256">
<title>bomb</title>
<path fill="#333" d="M177.067 65.067l4.267-4.267c4.267-4.267 10.667-4.267 14.933 0s4.267 10.667 0 14.933l-4.267 5.333 6.4 6.4c5.333 5.333 5.333 14.933 0 20.267l-7.467 7.467c-1.067 1.067-1.067 1.067-2.133 1.067 4.267 9.6 6.4 20.267 6.4 32 0 48-39.467 87.467-87.467 87.467-46.933-1.067-86.4-40.533-86.4-88.533s39.467-87.467 87.467-87.467c11.733 0 22.4 2.133 32 6.4 0-1.067 1.067-1.067 1.067-2.133l7.467-6.4c5.333-5.333 14.933-5.333 20.267 0l7.467 7.467zM105.6 89.6c-30.933 0-55.467 24.533-55.467 55.467 0 6.4 5.333 11.733 11.733 11.733s11.733-5.333 11.733-11.733c0-18.133 13.867-32 32-32 6.4 0 11.733-5.333 11.733-11.733s-5.333-11.733-11.733-11.733zM229.333 93.867c-4.267 4.267-10.667 4.267-14.933 0l-6.4-6.4c-4.267-4.267-4.267-10.667 0-14.933s10.667-4.267 14.933 0l6.4 6.4c4.267 4.267 4.267 10.667 0 14.933zM184.533 48c-4.267 4.267-10.667 4.267-14.933 0l-6.4-6.4c-4.267-4.267-4.267-10.667 0-14.933s10.667-4.267 14.933 0l6.4 6.4c4.267 4.267 4.267 10.667 0 14.933zM200.533 55.467c-4.267-4.267-4.267-10.667 0-14.933l14.933-14.933c4.267-4.267 10.667-4.267 14.933 0s4.267 10.667 0 14.933l-14.933 14.933c-3.2 4.267-10.667 4.267-14.933 0z"></path>
</svg>
