<!-- Generated by IcoMoon.io -->
<svg version="1.1" xmlns="http://www.w3.org/2000/svg" width="256" height="256" viewBox="0 0 256 256">
<title>bucket-empty</title>
<path fill="#333" d="M141.516 46.3v0c-3.483-3.486-8.296-5.643-13.613-5.643s-10.13 2.157-13.613 5.642l-0 0-67.341 68.11c-3.401 3.468-5.5 8.223-5.5 13.469s2.098 10 5.502 13.471l-0.003-0.003 67.341 68.11c3.483 3.486 8.296 5.643 13.613 5.643s10.13-2.156 13.613-5.643l0-0 67.341-68.11c3.401-3.468 5.5-8.223 5.5-13.469s-2.098-10-5.502-13.471l0.003 0.003zM155.178 32.735l67.341 68.207c6.801 6.936 10.999 16.446 10.999 26.937s-4.198 20.001-11.007 26.943l0.006-0.006-67.341 68.207c-6.984 7.089-16.688 11.481-27.418 11.481-10.49 0-20-4.198-26.942-11.006l0.005 0.006v-0.481l-67.341-68.207c-6.801-6.935-10.999-16.446-10.999-26.937s4.198-20.001 11.007-26.942l-0.005 0.005 67.341-68.207c6.96-6.944 16.566-11.238 27.178-11.238s20.218 4.294 27.178 11.238l-0.001-0.001z"></path>
</svg>
