<!-- Generated by IcoMoon.io -->
<svg version="1.1" xmlns="http://www.w3.org/2000/svg" width="256" height="256" viewBox="0 0 256 256">
<title>bulb</title>
<path fill="#333" d="M160 199.467v8.533c0 6.4-4.267 11.733-10.667 12.8l-2.133 7.467c-1.067 4.267-4.267 6.4-8.533 6.4h-20.267c-4.267 0-7.467-3.2-8.533-6.4l-2.133-7.467c-6.4-1.067-10.667-6.4-10.667-12.8v-8.533c-1.067-4.267 2.133-7.467 7.467-7.467h48c3.2 0 7.467 3.2 7.467 7.467zM196.267 89.6c0 18.133-7.467 35.2-19.2 48-8.533 9.6-14.933 21.333-17.067 34.133 0 5.333-5.333 9.6-10.667 9.6h-42.667c-5.333 0-10.667-4.267-10.667-9.6-2.133-12.8-7.467-24.533-17.067-34.133-11.733-11.733-19.2-28.8-19.2-46.933-1.067-38.4 29.867-69.333 68.267-69.333 37.333 0 68.267 30.933 68.267 68.267zM129.067 64c18.133 1.067 26.667 10.667 26.667 30.933 0 6.4 4.267 10.667 10.667 10.667s10.667-4.267 10.667-10.667c0-30.933-16-49.067-45.867-51.2-6.4 0-10.667 4.267-11.733 9.6s4.267 9.6 9.6 10.667z"></path>
</svg>
