<!-- Generated by IcoMoon.io -->
<svg version="1.1" xmlns="http://www.w3.org/2000/svg" width="256" height="256" viewBox="0 0 256 256">
<title>camera-o</title>
<path fill="#333" d="M87.467 53.333l-10.667 21.333h-34.133v128h170.667v-128h-35.2l-9.6-21.333h-81.067zM74.667 32h107.733l9.6 21.333h21.333c11.733 0 21.333 9.6 21.333 21.333v128c0 11.733-9.6 21.333-21.333 21.333h-170.667c-11.733 0-21.333-9.6-21.333-21.333v-128c0-11.733 9.6-21.333 21.333-21.333h21.333l10.667-21.333zM128 160c11.733 0 21.333-9.6 21.333-21.333s-9.6-21.333-21.333-21.333-21.333 9.6-21.333 21.333 9.6 21.333 21.333 21.333zM128 181.333c-23.467 0-42.667-19.2-42.667-42.667s19.2-42.667 42.667-42.667 42.667 19.2 42.667 42.667-19.2 42.667-42.667 42.667z"></path>
</svg>
