<!-- Generated by IcoMoon.io -->
<svg version="1.1" xmlns="http://www.w3.org/2000/svg" width="256" height="256" viewBox="0 0 256 256">
<title>chat</title>
<path fill="#333" d="M77.867 170.667h103.467v-97.067c30.933 9.6 53.333 36.267 53.333 66.133 0 19.2-8.533 36.267-23.467 49.067l6.4 46.933-41.6-27.733c-7.467 2.133-16 3.2-24.533 3.2-32-1.067-60.8-17.067-73.6-40.533zM70.4 149.333l-38.4 42.667v-44.8c-6.4-3.2-10.667-10.667-10.667-18.133v-86.4c0-11.733 9.6-21.333 21.333-21.333h96c11.733 0 21.333 9.6 21.333 21.333v106.667h-89.6z"></path>
</svg>
