<!-- Generated by IcoMoon.io -->
<svg version="1.1" xmlns="http://www.w3.org/2000/svg" width="256" height="256" viewBox="0 0 256 256">
<title>close</title>
<path fill="#333" d="M151.786 128.413l42.887 42.887c2.75 2.946 4.439 6.912 4.439 11.274 0 9.134-7.404 16.537-16.537 16.537-4.361 0-8.329-1.689-11.284-4.447l0.009 0.009-42.887-42.887-42.887 42.887c-2.945 2.75-6.912 4.439-11.274 4.439-9.134 0-16.538-7.404-16.538-16.537 0-4.361 1.689-8.329 4.447-11.284l-0.009 0.009 42.887-42.887-42.887-42.887c-3.242-3.027-5.264-7.327-5.264-12.099 0-9.134 7.404-16.538 16.538-16.538 4.771 0 9.071 2.021 12.090 5.254l0.009 0.009 42.887 42.887 42.887-42.887c2.946-2.75 6.912-4.439 11.274-4.439 9.134 0 16.537 7.404 16.537 16.537 0 4.361-1.689 8.329-4.447 11.284l0.009-0.009z"></path>
</svg>
