<!-- Generated by IcoMoon.io -->
<svg version="1.1" xmlns="http://www.w3.org/2000/svg" width="256" height="256" viewBox="0 0 256 256">
<title>cloud-upload</title>
<path fill="#333" d="M147.692 201.846v-54.154h29.538c1.231 0 3.692-1.231 4.923-2.461 2.461-2.461 2.461-6.154 0-9.846l-44.308-44.308c-4.923-4.923-13.538-4.923-18.462 0l-45.539 45.539c-1.231 1.231-2.461 2.461-2.461 4.923 0 3.692 2.461 6.154 6.154 6.154h29.538v54.154h-40.615c-34.462 0-61.538-27.077-61.538-60.308 0-30.769 24.615-56.615 55.385-59.077 12.308-24.615 38.154-40.615 67.692-40.615 36.923 0 68.923 25.846 75.077 60.308 27.077 1.231 48 23.385 48 49.231 0 27.077-23.385 50.461-51.692 50.461h-51.692z"></path>
</svg>
