<!-- Generated by IcoMoon.io -->
<svg version="1.1" xmlns="http://www.w3.org/2000/svg" width="256" height="256" viewBox="0 0 256 256">
<title>configure</title>
<path fill="#333" d="M96 209.067v4.267c0 11.733-9.6 21.333-21.333 21.333s-21.333-9.6-21.333-21.333v-4.267c-19.2-8.533-32-26.667-32-49.067s12.8-40.533 32-49.067v-68.267c0-11.733 9.6-21.333 21.333-21.333s21.333 9.6 21.333 21.333v68.267c19.2 8.533 32 26.667 32 49.067s-12.8 40.533-32 49.067zM74.667 138.667c-11.733 0-21.333 9.6-21.333 21.333s9.6 21.333 21.333 21.333 21.333-9.6 21.333-21.333-9.6-21.333-21.333-21.333zM160 46.933v-4.267c0-11.733 9.6-21.333 21.333-21.333s21.333 9.6 21.333 21.333v4.267c19.2 8.533 32 26.667 32 49.067s-12.8 40.533-32 49.067v68.267c0 11.733-9.6 21.333-21.333 21.333s-21.333-9.6-21.333-21.333v-68.267c-19.2-8.533-32-26.667-32-49.067s12.8-40.533 32-49.067zM181.333 117.333c11.733 0 21.333-9.6 21.333-21.333s-9.6-21.333-21.333-21.333-21.333 9.6-21.333 21.333 9.6 21.333 21.333 21.333z"></path>
</svg>
