<!-- Generated by IcoMoon.io -->
<svg version="1.1" xmlns="http://www.w3.org/2000/svg" width="256" height="256" viewBox="0 0 256 256">
<title>download</title>
<path fill="#333" d="M149.333 106.667l23.467-23.467c8.533-8.533 21.333-8.533 29.867 0s8.533 21.333 0 29.867l-60.8 60.8c-4.267 4.267-9.6 6.4-14.933 6.4s-10.667-2.133-14.933-6.4l-60.8-60.8c-8.533-8.533-8.533-21.333 0-29.867s21.333-8.533 29.867 0l25.6 23.467v-64c0-11.733 9.6-21.333 21.333-21.333s21.333 9.6 21.333 21.333v64zM37.333 202.667h181.333c8.533 0 16 7.467 16 16s-7.467 16-16 16h-181.333c-8.533 0-16-7.467-16-16s7.467-16 16-16z"></path>
</svg>
