<!-- Generated by IcoMoon.io -->
<svg version="1.1" xmlns="http://www.w3.org/2000/svg" width="256" height="256" viewBox="0 0 256 256">
<title>extension</title>
<path fill="#333" d="M194.133 122.667v-40.533c0-10.667-9.6-20.267-20.267-20.267h-40.533v-14.933c0-13.867-11.733-25.6-25.6-25.6s-25.6 11.733-25.6 25.6v14.933h-40.533c-10.667 0-20.267 9.6-20.267 20.267v38.4h14.933c14.933 0 27.733 12.8 27.733 27.733s-12.8 27.733-27.733 27.733h-14.933v38.4c0 10.667 9.6 20.267 20.267 20.267h38.4v-14.933c0-14.933 12.8-27.733 27.733-27.733s27.733 12.8 27.733 27.733v14.933h38.4c10.667 0 20.267-9.6 20.267-20.267v-40.533h14.933c13.867 0 25.6-11.733 25.6-25.6s-11.733-25.6-25.6-25.6h-14.933z"></path>
</svg>
