<!-- Generated by IcoMoon.io -->
<svg version="1.1" xmlns="http://www.w3.org/2000/svg" width="256" height="256" viewBox="0 0 256 256">
<title>feedback-o</title>
<path fill="#333" d="M70.4 190.933l22.4-14.933 9.6 2.133c8.533 2.133 17.067 3.2 26.667 3.2 48 0 85.333-32 85.333-69.333s-37.333-69.333-86.4-69.333-85.333 32-85.333 69.333c0 17.067 8.533 34.133 22.4 46.933l8.533 7.467-3.2 24.533zM42.667 234.667l8.533-59.733c-18.133-16-29.867-38.4-29.867-62.933 0-50.133 48-90.667 106.667-90.667s106.667 40.533 106.667 90.667-46.933 90.667-106.667 90.667c-10.667 0-21.333-1.067-32-4.267l-53.333 36.267zM181.333 90.667c0 6.4-4.267 10.667-10.667 10.667h-85.333c-6.4 0-10.667-4.267-10.667-10.667s4.267-10.667 10.667-10.667h85.333c6.4 0 10.667 4.267 10.667 10.667zM181.333 133.333c0 6.4-4.267 10.667-10.667 10.667h-85.333c-6.4 0-10.667-4.267-10.667-10.667s4.267-10.667 10.667-10.667h85.333c6.4 0 10.667 4.267 10.667 10.667z"></path>
</svg>
