<!-- Generated by IcoMoon.io -->
<svg version="1.1" xmlns="http://www.w3.org/2000/svg" width="256" height="256" viewBox="0 0 256 256">
<title>folder-open</title>
<path fill="#333" d="M138.667 69.333l-35.2 16c-5.333 3.2-11.733 4.267-17.067 4.267h-50.133v-36.267c0-11.733 9.6-21.333 21.333-21.333h54.4c9.6 0 18.133 6.4 20.267 14.933l6.4 22.4zM153.6 84.267h69.333c1.067 0 1.067 0 2.133 0 5.333 1.067 9.6 6.4 8.533 11.733l-18.133 118.4c-1.067 5.333-5.333 8.533-10.667 8.533h-153.6c-5.333 0-9.6-3.2-10.667-8.533l-17.067-91.733c0-1.067 0-1.067 0-2.133 0-6.4 4.267-10.667 10.667-10.667h56.533c6.4 0 12.8-1.067 19.2-4.267l43.733-21.333z"></path>
</svg>
