<!-- Generated by IcoMoon.io -->
<svg version="1.1" xmlns="http://www.w3.org/2000/svg" width="256" height="256" viewBox="0 0 256 256">
<title>google-plus</title>
<path fill="#333" d="M128 234.667c-58.667 0-106.667-48-106.667-106.667s48-106.667 106.667-106.667 106.667 48 106.667 106.667-48 106.667-106.667 106.667zM188.8 106.667h-13.867v13.867h-13.867v13.867h13.867v14.933h13.867v-13.867h13.867v-13.867h-13.867v-14.933zM67.2 163.2c18.133 19.2 50.133 19.2 68.267 1.067 6.4-7.467 10.667-17.067 11.733-27.733v-10.667l-1.067-4.267h-42.667v16h26.667v1.067c-1.067 4.267-4.267 9.6-6.4 12.8-10.667 12.8-30.933 12.8-42.667 0-12.8-12.8-11.733-34.133-1.067-45.867 9.6-10.667 24.533-11.733 35.2-4.267l4.267 3.2 11.733-12.8-6.4-6.4-6.4-4.267c-18.133-6.4-37.333-3.2-51.2 10.667-18.133 19.2-18.133 52.267 0 71.467z"></path>
</svg>
