<!-- Generated by IcoMoon.io -->
<svg version="1.1" xmlns="http://www.w3.org/2000/svg" width="256" height="256" viewBox="0 0 256 256">
<title>learning</title>
<path fill="#333" d="M201.6 155.733l-4.267-16c-3.2 2.133-6.4 4.267-10.667 6.4-35.2 20.267-39.467 21.333-39.467 21.333-11.733 5.333-23.467 4.267-36.267 0 0 0-5.333-1.067-38.4-21.333-4.267-2.133-7.467-4.267-10.667-6.4l-4.267 16c0 0-3.2 12.8-4.267 18.133-3.2 6.4 0 12.8 10.667 20.267s42.667 24.533 55.467 28.8c3.2 1.067 6.4 1.067 8.533 2.133v0 0c3.2 0 5.333-1.067 8.533-2.133 12.8-3.2 44.8-21.333 55.467-28.8s13.867-13.867 12.8-19.2c0-5.333-3.2-19.2-3.2-19.2z"></path>
<path fill="#333" d="M27.733 84.267c0 0 4.267-3.2 39.467-20.267 38.4-18.133 41.6-19.2 41.6-19.2 12.8-4.267 26.667-4.267 38.4 0 0 0 4.267 1.067 42.667 19.2s38.4 19.2 38.4 19.2c8.533 5.333 6.4 13.867-3.2 18.133 0 0 0 0-36.267 20.267-40.533 22.4-45.867 24.533-45.867 24.533-12.8 4.267-19.2 4.267-32 0 0 0-17.067-7.467-43.733-22.4-22.4-12.8-40.533-22.4-40.533-22.4-7.467-5.333-7.467-10.667 1.067-17.067z"></path>
</svg>
