<!-- Generated by IcoMoon.io -->
<svg version="1.1" xmlns="http://www.w3.org/2000/svg" width="256" height="256" viewBox="0 0 256 256">
<title>live</title>
<path fill="#333" d="M142.933 28.8l84.267 84.267c8.533 8.533 8.533 21.333 0 29.867l-84.267 84.267c-8.533 8.533-21.333 8.533-29.867 0l-84.267-84.267c-8.533-8.533-8.533-21.333 0-29.867l84.267-84.267c8.533-8.533 21.333-8.533 29.867 0zM155.733 157.867v0c-2.133 2.133-3.2 4.267-3.2 7.467 0 6.4 4.267 10.667 10.667 10.667 3.2 0 5.333-1.067 7.467-3.2 24.533-24.533 24.533-65.067 1.067-89.6-2.133-2.133-5.333-4.267-8.533-4.267-6.4 0-10.667 4.267-10.667 10.667 0 3.2 1.067 5.333 3.2 7.467v0c16 17.067 16 44.8 0 60.8zM100.267 157.867c-17.067-17.067-17.067-43.733 0-60.8v0c2.133-1.067 3.2-4.267 3.2-6.4 0-6.4-4.267-10.667-10.667-10.667-3.2 0-6.4 1.067-7.467 3.2-24.533 24.533-24.533 65.067 1.067 89.6 2.133 2.133 4.267 3.2 7.467 3.2 6.4 0 10.667-4.267 10.667-10.667-1.067-2.133-2.133-5.333-4.267-7.467v0zM128 149.333c11.733 0 21.333-9.6 21.333-21.333s-9.6-21.333-21.333-21.333-21.333 9.6-21.333 21.333 9.6 21.333 21.333 21.333z"></path>
</svg>
