<!-- Generated by IcoMoon.io -->
<svg version="1.1" xmlns="http://www.w3.org/2000/svg" width="256" height="256" viewBox="0 0 256 256">
<title>logout</title>
<path fill="#333" d="M73.6 149.333v19.2c0 3.2-2.133 5.333-5.333 5.333-1.067 0-3.2-1.067-4.267-1.067l-41.6-41.6c-2.133-2.133-2.133-5.333 0-7.467l41.6-41.6c2.133-2.133 5.333-2.133 7.467 0 1.067 1.067 1.067 2.133 1.067 4.267v20.267h76.8c11.733 0 21.333 9.6 21.333 21.333v0c0 11.733-9.6 21.333-21.333 21.333h-75.733zM128 21.333c58.667 0 106.667 48 106.667 106.667s-48 106.667-106.667 106.667c-13.867 0-26.667-2.133-38.4-7.467-9.6-4.267-14.933-14.933-10.667-25.6s14.933-14.933 25.6-10.667c7.467 3.2 16 4.267 24.533 4.267 37.333 0 67.2-29.867 67.2-67.2s-29.867-67.2-67.2-67.2c-8.533 0-16 1.067-24.533 4.267-10.667 4.267-22.4-1.067-25.6-11.733-4.267-9.6 1.067-21.333 10.667-24.533 12.8-5.333 25.6-7.467 38.4-7.467z"></path>
</svg>
