<!-- Generated by IcoMoon.io -->
<svg version="1.1" xmlns="http://www.w3.org/2000/svg" width="256" height="256" viewBox="0 0 256 256">
<title>phone</title>
<path fill="#333" d="M148.267 178.133l16-16c3.2-3.2 7.467-4.267 10.667-2.133 11.733 4.267 24.533 6.4 38.4 6.4 5.333 0 10.667 4.267 10.667 10.667v36.267c0 5.333-5.333 10.667-10.667 10.667-100.267 0-181.333-81.067-181.333-181.333 0-5.333 5.333-10.667 10.667-10.667h37.333c6.4 0 10.667 5.333 10.667 10.667 0 12.8 2.133 25.6 6.4 38.4 1.067 3.2 0 7.467-2.133 10.667l-18.133 18.133c20.267 33.067 43.733 56.533 71.467 68.267z"></path>
</svg>
