<!-- Generated by IcoMoon.io -->
<svg version="1.1" xmlns="http://www.w3.org/2000/svg" width="256" height="256" viewBox="0 0 256 256">
<title>recycle</title>
<path fill="#333" d="M131.2 88.533l10.667-8.533-8.533-12.8c0-1.067-1.067-1.067-2.133-2.133-2.133-1.067-5.333 0-7.467 2.133l-23.467 43.733-14.933-25.6-28.8 3.2 30.933-57.6c3.2-5.333 8.533-9.6 17.067-9.6 16 0 30.933 0 46.933 0 7.467 0 13.867 4.267 18.133 9.6l14.933 24.533 11.733-6.4-21.333 41.6-43.733-2.133zM160 157.867l2.133 13.867 16-1.067c1.067 0 2.133 0 2.133-1.067 2.133-1.067 3.2-4.267 2.133-7.467l-24.533-42.667 30.933 1.067 10.667-24.533 33.067 56.533c3.2 5.333 3.2 12.8-1.067 19.2-8.533 12.8-17.067 26.667-24.533 39.467-4.267 6.4-10.667 9.6-18.133 9.6h-28.8l-1.067 13.867-24.533-40.533 25.6-36.267zM93.867 157.867l-12.8-5.333-7.467 13.867c0 1.067-1.067 2.133-1.067 2.133 0 3.2 2.133 5.333 5.333 5.333h50.133l-16 25.6 16 24.533h-66.133c-6.4 0-12.8-3.2-17.067-10.667-7.467-13.867-14.933-27.733-22.4-41.6-3.2-6.4-3.2-13.867 0-20.267l13.867-24.533-10.667-7.467 49.067-1.067 19.2 39.467z"></path>
</svg>
