<!-- Generated by IcoMoon.io -->
<svg version="1.1" xmlns="http://www.w3.org/2000/svg" width="256" height="256" viewBox="0 0 256 256">
<title>reticle</title>
<path fill="#333" d="M76.8 144c5.333 17.067 18.133 29.867 35.2 35.2v-3.2c0-8.533 7.467-16 16-16s16 7.467 16 16v3.2c17.067-5.333 29.867-18.133 35.2-35.2h-3.2c-8.533 0-16-7.467-16-16s7.467-16 16-16h3.2c-5.333-16-18.133-28.8-35.2-34.133v3.2c0 7.467-7.467 14.933-16 14.933s-16-7.467-16-16v-3.2c-16 5.333-29.867 18.133-35.2 35.2h3.2c8.533 0 16 6.4 16 16s-7.467 16-16 16h-3.2zM43.733 112c6.4-34.133 34.133-60.8 68.267-67.2v-7.467c0-8.533 7.467-16 16-16s16 7.467 16 16v6.4c34.133 6.4 60.8 33.067 68.267 67.2h6.4c8.533 0 16 7.467 16 16s-7.467 16-16 16h-6.4c-6.4 34.133-33.067 61.867-68.267 68.267v6.4c0 8.533-7.467 16-16 16s-16-7.467-16-16v-6.4c-34.133-6.4-61.867-34.133-68.267-68.267h-6.4c-8.533 1.067-16-6.4-16-14.933s7.467-16 16-16h6.4z"></path>
</svg>
