<!-- Generated by IcoMoon.io -->
<svg version="1.1" xmlns="http://www.w3.org/2000/svg" width="224" height="256" viewBox="0 0 224 256">
<title>slack</title>
<path fill="#333" d="M56.337 153.328c0 11.1-9.069 20.168-20.169 20.168s-20.169-9.069-20.169-20.168c0-11.1 9.069-20.168 20.169-20.168h20.169v20.168zM66.503 153.328c0-11.1 9.069-20.168 20.169-20.168s20.168 9.069 20.168 20.168v50.503c0 11.1-9.069 20.168-20.168 20.168s-20.168-9.069-20.168-20.168v-50.503zM86.672 72.338c-11.1 0-20.168-9.069-20.168-20.169s9.069-20.169 20.168-20.169 20.168 9.069 20.168 20.169v20.169h-20.168zM86.672 82.503c11.1 0 20.168 9.069 20.168 20.169s-9.069 20.168-20.168 20.168h-50.503c-11.1 0-20.169-9.069-20.169-20.168s9.069-20.168 20.169-20.168h50.503zM167.662 102.672c0-11.1 9.069-20.168 20.168-20.168s20.168 9.069 20.168 20.168-9.069 20.168-20.168 20.168h-20.168v-20.168zM157.497 102.672c0 11.1-9.069 20.168-20.168 20.168s-20.168-9.069-20.168-20.168v-50.503c0-11.1 9.069-20.169 20.168-20.169s20.168 9.069 20.168 20.169v50.503zM137.328 183.662c11.1 0 20.168 9.069 20.168 20.168s-9.069 20.168-20.168 20.168c-11.1 0-20.168-9.069-20.168-20.168v-20.168h20.168zM137.328 173.497c-11.1 0-20.168-9.069-20.168-20.168s9.069-20.168 20.168-20.168h50.503c11.1 0 20.168 9.069 20.168 20.168s-9.069 20.168-20.168 20.168h-50.503z"></path>
</svg>
