<!-- Generated by IcoMoon.io -->
<svg version="1.1" xmlns="http://www.w3.org/2000/svg" width="256" height="256" viewBox="0 0 256 256">
<title>sourcing</title>
<path fill="#333" d="M64 21.334v0c-11.782 0-21.333 9.552-21.333 21.333v170.667c0 11.782 9.552 21.333 21.333 21.333h128c11.782 0 21.333-9.552 21.333-21.333v-170.667c0-11.782-9.552-21.333-21.333-21.333h-128zM172.906 181.334l16.64 16.853c1.546 1.561 2.501 3.708 2.501 6.080s-0.955 4.519-2.502 6.081l0.001-0.001c-1.561 1.546-3.708 2.501-6.080 2.501s-4.519-0.955-6.081-2.502l0.001 0.001-16.533-16.213c-7.647 5.6-17.239 8.96-27.617 8.96-0.041 0-0.082 0-0.122-0h0.006c-0.037 0-0.081 0-0.124 0-26.51 0-48-21.49-48-48s21.49-48 48-48c26.51 0 48 21.49 48 48 0 9.941-3.022 19.176-8.197 26.837l0.108-0.17zM133.12 185.174c0.095 0.001 0.207 0.002 0.32 0.002 16.966 0 30.72-13.754 30.72-30.72s-13.754-30.72-30.72-30.72c-16.966 0-30.72 13.754-30.72 30.72 0 0.037 0 0.073 0 0.111v-0.006c-0.002 0.159-0.004 0.346-0.004 0.533 0 16.789 13.611 30.4 30.4 30.4 0.002 0 0.003 0 0.005 0h-0z"></path>
</svg>
