<!-- Generated by IcoMoon.io -->
<svg version="1.1" xmlns="http://www.w3.org/2000/svg" width="256" height="256" viewBox="0 0 256 256">
<title>star-o</title>
<path fill="#333" d="M140.8 40.533l9.6-4.267 19.2 38.4c1.067 1.067 2.133 2.133 3.2 2.133l40.533 6.4c21.333 3.2 28.8 28.8 13.867 44.8l-29.867 29.867c-1.067 1.067-2.133 3.2-1.067 4.267l7.467 42.667c3.2 21.333-18.133 37.333-37.333 27.733l-36.267-20.267c-1.067-1.067-2.133-1.067-3.2 0l-36.267 20.267c-19.2 10.667-40.533-6.4-37.333-27.733l7.467-42.667c0-2.133 0-3.2-1.067-4.267l-30.933-29.867c-14.933-16-6.4-41.6 13.867-44.8l40.533-6.4c2.133 0 3.2-1.067 3.2-2.133l18.133-38.4c9.6-19.2 36.267-19.2 45.867 0l-9.6 4.267zM140.8 40.533l-9.6 4.267c-1.067-3.2-5.333-3.2-7.467 0l-17.067 38.4c-3.2 7.467-10.667 12.8-19.2 14.933l-41.6 6.4c-3.2 0-5.333 5.333-2.133 8.533l29.867 29.867c6.4 6.4 8.533 14.933 7.467 22.4l-7.467 42.667c-1.067 4.267 3.2 6.4 5.333 5.333l36.267-20.267c7.467-4.267 16-4.267 24.533 0l36.267 20.267c3.2 1.067 6.4-1.067 5.333-5.333l-7.467-42.667c-1.067-8.533 1.067-17.067 7.467-22.4l29.867-29.867c3.2-3.2 1.067-7.467-2.133-8.533l-40.533-6.4c-8.533-1.067-16-6.4-19.2-14.933l-18.133-38.4 9.6-4.267z"></path>
</svg>
