<!-- Generated by IcoMoon.io -->
<svg version="1.1" xmlns="http://www.w3.org/2000/svg" width="256" height="256" viewBox="0 0 256 256">
<title>trash-o</title>
<path fill="#333" d="M76.8 117.333l7.467 96h88.533l7.467-96h-103.467zM53.333 96h149.333l-9.6 119.467c-1.067 10.667-9.6 19.2-21.333 19.2h-87.467c-10.667 0-20.267-8.533-21.333-19.2l-9.6-119.467zM67.2 64v0zM80 64v0zM189.867 64v0zM60.8 53.333l9.6-16c6.4-9.6 17.067-16 27.733-16h61.867c10.667 0 20.267 5.333 25.6 12.8l1.067 1.067 10.667 18.133h5.333c6.4 0 10.667 4.267 10.667 10.667s-4.267 10.667-10.667 10.667h-149.333c-6.4 0-10.667-4.267-10.667-10.667s4.267-10.667 10.667-10.667h7.467zM86.4 53.333h85.333l-4.267-6.4c-2.133-3.2-4.267-4.267-7.467-4.267h-61.867c-3.2 0-7.467 2.133-8.533 5.333l-3.2 5.333z"></path>
</svg>
