<!-- Generated by IcoMoon.io -->
<svg version="1.1" xmlns="http://www.w3.org/2000/svg" width="256" height="256" viewBox="0 0 256 256">
<title>trash</title>
<path fill="#333" d="M65.067 53.333l13.867-21.333c4.267-6.4 10.667-10.667 18.133-10.667h61.867c7.467 0 13.867 3.2 18.133 9.6l14.933 22.4h10.667c6.4 0 10.667 4.267 10.667 10.667s-4.267 10.667-10.667 10.667h-149.333c-6.4 0-10.667-4.267-10.667-10.667s4.267-10.667 10.667-10.667h11.733zM53.333 96h149.333l-9.6 119.467c-1.067 10.667-9.6 19.2-21.333 19.2h-87.467c-10.667 0-20.267-8.533-21.333-19.2l-9.6-119.467z"></path>
</svg>
