<?xml version="1.0" encoding="UTF-8"?>
<svg width="99px" height="85px" viewBox="0 0 99 85" version="1.1" xmlns="http://www.w3.org/2000/svg" xmlns:xlink="http://www.w3.org/1999/xlink">
    <!-- Generator: Sketch 52.4 (67378) - http://www.bohemiancoding.com/sketch -->
    <title>Error illustration</title>
    <desc>Created with Sketch.</desc>
    <g id="Page-1" stroke="none" stroke-width="1" fill="none" fill-rule="evenodd">
        <g id="Artboard" transform="translate(-970.000000, -164.000000)">
            <g id="Error-illustration" transform="translate(970.000000, 162.000000)">
                <path d="M56.5023107,6.34793821 L97.7270017,81.0676906 C98.7941867,83.0019634 98.0912732,85.4351257 96.1570004,86.5023107 C95.5652816,86.8287762 94.9004948,87 94.224691,87 L11.775309,87 C9.56617001,87 7.77530901,85.209139 7.77530901,83 C7.77530901,82.3241962 7.94653278,81.6594093 8.27299827,81.0676906 L49.4976893,6.34793821 C50.5648743,4.4136654 52.9980366,3.71075185 54.9323094,4.77793684 C55.5933135,5.14262877 56.1376188,5.6869341 56.5023107,6.34793821 Z" id="Triangle" fill="#F1C2C2"></path>
                <g id="noun_Error_274079" transform="translate(0.000000, 2.000000)" fill="#821E1E">
                    <path d="M80.33,81.21 L9.669,81.21 C5.721,81.21 2.566,79.667 1.013,76.977 C-0.54,74.288 -0.299,70.784 1.676,67.364 L37.007,6.172 C38.98,2.751 41.894,0.79 45,0.79 C48.106,0.79 51.02,2.751 52.994,6.171 L88.324,67.363 C90.299,70.783 90.54,74.287 88.987,76.976 C87.434,79.667 84.278,81.21 80.33,81.21 Z M45,6.369 C43.94,6.369 42.787,7.312 41.837,8.96 L6.506,70.152 C5.555,71.799 5.315,73.269 5.844,74.187 C6.374,75.104 7.768,75.63 9.669,75.63 L80.33,75.63 C82.231,75.63 83.625,75.104 84.155,74.187 C84.684,73.269 84.444,71.799 83.494,70.152 L48.163,8.96 C47.213,7.313 46.06,6.369 45,6.369 Z" id="Shape" fill-rule="nonzero"></path>
                    <path d="M41.764,28.785 C41.764,26.998 43.213,25.549 45,25.549 C46.787,25.549 48.236,26.998 48.236,28.785 L48.236,50.356 C48.236,52.144 46.787,53.592 45,53.592 C43.213,53.592 41.764,52.144 41.764,50.356 L41.764,28.785 Z" id="Path"></path>
                    <circle id="Oval" cx="45" cy="63.464" r="4.854"></circle>
                </g>
            </g>
        </g>
    </g>
</svg>