<?xml version="1.0" encoding="utf-8"?>
<!-- Generator: Adobe Illustrator 22.0.1, SVG Export Plug-In . SVG Version: 6.00 Build 0)  -->
<svg version="1.1" id="Layer_1" xmlns="http://www.w3.org/2000/svg" xmlns:xlink="http://www.w3.org/1999/xlink" x="0px" y="0px"
	 viewBox="0 0 234.1 214.1" style="enable-background:new 0 0 234.1 214.1;" xml:space="preserve">
<style type="text/css">
	.st0{fill:#EDE174;}
	.st1{fill:#4BE51F;}
	.st2{fill:#172E55;}
	.st3{fill:none;stroke:#172E55;stroke-width:5.5;stroke-miterlimit:10;}
	.st4{fill:#D3D3D3;}
	.st5{fill:#DBC83E;}
	.st6{fill:#3ABC0F;}
	.st7{fill:#FFFFFF;}
	.st8{fill:#ED205F;}
</style>
<g>
	<path class="st0" d="M67.6,168.5c0.6,1.1,1,2.4,1,3.8c0,3.6-2.4,6.5-5.3,6.5c-2.9,0-5.3-2.9-5.3-6.5c0-1.5,0.4-2.9,1.1-4
		c-15.1,0.5-27,5.5-27,11.6c0,6.5,13.3,11.7,29.7,11.7s29.7-5.2,29.7-11.7C91.5,174.3,81.3,169.6,67.6,168.5z"/>
	<path class="st0" d="M185.7,94.1l-2.2-0.1c-0.1,1.1-1,2-2.1,2h-5.2c-1.1,0-2.1-0.9-2.1-2.1c0-0.1,0-0.1,0-0.2l-1.5-0.1
		c-10.2,0.8-17.9,4.4-17.9,8.7c0,4.9,10.1,8.9,22.6,8.9c12.5,0,22.6-4,22.6-8.9C199.9,98.6,194,95.4,185.7,94.1z"/>
	<path class="st1" d="M165.1,31.9l4.6-0.9l-0.1,31.9c0,0-11,0.6-12.9,1.1s-5.2,0.5-5.8-1.1s-11.9-0.4-14.6,0.2s-12,3.4-12,3.4
		l-4-35.8c0,0,20.5-5,29.1-5.1s9.1,0.2,8.4,2.5s1.4,2,2.9,2.1S165.1,31.9,165.1,31.9z"/>
	<path class="st2" d="M173.6,33.3l-1.9-5.9l-1.3,0.5c-3.5,0.1-7.3,0.1-10-0.1c0.2-0.7,0.2-1.4-0.1-2.2c-1.1-2.7-4.2-3.1-15.7-2.4
		c-15.9,1-26.1,5-26.5,5.2l-2,0.8l5.8,40.7l3.1-1c0.1,0,8.3-2.6,19.2-4.2c4-0.6,4.9-0.1,4.9-0.1c0,0,0.2,0.2,0.2,0.3
		c1.2,2,2.9,3.1,7,2.4c6.7-1.3,14.7-1.3,14.8-1.3l2.8,0l0-2.8C173.6,53.7,173.5,38.9,173.6,33.3z M155.2,62
		c-0.7,0.1-1.1,0.2-1.3,0.2c0,0,0,0,0,0c-1.6-2.6-3.8-3.8-10.6-2.8c-7.4,1.1-13.5,2.6-17,3.5l-4.2-30c3.6-1.2,11.7-3.4,22.8-4.1
		c4-0.3,6.6-0.3,8.3-0.3c-0.3,0.8-0.2,1.5,0.1,2.1c0.6,1.4,1.3,3.2,14.9,2.9c-0.1,2.7,0,6.9,0,13.6c0,5.2,0.1,10.5,0.1,13.5
		C165.1,60.8,159.9,61.1,155.2,62z"/>
	<path class="st3" d="M184.3,72.7"/>
	<path class="st2" d="M124.9,184.4c-0.5,0-1,0-1.6,0c-0.7,0-1.4-0.3-1.9-0.8c-0.5-0.5-0.8-1.2-0.8-1.9c0-1.5,1.2-2.8,2.8-2.8
		c2.2,0,4.5,0,7,0h0c1.5,0,2.7,1.2,2.8,2.7c0,0.7-0.3,1.4-0.8,1.9c-0.5,0.5-1.2,0.8-1.9,0.8C128.6,184.4,126.9,184.4,124.9,184.4z
		 M113.3,184.3c0,0-0.1,0-0.1,0c-2.3,0-4.5-0.1-6.9-0.2c-0.7,0-1.4-0.3-1.9-0.9s-0.8-1.2-0.7-2c0-1.5,1.3-2.7,2.8-2.6
		c2.2,0.1,4.5,0.1,7,0.2c1.5,0,2.7,1.2,2.7,2.7v0.1C116.1,183.1,114.9,184.3,113.3,184.3L113.3,184.3L113.3,184.3L113.3,184.3z
		 M140.4,184.2L140.4,184.2c-1.5,0-2.7-1.2-2.7-2.7c0-1.5,1.2-2.8,2.7-2.8c2.3-0.1,4.6-0.1,7-0.2h0h0c0,0,0.1,0,0.1,0
		c1.5,0,2.7,1.2,2.7,2.6c0,0,0,0,0,0.1c0,1.5-1.1,2.7-2.6,2.8l0,0c0,0-0.1,0-0.1,0C145,184.1,142.7,184.2,140.4,184.2
		C140.4,184.2,140.4,184.2,140.4,184.2z M96.4,183.7c-0.1,0-0.1,0-0.2,0c-1.4-0.1-2.6-0.2-3.7-0.2c-0.1,0-0.1,0-0.1,0
		c-1.5-0.1-2.7-1.5-2.5-3c0.1-1.5,1.5-2.7,3-2.5c0.3,0,1.5,0.1,3.7,0.2c1.5,0.1,2.6,1.3,2.6,2.8c0,0,0,0.1,0,0.1
		C99,182.5,97.8,183.7,96.4,183.7z M157.4,183.5L157.4,183.5c-1.5,0-2.7-1.1-2.7-2.6c0-0.7,0.2-1.4,0.7-2s1.2-0.9,1.9-0.9
		c2.2-0.1,4.5-0.3,7-0.5l0,0c1.5-0.1,2.8,1.1,2.9,2.6c0,0.1,0,0.1,0,0.2c0,1.4-1.1,2.6-2.6,2.7c-2.4,0.2-4.7,0.3-7,0.5
		C157.5,183.5,157.4,183.5,157.4,183.5z M174.3,182.1c-1.3,0-2.5-1-2.7-2.3c-0.1-0.7,0.1-1.5,0.5-2c0.4-0.6,1.1-1,1.8-1.1
		c2.3-0.3,4.5-0.8,6.5-1.3c1.5-0.4,3,0.5,3.4,2c0.1,0.2,0.1,0.5,0.1,0.7c0,1.2-0.8,2.3-2,2.7l-0.1,0c0,0-0.1,0-0.1,0
		c-2.2,0.6-4.6,1.1-7,1.4C174.6,182.1,174.4,182.1,174.3,182.1z M190.5,177.1L190.5,177.1c-1,0-1.9-0.6-2.4-1.5
		c-0.4-0.6-0.4-1.4-0.2-2.1c0.2-0.7,0.7-1.3,1.3-1.6c2-1.1,3.7-2.3,5.1-3.6l0.1-0.1l0,0c1.1-0.9,2.8-0.8,3.8,0.2
		c0.5,0.5,0.7,1.2,0.7,1.8c0,0.8-0.3,1.5-0.9,2l0,0c0,0,0,0-0.1,0.1c-1.8,1.6-3.9,3.1-6.2,4.3C191.4,177,190.9,177.1,190.5,177.1z
		 M201.5,164.8c-0.2,0-0.5,0-0.7-0.1c-0.7-0.2-1.3-0.7-1.7-1.3c-0.4-0.6-0.5-1.4-0.3-2.1c0.3-1,0.4-2.1,0.4-3.1
		c0-0.8-0.1-1.6-0.3-2.4l0,0c0-0.2-0.1-0.4-0.1-0.6c0-1.3,0.9-2.4,2.2-2.7c1.5-0.3,3,0.7,3.3,2.1c0.3,1.2,0.4,2.4,0.4,3.6
		c0,1.5-0.2,3.1-0.6,4.6C203.8,164,202.7,164.8,201.5,164.8z M196.9,149.3L196.9,149.3c-0.8,0-1.5-0.3-2-0.8c-1.4-1.4-3-2.7-4.9-3.7
		l0,0c-0.9-0.5-1.4-1.4-1.4-2.4c0-0.5,0.1-0.9,0.4-1.4c0.5-0.9,1.4-1.4,2.4-1.4c0.5,0,0.9,0.1,1.4,0.3c2.4,1.3,4.4,2.9,6.2,4.7
		c1.1,1.1,1,2.8,0,3.9C198.3,149,197.6,149.3,196.9,149.3z M182,141.6c-0.2,0-0.4,0-0.6-0.1c-1.8-0.4-4.1-0.7-6.7-1
		c-1.4-0.2-2.4-1.4-2.4-2.8c0-0.1,0-0.2,0-0.3c0.2-1.5,1.5-2.6,3-2.4c2.8,0.3,5.2,0.7,7.2,1.1c0.7,0.2,1.3,0.6,1.7,1.2
		c0.4,0.6,0.5,1.4,0.4,2.1C184.4,140.7,183.2,141.6,182,141.6z M165.1,139.7c-0.1,0-0.1,0-0.2,0c-2-0.1-4.2-0.2-7-0.4
		c-1.5-0.1-2.6-1.3-2.6-2.7c0,0,0-0.1,0-0.1c0.1-1.5,1.4-2.7,2.9-2.6c2.8,0.1,5,0.2,7,0.4c1.5,0.1,2.7,1.4,2.6,2.9
		C167.7,138.6,166.5,139.7,165.1,139.7z M148,138.9c0,0-0.1,0-0.1,0c-2.8-0.1-5-0.2-7-0.3c-1.5-0.1-2.6-1.3-2.6-2.8c0,0,0-0.1,0-0.1
		c0.1-1.5,1.4-2.7,2.9-2.6c2.1,0.1,4.3,0.2,7,0.4c1.5,0.1,2.7,1.3,2.6,2.9C150.7,137.8,149.5,138.9,148,138.9z M131,137.9
		c-0.1,0-0.2,0-0.2,0c-2.6-0.2-4.9-0.5-7.1-0.8c-1.4-0.2-2.4-1.4-2.4-2.7c0-0.1,0-0.2,0-0.3c0.2-1.5,1.6-2.6,3.1-2.4
		c2.1,0.3,4.3,0.5,6.9,0.7c1.5,0.1,2.6,1.5,2.5,3C133.7,136.8,132.5,137.9,131,137.9z M114.2,135.2c-0.2,0-0.5,0-0.7-0.1
		c-2.9-0.8-5.2-1.7-7.1-2.7c-0.9-0.5-1.4-1.4-1.4-2.4c0-0.5,0.1-0.9,0.3-1.3c0.5-0.9,1.4-1.4,2.4-1.4c0.5,0,0.9,0.1,1.3,0.3
		c1.5,0.8,3.5,1.6,5.9,2.2c1.5,0.4,2.3,1.9,1.9,3.4C116.6,134.4,115.5,135.2,114.2,135.2z M102.9,124.9c-0.1,0-0.3,0-0.4,0
		c-0.7-0.1-1.4-0.5-1.8-1.1c-0.5-0.6-0.6-1.3-0.5-2c0.1-0.8,0.3-1.6,0.6-2.4c0.6-1.8,1.6-3.6,2.8-5.2c0.9-1.2,2.7-1.4,3.9-0.6
		c0.7,0.5,1.1,1.3,1.1,2.2c0,0.6-0.2,1.2-0.5,1.7c-0.9,1.2-1.5,2.4-2,3.7c-0.2,0.5-0.3,0.9-0.3,1.3
		C105.4,123.9,104.2,124.9,102.9,124.9z M113.3,112.2c-1,0-1.9-0.5-2.4-1.4c-0.3-0.6-0.4-1.4-0.2-2.1c0.2-0.7,0.7-1.3,1.3-1.7
		c2-1.1,4.1-2.1,6.5-2.9l0,0l0.3-0.1c1.4-0.5,3,0.3,3.5,1.7c0.1,0.3,0.2,0.6,0.1,0.9c0,1.2-0.8,2.2-1.8,2.6c-2.2,0.8-4.2,1.7-6,2.6
		C114.3,112.1,113.8,112.2,113.3,112.2z M129.4,106.9c-1.3,0-2.4-0.9-2.7-2.2c-0.1-0.7,0-1.5,0.4-2.1c0.4-0.6,1-1,1.8-1.2
		c2.2-0.4,4.7-0.8,7.1-1.1l0.1,0l0,0c1.5-0.2,2.8,1,3,2.4c0,0.1,0,0.2,0,0.3c0,1.4-1,2.5-2.4,2.7l-0.1,0c0,0-0.1,0-0.1,0
		c-2.3,0.3-4.5,0.6-6.6,1C129.8,106.8,129.6,106.9,129.4,106.9z M146.3,105.1c-1.5,0-2.7-1.2-2.8-2.7c0-1.5,1.2-2.8,2.7-2.8
		c1.3,0,2.6-0.1,3.8-0.1c2.1,0,3.4,0.1,3.4,0.1c1.5,0.1,2.7,1.4,2.6,2.9c-0.1,1.5-1.3,2.7-2.9,2.6h0c0,0,0,0-0.1,0
		C151.2,105,148.7,105,146.3,105.1C146.4,105.1,146.3,105.1,146.3,105.1z"/>
	<path class="st4" d="M175.8,95.8L175.8,95.8c-1.7,0-3-1.3-3-3V27.9c0-1.6,1.3-3,3-3l0,0c1.6,0,3,1.3,3,3v64.9
		C178.8,94.5,177.5,95.8,175.8,95.8z"/>
	<path class="st2" d="M177.7,100.9c-4.8,0-8.8-3.9-8.8-8.8V28.9c0-4.8,3.9-8.8,8.8-8.8s8.8,3.9,8.8,8.8v26.3c0,1.5-1.2,2.8-2.8,2.8
		s-2.8-1.2-2.8-2.8V28.9c0-1.8-1.5-3.2-3.2-3.2s-3.2,1.5-3.2,3.2v63.3c0,1.8,1.5,3.2,3.2,3.2s3.2-1.5,3.2-3.2V70
		c0-1.5,1.2-2.8,2.8-2.8s2.8,1.2,2.8,2.8v22.1C186.4,97,182.5,100.9,177.7,100.9z"/>
	<path class="st2" d="M183.7,91.7c-0.4,1.4-1.1,2.9-2.3,4c10.2,0.7,16.5,4.2,16.5,6.6c0,2.8-8,6.8-20.5,6.8s-20.5-4-20.5-6.8
		c0-2.7,7.4-6.5,19.1-6.8c-0.9-1.2-1.5-2.8-1.8-4.1c-10.9,0.6-21.5,4.4-21.5,10.9c0,7.1,12.7,11,24.7,11c12,0,24.7-3.8,24.7-11
		C202,96.5,193.4,92.8,183.7,91.7z"/>
	<path class="st5" d="M177.1,105.6c-8,0-15-1.2-18.6-3c1.3,3.2,9.4,5.6,19.2,5.6c10.7,0,19.4-2.9,19.4-6.5c0,0,0,0,0,0
		C194.4,103.9,186.4,105.6,177.1,105.6z"/>
	<path class="st5" d="M61.2,184.1c-10.5,0-19.7-1.5-24.4-3.7c1.7,3.9,12.3,6.9,25.2,6.9c14.1,0,25.5-3.6,25.5-8c0,0,0,0,0,0
		C83.8,182.1,73.5,184.1,61.2,184.1z"/>
	<path class="st2" d="M69.9,166l-0.8,5.4c12.2,1.3,19.7,5.5,19.7,8.6c0,3.6-10.5,8.9-27,8.9s-27-5.3-27-8.9c0-3.1,7.7-7.5,20.3-8.6
		l0.2-5.5c-13.5,1.2-26,6.1-26,14.1c0,9.4,16.7,14.4,32.5,14.4s32.5-5.1,32.5-14.4C94.3,172.2,82.8,167.4,69.9,166z"/>
	<path class="st4" d="M60.2,179.3L60.2,179.3c-2,0-3.7-1.6-3.7-3.7v-45.3c0-2,1.6-3.7,3.7-3.7h0c2,0,3.7,1.7,3.7,3.7v45.3
		C63.8,177.7,62.2,179.3,60.2,179.3z"/>
	<path class="st2" d="M62.2,181.1c-5.5,0-9.9-4.3-9.9-9.6v-50.6c0-5.3,4.4-9.6,9.9-9.6s9.9,4.3,9.9,9.6v18.4c0,1.5-1.2,2.8-2.8,2.8
		s-2.8-1.2-2.8-2.8v-18.4c0-2.3-2-4.1-4.4-4.1c-2.4,0-4.4,1.9-4.4,4.1v50.6c0,2.3,2,4.1,4.4,4.1c2.4,0,4.4-1.9,4.4-4.1v-18.1
		c0-1.5,1.2-2.8,2.8-2.8s2.8,1.2,2.8,2.8v18.1C72.1,176.8,67.6,181.1,62.2,181.1z"/>
	<path class="st6" d="M151.3,31.2l2.3,29.3c0,0-3.7-4.7-4.2-13.7S151.3,31.2,151.3,31.2z"/>
	<circle class="st7" cx="62.2" cy="100" r="25"/>
	<circle class="st8" cx="62.3" cy="100.2" r="19.1"/>
	<path class="st2" d="M62.2,129.2c-16,0-29-13-29-29s13-29,29-29s29,13,29,29S78.2,129.2,62.2,129.2z M62.2,76.8
		c-13,0-23.5,10.5-23.5,23.5s10.5,23.5,23.5,23.5s23.5-10.5,23.5-23.5S75.2,76.8,62.2,76.8z"/>
</g>
</svg>
