<?xml version="1.0" encoding="utf-8"?>
<!-- Generator: Adobe Illustrator 22.0.1, SVG Export Plug-In . SVG Version: 6.00 Build 0)  -->
<svg version="1.1" id="Layer_1" xmlns="http://www.w3.org/2000/svg" xmlns:xlink="http://www.w3.org/1999/xlink" x="0px" y="0px"
	 viewBox="0 0 234.1 214.1" style="enable-background:new 0 0 234.1 214.1;" xml:space="preserve">
<style type="text/css">
	.st0{fill:#97A5AA;}
	.st1{fill:#19243F;}
	.st2{fill:#59859B;}
	.st3{fill:#BCBCBC;}
	.st4{fill:#F9F9F9;}
	.st5{fill:#D1D1D1;}
	.st6{fill:#172E55;}
</style>
<g id="Illustration-Icons_2_" transform="translate(-1131.000000, -704.000000)">
	<g id="icon-illustration-paperplane" transform="translate(1131.000000, 704.000000)">
		<g id="Group">
			<polygon id="Fill-1_1_" class="st0" points="185.2,49.2 135.3,148.6 97,186.7 95.6,132 			"/>
			<path id="Fill-2" class="st1" d="M95.9,132.1l1.3,54l37.9-37.6l49.3-98.2L95.9,132.1z M96.7,187.2l0-0.6l-1.3-54.8l0.1-0.1
				L186.1,48l-50.6,100.8L96.7,187.2z"/>
			<polygon id="Fill-3_2_" class="st2" points="182.2,50.5 95,186.3 96.6,131.8 			"/>
			<polygon id="Fill-4" class="st3" points="137.6,150.3 192.5,34.9 202.4,26.3 202.4,173.4 			"/>
			<path id="Fill-5_1_" class="st1" d="M138,150.2l64.2,22.9V26.9l-9.5,8.2L138,150.2z M202.7,173.8l-65.4-23.3l0.1-0.2l54.9-115.4
				l10.3-9V173.8z"/>
			<polygon id="Fill-6_1_" class="st4" points="198.1,28.7 192.2,159.6 140.6,142 137.6,148 202.4,173.4 202.4,26.3 			"/>
			<polygon id="Fill-7_1_" class="st5" points="197.8,27 39.5,112 93.7,131.8 202.4,26.3 			"/>
			<path id="Fill-8_1_" class="st1" d="M40.1,111.9l53.5,19.6L201.7,26.7l-3.8,0.5L40.1,111.9z M93.7,132.1l-0.1-0.1l-54.7-20
				l0.5-0.3l158.4-85l5.4-0.8L93.7,132.1z"/>
			<polygon id="Fill-9_1_" class="st4" points="196.5,30.3 55,111.3 99,127.2 94.3,131.1 35.5,112 202.4,23 			"/>
			<polygon id="Fill-10_1_" class="st6" points="205.4,18.1 28.7,113.6 94,135.6 95.9,130 43.6,112.3 199.4,28 199.4,169.2 
				137.1,146.6 135.1,152.2 205.4,177.7 			"/>
			<path id="Fill-11_1_" class="st6" d="M92.7,130.7l-1.1,65.4l46.2-45.6L201.6,25L92.7,130.7z M98.6,133.2l81.5-79.1l-47.2,92.7
				l-35.1,34.7L98.6,133.2z"/>
		</g>
	</g>
</g>
</svg>
