<?xml version="1.0" encoding="utf-8"?>
<!-- Generator: Adobe Illustrator 22.0.1, SVG Export Plug-In . SVG Version: 6.00 Build 0)  -->
<svg version="1.1" id="Layer_1" xmlns="http://www.w3.org/2000/svg" xmlns:xlink="http://www.w3.org/1999/xlink" x="0px" y="0px"
	 viewBox="0 0 234.1 214.1" style="enable-background:new 0 0 234.1 214.1;" xml:space="preserve">
<style type="text/css">
	.st0{fill:#1AD4FF;}
	.st1{fill:#FF7900;}
	.st2{fill:#7EC617;}
	.st3{fill:#172E55;}
</style>
<path class="st0" d="M73.4,192.8v-34.5c0-1.8-1.5-3.3-3.3-3.3H56.3c-1.8,0-3.3,1.5-3.3,3.3v34.5H73.4z"/>
<path class="st1" d="M128.1,191.2v-63.7c0-1.8-1.5-3.3-3.3-3.3h-13.7c-1.8,0-3.3,1.5-3.3,3.3v63.7H128.1z"/>
<path class="st2" d="M179.5,192h-13.7c-1.8,0-3.3-1.5-3.3-3.3V83.3c0-1.8,1.5-3.3,3.3-3.3h13.7c1.8,0,3.3,1.5,3.3,3.3v105.3
	C182.9,190.5,181.4,192,179.5,192z"/>
<path class="st3" d="M157,192.8h-5.5V77c0-4.5,3.7-8.2,8.2-8.2h24.9c4.5,0,8.2,3.7,8.2,8.2v114.8h-5.5V77c0-1.5-1.2-2.7-2.7-2.7
	h-24.9c-1.5,0-2.7,1.2-2.7,2.7V192.8z"/>
<path class="st3" d="M138.2,192h-5.5v-70.3c0-1.5-1.2-2.7-2.7-2.7h-24.9c-1.5,0-2.7,1.2-2.7,2.7V192H97v-70.3c0-4.5,3.7-8.2,8.2-8.2
	H130c4.5,0,8.2,3.7,8.2,8.2V192z"/>
<path class="st3" d="M83.8,192.2h-5.5v-39c0-1.5-1.2-2.7-2.7-2.7H50.7c-1.5,0-2.7,1.2-2.7,2.7v39h-5.5v-39c0-4.5,3.7-8.2,8.2-8.2
	h24.9c4.5,0,8.2,3.7,8.2,8.2V192.2z"/>
<path class="st3" d="M201,195.2H35.8c-1.5,0-2.8-1.2-2.8-2.8s1.2-2.8,2.8-2.8H201c1.5,0,2.8,1.2,2.8,2.8S202.5,195.2,201,195.2z"/>
<path class="st3" d="M65,114.5c-0.7,0-1.4-0.3-1.9-0.8c-1.1-1.1-1.1-2.8,0-3.9l63.6-63.6c1.1-1.1,2.8-1.1,3.9,0l13.9,13.9l39.8-39.8
	c1.1-1.1,2.8-1.1,3.9,0c1.1,1.1,1.1,2.8,0,3.9l-41.8,41.8c-1.1,1.1-2.8,1.1-3.9,0L128.6,52l-61.7,61.7
	C66.4,114.2,65.7,114.5,65,114.5z"/>
<path class="st3" d="M187.2,44.8c-1.5,0-2.8-1.2-2.8-2.8V23.8H165c-1.5,0-2.8-1.2-2.8-2.8s1.2-2.8,2.8-2.8h22.2
	c1.5,0,2.8,1.2,2.8,2.8v21C190,43.5,188.8,44.8,187.2,44.8z"/>
<path class="st3" d="M52.5,126.3c-0.7,0-1.4-0.3-1.9-0.9c-1-1.1-1-2.8,0.1-3.9l4.8-4.5c1.1-1,2.8-1,3.9,0.1c1,1.1,1,2.8-0.1,3.9
	l-4.8,4.5C53.9,126.1,53.2,126.3,52.5,126.3z"/>
</svg>
