<?xml version="1.0" encoding="utf-8"?>
<!-- Generator: Adobe Illustrator 22.0.1, SVG Export Plug-In . SVG Version: 6.00 Build 0)  -->
<svg version="1.1" id="Layer_1" xmlns="http://www.w3.org/2000/svg" xmlns:xlink="http://www.w3.org/1999/xlink" x="0px" y="0px"
	 viewBox="0 0 234.1 214.1" style="enable-background:new 0 0 234.1 214.1;" xml:space="preserve">
<style type="text/css">
	.st0{fill:#2EC5E8;}
	.st1{fill:#172E55;}
	.st2{fill:#FFFACC;}
	.st3{fill:#FFC145;}
</style>
<rect x="62.5" y="19.6" class="st0" width="118.3" height="52.3"/>
<path class="st1" d="M183,74.2H60.3V17.4H183V74.2z M64.7,69.7h113.9V21.8H64.7V69.7z"/>
<circle class="st2" cx="90.6" cy="46" r="14.8"/>
<path class="st1" d="M90.6,62c-8.8,0-16-7.2-16-16s7.2-16,16-16s16,7.2,16,16S99.4,62,90.6,62z M90.6,32.5C83.1,32.5,77,38.5,77,46
	s6.1,13.6,13.6,13.6s13.6-6.1,13.6-13.6S98.1,32.5,90.6,32.5z"/>
<circle class="st3" cx="90.6" cy="46" r="9.2"/>
<path class="st1" d="M151.8,44.2h-3c-2.3,0-4.2-1.9-4.2-4.2v-3c0-2.3,1.9-4.2,4.2-4.2h3c2.3,0,4.2,1.9,4.2,4.2v3
	C156,42.3,154.1,44.2,151.8,44.2z"/>
<path class="st1" d="M167.3,44.2h-3.1c-2.3,0-4.2-1.9-4.2-4.2v-3.1c0-2.3,1.9-4.2,4.2-4.2h3.1c2.3,0,4.2,1.9,4.2,4.2v3.1
	C171.5,42.3,169.6,44.2,167.3,44.2z"/>
<path class="st1" d="M151.8,59.4h-3c-2.3,0-4.2-1.9-4.2-4.2v-3c0-2.3,1.9-4.2,4.2-4.2h3c2.3,0,4.2,1.9,4.2,4.2v3
	C156,57.5,154.1,59.4,151.8,59.4z"/>
<path class="st1" d="M167.3,59.4h-3c-2.3,0-4.2-1.9-4.2-4.2v-3c0-2.3,1.9-4.2,4.2-4.2h3c2.3,0,4.2,1.9,4.2,4.2v3
	C171.5,57.5,169.6,59.4,167.3,59.4z"/>
<rect x="62.5" y="80.6" class="st0" width="118.3" height="52.3"/>
<path class="st1" d="M183,135.2H60.3V78.4H183V135.2z M64.7,130.7h113.9V82.8H64.7V130.7z"/>
<circle class="st2" cx="90.6" cy="107" r="14.8"/>
<path class="st1" d="M90.6,123c-8.8,0-16-7.2-16-16s7.2-16,16-16s16,7.2,16,16S99.4,123,90.6,123z M90.6,93.5
	C83.1,93.5,77,99.5,77,107c0,7.5,6.1,13.6,13.6,13.6s13.6-6.1,13.6-13.6C104.1,99.5,98.1,93.5,90.6,93.5z"/>
<circle class="st3" cx="90.6" cy="107" r="9.2"/>
<path class="st1" d="M151.8,105.2h-3c-2.3,0-4.2-1.9-4.2-4.2v-3c0-2.3,1.9-4.2,4.2-4.2h3c2.3,0,4.2,1.9,4.2,4.2v3
	C156,103.3,154.1,105.2,151.8,105.2z"/>
<path class="st1" d="M167.3,105.2h-3.1c-2.3,0-4.2-1.9-4.2-4.2v-3.1c0-2.3,1.9-4.2,4.2-4.2h3.1c2.3,0,4.2,1.9,4.2,4.2v3.1
	C171.5,103.3,169.6,105.2,167.3,105.2z"/>
<path class="st1" d="M151.8,120.4h-3c-2.3,0-4.2-1.9-4.2-4.2v-3c0-2.3,1.9-4.2,4.2-4.2h3c2.3,0,4.2,1.9,4.2,4.2v3
	C156,118.5,154.1,120.4,151.8,120.4z"/>
<path class="st1" d="M167.3,120.4h-3c-2.3,0-4.2-1.9-4.2-4.2v-3c0-2.3,1.9-4.2,4.2-4.2h3c2.3,0,4.2,1.9,4.2,4.2v3
	C171.5,118.5,169.6,120.4,167.3,120.4z"/>
<rect x="62.5" y="141.6" class="st0" width="118.3" height="52.3"/>
<path class="st1" d="M183,196.2H60.3v-56.8H183V196.2z M64.7,191.7h113.9v-47.9H64.7V191.7z"/>
<circle class="st2" cx="90.6" cy="168" r="14.8"/>
<path class="st1" d="M90.6,184c-8.8,0-16-7.2-16-16s7.2-16,16-16s16,7.2,16,16S99.4,184,90.6,184z M90.6,154.5
	c-7.5,0-13.6,6.1-13.6,13.6s6.1,13.6,13.6,13.6s13.6-6.1,13.6-13.6S98.1,154.5,90.6,154.5z"/>
<circle class="st3" cx="90.6" cy="168" r="9.2"/>
<path class="st1" d="M151.8,166.2h-3c-2.3,0-4.2-1.9-4.2-4.2v-3c0-2.3,1.9-4.2,4.2-4.2h3c2.3,0,4.2,1.9,4.2,4.2v3
	C156,164.3,154.1,166.2,151.8,166.2z"/>
<path class="st1" d="M167.3,166.2h-3.1c-2.3,0-4.2-1.9-4.2-4.2v-3.1c0-2.3,1.9-4.2,4.2-4.2h3.1c2.3,0,4.2,1.9,4.2,4.2v3.1
	C171.5,164.3,169.6,166.2,167.3,166.2z"/>
<path class="st1" d="M151.8,181.4h-3c-2.3,0-4.2-1.9-4.2-4.2v-3c0-2.3,1.9-4.2,4.2-4.2h3c2.3,0,4.2,1.9,4.2,4.2v3
	C156,179.5,154.1,181.4,151.8,181.4z"/>
<path class="st1" d="M167.3,181.4h-3c-2.3,0-4.2-1.9-4.2-4.2v-3c0-2.3,1.9-4.2,4.2-4.2h3c2.3,0,4.2,1.9,4.2,4.2v3
	C171.5,179.5,169.6,181.4,167.3,181.4z"/>
</svg>
