<?xml version="1.0" encoding="utf-8"?>
<!-- Generator: Adobe Illustrator 22.0.1, SVG Export Plug-In . SVG Version: 6.00 Build 0)  -->
<svg version="1.1" id="Layer_1" xmlns="http://www.w3.org/2000/svg" xmlns:xlink="http://www.w3.org/1999/xlink" x="0px" y="0px"
	 viewBox="0 0 32 32" style="enable-background:new 0 0 32 32;" xml:space="preserve">
<style type="text/css">
	.st0{fill:#536A81;}
	.st1{fill:#FFCD54;}
</style>
<title>Illustration /  Wheelchair</title>
<desc>Created with Sketch.</desc>
<path id="Combined-Shape" class="st0" d="M21,20h3c0,0.2,0,0.3,0,0.5c0,5.2-4.3,9.5-9.5,9.5S5,25.7,5,20.5S9.3,11,14.5,11
	c0.2,0,0.3,0,0.5,0v3c-0.2,0-0.3,0-0.5,0C10.9,14,8,16.9,8,20.5s2.9,6.5,6.5,6.5s6.5-2.9,6.5-6.5C21,20.3,21,20.2,21,20z"/>
<path id="Rectangle" class="st1" d="M14.5,8L14.5,8c1.4,0,2.5,1.1,2.5,2.5v8c0,1.4-1.1,2.5-2.5,2.5l0,0c-1.4,0-2.5-1.1-2.5-2.5v-8
	C12,9.1,13.1,8,14.5,8z"/>
<path id="Rectangle_1_" class="st1" d="M21.6,17.1L23,21h-9c-1.1,0-2-0.9-2-2l0,0c0-1.1,0.9-2,2-2h7.6V17.1z"/>
<path id="Rectangle_2_" class="st1" d="M25.9,26.4L25.9,26.4c-1,0.6-2.4,0.2-2.9-0.8l-3.1-5.4c-0.6-1-0.2-2.4,0.8-2.9l0,0
	c1-0.6,2.4-0.2,2.9,0.8l3.1,5.4C27.2,24.5,26.9,25.8,25.9,26.4z"/>
<circle id="Oval" class="st1" cx="14.5" cy="4.5" r="2.5"/>
<path id="Rectangle_3_" class="st0" d="M18,13h3.5c0.8,0,1.5,0.7,1.5,1.5l0,0c0,0.8-0.7,1.5-1.5,1.5H18V13z"/>
</svg>
