<?xml version="1.0" encoding="utf-8"?>
<!-- Generator: Adobe Illustrator 22.0.1, SVG Export Plug-In . SVG Version: 6.00 Build 0)  -->
<svg version="1.1" id="Layer_1" xmlns="http://www.w3.org/2000/svg" xmlns:xlink="http://www.w3.org/1999/xlink" x="0px" y="0px"
	 viewBox="0 0 32 32" style="enable-background:new 0 0 32 32;" xml:space="preserve">
<style type="text/css">
	.st0{fill:#274B6D;}
	.st1{fill:#ADDBFF;}
	.st2{fill:#8AC3EF;}
	.st3{fill:#FFCC75;}
	.st4{fill:#FF5D5D;}
	.st5{fill:#FECC53;}
</style>
<g id="Illustration-_x2F_-Approval">
	<g id="Group" transform="translate(1.897552, 5.006625)">
		<path id="Path" class="st0" d="M27.3,0.6l-1.5,0.6l0.4,1.3l1.2,0.5l0.6-1.6c0.1-0.3,0-0.6-0.3-0.8C27.6,0.5,27.4,0.5,27.3,0.6z"/>
		<path id="Path-156" class="st0" d="M0.1,0.5"/>
		<polygon id="Path_1_" class="st1" points="14.3,19 6.5,10.5 3.7,11.8 12.4,21.1 		"/>
		<path id="Path_2_" class="st2" d="M12.4,21.1l-8.7-9.3l-1.2,2.9L9.6,22l0,0c0.5,0.5,1.3,0.5,1.8,0L12.4,21.1z"/>
		<path id="Path_3_" class="st0" d="M0.2,8.7l0.7,1.8l1.2-0.5l0.4-1.3L0.9,8.1C0.6,8,0.3,8.1,0.2,8.4C0.2,8.5,0.2,8.6,0.2,8.7z"/>
		<path id="Path_4_" class="st3" d="M2.5,14.7c0.3-0.1,0.7-0.3,1-0.6c0.5-0.5,0.7-1.3,0.6-1.9c0.6,0.1,1.3-0.1,1.8-0.6
			c0.3-0.3,0.5-0.7,0.6-1l0,0L2.5,8.8l-1.6,1.7L2.5,14.7L2.5,14.7z"/>
		<polygon id="Path_5_" class="st2" points="14.4,19.1 25.8,7.1 24.6,4.1 11.6,17 		"/>
		<polygon id="Path_6_" class="st1" points="12,17.4 24.6,4.1 21.9,2.9 10.5,14.9 		"/>
		<path id="Path_7_" class="st3" d="M21.9,2.9c0.1,0.4,0.3,0.7,0.6,1c0.5,0.5,1.2,0.8,1.8,0.6c-0.1,0.6,0.1,1.4,0.6,1.9
			c0.3,0.3,0.6,0.5,1,0.6l0,0l1.6-4.1l-1.6-1.7L21.9,2.9L21.9,2.9z"/>
		<path id="Path_8_" class="st4" d="M7.8,20.2l1.6,1.7c0.7,0.7,1.7,0.7,2.4,0l2-2.1l-1.6-2.5l-2.4-1.7l-2,2.1
			C7.2,18.4,7.2,19.6,7.8,20.2z"/>
		<polygon id="Rectangle" class="st5" points="14.4,19.1 12.9,20.7 9,16.5 10.5,14.9 		"/>
	</g>
</g>
</svg>
