<?xml version="1.0" encoding="utf-8"?>
<!-- Generator: Adobe Illustrator 22.0.1, SVG Export Plug-In . SVG Version: 6.00 Build 0)  -->
<svg version="1.1" id="Layer_1" xmlns="http://www.w3.org/2000/svg" xmlns:xlink="http://www.w3.org/1999/xlink" x="0px" y="0px"
	 viewBox="0 0 32 32" style="enable-background:new 0 0 32 32;" xml:space="preserve">
<style type="text/css">
	.st0{clip-path:url(#SVGID_2_);fill:#78B9E5;}
	.st1{clip-path:url(#SVGID_4_);fill:#8BC3EA;}
	.st2{clip-path:url(#SVGID_6_);fill:#5BA2D9;}
	.st3{clip-path:url(#SVGID_8_);fill:#FECC55;}
	.st4{clip-path:url(#SVGID_10_);fill:#F15F60;}
</style>
<g>
	<g>
		<defs>
			<path id="SVGID_1_" d="M18.9,17.2l1.8-2c0.4-0.4,0.3-1,0-1.4l-2.1-2.2c-0.4-0.4-1-0.4-1.4-0.1l-2.2,1.8L18.9,17.2z"/>
		</defs>
		<clipPath id="SVGID_2_">
			<use xlink:href="#SVGID_1_"  style="overflow:visible;"/>
		</clipPath>
		<rect x="10.1" y="6.3" class="st0" width="15.9" height="15.9"/>
	</g>
	<g>
		<defs>
			<circle id="SVGID_3_" cx="11.5" cy="20.6" r="9.5"/>
		</defs>
		<clipPath id="SVGID_4_">
			<use xlink:href="#SVGID_3_"  style="overflow:visible;"/>
		</clipPath>
		<rect x="-3" y="6.1" class="st1" width="29" height="29"/>
	</g>
	<g>
		<defs>
			<path id="SVGID_5_" d="M4.7,18.6c0,0.2,0,0.3,0,0.5c0,3.4,2.7,6.1,6.1,6.1s6.1-2.7,6.1-6.1c0-1.6-0.6-3.1-1.6-4.2
				c0.5,0.3,0.9,0.7,1.4,1.1c2.8,2.8,2.8,7.4,0,10.3c-2.8,2.8-7.4,2.8-10.3,0C4.3,24.1,3.7,21.1,4.7,18.6z"/>
		</defs>
		<clipPath id="SVGID_6_">
			<use xlink:href="#SVGID_5_"  style="overflow:visible;"/>
		</clipPath>
		<rect x="-0.8" y="9.9" class="st2" width="24.5" height="23.5"/>
	</g>
	<g>
		<defs>
			<path id="SVGID_7_" d="M22.6,4.2c-0.3,0-0.5-0.2-0.5-0.5V2.5C22,2.2,22.3,2,22.6,2c0.3,0,0.5,0.2,0.5,0.5v1.1
				C23.1,3.9,22.9,4.2,22.6,4.2z M29.5,10h-1.1c-0.3,0-0.5-0.2-0.5-0.5c0-0.3,0.2-0.5,0.5-0.5h1.1c0.3,0,0.5,0.2,0.5,0.5
				C30,9.8,29.8,10,29.5,10z M18.4,5.9c-0.1,0-0.3-0.1-0.4-0.2L17.3,5c-0.2-0.2-0.2-0.6,0-0.8c0.2-0.2,0.6-0.2,0.8,0L18.8,5
				c0.2,0.2,0.2,0.6,0,0.8C18.7,5.8,18.6,5.9,18.4,5.9z M27.4,14.9c-0.1,0-0.3-0.1-0.4-0.2l-0.8-0.8c-0.2-0.2-0.2-0.6,0-0.8
				c0.2-0.2,0.6-0.2,0.8,0l0.8,0.8c0.2,0.2,0.2,0.6,0,0.8C27.7,14.8,27.6,14.9,27.4,14.9z"/>
		</defs>
		<clipPath id="SVGID_8_">
			<use xlink:href="#SVGID_7_"  style="overflow:visible;"/>
		</clipPath>
		<rect x="12.1" y="-3" class="st3" width="22.9" height="22.9"/>
	</g>
	<g>
		<defs>
			<path id="SVGID_9_" d="M27.6,4.9c-0.6,0.6-1,1.4-1,2.3c0,0.3,0,0.6,0.1,0.9c0.1,0.3,0.2,0.7,0.2,1c0,2-1.6,3.6-3.6,3.6
				c-2,0-3.6-1.6-3.6-3.6c0-1.9,1.4-3.4,3.2-3.6c0,0-0.2,0.2-0.4,0.8c-0.1,0.4-0.1,1-0.1,1c0.5-1.6,2-2.7,3.8-2.7
				C26.6,4.6,27.1,4.7,27.6,4.9"/>
		</defs>
		<clipPath id="SVGID_10_">
			<use xlink:href="#SVGID_9_"  style="overflow:visible;"/>
		</clipPath>
		<rect x="14.6" y="-0.4" class="st4" width="18" height="18.2"/>
	</g>
</g>
</svg>
