<?xml version="1.0" encoding="utf-8"?>
<!-- Generator: Adobe Illustrator 22.0.1, SVG Export Plug-In . SVG Version: 6.00 Build 0)  -->
<svg version="1.1" id="Layer_1" xmlns="http://www.w3.org/2000/svg" xmlns:xlink="http://www.w3.org/1999/xlink" x="0px" y="0px"
	 viewBox="0 0 32 32" style="enable-background:new 0 0 32 32;" xml:space="preserve">
<style type="text/css">
	.st0{fill:#72BBFF;}
	.st1{fill:#FFCD54;}
	.st2{fill:#4E5973;}
</style>
<title>Illustration / Atomic - Consistent</title>
<desc>Created with Sketch.</desc>
<g>
	<rect id="Rectangle" x="7" y="2" class="st0" width="18" height="7.7"/>
	<circle id="Oval" class="st1" cx="11.5" cy="5.9" r="2.6"/>
	<rect id="Rectangle_1_" x="21.1" y="3.3" class="st2" width="1.9" height="1.9"/>
	<rect id="Rectangle_2_" x="21.1" y="6.5" class="st2" width="1.9" height="1.9"/>
	<rect id="Rectangle_3_" x="17.3" y="3.3" class="st2" width="1.9" height="1.9"/>
	<rect id="Rectangle_4_" x="17.3" y="6.5" class="st2" width="1.9" height="1.9"/>
</g>
<g>
	<rect id="Rectangle_5_" x="7" y="22.3" class="st0" width="18" height="7.7"/>
	<circle id="Oval_1_" class="st1" cx="11.5" cy="26.2" r="2.6"/>
	<rect id="Rectangle_6_" x="21.1" y="23.6" class="st2" width="1.9" height="1.9"/>
	<rect id="Rectangle_7_" x="21.1" y="26.8" class="st2" width="1.9" height="1.9"/>
	<rect id="Rectangle_8_" x="17.3" y="23.6" class="st2" width="1.9" height="1.9"/>
	<rect id="Rectangle_9_" x="17.3" y="26.8" class="st2" width="1.9" height="1.9"/>
</g>
<g>
	<rect id="Rectangle_10_" x="7" y="12.1" class="st0" width="18" height="7.7"/>
	<circle id="Oval_2_" class="st1" cx="11.5" cy="16" r="2.6"/>
	<rect id="Rectangle_11_" x="21.1" y="13.4" class="st2" width="1.9" height="1.9"/>
	<rect id="Rectangle_12_" x="21.1" y="16.6" class="st2" width="1.9" height="1.9"/>
	<rect id="Rectangle_13_" x="17.3" y="13.4" class="st2" width="1.9" height="1.9"/>
	<rect id="Rectangle_14_" x="17.3" y="16.6" class="st2" width="1.9" height="1.9"/>
</g>
</svg>
