<?xml version="1.0" encoding="utf-8"?>
<!-- Generator: Adobe Illustrator 22.0.1, SVG Export Plug-In . SVG Version: 6.00 Build 0)  -->
<svg version="1.1" id="Layer_1" xmlns="http://www.w3.org/2000/svg" xmlns:xlink="http://www.w3.org/1999/xlink" x="0px" y="0px"
	 viewBox="0 0 32 32" style="enable-background:new 0 0 32 32;" xml:space="preserve">
<style type="text/css">
	.st0{clip-path:url(#SVGID_2_);fill:#DCE9F4;}
	.st1{clip-path:url(#SVGID_4_);fill:#86A5C0;}
	.st2{clip-path:url(#SVGID_6_);fill:#86A5C0;}
	.st3{clip-path:url(#SVGID_8_);fill:#86A5C0;}
	.st4{clip-path:url(#SVGID_10_);fill:#F06F6F;}
	.st5{clip-path:url(#SVGID_12_);fill:#ADDBFF;}
	.st6{clip-path:url(#SVGID_14_);fill:#8AC3EF;}
	.st7{clip-path:url(#SVGID_16_);fill:#444444;}
	.st8{clip-path:url(#SVGID_18_);fill:#86A5C0;}
	.st9{clip-path:url(#SVGID_20_);fill:#BED2E3;}
	.st10{clip-path:url(#SVGID_22_);fill:#72BBFF;}
</style>
<g>
	<g>
		<defs>
			<path id="SVGID_1_" d="M24,2h-9.3c-1,0-1.9,0.4-2.6,1l-7.9,7.4C3.5,11.2,3,12.2,3,13.2V30h21V2z"/>
		</defs>
		<clipPath id="SVGID_2_">
			<use xlink:href="#SVGID_1_"  style="overflow:visible;"/>
		</clipPath>
		<rect x="-2" y="-3" class="st0" width="31" height="38"/>
	</g>
</g>
<g>
	<g>
		<defs>
			<path id="SVGID_3_" d="M8.1,13.5h11.3c0.4,0,0.6,0.3,0.6,0.6s-0.3,0.6-0.6,0.6H8.1c-0.4,0-0.6-0.3-0.6-0.6S7.7,13.5,8.1,13.5z"/>
		</defs>
		<clipPath id="SVGID_4_">
			<use xlink:href="#SVGID_3_"  style="overflow:visible;"/>
		</clipPath>
		<rect x="2.4" y="8.5" class="st1" width="22.6" height="11.3"/>
	</g>
</g>
<g>
	<g>
		<defs>
			<path id="SVGID_5_" d="M8.1,16.6h9.3c0.4,0,0.6,0.3,0.6,0.6c0,0.4-0.3,0.6-0.6,0.6H8.1c-0.4,0-0.6-0.3-0.6-0.6
				C7.4,16.9,7.7,16.6,8.1,16.6z"/>
		</defs>
		<clipPath id="SVGID_6_">
			<use xlink:href="#SVGID_5_"  style="overflow:visible;"/>
		</clipPath>
		<rect x="2.4" y="11.6" class="st2" width="20.6" height="11.3"/>
	</g>
</g>
<g>
	<g>
		<defs>
			<path id="SVGID_7_" d="M8.1,19.8h7.6c0.4,0,0.6,0.3,0.6,0.6c0,0.4-0.3,0.6-0.6,0.6H8.1c-0.4,0-0.6-0.3-0.6-0.6
				C7.4,20.1,7.7,19.8,8.1,19.8z"/>
		</defs>
		<clipPath id="SVGID_8_">
			<use xlink:href="#SVGID_7_"  style="overflow:visible;"/>
		</clipPath>
		<rect x="2.4" y="14.8" class="st3" width="18.9" height="11.3"/>
	</g>
</g>
<g>
	<g>
		<defs>
			<path id="SVGID_9_" d="M28.4,7.7L28.4,7.7c0.6,0.4,0.8,1.1,0.5,1.7l-1.6,2.8c-0.4,0.6-1.1,0.8-1.7,0.5c-0.6-0.4-0.8-1.1-0.5-1.7
				l1.6-2.8C27,7.6,27.8,7.4,28.4,7.7z"/>
		</defs>
		<clipPath id="SVGID_10_">
			<use xlink:href="#SVGID_9_"  style="overflow:visible;"/>
		</clipPath>
		<polygon class="st4" points="25.4,0.3 36.3,6.5 28.4,20.1 17.6,13.9 		"/>
	</g>
</g>
<g>
	<g>
		<defs>
			<path id="SVGID_11_" d="M26.1,9.7l1.7,1c0.5,0.3,0.6,0.8,0.3,1.3L20,26c-1.8,1.5-2.9,2.1-3.3,1.9s-0.4-1.5,0-3.8l8.1-14
				C25.1,9.6,25.6,9.5,26.1,9.7z"/>
		</defs>
		<clipPath id="SVGID_12_">
			<use xlink:href="#SVGID_11_"  style="overflow:visible;"/>
		</clipPath>
		<polygon class="st5" points="23.4,2.4 35.4,9.3 20.2,35.7 8.2,28.8 		"/>
	</g>
</g>
<g>
	<g>
		<defs>
			<path id="SVGID_13_" d="M17,28c-0.1,0-0.2,0-0.3,0s-0.1-0.1-0.2-0.2L17,28z M20,26l-3.3-1.9L24.8,10c0.3-0.5,0.8-0.6,1.3-0.3
				l1.7,1c0.5,0.3,0.6,0.8,0.3,1.3L20,26z"/>
		</defs>
		<clipPath id="SVGID_14_">
			<use xlink:href="#SVGID_13_"  style="overflow:visible;"/>
		</clipPath>
		<polygon class="st6" points="23.4,2.3 35.5,9.2 20.2,35.7 8.2,28.8 		"/>
	</g>
</g>
<g>
	<g>
		<defs>
			<path id="SVGID_15_" d="M18.2,27.3c-0.8,0.5-1.3,0.7-1.5,0.6s-0.3-0.7-0.3-1.6L18.2,27.3z"/>
		</defs>
		<clipPath id="SVGID_16_">
			<use xlink:href="#SVGID_15_"  style="overflow:visible;"/>
		</clipPath>
		<polygon class="st7" points="14.6,19.5 25.1,25.5 19.4,35.3 9,29.2 		"/>
	</g>
</g>
<g>
	<g>
		<defs>
			<circle id="SVGID_17_" cx="19.2" cy="6.1" r="2.2"/>
		</defs>
		<clipPath id="SVGID_18_">
			<use xlink:href="#SVGID_17_"  style="overflow:visible;"/>
		</clipPath>
		<rect x="12" y="-1.1" class="st8" width="14.5" height="14.4"/>
	</g>
</g>
<g>
	<g>
		<defs>
			<path id="SVGID_19_" d="M3.1,12.3c0.8-0.5,1.9-0.7,3.3-0.7s3,0,4.8,0V9.5c-2.4,0.2-4.1,0.3-5,0.3s-1.7,0.3-2.3,1l-0.5,0.7
				L3.1,12.3z"/>
		</defs>
		<clipPath id="SVGID_20_">
			<use xlink:href="#SVGID_19_"  style="overflow:visible;"/>
		</clipPath>
		<rect x="-1.9" y="4.5" class="st9" width="18.1" height="12.8"/>
	</g>
</g>
<g>
	<g>
		<defs>
			<path id="SVGID_21_" d="M10.5,4.2l1.4-1.5C12.4,2.3,13.5,2,15.1,2c-2,0-3.1,1.1-3.2,3.4v5.4h-6l0,0C4,10.9,3,11.9,3,13.7
				c0-1.5,0.2-2.5,0.8-3l2.3-2.2L10.5,4.2z"/>
		</defs>
		<clipPath id="SVGID_22_">
			<use xlink:href="#SVGID_21_"  style="overflow:visible;"/>
		</clipPath>
		<rect x="-2" y="-3" class="st10" width="22.1" height="21.7"/>
	</g>
</g>
</svg>
