<svg xmlns="http://www.w3.org/2000/svg" xmlns:xlink="http://www.w3.org/1999/xlink" viewBox="0 0 392.98 398.98"><defs><style>.cls-1{fill:#ff5d5d;}.cls-2{fill:#dfebf7;}.cls-3{fill:#ced8e0;}.cls-4{fill:#3b6072;}.cls-5{fill:#dbaa75;}.cls-6{fill:#af8b64;}.cls-7{fill:#cc9e71;}.cls-8{fill:none;stroke:#ff5d5d;stroke-miterlimit:10;stroke-width:3px;}.cls-9{fill:#b2c5d1;}.cls-10{fill:#fff;}.cls-11{fill:#bdd3e5;}.cls-12{fill:#323333;}.cls-13{fill:#4a9cd3;}.cls-14{fill:#b36d5b;}.cls-15{fill:#2f83b2;}.cls-16{fill:#ffac06;}.cls-17{fill:#e0940b;}.cls-18{clip-path:url(#clip-path);}</style><clipPath id="clip-path"><path class="cls-1" d="M154.5,152.14a1.62,1.62,0,0,0-1.75,1.67,2,2,0,0,0,1.87,1.82,1.62,1.62,0,0,0,1.75-1.67A2,2,0,0,0,154.5,152.14ZM154.05,140c-1,0-1.8.44-1.77,1.29l.28,7.72c0,.85.83,1.4,1.87,1.44s1.81-.46,1.78-1.28l-.28-7.73C155.9,140.57,155.07,140,154.05,140Zm.7,19.17c-6.51-.28-12-5.58-12.21-11.84s4.87-11.11,11.38-10.83,12,5.58,12.21,11.84S161.26,159.4,154.75,159.12Zm-.92-25.29c-8-.34-14.29,5.62-14,13.33s7,14.23,15,14.58,14.28-5.62,14-13.33S161.84,134.17,153.83,133.83Z"/></clipPath></defs><title>Illustration_ErrorArtboard 13</title><g id="Layer_2" data-name="Layer 2"><rect class="cls-2" x="51.43" y="53.82" width="256.47" height="256.47" rx="62.58" ry="62.58" transform="translate(181.36 -73.72) rotate(45)"/><path class="cls-1" d="M353,325.88l-5.18-3.62a4.29,4.29,0,0,0-6,1.05l-.06.08c-8-4.87-14.26-2.48-14.58-2.35l1.37,3.42c.24-.09,4.83-1.76,11.1,1.94l-.22.31a4.29,4.29,0,0,0,1.06,6l5.17,3.63,1.44-2.05,3.4,2.4a1.32,1.32,0,1,0,1.52-2.15l-3.4-2.42,1.22-1.74,3.38,2.39a1.32,1.32,0,1,0,1.52-2.15l-3.38-2.41Z"/><path class="cls-3" d="M174.25,185.65,174,241a2.67,2.67,0,0,0,2.67,2.69h24a2.67,2.67,0,0,0,1.89-4.56h0a2.63,2.63,0,0,0-1.58-.77l-15.51-1.81a2.64,2.64,0,0,1-2.32-2.19l-7.33-41.62"/><path class="cls-3" d="M95.52,184.73l-.29,55.32a2.67,2.67,0,0,0,2.67,2.69h24a2.67,2.67,0,0,0,1.89-4.56h0a2.63,2.63,0,0,0-1.58-.77l-15.51-1.81a2.67,2.67,0,0,1-2.33-2.19l-7.33-41.62"/><path class="cls-4" d="M329.18,345.9c1.07-.18,7.65.54,10-6.41s16.56,12.82-2.49,12.82S329.18,345.9,329.18,345.9Z"/><path class="cls-5" d="M326.86,330.77s8.73,17.09,11.93,22.61.18,11.93.18,11.93,4.27,4.81,2.14,5.87-10.69-.17-10.69-.17-.17,1.95-5.34,1.6-5.34-7.66-11.21-15.13-4.1,15.31-10.51,15.13-7.65.18-5.87-2.67-7.3-12.64-7.3-26.71S293.57,326,293.57,326l32.58,5"/><path class="cls-6" d="M330.42,371s2-3.92-.17-11.4,5.51,1.25,5.16,5.52S330.42,371,330.42,371Z"/><path class="cls-6" d="M312.93,356.1s-3.56-3.92-5.17-2.31.72,9.43.72,9.43,1.06-4.09,1.95-5.34A5.59,5.59,0,0,1,312.93,356.1Z"/><path class="cls-7" d="M291.81,329.3S293.5,345,311,343.42,329,327.92,329,327.92Z"/><path class="cls-4" d="M307.72,286.47s-3.92,1.58-2.4,4.22,9.4-1.66,15.39,5.21,10.92,16.51,16.77,13.05,2.85-20.07-10.77-23.49S307.72,286.47,307.72,286.47Z"/><path class="cls-4" d="M288.59,296.74s3.94-1.54,4.65,1.42-8,5.24-7.65,14.34,3.36,19.51-3.28,21-15.82-12.67-8.24-24.49S288.59,296.74,288.59,296.74Z"/><path class="cls-5" d="M311.39,293.14c-.53-.37-4.31-6.53-11.06-5.2s-11.86,8.73-11.74,24,3,31.36,22,27.88,28.64-14.23,18-26.66S311.39,293.14,311.39,293.14Z"/><circle class="cls-4" cx="299.03" cy="316.1" r="2.1"/><path class="cls-4" d="M315.48,327.39s4.48,2.09,7.61-4.1-6.36-4.51-10.15-1.69S315.48,327.39,315.48,327.39Z"/><circle class="cls-4" cx="314.56" cy="311.74" r="1.82"/><path class="cls-4" d="M311.61,339.73s-13.91,2.25-12.07-8.39"/><path class="cls-8" d="M116.19,206.91s7.32,156.27-1.84,157.17C64.83,369,214,366.13,252.06,366.13s48.5-1.23,48.5-9.21,4.4-23.53,4.4-23.53"/><path class="cls-9" d="M105.72,166.81a6.68,6.68,0,0,0,6.4,6.93l70.36,2.33a6.25,6.25,0,0,0,6.31-5.63L192.5,136a5.69,5.69,0,0,0-4.45-6.28c-15.25-3.1-60.92-12.55-76.22-15.72a4.38,4.38,0,0,0-5.16,4.29"/><path class="cls-10" d="M185.4,131.57c-13.58-2.66-56-11.63-69.6-14.36a3.86,3.86,0,0,0-4.58,3.69l-.67,41.66a5.83,5.83,0,0,0,5.72,5.95l62.36,3.31c2.82.09,5.71-1.7,6-4.5l3.26-28.5C188.17,136.24,188,132.07,185.4,131.57Z"/><path class="cls-3" d="M206.73,223.3H119.1c-5.43,0-11.87-4.44-14.3-9.87L92.89,186.92c-2.44-5.43,0-9.87,5.44-9.87l87.74,5.22c5.43,0,11.75-.78,14.19,4.65l11.91,26.51C214.6,218.86,212.16,223.3,206.73,223.3Z"/><path class="cls-9" d="M196.06,209.86H130c-4.09,0-9-3.22-10.78-7.15l-9-19.19a7.16,7.16,0,0,1-.7-2.71c-2.81.81-3.87,3.6-2.33,6.91l9,19.19c1.84,3.93,6.69,7.15,10.78,7.15H193c3.1,0,4.9-1.84,4.8-4.45A6.1,6.1,0,0,1,196.06,209.86Z"/><rect class="cls-11" x="56.44" y="242.56" width="203.17" height="5.74" rx="1.78" ry="1.78"/><path class="cls-12" d="M247.29,360.61s.34,6.45,1.37,8.87S250,375,239.56,375c-12.7,0-6-5.54-6-5.54l7.49-3.18Z"/><path class="cls-13" d="M237.71,246.62s4.09,7,4.5,31.92,7.4,90.2,6.48,90.2c-7.22,0-14.26.25-14.26.25s-7-46.25-16.78-62.62S207,278.13,207,276.9,237.71,246.62,237.71,246.62Z"/><path class="cls-14" d="M182.52,143.82a97.62,97.62,0,0,0,.16,18.39c1.1,8.17,8.64,6.76,8.64,6.76l-1.41,3.92,17.44-.62s-3-10.69-4.71-16.82-7.7-14.14-8.17-13.83S182.52,143.82,182.52,143.82Z"/><path class="cls-12" d="M182.52,144.92s2.36-1.25,3.46,2.36.31,5.5.31,5.5,3-5.34,5.19-.47-2.83,5.66-2.83,5.66,3.14,5.81,4.87,6.28,11-.31,11-.31,10-11.1,6.32-23.16c-1.82-6-7.59-7.09-17.81-7.09C179.83,133.69,182.52,144.92,182.52,144.92Z"/><path class="cls-10" d="M210.15,171s23.33-11,23.33-15.07-25-15.76-24.56-17.47a7.4,7.4,0,0,1,4.91-4.79c2.87-1,42.31,19.52,46.25,29.11,1.13,2.74-34.79,31.51-34.79,31.51Z"/><path class="cls-14" d="M209.77,139.85s.21.62-3.07.41-6.95-1.23-6.14-2.25,2.66.41,4.51-1,1.84-5.73-1.85-5.94-4.91,4.09-7.57,2.87,3.89-6.14,9.42-7,10,7.16,10.43,8.18S209.77,139.85,209.77,139.85Z"/><polygon class="cls-5" points="298.11 330.22 310.77 339.12 307.85 331.91 298.11 330.22"/><path class="cls-14" d="M135.81,191.22s-2.84.36.23-3.53,3.27-7,1-7.36-1.23,4.91-4.5,4.09-4.5-9-6.75-8,2,4.09-1,4.91-3.48,1.23-4.29,3.68-2.87,4.5-2,6.55,5.52,4.5,9.41,4.5,7.57-4.09,7.57-4.09"/><path class="cls-15" d="M238.12,263.81s-2.63,7.32-12.3,20.37-8.75,21.18-8.75,21.18l-6-10.75L225.21,275Z"/><path class="cls-12" d="M192.49,368.89s-12.9,2.14-16,4.6S193.71,375.33,202,375s3.38-9.82,2.46-11.35S192.49,368.89,192.49,368.89Z"/><path class="cls-13" d="M231.16,228.61s11.46,21.28,7,35.2-23.33,20.87-29.47,47.88S208,368.61,206,368.42c-10.13-.92-14.94,1-14.94,1s-11.87-85.54-2-109.69S231.16,228.61,231.16,228.61Z"/><path class="cls-16" d="M177.37,181.49a8,8,0,0,1,5.5-8.54c7.11-2.24,18.6-5.45,24.55-4.91,9,.82,38.71,68.76,33.15,88.81-1.65,6-22.51-15.55-47.47-1.64-16.21,9-9.41-52.79-12.28-58.11C179.13,194,178,186.81,177.37,181.49Z"/><path class="cls-17" d="M181.67,205.09v9s10-17,9.82-22.3S181.67,205.09,181.67,205.09Z"/><path class="cls-10" d="M175.12,180.89a234.26,234.26,0,0,1-15.92,20.4,7.21,7.21,0,0,1-9.7.81l-13.35-10.26a7.06,7.06,0,0,0-8.65-.11,5.24,5.24,0,0,0-1.59,2c-1.64,3.68,8.94,22.34,25.78,35.81,1.54,1.23,15.66-9.21,34.38-28.85,10-10.48,4.58-17.62-.86-21.5A7.21,7.21,0,0,0,175.12,180.89Z"/><path class="cls-4" d="M204.57,102.49a1.94,1.94,0,0,1-.43-1.34,8.06,8.06,0,0,1,.81-3.78A19.79,19.79,0,0,1,207.31,94a19.84,19.84,0,0,0,1.79-2.44,4.26,4.26,0,0,0,.57-2.19,2.57,2.57,0,0,0-1-2.13,4.2,4.2,0,0,0-2.7-.8,6.51,6.51,0,0,0-2.8.63A26,26,0,0,0,200,88.88a3.65,3.65,0,0,1-1.67.57,1.49,1.49,0,0,1-1.19-.63,2.38,2.38,0,0,1,.46-3.39,12.8,12.8,0,0,1,4-2.3,13.87,13.87,0,0,1,4.68-.83,10.73,10.73,0,0,1,4.4.85,7.19,7.19,0,0,1,3,2.36A5.74,5.74,0,0,1,214.82,89a6.57,6.57,0,0,1-1,3.68,22.92,22.92,0,0,1-3,3.51A26.32,26.32,0,0,0,208.35,99a5.84,5.84,0,0,0-1,2.62,1.57,1.57,0,0,1-.55,1,1.63,1.63,0,0,1-1.07.34A1.42,1.42,0,0,1,204.57,102.49Zm-1,8.14a3.21,3.21,0,0,1,0-4.35,3.1,3.1,0,0,1,4.31,0,3,3,0,0,1,.85,2.18,3,3,0,0,1-.87,2.17,3.08,3.08,0,0,1-4.29,0Z"/><path class="cls-1" d="M154.5,152.14a1.62,1.62,0,0,0-1.75,1.67,2,2,0,0,0,1.87,1.82,1.62,1.62,0,0,0,1.75-1.67A2,2,0,0,0,154.5,152.14ZM154.05,140c-1,0-1.8.44-1.77,1.29l.28,7.72c0,.85.83,1.4,1.87,1.44s1.81-.46,1.78-1.28l-.28-7.73C155.9,140.57,155.07,140,154.05,140Zm.7,19.17c-6.51-.28-12-5.58-12.21-11.84s4.87-11.11,11.38-10.83,12,5.58,12.21,11.84S161.26,159.4,154.75,159.12Zm-.92-25.29c-8-.34-14.29,5.62-14,13.33s7,14.23,15,14.58,14.28-5.62,14-13.33S161.84,134.17,153.83,133.83Z"/><g class="cls-18"><polygon class="cls-1" points="139.84 161.58 169.88 162.87 168.83 133.99 138.79 132.7 139.84 161.58"/></g><rect class="cls-2" x="358.03" y="316.27" width="18.97" height="20.35" rx="8.62" ry="8.62"/><rect class="cls-4" x="362.53" y="321.4" width="3.25" height="9.88" rx="1.62" ry="1.62"/><rect class="cls-4" x="368.53" y="321.4" width="3.25" height="9.88" rx="1.62" ry="1.62"/></g></svg>