<?xml version="1.0" encoding="utf-8"?>
<!-- Generator: Adobe Illustrator 22.0.1, SVG Export Plug-In . SVG Version: 6.00 Build 0)  -->
<svg version="1.1" id="Layer_1" xmlns="http://www.w3.org/2000/svg" xmlns:xlink="http://www.w3.org/1999/xlink" x="0px" y="0px"
	 viewBox="0 0 32 32" style="enable-background:new 0 0 32 32;" xml:space="preserve">
<style type="text/css">
	.st0{fill:#FFCD54;}
	.st1{fill:#536A81;}
	.st2{opacity:0.1;enable-background:new    ;}
</style>
<title>Illustration / Key</title>
<desc>Created with Sketch.</desc>
<g id="Illustration-_x2F_-Key">
	<g id="key" transform="translate(1.000000, 2.000000)">
		<g id="Group-4" transform="translate(0.500000, 0.000000)">
			<path id="Shape" class="st0" d="M27.2,22.2c-0.2-0.2-1.8,0-1.8,0v-1.7l-0.8-0.9h-1.9l0,0v-1.9l-0.9-0.6L20.1,17L20,15.2l-1.6-1.9
				c0.6-1.2,0.9-2.5,0.9-3.9C19.1,4.2,15,0,9.8,0C4.7,0,0.5,4.2,0.5,9.3s4.2,9.3,9.3,9.3c1.4,0,2.8-0.3,4-0.9L24.1,28h4.4v-4.6
				C28.5,23.4,28.2,23.2,27.2,22.2z M8.4,9.6c-1.2,0-2.2-1-2.2-2.2s1-2.2,2.2-2.2s2.2,1,2.2,2.2S9.6,9.6,8.4,9.6z"/>
			<path id="Shape_1_" class="st1" d="M8.4,4.4c-1.7,0-3.1,1.4-3.1,3.1s1.4,3.1,3.1,3.1s3.1-1.4,3.1-3.1S10.1,4.4,8.4,4.4z M8.4,8.7
				c-0.7,0-1.3-0.6-1.3-1.3s0.6-1.3,1.3-1.3s1.3,0.6,1.3,1.3S9.1,8.7,8.4,8.7z"/>
			<path id="Path" class="st2" d="M16.5,16c-0.8,0.7-1.6,1.3-2.7,1.7L24.1,28h4.4L16.5,16z"/>
		</g>
	</g>
</g>
</svg>
