<?xml version="1.0" encoding="utf-8"?>
<!-- Generator: Adobe Illustrator 22.0.1, SVG Export Plug-In . SVG Version: 6.00 Build 0)  -->
<svg version="1.1" id="Layer_1" xmlns="http://www.w3.org/2000/svg" xmlns:xlink="http://www.w3.org/1999/xlink" x="0px" y="0px"
	 viewBox="0 0 32 32" style="enable-background:new 0 0 32 32;" xml:space="preserve">
<style type="text/css">
	.st0{fill:#FF5D5D;}
	.st1{fill:#3BA9FF;}
	.st2{fill:#80C7FF;}
</style>
<title>Illustration /  No-manual</title>
<desc>Created with Sketch.</desc>
<path id="Oval" class="st0" d="M16,27c6.1,0,11-4.9,11-11S22.1,5,16,5S5,9.9,5,16S9.9,27,16,27z M16,30C8.3,30,2,23.7,2,16
	S8.3,2,16,2s14,6.3,14,14S23.7,30,16,30z"/>
<path id="Rectangle" class="st1" d="M13.5,9.3h7.4c0.6,0,1.1,0.4,1.1,1v11.5c0,0.6-0.4,1-1.1,1h-7.4c-1.2,0-2.1-0.9-2.1-1.9v-9.6
	C11.3,10.2,12.3,9.3,13.5,9.3z"/>
<rect id="Rectangle_1_" x="10.8" y="9.3" class="st2" width="9.6" height="13.5"/>
<polygon id="Line" class="st0" points="5.4,7.5 7.5,5.4 26.8,24.7 24.7,26.8 "/>
</svg>
