<?xml version="1.0" encoding="utf-8"?>
<!-- Generator: Adobe Illustrator 22.0.1, SVG Export Plug-In . SVG Version: 6.00 Build 0)  -->
<svg version="1.1" id="Layer_1" xmlns="http://www.w3.org/2000/svg" xmlns:xlink="http://www.w3.org/1999/xlink" x="0px" y="0px"
	 viewBox="0 0 32 32" style="enable-background:new 0 0 32 32;" xml:space="preserve">
<style type="text/css">
	.st0{clip-path:url(#SVGID_2_);fill:#80C7FF;}
	.st1{clip-path:url(#SVGID_4_);fill:#F06F6F;}
	.st2{clip-path:url(#SVGID_6_);fill:#F1F4F6;}
	.st3{clip-path:url(#SVGID_8_);fill:#F1F4F6;}
	.st4{clip-path:url(#SVGID_10_);fill:#F1F4F6;}
	.st5{clip-path:url(#SVGID_12_);fill:#F1F4F6;}
	.st6{clip-path:url(#SVGID_14_);fill:#536A81;}
	.st7{clip-path:url(#SVGID_16_);fill:#F06F6F;}
</style>
<g>
	<defs>
		<path id="SVGID_1_" d="M3.3,9h25.3c0.7,0,1.3,0.6,1.3,1.3v15.3c0,0.7-0.6,1.3-1.3,1.3H3.3C2.6,27,2,26.4,2,25.7V10.3
			C2,9.6,2.6,9,3.3,9z"/>
	</defs>
	<clipPath id="SVGID_2_">
		<use xlink:href="#SVGID_1_"  style="overflow:visible;"/>
	</clipPath>
	<rect x="-3" y="4" class="st0" width="38" height="28"/>
</g>
<g>
	<defs>
		<circle id="SVGID_3_" cx="8.3" cy="16.3" r="2"/>
	</defs>
	<clipPath id="SVGID_4_">
		<use xlink:href="#SVGID_3_"  style="overflow:visible;"/>
	</clipPath>
	<rect x="1.3" y="9.3" class="st1" width="14" height="14"/>
</g>
<g>
	<defs>
		<path id="SVGID_5_" d="M7.7,19.7H9c1.1,0,2,0.9,2,2V23H5.7v-1.3C5.7,20.6,6.6,19.7,7.7,19.7z"/>
	</defs>
	<clipPath id="SVGID_6_">
		<use xlink:href="#SVGID_5_"  style="overflow:visible;"/>
	</clipPath>
	<rect x="0.7" y="14.7" class="st2" width="15.3" height="13.3"/>
</g>
<g>
	<defs>
		<path id="SVGID_7_" d="M15.3,14.3H26c0.4,0,0.7,0.3,0.7,0.7s-0.3,0.7-0.7,0.7H15.3c-0.4,0-0.7-0.3-0.7-0.7S15,14.3,15.3,14.3z"/>
	</defs>
	<clipPath id="SVGID_8_">
		<use xlink:href="#SVGID_7_"  style="overflow:visible;"/>
	</clipPath>
	<rect x="9.7" y="9.3" class="st3" width="22" height="11.3"/>
</g>
<g>
	<defs>
		<path id="SVGID_9_" d="M15.3,21.7H26c0.4,0,0.7,0.3,0.7,0.7c0,0.4-0.3,0.7-0.7,0.7H15.3c-0.4,0-0.7-0.3-0.7-0.7
			C14.7,22,15,21.7,15.3,21.7z"/>
	</defs>
	<clipPath id="SVGID_10_">
		<use xlink:href="#SVGID_9_"  style="overflow:visible;"/>
	</clipPath>
	<rect x="9.7" y="16.7" class="st4" width="22" height="11.3"/>
</g>
<g>
	<defs>
		<path id="SVGID_11_" d="M15.4,18H26c0.4,0,0.7,0.3,0.7,0.7s-0.3,0.7-0.7,0.7H15.4c-0.4,0-0.7-0.3-0.7-0.7S15,18,15.4,18z"/>
	</defs>
	<clipPath id="SVGID_12_">
		<use xlink:href="#SVGID_11_"  style="overflow:visible;"/>
	</clipPath>
	<rect x="9.7" y="13" class="st5" width="22" height="11.3"/>
</g>
<g>
	<defs>
		<path id="SVGID_13_" d="M13.3,10.3h5.3c0.4,0,0.7,0.3,0.7,0.7c0,0.4-0.3,0.7-0.7,0.7h-5.3c-0.4,0-0.7-0.3-0.7-0.7
			C12.7,10.6,13,10.3,13.3,10.3z"/>
	</defs>
	<clipPath id="SVGID_14_">
		<use xlink:href="#SVGID_13_"  style="overflow:visible;"/>
	</clipPath>
	<rect x="7.7" y="5.3" class="st6" width="16.7" height="11.3"/>
</g>
<g>
	<defs>
		<path id="SVGID_15_" d="M15.3,5h1.3C17.4,5,18,5.6,18,6.3V11h-4V6.3C14,5.6,14.6,5,15.3,5z"/>
	</defs>
	<clipPath id="SVGID_16_">
		<use xlink:href="#SVGID_15_"  style="overflow:visible;"/>
	</clipPath>
	<rect x="9" y="0" class="st7" width="14" height="16"/>
</g>
</svg>
