<?xml version="1.0" encoding="utf-8"?>
<!-- Generator: Adobe Illustrator 22.0.1, SVG Export Plug-In . SVG Version: 6.00 Build 0)  -->
<svg version="1.1" id="Layer_1" xmlns="http://www.w3.org/2000/svg" xmlns:xlink="http://www.w3.org/1999/xlink" x="0px" y="0px"
	 viewBox="0 0 32 32" style="enable-background:new 0 0 32 32;" xml:space="preserve">
<style type="text/css">
	.st0{clip-path:url(#SVGID_2_);fill:#69BDFF;}
	.st1{clip-path:url(#SVGID_4_);fill:#FECC53;}
	.st2{clip-path:url(#SVGID_6_);fill:#2F3C49;}
</style>
<g>
	<defs>
		<path id="SVGID_1_" d="M20.1,25.2c0,0.3-0.1,0.5-0.3,0.8l-2.5,2.5c-0.1,0.1-0.3,0.2-0.5,0.3c-0.2,0.1-0.4,0.1-0.5,0.2
			c0,0-0.1,0-0.1,0c-0.1,0-0.1,0-0.2,0c-0.2,0-0.6,0-1.2-0.1s-1.2-0.3-2-0.6c-0.8-0.3-1.7-0.8-2.7-1.5c-1-0.7-2.1-1.5-3.2-2.7
			c-0.9-0.9-1.6-1.7-2.2-2.5c-0.6-0.8-1.1-1.5-1.4-2.2c-0.4-0.7-0.6-1.3-0.8-1.9c-0.2-0.6-0.3-1-0.4-1.4C2,15.7,2,15.3,2,15.1
			c0-0.2,0-0.4,0-0.4c0-0.2,0.1-0.4,0.2-0.5c0.1-0.2,0.2-0.3,0.3-0.5l2.5-2.5c0.2-0.2,0.4-0.3,0.6-0.3c0.2,0,0.3,0,0.4,0.1
			c0.1,0.1,0.2,0.2,0.3,0.4l2,3.9c0.1,0.2,0.1,0.4,0.1,0.7c-0.1,0.2-0.2,0.4-0.3,0.6l-0.9,0.9c0,0,0,0.1-0.1,0.1c0,0.1,0,0.1,0,0.1
			c0.1,0.3,0.2,0.6,0.3,0.9C7.7,19,8,19.4,8.3,19.8c0.3,0.4,0.8,0.9,1.4,1.5c0.6,0.6,1.1,1,1.5,1.4c0.4,0.3,0.8,0.6,1.1,0.7
			c0.3,0.2,0.5,0.2,0.7,0.3l0.2,0c0,0,0.1,0,0.1,0c0.1,0,0.1,0,0.1-0.1l1.1-1.1c0.2-0.2,0.5-0.3,0.8-0.3c0.2,0,0.4,0,0.5,0.1h0
			l3.7,2.2C19.9,24.7,20,24.9,20.1,25.2z"/>
	</defs>
	<clipPath id="SVGID_2_">
		<use xlink:href="#SVGID_1_"  style="overflow:visible;"/>
	</clipPath>
	<rect x="-3" y="5.9" class="st0" width="28.1" height="28.1"/>
</g>
<g>
	<defs>
		<path id="SVGID_3_" d="M13.2,10l-3.3,2.3c-0.2,0.2-0.3,0.5-0.1,0.7c0.1,0.1,0.1,0.1,0.2,0.2l3.6,1.3c1.2,3.2,4.3,5.4,7.9,5.4
			c4.7,0,8.5-3.8,8.5-8.5S26.2,3,21.5,3C17.4,3,13.9,6,13.2,10z"/>
	</defs>
	<clipPath id="SVGID_4_">
		<use xlink:href="#SVGID_3_"  style="overflow:visible;"/>
	</clipPath>
	<rect x="4.7" y="-2" class="st1" width="30.3" height="26.9"/>
</g>
<g>
	<defs>
		<path id="SVGID_5_" d="M21.5,8c1.2,0,2.1,0.9,2.1,2.1c0,0.9-0.6,1.7-1.4,2v0.5c0,0.4-0.3,0.7-0.7,0.7c-0.4,0-0.7-0.3-0.7-0.7v-1
			c0-0.4,0.3-0.7,0.7-0.7c0.4,0,0.8-0.3,0.8-0.8c0-0.4-0.3-0.8-0.8-0.8s-0.8,0.3-0.8,0.8c0,0.4-0.3,0.7-0.7,0.7
			c-0.4,0-0.7-0.3-0.7-0.7C19.4,8.9,20.4,8,21.5,8z M21.5,13.6c0.4,0,0.6,0.3,0.7,0.7c0,0.4-0.3,0.7-0.7,0.7c-0.4,0-0.6-0.3-0.7-0.7
			C20.9,13.9,21.2,13.6,21.5,13.6z"/>
	</defs>
	<clipPath id="SVGID_6_">
		<use xlink:href="#SVGID_5_"  style="overflow:visible;"/>
	</clipPath>
	<rect x="14.4" y="3" class="st2" width="14.2" height="17"/>
</g>
</svg>
