<?xml version="1.0" encoding="utf-8"?>
<!-- Generator: Adobe Illustrator 22.0.1, SVG Export Plug-In . SVG Version: 6.00 Build 0)  -->
<svg version="1.1" id="Layer_1" xmlns="http://www.w3.org/2000/svg" xmlns:xlink="http://www.w3.org/1999/xlink" x="0px" y="0px"
	 viewBox="0 0 32 32" style="enable-background:new 0 0 32 32;" xml:space="preserve">
<style type="text/css">
	.st0{clip-path:url(#SVGID_2_);fill:#FECC55;}
	.st1{clip-path:url(#SVGID_4_);fill:#FECC55;}
	.st2{clip-path:url(#SVGID_6_);fill:#BAC6D2;}
	.st3{clip-path:url(#SVGID_8_);fill:#BAC6D2;}
	.st4{clip-path:url(#SVGID_10_);fill:#78B9E5;}
	.st5{clip-path:url(#SVGID_12_);fill:#F16F70;}
	.st6{clip-path:url(#SVGID_14_);fill:#F16F70;}
	.st7{clip-path:url(#SVGID_16_);fill:#BAC6D2;}
	.st8{clip-path:url(#SVGID_18_);fill:#FECC55;}
	.st9{clip-path:url(#SVGID_20_);fill:#F16F70;}
	.st10{clip-path:url(#SVGID_22_);fill:#F16F70;}
</style>
<g>
	<defs>
		<path id="SVGID_1_" d="M4,24c1.1,0,2-0.9,2-2c0-1.1-0.9-2-2-2v-4h12v12H4V24z"/>
	</defs>
	<clipPath id="SVGID_2_">
		<use xlink:href="#SVGID_1_"  style="overflow:visible;"/>
	</clipPath>
	<rect x="-1" y="11" class="st0" width="22" height="22"/>
</g>
<g>
	<defs>
		<circle id="SVGID_3_" cx="10" cy="28" r="2"/>
	</defs>
	<clipPath id="SVGID_4_">
		<use xlink:href="#SVGID_3_"  style="overflow:visible;"/>
	</clipPath>
	<rect x="3" y="21" class="st1" width="14" height="14"/>
</g>
<g>
	<defs>
		<path id="SVGID_5_" d="M24,28c0-1.1-0.9-2-2-2c-1.1,0-2,0.9-2,2l-4,0V16l12,0v12L24,28z"/>
	</defs>
	<clipPath id="SVGID_6_">
		<use xlink:href="#SVGID_5_"  style="overflow:visible;"/>
	</clipPath>
	<rect x="11" y="11" class="st2" width="22" height="22"/>
</g>
<g>
	<defs>
		<circle id="SVGID_7_" cx="28" cy="22" r="2"/>
	</defs>
	<clipPath id="SVGID_8_">
		<use xlink:href="#SVGID_7_"  style="overflow:visible;"/>
	</clipPath>
	<rect x="21" y="15" class="st3" width="14" height="14"/>
</g>
<g>
	<defs>
		<path id="SVGID_9_" d="M20,4c0-1.1,0.9-2,2-2s2,0.9,2,2h4v4c-1.1,0-2,0.9-2,2s0.9,2,2,2v4H16V7.4V5.1V4H20z"/>
	</defs>
	<clipPath id="SVGID_10_">
		<use xlink:href="#SVGID_9_"  style="overflow:visible;"/>
	</clipPath>
	<rect x="11" y="-3" class="st4" width="22" height="24"/>
</g>
<g>
	<defs>
		<path id="SVGID_11_" d="M8,4c0,1.1,0.9,2,2,2s2-0.9,2-2h4v7.6V16H4V4H8z"/>
	</defs>
	<clipPath id="SVGID_12_">
		<use xlink:href="#SVGID_11_"  style="overflow:visible;"/>
	</clipPath>
	<rect x="-1" y="-1" class="st5" width="22" height="22"/>
</g>
<g>
	<defs>
		<circle id="SVGID_13_" cx="16" cy="10" r="2"/>
	</defs>
	<clipPath id="SVGID_14_">
		<use xlink:href="#SVGID_13_"  style="overflow:visible;"/>
	</clipPath>
	<rect x="9" y="3" class="st6" width="14" height="14"/>
</g>
<g>
	<defs>
		<circle id="SVGID_15_" cx="22" cy="16" r="2"/>
	</defs>
	<clipPath id="SVGID_16_">
		<use xlink:href="#SVGID_15_"  style="overflow:visible;"/>
	</clipPath>
	<rect x="15" y="9" class="st7" width="14" height="14"/>
</g>
<g>
	<defs>
		<circle id="SVGID_17_" cx="16" cy="22" r="2"/>
	</defs>
	<clipPath id="SVGID_18_">
		<use xlink:href="#SVGID_17_"  style="overflow:visible;"/>
	</clipPath>
	<rect x="9" y="15" class="st8" width="14" height="14"/>
</g>
<g>
	<defs>
		<circle id="SVGID_19_" cx="10" cy="16" r="2"/>
	</defs>
	<clipPath id="SVGID_20_">
		<use xlink:href="#SVGID_19_"  style="overflow:visible;"/>
	</clipPath>
	<rect x="3" y="9" class="st9" width="14" height="14"/>
</g>
<g>
	<defs>
		<circle id="SVGID_21_" cx="4" cy="10" r="2"/>
	</defs>
	<clipPath id="SVGID_22_">
		<use xlink:href="#SVGID_21_"  style="overflow:visible;"/>
	</clipPath>
	<rect x="-3" y="3" class="st10" width="14" height="14"/>
</g>
</svg>
