<?xml version="1.0" encoding="utf-8"?>
<!-- Generator: Adobe Illustrator 22.0.1, SVG Export Plug-In . SVG Version: 6.00 Build 0)  -->
<svg version="1.1" id="Layer_1" xmlns="http://www.w3.org/2000/svg" xmlns:xlink="http://www.w3.org/1999/xlink" x="0px" y="0px"
	 viewBox="0 0 32 32" style="enable-background:new 0 0 32 32;" xml:space="preserve">
<style type="text/css">
	.st0{clip-path:url(#SVGID_2_);fill:#536A81;}
	.st1{clip-path:url(#SVGID_4_);fill:#69BDFF;}
	.st2{clip-path:url(#SVGID_6_);fill:#80C7FF;}
	.st3{clip-path:url(#SVGID_8_);fill:#FECC53;}
	.st4{clip-path:url(#SVGID_10_);fill:#F06F6F;}
</style>
<g>
	<defs>
		<polygon id="SVGID_1_" points="16.1,5 6.1,12 16.1,18 26.1,12 		"/>
	</defs>
	<clipPath id="SVGID_2_">
		<use xlink:href="#SVGID_1_"  style="overflow:visible;"/>
	</clipPath>
	<rect x="1.1" class="st0" width="30.1" height="23"/>
</g>
<g>
	<defs>
		<polyline id="SVGID_3_" points="16.1,17 26.1,12 26.1,17 26.1,25 16.1,30 		"/>
	</defs>
	<clipPath id="SVGID_4_">
		<use xlink:href="#SVGID_3_"  style="overflow:visible;"/>
	</clipPath>
	<rect x="11.1" y="7" class="st1" width="20.1" height="28"/>
</g>
<g>
	<defs>
		<polyline id="SVGID_5_" points="16.1,17 6,12 6.1,17 6,25 16.1,30 		"/>
	</defs>
	<clipPath id="SVGID_6_">
		<use xlink:href="#SVGID_5_"  style="overflow:visible;"/>
	</clipPath>
	<rect x="1" y="7" class="st2" width="20.1" height="28"/>
</g>
<g>
	<defs>
		<path id="SVGID_7_" d="M6.1,12l10,5l-4,5l-10-6L6.1,12z M26.1,12l4,4l-10,6l-4-5L26.1,12z M11.1,3l4,4l-9,5l-4-4L11.1,3z M22.1,3
			l8,5l-4,4l-8-5L22.1,3z"/>
	</defs>
	<clipPath id="SVGID_8_">
		<use xlink:href="#SVGID_7_"  style="overflow:visible;"/>
	</clipPath>
	<rect x="-2.9" y="-2" class="st3" width="38" height="29"/>
</g>
<g>
	<defs>
		<polygon id="SVGID_9_" points="19.1,9 25.1,9 16.1,2 7.1,9 13.1,9 13.1,15.5 16.1,17 19.1,15.5 		"/>
	</defs>
	<clipPath id="SVGID_10_">
		<use xlink:href="#SVGID_9_"  style="overflow:visible;"/>
	</clipPath>
	<rect x="2.1" y="-3" class="st4" width="27.9" height="25"/>
</g>
</svg>
