<?xml version="1.0" encoding="utf-8"?>
<!-- Generator: Adobe Illustrator 22.0.1, SVG Export Plug-In . SVG Version: 6.00 Build 0)  -->
<svg version="1.1" id="Layer_1" xmlns="http://www.w3.org/2000/svg" xmlns:xlink="http://www.w3.org/1999/xlink" x="0px" y="0px"
	 viewBox="0 0 32 32" style="enable-background:new 0 0 32 32;" xml:space="preserve">
<style type="text/css">
	.st0{fill:#FFCD54;}
	.st1{fill:#536A81;}
</style>
<title>Illustration / Smile</title>
<desc>Created with Sketch.</desc>
<g id="Illustration-_x2F_-Smile">
	<circle id="Oval" class="st0" cx="16" cy="16" r="14"/>
	<path id="Shape" class="st1" d="M13.6,11.7c0,0.4-0.3,0.8-0.8,0.8s-0.8-0.3-0.8-0.8c0-0.7-0.6-1.2-1.2-1.2s-1.2,0.6-1.2,1.2
		c0,0.4-0.3,0.8-0.8,0.8s-0.8-0.3-0.8-0.8c0-1.5,1.2-2.8,2.8-2.8S13.6,10.2,13.6,11.7z"/>
	<path id="Shape_1_" class="st1" d="M23.9,11.7c0,0.4-0.3,0.8-0.8,0.8s-0.8-0.3-0.8-0.8c0-0.7-0.6-1.2-1.2-1.2s-1.2,0.6-1.2,1.2
		c0,0.4-0.3,0.8-0.8,0.8s-0.8-0.3-0.8-0.8c0-1.5,1.2-2.8,2.8-2.8S23.9,10.2,23.9,11.7z"/>
	<path id="Path" class="st1" d="M6.7,17.5c0-0.5,0.4-0.9,0.9-0.9s0.9,0.4,0.9,0.9c0,3.7,3.4,6.7,7.6,6.7s7.6-3,7.6-6.7
		c0-0.5,0.4-0.9,0.9-0.9s0.9,0.4,0.9,0.9c0,4.7-4.2,8.4-9.3,8.4S6.7,22.1,6.7,17.5z"/>
</g>
</svg>
