<?xml version="1.0" encoding="utf-8"?>
<!-- Generator: Adobe Illustrator 22.0.1, SVG Export Plug-In . SVG Version: 6.00 Build 0)  -->
<svg version="1.1" id="Layer_1" xmlns="http://www.w3.org/2000/svg" xmlns:xlink="http://www.w3.org/1999/xlink" x="0px" y="0px"
	 viewBox="0 0 32 32" style="enable-background:new 0 0 32 32;" xml:space="preserve">
<style type="text/css">
	.st0{clip-path:url(#SVGID_2_);fill:#69BDFF;}
	.st1{clip-path:url(#SVGID_4_);fill:#FECC53;}
	.st2{clip-path:url(#SVGID_6_);fill:#69BDFF;}
	.st3{clip-path:url(#SVGID_8_);fill:#F06F6F;}
	.st4{clip-path:url(#SVGID_10_);fill:#FFCD54;}
	.st5{clip-path:url(#SVGID_12_);fill:#DCE9F4;}
</style>
<g>
	<defs>
		<path id="SVGID_1_" d="M15.7,17.9h0.6c2.8,0,5.1,2.3,5.1,5.1v2.4c0,1.5-1.2,2.7-2.7,2.7h-5.4c-1.5,0-2.7-1.2-2.7-2.7v-2.4
			C10.7,20.1,12.9,17.9,15.7,17.9z"/>
	</defs>
	<clipPath id="SVGID_2_">
		<use xlink:href="#SVGID_1_"  style="overflow:visible;"/>
	</clipPath>
	<rect x="5.7" y="12.9" class="st0" width="20.7" height="20.1"/>
</g>
<g>
	<defs>
		<path id="SVGID_3_" d="M26.2,9.7h0.3c1.9,0,3.5,1.6,3.5,3.5v2.2c0,0.7-0.6,1.3-1.3,1.3H24c-0.7,0-1.3-0.6-1.3-1.3v-2.2
			C22.7,11.2,24.2,9.7,26.2,9.7z"/>
	</defs>
	<clipPath id="SVGID_4_">
		<use xlink:href="#SVGID_3_"  style="overflow:visible;"/>
	</clipPath>
	<rect x="17.7" y="4.7" class="st1" width="17.3" height="17"/>
</g>
<g>
	<defs>
		<circle id="SVGID_5_" cx="26.3" cy="7.3" r="3.3"/>
	</defs>
	<clipPath id="SVGID_6_">
		<use xlink:href="#SVGID_5_"  style="overflow:visible;"/>
	</clipPath>
	<rect x="18" y="-1" class="st2" width="16.6" height="16.6"/>
</g>
<g>
	<defs>
		<path id="SVGID_7_" d="M5.5,9.7h0.3c1.9,0,3.5,1.6,3.5,3.5v2.2c0,0.7-0.6,1.3-1.3,1.3H3.3c-0.7,0-1.3-0.6-1.3-1.3v-2.2
			C2,11.2,3.6,9.7,5.5,9.7z"/>
	</defs>
	<clipPath id="SVGID_8_">
		<use xlink:href="#SVGID_7_"  style="overflow:visible;"/>
	</clipPath>
	<rect x="-3" y="4.7" class="st3" width="17.3" height="17"/>
</g>
<g>
	<defs>
		<circle id="SVGID_9_" cx="5.7" cy="7.3" r="3.3"/>
	</defs>
	<clipPath id="SVGID_10_">
		<use xlink:href="#SVGID_9_"  style="overflow:visible;"/>
	</clipPath>
	<rect x="-2.7" y="-1" class="st4" width="16.6" height="16.6"/>
</g>
<g>
	<defs>
		<circle id="SVGID_11_" cx="16" cy="13.5" r="5.3"/>
	</defs>
	<clipPath id="SVGID_12_">
		<use xlink:href="#SVGID_11_"  style="overflow:visible;"/>
	</clipPath>
	<rect x="5.7" y="3.1" class="st5" width="20.7" height="20.7"/>
</g>
</svg>
