<?xml version="1.0" encoding="utf-8"?>
<!-- Generator: Adobe Illustrator 22.0.1, SVG Export Plug-In . SVG Version: 6.00 Build 0)  -->
<svg version="1.1" id="Layer_1" xmlns="http://www.w3.org/2000/svg" xmlns:xlink="http://www.w3.org/1999/xlink" x="0px" y="0px"
	 viewBox="0 0 32 32" style="enable-background:new 0 0 32 32;" xml:space="preserve">
<style type="text/css">
	.st0{clip-path:url(#SVGID_2_);fill:#80C7FF;}
	.st1{clip-path:url(#SVGID_4_);fill:#004982;}
</style>
<g>
	<defs>
		<path id="SVGID_1_" d="M7.4,5.2C9.6,5.1,12.5,5,16.1,5c3.5,0,6.4,0,8.6,0.1c3,0.1,5.4,2.5,5.4,5.5l0,10.7c0,2.9-2.3,5.4-5.3,5.5
			C22.2,27,19.1,27,15.3,27c-3.2,0-5.8-0.1-8-0.2l0,0c-3-0.1-5.3-2.6-5.3-5.5l0-10.7C2,7.7,4.4,5.3,7.4,5.2z"/>
	</defs>
	<clipPath id="SVGID_2_">
		<use xlink:href="#SVGID_1_"  style="overflow:visible;"/>
	</clipPath>
	<rect x="-3" y="0.1" class="st0" width="38" height="31.9"/>
</g>
<g>
	<defs>
		<path id="SVGID_3_" d="M13.6,11.5V20c0,0.4,0.3,0.6,0.7,0.6c0.2,0,0.3-0.1,0.4-0.1l5.3-4.2c0.3-0.2,0.3-0.6,0.1-0.9
			c0,0-0.1-0.1-0.1-0.1L14.6,11c-0.3-0.2-0.7-0.2-0.9,0.1C13.6,11.2,13.6,11.4,13.6,11.5z"/>
	</defs>
	<clipPath id="SVGID_4_">
		<use xlink:href="#SVGID_3_"  style="overflow:visible;"/>
	</clipPath>
	<rect x="8.6" y="6" class="st1" width="16.6" height="19.6"/>
</g>
</svg>
