<?xml version="1.0" encoding="utf-8"?>
<!-- Generator: Adobe Illustrator 22.0.1, SVG Export Plug-In . SVG Version: 6.00 Build 0)  -->
<svg version="1.1" id="Layer_1" xmlns="http://www.w3.org/2000/svg" xmlns:xlink="http://www.w3.org/1999/xlink" x="0px" y="0px"
	 viewBox="0 0 32 32" style="enable-background:new 0 0 32 32;" xml:space="preserve">
<style type="text/css">
	.st0{clip-path:url(#SVGID_2_);fill:#D7DDE4;}
	.st1{clip-path:url(#SVGID_4_);fill:#78B9E5;}
	.st2{clip-path:url(#SVGID_6_);fill:#546B82;}
	.st3{clip-path:url(#SVGID_8_);fill:#F2F4F6;}
	.st4{clip-path:url(#SVGID_10_);fill:#F2F4F6;}
	.st5{clip-path:url(#SVGID_12_);fill:#FFCE56;}
	.st6{clip-path:url(#SVGID_14_);fill:#FFCE56;}
	.st7{clip-path:url(#SVGID_16_);fill:#5BA2D9;}
	.st8{clip-path:url(#SVGID_18_);fill:#5BA2D9;}
	.st9{clip-path:url(#SVGID_20_);fill:#FFCE56;}
	.st10{clip-path:url(#SVGID_22_);fill:#FFCE56;}
	.st11{clip-path:url(#SVGID_24_);fill:#FFCE56;}
	.st12{clip-path:url(#SVGID_26_);fill:#FFCE56;}
	.st13{clip-path:url(#SVGID_28_);fill:#FFCE56;}
	.st14{clip-path:url(#SVGID_30_);fill:#FFCE56;}
</style>
<g>
	<g>
		<defs>
			<path id="SVGID_1_" d="M5,7h15c1.1,0,2,0.9,2,2v19c0,1.1-0.9,2-2,2H5c-1.1,0-2-0.9-2-2V9C3,7.9,3.9,7,5,7z"/>
		</defs>
		<clipPath id="SVGID_2_">
			<use xlink:href="#SVGID_1_"  style="overflow:visible;"/>
		</clipPath>
		<rect x="-2" y="2" class="st0" width="29" height="33"/>
	</g>
</g>
<g>
	<g>
		<defs>
			<path id="SVGID_3_" d="M12.5,6.7c0.7,0,1.3-0.6,1.3-1.3s-0.6-1.3-1.3-1.3s-1.3,0.6-1.3,1.3C11.1,6.1,11.7,6.7,12.5,6.7z M9,5
				c0.2-1.7,1.7-3,3.5-3s3.2,1.3,3.5,3h1.2c1,0,1.8,1,1.8,2.1V9H6V7.1C6,6,6.8,5,7.8,5H9z"/>
		</defs>
		<clipPath id="SVGID_4_">
			<use xlink:href="#SVGID_3_"  style="overflow:visible;"/>
		</clipPath>
		<rect x="1" y="-2.9" class="st1" width="23" height="16.9"/>
	</g>
</g>
<g>
	<g>
		<defs>
			<path id="SVGID_5_" d="M6.7,24.8c-0.3,0-0.6-0.2-0.6-0.6s0.2-0.6,0.6-0.6c0.3,0,0.6,0.2,0.6,0.6S7,24.8,6.7,24.8z M9.1,24.8
				c-0.3,0-0.5-0.2-0.5-0.5s0.2-0.5,0.5-0.5h4.4c0.3,0,0.5,0.2,0.5,0.5s-0.2,0.5-0.5,0.5H9.1z M6.7,21c-0.3,0-0.6-0.2-0.6-0.6
				c0-0.3,0.2-0.6,0.6-0.6c0.3,0,0.6,0.2,0.6,0.6C7.2,20.7,7,21,6.7,21z M9.1,20.9c-0.3,0-0.5-0.2-0.5-0.5s0.2-0.5,0.5-0.5h4.4
				c0.3,0,0.5,0.2,0.5,0.5s-0.2,0.5-0.5,0.5H9.1z M6.7,17.1c-0.3,0-0.6-0.2-0.6-0.6c0-0.3,0.2-0.6,0.6-0.6c0.3,0,0.6,0.2,0.6,0.6
				C7.2,16.9,7,17.1,6.7,17.1z M9.1,17.1c-0.3,0-0.5-0.2-0.5-0.5s0.2-0.5,0.5-0.5h4.4c0.3,0,0.5,0.2,0.5,0.5s-0.2,0.5-0.5,0.5H9.1z
				 M6.7,13.3c-0.3,0-0.6-0.2-0.6-0.6c0-0.3,0.2-0.6,0.6-0.6c0.3,0,0.6,0.2,0.6,0.6C7.2,13.1,7,13.3,6.7,13.3z M9.1,13.3
				c-0.3,0-0.5-0.2-0.5-0.5s0.2-0.5,0.5-0.5h4.4c0.3,0,0.5,0.2,0.5,0.5s-0.2,0.5-0.5,0.5H9.1z"/>
		</defs>
		<clipPath id="SVGID_6_">
			<use xlink:href="#SVGID_5_"  style="overflow:visible;"/>
		</clipPath>
		<rect x="1.1" y="7.2" class="st2" width="17.8" height="22.6"/>
	</g>
</g>
<g>
	<g>
		<defs>
			<path id="SVGID_7_" d="M23.3,20.4l-2.4,1.5C19.7,22.7,19,24,19,25.4v3.1h8.3v-3.2c0-1.4-0.7-2.6-1.8-3.4L23.3,20.4z"/>
		</defs>
		<clipPath id="SVGID_8_">
			<use xlink:href="#SVGID_7_"  style="overflow:visible;"/>
		</clipPath>
		<rect x="14" y="15.4" class="st3" width="18.3" height="18.1"/>
	</g>
</g>
<g>
	<g>
		<defs>
			<rect id="SVGID_9_" x="19" y="12.4" width="8.3" height="3.6"/>
		</defs>
		<clipPath id="SVGID_10_">
			<use xlink:href="#SVGID_9_"  style="overflow:visible;"/>
		</clipPath>
		<rect x="14" y="7.3" class="st4" width="18.3" height="13.9"/>
	</g>
</g>
<g>
	<g>
		<defs>
			<path id="SVGID_11_" d="M19,16h8.3c0,1.2-0.6,2.3-1.6,2.9L23.8,20c-0.3,0.2-0.7,0.2-1.1,0l-2.1-1.2C19.6,18.2,19,17.2,19,16z"/>
		</defs>
		<clipPath id="SVGID_12_">
			<use xlink:href="#SVGID_11_"  style="overflow:visible;"/>
		</clipPath>
		<rect x="13.9" y="11" class="st5" width="18.4" height="14.2"/>
	</g>
</g>
<g>
	<g>
		<defs>
			<path id="SVGID_13_" d="M27.3,28.5H19c0-1.1,0.7-2.2,1.8-2.6l0.2-0.1c1.3-0.5,2.7-0.5,4,0l0.4,0.2C26.6,26.3,27.3,27.3,27.3,28.5
				z"/>
		</defs>
		<clipPath id="SVGID_14_">
			<use xlink:href="#SVGID_13_"  style="overflow:visible;"/>
		</clipPath>
		<rect x="14" y="20.4" class="st6" width="18.2" height="13.1"/>
	</g>
</g>
<g>
	<g>
		<defs>
			<path id="SVGID_15_" d="M18,10.4h10c0.6,0,1,0.5,1,1c0,0.6-0.5,1-1,1H18c-0.6,0-1-0.5-1-1C17,10.8,17.4,10.4,18,10.4z"/>
		</defs>
		<clipPath id="SVGID_16_">
			<use xlink:href="#SVGID_15_"  style="overflow:visible;"/>
		</clipPath>
		<rect x="12" y="5.4" class="st7" width="22" height="12.1"/>
	</g>
</g>
<g>
	<g>
		<defs>
			<path id="SVGID_17_" d="M18,28h10c0.6,0,1,0.5,1,1s-0.5,1-1,1H18c-0.6,0-1-0.5-1-1S17.4,28,18,28z"/>
		</defs>
		<clipPath id="SVGID_18_">
			<use xlink:href="#SVGID_17_"  style="overflow:visible;"/>
		</clipPath>
		<rect x="12" y="23" class="st8" width="22" height="12.1"/>
	</g>
</g>
<g>
	<g>
		<defs>
			<path id="SVGID_19_" d="M22.4,19.8c0.4,0.2,0.6,0.6,0.6,1l0,0c0,0,0,0.1,0.1,0.1c0,0,0,0,0.1,0v-0.2c0-0.1,0.1-0.1,0.1-0.1
				l0.1,0.1c0,0.1,0,0.2,0,0.1c0-0.4,0.2-0.7,0.7-1H22.4z"/>
		</defs>
		<clipPath id="SVGID_20_">
			<use xlink:href="#SVGID_19_"  style="overflow:visible;"/>
		</clipPath>
		<rect x="17.4" y="14.8" class="st9" width="11.7" height="11.1"/>
	</g>
</g>
<g>
	<g>
		<defs>
			<circle id="SVGID_21_" cx="23.8" cy="21.5" r="0.2"/>
		</defs>
		<clipPath id="SVGID_22_">
			<use xlink:href="#SVGID_21_"  style="overflow:visible;"/>
		</clipPath>
		<rect x="18.6" y="16.3" class="st10" width="10.5" height="10.5"/>
	</g>
</g>
<g>
	<g>
		<defs>
			<circle id="SVGID_23_" cx="23.1" cy="23.8" r="0.2"/>
		</defs>
		<clipPath id="SVGID_24_">
			<use xlink:href="#SVGID_23_"  style="overflow:visible;"/>
		</clipPath>
		<rect x="17.9" y="18.5" class="st11" width="10.5" height="10.5"/>
	</g>
</g>
<g>
	<g>
		<defs>
			<circle id="SVGID_25_" cx="23.7" cy="25.2" r="0.5"/>
		</defs>
		<clipPath id="SVGID_26_">
			<use xlink:href="#SVGID_25_"  style="overflow:visible;"/>
		</clipPath>
		<rect x="18.3" y="19.8" class="st12" width="10.9" height="10.9"/>
	</g>
</g>
<g>
	<g>
		<defs>
			<circle id="SVGID_27_" cx="22.7" cy="21.8" r="0.4"/>
		</defs>
		<clipPath id="SVGID_28_">
			<use xlink:href="#SVGID_27_"  style="overflow:visible;"/>
		</clipPath>
		<rect x="17.4" y="16.4" class="st13" width="10.7" height="10.7"/>
	</g>
</g>
<g>
	<g>
		<defs>
			<circle id="SVGID_29_" cx="23.2" cy="20.9" r="0.4"/>
		</defs>
		<clipPath id="SVGID_30_">
			<use xlink:href="#SVGID_29_"  style="overflow:visible;"/>
		</clipPath>
		<rect x="17.9" y="15.5" class="st14" width="10.7" height="10.7"/>
	</g>
</g>
</svg>
