<?xml version="1.0" encoding="utf-8"?>
<!-- Generator: Adobe Illustrator 22.0.1, SVG Export Plug-In . SVG Version: 6.00 Build 0)  -->
<svg version="1.1" id="Layer_1" xmlns="http://www.w3.org/2000/svg" xmlns:xlink="http://www.w3.org/1999/xlink" x="0px" y="0px"
	 viewBox="0 0 234.1 214.1" style="enable-background:new 0 0 234.1 214.1;" xml:space="preserve">
<style type="text/css">
	.st0{fill:#FFFFFF;}
	.st1{fill:#50A4DD;}
	.st2{fill:#FF0000;}
	.st3{fill:#EBF2FF;}
	.st4{fill:#CCD8F2;}
	.st5{fill:#172E55;}
	.st6{fill:#19243F;}
</style>
<circle class="st0" cx="117.4" cy="105.1" r="85.9"/>
<circle class="st1" cx="118.5" cy="104.2" r="76.3"/>
<path class="st2" d="M119.5,81.4c0,0,9.4,0,16.8,7.2c7.4,7.2,5,17.1,5,17.1s-2,2-13.9,6.7s-22.8-1.2-22.8-1.2s-0.5-12.9,5-20.8
	S119.5,81.4,119.5,81.4z"/>
<path class="st3" d="M143,103.9l44.1,6.9c0,0-14.6,22.5-46.6,29.2c-31.9,6.7-61.7-9.2-61.7-9.2l23.8-17.8c0,0,12.4,3,24.8-0.7
	C139.8,108.7,143,103.9,143,103.9z"/>
<path class="st4" d="M120.4,40.8c0,0,30.5-0.2,47.3,20.3s17.8,26,18.6,32.2c0.7,6.2,4.1,17.9,4.1,17.9l-47.5-7.3c0,0,1-6.9-6.7-15.4
	S119,79.2,119,79.2L120.4,40.8z"/>
<path class="st4" d="M120.4,40.8c0,0-24.8,6.9-35.7,40.6s-5.9,49.5-5.9,49.5l25.8-19.8c0,0-2-11.9,5-20.8s9.9-8.9,9.9-8.9
	L120.4,40.8z"/>
<path class="st5" d="M190.5,108.2c0-38.8-31.6-70.4-70.4-70.4c-1.1,0-2.8,0.3-3.1,0.3l-0.4,0.1l-0.4,0.2C99,47,86.1,64,78.9,87.4
	c-4.8,15.7-5.8,31.6-2.9,45.9l0.7-0.1l-0.1,0.2c10.5,5.3,26.9,11.6,45.1,11.6c28.9,0,55.7-13.1,68.4-33.4l-0.6-0.4l1,0
	C190.5,110.2,190.5,109.2,190.5,108.2z M185.1,107l-40.2-5.1c-0.6-12.6-10.3-22.8-22.6-24.2V43.3C156.7,44.4,184.4,72.4,185.1,107z
	 M120,83c10.8,0.4,19.4,9.2,19.4,20.1c0,0.3,0,0.7,0,1c-10,9-26.3,6.9-32,5.8C108.1,91.3,117.6,84.4,120,83z M84.1,89
	c6.4-21.1,17.7-36.5,32.6-44.7v34.3c-3.8,2.5-14.3,11.1-14.8,31.9l-21.4,16.7C78.9,115.1,80.2,102,84.1,89z M121.7,139.6
	c-14.3,0-27.5-4.2-37.3-8.5l20.6-16c2.2,0.5,7.1,1.4,13.1,1.4c8.3,0,18.5-1.8,25.9-9.2l39.1,5C170.5,129,147,139.6,121.7,139.6z"/>
<path class="st6" d="M190.5,109.3l-0.1,2c0,0-1.9,3.5-5.8,7.7c-3.8,4.1,4.1-9.7,4.1-9.7L190.5,109.3z"/>
<ellipse transform="matrix(0.5288 -0.8487 0.8487 0.5288 -16.4915 150.4517)" class="st0" cx="127.3" cy="90.1" rx="2.7" ry="5.8"/>
<path class="st5" d="M118,193.1c-48.7,0-88.3-39.6-88.3-88.3c0-48.7,39.6-88.3,88.3-88.3c48.7,0,88.3,39.6,88.3,88.3
	C206.3,153.5,166.7,193.1,118,193.1z M118,22c-45.6,0-82.8,37.1-82.8,82.8s37.1,82.8,82.8,82.8s82.8-37.1,82.8-82.8S163.7,22,118,22
	z"/>
</svg>
