<?xml version="1.0" encoding="utf-8"?>
<!-- Generator: Adobe Illustrator 22.0.1, SVG Export Plug-In . SVG Version: 6.00 Build 0)  -->
<svg version="1.1" id="Layer_1" xmlns="http://www.w3.org/2000/svg" xmlns:xlink="http://www.w3.org/1999/xlink" x="0px" y="0px"
	 viewBox="0 0 48 48" style="enable-background:new 0 0 48 48;" xml:space="preserve">
<style type="text/css">
	.st0{fill:#FFCD54;}
	.st1{opacity:0.1917;fill:#222B42;enable-background:new    ;}
	.st2{fill:#333D56;}
</style>
<title>Illustration / Envelope</title>
<desc>Created with Sketch.</desc>
<g id="Illustration-_x2F_-Envelope">
	<path id="Combined-Shape" class="st0" d="M10.1,24.9l15.4-3.2l2.3-13.4l0.7-0.6l10.4,10.2c0,0,0,0,0,0c0.8,0.8,0.8,2.1,0,2.8
		L23,36.4c-0.8,0.8-2,0.8-2.8,0l-11-10.6L10.1,24.9z"/>
	<polygon id="Path-55" class="st0" points="27.5,8.3 11,24.3 25,21.6 	"/>
	<polygon id="Path-57" class="st1" points="31,6.6 28.5,25 8.7,28.8 6.8,26.5 25.5,22.5 28.5,5.2 	"/>
	<path id="Combined-Shape_1_" class="st2" d="M8,26.7c0.1,0.4,0.3,0.8,0.6,1.1l11.3,11.3c0.8,0.8,2,0.8,2.8,0l18.4-18.4
		c0.8-0.8,0.8-2,0-2.8L29.8,6.6c-0.2-0.2-0.5-0.4-0.7-0.5L26.4,23L8,26.7z M27,6.6C27,6.6,27,6.6,27,6.6L9.1,24.5l15.5-3.1
		C24.6,21.4,27,6.6,27,6.6z M13.5,35.6L6,43.1c-0.4,0.4-1,0.4-1.4,0c-0.4-0.4-0.4-1,0-1.4l7.5-7.5L10,32l-4.4,4.4
		c-0.3,0.3-0.9,0.3-1.3-0.1s-0.4-1-0.1-1.3l4.4-4.4l-1.4-1.4c-1.6-1.6-1.6-4.1,0-5.7L25.5,5.2c1.6-1.6,4.1-1.6,5.7,0l11.3,11.3
		c1.6,1.6,1.6,4.1,0,5.7L24.1,40.5c-1.6,1.6-4.1,1.6-5.7,0L17,39.1l-4.3,4.3c-0.4,0.4-1,0.4-1.4,0s-0.4-1,0-1.4l4.3-4.3L13.5,35.6z"
		/>
</g>
</svg>
