<!-- Generated by IcoMoon.io -->
<svg version="1.1" xmlns="http://www.w3.org/2000/svg" width="256" height="256" viewBox="0 0 256 256">
<title>alarm</title>
<path fill="#333" d="M128 243.098c-51.677 0-93.958-42.281-93.958-93.958s42.281-93.958 93.958-93.958 93.958 42.281 93.958 93.958-42.281 93.958-93.958 93.958zM136.221 155.013v-44.63c0-7.047-4.698-11.745-11.745-11.745s-11.745 4.698-11.745 11.745v46.979c0 1.175 0 1.175 0 2.349 0 3.524 1.175 5.872 3.523 8.221l24.664 24.664c4.698 4.698 11.745 4.698 16.443 0s4.698-11.745 0-16.443l-21.141-21.141zM176.153 15.251c5.872-5.872 15.268-5.872 21.141 0l44.63 44.63c5.872 5.872 5.872 15.268 0 21.141s-15.268 5.872-21.141 0l-44.63-44.63c-5.872-7.047-5.872-15.268 0-21.14zM79.847 15.251c5.872 5.872 5.872 15.268 0 21.14l-43.456 43.456c-5.872 5.872-15.268 5.872-21.14 0s-5.872-15.268 0-21.141l44.63-44.63c4.698-4.698 14.094-4.698 19.966 1.175z"></path>
</svg>
