<!-- Generated by IcoMoon.io -->
<svg version="1.1" xmlns="http://www.w3.org/2000/svg" width="256" height="256" viewBox="0 0 256 256">
<title>alpha-o</title>
<path fill="#333" d="M128 43.733l-84.267 84.267 84.267 84.267 84.267-84.267-84.267-84.267zM142.933 28.8l84.267 84.267c8.533 8.533 8.533 21.333 0 29.867l-84.267 84.267c-8.533 8.533-21.333 8.533-29.867 0l-84.267-84.267c-8.533-8.533-8.533-21.333 0-29.867l84.267-84.267c8.533-8.533 21.333-8.533 29.867 0zM172.8 151.467c1.067 2.133 1.067 3.2 1.067 4.267 0 3.2-1.067 5.333-3.2 7.467s-4.267 3.2-7.467 3.2c-2.133 0-3.2 0-5.333-1.067s-3.2-2.133-3.2-4.267l-5.333-12.8h-40.533l-6.4 11.733c-1.067 2.133-2.133 3.2-4.267 4.267s-3.2 1.067-5.333 1.067-5.333-1.067-7.467-3.2c-2.133-2.133-3.2-4.267-3.2-7.467 0-1.067 0-3.2 1.067-4.267l33.067-69.333c1.067-2.133 2.133-4.267 4.267-5.333 2.133 0 5.333-1.067 7.467-1.067s4.267 1.067 7.467 2.133c2.133 1.067 4.267 3.2 5.333 5.333l32 69.333zM116.267 129.067h24.533l-12.8-28.8-11.733 28.8z"></path>
</svg>
