<!-- Generated by IcoMoon.io -->
<svg version="1.1" xmlns="http://www.w3.org/2000/svg" width="256" height="256" viewBox="0 0 256 256">
<title>angle-up</title>
<path fill="#333" d="M190.243 182.672l-61.51-70.297-61.51 68.832c-5.858 5.858-14.645 7.322-20.504 1.465 0 0-1.465-1.465-1.465-1.465v0c-5.858-7.322-5.858-17.575 0-24.897l71.761-82.013c5.858-5.858 14.646-7.322 20.503-1.465 0 0 1.465 1.465 1.465 1.465l71.761 82.013c5.858 7.322 5.858 17.575 0 24.897v0c-4.393 7.322-13.18 7.322-20.504 1.465 0 0 0 0 0 0z"></path>
</svg>
