<!-- Generated by IcoMoon.io -->
<svg version="1.1" xmlns="http://www.w3.org/2000/svg" width="256" height="256" viewBox="0 0 256 256">
<title>angle-left</title>
<path fill="#333" d="M177.858 71.238l-64.108 56.094 62.771 56.094c5.342 5.342 6.678 13.356 1.336 18.698 0 0-1.336 1.336-1.336 1.336v0c-6.678 5.342-16.027 5.342-22.704 0l-74.792-65.444c-5.342-5.342-6.678-13.356-1.336-18.698 0 0 1.336-1.336 1.336-1.336l74.792-65.444c6.678-5.342 16.027-5.342 22.704 0v0c6.678 4.007 6.678 12.020 1.336 18.698 0 0 0 0 0 0z"></path>
</svg>
