<!-- Generated by IcoMoon.io -->
<svg version="1.1" xmlns="http://www.w3.org/2000/svg" width="256" height="256" viewBox="0 0 256 256">
<title>app-close</title>
<path fill="#333" d="M64 21.333h128c11.733 0 21.333 9.6 21.333 21.333v170.667c0 11.733-9.6 21.333-21.333 21.333h-128c-11.733 0-21.333-9.6-21.333-21.333v-170.667c0-11.733 9.6-21.333 21.333-21.333zM174.933 74.667l13.867-13.867c4.267-4.267 4.267-10.667 0-13.867s-10.667-4.267-13.867 0l-14.933 12.8-13.867-13.867c-4.267-4.267-10.667-4.267-13.867 0s-4.267 10.667 0 13.867l13.867 14.933-13.867 13.867c-4.267 4.267-4.267 10.667 0 13.867s10.667 4.267 13.867 0l13.867-13.867 13.867 13.867c4.267 4.267 10.667 4.267 13.867 0s4.267-10.667 0-13.867l-12.8-13.867z"></path>
</svg>
