<!-- Generated by IcoMoon.io -->
<svg version="1.1" xmlns="http://www.w3.org/2000/svg" width="256" height="256" viewBox="0 0 256 256">
<title>beta-feedback</title>
<path fill="#333" d="M97.067 198.4l-54.4 36.267 8.533-59.733c-18.133-16-29.867-38.4-29.867-62.933 0-50.133 48-90.667 106.667-90.667s106.667 40.533 106.667 90.667-46.933 90.667-106.667 90.667c-10.667 0-21.333-1.067-30.933-4.267zM158.933 109.867v0c5.333-2.133 9.6-5.333 11.733-9.6 3.2-4.267 4.267-8.533 4.267-14.933 0-8.533-3.2-14.933-9.6-20.267s-14.933-7.467-25.6-7.467h-38.4c-4.267 0-7.467 1.067-9.6 3.2-2.133 3.2-3.2 6.4-3.2 10.667v81.067c0 4.267 1.067 7.467 3.2 9.6s5.333 3.2 9.6 3.2h39.467c7.467 0 13.867-1.067 19.2-3.2s9.6-5.333 12.8-10.667c3.2-4.267 4.267-9.6 4.267-14.933 0-6.4-2.133-11.733-5.333-17.067-2.133-4.267-6.4-7.467-12.8-9.6zM109.867 101.333v-21.333h24.533c6.4 0 10.667 1.067 13.867 2.133s4.267 4.267 4.267 8.533c0 3.2-1.067 6.4-4.267 7.467-3.2 2.133-7.467 2.133-13.867 2.133h-24.533zM109.867 144v-21.333h24.533c6.4 0 10.667 1.067 13.867 2.133 3.2 2.133 4.267 4.267 4.267 8.533 0 3.2-1.067 6.4-4.267 7.467-3.2 2.133-7.467 2.133-13.867 2.133h-24.533z"></path>
</svg>
