<!-- Generated by IcoMoon.io -->
<svg version="1.1" xmlns="http://www.w3.org/2000/svg" width="256" height="256" viewBox="0 0 256 256">
<title>clock-o</title>
<path fill="#333" d="M128 213.333c46.933 0 85.333-38.4 85.333-85.333s-38.4-85.333-85.333-85.333-85.333 38.4-85.333 85.333 38.4 85.333 85.333 85.333zM128 234.667c-58.667 0-106.667-48-106.667-106.667s48-106.667 106.667-106.667 106.667 48 106.667 106.667-48 106.667-106.667 106.667zM132.267 134.4l40.533-10.667c5.333-1.067 11.733 2.133 12.8 7.467s-2.133 11.733-7.467 12.8l-53.333 13.867c-3.2 1.067-6.4 0-8.533-1.067-3.2-2.133-5.333-5.333-5.333-9.6v-64c0-6.4 4.267-10.667 10.667-10.667s10.667 4.267 10.667 10.667v51.2z"></path>
</svg>
