<!-- Generated by IcoMoon.io -->
<svg version="1.1" xmlns="http://www.w3.org/2000/svg" width="256" height="256" viewBox="0 0 256 256">
<title>close-circle</title>
<path fill="#333" d="M128 234.667c-58.667 0-106.667-48-106.667-106.667s48-106.667 106.667-106.667 106.667 48 106.667 106.667-48 106.667-106.667 106.667zM142.933 128l34.133-34.133c4.267-4.267 4.267-10.667 0-14.933s-10.667-4.267-14.933 0l-34.133 34.133-34.133-34.133c-4.267-4.267-10.667-4.267-14.933 0s-4.267 10.667 0 14.933l34.133 34.133-34.133 34.133c-4.267 4.267-4.267 10.667 0 14.933s10.667 4.267 14.933 0l34.133-34.133 34.133 34.133c4.267 4.267 10.667 4.267 14.933 0s4.267-10.667 0-14.933l-34.133-34.133z"></path>
</svg>
