<!-- Generated by IcoMoon.io -->
<svg version="1.1" xmlns="http://www.w3.org/2000/svg" width="256" height="256" viewBox="0 0 256 256">
<title>dot-circle-o</title>
<path fill="#333" d="M128 234.667c-58.91 0-106.667-47.756-106.667-106.667s47.756-106.667 106.667-106.667c58.91 0 106.667 47.756 106.667 106.667s-47.756 106.667-106.667 106.667zM128 213.333c47.128 0 85.333-38.205 85.333-85.333s-38.205-85.333-85.333-85.333c-47.128 0-85.333 38.205-85.333 85.333s38.205 85.333 85.333 85.333zM128 170.667c-23.564 0-42.667-19.102-42.667-42.667s19.102-42.667 42.667-42.667c23.564 0 42.667 19.102 42.667 42.667s-19.102 42.667-42.667 42.667zM128 149.333c11.782 0 21.333-9.551 21.333-21.333s-9.551-21.333-21.333-21.333c-11.782 0-21.333 9.551-21.333 21.333s9.551 21.333 21.333 21.333z"></path>
</svg>
