<!-- Generated by IcoMoon.io -->
<svg version="1.1" xmlns="http://www.w3.org/2000/svg" width="256" height="256" viewBox="0 0 256 256">
<title>employee</title>
<path fill="#333" d="M96 64v-26.667c0-8.533 6.4-16 16-16h32c8.533 0 16 7.467 16 16v26.667h53.333c11.733 0 21.333 9.6 21.333 21.333v128c0 11.733-9.6 21.333-21.333 21.333h-170.667c-11.733 0-21.333-9.6-21.333-21.333v-128c0-11.733 9.6-21.333 21.333-21.333h53.333zM128 140.8c11.733 0 22.4-9.6 22.4-22.4s-10.667-21.333-22.4-21.333-22.4 9.6-22.4 21.333 10.667 22.4 22.4 22.4zM128 156.8c-26.667 0-40.533 8.533-43.733 24.533 0 0 0 1.067 0 1.067 0 5.333 4.267 8.533 8.533 8.533h69.333c0 0 1.067 0 1.067 0 4.267-1.067 8.533-5.333 7.467-9.6v0c-2.133-16-16-24.533-42.667-24.533z"></path>
</svg>
