<!-- Generated by IcoMoon.io -->
<svg version="1.1" xmlns="http://www.w3.org/2000/svg" width="256" height="256" viewBox="0 0 256 256">
<title>employee-o</title>
<path fill="#333" d="M106.667 42.667v42.667h-64v128h170.667v-128h-64v-42.667h-42.667zM85.333 64v-21.333c0-11.733 9.6-21.333 21.333-21.333h42.667c11.733 0 21.333 9.6 21.333 21.333v21.333h42.667c11.733 0 21.333 9.6 21.333 21.333v128c0 11.733-9.6 21.333-21.333 21.333h-170.667c-11.733 0-21.333-9.6-21.333-21.333v-128c0-11.733 9.6-21.333 21.333-21.333h42.667zM128 149.333c-11.733 0-21.333-9.6-21.333-21.333s9.6-21.333 21.333-21.333 21.333 9.6 21.333 21.333-9.6 21.333-21.333 21.333zM128 160c25.6 0 39.467 8.533 42.667 24.533v0c1.067 4.267-2.133 9.6-7.467 9.6 0 0-1.067 0-1.067 0h-68.267c-4.267 0-8.533-4.267-8.533-8.533 0 0 0-1.067 0-1.067 3.2-16 17.067-24.533 42.667-24.533z"></path>
</svg>
