<!-- Generated by IcoMoon.io -->
<svg version="1.1" xmlns="http://www.w3.org/2000/svg" width="256" height="256" viewBox="0 0 256 256">
<title>frown</title>
<path fill="#333" d="M209.237 101.803l-105.636-32.411-28.934 37.275-25.892-10.43c-3.94 9.818-6.108 20.537-6.108 31.764 0 47.128 38.205 85.333 85.333 85.333s85.333-38.205 85.333-85.333c0-9.139-1.437-17.943-4.096-26.197zM85.333 149.263c-5.891 0-10.667-4.776-10.667-10.667s4.776-10.667 10.667-10.667c5.891 0 10.667 4.776 10.667 10.667s-4.776 10.667-10.667 10.667zM170.667 149.263c-5.891 0-10.667-4.776-10.667-10.667s4.776-10.667 10.667-10.667c5.891 0 10.667 4.776 10.667 10.667s-4.776 10.667-10.667 10.667zM88.046 187.334c-2.536 1.498-5.806 0.657-7.305-1.88s-0.657-5.806 1.879-7.304c12.897-7.618 28.055-11.408 45.379-11.408 11.903 0 22.915 2.115 32.778 5.645 5.978 2.139 10.301 4.312 12.731 5.841 2.493 1.57 3.241 4.863 1.671 7.355s-4.863 3.241-7.355 1.671c-1.806-1.137-5.442-2.964-10.641-4.825-8.764-3.137-18.576-5.022-29.184-5.022-15.489 0-28.775 3.321-39.954 9.925zM128 234.667c-58.91 0-106.667-47.756-106.667-106.667s47.756-106.667 106.667-106.667c58.91 0 106.667 47.756 106.667 106.667s-47.756 106.667-106.667 106.667z"></path>
</svg>
