<!-- Generated by IcoMoon.io -->
<svg version="1.1" xmlns="http://www.w3.org/2000/svg" width="256" height="256" viewBox="0 0 256 256">
<title>logo-o</title>
<path fill="#333" d="M135.467 43.733c-4.267-4.267-9.6-4.267-13.867 0l-76.8 76.8c-4.267 4.267-4.267 9.6 0 13.867l76.8 76.8c4.267 4.267 9.6 4.267 13.867 0l76.8-76.8c4.267-4.267 4.267-9.6 0-13.867l-76.8-76.8zM149.333 29.867l76.8 76.8c11.733 11.733 11.733 29.867 0 41.6l-76.8 77.867c-11.733 11.733-29.867 11.733-41.6 0l-77.867-76.8c-11.733-11.733-11.733-29.867 0-41.6l76.8-76.8c11.733-11.733 30.933-11.733 42.667-1.067z"></path>
</svg>
