<!-- Generated by IcoMoon.io -->
<svg version="1.1" xmlns="http://www.w3.org/2000/svg" width="256" height="256" viewBox="0 0 256 256">
<title>logout-o</title>
<path fill="#333" d="M55.467 138.667l17.067 20.267c4.267 4.267 3.2 11.733-1.067 14.933-4.267 4.267-11.733 3.2-14.933-1.067l-32-37.333c-3.2-4.267-3.2-9.6 0-13.867 0 0 0 0 0 0l32-37.333c4.267-4.267 10.667-5.333 14.933-1.067s5.333 10.667 1.067 14.933l-17.067 19.2h89.6c5.333 0 9.6 4.267 9.6 10.667s-4.267 10.667-9.6 10.667h-89.6zM85.333 202.667v0c12.8 7.467 26.667 10.667 42.667 10.667 46.933 0 85.333-38.4 85.333-85.333s-38.4-85.333-85.333-85.333c-16 0-30.933 4.267-43.733 11.733v0c-1.067 0-2.133 1.067-3.2 1.067-6.4 0-10.667-4.267-10.667-10.667 0-3.2 1.067-5.333 3.2-7.467v0c0-1.067 1.067-1.067 1.067-2.133 0 0 0 0 0 0 16-8.533 34.133-13.867 53.333-13.867 58.667 0 106.667 48 106.667 106.667s-48 106.667-106.667 106.667c-19.2 0-37.333-5.333-52.267-13.867-3.2-2.133-6.4-5.333-6.4-9.6 0-6.4 4.267-10.667 10.667-10.667 2.133 0 4.267 1.067 5.333 2.133z"></path>
</svg>
