<!-- Generated by IcoMoon.io -->
<svg version="1.1" xmlns="http://www.w3.org/2000/svg" width="256" height="256" viewBox="0 0 256 256">
<title>offer</title>
<path fill="#333" d="M64 21.333h128c11.782 0 21.333 9.552 21.333 21.333v0 170.667c0 11.782-9.552 21.333-21.333 21.333v0h-128c-11.782 0-21.333-9.552-21.333-21.333v0-170.667c0-11.782 9.552-21.333 21.333-21.333v0zM74.667 96c-5.891 0-10.667 4.776-10.667 10.667s4.776 10.667 10.667 10.667v0h32c5.891 0 10.667-4.776 10.667-10.667s-4.776-10.667-10.667-10.667v0zM74.667 53.333c-5.891 0-10.667 4.776-10.667 10.667s4.776 10.667 10.667 10.667v0h32c5.891 0 10.667-4.776 10.667-10.667s-4.776-10.667-10.667-10.667v0zM74.667 138.667c-5.891 0-10.667 4.776-10.667 10.667s4.776 10.667 10.667 10.667v0h32c5.891 0 10.667-4.776 10.667-10.667s-4.776-10.667-10.667-10.667v0zM74.667 181.333c-5.891 0-10.667 4.776-10.667 10.667s4.776 10.667 10.667 10.667v0h106.667c5.891 0 10.667-4.776 10.667-10.667s-4.776-10.667-10.667-10.667v0zM196.373 122.667c0.005-0.165 0.007-0.359 0.007-0.553 0-4.664-1.654-8.942-4.407-12.279l0.026 0.032c-2.407-2.972-5.49-5.302-9.023-6.771l-0.151-0.056c-3.815-1.521-8.418-2.917-13.16-3.944l-0.601-0.109c-4.373-0.955-8.185-2.203-11.821-3.784l0.407 0.157c-2.118-0.95-3.576-3.019-3.627-5.433l-0-0.007c-0-0.022-0-0.047-0-0.073 0-2.46 1.262-4.626 3.174-5.884l0.027-0.017c2.17-1.347 4.803-2.145 7.623-2.145 0.208 0 0.415 0.004 0.621 0.013l-0.029-0.001c0.153-0.004 0.333-0.006 0.513-0.006 2.173 0 4.273 0.314 6.256 0.898l-0.156-0.040c2.229 0.559 4.183 1.327 6.003 2.308l-0.137-0.067 3.413 1.813 3.627 1.707c0.401 0.078 0.862 0.122 1.333 0.122s0.933-0.044 1.379-0.129l-0.046 0.007c1.934-0.007 3.643-0.968 4.681-2.436l0.012-0.017c1.263-1.506 2.031-3.465 2.031-5.603 0-0.093-0.002-0.185-0.004-0.277l0 0.013c0-0.035 0.001-0.077 0.001-0.118 0-1.427-0.315-2.78-0.878-3.994l0.024 0.058c-0.711-1.231-1.683-2.237-2.845-2.966l-0.035-0.021c-5.211-3.403-11.354-5.871-17.954-6.999l-0.286-0.040v-5.333c0.007-0.127 0.012-0.274 0.012-0.422 0-1.83-0.649-3.508-1.728-4.817l0.011 0.013c-1.408-1.324-3.31-2.138-5.401-2.138-0.088 0-0.177 0.002-0.265 0.004l0.012-0.001c-0.068-0.002-0.148-0.003-0.228-0.003-2.118 0-4.036 0.858-5.425 2.243l0-0c-1.385 1.34-2.244 3.215-2.244 5.292 0 0.090 0.002 0.179 0.005 0.267l-0-0.013v5.653c-6.602 1.198-12.333 4.316-16.746 8.746l-0.001 0.001c-3.894 4.025-6.294 9.516-6.294 15.568 0 0.077 0 0.153 0.001 0.23v-0.012c-0.017 0.299-0.027 0.648-0.027 1.001 0 4.386 1.495 8.422 4.004 11.627l-0.031-0.042c2.484 2.969 5.636 5.298 9.228 6.769l0.157 0.058c3.745 1.529 8.369 3.028 13.118 4.215l0.749 0.158q5.333 1.28 8 2.24c1.801 0.549 3.364 1.388 4.721 2.475l-0.028-0.022c1.109 0.887 1.814 2.24 1.814 3.758 0 0.028-0 0.058-0.001 0.086v-0.004c0.009 0.127 0.014 0.276 0.014 0.425 0 2.336-1.231 4.384-3.079 5.533l-0.028 0.016c-2.324 1.23-5.080 1.952-8.005 1.952-0.373 0-0.744-0.012-1.112-0.035l0.050 0.002c-0.113 0.001-0.248 0.002-0.382 0.002-3.121 0-6.152-0.39-9.045-1.123l0.253 0.054c-3.493-0.99-6.538-2.299-9.365-3.943l0.192 0.103c-0.989-0.593-2.148-1.166-3.352-1.647l-0.167-0.059c-0.417-0.074-0.897-0.117-1.387-0.117s-0.97 0.043-1.437 0.123l0.050-0.007c-1.934 0.007-3.643 0.968-4.681 2.436l-0.012 0.017c-1.16 1.683-1.852 3.764-1.852 6.007 0 1.448 0.288 2.83 0.813 4.089l-0.026-0.071c0.687 1.215 1.665 2.193 2.843 2.861l0.037 0.019c6.102 3.801 13.343 6.387 21.106 7.233l0.227 0.020v5.12c-0.003 0.081-0.005 0.176-0.005 0.272 0 2.105 0.858 4.008 2.244 5.381l0.001 0.001c1.498 1.329 3.481 2.142 5.653 2.142s4.156-0.812 5.662-2.149l-0.008 0.007c1.387-1.373 2.245-3.278 2.245-5.382 0-0.095-0.002-0.191-0.005-0.285l0 0.013v-5.547c6.613-1.076 12.385-4.091 16.862-8.434l-0.007 0.007c3.898-3.867 6.31-9.225 6.31-15.147 0-0.3-0.006-0.599-0.018-0.896l0.002 0.043z"></path>
</svg>
