<!-- Generated by IcoMoon.io -->
<svg version="1.1" xmlns="http://www.w3.org/2000/svg" width="256" height="256" viewBox="0 0 256 256">
<title>sketch</title>
<path fill="#333" d="M234.667 94.933c0 0 0 0 0 0s0 0 0 0v0l-40.533-58.667c-1.067-1.067-2.133-2.133-3.2-2.133 0 0 0 0 0 0v0l-62.933-4.267-62.933 5.333c-1.067 0-2.133 0-2.133 1.067v0l-41.6 58.667v1.067c0 0 0 0 0 1.067s0 2.133 1.067 3.2v0l102.4 123.733c1.067 1.067 2.133 2.133 3.2 2.133s2.133-1.067 3.2-2.133v0l102.4-124.8c1.067 0 1.067-1.067 1.067-2.133s0-1.067 0-2.133v0 0zM170.667 109.867l-42.667 100.267-42.667-100.267h85.333zM171.733 92.8h-87.467l43.733-51.2 43.733 51.2zM69.333 92.8h-24.533l20.267-28.8 4.267 28.8zM185.6 92.8l5.333-28.8 20.267 28.8h-25.6z"></path>
</svg>
