<!-- Generated by IcoMoon.io -->
<svg version="1.1" xmlns="http://www.w3.org/2000/svg" width="256" height="256" viewBox="0 0 256 256">
<title>sort</title>
<path fill="#333" d="M139.513 217.23c-0.96 0.96-0.96 1.919-1.919 1.919-2.879 2.879-6.716 3.838-10.554 3.838s-7.676-0.96-10.554-3.838c-0.96-0.96-0.96-1.919-1.919-1.919l-36.46-37.419c0 0 0 0 0 0-5.757-5.757-5.757-14.392 0-20.149s14.392-5.757 20.149 0l28.784 28.784 28.784-28.784c5.757-5.757 14.392-5.757 20.149 0s5.757 14.392 0 20.149c0 0 0 0 0 0l-36.46 37.419zM127.040 66.594l-28.784 28.784c-5.757 5.757-14.392 5.757-20.149 0s-5.757-14.392 0-20.149c0 0 0 0 0 0l36.46-37.419c0.96-0.96 0.96-1.919 1.919-1.919 3.838-1.919 7.676-3.838 10.554-3.838 3.838 0 7.676 0.96 10.554 3.838 0.96 0.96 0.96 1.919 1.919 1.919l36.46 38.379c0 0 0 0 0 0 5.757 5.757 5.757 14.392 0 20.149s-14.392 5.757-20.149 0l-28.784-29.743z"></path>
</svg>
