<!-- Generated by IcoMoon.io -->
<svg version="1.1" xmlns="http://www.w3.org/2000/svg" width="256" height="256" viewBox="0 0 256 256">
<title>tag-o</title>
<path fill="#333" d="M208 124.8v-75.733h-74.667l-84.267 84.267 75.733 75.733 83.2-84.267zM138.667 224c-8.533 8.533-21.333 8.533-29.867 0l-75.733-75.733c-8.533-8.533-8.533-21.333 0-29.867l90.667-90.667h84.267c11.733 0 21.333 9.6 21.333 21.333v84.267l-90.667 90.667zM179.2 96c-10.667 0-18.133-8.533-18.133-18.133s8.533-18.133 18.133-18.133 18.133 8.533 18.133 18.133-7.467 18.133-18.133 18.133z"></path>
</svg>
