<!-- Generated by IcoMoon.io -->
<svg version="1.1" xmlns="http://www.w3.org/2000/svg" width="256" height="256" viewBox="0 0 256 256">
<title>twitter</title>
<path fill="#333" d="M128 234.667c-58.667 0-106.667-48-106.667-106.667s48-106.667 106.667-106.667 106.667 48 106.667 106.667-48 106.667-106.667 106.667zM192 87.467c-4.267 2.133-9.6 3.2-14.933 4.267 5.333-3.2 9.6-8.533 11.733-14.933-5.333 3.2-10.667 5.333-17.067 6.4-4.267-5.333-11.733-8.533-19.2-8.533-14.933 0-26.667 11.733-26.667 26.667 0 2.133 0 4.267 1.067 6.4-21.333-1.067-40.533-11.733-54.4-27.733-2.133 3.2-3.2 8.533-3.2 12.8 0 9.6 4.267 17.067 11.733 22.4-4.267 0-8.533-1.067-11.733-3.2 0 0 0 0 0 0 0 12.8 9.6 23.467 21.333 26.667-2.133 1.067-4.267 1.067-6.4 1.067s-3.2 0-5.333 0c3.2 10.667 12.8 18.133 24.533 19.2-8.533 7.467-20.267 11.733-33.067 11.733-2.133 0-4.267 0-6.4 0 11.733 6.4 25.6 10.667 40.533 10.667 48 0 74.667-40.533 74.667-76.8 0-1.067 0-2.133 0-3.2 5.333-4.267 9.6-8.533 12.8-13.867z"></path>
</svg>
