<!-- Generated by IcoMoon.io -->
<svg version="1.1" xmlns="http://www.w3.org/2000/svg" width="256" height="256" viewBox="0 0 256 256">
<title>user-add</title>
<path fill="#333" d="M128 128c-29.867 0-53.333-23.467-53.333-53.333s23.467-53.333 53.333-53.333 53.333 23.467 53.333 53.333-24.533 53.333-53.333 53.333zM132.267 234.667h-89.6c-11.733 0-21.333-9.6-21.333-21.333 0-1.067 0-2.133 0-3.2 6.4-38.4 39.467-58.667 98.133-60.8-5.333 10.667-8.533 22.4-8.533 34.133 0 20.267 8.533 38.4 21.333 51.2zM184.533 234.667c-27.733 0-50.133-22.4-50.133-50.133s22.4-50.133 50.133-50.133 50.133 22.4 50.133 50.133-22.4 50.133-50.133 50.133zM192 176v-16c0-4.267-3.2-8.533-8.533-8.533s-8.533 3.2-8.533 8.533v16h-14.933c-4.267 0-8.533 3.2-8.533 8.533s4.267 7.467 8.533 7.467h16v16c0 4.267 3.2 8.533 8.533 8.533s8.533-3.2 8.533-8.533v-16h16c4.267 0 8.533-3.2 8.533-8.533s-3.2-8.533-8.533-8.533h-17.067z"></path>
</svg>
