<?xml version="1.0" encoding="utf-8"?>
<!-- Generator: Adobe Illustrator 22.0.1, SVG Export Plug-In . SVG Version: 6.00 Build 0)  -->
<svg version="1.1" id="Layer_1" xmlns="http://www.w3.org/2000/svg" xmlns:xlink="http://www.w3.org/1999/xlink" x="0px" y="0px"
	 viewBox="0 0 234.1 214.1" style="enable-background:new 0 0 234.1 214.1;" xml:space="preserve">
<style type="text/css">
	.st0{fill:#172E55;}
	.st1{fill:#EAEAEA;}
	.st2{fill:#FFC145;}
	.st3{fill:#BCBBBB;}
</style>
<g id="Group-5" transform="translate(0.000000, 0.678274)">
	<path id="Fill-3" class="st0" d="M91.7,166.4h50.7c-1.7-10.5-5.2-36.6,1.2-44c1.6-1.8,3.4-3.8,5.3-5.8C158.8,106,171,92.7,171,76.8
		c0-28.6-23.6-51.7-53.7-52.7l-0.3,0l-0.2,0c-30.1,1-53.7,24.1-53.7,52.7c0,15.9,12.3,29.1,22.1,39.8c1.9,2,3.7,4,5.3,5.8
		C96.9,129.7,93.4,155.8,91.7,166.4z M149.2,172.1H84.9l0.6-3.4c2.7-14.9,4.7-37.9,0.7-42.5c-1.6-1.8-3.3-3.7-5.2-5.7
		C70.5,109.1,57.4,95,57.4,76.8C57.4,46,82,21,113.9,18.6l3.2-0.2l3.2,0.2c31.9,2.4,56.5,27.4,56.5,58.2c0,18.1-13.1,32.3-23.6,43.7
		c-1.8,2-3.6,3.9-5.2,5.7c-4,4.6-2,27.7,0.7,42.5L149.2,172.1z"/>
	<path id="Fill-6" class="st1" d="M131.4,191.5h-28.1c-6.8,0-12.4-5.6-12.4-12.4v-1.9c0-6.8,5.6-12.4,12.4-12.4h28.1
		c6.8,0,12.4,5.6,12.4,12.4v1.9C143.8,185.9,138.2,191.5,131.4,191.5"/>
	<path id="Fill-8" class="st0" d="M103.3,167.6c-5.3,0-9.5,4.3-9.5,9.5v1.9c0,5.3,4.3,9.5,9.5,9.5h28.1c5.3,0,9.5-4.3,9.5-9.5v-1.9
		c0-5.3-4.3-9.5-9.5-9.5H103.3z M131.4,194.3h-28.1c-8.4,0-15.2-6.8-15.2-15.2v-1.9c0-8.4,6.8-15.2,15.2-15.2h28.1
		c8.4,0,15.2,6.8,15.2,15.2v1.9C146.6,187.5,139.8,194.3,131.4,194.3z"/>
	<path id="Fill-10" class="st1" d="M149.7,177.5h-65c-4.9,0-8.9-4-8.9-8.9c0-4.9,4-8.9,8.9-8.9h65c4.9,0,8.9,4,8.9,8.9
		C158.6,173.5,154.6,177.5,149.7,177.5"/>
	<path id="Fill-12" class="st0" d="M84.8,162.6c-3.3,0-6,2.7-6,6c0,3.3,2.7,6,6,6h65c3.3,0,6-2.7,6-6c0-3.3-2.7-6-6-6H84.8z
		 M149.7,180.3h-65c-6.5,0-11.7-5.3-11.7-11.7c0-6.5,5.3-11.7,11.7-11.7h65c6.5,0,11.7,5.3,11.7,11.7
		C161.5,175.1,156.2,180.3,149.7,180.3z"/>
	<path id="Fill-14" class="st2" d="M118.3,34.6c-1.3,0-2.6,0.1-3.8,0.2c2.2,1.1,4,2.7,5.2,4.8c5.5,8.7-0.4,22.2-13.1,30.2
		c-11,6.9-23.5,7.4-30.2,1.8c-0.2,1.8-0.4,3.5-0.4,5.4c0,12.3,5.3,23.4,13.6,31.1l-0.6,0.1c0,0,10.2,7.6,12.4,17.6
		c1.6,7.5,0.7,14.5,0.7,14.5h14h3.3h14c0,0-0.9-7.1,0.7-14.5c1.5-6.8,6.6-12.5,9.8-15.4c1.7-1.3,3.4-2.8,4.9-4.4
		c7.1-7.6,11.5-17.8,11.5-29C160.5,53.5,141.6,34.6,118.3,34.6"/>
	<path id="Fill-16" class="st1" d="M149.7,159.7h-65c-4.9,0-8.9-4-8.9-8.9c0-4.9,4-8.9,8.9-8.9h65c4.9,0,8.9,4,8.9,8.9
		C158.6,155.7,154.6,159.7,149.7,159.7"/>
	<path id="Fill-18" class="st0" d="M84.8,144.8c-3.3,0-6,2.7-6,6s2.7,6,6,6h65c3.3,0,6-2.7,6-6s-2.7-6-6-6H84.8z M149.7,162.6h-65
		c-6.5,0-11.7-5.3-11.7-11.7s5.3-11.7,11.7-11.7h65c6.5,0,11.7,5.3,11.7,11.7S156.2,162.6,149.7,162.6z"/>
	<polygon id="Fill-20" class="st0" points="123.4,142.1 117.7,142.1 117.7,108 136.3,89.4 103.6,89.4 112.9,98.7 108.9,102.8 
		89.8,83.7 150.1,83.7 123.4,110.4 	"/>
	<path id="Fill-22" class="st2" d="M72,59.9c2.1,2.7,17,3.8,26.3-3.4c9.4-7.2,9.7-20.1,7.6-22.8c-2.1-2.7-11.4,0.9-20.8,8.2
		C75.8,49.1,69.9,57.2,72,59.9"/>
	<path id="Fill-24" class="st3" d="M141.4,156.8c0.1-0.2,0.1-0.5,0.1-0.7v-4.5c0-1.6-1.3-2.9-2.9-2.9h-1.2c-1.6,0-2.9,1.3-2.9,2.9
		v4.5c0,0.2,0,0.5,0.1,0.7H141.4z"/>
	<path id="Fill-26" class="st3" d="M141.7,174.5c0.1-0.2,0.1-0.5,0.1-0.7v-4.5c0-1.6-1.3-2.9-2.9-2.9h-1.2c-1.6,0-2.9,1.3-2.9,2.9
		v4.5c0,0.2,0,0.5,0.1,0.7H141.7z"/>
	<path id="Fill-28" class="st3" d="M96.9,180.2c0,0.2,0,0.3,0,0.5c0,1.6,1.3,2.9,2.9,2.9h34.9c1.6,0,2.9-1.3,2.9-2.9
		c0-0.2,0-0.3,0-0.5H96.9z"/>
</g>
</svg>
