<?xml version="1.0" encoding="utf-8"?>
<!-- Generator: Adobe Illustrator 22.0.1, SVG Export Plug-In . SVG Version: 6.00 Build 0)  -->
<svg version="1.1" id="Layer_1" xmlns="http://www.w3.org/2000/svg" xmlns:xlink="http://www.w3.org/1999/xlink" x="0px" y="0px"
	 viewBox="0 0 234.1 214.1" style="enable-background:new 0 0 234.1 214.1;" xml:space="preserve">
<style type="text/css">
	.st0{fill:#E84798;}
	.st1{fill:#172E55;}
	.st2{fill:#C7378D;}
	.st3{fill:#A4E548;}
	.st4{fill:#8AC133;}
	.st5{fill:#00EDFF;}
	.st6{fill:#00C7D6;}
	.st7{fill:#FF4800;}
	.st8{fill:#E23A00;}
	.st9{fill:#E2E2E2;}
</style>
<path class="st0" d="M202.9,76.5c0.1-0.7,0.2-1.4,0.2-2.2c0-11-8.9-19.9-19.9-19.9s-19.9,8.9-19.9,19.9c0,0.7,0.1,1.5,0.2,2.2H202.9
	z"/>
<g>
	<path class="st1" d="M183.1,49.1c-8.4,0-15.1-6.8-15.1-15.1c0-8.4,6.8-15.1,15.1-15.1c8.4,0,15.1,6.8,15.1,15.1
		C198.2,42.4,191.4,49.1,183.1,49.1z M183.1,23.2c-6,0-10.8,4.9-10.8,10.8s4.9,10.8,10.8,10.8c6,0,10.8-4.9,10.8-10.8
		S189,23.2,183.1,23.2z"/>
	<path class="st1" d="M204.7,78.3h-43.3l-0.2-1.9c-0.1-0.8-0.2-1.6-0.2-2.4c0-12.1,9.9-22,22-22s22,9.9,22,22c0,0.8-0.1,1.7-0.2,2.4
		L204.7,78.3z M165.3,74h35.4l0,0c0-9.8-8-17.7-17.7-17.7S165.3,64.2,165.3,74L165.3,74z"/>
</g>
<g>
	<polygon class="st1" points="95,103.3 89.5,103.3 89.5,108.8 95,108.8 	"/>
</g>
<path class="st2" d="M196.2,73.9C195.4,67.2,190,62,183.4,62c-6.6,0-12,5.2-12.9,11.9H196.2z"/>
<path class="st3" d="M69.9,76.5c0.1-0.7,0.2-1.4,0.2-2.2c0-11-8.9-19.9-19.9-19.9s-19.9,8.9-19.9,19.9c0,0.7,0.1,1.5,0.2,2.2H69.9z"
	/>
<g>
	<path class="st1" d="M50.1,49.1c-8.4,0-15.1-6.8-15.1-15.1c0-8.4,6.8-15.1,15.1-15.1c8.4,0,15.1,6.8,15.1,15.1
		C65.2,42.4,58.4,49.1,50.1,49.1z M50.1,23.2c-6,0-10.8,4.9-10.8,10.8s4.9,10.8,10.8,10.8c6,0,10.8-4.9,10.8-10.8S56,23.2,50.1,23.2
		z"/>
	<path class="st1" d="M71.7,78.3H28.4l-0.2-1.9C28.1,75.6,28,74.9,28,74c0-12.1,9.9-22,22-22s22,9.9,22,22c0,0.8-0.1,1.7-0.2,2.4
		L71.7,78.3z M32.3,74h35.4l0,0c0-9.8-8-17.7-17.7-17.7S32.3,64.2,32.3,74L32.3,74z"/>
</g>
<path class="st4" d="M63.2,73.9C62.4,67.2,57,62,50.4,62c-6.6,0-12,5.2-12.9,11.9H63.2z"/>
<path class="st5" d="M69.9,194.5c0.1-0.7,0.2-1.4,0.2-2.2c0-11-8.9-19.9-19.9-19.9s-19.9,8.9-19.9,19.9c0,0.7,0.1,1.5,0.2,2.2H69.9z
	"/>
<g>
	<path class="st1" d="M50.1,167.1c-8.4,0-15.1-6.8-15.1-15.1c0-8.4,6.8-15.1,15.1-15.1c8.4,0,15.1,6.8,15.1,15.1
		C65.2,160.4,58.4,167.1,50.1,167.1z M50.1,141.2c-6,0-10.8,4.9-10.8,10.8c0,5.9,4.9,10.8,10.8,10.8c6,0,10.8-4.9,10.8-10.8
		C60.9,146.1,56,141.2,50.1,141.2z"/>
	<path class="st1" d="M71.7,196.3H28.4l-0.2-1.9c-0.1-0.8-0.2-1.6-0.2-2.4c0-12.1,9.9-22,22-22s22,9.9,22,22c0,0.8-0.1,1.7-0.2,2.4
		L71.7,196.3z M32.3,192h35.4l0,0c0-9.8-8-17.7-17.7-17.7S32.3,182.2,32.3,192L32.3,192z"/>
</g>
<path class="st6" d="M63.2,191.9C62.4,185.2,57,180,50.4,180c-6.6,0-12,5.2-12.9,11.9H63.2z"/>
<path class="st7" d="M202.9,194.5c0.1-0.7,0.2-1.4,0.2-2.2c0-11-8.9-19.9-19.9-19.9s-19.9,8.9-19.9,19.9c0,0.7,0.1,1.5,0.2,2.2
	H202.9z"/>
<g>
	<path class="st1" d="M183.1,167.1c-8.4,0-15.1-6.8-15.1-15.1c0-8.4,6.8-15.1,15.1-15.1c8.4,0,15.1,6.8,15.1,15.1
		C198.2,160.4,191.4,167.1,183.1,167.1z M183.1,141.2c-6,0-10.8,4.9-10.8,10.8c0,5.9,4.9,10.8,10.8,10.8c6,0,10.8-4.9,10.8-10.8
		C193.9,146.1,189,141.2,183.1,141.2z"/>
	<path class="st1" d="M204.7,196.3h-43.3l-0.2-1.9c-0.1-0.8-0.2-1.6-0.2-2.4c0-12.1,9.9-22,22-22s22,9.9,22,22
		c0,0.8-0.1,1.7-0.2,2.4L204.7,196.3z M165.3,192h35.4l0,0c0-9.8-8-17.7-17.7-17.7S165.3,182.2,165.3,192L165.3,192z"/>
</g>
<path class="st8" d="M196.2,191.9c-0.9-6.7-6.2-11.9-12.9-11.9c-6.6,0-12,5.2-12.9,11.9H196.2z"/>
<g>
	<path class="st1" d="M75.3,38.4c0.5,0,0.9-0.1,1.4-0.4c3.1-1.8,6.3-3.4,9.5-4.7c1.4-0.6,2.1-2.2,1.5-3.6c-0.6-1.4-2.2-2.1-3.6-1.5
		c-3.5,1.5-6.9,3.1-10.2,5c-1.3,0.8-1.8,2.4-1,3.8C73.5,37.9,74.4,38.4,75.3,38.4z"/>
	<path class="st1" d="M95.6,30c0.2,0,0.5,0,0.7-0.1c3.4-0.9,6.9-1.6,10.4-2.1c1.5-0.2,2.6-1.6,2.4-3.1c-0.2-1.5-1.6-2.6-3.1-2.4
		c-3.8,0.5-7.5,1.2-11.1,2.2c-1.5,0.4-2.3,1.9-1.9,3.4C93.3,29.2,94.4,30,95.6,30z"/>
	<path class="st1" d="M117.4,27.1h0.1c3.5,0,7,0.2,10.5,0.7c0.1,0,0.2,0,0.4,0c1.4,0,2.5-1,2.7-2.4c0.2-1.5-0.9-2.9-2.4-3.1
		c-3.7-0.5-7.5-0.7-11.2-0.7h-0.1c-1.5,0-2.8,1.2-2.8,2.8S115.9,27.1,117.4,27.1z"/>
	<path class="st1" d="M196.2,87.3c0.9,3.4,1.6,6.9,2.1,10.4c0.2,1.4,1.4,2.4,2.7,2.4c0.1,0,0.2,0,0.4,0c1.5-0.2,2.6-1.6,2.4-3.1
		c-0.5-3.8-1.2-7.5-2.2-11.1c-0.4-1.5-1.9-2.3-3.4-1.9C196.6,84.3,195.8,85.8,196.2,87.3z"/>
	<path class="st1" d="M138.5,29.8c3.4,0.9,6.8,2.1,10.1,3.4c0.3,0.1,0.7,0.2,1,0.2c1.1,0,2.1-0.6,2.5-1.7c0.6-1.4-0.1-3-1.5-3.6
		c-3.5-1.4-7.1-2.7-10.8-3.6c-1.5-0.4-3,0.5-3.4,2C136.1,27.9,137,29.4,138.5,29.8z"/>
	<path class="st1" d="M138.6,187.2c-3.4,0.9-6.9,1.6-10.4,2.1c-1.5,0.2-2.6,1.6-2.4,3.1c0.2,1.4,1.4,2.4,2.7,2.4c0.1,0,0.2,0,0.4,0
		c3.8-0.5,7.5-1.2,11.2-2.2c1.5-0.4,2.3-1.9,1.9-3.4C141.6,187.7,140.1,186.8,138.6,187.2z"/>
	<path class="st1" d="M158.3,179c-3.1,1.8-6.3,3.4-9.5,4.7c-1.4,0.6-2.1,2.2-1.5,3.6c0.4,1.1,1.5,1.7,2.5,1.7c0.4,0,0.7-0.1,1.1-0.2
		c3.5-1.4,6.9-3.1,10.2-5c1.3-0.8,1.8-2.4,1-3.8C161.3,178.7,159.6,178.3,158.3,179z"/>
	<path class="st1" d="M201.7,105.6c-1.5,0-2.8,1.2-2.8,2.8v0.2c0,3.6-0.2,7.1-0.7,10.6c-0.2,1.5,0.9,2.9,2.4,3.1c0.1,0,0.2,0,0.4,0
		c1.4,0,2.5-1,2.7-2.4c0.5-3.7,0.7-7.5,0.7-11.3v-0.2C204.5,106.8,203.2,105.6,201.7,105.6z"/>
	<path class="st1" d="M199.6,127.6c-1.5-0.4-3,0.5-3.4,1.9c-0.9,3.4-2.1,6.8-3.4,10.1c-0.6,1.4,0.1,3,1.5,3.6
		c0.3,0.1,0.7,0.2,1.1,0.2c1.1,0,2.1-0.6,2.5-1.7c1.5-3.5,2.7-7.1,3.7-10.8C201.9,129.5,201,128,199.6,127.6z"/>
	<path class="st1" d="M76.9,179.1c-3.1-1.8-6-3.8-8.9-5.9c-1.2-0.9-2.9-0.7-3.9,0.5s-0.7,2.9,0.5,3.9c3,2.3,6.2,4.4,9.5,6.3
		c0.4,0.3,0.9,0.4,1.4,0.4c1,0,1.9-0.5,2.4-1.4C78.6,181.5,78.2,179.8,76.9,179.1z"/>
	<path class="st1" d="M117.6,189.9l-0.1,0c-3.5,0-7-0.2-10.5-0.7c-1.5-0.2-2.9,0.9-3.1,2.4c-0.2,1.5,0.9,2.9,2.4,3.1
		c3.7,0.5,7.5,0.7,11.3,0.7h0.1l0,0c1.5,0,2.7-1.3,2.7-2.7C120.3,191.2,119.1,189.9,117.6,189.9z"/>
	<path class="st1" d="M38.9,129.7c-0.9-3.4-1.6-6.9-2.1-10.4c-0.2-1.5-1.6-2.6-3.1-2.4c-1.5,0.2-2.6,1.6-2.4,3.1
		c0.5,3.8,1.2,7.5,2.2,11.2c0.3,1.2,1.4,2,2.7,2c0.2,0,0.5,0,0.7-0.1C38.4,132.7,39.3,131.2,38.9,129.7z"/>
	<path class="st1" d="M33.3,111.3c1.5,0,2.8-1.3,2.8-2.8c0-3.5,0.2-7.1,0.7-10.5c0.2-1.5-0.9-2.9-2.4-3.1c-1.5-0.2-2.9,0.9-3.1,2.4
		c-0.5,3.7-0.7,7.5-0.7,11.2v0.1C30.6,110.1,31.8,111.3,33.3,111.3z"/>
	<path class="st1" d="M96.5,187.2c-3.4-0.9-6.8-2.1-10.1-3.4c-1.4-0.6-3,0.1-3.6,1.5c-0.6,1.4,0.1,3,1.5,3.6
		c3.5,1.4,7.1,2.7,10.8,3.6c0.2,0.1,0.5,0.1,0.7,0.1c1.2,0,2.3-0.8,2.7-2C98.8,189.1,98,187.6,96.5,187.2z"/>
</g>
<path class="st1" d="M42.2,76.7c-1.9,0-3.7-0.1-5.4-0.3c-1.3,3.2-2.4,6.5-3.2,9.8c-0.4,1.5,0.5,3,2,3.4c0.2,0.1,0.5,0.1,0.7,0.1
	c1.2,0,2.3-0.8,2.7-2c0.9-3.4,2.1-6.8,3.4-10.1c0.1-0.3,0.2-0.5,0.2-0.8C42.3,76.7,42.3,76.7,42.2,76.7z"/>
<path class="st1" d="M121.3,126.3c-1.4-0.4-3.3-1-5.5-1.8c-4.1,2.3-9,3.8-14.3,4.1l-1.1,0.1l-5,5.3v-5.4l-2.3-0.4
	c-13.6-2.1-23.4-11.3-23.4-21.9c0-12.4,13-22.4,29.1-22.4c2.7,0,5.3,0.3,7.7,0.8c2.1-1.8,4.3-3.1,6.1-3.9c-4.2-1.5-8.9-2.3-13.8-2.3
	c-19.1,0-34.6,12.4-34.6,27.8C64.3,119,75,130,90,133.2v14.5l13.1-13.8c7.6-0.7,14.4-3.4,19.7-7.4
	C122.3,126.5,121.8,126.5,121.3,126.3z"/>
<path class="st9" d="M99,104.3c-0.3-6.5,1.4-10.7,3.4-13.3c-1.1-0.1-2.2-0.2-3.3-0.2c-12.4,0-22.4,6.8-22.4,15.1s10,15.1,22.4,15.1
	c3.9,0,7.5-0.7,10.7-1.8C105.4,117,99.4,112.7,99,104.3z"/>
<g>
	<path class="st1" d="M139.9,144.2l-13-13.8c-17.4-1.7-30.5-13.4-30.5-27.6C96.4,87.4,111.9,75,131,75s34.6,12.5,34.6,27.8
		c0,12.7-10.7,23.7-25.7,26.9L139.9,144.2L139.9,144.2z M131,80.4c-16.1,0-29.1,10-29.1,22.4c0,11.4,11.6,21.2,26.4,22.2l1.1,0.1
		l5,5.3V125l2.3-0.4c13.5-2.1,23.4-11.3,23.4-21.9C160.1,90.4,147.1,80.4,131,80.4z"/>
</g>
<ellipse class="st9" cx="131.2" cy="102.4" rx="22.4" ry="15.1"/>
<g>
	<polygon class="st1" points="127.1,99.9 121.6,99.9 121.6,105.4 127.1,105.4 	"/>
	<polygon class="st1" points="143,99.9 137.5,99.9 137.5,105.4 143,105.4 	"/>
</g>
<polygon class="st1" points="91.8,102.5 86.3,102.5 86.3,108 91.8,108 "/>
</svg>
