<!-- Generated by IcoMoon.io -->
<svg version="1.1" xmlns="http://www.w3.org/2000/svg" width="256" height="256" viewBox="0 0 256 256">
<title>alarm-o</title>
<path fill="#333" d="M137.39 156.171l17.607 10.564c5.869 3.522 7.043 10.564 4.695 16.433-3.522 5.869-10.564 7.043-16.433 4.695l-22.302-12.912c-1.174-1.174-2.347-2.347-3.522-3.522-2.347-2.347-3.522-4.695-3.522-8.217v-49.299c0-7.043 4.695-11.738 11.738-11.738s11.738 4.695 11.738 11.738v42.257zM128 245.38c-51.647 0-93.903-42.257-93.903-93.903s42.257-93.903 93.903-93.903 93.903 42.257 93.903 93.903-42.257 93.903-93.903 93.903zM128 223.077c39.909 0 71.602-31.692 71.602-71.602s-31.692-71.602-71.602-71.602-71.602 31.692-71.602 71.602 31.692 71.602 71.602 71.602zM185.516 23.532v0zM177.299 15.316c4.695-4.695 11.738-4.695 16.433 0l48.125 48.125c4.695 4.695 4.695 11.738 0 16.433s-11.738 4.695-16.433 0l-48.125-48.125c-4.695-4.695-4.695-12.912 0-16.433zM71.658 23.532v0zM79.875 15.316c4.695 4.695 4.695 11.738 0 16.433l-48.125 46.952c-4.695 4.695-11.738 4.695-16.433 0-4.695-3.522-4.695-11.738 0-16.433l48.125-48.125c3.522-3.521 11.738-3.521 16.433 1.174z"></path>
</svg>
