<!-- Generated by IcoMoon.io -->
<svg version="1.1" xmlns="http://www.w3.org/2000/svg" width="256" height="256" viewBox="0 0 256 256">
<title>angle-right</title>
<path fill="#333" d="M79.252 71.238l62.772 56.094-62.772 56.094c-5.342 5.342-6.678 13.356-1.336 18.698 0 0 1.336 1.336 1.336 1.336v0c6.678 5.342 16.027 5.342 22.704 0l74.792-65.444c5.342-5.342 6.678-13.356 1.336-18.698 0 0-1.336-1.336-1.336-1.336l-74.792-65.444c-6.678-5.342-16.027-5.342-22.704 0v0c-5.342 4.007-5.342 12.020 0 18.698 0 0 0 0 0 0z"></path>
</svg>
