<!-- Generated by IcoMoon.io -->
<svg version="1.1" xmlns="http://www.w3.org/2000/svg" width="256" height="256" viewBox="0 0 256 256">
<title>application</title>
<path fill="#333" d="M64 21.334h128c11.783 0 21.333 9.552 21.333 21.333v0 170.668c0 11.783-9.552 21.333-21.333 21.333v0h-128c-11.783 0-21.333-9.552-21.333-21.333v0-170.667c0-11.783 9.552-21.333 21.333-21.333v0zM154.667 90.773c10.368-0 18.773-8.405 18.773-18.773s-8.405-18.773-18.773-18.773c-10.368 0-18.773 8.405-18.773 18.773 0 0.038 0 0.075 0 0.113v-0.006c0 0 0 0 0 0 0 10.309 8.358 18.667 18.667 18.667 0.038 0 0.075-0 0.113-0.001h-0.006zM154.667 98.348c-22.507 0-34.88 7.040-37.227 21.333-0.023 0.177-0.036 0.38-0.036 0.587s0.013 0.41 0.038 0.611l-0.003-0.023c-0.001 0.032-0.001 0.069-0.001 0.107 0 4.123 3.343 7.467 7.467 7.467 0 0 0.001 0 0.001 0h60.907c3.59-0.691 6.264-3.808 6.264-7.548 0-0.385-0.028-0.763-0.083-1.133l0.005 0.043c-2.347-14.4-14.827-21.44-37.333-21.44zM74.666 53.334c-5.891 0-10.667 4.776-10.667 10.667s4.776 10.667 10.667 10.667v0h21.333c5.891 0 10.667-4.776 10.667-10.667s-4.776-10.667-10.667-10.667v0zM74.666 106.668c-5.891 0-10.667 4.776-10.667 10.667s4.776 10.667 10.667 10.667v0h21.333c5.891 0 10.667-4.776 10.667-10.667s-4.776-10.667-10.667-10.667v0zM74.666 160c-5.891 0-10.667 4.776-10.667 10.667s4.776 10.667 10.667 10.667v0h106.667c5.891 0 10.667-4.776 10.667-10.667s-4.776-10.667-10.667-10.667v0z"></path>
</svg>
