<!-- Generated by IcoMoon.io -->
<svg version="1.1" xmlns="http://www.w3.org/2000/svg" width="256" height="256" viewBox="0 0 256 256">
<title>arrow-down</title>
<path fill="#333" d="M85.793 106.548v-53.317c0-11.778 9.548-21.327 21.327-21.327v0h42.654c11.778 0 21.327 9.548 21.327 21.327v0 53.317h53.317c0.198-0.014 0.429-0.022 0.661-0.022 5.536 0 10.024 4.488 10.024 10.024 0 0.232-0.007 0.464-0.024 0.692l0.002-0.031c0.002 0.078 0.003 0.169 0.003 0.26 0 2.854-1.232 5.421-3.195 7.196l-0.008 0.007-88.507 92.772c-3.894 4.099-9.385 6.649-15.472 6.649-5.552 0-10.607-2.121-14.402-5.596l0.016 0.015-1.066-1.066-88.507-92.772c-1.886-1.921-3.048-4.557-3.048-7.465s1.164-5.543 3.050-7.466l-0.002 0.002c2.311-1.903 5.273-3.092 8.508-3.198l0.023-0.001z"></path>
</svg>
