<!-- Generated by IcoMoon.io -->
<svg version="1.1" xmlns="http://www.w3.org/2000/svg" width="256" height="256" viewBox="0 0 256 256">
<title>calendar-o</title>
<path fill="#333" d="M96 53.333h64v-16c0-8.533 7.467-16 16-16s16 7.467 16 16v16h21.333c11.733 0 21.333 9.6 21.333 21.333v138.667c0 11.733-9.6 21.333-21.333 21.333h-170.667c-11.733 0-21.333-9.6-21.333-21.333v-138.667c0-11.733 9.6-21.333 21.333-21.333h21.333v-16c0-8.533 7.467-16 16-16s16 7.467 16 16v16zM42.667 85.333v128h170.667v-128h-170.667zM58.667 106.667h32v32h-32v-32zM112 106.667h32v32h-32v-32zM165.333 106.667h32v32h-32v-32zM58.667 161.067h32v32h-32v-32zM112 161.067h32v32h-32v-32zM165.333 161.067h32v32h-32v-32z"></path>
</svg>
