<!-- Generated by IcoMoon.io -->
<svg version="1.1" xmlns="http://www.w3.org/2000/svg" width="256" height="256" viewBox="0 0 256 256">
<title>car</title>
<path fill="#333" d="M39.2 48.8c2.4-9.6 12-16.8 22.8-16.8h132c10.8 0 20.4 7.2 22.8 18l19.2 66v90c0 9.6-8.4 18-18 18s-18-8.4-18-18v-6h-144v6c0 9.6-8.4 18-18 18s-18-8.4-18-18v-90l19.2-67.2zM68 68l-12 48h144l-12-48h-120zM74 176c9.6 0 18-8.4 18-18s-8.4-18-18-18-18 8.4-18 18 7.2 18 18 18zM182 176c9.6 0 18-8.4 18-18s-8.4-18-18-18c-9.6 0-18 8.4-18 18s7.2 18 18 18z"></path>
</svg>
