<!-- Generated by IcoMoon.io -->
<svg version="1.1" xmlns="http://www.w3.org/2000/svg" width="256" height="256" viewBox="0 0 256 256">
<title>coffee</title>
<path fill="#333" d="M192.43 105.726v-15.681c0-5.6-4.48-10.081-10.081-10.081h-26.881c4.48-6.721 6.72-13.441 5.6-20.161-1.12-7.84-6.72-14.561-12.321-21.281-7.84-8.96-11.201-13.441-7.84-20.161 1.12-2.24 0-4.48-1.12-6.721-2.24-1.12-4.48-1.12-6.72 0-24.642 23.521-11.201 39.202-2.24 50.403 5.6 6.721 10.081 12.321 8.96 17.921h-31.362c5.6-6.721 7.841-13.441 6.721-20.161-2.24-8.96-7.841-15.681-13.441-21.281-7.841-8.96-11.201-13.441-7.841-20.161 1.12-2.24 0-4.48-1.12-6.721-2.24-1.12-5.6-1.12-6.721 0-24.642 23.521-11.201 39.202-2.24 50.403 5.6 7.841 10.081 12.321 7.841 17.921h-40.322c-5.6 0-10.081 4.48-10.081 10.081v108.647c0 20.161 16.801 35.842 35.842 35.842h78.405c17.921 0 33.602-13.441 35.842-31.362 24.642-2.24 44.803-23.522 44.803-48.163 0-25.762-19.041-45.923-43.683-49.283zM88.264 193.091c0 5.6-4.48 10.081-10.081 10.081s-10.081-4.48-10.081-10.081v-77.284c0-5.6 4.48-10.081 10.081-10.081s10.081 4.48 10.081 10.081v77.284zM192.43 183.010v-56.003c13.441 2.24 23.522 13.441 23.522 28.002-1.12 13.441-11.201 24.642-23.522 28.002z"></path>
</svg>
