<!-- Generated by IcoMoon.io -->
<svg version="1.1" xmlns="http://www.w3.org/2000/svg" width="256" height="256" viewBox="0 0 256 256">
<title>copy</title>
<path fill="#333" d="M148.693 21.333c11.782 0 21.333 9.552 21.333 21.333v0h-95.36c-5.891 0-10.667 4.776-10.667 10.667v0 138.667c-11.782 0-21.333-9.552-21.333-21.333v0-128c0-11.782 9.552-21.333 21.333-21.333v0zM85.333 85.333c0-11.782 9.552-21.333 21.333-21.333v0h64l42.667 42.667v106.667c0 11.782-9.552 21.333-21.333 21.333v0h-85.333c-11.782 0-21.333-9.552-21.333-21.333v0zM160 85.333v32h32z"></path>
</svg>
