<!-- Generated by IcoMoon.io -->
<svg version="1.1" xmlns="http://www.w3.org/2000/svg" width="256" height="256" viewBox="0 0 256 256">
<title>eraser</title>
<path fill="#333" d="M237.867 87.467v41.6c0 8.533-4.267 14.933-10.667 19.2l-122.667 76.8c-14.933 9.6-37.333 4.267-50.133-9.6l-19.2-21.333c-5.333-6.4-8.533-13.867-8.533-21.333v-51.2c0-7.467 6.4-14.933 12.8-19.2l112-70.4c13.867-8.533 35.2-5.333 49.067 7.467l26.667 25.6c6.4 6.4 10.667 14.933 10.667 22.4zM102.4 198.4l36.267-22.4c2.133-1.067 2.133-4.267 0-6.4l-28.8-29.867c-1.067-1.067-1.067-2.133-1.067-3.2l1.067-35.2c0-4.267-5.333-6.4-9.6-4.267l-37.333 21.333c-4.267 3.2-5.333 8.533-5.333 13.867v39.467c0 4.267 2.133 8.533 5.333 11.733l10.667 10.667c7.467 6.4 20.267 9.6 28.8 4.267z"></path>
</svg>
