<!-- Generated by IcoMoon.io -->
<svg version="1.1" xmlns="http://www.w3.org/2000/svg" width="256" height="256" viewBox="0 0 256 256">
<title>error-o</title>
<path fill="#333" d="M128 43.429l-84.469 169.904h168.938l-84.469-169.904zM108.897 33.932c2.070-4.163 5.443-7.536 9.606-9.606 10.55-5.245 23.355-0.945 28.6 9.606l84.469 169.904c1.467 2.951 2.231 6.202 2.231 9.497 0 11.782-9.551 21.333-21.333 21.333h-168.938c-3.295 0-6.546-0.763-9.497-2.231-10.55-5.245-14.851-18.050-9.606-28.6l84.469-169.904z"></path>
<path fill="#333" d="M128 160c-5.891 0-10.667-4.776-10.667-10.667v-53.333c0-5.891 4.776-10.667 10.667-10.667s10.667 4.776 10.667 10.667v53.333c0 5.891-4.776 10.667-10.667 10.667zM128 170.667c8.837 0 16 7.163 16 16s-7.163 16-16 16c-8.837 0-16-7.163-16-16s7.163-16 16-16z"></path>
</svg>
