<!-- Generated by IcoMoon.io -->
<svg version="1.1" xmlns="http://www.w3.org/2000/svg" width="256" height="256" viewBox="0 0 256 256">
<title>folder-add</title>
<path fill="#333" d="M181.333 138.667v-21.333c0-6.4-4.267-10.667-10.667-10.667s-10.667 4.267-10.667 10.667v21.333h-21.333c-6.4 0-10.667 4.267-10.667 10.667s4.267 10.667 10.667 10.667h21.333v21.333c0 6.4 4.267 10.667 10.667 10.667s10.667-4.267 10.667-10.667v-21.333h21.333c6.4 0 10.667-4.267 10.667-10.667s-4.267-10.667-10.667-10.667h-21.333zM42.667 32h42.667c8.533 0 16 5.333 19.2 12.8l13.867 29.867h94.933c11.733 0 21.333 9.6 21.333 21.333v106.667c0 11.733-9.6 21.333-21.333 21.333h-170.667c-11.733 0-21.333-9.6-21.333-21.333 0 0 0 0 0 0v-149.333c0-11.733 9.6-21.333 21.333-21.333z"></path>
</svg>
