<!-- Generated by IcoMoon.io -->
<svg version="1.1" xmlns="http://www.w3.org/2000/svg" width="256" height="256" viewBox="0 0 256 256">
<title>help</title>
<path fill="#333" d="M128 234.667c-58.667 0-106.667-46.933-106.667-106.667s48-106.667 106.667-106.667 106.667 48 106.667 106.667-48 106.667-106.667 106.667zM128 141.867c2.133 0 4.267-1.067 5.333-2.133 2.133-1.067 2.133-3.2 3.2-5.333 0-2.133 2.133-4.267 3.2-6.4 2.133-2.133 4.267-4.267 7.467-7.467s6.4-6.4 8.533-8.533c2.133-2.133 4.267-5.333 6.4-8.533s2.133-6.4 2.133-10.667c0-5.333-1.067-9.6-4.267-13.867s-7.467-7.467-12.8-9.6c-5.333-2.133-11.733-3.2-18.133-3.2s-11.733 1.067-18.133 3.2c-5.333 1.067-10.667 4.267-14.933 7.467-2.133 1.067-3.2 3.2-4.267 4.267-1.067 2.133-1.067 3.2-1.067 5.333 0 3.2 1.067 6.4 3.2 8.533s4.267 3.2 6.4 3.2c2.133 0 5.333-1.067 8.533-3.2l4.267-2.133c3.2-2.133 5.333-3.2 7.467-4.267s4.267-1.067 7.467-1.067c3.2 0 5.333 1.067 6.4 2.133 2.133 1.067 2.133 3.2 2.133 5.333s-1.067 4.267-2.133 6.4c-1.067 2.133-3.2 4.267-5.333 6.4-3.2 3.2-6.4 6.4-7.467 9.6-2.133 3.2-3.2 7.467-3.2 12.8 0 3.2 1.067 5.333 2.133 7.467 2.133 3.2 4.267 4.267 7.467 4.267zM128 190.933c8.533 0 16-7.467 16-16s-7.467-16-16-16-16 7.467-16 16c0 8.533 7.467 16 16 16z"></path>
</svg>
