<!-- Generated by IcoMoon.io -->
<svg version="1.1" xmlns="http://www.w3.org/2000/svg" width="256" height="256" viewBox="0 0 256 256">
<title>instagram</title>
<path fill="#333" d="M128 234.667c-58.91 0-106.667-47.756-106.667-106.667s47.757-106.667 106.667-106.667c58.911 0 106.667 47.757 106.667 106.667v0c0 58.911-47.756 106.667-106.667 106.667v0zM192 101.653c-0.113-5.623-1.197-10.96-3.095-15.894l0.108 0.32c-1.793-4.475-4.401-8.281-7.667-11.402l-0.012-0.012c-3.132-3.186-6.943-5.693-11.2-7.29l-0.213-0.070c-4.559-1.892-9.843-3.086-15.379-3.304l-0.088-0.002c-6.827 0-9.067 0-26.453 0s-19.52 0-26.347 0c-5.611 0.082-10.953 1.131-15.898 2.987l0.325-0.108c-4.481 1.824-8.287 4.467-11.398 7.77l-0.015 0.016c-3.186 3.097-5.693 6.873-7.29 11.097l-0.070 0.21c-1.901 4.625-3.097 9.984-3.304 15.596l-0.002 0.085c0 6.827 0 8.96 0 26.347s0 19.52 0 26.347c0.054 5.615 1.146 10.959 3.091 15.873l-0.105-0.299c3.422 8.606 10.086 15.304 18.444 18.694l0.222 0.079c4.724 1.931 10.198 3.13 15.928 3.305l0.072 0.002c6.827 0 8.96 0 26.347 0s19.52 0 26.347 0c5.611-0.082 10.953-1.131 15.898-2.988l-0.325 0.107c8.617-3.412 15.302-10.132 18.59-18.552l0.077-0.222c2.027-4.716 3.268-10.194 3.412-15.944l0.001-0.056c0-6.827 0-8.96 0-26.347s0-19.52 0-26.347zM180.48 153.92c-0.095 4.274-0.908 8.331-2.323 12.093l0.083-0.252c-2.216 5.597-6.563 9.944-12.016 12.109l-0.144 0.050c-3.509 1.332-7.565 2.145-11.799 2.239l-0.041 0.001c-6.72 0-8.747 0-25.92 0s-19.093 0-25.813 0c-4.272-0.082-8.33-0.897-12.088-2.322l0.248 0.083c-5.597-2.216-9.944-6.563-12.109-12.016l-0.050-0.144c-1.332-3.509-2.145-7.566-2.239-11.799l-0.001-0.041c0-6.72 0-8.747 0-25.813s0-19.2 0-25.92c0.095-4.275 0.908-8.331 2.323-12.093l-0.083 0.252c2.145-5.542 6.373-9.874 11.699-12.108l0.141-0.052c3.517-1.338 7.586-2.118 11.834-2.133h0.007c6.827 0 8.853 0 25.92 0s19.093 0 25.813 0c0 0 0 0 0 0 4.252 0 8.322 0.782 12.072 2.212l-0.232-0.078c2.884 1.094 5.341 2.728 7.356 4.796l0.004 0.004c2.108 1.994 3.75 4.46 4.758 7.229l0.042 0.131c1.332 3.509 2.145 7.566 2.239 11.799l0.001 0.041c0 6.72 0 8.747 0 25.92s0.32 18.987 0 25.813zM128 95.147c-18.144 0-32.853 14.709-32.853 32.853s14.709 32.853 32.853 32.853c18.144 0 32.853-14.709 32.853-32.853v0c0-18.144-14.709-32.853-32.853-32.853v0zM128 149.333c-11.782 0-21.333-9.552-21.333-21.333s9.552-21.333 21.333-21.333c11.782 0 21.333 9.552 21.333 21.333v0c0 11.782-9.552 21.333-21.333 21.333v0zM169.92 93.867c0-4.242-3.438-7.68-7.68-7.68s-7.68 3.438-7.68 7.68c0 4.242 3.438 7.68 7.68 7.68v0c4.242 0 7.68-3.438 7.68-7.68v0z"></path>
</svg>
