<!-- Generated by IcoMoon.io -->
<svg version="1.1" xmlns="http://www.w3.org/2000/svg" width="256" height="256" viewBox="0 0 256 256">
<title>left-end</title>
<path fill="#333" d="M65.778 202.667c-7.466 0-12.445-4.978-12.445-12.445v-124.444c0-7.466 4.978-12.445 12.445-12.445s12.445 4.978 12.445 12.445v124.444c0 7.466-4.978 12.445-12.445 12.445zM198.934 180.267c0 0 0 0 0 0 6.222 6.222 4.978 13.689 0 18.666-6.222 4.978-14.934 4.978-21.155 0l-69.689-60.978c0 0-1.245-1.245-1.245-1.245-4.978-4.978-3.734-12.445 1.245-17.422l69.689-60.978c6.222-4.978 14.934-4.978 21.155 0 0 0 1.245 1.245 1.245 1.245 4.978 4.978 3.733 13.689-1.245 17.422l-59.733 51.022 59.733 52.267z"></path>
</svg>
