<!-- Generated by IcoMoon.io -->
<svg version="1.1" xmlns="http://www.w3.org/2000/svg" width="256" height="256" viewBox="0 0 256 256">
<title>meh</title>
<path fill="#333" d="M209.237 101.803l-105.636-32.411-28.934 37.275-25.892-10.43c-3.94 9.818-6.108 20.537-6.108 31.764 0 47.128 38.205 85.333 85.333 85.333s85.333-38.205 85.333-85.333c0-9.139-1.437-17.943-4.096-26.197zM85.333 149.263c-5.891 0-10.667-4.776-10.667-10.667s4.776-10.667 10.667-10.667c5.891 0 10.667 4.776 10.667 10.667s-4.776 10.667-10.667 10.667zM170.667 149.263c-5.891 0-10.667-4.776-10.667-10.667s4.776-10.667 10.667-10.667c5.891 0 10.667 4.776 10.667 10.667s-4.776 10.667-10.667 10.667zM96 186.734c-2.945 0-5.333-2.388-5.333-5.333s2.388-5.333 5.333-5.333h64c2.946 0 5.333 2.388 5.333 5.333s-2.388 5.333-5.333 5.333h-64zM128 234.667c-58.91 0-106.667-47.756-106.667-106.667s47.756-106.667 106.667-106.667c58.91 0 106.667 47.756 106.667 106.667s-47.756 106.667-106.667 106.667z"></path>
</svg>
