<!-- Generated by IcoMoon.io -->
<svg version="1.1" xmlns="http://www.w3.org/2000/svg" width="256" height="256" viewBox="0 0 256 256">
<title>onboarding</title>
<path fill="#333" d="M64 42.667h21.333c0-11.782 9.552-21.333 21.333-21.333v0h42.667c11.782 0 21.333 9.552 21.333 21.333v0h21.333c11.782 0 21.333 9.552 21.333 21.333v0 149.333c0 11.782-9.552 21.333-21.333 21.333v0h-128c-11.782 0-21.333-9.552-21.333-21.333v0-149.333c0-11.782 9.552-21.333 21.333-21.333v0zM128 74.667c8.837 0 16-7.163 16-16s-7.163-16-16-16c-8.837 0-16 7.163-16 16v0c0 8.837 7.163 16 16 16v0zM123.52 179.2c1.373-0.73 2.537-1.657 3.508-2.76l0.012-0.013 52.16-62.827c1.506-1.826 2.42-4.189 2.42-6.765 0-3.271-1.472-6.198-3.791-8.155l-0.016-0.013c-1.826-1.507-4.189-2.42-6.765-2.42-3.271 0-6.198 1.472-8.155 3.791l-0.013 0.016-45.547 54.4-23.68-27.627c-1.964-2.22-4.82-3.612-8.001-3.612-2.703 0-5.171 1.005-7.051 2.662l0.012-0.010c-2.225 1.964-3.621 4.823-3.621 8.008 0 2.65 0.966 5.074 2.566 6.94l-0.013-0.014 32 36.8c1.959 2.153 4.772 3.498 7.899 3.498 2.272 0 4.378-0.71 6.109-1.922l-0.034 0.023z"></path>
</svg>
