<!-- Generated by IcoMoon.io -->
<svg version="1.1" xmlns="http://www.w3.org/2000/svg" width="256" height="256" viewBox="0 0 256 256">
<title>person</title>
<path fill="#333" d="M94.4 94.4h67.2c12.371 0 22.4 10.029 22.4 22.4v0 44.8c0 6.185-5.014 11.2-11.2 11.2v0h-11.2v56c0 6.185-5.014 11.2-11.2 11.2v0h-44.8c-6.186 0-11.2-5.014-11.2-11.2v0-56h-11.2c-6.186 0-11.2-5.014-11.2-11.2v0-44.8c0-12.371 10.029-22.4 22.4-22.4v0zM128 83.2c-18.557 0-33.6-15.043-33.6-33.6s15.043-33.6 33.6-33.6c18.557 0 33.6 15.043 33.6 33.6v0c0 18.557-15.043 33.6-33.6 33.6v0z"></path>
</svg>
