<!-- Generated by IcoMoon.io -->
<svg version="1.1" xmlns="http://www.w3.org/2000/svg" width="256" height="256" viewBox="0 0 256 256">
<title>sad</title>
<path fill="#333" d="M209.237 101.803l-105.636-32.411-28.934 37.275-25.892-10.43c-3.94 9.818-6.108 20.537-6.108 31.764 0 47.128 38.205 85.333 85.333 85.333s85.333-38.205 85.333-85.333c0-9.139-1.437-17.943-4.096-26.197zM178.843 131.104l-20.137 13.353 19.043 6.415c2.452 0.826 3.771 3.484 2.945 5.936s-3.484 3.771-5.936 2.945l-19.043-6.415c-1.973-0.665-3.668-1.967-4.819-3.702-2.86-4.314-1.682-10.129 2.631-12.989l20.137-13.353c2.157-1.43 5.065-0.841 6.495 1.316s0.841 5.064-1.315 6.495zM76.764 131.104c-2.157-1.43-2.746-4.338-1.316-6.495s4.338-2.746 6.495-1.316l20.137 13.353c4.314 2.86 5.492 8.676 2.631 12.989-1.15 1.735-2.846 3.037-4.819 3.702l-19.043 6.415c-2.453 0.826-5.11-0.492-5.936-2.945s0.492-5.11 2.945-5.936l19.043-6.415-20.137-13.353zM100.354 191.941c-1.701 2.405-5.029 2.975-7.434 1.274s-2.975-5.029-1.274-7.434c8.683-12.276 21.283-18.501 37.242-18.501 16.075 0 28.211 6.338 35.689 18.844 1.512 2.528 0.688 5.803-1.84 7.315s-5.803 0.688-7.315-1.84c-5.476-9.157-14.082-13.651-26.535-13.651-12.569 0-21.894 4.607-28.534 13.994zM128 234.667c-58.91 0-106.667-47.756-106.667-106.667s47.756-106.667 106.667-106.667c58.91 0 106.667 47.756 106.667 106.667s-47.756 106.667-106.667 106.667z"></path>
</svg>
