<!-- Generated by IcoMoon.io -->
<svg version="1.1" xmlns="http://www.w3.org/2000/svg" width="256" height="256" viewBox="0 0 256 256">
<title>share</title>
<path fill="#333" d="M158.933 128h-41.6c-23.467 0-42.667 17.067-42.667 40.533v24.533c0 10.667-9.6 20.267-21.333 20.267s-21.333-9.6-21.333-20.267v-24.533c0-45.867 38.4-83.2 85.333-83.2h41.6l-14.933-13.867c-6.4-6.4-6.4-16-1.067-23.467 0 0 0 0 1.067-1.067 7.467-6.4 18.133-6.4 24.533 0l50.133 46.933c6.4 6.4 6.4 16 1.067 23.467v0c0 0 0 0-1.067 1.067l-50.133 46.933c-7.467 6.4-18.133 6.4-24.533 0 0 0 0 0-1.067-1.067-6.4-6.4-6.4-17.067 1.067-23.467l14.933-12.8z"></path>
</svg>
