<!-- Generated by IcoMoon.io -->
<svg version="1.1" xmlns="http://www.w3.org/2000/svg" width="256" height="256" viewBox="0 0 256 256">
<title>skype</title>
<path fill="#333" d="M128 234.667c-58.91 0-106.667-47.756-106.667-106.667s47.757-106.667 106.667-106.667c58.911 0 106.667 47.757 106.667 106.667v0c0 58.911-47.756 106.667-106.667 106.667v0zM188.267 141.547c0.945-3.876 1.489-8.327 1.493-12.904v-0.002c-0.301-33.291-27.358-60.162-60.691-60.162-0.151 0-0.302 0.001-0.452 0.002l0.023-0c-3.769 0.004-7.463 0.314-11.061 0.907l0.394-0.053c-5.26-3.249-11.636-5.175-18.463-5.175-19.337 0-35.064 15.451-35.51 34.68l-0.001 0.042c0.003 6.539 1.827 12.653 4.992 17.859l-0.087-0.153c-0.814 3.567-1.28 7.665-1.28 11.872 0 0.064 0 0.127 0.001 0.192v-0.010c0.181 33.324 27.237 60.268 60.586 60.268 0.15 0 0.3-0.001 0.451-0.002l-0.023 0c3.813-0.063 7.493-0.447 11.067-1.13l-0.4 0.063c4.952 2.787 10.873 4.428 17.175 4.428 19.487 0 35.308-15.692 35.518-35.129l0-0.020c0-0.053 0-0.117 0-0.179 0-5.623-1.381-10.923-3.822-15.578l0.088 0.185zM160 157.44c-3.171 4.114-7.353 7.302-12.18 9.213l-0.193 0.067c-5.317 2.102-11.477 3.321-17.922 3.321-0.412 0-0.822-0.005-1.232-0.015l0.061 0.001c-0.499 0.018-1.085 0.030-1.673 0.030-7.333 0-14.278-1.663-20.479-4.632l0.286 0.123c-4.053-2.185-7.412-5.169-9.967-8.764l-0.060-0.089c-2.316-2.917-3.775-6.606-3.945-10.629l-0.001-0.037c-0-0.022-0.001-0.048-0.001-0.073 0-2.227 0.989-4.222 2.551-5.572l0.009-0.007c1.588-1.459 3.716-2.353 6.052-2.353 0.123 0 0.243 0.002 0.365 0.007l-0.017-0.001c0.022-0 0.047-0 0.073-0 1.993 0 3.826 0.683 5.278 1.827l-0.018-0.013c1.556 1.419 2.788 3.165 3.593 5.132l0.034 0.095c1 2.325 2.142 4.323 3.478 6.174l-0.065-0.094c1.385 1.65 3.093 2.982 5.030 3.907l0.090 0.038c2.433 0.953 5.248 1.506 8.193 1.506 0.269 0 0.538-0.005 0.806-0.013l-0.038 0.001c0.278 0.012 0.605 0.019 0.933 0.019 4.183 0 8.094-1.157 11.433-3.168l-0.1 0.056c2.631-1.562 4.388-4.352 4.48-7.56l0-0.012c0.006-0.105 0.008-0.227 0.008-0.351 0-2.101-0.906-3.989-2.349-5.298l-0.006-0.006c-1.773-1.655-3.968-2.881-6.405-3.498l-0.102-0.022c-2.773-0.853-6.507-1.813-11.2-2.773-6.097-1.236-11.419-2.856-16.515-4.916l0.622 0.222c-4.252-1.68-7.832-4.267-10.637-7.537l-0.030-0.036c-2.466-3.134-3.955-7.138-3.955-11.49 0-0.198 0.003-0.396 0.009-0.593l-0.001 0.028c-0.001-0.054-0.001-0.118-0.001-0.183 0-4.577 1.567-8.787 4.192-12.126l-0.032 0.043c3.058-3.696 7.069-6.502 11.658-8.053l0.182-0.053c5.242-1.892 11.293-2.987 17.597-2.987 0.038 0 0.077 0 0.115 0h-0.006c0.273-0.006 0.594-0.009 0.916-0.009 4.732 0 9.298 0.705 13.601 2.016l-0.33-0.087c4.066 1.015 7.631 2.707 10.757 4.969l-0.090-0.063c2.423 1.741 4.395 3.953 5.815 6.513l0.052 0.101c0.833 1.728 1.318 3.758 1.318 5.902 0 0.363-0.014 0.723-0.042 1.079l0.002-0.047c-0.034 2.29-0.964 4.356-2.454 5.868l0.001-0.001c-1.567 1.582-3.739 2.562-6.14 2.562-0.054 0-0.107-0.001-0.162-0.002l0.008 0c-0.153 0.011-0.333 0.017-0.512 0.017-1.785 0-3.428-0.609-4.731-1.63l0.017 0.013c-1.423-1.372-2.631-2.954-3.577-4.698l-0.050-0.102c-1.416-2.657-3.277-4.892-5.506-6.688l-0.041-0.032c-2.53-1.505-5.578-2.395-8.835-2.395-0.457 0-0.91 0.017-1.358 0.052l0.059-0.004c-0.272-0.013-0.59-0.021-0.909-0.021-3.588 0-6.953 0.957-9.853 2.632l0.095-0.051c-2.113 1.183-3.559 3.338-3.733 5.844l-0.001 0.022c0 0.001 0 0.001 0 0.002 0 1.293 0.442 2.481 1.183 3.423l-0.009-0.012c1.009 1.127 2.211 2.056 3.558 2.742l0.069 0.032c1.311 0.614 2.971 1.264 4.672 1.823l0.341 0.097 8.427 2.027c4.053 0.853 7.893 1.813 11.413 2.773l2.027 0.64c4.063 1.21 7.6 2.808 10.865 4.806l-0.198-0.112c5.684 3.531 9.412 9.739 9.412 16.818 0 0.35-0.009 0.697-0.028 1.042l0.002-0.048c0.001 0.093 0.002 0.202 0.002 0.312 0 4.869-1.518 9.383-4.105 13.097l0.049-0.075z"></path>
</svg>
