<!-- Generated by IcoMoon.io -->
<svg version="1.1" xmlns="http://www.w3.org/2000/svg" width="256" height="256" viewBox="0 0 256 256">
<title>smile</title>
<path fill="#333" d="M209.237 101.803l-105.636-32.411-28.934 37.275-25.892-10.43c-3.94 9.818-6.108 20.537-6.108 31.764 0 47.128 38.205 85.333 85.333 85.333s85.333-38.205 85.333-85.333c0-9.139-1.437-17.943-4.096-26.197zM191.791 143.887c0 2.946-2.388 5.333-5.333 5.333s-5.333-2.388-5.333-5.333c0-5.828-4.725-10.553-10.553-10.553s-10.553 4.725-10.553 10.553c0 2.946-2.388 5.333-5.333 5.333s-5.333-2.388-5.333-5.333c0-11.719 9.5-21.22 21.22-21.22s21.22 9.5 21.22 21.22zM106.553 143.887c0 2.946-2.388 5.333-5.333 5.333s-5.333-2.388-5.333-5.333c0-5.828-4.725-10.553-10.553-10.553s-10.553 4.725-10.553 10.553c0 2.946-2.388 5.333-5.333 5.333s-5.333-2.388-5.333-5.333c0-11.719 9.501-21.22 21.22-21.22s21.22 9.5 21.22 21.22zM165.472 167.593c1.635-2.45 4.946-3.111 7.397-1.476s3.111 4.947 1.476 7.397c-10.507 15.745-26.266 23.706-46.668 23.706-19.069 0-34.746-7.899-46.586-23.434-1.785-2.343-1.334-5.689 1.009-7.475s5.689-1.333 7.475 1.009c9.838 12.909 22.389 19.233 38.102 19.233 16.926 0 29.321-6.262 37.796-18.96zM128 234.667c-58.91 0-106.667-47.756-106.667-106.667s47.756-106.667 106.667-106.667c58.91 0 106.667 47.756 106.667 106.667s-47.756 106.667-106.667 106.667z"></path>
</svg>
