<!-- Generated by IcoMoon.io -->
<svg version="1.1" xmlns="http://www.w3.org/2000/svg" width="256" height="256" viewBox="0 0 256 256">
<title>sort-down</title>
<path fill="#333" d="M64 158.933l-16-16c-6.4-6.4-16-6.4-22.4 0s-6.4 16 0 22.4c0 0 0 0 0 0l40.533 41.6c1.067 1.067 1.067 2.133 2.133 2.133 4.267 3.2 7.467 4.267 11.733 4.267s8.533-1.067 11.733-4.267c1.067-1.067 1.067-1.067 2.133-2.133l40.533-41.6c0 0 0 0 0 0 6.4-6.4 6.4-16 0-22.4s-16-6.4-22.4 0l-16 16v-100.267c0-8.533-7.467-16-16-16v0c-8.533 0-16 7.467-16 16v100.267zM176 202.667h42.667c8.533 0 16-7.467 16-16s-7.467-16-16-16h-42.667c-8.533 0-16 7.467-16 16s7.467 16 16 16zM176 138.667h32c8.533 0 16-7.467 16-16s-7.467-16-16-16h-32c-8.533 0-16 7.467-16 16s7.467 16 16 16zM176 74.667h10.667c8.533 0 16-7.467 16-16s-7.467-16-16-16h-10.667c-8.533 0-16 7.467-16 16s7.467 16 16 16z"></path>
</svg>
