<!-- Generated by IcoMoon.io -->
<svg version="1.1" xmlns="http://www.w3.org/2000/svg" width="256" height="256" viewBox="0 0 256 256">
<title>swap-v-o</title>
<path fill="#333" d="M80 171.733v-107.733c0-6.4 4.267-10.667 10.667-10.667s10.667 4.267 10.667 10.667v107.733l9.6-8.533c4.267-3.2 9.6-3.2 13.867 0 3.2 3.2 3.2 8.533 0 11.733 0 0 0 0-1.067 1.067l-26.667 24.533c-1.067 1.067-4.267 2.133-6.4 2.133s-5.333-1.067-7.467-2.133l-26.667-24.533c0 0 0 0-1.067-1.067-3.2-3.2-3.2-8.533 0-11.733 4.267-3.2 9.6-3.2 13.867 0l10.667 8.533zM176 84.267v107.733c0 6.4-4.267 10.667-10.667 10.667s-10.667-4.267-10.667-10.667v-107.733l-9.6 8.533c-4.267 3.2-9.6 3.2-13.867 0-3.2-3.2-3.2-8.533 0-11.733 0 0 0 0 1.067-1.067l26.667-24.533c1.067-1.067 4.267-2.133 6.4-2.133s5.333 1.067 7.467 2.133l26.667 24.533c0 0 0 0 1.067 1.067 3.2 3.2 3.2 8.533 0 11.733-4.267 3.2-9.6 3.2-13.867 0l-10.667-8.533z"></path>
</svg>
