<!-- Generated by IcoMoon.io -->
<svg version="1.1" xmlns="http://www.w3.org/2000/svg" width="256" height="256" viewBox="0 0 256 256">
<title>tick</title>
<path fill="#333" d="M89.002 194.172v0l-54.703-54.703c-3.016-3.001-4.881-7.156-4.881-11.745 0-9.153 7.42-16.572 16.572-16.572 4.563 0 8.694 1.844 11.691 4.828l43.233 43.233 97.495-97.496c2.981-3.016 7.117-4.885 11.69-4.885s8.71 1.868 11.689 4.883l0.001 0.001c2.964 3.005 4.792 7.135 4.792 11.691s-1.83 8.686-4.795 11.693l-109.183 109.183c-2.981 3.016-7.117 4.885-11.691 4.885s-8.71-1.868-11.689-4.883l-0.001-0.001z"></path>
</svg>
