<!-- Generated by IcoMoon.io -->
<svg version="1.1" xmlns="http://www.w3.org/2000/svg" width="256" height="256" viewBox="0 0 256 256">
<title>add-folder-o</title>
<path fill="#333" d="M160 117.333v0c4.267 0 8.533 3.2 8.533 8.533v48c0 4.267-3.2 8.533-8.533 8.533v0c-4.267 0-8.533-3.2-8.533-8.533v-48c0-5.333 4.267-8.533 8.533-8.533z"></path>
<path fill="#333" d="M192 149.333v0c0 4.267-3.2 8.533-8.533 8.533h-48c-4.267 0-8.533-3.2-8.533-8.533v0c0-4.267 3.2-8.533 8.533-8.533h48c5.333 0 8.533 4.267 8.533 8.533z"></path>
<path fill="#333" d="M42.667 53.333v149.333h170.667v-106.667h-109.867l-18.133-42.667h-42.667zM42.667 32h42.667c8.533 0 16 5.333 19.2 12.8l13.867 29.867h94.933c11.733 0 21.333 9.6 21.333 21.333v106.667c0 11.733-9.6 21.333-21.333 21.333h-170.667c-11.733 0-21.333-9.6-21.333-21.333v-149.333c0-11.733 9.6-21.333 21.333-21.333z"></path>
</svg>
