<!-- Generated by IcoMoon.io -->
<svg version="1.1" xmlns="http://www.w3.org/2000/svg" width="256" height="256" viewBox="0 0 256 256">
<title>alpha-feedback-o</title>
<path fill="#333" d="M92.8 174.933l9.6 2.133c8.533 2.133 17.067 3.2 26.667 3.2 48 0 85.333-32 85.333-69.333s-38.4-68.267-86.4-68.267-85.333 32-85.333 69.333c0 17.067 7.467 34.133 22.4 46.933l8.533 7.467-3.2 24.533 22.4-16zM42.667 234.667l8.533-59.733c-19.2-17.067-29.867-39.467-29.867-62.933 0-51.2 48-90.667 106.667-90.667s106.667 39.467 106.667 90.667-48 90.667-106.667 90.667c-10.667 0-21.333-1.067-32-4.267l-53.333 36.267z"></path>
<path fill="#333" d="M153.6 138.667h-51.2l-5.333 11.733c-2.133 5.333-8.533 7.467-13.867 5.333s-7.467-8.533-5.333-13.867l39.467-82.133c2.133-4.267 6.4-6.4 10.667-6.4s7.467 2.133 9.6 6.4l39.467 81.067c2.133 5.333 0 11.733-5.333 13.867s-11.733 0-13.867-5.333l-4.267-10.667zM142.933 117.333l-14.933-29.867-14.933 29.867h29.867z"></path>
</svg>
