<!-- Generated by IcoMoon.io -->
<svg version="1.1" xmlns="http://www.w3.org/2000/svg" width="256" height="256" viewBox="0 0 256 256">
<title>alpha</title>
<path fill="#333" d="M142.933 28.8l84.267 84.267c8.533 8.533 8.533 21.333 0 29.867l-84.267 84.267c-8.533 8.533-21.333 8.533-29.867 0l-84.267-84.267c-8.533-8.533-8.533-21.333 0-29.867l84.267-84.267c8.533-8.533 21.333-8.533 29.867 0zM180.267 153.6l-38.4-81.067c-1.067-3.2-3.2-4.267-5.333-6.4-3.2-1.067-5.333-2.133-8.533-2.133s-5.333 1.067-8.533 2.133c-2.133 1.067-4.267 3.2-5.333 6.4l-38.4 81.067c-1.067 2.133-1.067 3.2-1.067 5.333 0 3.2 1.067 6.4 4.267 8.533 2.133 2.133 5.333 3.2 8.533 3.2 2.133 0 4.267-1.067 6.4-2.133s3.2-3.2 4.267-5.333l6.4-14.933h46.933l6.4 14.933c1.067 2.133 2.133 4.267 4.267 5.333s4.267 2.133 6.4 2.133c3.2 0 6.4-1.067 8.533-3.2s4.267-5.333 4.267-8.533c0-2.133 0-3.2-1.067-5.333zM114.133 128l13.867-33.067 14.933 33.067h-28.8z"></path>
</svg>
