<!-- Generated by IcoMoon.io -->
<svg version="1.1" xmlns="http://www.w3.org/2000/svg" width="256" height="256" viewBox="0 0 256 256">
<title>blade</title>
<path fill="#333" d="M145.067 89.6c9.6-9.6 22.4-14.933 36.267-14.933 28.8 0 53.333 24.533 53.333 53.333h-64c0 6.4-1.067 11.733-3.2 17.067 8.533 9.6 14.933 22.4 14.933 36.267 0 28.8-24.533 53.333-53.333 53.333v-64c-6.4 0-11.733-1.067-17.067-3.2-10.667 8.533-23.467 13.867-37.333 13.867-28.8 0-53.333-24.533-53.333-53.333h64c0-6.4 1.067-11.733 3.2-17.067-8.533-9.6-13.867-22.4-13.867-36.267 0-28.8 24.533-53.333 53.333-53.333v64c6.4 0 11.733 1.067 17.067 4.267zM128 146.133c10.667 0 18.133-8.533 18.133-18.133s-7.467-18.133-18.133-18.133-18.133 7.467-18.133 18.133 7.467 18.133 18.133 18.133z"></path>
</svg>
