<!-- Generated by IcoMoon.io -->
<svg version="1.1" xmlns="http://www.w3.org/2000/svg" width="256" height="256" viewBox="0 0 256 256">
<title>checklist-o</title>
<path fill="#333" d="M128 90.667c-8.533 0-16-7.467-16-16s7.467-16 16-16 16 7.467 16 16-7.467 16-16 16zM53.333 74.667v128c0 5.333 4.267 10.667 10.667 10.667h128c6.4 0 10.667-4.267 10.667-10.667v-128c0-5.333-4.267-10.667-10.667-10.667h-37.333v-10.667c0-4.267-4.267-8.533-8.533-8.533h-36.267c-5.333 0-8.533 4.267-8.533 8.533v10.667h-37.333c-6.4 0-10.667 4.267-10.667 10.667zM192 42.667c18.133 0 32 11.733 32 29.867v130.133c0 18.133-13.867 32-32 32h-128c-18.133 0-32-13.867-32-32v-130.133c0-18.133 13.867-29.867 32-29.867h17.067c4.267-11.733 16-21.333 28.8-21.333h36.267c12.8 0 24.533 9.6 28.8 21.333h17.067zM123.733 179.2c-4.267 3.2-10.667 3.2-14.933-1.067 0 0 0 0 0 0l-32-36.267c-4.267-4.267-3.2-10.667 1.067-14.933v0c4.267-4.267 10.667-3.2 14.933 1.067 0 0 0 0 0 0l23.467 27.733 45.867-54.4c4.267-4.267 10.667-5.333 14.933-1.067 0 0 0 0 0 0v0c4.267 4.267 5.333 10.667 1.067 14.933l-52.267 62.933c0-1.067-1.067 0-2.133 1.067z"></path>
</svg>
