<!-- Generated by IcoMoon.io -->
<svg version="1.1" xmlns="http://www.w3.org/2000/svg" width="256" height="256" viewBox="0 0 256 256">
<title>clock</title>
<path fill="#333" d="M128 234.667c-58.667 0-106.667-48-106.667-106.667s48-106.667 106.667-106.667 106.667 48 106.667 106.667-48 106.667-106.667 106.667zM132.267 134.4v-50.133c0-6.4-4.267-10.667-10.667-10.667s-10.667 4.267-10.667 10.667v64c0 4.267 2.133 7.467 5.333 9.6 2.133 1.067 5.333 2.133 8.533 1.067l53.333-13.867c5.333-1.067 9.6-7.467 7.467-12.8-1.067-5.333-7.467-9.6-12.8-7.467l-40.533 9.6z"></path>
</svg>
