<!-- Generated by IcoMoon.io -->
<svg version="1.1" xmlns="http://www.w3.org/2000/svg" width="256" height="256" viewBox="0 0 256 256">
<title>cloud-o</title>
<path fill="#333" d="M176.246 108.472c-4.595-21.826-25.272-37.908-48.246-37.908-18.38 0-35.61 10.338-43.651 25.272l-5.743 10.338-12.636 1.149c-17.231 2.297-29.867 17.231-29.867 33.313 0 18.38 14.934 33.313 34.462 33.313h124.061c13.785 0 25.272-10.339 25.272-24.123 0-12.636-10.339-22.974-22.974-22.974l-17.231-1.149-3.446-17.231zM198.072 103.877c25.272 1.149 44.8 21.826 44.8 45.949 0 25.272-21.826 47.097-48.246 47.097h-124.061c-32.164 0-57.436-25.272-57.436-56.287 0-28.718 22.974-52.841 51.692-55.138 11.487-22.974 35.61-37.908 63.18-37.908 34.462 0 64.328 24.123 70.072 56.287z"></path>
</svg>
