<!-- Generated by IcoMoon.io -->
<svg version="1.1" xmlns="http://www.w3.org/2000/svg" width="256" height="256" viewBox="0 0 256 256">
<title>doc-add</title>
<path fill="#333" d="M138.667 21.333v64h74.667v128c0 11.733-9.6 21.333-21.333 21.333h-128c-11.733 0-21.333-9.6-21.333-21.333v-170.667c0-11.733 9.6-21.333 21.333-21.333h74.667zM160 21.333h1.067l52.267 42.667h-53.333v-42.667zM138.667 144v-26.667c0-6.4-4.267-10.667-10.667-10.667s-10.667 4.267-10.667 10.667v26.667h-26.667c-6.4 0-10.667 4.267-10.667 10.667s4.267 10.667 10.667 10.667h26.667v26.667c0 6.4 4.267 10.667 10.667 10.667s10.667-4.267 10.667-10.667v-26.667h26.667c6.4 0 10.667-4.267 10.667-10.667s-4.267-10.667-10.667-10.667h-26.667z"></path>
</svg>
