<!-- Generated by IcoMoon.io -->
<svg version="1.1" xmlns="http://www.w3.org/2000/svg" width="256" height="256" viewBox="0 0 256 256">
<title>image</title>
<path fill="#333" d="M42.667 42.667h170.667c11.733 0 21.333 9.6 21.333 21.333v128c0 11.733-9.6 21.333-21.333 21.333h-170.667c-11.733 0-21.333-9.6-21.333-21.333v-128c0-11.733 9.6-21.333 21.333-21.333zM85.333 114.133c-1.067 0-1.067-1.067-2.133-1.067-5.333-2.133-11.733 1.067-13.867 6.4l-22.4 58.667c0 1.067-1.067 2.133-1.067 4.267 0 6.4 4.267 10.667 10.667 10.667h109.867c3.2 0 6.4-2.133 8.533-4.267 3.2-5.333 2.133-11.733-3.2-14.933l-86.4-59.733zM183.467 112c10.667 0 19.2-8.533 19.2-19.2s-8.533-18.133-19.2-18.133-19.2 8.533-19.2 19.2 9.6 18.133 19.2 18.133z"></path>
</svg>
