<!-- Generated by IcoMoon.io -->
<svg version="1.1" xmlns="http://www.w3.org/2000/svg" width="256" height="256" viewBox="0 0 256 256">
<title>info</title>
<path fill="#333" d="M128 234.667c-58.667 0-106.667-48-106.667-106.667s48-106.667 106.667-106.667 106.667 48 106.667 106.667-48 106.667-106.667 106.667zM128 106.667c-8.533 0-16 7.467-16 16v64c0 8.533 7.467 16 16 16s16-7.467 16-16v-64c0-8.533-7.467-16-16-16zM128 85.333c8.533 0 16-7.467 16-16s-7.467-16-16-16-16 7.467-16 16 7.467 16 16 16z"></path>
</svg>
