<!-- Generated by IcoMoon.io -->
<svg version="1.1" xmlns="http://www.w3.org/2000/svg" width="256" height="256" viewBox="0 0 256 256">
<title>job</title>
<path fill="#333" d="M53.333 85.333l8.533-37.333c3.2-9.6 11.733-16 21.333-16h90.667c9.6 0 18.133 6.4 20.267 16l9.6 37.333h9.6c11.733 0 21.333 9.6 21.333 21.333v5.333l-102.4 26.667c-3.2 1.067-5.333 1.067-8.533 0l-102.4-26.667v-5.333c0-11.733 9.6-21.333 21.333-21.333h10.667zM87.467 85.333h83.2l-3.2-12.8c-1.067-5.333-5.333-8.533-10.667-8.533h-56.533c-4.267 0-8.533 3.2-9.6 8.533l-3.2 12.8zM21.333 134.4l102.4 25.6c3.2 1.067 6.4 1.067 8.533 0l102.4-25.6v68.267c0 11.733-9.6 21.333-21.333 21.333h-170.667c-11.733 0-21.333-9.6-21.333-21.333v-68.267z"></path>
</svg>
