<!-- Generated by IcoMoon.io -->
<svg version="1.1" xmlns="http://www.w3.org/2000/svg" width="256" height="256" viewBox="0 0 256 256">
<title>key</title>
<path fill="#333" d="M119.703 121.212l76.179-76.179 15.085 15.085-22.627 22.628 30.17 30.17-15.085 15.085-30.17-30.17-38.467 38.467c13.72 20.708 11.457 48.883-6.788 67.128-20.828 20.828-54.597 20.828-75.425 0s-20.828-54.597 0-75.425c18.245-18.245 46.42-20.507 67.128-6.788zM112.915 188.34c12.497-12.497 12.497-32.758 0-45.255s-32.758-12.497-45.255 0c-12.497 12.497-12.497 32.758 0 45.255s32.758 12.497 45.255 0z"></path>
</svg>
