<!-- Generated by IcoMoon.io -->
<svg version="1.1" xmlns="http://www.w3.org/2000/svg" width="256" height="256" viewBox="0 0 256 256">
<title>paw</title>
<path fill="#333" d="M158.933 121.6c9.6 10.667 17.067 19.2 26.667 29.867 13.867 12.8 30.933 27.733 27.733 49.067-3.2 10.667-10.667 20.267-24.533 23.467-8.533 0-113.067 0-120.533-1.067-13.867-3.2-21.333-12.8-24.533-23.467-3.2-20.267 13.867-35.2 27.733-48 9.6-10.667 17.067-19.2 26.667-29.867 5.333-5.333 11.733-10.667 19.2-13.867 1.067 0 2.133-1.067 3.2-1.067 3.2 0 5.333 0 8.533 0s5.333 0 8.533 0c1.067 0 2.133 0 3.2 1.067 6.4 3.2 12.8 8.533 18.133 13.867zM208 117.333c-14.933 0-26.667-11.733-26.667-26.667s11.733-26.667 26.667-26.667 26.667 11.733 26.667 26.667-11.733 26.667-26.667 26.667zM160 74.667c-14.933 0-26.667-11.733-26.667-26.667s11.733-26.667 26.667-26.667 26.667 11.733 26.667 26.667-11.733 26.667-26.667 26.667zM48 117.333c-14.933 0-26.667-11.733-26.667-26.667s11.733-26.667 26.667-26.667 26.667 11.733 26.667 26.667-11.733 26.667-26.667 26.667zM96 74.667c-14.933 0-26.667-11.733-26.667-26.667s11.733-26.667 26.667-26.667 26.667 11.733 26.667 26.667-11.733 26.667-26.667 26.667z"></path>
</svg>
