<!-- Generated by IcoMoon.io -->
<svg version="1.1" xmlns="http://www.w3.org/2000/svg" width="256" height="256" viewBox="0 0 256 256">
<title>star</title>
<path fill="#333" d="M142.933 30.933l20.267 42.667c2.133 5.333 7.467 8.533 12.8 9.6l44.8 6.4c13.867 2.133 19.2 19.2 9.6 28.8l-33.067 33.067c-4.267 4.267-5.333 9.6-4.267 14.933l7.467 46.933c2.133 13.867-11.733 24.533-23.467 18.133l-40.533-22.4c-4.267-2.133-10.667-2.133-14.933 0l-40.533 22.4c-11.733 6.4-26.667-4.267-23.467-18.133l6.4-45.867c1.067-5.333-1.067-11.733-4.267-14.933l-33.067-33.067c-9.6-9.6-4.267-27.733 9.6-28.8l44.8-6.4c5.333-1.067 9.6-4.267 12.8-9.6l20.267-42.667c5.333-13.867 23.467-13.867 28.8-1.067z"></path>
</svg>
