<!-- Generated by IcoMoon.io -->
<svg version="1.1" xmlns="http://www.w3.org/2000/svg" width="256" height="256" viewBox="0 0 256 256">
<title>support</title>
<path fill="#333" d="M147.2 198.4c13.867-7.467 23.467-21.333 23.467-38.4v-64c0-23.467-19.2-42.667-42.667-42.667s-42.667 19.2-42.667 42.667v53.333c0 18.133-13.867 32-32 32s-32-13.867-32-32v-16c0-18.133 13.867-32 32-32v-5.333c0-41.6 33.067-74.667 74.667-74.667s74.667 33.067 74.667 74.667v5.333c18.133 0 32 13.867 32 32v16c0 18.133-13.867 32-32 32-1.067 0-2.133 0-3.2 0-9.6 30.933-37.333 53.333-71.467 53.333-2.133 0-3.2 0-5.333 0-14.933 0-26.667-11.733-26.667-26.667s11.733-26.667 26.667-26.667c10.667 0 20.267 6.4 24.533 17.067z"></path>
</svg>
