<!-- Generated by IcoMoon.io -->
<svg version="1.1" xmlns="http://www.w3.org/2000/svg" width="256" height="256" viewBox="0 0 256 256">
<title>tape</title>
<path fill="#333" d="M213.333 53.333l21.333 21.333-21.333 21.333 21.333 21.333-21.333 21.333h-32v24.533c0 20.267-38.4 39.467-81.067 39.467s-78.933-19.2-78.933-39.467v-60.8c0-25.6 29.867-49.067 96-49.067h96zM101.333 122.667c32 0 58.667-11.733 58.667-26.667s-26.667-26.667-58.667-26.667-58.667 11.733-58.667 26.667 26.667 26.667 58.667 26.667zM100.267 106.667c-18.133 0-32-6.4-32-12.8s13.867-12.8 32-12.8 32 6.4 32 12.8-13.867 12.8-32 12.8z"></path>
</svg>
