<!-- Generated by IcoMoon.io -->
<svg version="1.1" xmlns="http://www.w3.org/2000/svg" width="256" height="256" viewBox="0 0 256 256">
<title>team</title>
<path fill="#333" d="M170.667 85.333c0 23.564-19.103 42.667-42.667 42.667s-42.667-19.103-42.667-42.667c0-23.564 19.103-42.667 42.667-42.667s42.667 19.103 42.667 42.667z"></path>
<path fill="#333" d="M128 145.067c51.2 0 79.238 15.848 85.333 48.762v0c1.219 9.752-4.876 18.286-14.629 19.505-1.219 0-1.219 0-2.438 0h-136.533c-9.752 0-17.067-7.315-17.067-17.067 0-1.219 0-2.438 0-2.438 6.095-32.915 34.133-48.762 85.333-48.762z"></path>
<path fill="#333" d="M237.714 91.428c0 13.465-10.916 24.381-24.381 24.381s-24.381-10.916-24.381-24.381c0-13.465 10.916-24.381 24.381-24.381s24.381 10.916 24.381 24.381z"></path>
<path fill="#333" d="M218.209 164.571c-8.533-12.191-24.381-21.943-46.324-29.257 7.315-4.876 18.285-7.314 34.133-7.314 25.6 0 40.228 7.314 45.105 23.162v0c1.219 6.095-2.438 12.191-7.315 13.409-1.219 0-2.438 0-2.438 0h-23.162z"></path>
<path fill="#333" d="M37.791 164.571c8.533-12.191 24.381-21.943 46.324-29.257-7.314-4.876-18.285-7.314-32.914-7.314-25.6 0-40.228 7.314-45.105 23.162v0c-1.219 6.095 2.438 12.191 7.314 13.409 1.219 0 2.438 0 2.438 0h21.943z"></path>
<path fill="#333" d="M63.391 91.428c0 13.465-10.916 24.381-24.381 24.381s-24.381-10.916-24.381-24.381c0-13.465 10.916-24.381 24.381-24.381s24.381 10.916 24.381 24.381z"></path>
</svg>
