<!-- Generated by IcoMoon.io -->
<svg version="1.1" xmlns="http://www.w3.org/2000/svg" width="256" height="256" viewBox="0 0 256 256">
<title>tick-circle-o</title>
<path fill="#333" d="M128 213.333c47.128 0 85.333-38.205 85.333-85.333s-38.205-85.333-85.333-85.333c-47.128 0-85.333 38.205-85.333 85.333v0c0 47.128 38.205 85.333 85.333 85.333v0zM128 234.667c-58.91 0-106.667-47.756-106.667-106.667s47.757-106.667 106.667-106.667c58.911 0 106.667 47.757 106.667 106.667v0c0 58.911-47.756 106.667-106.667 106.667v0zM117.333 169.707c-1.413 0.739-3.088 1.173-4.862 1.173-2.93 0-5.584-1.181-7.512-3.093l-31.999-31.999c-1.948-1.933-3.155-4.613-3.155-7.573s1.207-5.64 3.154-7.573l0.001-0.001 0.747-0.64c1.928-1.917 4.586-3.102 7.52-3.102s5.593 1.185 7.52 3.103l-0.001-0.001 24 23.893 55.68-55.68c1.928-1.917 4.586-3.102 7.52-3.102s5.593 1.185 7.52 3.103l0.746 0.746c1.917 1.928 3.102 4.586 3.102 7.52s-1.185 5.593-3.102 7.52l0-0.001-64 63.467c-0.819 0.882-1.769 1.627-2.822 2.211l-0.058 0.029z"></path>
</svg>
