<!-- Generated by IcoMoon.io -->
<svg version="1.1" xmlns="http://www.w3.org/2000/svg" width="256" height="256" viewBox="0 0 256 256">
<title>upload</title>
<path fill="#333" d="M149.333 94.933v64c0 11.733-9.6 21.333-21.333 21.333s-21.333-9.6-21.333-21.333v-64l-24.533 24.533c-8.533 8.533-21.333 8.533-29.867 0s-8.533-21.333 0-29.867l60.8-60.8c4.267-5.333 9.6-7.467 14.933-7.467s10.667 2.133 14.933 6.4l60.8 60.8c8.533 8.533 8.533 21.333 0 29.867s-21.333 8.533-29.867 0l-24.533-23.467zM37.333 202.667h181.333c8.533 0 16 7.467 16 16s-7.467 16-16 16h-181.333c-8.533 0-16-7.467-16-16s7.467-16 16-16z"></path>
</svg>
