<!-- Generated by IcoMoon.io -->
<svg version="1.1" xmlns="http://www.w3.org/2000/svg" width="256" height="256" viewBox="0 0 256 256">
<title>warning-o</title>
<path fill="#333" d="M128 213.333c47.128 0 85.333-38.205 85.333-85.333s-38.205-85.333-85.333-85.333c-47.128 0-85.333 38.205-85.333 85.333s38.205 85.333 85.333 85.333zM128 234.667c-58.91 0-106.667-47.756-106.667-106.667s47.756-106.667 106.667-106.667c58.91 0 106.667 47.756 106.667 106.667s-47.756 106.667-106.667 106.667z"></path>
<path fill="#333" d="M128 139.013c-5.891 0-10.667-4.776-10.667-10.667v-53.333c0-5.891 4.776-10.667 10.667-10.667s10.667 4.776 10.667 10.667v53.333c0 5.891-4.776 10.667-10.667 10.667zM128 160.346c8.837 0 16 7.163 16 16s-7.163 16-16 16c-8.837 0-16-7.163-16-16s7.163-16 16-16z"></path>
</svg>
