<!-- Generated by IcoMoon.io -->
<svg version="1.1" xmlns="http://www.w3.org/2000/svg" width="256" height="256" viewBox="0 0 256 256">
<title>add-circle</title>
<path fill="#333" d="M21.333 128c0-58.91 47.757-106.667 106.667-106.667s106.667 47.757 106.667 106.667c0 58.911-47.756 106.667-106.667 106.667v0c-58.91 0-106.667-47.756-106.667-106.667v0zM138.667 137.92h40.64c5.891 0 10.667-4.776 10.667-10.667s-4.776-10.667-10.667-10.667v0h-40.64v-43.307c0-5.891-4.776-10.667-10.667-10.667s-10.667 4.776-10.667 10.667v0 43.307h-40.64c-5.891 0-10.667 4.776-10.667 10.667s4.776 10.667 10.667 10.667v0h40.64v43.413c0 5.891 4.776 10.667 10.667 10.667s10.667-4.776 10.667-10.667v0z"></path>
</svg>
