<!-- Generated by IcoMoon.io -->
<svg version="1.1" xmlns="http://www.w3.org/2000/svg" width="256" height="256" viewBox="0 0 256 256">
<title>analytics</title>
<path fill="#333" d="M74.667 129.067c5.333 0 10.667 5.333 10.667 12.8v80c0 7.467-5.333 12.8-10.667 12.8h-21.333c-6.4 0-10.667-6.4-10.667-13.867v-78.933c0-7.467 5.333-13.867 10.667-13.867h21.333zM202.667 67.2c6.4 0 10.667 5.333 10.667 13.867v140.8c0 7.467-5.333 13.867-10.667 13.867h-21.333c-5.333 0-10.667-6.4-10.667-13.867v-141.867c0-7.467 4.267-13.867 10.667-13.867h21.333zM138.667 23.467c5.333 0 10.667 5.333 10.667 12.8v184.533c0 7.467-5.333 13.867-10.667 13.867h-21.333c-6.4 0-10.667-6.4-10.667-13.867v-184.533c0-7.467 5.333-12.8 10.667-12.8h21.333z"></path>
</svg>
