<!-- Generated by IcoMoon.io -->
<svg version="1.1" xmlns="http://www.w3.org/2000/svg" width="256" height="256" viewBox="0 0 256 256">
<title>arrow-up</title>
<path fill="#333" d="M170.207 149.452v53.318c0 11.778-9.548 21.326-21.326 21.326v0h-42.654c-11.778 0-21.326-9.548-21.326-21.326v0-53.318h-53.318c-0.198 0.014-0.429 0.022-0.662 0.022-5.536 0-10.024-4.488-10.024-10.024 0-0.232 0.008-0.464 0.024-0.692l-0.003 0.031c-0.003-0.078-0.003-0.168-0.003-0.26 0-2.854 1.232-5.421 3.195-7.196l0.008-0.007 88.507-92.772c3.894-4.099 9.385-6.648 15.472-6.648 5.552 0 10.607 2.121 14.402 5.597l-0.016-0.015 1.066 1.066 88.507 92.772c1.885 1.921 3.048 4.557 3.048 7.464s-1.164 5.543-3.050 7.466l0.003-0.003c-2.311 1.903-5.272 3.093-8.507 3.198l-0.023 0.001z"></path>
</svg>
