<!-- Generated by IcoMoon.io -->
<svg version="1.1" xmlns="http://www.w3.org/2000/svg" width="256" height="256" viewBox="0 0 256 256">
<title>arrow-right</title>
<path fill="#333" d="M106.667 170.667h-53.333c-11.733 0-21.333-9.6-21.333-21.333v-42.667c0-11.733 9.6-21.333 21.333-21.333h53.333v-53.333c0-6.4 4.267-10.667 10.667-10.667 3.2 0 5.333 1.067 7.467 3.2l92.8 88.533c8.533 8.533 8.533 21.333 1.067 29.867 0 0 0 0-1.067 1.067l-92.8 88.533c-4.267 4.267-10.667 4.267-14.933 0-2.133-3.2-3.2-6.4-3.2-8.533v-53.333z"></path>
</svg>
