<!-- Generated by IcoMoon.io -->
<svg version="1.1" xmlns="http://www.w3.org/2000/svg" width="256" height="256" viewBox="0 0 256 256">
<title>beta</title>
<path fill="#333" d="M142.934 28.8l84.267 84.267c8.533 8.533 8.533 21.333 0 29.867l-84.267 84.267c-8.533 8.533-21.333 8.533-29.867 0l-84.267-84.267c-8.533-8.533-8.533-21.333 0-29.867l84.267-84.267c7.467-8.533 21.333-8.533 29.867 0zM158.934 129.067v0c5.333-2.133 9.6-5.333 11.733-9.6 3.2-4.267 4.267-8.533 4.267-14.933 0-8.533-3.2-14.933-9.6-20.267s-14.933-6.4-26.667-6.4h-38.4c-4.267 0-7.467 1.067-9.6 3.2s-3.2 5.333-3.2 9.6v81.067c0 4.267 1.067 7.467 3.2 9.6s5.333 3.2 9.6 3.2h40.533c7.467 0 13.867-1.067 20.267-3.2s9.6-5.333 12.8-10.667c3.2-4.267 4.267-9.6 4.267-14.933 0-6.4-2.133-11.733-5.333-17.067-3.2-4.267-7.467-7.467-13.867-9.6zM108.8 120.533v-21.333h24.533c6.4 0 10.667 1.067 13.867 2.133 3.2 2.133 4.267 5.333 4.267 8.533s-1.067 6.4-4.267 7.467c-3.2 2.133-7.467 2.133-13.867 2.133h-24.533zM108.8 163.2v-21.333h24.533c6.4 0 10.667 1.067 13.867 2.133 3.2 2.133 4.267 4.267 4.267 8.533 0 3.2-1.067 6.4-4.267 7.467-3.2 2.133-7.467 2.133-13.867 2.133h-24.533z"></path>
</svg>
