<!-- Generated by IcoMoon.io -->
<svg version="1.1" xmlns="http://www.w3.org/2000/svg" width="256" height="256" viewBox="0 0 256 256">
<title>beta-o</title>
<path fill="#333" d="M149.333 125.867c5.333 1.067 8.533 4.267 11.733 7.467s4.267 8.533 4.267 12.8c0 4.267-1.067 8.533-3.2 12.8s-6.4 6.4-10.667 8.533c-4.267 2.133-9.6 3.2-16 3.2h-32c-3.2 0-6.4-1.067-7.467-2.133-2.133-2.133-3.2-4.267-3.2-7.467v-65.067c0-3.2 1.067-5.333 3.2-7.467 0-2.133 2.133-3.2 5.333-3.2h30.933c8.533 0 16 2.133 21.333 6.4s7.467 9.6 7.467 16c0 4.267-1.067 8.533-3.2 11.733-1.067 3.2-4.267 5.333-8.533 6.4v0zM108.8 119.467h19.2c5.333 0 8.533-1.067 11.733-2.133 2.133-1.067 3.2-3.2 3.2-6.4s-1.067-5.333-3.2-6.4c-2.133-1.067-6.4-2.133-11.733-2.133h-19.2v17.067zM108.8 153.6h19.2c5.333 0 8.533-1.067 11.733-2.133 2.133-1.067 3.2-3.2 3.2-6.4s-1.067-5.333-3.2-6.4c-2.133-1.067-6.4-2.133-11.733-2.133h-19.2v17.067z"></path>
<path fill="#333" d="M128 43.733l-84.267 84.267 84.267 84.267 84.267-84.267-84.267-84.267zM142.933 28.8l84.267 84.267c8.533 8.533 8.533 21.333 0 29.867l-84.267 84.267c-8.533 8.533-21.333 8.533-29.867 0l-84.267-84.267c-8.533-8.533-8.533-21.333 0-29.867l84.267-84.267c8.533-8.533 21.333-8.533 29.867 0z"></path>
</svg>
