<!-- Generated by IcoMoon.io -->
<svg version="1.1" xmlns="http://www.w3.org/2000/svg" width="256" height="256" viewBox="0 0 256 256">
<title>bucket-1</title>
<path fill="#333" d="M154.724 34.326l66.217 67.068c6.688 6.82 10.816 16.171 10.816 26.487s-4.128 19.667-10.822 26.493l0.006-0.006-66.217 67.068c-6.867 6.97-16.41 11.289-26.96 11.289-10.315 0-19.666-4.128-26.492-10.822l0.006 0.006v-0.473l-66.217-67.068c-6.688-6.82-10.816-16.171-10.816-26.487s4.128-19.667 10.822-26.493l-0.005 0.006 66.217-67.068c6.844-6.828 16.29-11.050 26.724-11.050s19.88 4.222 26.724 11.051l-0.001-0.001zM132.399 52.204l-80.311 80.311 20.054 20.054 80.311-80.311zM184.521 104.232l-80.406 80.406 20.054 20.054 80.311-80.311z"></path>
</svg>
