<!-- Generated by IcoMoon.io -->
<svg version="1.1" xmlns="http://www.w3.org/2000/svg" width="256" height="256" viewBox="0 0 256 256">
<title>download-o</title>
<path fill="#333" d="M32 213.333h192c6.4 0 10.667 4.267 10.667 10.667s-4.267 10.667-10.667 10.667h-192c-6.4 0-10.667-4.267-10.667-10.667s4.267-10.667 10.667-10.667zM117.333 155.733v-123.733c0-6.4 4.267-10.667 10.667-10.667s10.667 4.267 10.667 10.667v123.733l42.667-42.667c4.267-4.267 10.667-4.267 14.933 0s4.267 10.667 0 14.933l-60.8 60.8c-1.067 1.067-2.133 1.067-3.2 2.133s-2.133 1.067-4.267 1.067c-1.067 0-3.2 0-4.267-1.067-1.067 0-3.2-1.067-4.267-2.133l-59.733-60.8c-4.267-4.267-4.267-10.667 0-14.933s10.667-4.267 14.933 0l42.667 42.667z"></path>
</svg>
