<!-- Generated by IcoMoon.io -->
<svg version="1.1" xmlns="http://www.w3.org/2000/svg" width="256" height="256" viewBox="0 0 256 256">
<title>folder-open-o</title>
<path fill="#333" d="M28.8 101.333v-37.333c0-18.133 14.933-32 33.067-32h36.267c12.8 0 24.533 7.467 29.867 19.2l8.533 18.133 2.133-1.067h74.667c11.733 0 21.333 9.6 21.333 21.333 0 1.067 0 2.133 0 3.2l-18.133 113.067c-2.133 10.667-10.667 18.133-21.333 18.133h-135.467c-10.667 0-19.2-7.467-21.333-17.067l-17.067-85.333c-1.067-7.467 2.133-14.933 7.467-20.267zM51.2 96h40.533l26.667-16-9.6-20.267c-2.133-4.267-6.4-6.4-10.667-6.4h-36.267c-6.4 0-10.667 4.267-10.667 10.667v32zM96 117.333h-53.333l17.067 85.333h134.4l19.2-113.067h-68.267l-49.067 27.733z"></path>
</svg>
