<!-- Generated by IcoMoon.io -->
<svg version="1.1" xmlns="http://www.w3.org/2000/svg" width="256" height="256" viewBox="0 0 256 256">
<title>github</title>
<path fill="#333" d="M126.933 21.333c-59.733 0-105.6 44.8-105.6 104.533 0 48 29.867 88.533 72.533 102.4 5.333 1.067 7.467-2.133 7.467-5.333s0-17.067 0-26.667c0 0-29.867 6.4-36.267-12.8 0 0-5.333-12.8-11.733-16 0 0-9.6-6.4 1.067-6.4 0 0 10.667 1.067 17.067 10.667 9.6 17.067 25.6 11.733 30.933 8.533 1.067-6.4 4.267-11.733 6.4-14.933-24.533-3.2-48-6.4-48-48 0-11.733 3.2-18.133 10.667-25.6-2.133 1.067-5.333-10.667 0-25.6 8.533-3.2 29.867 11.733 29.867 11.733 8.533-3.2 18.133-4.267 26.667-4.267 9.6 0 18.133 1.067 26.667 3.2 0 0 20.267-14.933 29.867-11.733 6.4 14.933 2.133 26.667 1.067 28.8 6.4 7.467 10.667 13.867 10.667 25.6 0 41.6-25.6 44.8-49.067 48 4.267 3.2 7.467 9.6 7.467 20.267 0 14.933 0 32 0 36.267 0 3.2 2.133 6.4 7.467 5.333 42.667-13.867 72.533-55.467 72.533-102.4 0-60.8-48-105.6-107.733-105.6z"></path>
</svg>
