<!-- Generated by IcoMoon.io -->
<svg version="1.1" xmlns="http://www.w3.org/2000/svg" width="256" height="256" viewBox="0 0 256 256">
<title>info-o</title>
<path fill="#333" d="M128 213.333c46.933 0 85.333-38.4 85.333-85.333s-38.4-85.333-85.333-85.333-85.333 38.4-85.333 85.333 38.4 85.333 85.333 85.333zM128 234.667c-58.667 0-106.667-48-106.667-106.667s48-106.667 106.667-106.667 106.667 48 106.667 106.667-48 106.667-106.667 106.667zM128 102.4c6.4 0 10.667 4.267 10.667 10.667v64c0 6.4-4.267 10.667-10.667 10.667s-10.667-4.267-10.667-10.667v-64c0-5.333 4.267-10.667 10.667-10.667zM128 89.6c-6.4 0-10.667-4.267-10.667-10.667s4.267-10.667 10.667-10.667 10.667 4.267 10.667 10.667-4.267 10.667-10.667 10.667z"></path>
</svg>
