<!-- Generated by IcoMoon.io -->
<svg version="1.1" xmlns="http://www.w3.org/2000/svg" width="256" height="256" viewBox="0 0 256 256">
<title>integration</title>
<path fill="#333" d="M94.933 212.267l25.6-25.6c2.133 0 5.333 0 7.467 0 30.933 0 56.533-25.6 56.533-56.533s-25.6-55.467-56.533-55.467c-3.2 0-5.333 0-8.533 1.067l-25.6-26.667c4.267-2.133 9.6-3.2 13.867-4.267l4.267-23.467h32l4.267 23.467c8.533 2.133 17.067 5.333 24.533 9.6l19.2-12.8 22.4 22.4-12.8 18.133c5.333 7.467 9.6 17.067 11.733 25.6l21.333 3.2v32l-20.267 3.2c-2.133 10.667-5.333 20.267-10.667 28.8l11.733 16-23.467 23.467-14.933-10.667c-8.533 6.4-19.2 10.667-29.867 12.8l-3.2 18.133h-32l-3.2-18.133c-4.267-1.067-9.6-2.133-13.867-4.267zM132.267 118.4c1.067 0 1.067 1.067 2.133 2.133 6.4 6.4 6.4 16 0 22.4l-43.733 43.733c-5.333 5.333-16 5.333-22.4 0-6.4-6.4-6.4-16 0-22.4l14.933-14.933h-45.867c-8.533 0-16-7.467-16-16s7.467-16 16-16h49.067l-18.133-18.133c-6.4-6.4-6.4-16 0-22.4s16-6.4 22.4 0l41.6 41.6z"></path>
</svg>
