<!-- Generated by IcoMoon.io -->
<svg version="1.1" xmlns="http://www.w3.org/2000/svg" width="256" height="256" viewBox="0 0 256 256">
<title>pin</title>
<path fill="#333" d="M87.467 195.2l-56.533 37.333c-1.067 2.133-2.133 2.133-3.2 2.133-2.133 0-3.2-1.067-4.267-2.133-2.133-2.133-2.133-5.333-1.067-7.467l38.4-56.533 26.667 26.667zM92.8 107.733c9.6-7.467 23.467-18.133 42.667-33.067l45.867 45.867c-14.933 19.2-25.6 34.133-33.067 42.667l1.067 1.067c3.2 6.4 5.333 12.8 5.333 19.2 0 10.667-3.2 21.333-9.6 28.8-1.067 1.067-3.2 2.133-4.267 2.133 0 0 0 0 0 0-2.133 0-3.2-1.067-4.267-2.133l-62.933-62.933-30.933-28.8c-1.067-1.067-2.133-3.2-2.133-4.267 0-2.133 1.067-3.2 2.133-4.267 8.533-6.4 18.133-9.6 28.8-9.6 7.467-1.067 13.867 1.067 21.333 5.333v0zM232.533 88.533c1.067 2.133 2.133 3.2 2.133 5.333s-1.067 3.2-2.133 4.267l-12.8 12.8c-3.2 3.2-6.4 4.267-10.667 5.333 0 0-1.067 0-1.067 0-4.267 0-7.467-1.067-10.667-4.267l-5.333-6.4-41.6-41.6c0 0 0 0 0 0l-5.333-5.333c-3.2-3.2-4.267-7.467-4.267-11.733s2.133-7.467 5.333-10.667l12.8-12.8c0-1.067 2.133-2.133 3.2-2.133 2.133 0 3.2 1.067 4.267 2.133l66.133 65.067z"></path>
</svg>
