<!-- Generated by IcoMoon.io -->
<svg version="1.1" xmlns="http://www.w3.org/2000/svg" width="256" height="256" viewBox="0 0 256 256">
<title>right-end</title>
<path fill="#333" d="M190.222 53.334v0c7.466 0 12.445 4.978 12.445 12.445v124.444c0 7.466-4.978 12.445-12.445 12.445v0c-7.466 0-12.445-4.978-12.445-12.445v-124.444c0-7.466 4.978-12.445 12.445-12.445z"></path>
<path fill="#333" d="M57.066 75.734l59.733 52.266-58.489 52.267c-4.978 4.978-6.222 12.445-1.245 17.422 0 0 1.245 1.245 1.245 1.245v0c6.222 4.978 14.934 4.978 21.155 0l69.689-60.978c4.978-4.978 6.222-12.445 1.245-17.422 0 0-1.245-1.245-1.245-1.245l-69.689-62.222c-6.222-4.978-14.933-4.978-21.155 0v0c-6.222 4.978-6.222 12.445-1.245 18.666 0 0 0 0 0 0z"></path>
</svg>
