<!-- Generated by IcoMoon.io -->
<svg version="1.1" xmlns="http://www.w3.org/2000/svg" width="256" height="256" viewBox="0 0 256 256">
<title>succession</title>
<path fill="#333" d="M168.672 64.32c0 22.236-18.026 40.261-40.261 40.261s-40.261-18.026-40.261-40.261c0-22.236 18.026-40.261 40.261-40.261s40.262 18.026 40.262 40.261z"></path>
<path fill="#333" d="M203.182 153.882c-7.395-23.828-27.937-41.905-51.765-41.905h-46.013c-23.828 0-44.37 17.255-51.765 41.083-17.255 4.93-29.58 19.72-29.58 38.618 0 22.185 18.076 40.262 40.261 40.262s40.261-18.077 40.261-40.262c0-17.255-11.503-32.045-27.115-37.797 5.752-10.682 16.433-17.255 27.937-17.255h46.013c11.503 0 22.185 6.573 27.937 17.255-15.612 4.93-27.937 20.542-27.937 37.797 0 22.185 18.077 40.262 40.262 40.262s40.262-18.077 40.262-40.262c0-17.255-12.325-32.045-28.758-37.797z"></path>
</svg>
