<!-- Generated by IcoMoon.io -->
<svg version="1.1" xmlns="http://www.w3.org/2000/svg" width="256" height="256" viewBox="0 0 256 256">
<title>undo</title>
<path fill="#333" d="M66.133 55.467l-23.467-23.467v64h64l-25.6-25.6c0 0 0 0 0 0 10.667-8.533 23.467-13.867 36.267-16 0 0 0 0 0 0 2.133-1.067 5.333-1.067 7.467-1.067 10.667 0 21.333 1.067 30.933 5.333 9.6 3.2 18.133 9.6 25.6 17.067 2.133 2.133 3.2 3.2 4.267 5.333 4.267 5.333 7.467 10.667 10.667 17.067 0 0 0 0 0 0 4.267 8.533 6.4 17.067 6.4 26.667 0 10.667-1.067 21.333-5.333 30.933s-9.6 18.133-17.067 25.6c-6.4 6.4-13.867 11.733-22.4 14.933 0 0 0 0 0 0-6.4 2.133-12.8 4.267-19.2 5.333-2.133 0-4.267 1.067-6.4 1.067-10.667 0-21.333-1.067-30.933-5.333s-19.2-9.6-25.6-17.067c-1.067-2.133-3.2-3.2-4.267-5.333 0 0 0 0 0 0-8.533-9.6-13.867-22.4-16-36.267-1.067-5.333-6.4-9.6-11.733-9.6s-9.6 6.4-9.6 11.733c3.2 21.333 12.8 39.467 26.667 53.333 9.6 9.6 21.333 17.067 33.067 22.4 12.8 5.333 25.6 7.467 39.467 6.4 11.733 0 22.4-3.2 33.067-7.467 0 0 0 0 0 0 7.467-3.2 14.933-7.467 22.4-12.8 2.133-2.133 4.267-4.267 6.4-6.4 9.6-9.6 17.067-21.333 22.4-33.067 4.267-12.8 6.4-26.667 6.4-39.467 0-3.2 0-6.4-1.067-8.533-1.067-8.533-3.2-17.067-6.4-24.533 0 0 0 0 0 0-4.267-10.667-11.733-20.267-19.2-28.8-9.6-9.6-21.333-17.067-33.067-22.4-12.8-5.333-25.6-7.467-39.467-6.4-20.267 1.067-39.467 7.467-55.467 21.333-2.133 0-3.2 0-3.2 1.067z"></path>
</svg>
