<!-- Generated by IcoMoon.io -->
<svg version="1.1" xmlns="http://www.w3.org/2000/svg" width="256" height="256" viewBox="0 0 256 256">
<title>warning</title>
<path fill="#333" d="M128 234.32c-58.91 0-106.667-47.756-106.667-106.667s47.756-106.667 106.667-106.667c58.91 0 106.667 47.756 106.667 106.667s-47.756 106.667-106.667 106.667zM128 149.333c5.891 0 10.667-4.776 10.667-10.667v-64c0-5.891-4.776-10.667-10.667-10.667s-10.667 4.776-10.667 10.667v64c0 5.891 4.776 10.667 10.667 10.667zM128 170.667c-8.837 0-16 7.163-16 16s7.163 16 16 16c8.837 0 16-7.163 16-16s-7.163-16-16-16z"></path>
</svg>
