
<svg width="48px" height="48px" viewBox="0 0 48 48" version="1.1" xmlns="http://www.w3.org/2000/svg" xmlns:xlink="http://www.w3.org/1999/xlink">
    <!-- Generator: Sketch 50.2 (55047) - http://www.bohemiancoding.com/sketch -->
    <desc>Created with Sketch.</desc>
    <defs></defs>
    <g id="Iconography" stroke="none" stroke-width="1" fill="none" fill-rule="evenodd">
        <g id="Artboard-2" transform="translate(-859.000000, -1136.000000)">
            <g id="icon-rating-5excellent-L" transform="translate(859.000000, 1136.000000)">
                <g id="Group">
                    <g id="Group-3" fill="#49BD61">
                        <path d="M48.0000923,23.9998615 C48.0000923,37.2547846 37.2550154,47.9998615 24.0000923,47.9998615 C10.7451692,47.9998615 9.23076923e-05,37.2547846 9.23076923e-05,23.9998615 C9.23076923e-05,10.7449385 10.7451692,-0.000138461538 24.0000923,-0.000138461538 C37.2550154,-0.000138461538 48.0000923,10.7449385 48.0000923,23.9998615" id="Fill-1"></path>
                    </g>
                    <path d="M34.8110769,19.8460154 C34.8110769,21.6303231 33.3646154,23.0767846 31.5803077,23.0767846 C29.796,23.0767846 28.3495385,21.6303231 28.3495385,19.8460154 C28.3495385,18.0621692 29.796,16.6152462 31.5803077,16.6152462 C33.3646154,16.6152462 34.8110769,18.0621692 34.8110769,19.8460154" id="Fill-4" fill="#231F20"></path>
                    <path d="M19.5803077,19.8460154 C19.5803077,21.6303231 18.1338462,23.0767846 16.3495385,23.0767846 C14.5652308,23.0767846 13.1187692,21.6303231 13.1187692,19.8460154 C13.1187692,18.0621692 14.5652308,16.6152462 16.3495385,16.6152462 C18.1338462,16.6152462 19.5803077,18.0621692 19.5803077,19.8460154" id="Fill-6" fill="#231F20"></path>
                    <path d="M38.2230462,17.9790923 C37.7356615,17.9790923 37.2635077,17.7210923 37.0105846,17.2650923 C35.8978154,15.2574 34.3115077,13.6512462 32.4233538,12.6220154 C31.7518154,12.2560154 31.5039692,11.4146308 31.8699692,10.7435538 C32.2355077,10.0715538 33.0768923,9.82416923 33.7484308,10.1906308 C36.0990462,11.4718615 38.0647385,13.4541692 39.4327385,15.9229385 C39.8033538,16.5917077 39.5615077,17.4344769 38.8927385,17.8050923 C38.6799692,17.9227846 38.4496615,17.9790923 38.2230462,17.9790923" id="Fill-8" fill="#231F20"></path>
                    <path d="M9.77667692,17.9790923 C9.5496,17.9790923 9.31975385,17.9227846 9.10698462,17.8050923 C8.43821538,17.4344769 8.19636923,16.5917077 8.56698462,15.9229385 C9.93498462,13.4541692 11.9006769,11.4718615 14.2512923,10.1906308 C14.9214462,9.82370769 15.7642154,10.0720154 16.1297538,10.7435538 C16.4957538,11.4146308 16.2479077,12.2560154 15.5763692,12.6220154 C13.6882154,13.6512462 12.1019077,15.2574 10.9891385,17.2650923 C10.7362154,17.7210923 10.2640615,17.9790923 9.77667692,17.9790923" id="Fill-10" fill="#231F20"></path>
                    <path d="M11.7089077,30.3077077 C13.2730615,35.6689385 18.2955231,39.5384769 24.0001385,39.5384769 C29.7042923,39.5384769 34.7272154,35.6689385 36.2913692,30.3077077 L11.7089077,30.3077077 Z M24.0001385,42.3077077 C16.2652154,42.3077077 9.79629231,36.7674 8.61798462,29.1344769 C8.55613846,28.7352462 8.67198462,28.3286308 8.93506154,28.0217077 C9.1986,27.7152462 9.58213846,27.5384769 9.98644615,27.5384769 L38.0138308,27.5384769 C38.4181385,27.5384769 38.8016769,27.7152462 39.0647538,28.0217077 C39.3282923,28.3286308 39.4441385,28.7352462 39.3822923,29.1344769 C38.2035231,36.7674 31.7350615,42.3077077 24.0001385,42.3077077 Z" id="Fill-12" fill="#231F20"></path>
                </g>
            </g>
        </g>
    </g>
</svg>
