
<svg width="48px" height="48px" viewBox="0 0 48 48" version="1.1" xmlns="http://www.w3.org/2000/svg" xmlns:xlink="http://www.w3.org/1999/xlink">
    <!-- Generator: Sketch 50.2 (55047) - http://www.bohemiancoding.com/sketch -->
    <desc>Created with Sketch.</desc>
    <defs></defs>
    <g id="Iconography" stroke="none" stroke-width="1" fill="none" fill-rule="evenodd">
        <g id="Artboard-2" transform="translate(-398.000000, -1136.000000)">
            <g id="icon-rating-1poor-L" transform="translate(398.000000, 1136.000000)">
                <g id="Group">
                    <g id="Group-3" fill="#E32929">
                        <path d="M48.0000923,24 C48.0000923,37.2549231 37.2550154,48 24.0000923,48 C10.7451692,48 9.23076923e-05,37.2549231 9.23076923e-05,24 C9.23076923e-05,10.7450769 10.7451692,0 24.0000923,0 C37.2550154,0 48.0000923,10.7450769 48.0000923,24" id="Fill-1"></path>
                    </g>
                    <path d="M34.8462462,19.8461538 C34.8462462,21.6304615 33.3997846,23.0769231 31.6154769,23.0769231 C29.8311692,23.0769231 28.3847077,21.6304615 28.3847077,19.8461538 C28.3847077,18.0618462 29.8311692,16.6153846 31.6154769,16.6153846 C33.3997846,16.6153846 34.8462462,18.0618462 34.8462462,19.8461538" id="Fill-4" fill="#231F20"></path>
                    <path d="M19.6154769,19.8461538 C19.6154769,21.6304615 18.1690154,23.0769231 16.3847077,23.0769231 C14.6004,23.0769231 13.1539385,21.6304615 13.1539385,19.8461538 C13.1539385,18.0618462 14.6004,16.6153846 16.3847077,16.6153846 C18.1690154,16.6153846 19.6154769,18.0618462 19.6154769,19.8461538" id="Fill-6" fill="#231F20"></path>
                    <path d="M10.4140154,37.4139231 C10.0203231,37.4139231 9.62986154,37.2473077 9.35570769,36.9233077 C8.86232308,36.339 8.93524615,35.4653077 9.51955385,34.9719231 C13.4887846,31.6165385 19.1112462,29.6923846 24.9450923,29.6923846 C29.9237077,29.6923846 34.7527846,31.0802308 38.5434,33.6006923 C39.1803231,34.0239231 39.3534,34.8837692 38.9297077,35.5202308 C38.5069385,36.1571538 37.6475538,36.3311538 37.0101692,35.9065385 C33.6690923,33.6851538 29.3841692,32.4616154 24.9450923,32.4616154 C19.7550923,32.4616154 14.7847846,34.1471538 11.3070923,37.0866923 C11.0467846,37.3068462 10.7297077,37.4139231 10.4140154,37.4139231" id="Fill-8" fill="#231F20"></path>
                    <path d="M27.2353846,17.5943538 C27.0115385,17.5943538 26.784,17.5398923 26.5735385,17.4249692 C25.9024615,17.0589692 25.6550769,16.2180462 26.0210769,15.5465077 C27.3027692,13.1958923 29.2850769,11.2302 31.7533846,9.8622 C32.4221538,9.49204615 33.2644615,9.73343077 33.6355385,10.4022 C34.0061538,11.0709692 33.7643077,11.9132769 33.0955385,12.2843538 C31.0883077,13.3971231 29.4821538,14.9838923 28.4524615,16.8725077 C28.2009231,17.3331231 27.7255385,17.5943538 27.2353846,17.5943538" id="Fill-10" fill="#231F20"></path>
                    <path d="M20.8874308,17.5943538 C20.3968154,17.5943538 19.9214308,17.3331231 19.6703538,16.8720462 C18.6411231,14.9834308 17.0349692,13.3971231 15.0272769,12.2843538 C14.3585077,11.9137385 14.1166615,11.0709692 14.4872769,10.4022 C14.8578923,9.73343077 15.7002,9.49204615 16.3694308,9.8622 C18.8382,11.2302 20.8200462,13.1958923 22.1017385,15.5465077 C22.4677385,16.2180462 22.2203538,17.0589692 21.5488154,17.4249692 C21.3388154,17.5398923 21.1112769,17.5943538 20.8874308,17.5943538" id="Fill-12" fill="#231F20"></path>
                </g>
            </g>
        </g>
    </g>
</svg>
