<?xml version="1.0" encoding="utf-8"?>
<!-- Generator: Adobe Illustrator 22.0.1, SVG Export Plug-In . SVG Version: 6.00 Build 0)  -->
<svg version="1.1" id="Layer_1" xmlns="http://www.w3.org/2000/svg" xmlns:xlink="http://www.w3.org/1999/xlink" x="0px" y="0px"
	 viewBox="0 0 48 48" style="enable-background:new 0 0 48 48;" xml:space="preserve">
<style type="text/css">
	.st0{fill:#B1B1C4;}
	.st1{fill:#DCE9F4;}
	.st2{fill:#FFFFFF;}
	.st3{fill:#FF5D5D;}
	.st4{fill:#11296A;}
	.st5{fill:#9F9FB7;}
	.st6{fill:#9090A9;}
</style>
<title>Illustration / Suitcase</title>
<desc>Created with Sketch.</desc>
<g id="Illustration-_x2F_-Suitcase">
	<path id="Rectangle" class="st0" d="M5.1,26.5h36.9v14.3c0,0.6-0.5,1.1-1.1,1.1H6.2c-0.6,0-1.1-0.5-1.1-1.1V26.5z"/>
	<path id="Rectangle_1_" class="st1" d="M6.2,13.7h34.7c0.6,0,1.1,0.5,1.1,1.1v11.7H5.1V14.8C5.1,14.2,5.6,13.7,6.2,13.7z"/>
	<rect id="Rectangle_2_" x="21.4" y="23.4" class="st2" width="4.3" height="8.6"/>
	<rect id="Rectangle_3_" x="14.3" y="17.3" class="st3" width="3.1" height="3.1"/>
	<rect id="Rectangle_4_" x="22" y="17.3" class="st3" width="3.1" height="3.1"/>
	<rect id="Rectangle_5_" x="29.7" y="17.3" class="st3" width="3.1" height="3.1"/>
	<path id="Rectangle_6_" class="st0" d="M22.4,28.2h2.3v2.7c0,0.2-0.2,0.4-0.4,0.4h-1.5c-0.2,0-0.4-0.2-0.4-0.4V28.2z"/>
	<path id="Combined-Shape" class="st4" d="M25.1,25.7v-0.9c0-0.3-0.2-0.5-0.5-0.5h-2.2c-0.3,0-0.5,0.2-0.5,0.5v0.9h0V30h0v1.3
		c0,0.3,0.2,0.5,0.5,0.5h2.2c0.3,0,0.5-0.2,0.5-0.5V30h0L25.1,25.7L25.1,25.7z M26.7,26.4h16.7V14.9c0-1.5-1.2-2.7-2.7-2.7H6.3
		c-1.5,0-2.7,1.2-2.7,2.7v11.6h16.7v-1.6c0-1.2,1-2.2,2.2-2.2h2.2c1.2,0,2.2,1,2.2,2.2V26.4z M26.7,28.1v3.2c0,1.2-1,2.2-2.2,2.2
		h-2.2c-1.2,0-2.2-1-2.2-2.2v-3.2H3.6v12.6c0,1.5,1.2,2.7,2.7,2.7h34.4c1.5,0,2.7-1.2,2.7-2.7V28.1H26.7z M10.9,10.6V7.8
		C10.9,4.6,13.2,2,16,2H31c2.8,0,5.1,2.6,5.1,5.8v2.7h4.6c2.4,0,4.3,1.9,4.3,4.3v25.8c0,2.4-1.9,4.3-4.3,4.3H6.3
		C3.9,45,2,43.1,2,40.7V14.9c0-2.4,1.9-4.3,4.3-4.3H10.9z M12.5,10.6h22V7.8c0-2.2-1.6-4-3.5-4H16c-1.9,0-3.5,1.8-3.5,4V10.6z"/>
	<rect id="Rectangle_7_" x="3.6" y="28" class="st5" width="1.5" height="2"/>
	<rect id="Rectangle_8_" x="41.9" y="28" class="st5" width="1.5" height="2"/>
	<rect id="Rectangle_9_" x="26.7" y="28.1" class="st6" width="15.2" height="2"/>
	<rect id="Rectangle_10_" x="5.1" y="28" class="st6" width="15.2" height="2"/>
</g>
</svg>
