<?xml version="1.0" encoding="utf-8"?>
<!-- Generator: Adobe Illustrator 22.0.1, SVG Export Plug-In . SVG Version: 6.00 Build 0)  -->
<svg version="1.1" id="Layer_1" xmlns="http://www.w3.org/2000/svg" xmlns:xlink="http://www.w3.org/1999/xlink" x="0px" y="0px"
	 viewBox="0 0 32 32" style="enable-background:new 0 0 32 32;" xml:space="preserve">
<style type="text/css">
	.st0{clip-path:url(#SVGID_2_);fill:#80B7E3;}
	.st1{clip-path:url(#SVGID_4_);fill:#FFCE56;}
	.st2{clip-path:url(#SVGID_6_);fill:#F15F60;}
	.st3{clip-path:url(#SVGID_8_);fill:#DADCE3;}
	.st4{clip-path:url(#SVGID_10_);fill:#DADCE3;}
	.st5{clip-path:url(#SVGID_12_);fill:#DADCE3;}
	.st6{clip-path:url(#SVGID_14_);fill:#DADCE3;}
</style>
<g>
	<defs>
		<path id="SVGID_1_" d="M24,10h4c0.6,0,1,0.4,1,1v18.5h-6V11C23,10.4,23.4,10,24,10z"/>
	</defs>
	<clipPath id="SVGID_2_">
		<use xlink:href="#SVGID_1_"  style="overflow:visible;"/>
	</clipPath>
	<rect x="18" y="5" class="st0" width="16" height="29.5"/>
</g>
<g>
	<defs>
		<path id="SVGID_3_" d="M14,16h4c0.6,0,1,0.4,1,1v12.3h-6V17C13,16.4,13.4,16,14,16z"/>
	</defs>
	<clipPath id="SVGID_4_">
		<use xlink:href="#SVGID_3_"  style="overflow:visible;"/>
	</clipPath>
	<rect x="8" y="11" class="st1" width="16" height="23.3"/>
</g>
<g>
	<defs>
		<path id="SVGID_5_" d="M4,22h4c0.6,0,1,0.4,1,1v6.3H3V23C3,22.4,3.4,22,4,22z"/>
	</defs>
	<clipPath id="SVGID_6_">
		<use xlink:href="#SVGID_5_"  style="overflow:visible;"/>
	</clipPath>
	<rect x="-2" y="17" class="st2" width="16" height="17.3"/>
</g>
<g>
	<defs>
		<path id="SVGID_7_" d="M2.5,30C2.2,30,2,29.8,2,29.5C2,29.2,2.2,29,2.5,29h27c0.3,0,0.5,0.2,0.5,0.5c0,0.3-0.2,0.5-0.5,0.5H2.5z"
			/>
	</defs>
	<clipPath id="SVGID_8_">
		<use xlink:href="#SVGID_7_"  style="overflow:visible;"/>
	</clipPath>
	<rect x="-3" y="24" class="st3" width="38" height="11"/>
</g>
<g>
	<defs>
		<path id="SVGID_9_" d="M28,2c0.6,0,1,0.5,1,1s-0.4,1-1,1h-4c-0.6,0-1-0.5-1-1s0.4-1,1-1H28z"/>
	</defs>
	<clipPath id="SVGID_10_">
		<use xlink:href="#SVGID_9_"  style="overflow:visible;"/>
	</clipPath>
	<rect x="18" y="-3.1" class="st4" width="16" height="12.1"/>
</g>
<g>
	<defs>
		<path id="SVGID_11_" d="M29,7c0,0.6-0.4,1-1,1c-0.6,0-1-0.4-1-1V3c0-0.6,0.4-1,1-1c0.6,0,1,0.4,1,1V7z"/>
	</defs>
	<clipPath id="SVGID_12_">
		<use xlink:href="#SVGID_11_"  style="overflow:visible;"/>
	</clipPath>
	<rect x="22" y="-3" class="st5" width="12" height="16"/>
</g>
<g>
	<defs>
		<path id="SVGID_13_" d="M4.6,16.1c-0.4,0.4-1.1,0.3-1.4-0.1c-0.4-0.4-0.3-1.1,0.1-1.4l5.3-4.5c1.1-1,2.8-1,4,0.1l2.1,1.9
			c0.4,0.3,0.9,0.3,1.3,0l11.4-9.6c0.4-0.4,1.1-0.3,1.4,0.1C29.1,3,29.1,3.7,28.6,4l-11.4,9.6c-1.1,1-2.8,0.9-3.9-0.1l-2.1-1.9
			c-0.4-0.3-0.9-0.3-1.3,0L4.6,16.1z"/>
	</defs>
	<clipPath id="SVGID_14_">
		<use xlink:href="#SVGID_13_"  style="overflow:visible;"/>
	</clipPath>
	<rect x="-2" y="-2.7" class="st6" width="36" height="24.1"/>
</g>
</svg>
