<?xml version="1.0" encoding="utf-8"?>
<!-- Generator: Adobe Illustrator 22.0.1, SVG Export Plug-In . SVG Version: 6.00 Build 0)  -->
<svg version="1.1" id="Layer_1" xmlns="http://www.w3.org/2000/svg" xmlns:xlink="http://www.w3.org/1999/xlink" x="0px" y="0px"
	 viewBox="0 0 48 48" style="enable-background:new 0 0 48 48;" xml:space="preserve">
<style type="text/css">
	.st0{fill:#D6DDE4;}
	.st1{fill:#72BBFF;}
	.st2{fill:#ADDBFF;}
	.st3{opacity:0.2241;fill:#536A81;enable-background:new    ;}
	.st4{fill:#DCE9F4;}
	.st5{fill:#333D56;}
</style>
<title>Illustration / Compensation</title>
<desc>Created with Sketch.</desc>
<g id="Illustration-_x2F_-Compensation">
	<path id="Path-78" class="st0" d="M18.5,13.3L7,20.6l15.7,10.5h2l16.4-9.4c-0.7-1.1-1.5-2-2.4-2.6c-0.9-0.6-5.4-2.5-13.6-5.9H18.5z
		"/>
	<path id="Path-77" class="st1" d="M12.2,24.6L24.5,4.8L40,14.7l-7.4,12.5l-6.7,4.1c-1.4,0.3-2.8,0-4.2-0.7
		C20.2,29.8,17.1,27.9,12.2,24.6z"/>
	<path id="Combined-Shape" class="st2" d="M38.9,16.7L38.9,16.7l-6.2,10.5c-4,2.4-6,3.6-6.2,3.6c-0.1,0,2.5-4.2,7.9-12.8
		c-0.8-0.5-1.3-1.5-1.3-2.5c0-0.4,0.1-0.7,0.2-1l-6-3.7c-0.5,0.5-1.2,0.8-2,0.8c-0.4,0-0.8-0.1-1.2-0.2l-9.2,14.5L12.6,24l9.7-15.5
		c0.1-1.6,1.4-2.9,3-2.9c1.1,0,2.1,0.6,2.6,1.5l8.8,5.4c1.4,0.3,2.5,1.5,2.5,3C39.2,15.9,39.1,16.3,38.9,16.7z"/>
	<path id="Path-80" class="st3" d="M41,17.8l-4,7c-3.1,1.4-4.5,2.1-4.2,2c0.3-0.1,2.4-3.4,6.3-10.1L41,17.8z"/>
	<path id="Path-79" class="st4" d="M6.9,21.5l0,21.6L41.2,43l0-20.5l-14.6,8.6c-2.1,0.5-3.9,0.3-5.4-0.6S15,26.6,6.9,21.5z"/>
	<path id="Combined-Shape_1_" class="st5" d="M11.7,23.5l8.4-13.3L7,18.5c-0.5,0.3-0.9,0.7-1.1,1.2L11.7,23.5z M13,24.3l9.3,6
		c1,0.7,2.3,0.7,3.4,0.1l6.1-3.5L39,14.9L24.5,6.3L13,24.3z M34.4,25.3l8-4.6c-0.2-0.9-0.7-1.7-1.5-2.2l-1.7-1.1L34.4,25.3z
		 M42.5,22.4l-16.1,9.3c-1.5,0.9-3.4,0.8-4.9-0.1l-16-10.2v21.3h37V22.4z M21.9,7.3L24,4l17,10.5l-1,1.7l1.8,1.1
		c1.4,0.9,2.3,2.4,2.3,4V44H4V21.2c0-1.6,0.8-3.1,2.2-4L21.9,7.3z"/>
</g>
</svg>
