<?xml version="1.0" encoding="utf-8"?>
<!-- Generator: Adobe Illustrator 22.0.1, SVG Export Plug-In . SVG Version: 6.00 Build 0)  -->
<svg version="1.1" id="Layer_1" xmlns="http://www.w3.org/2000/svg" xmlns:xlink="http://www.w3.org/1999/xlink" x="0px" y="0px"
	 viewBox="0 0 234.1 214.1" style="enable-background:new 0 0 234.1 214.1;" xml:space="preserve">
<style type="text/css">
	.st0{fill:#D87EB3;}
	.st1{fill:#B35591;}
	.st2{fill:#DEE3E1;}
	.st3{fill:#172E55;}
	.st4{fill:#162E54;}
	.st5{opacity:0.18;fill:#010101;}
</style>
<g>
	<g>
		<path class="st0" d="M155.1,112.5l44.1-44.1c3.4-3.4,0.7-11.5-5.9-18.1c-6.6-6.6-14.8-9.2-18.1-5.9l-44.1,44.1L155.1,112.5z"/>
	</g>
	<polygon class="st1" points="198.4,56 149.8,104.2 155.7,111 199.6,69.2 	"/>
	<path class="st2" d="M140.6,78.6V44.8c0-3.6-3-6.6-6.6-6.6H52.7c-3.6,0-6.6,3-6.6,6.6v130.8c0,3.6,3,6.6,6.6,6.6h81.4
		c3.6,0,6.6-3,6.6-6.6v-51.4L112.2,152l-3.7-4l-7.2,16l-19.1,9.8l-9.4,3c0,0-5.3,1-2.5-5.9s12.2-26.1,12.2-26.1l14.6-7.8l-4.4-4.8
		l40.2-40.1l-0.1-4.5L140.6,78.6z"/>
	<path class="st3" d="M155.4,117.4l-28.3-28.3l42.7-42.7c6.9-6.9,18.2-6.9,25.2,0l3.1,3.1c6.9,6.9,6.9,18.2,0,25.2L155.4,117.4z
		 M134.8,89.1l20.5,20.5l38.8-38.8c4.8-4.8,4.8-12.6,0-17.4l-3.1-3.1c-4.8-4.8-12.6-4.8-17.4,0L134.8,89.1z"/>
	<path class="st3" d="M111.7,155.7l-22.9-22.9l45.1-45.1l22.9,22.9L111.7,155.7z M96.5,132.8l15.1,15.1l37.4-37.4l-15.1-15.1
		L96.5,132.8z"/>
	<path class="st4" d="M67.9,179.9c-0.3,0-0.5-0.1-0.7-0.2l-1-0.4l-0.4-1c-0.5-1.2-0.5-1.2,14.1-34.5l0.4-0.9l15.8-7.6l2.4,4.9
		l-14,6.7c-3.6,8.2-8.3,18.9-11.1,25.4c6.5-2.5,17.1-6.7,25.2-9.9l7.1-15.1l5,2.3l-8,17l-1,0.4C74.1,178.1,69.4,179.9,67.9,179.9z"
		/>
	<polygon class="st3" points="134.8,107.3 131,111.1 134.8,114.8 138.6,111.1 134.8,107.3 	"/>
	<polygon class="st3" points="117.6,124.5 113.8,128.3 117.6,132.1 121.3,128.3 117.6,124.5 	"/>
	<polygon class="st3" points="126.2,115.9 122.4,119.7 126.2,123.4 129.9,119.7 126.2,115.9 	"/>
	<path class="st3" d="M141.7,199.1H45c-8.8,0-15.9-7.1-15.9-15.9V37.1c0-8.8,7.1-15.9,15.9-15.9h96.7c8.8,0,15.9,7.1,15.9,15.9v28.3
		h-5.5V37.1c0-5.7-4.7-10.4-10.4-10.4H45c-5.7,0-10.4,4.7-10.4,10.4v146.1c0,5.7,4.7,10.4,10.4,10.4h96.7c5.7,0,10.4-4.7,10.4-10.4
		v-71.3h5.5v71.3C157.6,192,150.5,199.1,141.7,199.1z"/>
	<rect x="58.1" y="54.2" class="st3" width="58.9" height="5.5"/>
	<polygon class="st3" points="132,53.5 126,53.5 126,60.1 132,60.1 132,53.5 	"/>
	<rect x="58.1" y="77.2" class="st3" width="58.9" height="5.5"/>
	<rect x="58.1" y="100.2" class="st3" width="63.3" height="5.5"/>
	<polyline class="st5" points="154.3,120.6 113,162.2 106.1,174.6 70.5,184.2 72.6,176.9 103.1,164.5 107.3,149.9 113.2,151.5 
		152,111.5 154.3,121.8 	"/>
</g>
</svg>
