<?xml version="1.0" encoding="utf-8"?>
<!-- Generator: Adobe Illustrator 22.0.1, SVG Export Plug-In . SVG Version: 6.00 Build 0)  -->
<svg version="1.1" id="Layer_1" xmlns="http://www.w3.org/2000/svg" xmlns:xlink="http://www.w3.org/1999/xlink" x="0px" y="0px"
	 viewBox="0 0 32 32" style="enable-background:new 0 0 32 32;" xml:space="preserve">
<style type="text/css">
	.st0{clip-path:url(#SVGID_2_);fill:#E6B441;}
	.st1{clip-path:url(#SVGID_4_);fill:#FFCD54;}
	.st2{clip-path:url(#SVGID_6_);fill:#DCE9F4;}
	.st3{clip-path:url(#SVGID_8_);fill:#536A81;}
	.st4{clip-path:url(#SVGID_10_);fill:#DCE9F4;}
</style>
<g>
	<defs>
		<path id="SVGID_1_" d="M4,3l5.5,0C10.3,3,11,3.7,11,4.5V5c0,0.6,0.4,1,1,1h12.8c1.1,0,2,0.9,2,2c0,0.1,0,0.1,0,0.2l-1.1,12.1
			c-0.1,1-0.9,1.7-1.8,1.8L2,24L2,5C2,3.9,2.9,3,4,3C4,3,4,3,4,3L4,3z"/>
	</defs>
	<clipPath id="SVGID_2_">
		<use xlink:href="#SVGID_1_"  style="overflow:visible;"/>
	</clipPath>
	<rect x="-3" y="-2" class="st0" width="34.8" height="31"/>
</g>
<g>
	<defs>
		<path id="SVGID_3_" d="M6.7,9h21.6c1,0,1.8,0.8,1.8,1.8c0,0.2,0,0.4-0.1,0.6l-4.3,11.3c-0.3,0.8-1,1.3-1.9,1.3H2l2.7-13.4
			C4.9,9.7,5.7,9,6.7,9z"/>
	</defs>
	<clipPath id="SVGID_4_">
		<use xlink:href="#SVGID_3_"  style="overflow:visible;"/>
	</clipPath>
	<rect x="-3" y="4" class="st1" width="38" height="25"/>
</g>
<g>
	<defs>
		<path id="SVGID_5_" d="M15.7,21.9c1.8-1.9,4-2.9,6.4-2.9c2.5,0,4.6,1,6.4,3v0c1,1.2,1,2.9,0,4.1c-1.8,2-4,3-6.4,3
			c-2.4,0-4.5-1-6.4-2.9l0,0C14.6,24.9,14.5,23.1,15.7,21.9z"/>
	</defs>
	<clipPath id="SVGID_6_">
		<use xlink:href="#SVGID_5_"  style="overflow:visible;"/>
	</clipPath>
	<rect x="9.8" y="14" class="st2" width="24.4" height="20"/>
</g>
<g>
	<defs>
		<circle id="SVGID_7_" cx="22" cy="24" r="3"/>
	</defs>
	<clipPath id="SVGID_8_">
		<use xlink:href="#SVGID_7_"  style="overflow:visible;"/>
	</clipPath>
	<rect x="14" y="16" class="st3" width="16" height="16"/>
</g>
<g>
	<defs>
		<circle id="SVGID_9_" cx="20.5" cy="22.5" r="1.5"/>
	</defs>
	<clipPath id="SVGID_10_">
		<use xlink:href="#SVGID_9_"  style="overflow:visible;"/>
	</clipPath>
	<rect x="14" y="16" class="st4" width="13" height="13"/>
</g>
</svg>
