<?xml version="1.0" encoding="utf-8"?>
<!-- Generator: Adobe Illustrator 22.0.1, SVG Export Plug-In . SVG Version: 6.00 Build 0)  -->
<svg version="1.1" id="Layer_1" xmlns="http://www.w3.org/2000/svg" xmlns:xlink="http://www.w3.org/1999/xlink" x="0px" y="0px"
	 viewBox="0 0 48 48" style="enable-background:new 0 0 48 48;" xml:space="preserve">
<style type="text/css">
	.st0{fill:#DCE9F4;}
	.st1{fill:#B1B1C4;}
	.st2{fill:#FF5D5D;}
	.st3{fill:#FFCD54;}
	.st4{fill:#333D56;}
</style>
<title>Illustration / Horn</title>
<desc>Created with Sketch.</desc>
<g id="Illustration-_x2F_-Horn">
	<path id="Path-45" class="st0" d="M19.1,18.4c1.4,0.3,4-0.3,7.6-1.9s5.6-3.1,6.1-4.5v20.2c-2.1-1.7-4.4-3-7.1-3.9s-5-1.3-7-1.1
		L19.1,18.4z"/>
	<path id="Rectangle" class="st1" d="M11.7,30h3v11c0,1.6-1.3,3-3,3l0,0V30z"/>
	<path id="Combined-Shape" class="st0" d="M18.7,17.6V28h-10c-1.1,0-2-0.9-2-2v-6.4c0-1.1,0.9-2,2-2H18.7z"/>
	<circle id="Oval" class="st2" cx="38.2" cy="22.5" r="2.5"/>
	<rect id="Rectangle_1_" x="33.3" y="6" class="st3" width="3.9" height="33"/>
	<path id="Combined-Shape_1_" class="st4" d="M15.1,34c0.8,0,1.2,0,3.4,0c1.8-0.2,2.5-1.3,2.1-3.5c-0.4-0.1-0.8-0.1-1.1-0.1h-0.7
		h-3.7V34z M15.1,35.5V41c0,1.6-1.3,3-3,3s-3-1.3-3-3V30.4H8.8c-2.6,0-4.8-2.1-4.8-4.8v-5.9C4,17.1,6.1,15,8.8,15h10h0.5
		c4.9-0.3,9.2-2.5,13-6.7V8c0-1.7,1.3-3,3-3s3,1.3,3,3v8.8c3,0.2,5.3,2.7,5.3,5.7s-2.3,5.5-5.3,5.7V37c0,1.7-1.3,3-3,3
		c-1.6,0-3-1.3-3-2.9c-3-3.3-6.4-5.4-10.1-6.3c0.3,2.7-0.9,4.4-3.6,4.7H15.1z M19.5,28.9c4.7,0.3,9,2.3,12.7,6V10.5
		c-3.7,3.7-8,5.7-12.7,6V28.9z M38.2,18.3v8.5c2.1-0.2,3.8-2,3.8-4.2S40.3,18.5,38.2,18.3z M18,16.5H8.8c-1.8,0-3.2,1.5-3.2,3.2v5.9
		c0,1.8,1.5,3.2,3.2,3.2H18V16.5z M35.2,6.5c-0.8,0-1.5,0.7-1.5,1.5v29c0,0.8,0.7,1.5,1.5,1.5s1.5-0.7,1.5-1.5V8
		C36.7,7.2,36,6.5,35.2,6.5z M9.7,21.5c-0.4,0-0.8-0.3-0.8-0.8C9,20.4,9.3,20,9.7,20h4.7c0.4,0,0.8,0.3,0.8,0.8
		c0,0.4-0.3,0.8-0.8,0.8H9.7z M9.7,26C9.3,26,9,25.6,9,25.2c0-0.4,0.3-0.8,0.8-0.8h4.7c0.4,0,0.8,0.3,0.8,0.8c0,0.4-0.3,0.8-0.8,0.8
		H9.7z M10.6,41c0,0.8,0.7,1.5,1.5,1.5s1.5-0.7,1.5-1.5V30.5h-3V41z"/>
</g>
</svg>
