<?xml version="1.0" encoding="utf-8"?>
<!-- Generator: Adobe Illustrator 22.0.1, SVG Export Plug-In . SVG Version: 6.00 Build 0)  -->
<svg version="1.1" id="Layer_1" xmlns="http://www.w3.org/2000/svg" xmlns:xlink="http://www.w3.org/1999/xlink" x="0px" y="0px"
	 viewBox="0 0 32 32" style="enable-background:new 0 0 32 32;" xml:space="preserve">
<style type="text/css">
	.st0{clip-path:url(#SVGID_2_);fill:#F1F4F6;}
	.st1{clip-path:url(#SVGID_4_);fill:#F1F4F6;}
	.st2{clip-path:url(#SVGID_6_);fill:#F1F4F6;}
	.st3{clip-path:url(#SVGID_8_);fill:#FFCD54;}
	.st4{clip-path:url(#SVGID_10_);fill:#3BA9FF;}
	.st5{clip-path:url(#SVGID_12_);fill:#3BA9FF;}
	.st6{clip-path:url(#SVGID_14_);fill:#F1F4F6;}
</style>
<g>
	<defs>
		<path id="SVGID_1_" d="M16.1,16.4l-3.4,2.2C11,19.7,10,21.5,10,23.5V28h12v-4.6c0-1.9-1-3.8-2.6-4.9L16.1,16.4z"/>
	</defs>
	<clipPath id="SVGID_2_">
		<use xlink:href="#SVGID_1_"  style="overflow:visible;"/>
	</clipPath>
	<rect x="4.9" y="11.4" class="st0" width="22.2" height="21.6"/>
</g>
<g>
	<defs>
		<rect id="SVGID_3_" x="10" y="5" width="12" height="5.1"/>
	</defs>
	<clipPath id="SVGID_4_">
		<use xlink:href="#SVGID_3_"  style="overflow:visible;"/>
	</clipPath>
	<rect x="4.9" y="0" class="st1" width="22.2" height="15.1"/>
</g>
<g>
	<defs>
		<path id="SVGID_5_" d="M10,10.1h12c0,1.7-0.9,3.2-2.3,4.1l-2.8,1.7c-0.5,0.3-1.1,0.3-1.6,0l-3-1.7C10.9,13.3,10,11.8,10,10.1z"/>
	</defs>
	<clipPath id="SVGID_6_">
		<use xlink:href="#SVGID_5_"  style="overflow:visible;"/>
	</clipPath>
	<rect x="5" y="5.1" class="st2" width="22.1" height="16"/>
</g>
<g>
	<defs>
		<path id="SVGID_7_" d="M22,27.9H10l0-3.6c0-1.3,0.8-2.4,2-2.8l0.9-0.3c1.9-0.7,4-0.7,5.9,0l1.1,0.4c1.2,0.4,2,1.6,2,2.8V27.9z"/>
	</defs>
	<clipPath id="SVGID_8_">
		<use xlink:href="#SVGID_7_"  style="overflow:visible;"/>
	</clipPath>
	<rect x="4.9" y="15.7" class="st3" width="22.1" height="17.3"/>
</g>
<g>
	<defs>
		<path id="SVGID_9_" d="M9.4,2h13.2C23.4,2,24,2.7,24,3.5c0,0.8-0.6,1.5-1.4,1.5H9.4C8.6,4.9,8,4.3,8,3.5C8,2.7,8.6,2,9.4,2z"/>
	</defs>
	<clipPath id="SVGID_10_">
		<use xlink:href="#SVGID_9_"  style="overflow:visible;"/>
	</clipPath>
	<rect x="3.3" y="-3" class="st4" width="25.3" height="12.9"/>
</g>
<g>
	<defs>
		<path id="SVGID_11_" d="M9.4,27.1h13.2c0.8,0,1.4,0.7,1.4,1.5S23.4,30,22.6,30H9.4C8.6,30,8,29.3,8,28.5S8.6,27.1,9.4,27.1z"/>
	</defs>
	<clipPath id="SVGID_12_">
		<use xlink:href="#SVGID_11_"  style="overflow:visible;"/>
	</clipPath>
	<rect x="3.4" y="22.1" class="st5" width="25.3" height="12.9"/>
</g>
<g>
	<defs>
		<path id="SVGID_13_" d="M14.9,15.6c0.6,0.3,0.9,0.8,0.9,1.4l0,0c0,0,0,0.1,0.1,0.1c0,0,0.1,0,0.1-0.1l0.1-0.2
			c0-0.1,0.1-0.1,0.2-0.1c0.1,0,0.1,0.1,0.1,0.1c0,0.2,0,0.3,0,0.2c0-0.5,0.3-1,1-1.4H14.9z"/>
	</defs>
	<clipPath id="SVGID_14_">
		<use xlink:href="#SVGID_13_"  style="overflow:visible;"/>
	</clipPath>
	<rect x="9.8" y="10.6" class="st6" width="12.7" height="11.5"/>
</g>
</svg>
