<?xml version="1.0" encoding="utf-8"?>
<!-- Generator: Adobe Illustrator 22.0.1, SVG Export Plug-In . SVG Version: 6.00 Build 0)  -->
<svg version="1.1" id="Layer_1" xmlns="http://www.w3.org/2000/svg" xmlns:xlink="http://www.w3.org/1999/xlink" x="0px" y="0px"
	 viewBox="0 0 234.1 214.1" style="enable-background:new 0 0 234.1 214.1;" xml:space="preserve">
<style type="text/css">
	.st0{fill:#E2E2E2;}
	.st1{fill:#172E55;}
	.st2{opacity:0.18;fill:#010101;}
	.st3{fill:#FFFFFF;}
	.st4{fill:#52C6D7;}
</style>
<g>
	<path class="st0" d="M130.6,160H38.4c-2.2,0-4-1.8-4-4V86.4c0-2.2,1.8-4,4-4h92.3c2.2,0,4,1.8,4,4V156
		C134.6,158.2,132.8,160,130.6,160z"/>
	<path class="st1" d="M33.2,201.6v-27c-9.1-3.7-15.1-12.1-15.1-21.5V89.4c0-13,11.2-23.5,25-23.5h81.7c13.8,0,25,10.5,25,23.5
		l-0.1,23c0.4,3.1,0.4,10,0.2,26.5c-0.1,6.8-0.1,13.6-0.1,18.5c0,13.6-11.4,18.4-17.4,19.1l-0.3,0h-72L33.2,201.6z M43.2,72.1
		c-10.4,0-18.8,7.8-18.8,17.3V153c0,7.4,5.2,14,12.9,16.4l2.2,0.7v17.3l18.3-17.1H132c1.7-0.2,11.7-2,11.7-12.9
		c0-4.9,0.1-11.7,0.1-18.5c0.1-6.4,0.1-13.7,0.1-19l-0.2,0.2V89.4c0-9.6-8.5-17.3-18.8-17.3H43.2z"/>
	<polygon class="st1" points="130.5,48.3 124.3,48.3 124.3,54.5 130.5,54.5 130.5,48.3 	"/>
	<rect x="45.2" y="95.2" class="st1" width="60.7" height="6.2"/>
	<rect x="45.2" y="116.3" class="st1" width="65.7" height="6.2"/>
	<rect x="46.7" y="137.4" class="st1" width="65.7" height="6.2"/>
	<path class="st2" d="M149.5,148.7c0,0.4-0.9,0-1.3,0c-44.2,0-80.1-31.6-80.1-70.6c0-4.2,0.4-8.4,1.2-12.4h80.1
		C149.5,65.7,149.5,148,149.5,148.7z"/>
	<g>
		<g>
			<g>
				<path class="st3" d="M213.2,78c0-31-29.2-56.1-65.2-56.1C112,21.9,82.8,47,82.8,78s29.2,56.1,65.2,56.1c2.9,0,5.7-0.2,8.5-0.5
					l24.1,24.1v-31.2C200.1,116.8,213.2,98.8,213.2,78z"/>
				<path class="st1" d="M183.7,165.2l-28.4-28.4c-2.7,0.3-5,0.4-7.3,0.4c-37.7,0-68.3-26.5-68.3-59.2s30.6-59.2,68.3-59.2
					c37.7,0,68.3,26.5,68.3,59.2c0,20.5-12.4,39.7-32.6,50.4V165.2z M157.6,130.3l19.9,19.9v-25.6l1.7-0.9
					c19.1-9.5,30.9-27,30.9-45.8c0-29.2-27.9-53-62.1-53S85.9,48.8,85.9,78s27.9,53,62.1,53c2.5,0,5.1-0.2,8.1-0.5L157.6,130.3z"/>
			</g>
		</g>
		<ellipse class="st4" cx="148" cy="78" rx="51.8" ry="42.7"/>
		<g>
			<polygon class="st1" points="133.8,76.6 127.6,76.6 127.6,82.8 133.8,82.8 133.8,76.6 			"/>
			<polygon class="st1" points="169.7,76.6 163.5,76.6 163.5,82.8 169.7,82.8 169.7,76.6 			"/>
			<polygon class="st1" points="151.7,76.6 145.6,76.6 145.6,82.8 151.7,82.8 151.7,76.6 			"/>
		</g>
	</g>
</g>
</svg>
