<?xml version="1.0" encoding="utf-8"?>
<!-- Generator: Adobe Illustrator 22.0.1, SVG Export Plug-In . SVG Version: 6.00 Build 0)  -->
<svg version="1.1" id="Layer_1" xmlns="http://www.w3.org/2000/svg" xmlns:xlink="http://www.w3.org/1999/xlink" x="0px" y="0px"
	 viewBox="0 0 234.1 214.1" style="enable-background:new 0 0 234.1 214.1;" xml:space="preserve">
<style type="text/css">
	.st0{fill:#F05458;}
	.st1{fill:#C6CCC8;}
	.st2{fill:#172E55;}
	.st3{fill:#D12834;}
	.st4{fill:#FFFFFF;}
</style>
<g>
	<path class="st0" d="M190.8,111v67.8c0,2.9-2.4,5.3-5.4,5.3H48c-3,0-5.4-2.4-5.4-5.3v-68.4"/>
	<path class="st1" d="M42.7,110.9V64.6c0-2.9,2.4-5.3,5.4-5.3h137.4c3,0,5.4,2.4,5.4,5.3v46.4"/>
	<path class="st2" d="M194.5,50.2c3,0,5.5,2.5,5.5,5.5v132.1c0,3-2.5,5.5-5.5,5.5H39.1c-3,0-5.5-2.5-5.5-5.5V55.7
		c0-3,2.5-5.5,5.5-5.5H194.5 M194.5,44.8H39.1c-6,0-11,4.9-11,11v132.1c0,6,4.9,11,11,11h155.4c6,0,11-4.9,11-11V55.7
		C205.4,49.7,200.5,44.8,194.5,44.8L194.5,44.8z"/>
	<path class="st2" d="M153.5,50.2H148V33.9c0-4.5-3.7-8.2-8.2-8.2H94.2c-4.5,0-8.2,3.7-8.2,8.2v13.2h-5.5V33.9
		c0-7.6,6.2-13.7,13.7-13.7h45.6c7.6,0,13.7,6.2,13.7,13.7V50.2z"/>
	<rect x="32.4" y="107.6" class="st2" width="169.7" height="5.5"/>
	<polygon class="st1" points="41.3,110.4 40.6,110.4 40.6,110.4 41.3,110.4 	"/>
	<g>
		<polygon class="st2" points="96.8,71.1 91.3,71.1 91.3,76.6 96.8,76.6 96.8,71.1 		"/>
		<polygon class="st2" points="142.4,71.1 136.9,71.1 136.9,76.6 142.4,76.6 142.4,71.1 		"/>
		<polygon class="st2" points="119.6,71.1 114.1,71.1 114.1,76.6 119.6,76.6 119.6,71.1 		"/>
	</g>
	<rect x="42.8" y="113.1" class="st3" width="147.9" height="7"/>
	<g>
		<path class="st4" d="M85.8,128.8H68.5c-1.1,0-2-0.9-2-2V95.1c0-1.1,0.9-2,2-2h17.3c1.1,0,2,0.9,2,2v31.6
			C87.8,127.9,86.9,128.8,85.8,128.8z"/>
		<path class="st2" d="M82.3,98.6v24.7H72V98.6H82.3 M82.3,93.1H72c-3,0-5.5,2.5-5.5,5.5v24.7c0,3,2.5,5.5,5.5,5.5h10.3
			c3,0,5.5-2.5,5.5-5.5V98.6C87.8,95.6,85.3,93.1,82.3,93.1L82.3,93.1z"/>
	</g>
	<g>
		<path class="st4" d="M165.3,128.8H148c-1.1,0-2-0.9-2-2V95.1c0-1.1,0.9-2,2-2h17.3c1.1,0,2,0.9,2,2v31.6
			C167.3,127.9,166.4,128.8,165.3,128.8z"/>
		<path class="st2" d="M161.8,98.6v24.7h-10.3V98.6H161.8 M161.8,93.1h-10.3c-3,0-5.5,2.5-5.5,5.5v24.7c0,3,2.5,5.5,5.5,5.5h10.3
			c3,0,5.5-2.5,5.5-5.5V98.6C167.3,95.6,164.8,93.1,161.8,93.1L161.8,93.1z"/>
	</g>
</g>
</svg>
