<?xml version="1.0" encoding="utf-8"?>
<!-- Generator: Adobe Illustrator 22.0.1, SVG Export Plug-In . SVG Version: 6.00 Build 0)  -->
<svg version="1.1" id="Layer_1" xmlns="http://www.w3.org/2000/svg" xmlns:xlink="http://www.w3.org/1999/xlink" x="0px" y="0px"
	 viewBox="0 0 234.1 214.1" style="enable-background:new 0 0 234.1 214.1;" xml:space="preserve">
<style type="text/css">
	.st0{fill:#F9F9F9;}
	.st1{fill:#19243F;}
	.st2{fill:#F0BC5E;}
	.st3{fill:#D3D0C5;}
	.st4{fill:#F8FBFF;}
	.st5{fill:#11EA34;}
	.st6{opacity:0.25;}
</style>
<polygon class="st0" points="129,97 199.2,167.8 204,188 198,194 177.8,189.2 177.8,171.4 161.1,171.4 161.1,154.7 144.4,154.7 
	144.4,140.4 129.7,140.4 105,116 "/>
<path class="st1" d="M198.9,197l-23.9-5.6v-17.3h-16.7v-16.7h-16.7v-14.3h-13.1l-27.7-27.3l28.4-22.5l72.5,73.1l5.3,22.5L198.9,197z
	 M180.5,187.1l16.7,3.9l3.8-3.8l-4.2-18l-68-68.5l-19.6,15.5l21.7,21.4h16.3v14.3h16.7v16.7h16.7V187.1z"/>
<polygon class="st2" points="133,115.8 195.6,180.4 194,172 137,114 "/>
<path class="st3" d="M89,20c-32,0-58,26-58,58c0,32,26,58,58,58s58-26,58-58C147,46,121,20,89,20z M89,110c-17.7,0-32-14.3-32-32
	c0-17.7,14.3-32,32-32s32,14.3,32,32C121,95.7,106.7,110,89,110z"/>
<path class="st1" d="M89,138.8c-33.5,0-60.8-27.3-60.8-60.8c0-33.5,27.3-60.8,60.8-60.8s60.8,27.3,60.8,60.8
	C149.8,111.5,122.5,138.8,89,138.8z M89,22.8c-30.5,0-55.2,24.8-55.2,55.2s24.8,55.2,55.2,55.2s55.2-24.8,55.2-55.2
	S119.5,22.8,89,22.8z M89,112.8c-19.2,0-34.8-15.6-34.8-34.8S69.8,43.2,89,43.2s34.8,15.6,34.8,34.8S108.2,112.8,89,112.8z M89,48.8
	c-16.1,0-29.2,13.1-29.2,29.2s13.1,29.2,29.2,29.2s29.2-13.1,29.2-29.2S105.1,48.8,89,48.8z"/>
<g>
	<path class="st4" d="M89.2,133c-30.3,0-55-24.7-55-55s24.7-55,55-55s55,24.7,55,55S119.6,133,89.2,133z M89.2,28.5
		C62,28.5,39.8,50.7,39.8,78c0,27.3,22.2,49.5,49.5,49.5s49.5-22.2,49.5-49.5C138.7,50.7,116.5,28.5,89.2,28.5z"/>
</g>
<path class="st5" d="M129.5,30.9L90.9,69.5L76.1,54.7c-4.2-4.2-11.2-4.2-15.4,0s-4.2,11.2,0,15.4l22.5,22.5c4.2,4.2,11.2,4.2,15.4,0
	l46.3-46.3c4.2-4.2,4.2-11.2,0-15.4C140.7,26.7,133.7,26.7,129.5,30.9z"/>
<path class="st1" d="M90.9,98.5c-3.7,0-7.1-1.4-9.7-4L58.8,72c-2.6-2.6-4-6-4-9.7s1.4-7.1,4-9.7c2.6-2.6,6-4,9.7-4
	c3.7,0,7.1,1.4,9.7,4l12.8,12.8L127.5,29c5.3-5.3,14-5.3,19.3,0c5.3,5.3,5.3,14,0,19.3l-46.3,46.3C98,97.1,94.6,98.5,90.9,98.5z
	 M68.4,54.2c-2.2,0-4.2,0.8-5.8,2.4c-1.5,1.5-2.4,3.6-2.4,5.8c0,2.2,0.8,4.2,2.4,5.8l22.5,22.5c3.2,3.2,8.4,3.2,11.5,0L143,44.4
	c3.2-3.2,3.2-8.4,0-11.5c-3.2-3.2-8.4-3.2-11.5,0L90.9,73.3L74.2,56.6C72.7,55.1,70.6,54.2,68.4,54.2z"/>
<polygon class="st6" points="140.8,53.8 143,60 121.8,81.2 121,71.5 "/>
<path class="st1" d="M136.8,131.5l-7.8-7.8c-0.8-0.8-2.1-0.8-2.8,0l0,0c-0.8,0.8-0.8,2.1,0,2.8l7.8,7.8c0.8,0.8,2.1,0.8,2.8,0l0,0
	C137.6,133.5,137.6,132.3,136.8,131.5z"/>
</svg>
