<?xml version="1.0" encoding="utf-8"?>
<!-- Generator: Adobe Illustrator 22.0.1, SVG Export Plug-In . SVG Version: 6.00 Build 0)  -->
<svg version="1.1" id="Layer_1" xmlns="http://www.w3.org/2000/svg" xmlns:xlink="http://www.w3.org/1999/xlink" x="0px" y="0px"
	 viewBox="0 0 32 32" style="enable-background:new 0 0 32 32;" xml:space="preserve">
<style type="text/css">
	.st0{clip-path:url(#SVGID_2_);fill:#69BDFF;}
	.st1{opacity:0.15;clip-path:url(#SVGID_4_);}
	.st2{clip-path:url(#SVGID_6_);fill:#DCE9F4;}
	.st3{clip-path:url(#SVGID_8_);fill:#9EAFC0;}
</style>
<g>
	<defs>
		<path id="SVGID_1_" d="M9.7,15.1L4,17.6c0,0,2.9,11.8,7.4,12.1c4.6,0.4,5.8-12.6,5.8-12.6L9.7,15.1z"/>
	</defs>
	<clipPath id="SVGID_2_">
		<use xlink:href="#SVGID_1_"  style="overflow:visible;"/>
	</clipPath>
	<rect x="-1" y="10.1" class="st0" width="23.2" height="24.6"/>
</g>
<g>
	<defs>
		<path id="SVGID_3_" d="M9.4,15.2l-2.2,1c0.4,1.5,1.4,3.6,3.1,6.3c2.6,4,2.4,5.7,2.1,6.7c-0.3,1,2.9-1.6,2.9-3.3
			c0-1.7-2.8-6-2.9-6.4C12.3,19.2,11.3,17.8,9.4,15.2z"/>
	</defs>
	<clipPath id="SVGID_4_">
		<use xlink:href="#SVGID_3_"  style="overflow:visible;"/>
	</clipPath>
	<rect x="2.1" y="10.2" class="st1" width="18.2" height="24.2"/>
</g>
<g>
	<defs>
		<path id="SVGID_5_" d="M14.7,4.2C9.5,6,8.1,6.9,8.1,6.9s-0.4,6.6,2.6,12.8c3.2,6.7,3.3,10,0.2,9.9c3.2,0.8,7,0.2,11.3-1.8
			c6.4-2.9,6.9-7.2,4.5-13.9c-2.4-6.7-1.1-12-1.1-12S19.8,2.5,14.7,4.2z"/>
	</defs>
	<clipPath id="SVGID_6_">
		<use xlink:href="#SVGID_5_"  style="overflow:visible;"/>
	</clipPath>
	<rect x="3.1" y="-3" class="st2" width="29.9" height="38"/>
</g>
<g>
	<defs>
		<path id="SVGID_7_" d="M14.9,21.1c-0.3,0.1-0.7,0-0.8-0.4c-0.1-0.3,0-0.7,0.4-0.8c4-1.5,7.2-2.5,9.8-3.1c0.3-0.1,0.7,0.1,0.8,0.5
			s-0.1,0.7-0.5,0.8C22,18.6,18.8,19.7,14.9,21.1z M13.4,16.6c-0.3,0.1-0.7,0-0.8-0.3c-0.1-0.3,0-0.7,0.3-0.8
			c4-1.6,7.4-2.8,10.3-3.5c0.3-0.1,0.7,0.1,0.8,0.5s-0.1,0.7-0.5,0.8C20.6,13.9,17.3,15,13.4,16.6z M12,12.1c-0.3,0.1-0.7,0-0.8-0.4
			c-0.1-0.3,0-0.7,0.4-0.8c4.5-1.8,8.1-2.8,10.7-3.2c0.3-0.1,0.7,0.2,0.7,0.5C23,8.6,22.7,8.9,22.4,9C19.9,9.3,16.4,10.4,12,12.1z"
			/>
	</defs>
	<clipPath id="SVGID_8_">
		<use xlink:href="#SVGID_7_"  style="overflow:visible;"/>
	</clipPath>
	<rect x="6.1" y="2.7" class="st3" width="23.9" height="23.5"/>
</g>
</svg>
