<?xml version="1.0" encoding="utf-8"?>
<!-- Generator: Adobe Illustrator 22.0.1, SVG Export Plug-In . SVG Version: 6.00 Build 0)  -->
<svg version="1.1" id="Layer_1" xmlns="http://www.w3.org/2000/svg" xmlns:xlink="http://www.w3.org/1999/xlink" x="0px" y="0px"
	 viewBox="0 0 234.1 214.1" style="enable-background:new 0 0 234.1 214.1;" xml:space="preserve">
<style type="text/css">
	.st0{fill:#E2E2E2;}
	.st1{opacity:0.18;fill:#010101;}
	.st2{fill:#75C9B1;}
	.st3{fill:#59C09E;}
	.st4{fill:#172E55;}
</style>
<g>
	<path class="st0" d="M186.3,85.5h-84.5l-24.1,39.6l-23.3-19.2l12.3-20.4h-19c-3,0-5.5,2.5-5.5,5.5v37.5c0,3,2.5,5.5,5.5,5.5h138.6
		c3,0,5.5-2.5,5.5-5.5V91C191.7,88,189.3,85.5,186.3,85.5z"/>
	<polygon class="st1" points="191.4,80.9 170.6,115.3 153.3,123.2 186.4,75.4 	"/>
	<path class="st2" d="M153.2,127.2l34.7-56.4c0,0,2.3-4.6-3.2-8.4c-5.5-3.9-61.5-38.4-61.5-38.4s-4.3-0.9-8,5s-52.1,83.4-52.1,83.4
		l47.1,33.4c0,0,12.3,4.1,19.9-2.3C137.7,137.1,153.2,127.2,153.2,127.2z"/>
	<path class="st3" d="M130.1,143.5L166,82l-1.6-5.3l-2.2-11.9l-28.8-17.5l-9.3,3.6l-7.5-0.5l-45.1,69.1l35.4,23.8
		c0,0,11.2,5.7,15.3,3.7S130.1,143.5,130.1,143.5z"/>
	<path class="st0" d="M42,99.4v80c0,3,2.5,5.5,5.5,5.5h138.9c3,0,5.5-2.5,5.5-5.5v-77.9l-66.2,44.1c0,0-10.3,3.7-18.5-2.3
		C98.8,137.3,42,99.4,42,99.4"/>
	<path class="st4" d="M192.8,198.9H41.7c-7.6,0-13.7-6.2-13.7-13.7V89.4c0-1.5,1.2-2.7,2.7-2.7c1.5,0,2.7,1.2,2.7,2.7v95.8
		c0,4.5,3.7,8.2,8.2,8.2h151.1c4.5,0,8.2-3.7,8.2-8.2V89.8c-0.3-0.8-1-1.5-1.9-2.1l-15.2-10.1c-1.3-0.8-1.6-2.5-0.8-3.8
		c0.8-1.3,2.5-1.6,3.8-0.8l15.2,10.1c3.2,2.2,4.9,5.3,4.6,8.5l-0.2,1.8v91.8C206.5,192.8,200.3,198.9,192.8,198.9z"/>
	<path class="st4" d="M30.6,91.8c-1.4,0-2.6-1.1-2.7-2.5c-0.3-3.2,1.3-6.3,4.5-8.4l74.1-48.8c1.3-0.9,2.9-1.6,4.6-2
		c1.5-0.4,3,0.5,3.3,2c0.4,1.5-0.5,3-2,3.3c-1.1,0.3-2.1,0.7-3,1.3L35.4,85.5c-0.8,0.6-2.2,1.7-2.1,3.3c0.2,1.5-0.9,2.9-2.5,3
		C30.8,91.8,30.7,91.8,30.6,91.8z"/>
	<path class="st4" d="M118.5,149.9c-3.5,0-7-0.9-9.8-2.7L32.4,96.3c-2.7-1.8-4.3-4.2-4.6-6.9c-0.2-1.5,0.9-2.9,2.5-3
		c1.5-0.1,2.9,0.9,3,2.5c0.1,1,0.9,2.1,2.2,2.9l76.3,50.9c3.5,2.4,9.7,2.4,13.2,0.1l65.4-43c1.3-0.8,3-0.5,3.8,0.8s0.5,3-0.8,3.8
		l-65.4,43C125.4,149,122,149.9,118.5,149.9z"/>
	<path class="st4" d="M191.9,104.7c-0.9,0-1.8-0.4-2.3-1.2c-0.8-1.3-0.5-3,0.8-3.8l8.8-5.8c1.2-0.8,2-1.8,2.1-2.8
		c0.2-1.5,1.4-2.6,3-2.5c1.5,0.2,2.6,1.5,2.5,3c-0.3,2.7-1.9,5.1-4.5,6.8l-8.8,5.8C192.9,104.5,192.4,104.7,191.9,104.7z"/>
	<path class="st4" d="M152.3,130.2c-0.5,0-1-0.1-1.5-0.4c-1.3-0.8-1.7-2.5-0.9-3.8l35.6-56.7c0.8-1.2,0.3-2.9-0.9-3.7l-62.1-39
		c-0.6-0.4-1.4-0.5-2.1-0.4c-0.7,0.1-1.3,0.5-1.6,1.1l-54.4,86.4c-0.8,1.3-2.5,1.7-3.8,0.9c-1.3-0.8-1.7-2.5-0.9-3.8l54.4-86.4
		c1.1-1.8,3-3.1,5.1-3.6c2.1-0.5,4.3-0.1,6.2,1.1l62.1,39c3.8,2.4,5,7.4,2.7,11.2L154.7,129C154.2,129.8,153.3,130.2,152.3,130.2z"
		/>
	
		<ellipse transform="matrix(0.2141 -0.9768 0.9768 0.2141 -17.2894 199.6377)" class="st2" cx="115.4" cy="110.6" rx="16.4" ry="16.5"/>
	<g>
		<polygon class="st4" points="104.8,165.9 99.3,165.9 99.3,171.3 104.8,171.3 104.8,165.9 		"/>
		<polygon class="st4" points="136.7,165.9 131.2,165.9 131.2,171.3 136.7,171.3 136.7,165.9 		"/>
		<polygon class="st4" points="120.8,165.9 115.3,165.9 115.3,171.3 120.8,171.3 120.8,165.9 		"/>
	</g>
</g>
</svg>
