<?xml version="1.0" encoding="utf-8"?>
<!-- Generator: Adobe Illustrator 22.0.1, SVG Export Plug-In . SVG Version: 6.00 Build 0)  -->
<svg version="1.1" id="Layer_1" xmlns="http://www.w3.org/2000/svg" xmlns:xlink="http://www.w3.org/1999/xlink" x="0px" y="0px"
	 viewBox="0 0 234.1 214.1" style="enable-background:new 0 0 234.1 214.1;" xml:space="preserve">
<style type="text/css">
	.st0{fill:#E2E2E2;}
	.st1{fill:#E84798;}
	.st2{fill:#172E55;}
	.st3{fill:#C7378D;}
</style>
<g>
	<g>
		<ellipse class="st0" cx="118.2" cy="45.2" rx="22.4" ry="15.1"/>
		<path class="st1" d="M141.5,193.5c0.1-0.9,0.2-1.8,0.2-2.8c0-13.9-11.3-25.2-25.2-25.2s-25.2,11.3-25.2,25.2
			c0,0.9,0.1,1.9,0.2,2.8H141.5z"/>
		<path class="st1" d="M203.4,193.9c0.1-0.9,0.2-1.8,0.2-2.8c0-13.9-11.3-25.2-25.2-25.2s-25.2,11.3-25.2,25.2
			c0,0.9,0.1,1.9,0.2,2.8H203.4z"/>
		<path class="st1" d="M80.7,193.5c0.1-0.9,0.2-1.8,0.2-2.8c0-13.9-11.3-25.2-25.2-25.2s-25.2,11.3-25.2,25.2c0,0.9,0.1,1.9,0.2,2.8
			H80.7z"/>
		<g>
			<path class="st2" d="M55.9,159.2c-10.6,0-19.2-8.6-19.2-19.2c0-10.6,8.6-19.2,19.2-19.2s19.2,8.6,19.2,19.2
				S66.5,159.2,55.9,159.2z M55.9,126.3c-7.6,0-13.7,6.2-13.7,13.7s6.2,13.7,13.7,13.7s13.7-6.2,13.7-13.7S63.5,126.3,55.9,126.3z"
				/>
			<path class="st2" d="M83.4,196.2H28.5l-0.3-2.4c-0.1-1-0.2-2-0.2-3.1c0-15.4,12.5-27.9,27.9-27.9s27.9,12.5,27.9,27.9
				c0,1-0.1,2.1-0.2,3.1L83.4,196.2z M33.5,190.8h44.9l0,0c0-12.4-10.1-22.4-22.4-22.4S33.5,178.3,33.5,190.8L33.5,190.8z"/>
		</g>
		<g>
			<path class="st2" d="M117,159.2c-10.6,0-19.2-8.6-19.2-19.2c0-10.6,8.6-19.2,19.2-19.2s19.2,8.6,19.2,19.2S127.6,159.2,117,159.2
				z M117,126.3c-7.6,0-13.7,6.2-13.7,13.7s6.2,13.7,13.7,13.7c7.6,0,13.7-6.2,13.7-13.7S124.6,126.3,117,126.3z"/>
			<path class="st2" d="M144.5,196.2H89.6l-0.3-2.4c-0.1-1-0.2-2-0.2-3.1c0-15.4,12.5-27.9,27.9-27.9s27.9,12.5,27.9,27.9
				c0,1-0.1,2.1-0.2,3.1L144.5,196.2z M94.6,190.8h44.9l0,0c0-12.4-10.1-22.4-22.4-22.4S94.6,178.3,94.6,190.8L94.6,190.8z"/>
		</g>
		<g>
			<path class="st2" d="M178.2,159.2c-10.6,0-19.2-8.6-19.2-19.2c0-10.6,8.6-19.2,19.2-19.2c10.6,0,19.2,8.6,19.2,19.2
				C197.4,150.6,188.8,159.2,178.2,159.2z M178.2,126.3c-7.6,0-13.7,6.2-13.7,13.7s6.2,13.7,13.7,13.7c7.6,0,13.7-6.2,13.7-13.7
				S185.7,126.3,178.2,126.3z"/>
			<path class="st2" d="M205.6,196.2h-54.9l-0.3-2.4c-0.1-1-0.2-2-0.2-3.1c0-15.4,12.5-27.9,27.9-27.9s27.9,12.5,27.9,27.9
				c0,1-0.1,2.1-0.2,3.1L205.6,196.2z M155.7,190.8h44.9l0,0c0-12.4-10.1-22.4-22.4-22.4S155.7,178.3,155.7,190.8L155.7,190.8z"/>
		</g>
		<g>
			<path class="st2" d="M54.3,120.2v-14.5c-15-3.2-25.7-14.2-25.7-26.9c0-15.4,15.5-27.8,34.6-27.8s34.6,12.4,34.6,27.7
				c0,14.2-13,26-30.4,27.6L54.3,120.2z M63.2,56.3c-16.1,0-29.1,10-29.1,22.4c0,10.6,9.8,19.8,23.4,21.9l2.3,0.4v5.4l5-5.3l1.1-0.1
				c14.8-1,26.4-10.8,26.4-22.2C92.3,66.3,79.2,56.3,63.2,56.3z"/>
		</g>
		<g>
			<path class="st2" d="M180.4,120.2l-13-13.8c-17.4-1.7-30.5-13.4-30.5-27.6c0-15.4,15.5-27.8,34.6-27.8s34.6,12.5,34.6,27.8
				c0,12.7-10.7,23.7-25.7,26.9L180.4,120.2L180.4,120.2z M171.5,56.3c-16.1,0-29.1,10-29.1,22.4c0,11.4,11.6,21.2,26.4,22.2
				l1.1,0.1l5,5.3V101l2.3-0.4c13.5-2.1,23.4-11.3,23.4-21.9C200.6,66.3,187.6,56.3,171.5,56.3z"/>
		</g>
		<g>
			<path class="st2" d="M109.1,87.1V72.6c-15-3.2-25.7-14.2-25.7-26.9c0-15.4,15.5-27.8,34.6-27.8s34.6,12.5,34.6,27.8
				c0,14.2-13,26-30.4,27.6L109.1,87.1z M118,23.2c-16.1,0-29.1,10-29.1,22.4c0,10.6,9.8,19.8,23.4,21.9l2.3,0.4v5.4l5-5.3l1.1-0.1
				c14.8-1,26.4-10.8,26.4-22.2C147.1,33.2,134.1,23.2,118,23.2z"/>
		</g>
		<g>
			<polygon class="st2" points="114.1,42.7 108.6,42.7 108.6,48.2 114.1,48.2 			"/>
			<polygon class="st2" points="130,42.7 124.6,42.7 124.6,48.2 130,48.2 			"/>
		</g>
		<ellipse class="st0" cx="63.4" cy="78.6" rx="22.4" ry="15.1"/>
		<g>
			<polygon class="st2" points="58.4,75.3 52.9,75.3 52.9,80.8 58.4,80.8 			"/>
			<polygon class="st2" points="74.3,75.3 68.8,75.3 68.8,80.8 74.3,80.8 			"/>
		</g>
		<ellipse class="st0" cx="171.7" cy="78.3" rx="22.4" ry="15.1"/>
		<g>
			<polygon class="st2" points="167.6,75.8 162.1,75.8 162.1,81.3 167.6,81.3 			"/>
			<polygon class="st2" points="183.5,75.8 178,75.8 178,81.3 183.5,81.3 			"/>
		</g>
	</g>
	<path class="st3" d="M72.5,190.6c-1.1-8.5-7.9-15.1-16.3-15.1s-15.2,6.6-16.3,15.1H72.5z"/>
	<path class="st3" d="M134,190.6c-1.1-8.5-7.9-15.1-16.3-15.1s-15.2,6.6-16.3,15.1H134z"/>
	<path class="st3" d="M194.9,190.6c-1.1-8.5-7.9-15.1-16.3-15.1c-8.4,0-15.2,6.6-16.3,15.1H194.9z"/>
</g>
</svg>
