<?xml version="1.0" encoding="utf-8"?>
<!-- Generator: Adobe Illustrator 22.0.1, SVG Export Plug-In . SVG Version: 6.00 Build 0)  -->
<svg version="1.1" id="Layer_1" xmlns="http://www.w3.org/2000/svg" xmlns:xlink="http://www.w3.org/1999/xlink" x="0px" y="0px"
	 viewBox="0 0 48 48" style="enable-background:new 0 0 48 48;" xml:space="preserve">
<style type="text/css">
	.st0{fill:#A6B9E2;}
	.st1{fill:#333D56;}
	.st2{fill:#DADCE3;}
</style>
<title>Illustration / Panel</title>
<desc>Created with Sketch.</desc>
<g id="Illustration-_x2F_-Panel">
	<g id="Group" transform="translate(4.000000, 4.000000)">
		<path id="Path-85" class="st0" d="M1.2,39c0.2-3.6,1.9-5.4,4.9-5.6c3.1-0.2,4.9,1.4,5.5,4.6v1.2L1.2,39z"/>
		<path id="Path-85_1_" class="st0" d="M14.7,39c0.2-3.6,1.9-5.4,4.9-5.6c3.1-0.2,4.9,1.4,5.5,4.6v1.2L14.7,39z"/>
		<path id="Path-85_2_" class="st0" d="M28.5,39.2c0.2-3.6,1.9-5.4,4.9-5.6c3.1-0.2,4.9,1.4,5.5,4.6v1.2L28.5,39.2z"/>
		<path id="Combined-Shape" class="st1" d="M33.4,21.9L31,19.3c-3.7-0.4-6.6-2.8-6.6-5.7c0-3.2,3.5-5.8,7.8-5.8s7.8,2.5,7.8,5.8
			c0,2.6-2.3,4.8-5.5,5.5v2.8c2.2,0.4,3.9,2.3,3.9,4.7c0,2.6-2.1,4.8-4.8,4.8s-4.8-2.1-4.8-4.8C28.8,24,30.8,21.9,33.4,21.9z
			 M5.5,21.9v-3.6C2.3,17.6,0,15.4,0,12.7C0,9.5,3.5,7,7.8,7s7.8,2.5,7.8,5.8c0,2.9-2.9,5.3-6.6,5.7l-3.3,3.4c0.1,0,0.2,0,0.3,0
			c2.6,0,4.8,2.1,4.8,4.8S8.6,31.3,6,31.3s-4.8-2.1-4.8-4.8C1.3,24.1,3.1,22.1,5.5,21.9z M11,38.4c0-2.5-2.1-4.5-4.7-4.5
			s-4.7,2-4.7,4.5H11z M0.1,39.3C0,39,0,38.7,0,38.5c0-3.3,2.8-6,6.2-6s6.2,2.7,6.2,6c0,0.3,0,0.5-0.1,0.8l-0.1,0.7H0.1L0.1,39.3z
			 M6,29.8c1.8,0,3.2-1.5,3.2-3.2S7.8,23.3,6,23.3s-3.2,1.5-3.2,3.2S4.2,29.8,6,29.8z M24.8,38.4c0-2.5-2.1-4.5-4.7-4.5
			s-4.7,2-4.7,4.5H24.8z M13.9,39.3c0-0.3-0.1-0.5-0.1-0.8c0-3.3,2.8-6,6.2-6s6.2,2.7,6.2,6c0,0.3,0,0.5-0.1,0.8l-0.1,0.7H13.9
			L13.9,39.3z M19.8,31.4c-2.6,0-4.8-2.1-4.8-4.8s2.1-4.8,4.8-4.8s4.8,2.1,4.8,4.8S22.4,31.4,19.8,31.4z M19.8,29.9
			c1.8,0,3.2-1.5,3.2-3.2s-1.5-3.2-3.2-3.2s-3.2,1.5-3.2,3.2S18,29.9,19.8,29.9z M8.2,17l0.3,0c3.2-0.3,5.5-2.1,5.5-4.2
			c0-2.3-2.8-4.2-6.2-4.2s-6.2,2-6.2,4.2c0,1.9,2,3.7,4.9,4.2L7,17v1.2L8.2,17z M38.5,38.4c0-2.5-2.1-4.5-4.7-4.5s-4.7,2-4.7,4.5
			H38.5z M27.6,39.3c0-0.3-0.1-0.5-0.1-0.8c0-3.3,2.8-6,6.2-6s6.2,2.7,6.2,6c0,0.3,0,0.5-0.1,0.8l-0.1,0.7H27.7L27.6,39.3z
			 M33.5,29.9c1.8,0,3.2-1.5,3.2-3.2s-1.5-3.2-3.2-3.2s-3.2,1.5-3.2,3.2S31.7,29.9,33.5,29.9z M31.7,17.9l1.2,1.3v-1.2l0.6-0.1
			c2.9-0.4,4.9-2.2,4.9-4.2c0-2.3-2.8-4.2-6.2-4.2s-6.2,2-6.2,4.2c0,2.1,2.3,4,5.5,4.2L31.7,17.9z M20.6,10l0.3,0
			c3.2-0.3,5.5-2.1,5.5-4.2c0-2.3-2.8-4.2-6.2-4.2s-6.2,2-6.2,4.2c0,1.9,2,3.7,4.9,4.2l0.6,0.1v1.2L20.6,10z M12.4,5.7
			c0-3.2,3.5-5.8,7.8-5.8s7.8,2.5,7.8,5.8c0,2.9-2.9,5.3-6.6,5.7L17.9,15v-3.7C14.7,10.6,12.4,8.4,12.4,5.7z"/>
		<path id="Combined-Shape_1_" class="st2" d="M7.8,15.8c-2.8,0-5-1.3-5-3s2.2-3,5-3s5,1.3,5,3S10.5,15.8,7.8,15.8z M20.1,8.7
			c-2.8,0-5-1.3-5-3s2.2-3,5-3s5,1.3,5,3S22.9,8.7,20.1,8.7z M32.2,16.6c-2.8,0-5-1.3-5-3s2.2-3,5-3s5,1.3,5,3S34.9,16.6,32.2,16.6z
			"/>
		<path id="Combined-Shape_2_" class="st1" d="M17.8,4.9h1.5v1.5h-1.5V4.9z M21.1,4.9h1.5v1.5h-1.5V4.9z M29.8,12.8h1.5v1.5h-1.5
			V12.8z M33.2,12.8h1.5v1.5h-1.5V12.8z M5.3,11.9h1.5v1.5H5.3V11.9z M8.7,11.9h1.5v1.5H8.7V11.9z"/>
	</g>
</g>
</svg>
