<?xml version="1.0" encoding="utf-8"?>
<!-- Generator: Adobe Illustrator 22.0.1, SVG Export Plug-In . SVG Version: 6.00 Build 0)  -->
<svg version="1.1" id="Layer_1" xmlns="http://www.w3.org/2000/svg" xmlns:xlink="http://www.w3.org/1999/xlink" x="0px" y="0px"
	 viewBox="0 0 234.1 214.1" style="enable-background:new 0 0 234.1 214.1;" xml:space="preserve">
<style type="text/css">
	.st0{fill:#EAE095;}
	.st1{fill:#172E55;}
	.st2{fill:#FFFFFF;}
	.st3{fill:#CEC27C;}
	.st4{fill:#E2E2E2;}
	.st5{fill:#BBBBBB;}
</style>
<g>
	<g>
		<path class="st0" d="M189.7,177.7H44.6c-1.1,0-2-0.9-2-2V69.6c0-1.1,0.9-2,2-2h145.1c1.1,0,2,0.9,2,2v106.1
			C191.7,176.8,190.8,177.7,189.7,177.7z"/>
	</g>
	<path class="st1" d="M193,192.4H41.6c-7.4,0-13.4-6.1-13.4-13.7v-112c0-7.5,6-13.7,13.4-13.7h56.7v5.5H41.6c-4.4,0-7.9,3.7-7.9,8.2
		v112c0,4.5,3.6,8.2,7.9,8.2H193c4.4,0,7.9-3.7,7.9-8.2v-112c0-4.5-3.6-8.2-7.9-8.2h-58V53h58c7.4,0,13.4,6.1,13.4,13.7v112
		C206.4,186.2,200.4,192.4,193,192.4z"/>
	<g>
		<circle class="st2" cx="79.6" cy="111" r="16.5"/>
		<path class="st1" d="M79.6,130.2c-10.6,0-19.2-8.6-19.2-19.2S69,91.8,79.6,91.8s19.2,8.6,19.2,19.2S90.2,130.2,79.6,130.2z
			 M79.6,97.3c-7.6,0-13.7,6.2-13.7,13.7s6.2,13.7,13.7,13.7c7.6,0,13.7-6.2,13.7-13.7S87.1,97.3,79.6,97.3z"/>
	</g>
	<g>
		<path class="st2" d="M104.6,164.5c0.1-0.9,0.2-1.8,0.2-2.8c0-13.9-11.3-25.2-25.2-25.2s-25.2,11.3-25.2,25.2
			c0,0.9,0.1,1.9,0.2,2.8H104.6z"/>
		<path class="st1" d="M107,167.2H52.1l-0.3-2.4c-0.1-1-0.2-2-0.2-3.1c0-15.4,12.5-27.9,27.9-27.9s27.9,12.5,27.9,27.9
			c0,1-0.1,2.1-0.2,3.1L107,167.2z M57.2,161.7H102c0,0,0,0,0,0c0-12.4-10.1-22.4-22.4-22.4S57.2,149.3,57.2,161.7
			C57.2,161.7,57.2,161.7,57.2,161.7z"/>
	</g>
	<g>
		<polygon class="st1" points="139.9,99.5 134.4,99.5 134.4,105 139.9,105 139.9,99.5 		"/>
		<polygon class="st1" points="171.7,99.5 166.3,99.5 166.3,105 171.7,105 171.7,99.5 		"/>
		<polygon class="st1" points="155.8,99.5 150.3,99.5 150.3,105 155.8,105 155.8,99.5 		"/>
	</g>
	<path class="st1" d="M182.6,127h-58c-1.5,0-2.7-1.2-2.7-2.7c0-1.5,1.2-2.7,2.7-2.7h58c1.5,0,2.7,1.2,2.7,2.7
		C185.3,125.8,184.1,127,182.6,127z"/>
	<path class="st1" d="M182.6,146.2h-58c-1.5,0-2.7-1.2-2.7-2.7c0-1.5,1.2-2.7,2.7-2.7h58c1.5,0,2.7,1.2,2.7,2.7
		C185.3,145,184.1,146.2,182.6,146.2z"/>
	<path class="st1" d="M182.6,165.4h-58c-1.5,0-2.7-1.2-2.7-2.7c0-1.5,1.2-2.7,2.7-2.7h58c1.5,0,2.7,1.2,2.7,2.7
		C185.3,164.2,184.1,165.4,182.6,165.4z"/>
	<g>
		<path class="st3" d="M136.2,90.3H98.4c-1.1,0-2-0.9-2-2V68.7c0-1.1,0.9-2,2-2h37.8c1.1,0,2,0.9,2,2v19.6
			C138.2,89.4,137.3,90.3,136.2,90.3z"/>
	</g>
	<g>
		<path class="st4" d="M136.6,82.3h-38c-1.1,0-2-0.9-2-2V32.8c0-1.1,0.9-2,2-2h38c1.1,0,2,0.9,2,2v47.5
			C138.6,81.4,137.7,82.3,136.6,82.3z"/>
		<path class="st1" d="M133.1,85H102c-4.5,0-8.2-3.7-8.2-8.2V36.3c0-4.5,3.7-8.2,8.2-8.2h31.1c4.5,0,8.2,3.7,8.2,8.2v40.5
			C141.3,81.3,137.7,85,133.1,85z M102,33.5c-1.5,0-2.7,1.2-2.7,2.7v40.5c0,1.5,1.2,2.7,2.7,2.7h31.1c1.5,0,2.7-1.2,2.7-2.7V36.3
			c0-1.5-1.2-2.7-2.7-2.7H102z"/>
	</g>
	<path class="st5" d="M133.2,69.9c-0.4,2.3-1.7,4-3.4,4h-25c-1.6,0-2.9-1.6-3.3-3.7c-0.2,0.7-0.4,1.4-0.4,2.2c0,2.9,1.6,5.2,3.6,5.2
		h25.4c2,0,3.6-2.4,3.6-5.2C133.7,71.5,133.5,70.7,133.2,69.9z"/>
</g>
</svg>
