<?xml version="1.0" encoding="utf-8"?>
<!-- Generator: Adobe Illustrator 22.0.1, SVG Export Plug-In . SVG Version: 6.00 Build 0)  -->
<svg version="1.1" id="Layer_1" xmlns="http://www.w3.org/2000/svg" xmlns:xlink="http://www.w3.org/1999/xlink" x="0px" y="0px"
	 viewBox="0 0 48 48" style="enable-background:new 0 0 48 48;" xml:space="preserve">
<style type="text/css">
	.st0{fill:#FFCD54;}
	.st1{fill:#B1B1C4;}
	.st2{fill:#ADDBFF;}
	.st3{fill:#72BBFF;}
	.st4{fill:#222B42;}
</style>
<title>Illustration / Pencil</title>
<desc>Created with Sketch.</desc>
<g id="Illustration-_x2F_-Pencil">
	<rect id="Rectangle" x="25.7" y="4.8" class="st0" width="12.6" height="39.2"/>
	<polygon id="Fill-16" class="st1" points="19,12 19,42.6 22.6,39.5 22.6,11.8 	"/>
	<path id="Fill-17" class="st2" d="M17.1,11.8h5.4V7.6c0-1.5-1.2-2.7-2.7-2.7l0,0c-1.5,0-2.7,1.2-2.7,2.7V11.8z"/>
	<path id="Fill-20" class="st3" d="M20.6,10.4H20c-0.4,0-0.7-0.3-0.7-0.6V7.3c0-0.3,0.3-0.6,0.7-0.6h0.5c0.4,0,0.7,0.3,0.7,0.6v2.5
		C21.2,10.1,20.9,10.4,20.6,10.4"/>
	<path id="Combined-Shape" class="st4" d="M27.2,5.5v37.5h9.9V5.5H27.2z M38.6,6v36c0,1.1-0.9,2-2,2h-8.9c-1.1,0-2-0.9-2-2V6
		c0-1.1,0.9-2,2-2h8.9C37.7,4,38.6,4.9,38.6,6z M22,13l-6.1,0v26.3l3,2.7l3-2.6L22,13z M22,11l0-3c0-1.4-1.1-2.5-2.5-2.5l-1.1,0
		c-1.4,0-2.5,1.1-2.5,2.5v3H22z M14.4,13c-1.7,0.1-2.4,1-2.4,3v16c0,0.6-0.4,1-1,1s-1-0.4-1-1V16c0-3.2,1.6-5,4.4-5V8
		c0-2.2,1.8-4,4-4l1.1,0c2.2,0,4,1.8,4,4l0,32.1L19,44l-4.5-4V13z M31.5,8.4V10h-4.3V8.4H31.5z M31.5,14.4V16h-4.3v-1.6H31.5z
		 M33.5,20.4V22h-6.3v-1.6H33.5z M31.5,26.4V28h-4.3v-1.6H31.5z M31.5,32.4V34h-4.3v-1.6H31.5z M33.5,38.4V40h-6.3v-1.6H33.5z"/>
</g>
</svg>
