<?xml version="1.0" encoding="utf-8"?>
<!-- Generator: Adobe Illustrator 22.0.1, SVG Export Plug-In . SVG Version: 6.00 Build 0)  -->
<svg version="1.1" id="Layer_1" xmlns="http://www.w3.org/2000/svg" xmlns:xlink="http://www.w3.org/1999/xlink" x="0px" y="0px"
	 viewBox="0 0 234.1 214.1" style="enable-background:new 0 0 234.1 214.1;" xml:space="preserve">
<style type="text/css">
	.st0{fill:#EF54CA;}
	.st1{fill:#172E55;}
	.st2{fill:#CC2FAE;}
	.st3{fill:#FFFFFF;}
	.st4{fill:#81E224;}
	.st5{fill:#6FBC1D;}
	.st6{fill:#22D7EF;}
	.st7{fill:#159FAD;}
	.st8{fill:#F4E190;}
	.st9{fill:#C9C3A7;}
	.st10{fill:#FFDB80;}
</style>
<path class="st0" d="M85,135.3v-26.6c0-8.9-7.3-16.2-16.2-16.2h-1.1c-2.2,3.3-5.9,5.5-10.1,5.5s-7.9-2.2-10.1-5.5h-1.1
	c-8.9,0-16.2,7.3-16.2,16.2v26.6H85z"/>
<path class="st1" d="M87.8,138.1H27.3v-29.4c0-10.5,8.5-19,19-19h2.6l0.8,1.2c1.7,2.7,4.7,4.2,7.8,4.2s6.1-1.6,7.8-4.2l0.8-1.2h2.6
	c10.5,0,19,8.5,19,19V138.1z M32.8,132.6h49.4v-23.9c0-7.3-5.9-13.3-13.2-13.5c-2.8,3.5-7,5.5-11.5,5.5c-4.5,0-8.7-2-11.5-5.5
	c-7.3,0.1-13.2,6.1-13.2,13.5V132.6z"/>
<path class="st2" d="M75.2,132.5v-20.7c0-6.2-5.2-11.2-11.6-11.2H51.5c-6.4,0-11.6,5-11.6,11.2v20.7H75.2z"/>
<circle class="st3" cx="58" cy="61.4" r="19.9"/>
<path class="st1" d="M58,84.1c-12.5,0-22.7-10.2-22.7-22.7S45.6,38.8,58,38.8c12.5,0,22.7,10.2,22.7,22.7S70.5,84.1,58,84.1z
	 M58,44.2c-9.5,0-17.2,7.7-17.2,17.2S48.6,78.6,58,78.6c9.5,0,17.2-7.7,17.2-17.2S67.5,44.2,58,44.2z"/>
<path class="st4" d="M211,134.3v-26.6c0-8.9-7.3-16.2-16.2-16.2h-1.1c-2.2,3.3-5.9,5.5-10.1,5.5s-7.9-2.2-10.1-5.5h-1.1
	c-8.9,0-16.2,7.3-16.2,16.2v26.6H211z"/>
<path class="st1" d="M213.8,137.1h-60.4v-29.4c0-10.5,8.5-19,19-19h2.6l0.8,1.2c1.7,2.7,4.7,4.2,7.8,4.2s6.1-1.6,7.8-4.2l0.8-1.2
	h2.6c10.5,0,19,8.5,19,19V137.1z M158.8,131.6h49.4v-23.9c0-7.3-5.9-13.3-13.2-13.5c-2.8,3.5-7,5.5-11.5,5.5c-4.5,0-8.7-2-11.5-5.5
	c-7.3,0.1-13.2,6.1-13.2,13.5V131.6z"/>
<path class="st5" d="M201.2,131.5v-20.7c0-6.2-5.2-11.2-11.6-11.2h-12.1c-6.4,0-11.6,5-11.6,11.2v20.7H201.2z"/>
<path class="st6" d="M169,174.5v-46c0-15.4-12.6-28-28-28h-2c-3.7,5.7-10.2,9.5-17.5,9.5s-13.7-3.8-17.5-9.5h-2
	c-15.4,0-28,12.6-28,28v46H169z"/>
<path class="st1" d="M171.7,177.2H71.3v-48.7c0-17,13.8-30.8,30.8-30.8h3.4l0.8,1.2c3.4,5.2,9.1,8.2,15.2,8.2
	c6.1,0,11.8-3.1,15.2-8.2l0.8-1.2h3.4c17,0,30.8,13.8,30.8,30.8V177.2z M76.8,171.8h89.4v-43.2c0-13.9-11.3-25.3-25.3-25.3h-0.5
	c-4.5,6-11.4,9.5-18.9,9.5c-7.5,0-14.4-3.5-18.9-9.5h-0.5c-13.9,0-25.3,11.3-25.3,25.3V171.8z"/>
<circle class="st3" cx="121.8" cy="61.2" r="30.5"/>
<path class="st1" d="M121.8,94.5c-18.3,0-33.2-14.9-33.2-33.2S103.4,28,121.8,28S155,42.9,155,61.2S140.1,94.5,121.8,94.5z
	 M121.8,33.5C106.5,33.5,94,45.9,94,61.2S106.5,89,121.8,89s27.8-12.4,27.8-27.8S137.1,33.5,121.8,33.5z"/>
<circle class="st3" cx="184" cy="60.4" r="19.9"/>
<path class="st1" d="M184,83.1c-12.5,0-22.7-10.2-22.7-22.7s10.2-22.7,22.7-22.7c12.5,0,22.7,10.2,22.7,22.7S196.5,83.1,184,83.1z
	 M184,43.2c-9.5,0-17.2,7.7-17.2,17.2s7.7,17.2,17.2,17.2c9.5,0,17.2-7.7,17.2-17.2S193.5,43.2,184,43.2z"/>
<path class="st7" d="M152,171.5v-37c0-11-9-20-20-20H111c-11,0-20,9-20,20v37H152z"/>
<circle class="st8" cx="121.8" cy="61.2" r="21"/>
<circle class="st9" cx="183.9" cy="61.1" r="12.1"/>
<circle class="st10" cx="57.9" cy="61.1" r="12.1"/>
</svg>
