<?xml version="1.0" encoding="utf-8"?>
<!-- Generator: Adobe Illustrator 22.0.1, SVG Export Plug-In . SVG Version: 6.00 Build 0)  -->
<svg version="1.1" id="Layer_1" xmlns="http://www.w3.org/2000/svg" xmlns:xlink="http://www.w3.org/1999/xlink" x="0px" y="0px"
	 viewBox="0 0 32 32" style="enable-background:new 0 0 32 32;" xml:space="preserve">
<style type="text/css">
	.st0{fill:#69BDFF;}
	.st1{opacity:0.12;}
	.st2{fill:#F1F4F6;}
	.st3{fill:#FECC53;}
	.st4{opacity:0.15;enable-background:new    ;}
	.st5{fill:#F06F6F;}
</style>
<path id="path-1_1_" class="st0" d="M17.5,22.5l3.8-1l1.2-3.9L29,24c1.4,1.4,1.4,3.6,0,5l0,0c-1.4,1.4-3.6,1.4-5,0L17.5,22.5z"/>
<path class="st1" d="M24.5,19.3c0,0,0.2,1.6-1.2,3.9s-2.2,2.8-2.2,2.8l-2.3-2.2L24.5,19.3z"/>
<path id="Combined-Shape" class="st0" d="M14,26C7.4,26,2,20.6,2,14S7.4,2,14,2s12,5.4,12,12S20.6,26,14,26z M14,23c5,0,9-4,9-9
	s-4-9-9-9s-9,4-9,9S9,23,14,23z"/>
<path id="Combined-Shape_1_" class="st2" d="M5.1,22c0.5-2.2,4.3-4,8.9-4s8.4,1.7,8.9,4c-2.2,2.5-5.4,4-8.9,4S7.2,24.4,5.1,22z"/>
<path id="Rectangle_1_" class="st3" d="M10.8,15.8H17v3c0,1.7-1.3,3-3,3h-0.2c-1.7,0-3-1.3-3-3V15.8z"/>
<path id="Combined-Shape_2_" class="st4" d="M10.9,15.8h1.1l4.9,1.3v0.4c-1.2,1.7-3.2,2.5-6,2.4c-0.1-0.3-0.2-0.7-0.2-1.1v-2.3
	C10.9,16.3,10.9,16,10.9,15.8z"/>
<path id="Rectangle_2_" class="st3" d="M10,6.8h8v8c0,2.2-1.8,4-4,4l0,0c-2.2,0-4-1.8-4-4V6.8z"/>
<path id="Path-45" class="st5" d="M8.6,6.2C10.2,4.8,12,4,14,4c2,0,3.8,0.7,5.3,2.2l0,0c0.5,0.4,0.7,1.1,0.6,1.7L19.1,13
	c-0.1,0.6-0.6,1-1.1,1l0,0v-4c-1.3,0.7-2.6,1-4,1s-2.7-0.3-4-1v4l0,0c-0.6,0-1.1-0.4-1.2-1L8.1,8C8,7.4,8.2,6.7,8.6,6.2z"/>
</svg>
