<?xml version="1.0" encoding="utf-8"?>
<!-- Generator: Adobe Illustrator 22.0.1, SVG Export Plug-In . SVG Version: 6.00 Build 0)  -->
<svg version="1.1" id="Layer_1" xmlns="http://www.w3.org/2000/svg" xmlns:xlink="http://www.w3.org/1999/xlink" x="0px" y="0px"
	 viewBox="0 0 48 48" style="enable-background:new 0 0 48 48;" xml:space="preserve">
<style type="text/css">
	.st0{fill:#DCE9F4;}
	.st1{fill:#FFCD54;}
	.st2{fill:#FF5D5D;}
	.st3{fill:#72BBFF;}
	.st4{fill:#222B42;}
</style>
<title>Illustration / Prospect</title>
<desc>Created with Sketch.</desc>
<g id="Illustration-_x2F_-Prospect">
	<g id="Group" transform="translate(-1.499130, 2.680290)">
	</g>
	<path id="Combined-Shape" class="st0" d="M33.6,31.1l5.8,5.8c1.2,1.2,1.2,3.1,0,4.2c-1.2,1.2-3.1,1.2-4.2,0L29,35l3.8-2.6
		L33.6,31.1z"/>
	<path id="Path-72" class="st1" d="M16.3,16l-0.2,6l0.5,2l1.2,2.5v2.7l1.2,2c1.1,0.6,1.8,0.9,2.1,0.9s1.1-0.3,2.7-0.9l1-2v-3.1
		l1.7-1.7l0.5-2.1L26.4,16H16.3z"/>
	<path id="Path-70" class="st2" d="M29,16l0.3-2.8c-0.8-2.9-2.5-4.3-5-4.3s-4.5,0-5.9,0c-3,0.3-4.7,1.6-4.9,4s-0.2,4.4,0.1,6.1
		l2.2,1l0.1-4.3c1.5,0.9,3.3,1.4,5.3,1.4s3.7-0.2,5-0.7l0.5,4c1.2-0.3,1.8-0.8,1.9-1.5S29,17.3,29,16z"/>
	<path id="Combined-Shape_1_" class="st3" d="M29.9,12.4c2.5,2.3,3.7,5.3,3.5,8.8s-1.4,6.4-3.5,8.7l-5.1-1.8v-2.1l1.1-1.2l0.6-1.6
		v-2.6l1.5-0.6l0.8-0.5l0.4-1.1l0.1-5.3L29.9,12.4z M12.2,12.4l0.5,0.8l0.1,5.3l0.4,1.1l0.8,0.5l1.5,0.6v2.6l0.6,1.6l1.1,1.2v2.1
		l-5.1,1.8c-2.1-2.3-3.3-5.1-3.5-8.7C8.5,17.7,9.6,14.7,12.2,12.4z"/>
	<path id="Combined-Shape_2_" class="st4" d="M10.1,31.8c2.8,2.8,6.6,4.5,10.9,4.5c4.2,0,8-1.7,10.8-4.4c-1.7-1.3-3.8-2.2-6.3-2.6
		c-0.5,1.9-2.2,3.3-4.3,3.3c-2.1,0-3.9-1.5-4.3-3.5C14,29.5,11.7,30.4,10.1,31.8z M9,30.6c0.5-0.5,1.1-0.9,1.8-1.2
		c-1.9-2.3-3-5.2-3-8.4c0-5.3,3.1-9.8,7.5-11.9c0.9-0.6,2-0.9,3.2-0.9h5.5c0.2,0,0.3,0,0.5,0c1.7,0.1,3.1,0.9,4.2,2.1
		c3.3,2.4,5.5,6.3,5.5,10.7c0,3.3-1.2,6.2-3.1,8.5c0.6,0.4,1.2,0.8,1.8,1.2c2.2-2.6,3.5-6,3.5-9.7c0-8.5-6.9-15.4-15.4-15.4
		S5.6,12.5,5.6,21C5.6,24.6,6.9,28,9,30.6z M29.9,35.5l6.5,6.5c1.4,1.4,3.6,1.4,4.9,0c1.4-1.4,1.4-3.6,0-4.9L35,30.6
		C33.7,32.6,32,34.2,29.9,35.5z M35.8,29.3l6.6,6.6c2,2,2,5.1,0,7.1s-5.1,2-7.1,0l-6.8-6.8C26.3,37.4,23.7,38,21,38
		c-9.4,0-17-7.6-17-17S11.6,4,21,4s17,7.6,17,17C38,24,37.2,26.9,35.8,29.3z M25.6,27.6c1.4,0.3,2.7,0.6,3.9,1.1
		c1.9-2.1,3-4.8,3-7.8c0-2.6-0.9-5.1-2.4-7c0,0.3,0,0.5,0,0.8l-0.3,3.8c-0.1,1.4-1.2,2.5-2.5,2.7V22c0,1.7-0.7,3.1-1.7,4.2V27.6z
		 M16.8,27.5v-1.6c-0.9-1.1-1.5-2.4-1.5-3.9v-0.8c-1.4-0.3-2.5-1.5-2.6-2.9l-0.3-3.5c0-0.1,0-0.3,0-0.4c0-0.4,0-0.8,0.1-1.2
		C10.6,15.2,9.4,18,9.4,21c0,2.9,1.1,5.6,2.9,7.6C13.6,28.1,15.1,27.7,16.8,27.5z M20,27.8c-0.6-0.1-1.2-0.3-1.7-0.5v0.9
		c0,1.6,1.3,2.9,2.9,2.9s2.9-1.3,2.9-2.9v-0.9c-0.6,0.3-1.2,0.5-1.9,0.6c-0.3,0-0.5,0.1-0.8,0.1C20.9,28,20.4,27.9,20,27.8z
		 M20.3,26.4c0.4,0.1,0.8,0.1,1.2,0.1c0.2,0,0.3,0,0.5,0c2.2-0.3,3.8-2.2,3.8-4.5v-4.8c-1.1,0.5-2.5,0.7-4.3,0.7
		c-1.9,0-3.5-0.2-4.7-0.7V22C16.8,24.1,18.3,25.9,20.3,26.4z M15.3,16c0-0.2,0-0.3,0.1-0.5c0.2-0.4,0.7-0.5,1-0.3
		c1.2,0.7,2.9,1,5.1,1c2.2,0,3.7-0.4,4.5-1.1c0.3-0.3,0.8-0.2,1.1,0.1c0.1,0.1,0.1,0.2,0.2,0.3l0,0c0,0,0,0,0,0c0,0.1,0,0.1,0,0.2
		c0,0,0,0,0,0.1v3.7c0.6-0.2,1-0.7,1-1.3l0.3-3.8c0.2-2.5-1.7-4.7-4.2-4.9c-0.1,0-0.2,0-0.4,0h-5.5c-2.6,0-4.6,2.1-4.6,4.6
		c0,0.1,0,0.2,0,0.3l0.3,3.5c0.1,0.7,0.5,1.3,1.1,1.5V16z"/>
</g>
</svg>
