  <svg width="568px" height="434px" viewBox="0 0 568 434" version="1.1" xmlns="http://www.w3.org/2000/svg" xmlns:xlink="http://www.w3.org/1999/xlink">
              <title>Authenticate</title>
              <desc>Created with Sketch.</desc>
              <g id="Page-1" stroke="none" stroke-width="1" fill="none" fill-rule="evenodd">
                  <g id="Artboard" transform="translate(-1097.000000, -439.000000)">
                      <g id="Group-7" transform="translate(574.000000, 397.000000)">
                          <g id="Authenticate" transform="translate(433.000000, 0.000000)">
                              <g id="Layer_8" transform="translate(89.600000, 207.200000)" fill="#D2E7FC" fill-rule="nonzero">
                                  <path d="M379.736,238.952 C379.736,238.952 455.84,244.16 488.32,215.6 C520.8,187.04 496.72,179.76 493.36,159.04 C490,138.32 560,151.76 567.28,125.44 C574.56,99.12 393.68,-12.32 197.68,1.12 C1.68,14.56 -78.4,142.8 98.56,145.04 C275.52,147.28 309.68,212.8 309.68,212.8 L379.736,238.952" id="Path"></path>
                              </g>
                              <g id="Layer_6" transform="translate(161.840000, 42.560000)" fill-rule="nonzero">
                                  <path d="M438.928,169.4 C438.928,169.4 438.928,169.4 438.928,169.4 C438.928,169.288 438.928,169.176 438.928,169.064 C438.928,168.952 438.928,168.896 438.928,168.784 C438.928,168.784 438.928,168.784 438.928,168.728 C438.928,168.728 438.928,168.728 438.928,168.672 C438.928,168.616 438.928,168.56 438.928,168.448 C438.928,168.336 438.928,168.28 438.872,168.168 C438.872,168.112 438.872,168.056 438.872,168.056 C438.872,168.056 438.872,168 438.872,168 C438.872,167.944 438.872,167.944 438.872,167.888 C438.872,167.776 438.816,167.72 438.816,167.608 C438.816,167.496 438.76,167.44 438.76,167.328 C438.76,167.328 438.76,167.328 438.76,167.328 C438.76,167.328 438.76,167.328 438.76,167.328 C438.76,167.216 438.704,167.16 438.704,167.048 C438.704,166.936 438.648,166.88 438.648,166.768 C438.648,166.768 438.648,166.712 438.648,166.712 C438.648,166.712 438.648,166.656 438.648,166.656 C438.648,166.6 438.592,166.544 438.592,166.488 C438.592,166.376 438.536,166.32 438.48,166.208 C438.48,166.152 438.424,166.096 438.424,165.984 C438.424,165.984 438.424,165.984 438.424,165.928 C438.424,165.928 438.424,165.928 438.424,165.872 C438.368,165.816 438.368,165.704 438.312,165.648 C438.256,165.592 438.256,165.48 438.2,165.424 C438.2,165.368 438.144,165.368 438.144,165.312 C438.144,165.312 438.144,165.256 438.144,165.256 C438.144,165.2 438.144,165.2 438.088,165.144 C438.032,165.088 438.032,164.976 437.976,164.92 C437.92,164.864 437.92,164.752 437.864,164.696 C437.864,164.696 437.864,164.696 437.864,164.696 C437.864,164.696 437.864,164.696 437.864,164.64 C437.808,164.528 437.752,164.472 437.752,164.36 C437.696,164.304 437.64,164.192 437.64,164.136 C437.584,164.08 437.584,164.024 437.528,163.968 C437.528,163.968 437.528,163.912 437.472,163.912 C437.416,163.8 437.304,163.688 437.248,163.52 C437.248,163.464 437.192,163.464 437.192,163.408 C437.192,163.408 437.192,163.408 437.192,163.408 C437.08,163.24 436.968,163.072 436.856,162.96 C436.856,162.96 436.8,162.904 436.8,162.904 C436.8,162.904 436.744,162.848 436.744,162.848 C436.688,162.792 436.688,162.736 436.632,162.68 C436.576,162.568 436.52,162.512 436.408,162.456 C436.408,162.4 436.352,162.4 436.352,162.344 C436.352,162.344 436.352,162.288 436.296,162.288 C436.296,162.232 436.24,162.232 436.24,162.176 C436.184,162.12 436.128,162.008 436.016,161.952 C435.96,161.896 435.904,161.84 435.848,161.784 C435.848,161.784 435.848,161.784 435.792,161.728 C435.792,161.728 435.792,161.728 435.792,161.728 C435.736,161.672 435.624,161.56 435.568,161.504 C435.512,161.448 435.4,161.336 435.344,161.28 C435.344,161.28 435.344,161.28 435.344,161.28 C435.344,161.28 435.344,161.28 435.344,161.28 C435.288,161.224 435.176,161.168 435.12,161.056 C435.064,161 434.952,160.944 434.896,160.832 C434.896,160.832 434.896,160.832 434.84,160.832 C434.84,160.832 434.84,160.832 434.784,160.832 C434.728,160.776 434.672,160.72 434.616,160.664 C434.504,160.608 434.448,160.552 434.336,160.496 C434.336,160.496 434.28,160.44 434.28,160.44 C434.28,160.44 434.28,160.44 434.28,160.44 C434.28,160.44 434.28,160.44 434.28,160.44 C434.224,160.384 434.168,160.384 434.112,160.328 C434,160.272 433.944,160.216 433.832,160.16 C433.832,160.16 432.432,159.376 432.432,159.376 L424.76,163.52 C424.76,163.52 426.608,164.584 426.664,164.64 C426.776,164.696 426.832,164.752 426.944,164.808 C427.056,164.864 427.112,164.92 427.224,164.976 C427.336,165.032 427.392,165.088 427.504,165.144 C427.56,165.144 427.56,165.2 427.616,165.256 C427.728,165.368 427.896,165.48 428.008,165.592 L428.008,165.592 L428.008,165.592 C428.12,165.704 428.288,165.816 428.4,165.928 C428.4,165.928 428.456,165.984 428.456,165.984 C428.568,166.096 428.68,166.208 428.792,166.376 C428.792,166.376 428.848,166.432 428.848,166.432 C428.96,166.544 429.072,166.656 429.184,166.824 C429.184,166.824 429.24,166.88 429.24,166.88 C429.352,166.992 429.464,167.16 429.52,167.272 C429.576,167.328 429.632,167.44 429.688,167.496 C429.744,167.608 429.8,167.664 429.856,167.776 C429.912,167.888 429.968,168 430.024,168.056 C430.08,168.112 430.136,168.168 430.136,168.28 C430.192,168.336 430.192,168.392 430.248,168.448 C430.304,168.56 430.36,168.672 430.416,168.784 C430.416,168.84 430.472,168.84 430.472,168.896 C430.528,169.064 430.64,169.176 430.696,169.344 C430.696,169.344 430.696,169.344 430.696,169.4 C430.752,169.568 430.864,169.736 430.92,169.904 C430.92,169.904 430.92,169.96 430.92,169.96 C430.976,170.128 431.032,170.296 431.088,170.408 C431.088,170.408 431.088,170.464 431.088,170.464 C431.144,170.632 431.2,170.8 431.256,170.912 C431.256,170.912 431.256,170.968 431.256,170.968 C431.312,171.136 431.368,171.304 431.368,171.416 C431.368,171.416 431.368,171.472 431.368,171.472 C431.424,171.64 431.424,171.808 431.48,171.92 C431.48,171.92 431.48,171.976 431.48,171.976 C431.48,172.144 431.536,172.312 431.536,172.48 C431.536,172.48 431.536,172.536 431.536,172.536 C431.536,172.704 431.592,172.872 431.592,173.04 C431.592,173.096 431.592,173.208 431.592,173.264 C431.592,173.376 431.592,173.432 431.592,173.544 C431.592,173.656 431.592,173.768 431.592,173.824 C431.592,173.936 431.592,173.992 431.592,174.104 C431.592,174.216 431.592,174.328 431.536,174.44 C431.536,174.496 431.536,174.608 431.48,174.664 C431.48,174.664 431.48,174.832 431.424,175.112 L404.88,339.248 C404.768,340.032 401.744,345.016 402.416,344.624 L409.696,338.464 C411.208,337.176 412.272,335.328 412.552,333.368 L438.592,172.312 C438.704,171.528 438.928,170.352 438.928,170.352 C438.928,170.296 438.928,170.184 438.984,170.128 C438.984,170.072 438.984,170.016 438.984,169.904 C438.984,169.904 438.984,169.904 438.984,169.904 C438.984,169.904 438.984,169.904 438.984,169.848 C438.984,169.848 438.984,169.792 438.984,169.792 C438.984,169.68 438.984,169.624 438.984,169.512 C438.928,169.624 438.928,169.512 438.928,169.4 C438.928,169.456 438.928,169.456 438.928,169.4 Z" id="Path" fill="#9DB2C4"></path>
                                  <path d="M426.888,164.584 C430.36,166.6 432.656,171.192 432.096,174.832 L405.16,341.32 C404.544,345.016 401.296,346.36 397.824,344.344 L142.8,197.176 C139.328,195.16 137.032,190.568 137.592,186.928 L164.528,20.44 C165.144,16.744 168.392,15.4 171.864,17.416 L426.888,164.584 Z" id="Path" fill="#DAE8EF"></path>
                                  <path d="M435.792,140.784 L179.424,1.288 L179.424,1.288 C179.424,1.288 179.424,1.288 179.424,1.288 L179.032,1.064 C179.032,1.064 179.032,1.064 179.032,1.064 C178.752,0.896 178.416,0.728 178.36,0.672 C178.248,0.616 178.192,0.56 178.08,0.56 C177.968,0.504 177.912,0.504 177.8,0.448 C177.688,0.392 177.632,0.392 177.52,0.336 C177.408,0.28 177.352,0.28 177.24,0.224 C177.128,0.168 177.072,0.168 176.96,0.168 C176.848,0.168 176.736,0.112 176.68,0.112 C176.68,0.112 176.68,0.112 176.68,0.112 C176.68,0.112 176.68,0.112 176.68,0.112 C176.68,0.112 176.68,0.112 176.68,0.112 C176.568,0.112 176.512,0.056 176.4,0.056 C176.344,0.056 176.288,0.056 176.288,0.056 C176.232,0.056 176.232,0.056 176.176,0.056 C176.176,0.056 176.12,0.056 176.12,0.056 C176.008,0.056 175.896,0.056 175.784,0.056 C175.784,0.056 175.784,0.056 175.784,0.056 C175.784,0.056 175.784,0.056 175.784,0.056 C175.672,0.056 175.56,0.056 175.448,0.056 C175.448,0.056 175.448,0.056 175.392,0.056 C175.336,0.056 175.28,0.056 175.224,0.056 C175.168,0.056 175.112,0.056 175.056,0.056 C175.056,0.056 175,0.056 175,0.056 C174.888,0.056 174.832,0.056 174.72,0.112 C174.664,0.112 174.608,0.112 174.608,0.112 C174.608,0.112 174.608,0.112 174.552,0.112 C174.384,0.168 174.216,0.224 174.048,0.28 C174.048,0.28 174.048,0.28 173.992,0.28 C173.992,0.28 173.936,0.28 173.936,0.28 C173.712,0.336 173.544,0.448 173.32,0.56 L165.984,5.04 C166.152,4.928 166.376,4.816 166.544,4.76 C166.6,4.704 166.712,4.704 166.768,4.648 C166.88,4.592 166.936,4.592 167.048,4.536 C167.16,4.48 167.272,4.48 167.384,4.48 C167.44,4.48 167.496,4.48 167.496,4.48 C167.664,4.48 167.832,4.424 168,4.424 C168.056,4.424 168.056,4.424 168.112,4.424 C168.28,4.424 168.448,4.424 168.672,4.48 C168.672,4.48 168.672,4.48 168.728,4.48 C168.896,4.48 169.12,4.536 169.344,4.592 C169.344,4.592 169.4,4.592 169.4,4.592 C169.624,4.648 169.792,4.704 170.016,4.76 C170.016,4.76 170.072,4.76 170.072,4.76 C170.296,4.816 170.52,4.928 170.688,5.04 C170.8,5.096 170.856,5.096 170.968,5.152 C171.024,5.208 171.08,5.208 171.192,5.264 L172.592,6.048 L172.592,6.048 L429.352,145.768 C429.632,145.936 430.024,145.936 430.304,145.768 L435.792,142.408 C436.464,142.016 436.464,141.12 435.792,140.784 Z" id="Shape" fill="#D0DBE2"></path>
                                  <path d="M442.008,150.584 C442.008,150.584 442.008,150.584 442.008,150.584 C442.008,150.472 442.008,150.36 442.008,150.248 C442.008,150.136 442.008,150.08 442.008,149.968 C442.008,149.968 442.008,149.968 442.008,149.912 C442.008,149.912 442.008,149.912 442.008,149.856 C442.008,149.8 442.008,149.744 442.008,149.632 C442.008,149.52 442.008,149.464 441.952,149.352 C441.952,149.296 441.952,149.24 441.952,149.24 C441.952,149.24 441.952,149.184 441.952,149.184 C441.952,149.128 441.952,149.128 441.952,149.072 C441.952,148.96 441.896,148.904 441.896,148.792 C441.896,148.68 441.84,148.624 441.84,148.512 C441.84,148.512 441.84,148.512 441.84,148.512 C441.84,148.512 441.84,148.512 441.84,148.512 C441.84,148.4 441.784,148.344 441.784,148.232 C441.784,148.12 441.728,148.064 441.728,147.952 C441.728,147.952 441.728,147.896 441.728,147.896 C441.728,147.896 441.728,147.84 441.728,147.84 C441.728,147.784 441.672,147.728 441.672,147.672 C441.672,147.56 441.616,147.504 441.56,147.392 C441.56,147.336 441.504,147.28 441.504,147.168 C441.504,147.168 441.504,147.168 441.504,147.112 C441.504,147.112 441.504,147.112 441.504,147.056 C441.448,147 441.448,146.888 441.392,146.832 C441.336,146.776 441.336,146.664 441.28,146.608 C441.28,146.552 441.224,146.552 441.224,146.496 C441.224,146.496 441.224,146.44 441.224,146.44 C441.224,146.384 441.224,146.384 441.168,146.328 C441.112,146.272 441.112,146.16 441.056,146.104 C441,146.048 441,145.936 440.944,145.88 C440.944,145.88 440.944,145.88 440.944,145.88 C440.944,145.88 440.944,145.88 440.944,145.824 C440.888,145.712 440.832,145.656 440.832,145.544 C440.776,145.488 440.72,145.376 440.72,145.32 C440.664,145.264 440.664,145.208 440.608,145.152 C440.608,145.152 440.608,145.096 440.552,145.096 C440.496,144.984 440.384,144.872 440.328,144.704 C440.328,144.648 440.272,144.648 440.272,144.592 C440.272,144.592 440.272,144.592 440.272,144.592 C440.16,144.424 440.048,144.256 439.936,144.144 C439.936,144.144 439.88,144.088 439.88,144.088 C439.88,144.088 439.824,144.032 439.824,144.032 C439.768,143.976 439.768,143.92 439.712,143.864 C439.656,143.752 439.6,143.696 439.488,143.64 C439.488,143.584 439.432,143.584 439.432,143.528 C439.432,143.528 439.432,143.472 439.376,143.472 C439.376,143.416 439.32,143.416 439.32,143.36 C439.264,143.304 439.208,143.192 439.096,143.136 C439.04,143.08 438.984,143.024 438.928,142.968 C438.928,142.968 438.928,142.968 438.872,142.912 C438.872,142.912 438.872,142.912 438.872,142.912 C438.816,142.856 438.704,142.744 438.648,142.688 C438.592,142.632 438.48,142.52 438.424,142.464 C438.424,142.464 438.424,142.464 438.424,142.464 C438.424,142.464 438.424,142.464 438.424,142.464 C438.368,142.408 438.256,142.352 438.2,142.24 C438.144,142.184 438.032,142.128 437.976,142.016 C437.976,142.016 437.976,142.016 437.92,142.016 C437.92,142.016 437.92,142.016 437.864,142.016 C437.808,141.96 437.752,141.904 437.696,141.848 C437.584,141.792 437.528,141.736 437.416,141.68 C437.416,141.68 437.36,141.624 437.36,141.624 C437.36,141.624 437.36,141.624 437.36,141.624 C437.36,141.624 437.36,141.624 437.36,141.624 C437.304,141.568 437.248,141.568 437.192,141.512 C437.08,141.456 437.024,141.4 436.912,141.344 C436.912,141.344 430.752,137.816 430.752,137.76 L423.192,142.352 C423.192,142.352 429.688,145.768 429.8,145.824 C429.912,145.88 429.968,145.936 430.08,145.992 C430.192,146.048 430.248,146.104 430.36,146.16 C430.472,146.216 430.528,146.272 430.64,146.328 C430.696,146.328 430.696,146.384 430.752,146.44 C430.864,146.552 431.032,146.664 431.144,146.776 L431.144,146.776 C431.144,146.776 431.144,146.776 431.144,146.776 C431.256,146.888 431.424,147 431.536,147.112 C431.536,147.112 431.592,147.168 431.592,147.168 C431.704,147.28 431.816,147.392 431.928,147.56 C431.928,147.56 431.984,147.616 431.984,147.616 C432.096,147.728 432.208,147.84 432.32,148.008 C432.32,148.008 432.376,148.064 432.376,148.064 C432.488,148.176 432.6,148.344 432.656,148.456 C432.712,148.512 432.768,148.624 432.824,148.68 C432.88,148.792 432.936,148.848 432.992,148.96 C433.048,149.072 433.104,149.184 433.16,149.24 C433.216,149.296 433.272,149.352 433.272,149.464 C433.328,149.52 433.328,149.576 433.384,149.632 C433.44,149.744 433.496,149.856 433.552,149.968 C433.552,150.024 433.608,150.024 433.608,150.08 C433.664,150.248 433.776,150.36 433.832,150.528 C433.832,150.528 433.832,150.528 433.832,150.584 C433.888,150.752 434,150.92 434.056,151.088 C434.056,151.088 434.056,151.144 434.056,151.144 C434.112,151.312 434.168,151.48 434.224,151.592 C434.224,151.592 434.224,151.648 434.224,151.648 C434.28,151.816 434.336,151.984 434.392,152.096 C434.392,152.096 434.392,152.152 434.392,152.152 C434.448,152.32 434.504,152.488 434.504,152.6 C434.504,152.6 434.504,152.656 434.504,152.656 C434.56,152.824 434.56,152.992 434.616,153.104 C434.616,153.104 434.616,153.16 434.616,153.16 C434.616,153.328 434.672,153.496 434.672,153.664 C434.672,153.664 434.672,153.72 434.672,153.72 C434.672,153.888 434.728,154.056 434.728,154.224 C434.728,154.28 434.728,154.392 434.728,154.448 C434.728,154.56 434.728,154.616 434.728,154.728 C434.728,154.84 434.728,154.952 434.728,155.008 C434.728,155.12 434.728,155.176 434.728,155.288 C434.728,155.4 434.728,155.512 434.672,155.624 C434.672,155.68 434.672,155.792 434.616,155.848 C434.616,155.848 434.616,156.016 434.56,156.296 L408.016,320.432 C407.904,321.216 404.88,326.2 405.552,325.808 L412.832,319.648 C414.344,318.36 415.408,316.512 415.688,314.552 L441.728,153.496 C441.84,152.712 442.064,151.536 442.064,151.536 C442.064,151.48 442.064,151.368 442.12,151.312 C442.12,151.256 442.12,151.2 442.12,151.088 C442.12,151.088 442.12,151.088 442.12,151.088 C442.12,151.088 442.12,151.088 442.12,151.032 C442.12,151.032 442.12,150.976 442.12,150.976 C442.12,150.864 442.12,150.808 442.12,150.696 C442.008,150.752 442.008,150.696 442.008,150.584 C442.008,150.584 442.008,150.584 442.008,150.584 Z" id="Path" fill="#9DB2C4"></path>
                                  <path d="M429.688,145.208 C433.16,147.224 435.456,151.816 434.896,155.456 L407.96,321.944 C407.344,325.64 404.096,326.984 400.624,324.968 L145.6,177.744 C142.128,175.728 139.832,171.136 140.392,167.496 L166.32,7.28 C166.936,3.584 171.248,2.464 174.72,4.48 L429.688,145.208 Z" id="Path" fill="#DAE8EF"></path>
                                  <path d="M420.616,155.904 C423.92,157.752 426.104,161.784 425.6,164.864 L401.24,304.528 C400.68,307.608 397.6,308.616 394.352,306.712 L152.432,169.736 C149.128,167.888 146.944,163.856 147.448,160.776 L170.8,26.88 C171.36,23.8 174.216,21.672 177.52,23.52 L420.616,155.904 Z" id="Path" fill="#1AA5E6"></path>
                                  <path d="M304.752,82.6 C304.752,84.224 303.632,84.84 302.232,84.056 C300.832,83.272 299.712,81.312 299.712,79.688 C299.712,78.064 300.832,77.448 302.232,78.232 C303.576,79.016 304.752,80.976 304.752,82.6 Z" id="Path" fill="#FFFFFF"></path>
                                  <path d="M400.904,355.656 L400.848,347.928 L390.88,351.792 L388.752,346.864 L139.272,202.776 C136.248,201.04 130.592,201.264 127.12,203.28 L19.376,265.272 L19.376,263.536 L2.632,271.488 L0.168,270.536 L0.392,278.096 C0.672,279.776 1.232,280.448 2.24,281.008 L261.8,431.256 C264.824,432.992 270.088,432.992 273.56,430.976 L397.936,359.24 C399.896,358.288 400.848,356.944 400.904,355.656 L400.904,355.656 Z" id="Path" fill="#9DB2C4"></path>
                                  <path d="M261.688,421.96 L2.128,272.048 C-0.896,270.312 -0.504,267.232 2.968,265.272 L127.344,193.48 C130.816,191.464 136.136,191.24 139.104,192.976 L398.72,342.832 C401.744,344.568 401.352,347.648 397.88,349.608 L273.448,421.456 C269.976,423.472 264.712,423.696 261.688,421.96 Z" id="Path" fill="#E1EAF4"></path>
                                  <path d="M164.976,349.496 L102.144,313.208 C101.416,312.816 101.528,312.032 102.368,311.584 L132.496,294.224 C133.336,293.72 134.624,293.664 135.352,294.112 L198.128,330.4 C198.856,330.792 198.744,331.576 197.904,332.024 L167.776,349.384 C166.992,349.888 165.704,349.944 164.976,349.496 Z" id="Path" fill="#9DB2C4"></path>
                                  <g id="Group" transform="translate(65.520000, 203.840000)" fill="#9DB2C4">
                                      <path d="M77.392,16.856 C77,17.08 76.272,16.968 75.656,16.632 L59.92,7.56 C59.36,7.224 59.192,6.776 59.584,6.552 L70,0.56 C70.392,0.336 71.12,0.448 71.736,0.784 L87.472,9.856 C88.032,10.192 88.2,10.64 87.808,10.864 L77.392,16.856 Z" id="Path"></path>
                                      <path d="M95.648,44.016 C95.256,44.24 94.528,44.128 93.912,43.792 L78.176,34.72 C77.616,34.384 77.448,33.936 77.84,33.712 L88.312,27.664 C88.704,27.44 89.432,27.552 89.992,27.888 L105.728,36.96 C106.288,37.296 106.456,37.744 106.064,37.968 L95.648,44.016 Z" id="Path"></path>
                                      <path d="M86.408,55.328 C86.016,55.552 85.288,55.44 84.672,55.104 L68.936,46.032 C68.376,45.696 68.208,45.248 68.6,45.024 L79.072,38.976 C79.464,38.752 80.248,38.864 80.752,39.2 L96.488,48.272 C97.048,48.608 97.216,49.056 96.824,49.28 L86.408,55.328 Z" id="Path"></path>
                                      <path d="M61.432,57.512 C61.04,57.736 60.312,57.624 59.752,57.288 L44.016,48.216 C43.456,47.88 43.288,47.432 43.68,47.208 L54.096,41.16 C54.488,40.936 55.272,41.048 55.832,41.384 L71.568,50.456 C72.128,50.792 72.296,51.24 71.904,51.464 L61.432,57.512 Z" id="Path"></path>
                                      <path d="M18.032,51.184 C17.64,51.408 16.912,51.296 16.296,50.96 L0.56,41.888 C1.73472348e-18,41.552 -0.168,41.104 0.224,40.88 L12.488,33.824 C12.88,33.6 13.608,33.712 14.224,34.048 L29.96,43.12 C30.52,43.456 30.688,43.904 30.296,44.128 L18.032,51.184 Z" id="Path"></path>
                                      <path d="M45.192,66.864 C44.8,67.088 43.904,66.92 43.176,66.472 L22.512,54.544 C21.784,54.096 21.448,53.592 21.84,53.368 L34.104,46.312 C34.496,46.088 35.392,46.256 36.12,46.704 L56.784,58.632 C57.512,59.08 57.848,59.584 57.456,59.808 L45.192,66.864 Z" id="Path"></path>
                                      <path d="M180.88,145.208 C180.544,145.376 179.872,145.264 179.256,144.928 L163.52,135.856 C162.96,135.52 162.736,135.128 163.072,134.904 L167.608,132.272 C167.944,132.104 168.616,132.216 169.232,132.552 L184.968,141.624 C185.528,141.96 185.752,142.352 185.416,142.52 L180.88,145.208 Z" id="Path"></path>
                                      <path d="M201.936,157.696 C201.6,157.864 200.928,157.752 200.312,157.416 L184.576,148.344 C184.016,148.008 183.792,147.616 184.128,147.392 L188.664,144.76 C189,144.592 189.672,144.704 190.288,145.04 L206.024,154.112 C206.584,154.448 206.808,154.84 206.472,155.008 L201.936,157.696 Z" id="Path"></path>
                                      <path d="M224.224,170.296 C223.944,170.464 223.216,170.352 222.656,170.016 L206.92,160.944 C206.36,160.608 206.136,160.216 206.416,160.048 L210.784,157.528 C211.064,157.36 211.792,157.472 212.352,157.808 L228.088,166.88 C228.648,167.216 228.872,167.608 228.592,167.776 L224.224,170.296 Z" id="Path"></path>
                                      <path d="M210.504,152.88 C210.224,153.048 209.496,152.936 208.936,152.6 L193.2,143.528 C192.64,143.192 192.416,142.8 192.696,142.632 L197.064,140.112 C197.344,139.944 198.072,140.056 198.632,140.392 L214.368,149.464 C214.928,149.8 215.152,150.192 214.872,150.36 L210.504,152.88 Z" id="Path"></path>
                                      <path d="M153.608,129.416 C153.216,129.64 152.432,129.528 151.872,129.192 L49.336,70 C48.776,69.664 48.608,69.216 49,68.992 L61.264,61.936 C61.656,61.712 62.44,61.824 63,62.16 L165.536,121.352 C166.096,121.688 166.264,122.136 165.872,122.36 L153.608,129.416 Z" id="Path"></path>
                                      <path d="M143.136,120.4 C143.136,120.4 142.744,120.232 142.24,119.952 L60.592,72.856 C60.144,72.576 59.808,72.352 59.808,72.352 L60.592,71.904 C60.592,71.904 60.984,72.072 61.432,72.352 L143.08,119.448 C143.528,119.728 143.864,119.952 143.864,119.952 L143.136,120.4 Z" id="Path"></path>
                                      <path d="M42.392,62.944 C42.392,62.944 42.28,62.944 42.224,62.888 L30.184,55.944 C30.128,55.888 30.072,55.888 30.128,55.832 L30.912,55.384 C30.912,55.384 31.024,55.384 31.08,55.44 L43.12,62.384 C43.176,62.44 43.232,62.44 43.176,62.496 L42.392,62.944 Z" id="Path"></path>
                                      <path d="M11.536,43.792 C11.536,43.792 11.48,43.792 11.424,43.792 L6.328,40.824 C6.328,40.824 6.272,40.768 6.328,40.768 L7.112,40.32 C7.112,40.32 7.168,40.32 7.224,40.32 L12.32,43.288 C12.376,43.288 12.376,43.344 12.32,43.344 L11.536,43.792 Z" id="Path"></path>
                                      <path d="M82.992,69.944 C82.6,70.168 81.872,70.056 81.256,69.72 L65.52,60.648 C64.96,60.312 64.792,59.864 65.184,59.64 L75.6,53.592 C75.992,53.368 76.776,53.48 77.336,53.816 L93.072,62.888 C93.632,63.224 93.8,63.672 93.408,63.896 L82.992,69.944 Z" id="Path"></path>
                                      <path d="M104.72,82.488 C104.328,82.712 103.6,82.6 103.04,82.264 L87.304,73.192 C86.744,72.856 86.576,72.408 86.968,72.184 L97.384,66.136 C97.776,65.912 98.56,66.024 99.12,66.36 L114.856,75.432 C115.416,75.768 115.584,76.216 115.192,76.44 L104.72,82.488 Z" id="Path"></path>
                                      <path d="M126.392,94.976 C126,95.2 125.272,95.088 124.712,94.752 L108.92,85.68 C108.36,85.344 108.192,84.896 108.584,84.672 L119,78.624 C119.392,78.4 120.12,78.512 120.736,78.848 L136.472,87.92 C137.032,88.256 137.2,88.704 136.808,88.928 L126.392,94.976 Z" id="Path"></path>
                                      <path d="M148.12,107.52 C147.728,107.744 147,107.632 146.44,107.296 L130.704,98.224 C130.144,97.888 129.976,97.44 130.368,97.216 L140.784,91.168 C141.176,90.944 141.904,91.056 142.52,91.392 L158.256,100.464 C158.816,100.8 158.984,101.248 158.592,101.472 L148.12,107.52 Z" id="Path"></path>
                                      <path d="M169.792,120.064 C169.4,120.288 168.616,120.176 168.056,119.84 L152.32,110.712 C151.76,110.376 151.592,109.928 151.984,109.704 L162.4,103.656 C162.792,103.432 163.52,103.544 164.136,103.824 L179.872,112.896 C180.432,113.232 180.6,113.68 180.208,113.904 L169.792,120.064 Z" id="Path"></path>
                                      <path d="M191.52,132.552 C191.128,132.776 190.4,132.664 189.784,132.328 L174.048,123.256 C173.488,122.92 173.32,122.472 173.712,122.248 L184.128,116.2 C184.52,115.976 185.304,116.088 185.864,116.424 L201.6,125.496 C202.16,125.832 202.328,126.28 201.936,126.504 L191.52,132.552 Z" id="Path"></path>
                                      <path d="M240.408,160.776 C240.016,161 239.288,160.888 238.672,160.552 L195.72,135.8 C195.16,135.464 194.992,135.016 195.384,134.792 L205.8,128.744 C206.192,128.52 206.92,128.632 207.536,128.968 L250.488,153.72 C251.048,154.056 251.216,154.504 250.824,154.728 L240.408,160.776 Z" id="Path"></path>
                                      <path d="M108.024,67.76 C107.632,67.984 106.904,67.872 106.344,67.536 L90.608,58.464 C90.048,58.128 89.88,57.68 90.272,57.456 L100.744,51.408 C101.136,51.184 101.864,51.296 102.424,51.632 L118.16,60.704 C118.72,61.04 118.888,61.488 118.496,61.712 L108.024,67.76 Z" id="Path"></path>
                                      <path d="M129.696,80.304 C129.304,80.528 128.576,80.416 128.016,80.08 L112.224,71.008 C111.664,70.672 111.496,70.224 111.888,70 L122.36,63.952 C122.752,63.728 123.48,63.84 124.04,64.176 L139.832,73.248 C140.392,73.584 140.56,74.032 140.168,74.256 L129.696,80.304 Z" id="Path"></path>
                                      <path d="M151.424,92.792 C151.032,93.016 150.304,92.904 149.688,92.568 L133.952,83.496 C133.392,83.16 133.224,82.712 133.616,82.488 L144.088,76.44 C144.48,76.216 145.264,76.328 145.824,76.664 L161.56,85.736 C162.12,86.072 162.288,86.52 161.896,86.744 L151.424,92.792 Z" id="Path"></path>
                                      <path d="M173.096,105.336 C172.704,105.56 171.976,105.448 171.416,105.112 L155.68,96.04 C155.12,95.704 154.952,95.256 155.344,95.032 L165.76,89.04 C166.152,88.816 166.88,88.928 167.44,89.264 L183.176,98.336 C183.736,98.672 183.904,99.12 183.512,99.344 L173.096,105.336 Z" id="Path"></path>
                                      <path d="M194.824,117.824 C194.432,118.048 193.704,117.936 193.144,117.6 L177.352,108.528 C176.792,108.192 176.624,107.744 177.016,107.52 L187.488,101.472 C187.88,101.248 188.608,101.36 189.168,101.696 L204.96,110.768 C205.52,111.104 205.688,111.552 205.296,111.776 L194.824,117.824 Z" id="Path"></path>
                                      <path d="M216.496,130.368 C216.104,130.592 215.376,130.48 214.816,130.144 L199.08,121.072 C198.52,120.736 198.352,120.288 198.744,120.064 L209.216,114.016 C209.608,113.792 210.336,113.904 210.952,114.24 L226.688,123.312 C227.248,123.648 227.416,124.096 227.024,124.32 L216.496,130.368 Z" id="Path"></path>
                                      <path d="M238.224,142.912 C237.832,143.136 237.104,143.024 236.544,142.688 L220.752,133.616 C220.192,133.28 220.024,132.832 220.416,132.608 L230.888,126.56 C231.28,126.336 232.008,126.448 232.568,126.784 L248.36,135.856 C248.92,136.192 249.088,136.64 248.696,136.864 L238.224,142.912 Z" id="Path"></path>
                                      <path d="M117.264,56.504 C116.872,56.728 116.088,56.616 115.528,56.28 L99.792,47.208 C99.232,46.872 99.064,46.424 99.456,46.2 L109.928,40.152 C110.32,39.928 111.048,40.04 111.608,40.376 L127.344,49.448 C127.904,49.784 128.072,50.232 127.68,50.456 L117.264,56.504 Z" id="Path"></path>
                                      <path d="M138.936,68.992 C138.544,69.216 137.76,69.104 137.2,68.824 L121.464,59.752 C120.904,59.416 120.736,58.968 121.128,58.744 L131.6,52.696 C131.992,52.472 132.72,52.584 133.336,52.92 L149.072,61.992 C149.632,62.328 149.8,62.776 149.408,63 L138.936,68.992 Z" id="Path"></path>
                                      <path d="M160.664,81.536 C160.272,81.76 159.488,81.648 158.928,81.312 L143.192,72.24 C142.632,71.904 142.464,71.456 142.856,71.232 L153.328,65.184 C153.72,64.96 154.448,65.072 155.008,65.408 L170.744,74.48 C171.304,74.816 171.472,75.264 171.08,75.488 L160.664,81.536 Z" id="Path"></path>
                                      <path d="M182.336,94.08 C181.944,94.304 181.216,94.192 180.6,93.912 L164.864,84.84 C164.304,84.504 164.136,84.056 164.528,83.832 L175,77.784 C175.392,77.56 176.12,77.672 176.736,78.008 L192.472,87.08 C193.032,87.416 193.2,87.864 192.808,88.088 L182.336,94.08 Z" id="Path"></path>
                                      <path d="M204.064,106.568 C203.672,106.792 202.888,106.68 202.384,106.4 L186.648,97.328 C186.088,96.992 185.92,96.544 186.312,96.32 L196.784,90.272 C197.176,90.048 197.904,90.16 198.464,90.496 L214.2,99.568 C214.76,99.904 214.928,100.352 214.536,100.576 L204.064,106.568 Z" id="Path"></path>
                                      <path d="M225.792,119.112 C225.4,119.336 224.616,119.224 224.056,118.888 L208.32,109.816 C207.76,109.48 207.592,109.032 207.984,108.808 L218.456,102.76 C218.848,102.536 219.576,102.648 220.136,102.984 L235.872,112.056 C236.432,112.392 236.6,112.84 236.208,113.064 L225.792,119.112 Z" id="Path"></path>
                                      <path d="M247.464,131.6 C247.072,131.824 246.288,131.712 245.728,131.432 L229.992,122.36 C229.432,122.024 229.264,121.576 229.656,121.352 L240.128,115.304 C240.52,115.08 241.248,115.192 241.808,115.528 L257.544,124.6 C258.104,124.936 258.272,125.384 257.88,125.608 L247.464,131.6 Z" id="Path"></path>
                                      <path d="M73.976,31.528 C73.584,31.752 72.8,31.64 72.24,31.304 L45.528,15.904 C44.968,15.568 44.8,15.12 45.192,14.896 L55.664,8.848 C56.056,8.624 56.784,8.736 57.4,9.072 L84.112,24.472 C84.672,24.808 84.84,25.256 84.448,25.48 L73.976,31.528 Z" id="Path"></path>
                                      <path d="M283.528,135.856 C283.136,136.08 282.408,135.968 281.792,135.632 L255.08,120.232 C254.52,119.896 254.352,119.448 254.744,119.224 L265.16,113.176 C265.552,112.952 266.336,113.064 266.896,113.4 L293.608,128.8 C294.168,129.136 294.336,129.584 293.944,129.808 L283.528,135.856 Z" id="Path"></path>
                                      <path d="M64.736,42.784 C64.344,43.008 63.616,42.896 63,42.56 L31.136,24.192 C30.576,23.856 30.408,23.408 30.8,23.184 L41.272,17.136 C41.664,16.912 42.392,17.024 43.008,17.36 L74.872,35.728 C75.432,36.064 75.6,36.512 75.208,36.736 L64.736,42.784 Z" id="Path"></path>
                                      <path d="M39.704,44.968 C39.312,45.192 38.584,45.08 37.968,44.744 L16.744,32.48 C16.184,32.144 16.016,31.696 16.408,31.472 L26.824,25.424 C27.216,25.2 27.944,25.312 28.56,25.648 L49.784,37.912 C50.344,38.248 50.512,38.696 50.12,38.92 L39.704,44.968 Z" id="Path"></path>
                                      <path d="M99.064,29.4 C98.672,29.624 97.944,29.512 97.328,29.176 L81.592,20.104 C81.032,19.768 80.864,19.32 81.256,19.096 L91.672,13.048 C92.064,12.824 92.792,12.936 93.408,13.272 L109.144,22.344 C109.704,22.68 109.872,23.128 109.48,23.352 L99.064,29.4 Z" id="Path"></path>
                                      <path d="M120.68,41.832 C120.288,42.056 119.504,41.944 118.944,41.608 L103.208,32.536 C102.648,32.2 102.48,31.752 102.872,31.528 L113.288,25.48 C113.68,25.256 114.464,25.368 115.024,25.704 L130.76,34.776 C131.32,35.112 131.488,35.56 131.096,35.784 L120.68,41.832 Z" id="Path"></path>
                                      <path d="M142.352,54.376 C141.96,54.6 141.232,54.488 140.672,54.208 L124.88,45.08 C124.32,44.744 124.152,44.296 124.544,44.072 L134.96,38.024 C135.352,37.8 136.08,37.912 136.696,38.248 L152.432,47.32 C152.992,47.656 153.16,48.104 152.768,48.328 L142.352,54.376 Z" id="Path"></path>
                                      <path d="M164.08,66.92 C163.688,67.144 162.904,67.032 162.344,66.696 L146.608,57.624 C146.048,57.288 145.88,56.84 146.272,56.616 L156.688,50.568 C157.08,50.344 157.808,50.456 158.424,50.792 L174.16,59.864 C174.72,60.2 174.888,60.648 174.496,60.872 L164.08,66.92 Z" id="Path"></path>
                                      <path d="M185.752,79.408 C185.36,79.632 184.632,79.52 184.072,79.24 L168.336,70.168 C167.776,69.832 167.608,69.384 168,69.16 L178.416,63.112 C178.808,62.888 179.536,63 180.152,63.336 L195.888,72.408 C196.448,72.744 196.616,73.192 196.224,73.416 L185.752,79.408 Z" id="Path"></path>
                                      <path d="M207.48,91.952 C207.088,92.176 206.304,92.064 205.744,91.728 L189.952,82.656 C189.392,82.32 189.224,81.872 189.616,81.648 L200.032,75.6 C200.424,75.376 201.152,75.488 201.712,75.768 L217.504,84.84 C218.064,85.176 218.232,85.624 217.84,85.848 L207.48,91.952 Z" id="Path"></path>
                                      <path d="M229.208,104.44 C228.816,104.664 228.088,104.552 227.472,104.216 L211.736,95.144 C211.176,94.808 211.008,94.36 211.4,94.136 L221.816,88.088 C222.208,87.864 222.992,87.976 223.552,88.312 L239.288,97.384 C239.848,97.72 240.016,98.168 239.624,98.392 L229.208,104.44 Z" id="Path"></path>
                                      <path d="M250.88,116.984 C250.488,117.208 249.76,117.096 249.2,116.816 L233.408,107.688 C232.848,107.352 232.68,106.904 233.072,106.68 L243.488,100.632 C243.88,100.408 244.608,100.52 245.168,100.8 L260.96,109.928 C261.52,110.264 261.688,110.712 261.296,110.936 L250.88,116.984 Z" id="Path"></path>
                                      <path d="M263.48,128.016 C263.2,127.848 262.92,127.736 262.584,127.736 C262.248,127.68 261.968,127.736 261.8,127.848 L251.328,133.84 C251.16,133.952 251.048,134.12 251.16,134.288 C251.216,134.456 251.44,134.68 251.664,134.848 L255.752,137.2 L242.032,145.096 C241.864,145.208 241.808,145.376 241.864,145.544 C241.92,145.712 242.144,145.936 242.368,146.104 L253.008,152.208 C253.288,152.376 253.624,152.488 253.96,152.488 C254.296,152.544 254.576,152.488 254.744,152.376 L279.552,138.04 C279.72,137.928 279.776,137.76 279.72,137.592 C279.664,137.368 279.44,137.2 279.216,137.032 L263.48,128.016 Z" id="Path"></path>
                                      <path d="M36.904,39.872 C36.904,39.872 36.792,39.872 36.736,39.816 L24.696,32.872 C24.64,32.816 24.584,32.816 24.64,32.76 L25.424,32.312 C25.424,32.312 25.536,32.312 25.592,32.368 L37.632,39.312 C37.688,39.368 37.744,39.368 37.688,39.424 L36.904,39.872 Z" id="Path"></path>
                                  </g>
                                  <path d="M301.224,241.416 L239.624,204.68 C233.688,201.152 230.608,194.32 231.784,187.544 L246.68,101.752 C248.696,90.272 261.576,84.336 271.6,90.328 L333.2,127.064 C339.136,130.592 342.216,137.424 341.04,144.2 L326.144,229.992 C324.128,241.416 311.248,247.352 301.224,241.416 Z" id="Path" fill="#FFFFFF"></path>
                                  <polygon id="Path" fill="#1A64CE" points="312.256 236.096 243.824 195.272 245.896 183.12 314.384 223.888"></polygon>
                                  <g id="Group" transform="translate(268.240000, 199.360000)" fill="#F6F7FA">
                                      <polygon id="Path" points="1.064 0.336 1.96 0.896 1.064 5.992 3.136 7.224 2.968 8.12 6.36646291e-14 6.328"></polygon>
                                      <path d="M3.864,6.104 C4.144,4.592 5.152,4.256 6.048,4.816 C7,5.376 7.728,6.776 7.448,8.232 C7.168,9.744 6.16,10.08 5.264,9.52 C4.312,8.96 3.64,7.616 3.864,6.104 Z M6.552,7.728 C6.72,6.832 6.496,6.048 5.936,5.712 C5.376,5.376 4.928,5.768 4.816,6.664 C4.648,7.56 4.872,8.344 5.432,8.68 C5.992,9.016 6.384,8.624 6.552,7.728 Z" id="Shape"></path>
                                      <path d="M7.56,11.648 C7.616,11.256 7.896,11.032 8.288,11.032 L8.288,10.976 C8.12,10.696 8.008,10.416 8.064,10.024 C8.12,9.688 8.4,9.52 8.624,9.464 L8.624,9.408 C8.4,9.016 8.232,8.456 8.344,7.952 C8.512,6.944 9.352,6.776 10.136,7.224 C10.36,7.336 10.528,7.504 10.696,7.672 L12.04,8.456 L11.928,9.24 L11.256,8.848 C11.368,9.072 11.368,9.408 11.368,9.744 C11.2,10.752 10.472,10.92 9.688,10.416 C9.52,10.304 9.352,10.192 9.184,9.968 C9.072,10.024 8.96,10.08 8.904,10.304 C8.848,10.584 8.96,10.808 9.464,11.088 L10.136,11.48 C11.032,12.04 11.48,12.656 11.312,13.44 C11.144,14.336 10.248,14.56 9.016,13.832 C8.008,13.216 7.448,12.432 7.56,11.648 Z M10.36,13.048 C10.416,12.712 10.192,12.432 9.744,12.208 L9.24,11.928 C9.016,11.816 8.848,11.704 8.736,11.536 C8.512,11.592 8.4,11.76 8.344,11.928 C8.288,12.32 8.624,12.768 9.184,13.16 C9.8,13.552 10.304,13.44 10.36,13.048 Z M10.472,9.24 C10.584,8.68 10.36,8.176 9.968,7.952 C9.576,7.728 9.24,7.896 9.128,8.456 C9.016,9.016 9.24,9.52 9.632,9.744 C10.024,9.968 10.416,9.8 10.472,9.24 Z" id="Shape"></path>
                                      <path d="M12.88,7.448 C12.936,7.112 13.216,7 13.552,7.168 C13.888,7.336 14.056,7.728 14,8.12 C13.944,8.456 13.664,8.568 13.328,8.4 C12.992,8.232 12.824,7.84 12.88,7.448 Z M12.768,8.904 L13.664,9.408 L12.88,13.888 L11.984,13.384 L12.768,8.904 Z" id="Shape"></path>
                                      <path d="M14.784,10.136 L15.512,10.584 L15.456,11.2 L15.512,11.2 C15.904,11.032 16.352,10.92 16.856,11.2 C17.64,11.704 17.92,12.544 17.696,13.664 L17.192,16.464 L16.296,15.96 L16.744,13.272 C16.856,12.544 16.744,12.152 16.352,11.928 C16.016,11.704 15.792,11.816 15.4,11.984 L14.84,15.12 L13.944,14.616 L14.784,10.136 Z" id="Path"></path>
                                  </g>
                                  <polygon id="Path" fill="#2B537F" points="230.048 154.448 229.264 154 229.936 153.608 229.488 152.6 228.76 152.936 228.928 151.984 228.144 151.48 227.976 152.432 227.472 151.424 226.8 151.76 227.248 152.768 226.408 152.32 226.24 153.272 227.08 153.776 226.352 154.112 226.856 155.176 227.528 154.784 227.36 155.792 228.2 156.296 228.368 155.288 228.816 156.352 229.544 156.016 229.096 154.952 229.88 155.456"></polygon>
                                  <path d="M323.68,144.368 L271.208,111.496 C269.752,110.6 267.848,109.2 266.896,110.208 L266.728,111.272 L251.888,120.232 L260.792,134.96 L259.224,149.464 C258.216,158.76 262.92,169.792 269.64,174.048 L293.384,188.944 L303.24,207.76 L318.416,199.416 C318.696,199.248 318.92,199.08 319.144,198.856 L319.2,198.8 L319.2,198.8 C321.384,197.008 322.952,193.872 323.4,189.672 L327.432,153.104 C327.768,149.8 326.088,145.88 323.68,144.368 Z" id="Path" fill="#A8C4E5"></path>
                                  <path d="M295.232,206.92 L256.144,184.296 C249.48,180.432 244.832,169.68 245.84,160.384 L249.872,123.816 C250.208,120.512 252.448,118.944 254.8,120.344 L309.568,152.04 C311.92,153.384 313.544,157.192 313.208,160.496 L309.176,197.064 C308.224,206.36 301.896,210.784 295.232,206.92 Z" id="Path" fill="#E1EAF4"></path>
                                  <path d="M270.368,154.896 C270.872,150.416 274.4,148.624 278.32,150.864 C282.184,153.104 284.984,158.592 284.48,163.016 C283.976,167.496 280.448,169.288 276.528,167.048 C272.608,164.808 269.864,159.32 270.368,154.896 Z" id="Path" fill="#45446C"></path>
                                  <path d="M276.92,153.888 L277.424,154.056 C279.328,154.728 280.56,158.144 280.168,161.672 L278.88,172.536 C278.488,176.008 276.584,178.36 274.68,177.632 L274.176,177.464 C272.272,176.792 271.04,173.376 271.432,169.848 L272.72,159.04 C273.168,155.568 275.016,153.216 276.92,153.888 Z" id="Path" fill="#45446C"></path>
                                  <path d="M314.104,143.08 C315.28,142.128 315.952,140.728 315.952,139.328 C316.232,125.16 313.768,101.696 295.792,94.696 C287.112,91.336 280.728,93.52 276.864,95.984 C269.248,100.856 265.384,110.432 263.48,117.6 C262.64,120.848 266.336,122.864 269.08,120.624 L272.216,118.048 C272.944,117.432 273.56,116.592 273.84,115.696 C275.464,110.88 277.872,105.952 281.4,103.712 C282.352,103.096 285.264,101.248 291.2,103.544 C304.752,108.808 306.488,128.632 306.208,140.728 C306.096,144.48 310.52,146.104 313.6,143.472 L314.104,143.08 Z" id="Path" fill="#45446C"></path>
                                  <path d="M252.616,171.584 L252.616,171.584 C251.328,171.64 250.376,170.576 250.488,169.344 L254.52,132.776 C254.632,131.488 255.864,130.424 257.152,130.424 L257.152,130.424 C258.44,130.368 259.392,131.432 259.28,132.664 L255.248,169.232 C255.08,170.52 253.904,171.584 252.616,171.584 Z" id="Path" fill="#FFFFFF"></path>
                                  <path d="M142.016,414.792 C143.08,414.792 143.08,413.112 142.016,413.112 C140.952,413.112 140.952,414.792 142.016,414.792 L142.016,414.792 Z" id="Path" fill="#A8C4E5"></path>
                                  <path d="M115.92,400.288 L103.992,393.4 C103.04,392.84 103.152,391.888 104.272,391.216 L104.272,391.216 C105.392,390.6 107.072,390.488 108.024,391.048 L119.952,397.936 C120.904,398.496 120.792,399.448 119.672,400.12 L119.672,400.12 C118.552,400.792 116.872,400.848 115.92,400.288 Z" id="Path" fill="#FFFFFF"></path>
                                  <path d="M110.432,403.76 L98.56,396.928 C97.608,396.368 97.72,395.416 98.84,394.744 L98.84,394.744 C99.96,394.128 101.64,394.016 102.592,394.576 L114.52,401.464 C115.472,402.024 115.36,402.976 114.24,403.648 L114.24,403.648 C113.064,404.264 111.384,404.32 110.432,403.76 Z" id="Path" fill="#FFFFFF"></path>
                              </g>
                              <g id="Layer_5" transform="translate(132.160000, 294.560000)">
                                  <path d="M93.52,134.4 C93.52,134.4 93.688,134.512 93.968,134.68 C95.704,135.744 102.144,139.944 106.96,146.16 C112.56,153.44 80.696,153.104 81.76,133.28" id="Path" fill="#FF8C2E"></path>
                                  <path d="M22.96,150.64 C22.96,150.64 16.8,166.32 7.84,169.68 C-1.12,173.04 -2.8,161.28 5.04,151.76 C12.88,142.24 22.96,150.64 22.96,150.64 Z" id="Path" fill="#FF8C2E"></path>
                                  <path d="M107.52,72.24 C104.16,47.6 112,14 112,14 L79.52,16.8 C79.52,16.8 75.712,20.216 72.016,25.76 L39.536,9.968 C39.536,9.968 5.04,-15.12 24.64,14.56 C32.816,26.936 34.888,41.608 34.608,54.488 C34.216,69.72 28.84,84.336 19.712,96.544 C3.584,118.048 8.4,150.64 8.4,150.64 C8.4,150.64 6.496,157.248 13.216,155.568 C19.936,153.888 22.96,150.08 22.96,150.08 C22.96,150.08 16.016,137.648 46.816,109.648 C60.816,96.88 69.776,81.368 75.32,68.208 C90.16,92.568 81.76,132.72 81.76,132.72 C81.76,132.72 81.76,138.32 88.48,138.32 C95.2,138.32 93.52,134.4 93.52,134.4 C93.52,134.4 110.88,96.88 107.52,72.24 Z" id="Path" fill="#616987"></path>
                              </g>
                              <g id="Layer_4" transform="translate(130.480000, 185.360000)">
                                  <path d="M171.248,55.72 C169.624,53.144 167.16,51.24 164.248,50.288 C157.36,47.992 143.528,42.056 133.84,29.12 C127.232,20.328 119.224,10.864 117.88,10.08 C113.624,6.384 101.696,-1.512 78.512,0.56 C74.704,0.616 72.184,1.008 70.504,1.624 C69.776,1.736 68.992,1.904 68.208,2.072 L68.264,1.736 C68.264,1.736 67.984,1.848 66.92,2.352 C32.424,9.464 6.72,48.216 0.56,61.6 C-0.56,64.008 1.456,64.568 5.488,63.896 C5.544,67.536 7.112,71.12 9.968,73.64 L68.04,125.44 C72.52,129.416 79.072,129.976 84.168,126.728 L134.96,94.08 L167.048,74.368 C173.432,70.392 175.336,62.048 171.248,55.72 Z" id="Path" fill="#1C77B5"></path>
                                  <path d="M145.712,51.8 C145.712,51.8 142.8,54.32 124.88,48.16 C106.96,42 107.52,31.92 107.52,31.92 C107.52,31.92 105.84,52.08 120.4,61.6 C134.96,71.12 145.712,51.8 145.712,51.8" id="Path" fill="#1C63A3"></path>
                              </g>
                              <g id="Layer_3" transform="translate(123.200000, 189.280000)">
                                  <ellipse id="Oval" fill="#FECC53" transform="translate(94.717381, 91.895597) rotate(-52.892894) translate(-94.717381, -91.895597) " cx="94.7173808" cy="91.8955968" rx="56.5593535" ry="49.5594335"></ellipse>
                                  <path d="M129.92,56.56 C131.04,56.56 270.48,0 270.48,0 L271.6,1.12 L270.48,17.92 L257.04,24.08 L252,45.36 L235.76,52.08 L234.08,34.72 L230.16,36.96 L224.56,57.68 L122.08,105.84 L129.92,56.56 Z" id="Path" fill="#FECC53"></path>
                                  <path d="M196.896,69.944 C196.896,69.944 196.896,61.656 194.096,60.536 C191.296,59.416 195.776,69.496 191.856,66.696 C187.936,63.896 185.136,70.616 182.896,70.616 C180.656,70.616 180.88,77.784 180.88,77.784 C180.88,77.784 182.896,80.696 189.056,79.016 C195.216,77.336 196.896,69.944 196.896,69.944 Z" id="Path" fill="#E8D9CF"></path>
                                  <path d="M111.552,61.936 C117.152,67.088 120.176,75.04 119.056,84 C117.096,99.456 103.6,111.888 88.816,111.832 C85.792,111.832 82.936,111.272 80.36,110.32 C84.448,114.072 89.88,116.312188 96.096,116.312188 C110.88,116.368 124.432,103.88 126.336,88.48 C127.848,76.216 121.576,65.744 111.552,61.936 Z" id="Path" fill="#E5AE33"></path>
                                  <path d="M103.6,19.6 C103.6,19.6 88.48,36.96 59.92,21.28" id="Path" stroke="#1C63A3" stroke-width="0.56"></path>
                                  <path d="M84.28,173.32 L88.76,162.12 C88.76,162.12 90.44,171.64 102.2,182.84 C113.96,194.04 110.6,202.44 102.2,211.96 C93.8,221.48 91.392,235.2 91.392,235.2 C91.392,235.2 94.304,215.488 91.84,195.552 C89.88,179.536 84.448,174.552 84.448,174.552" id="Path" fill="#505975"></path>
                                  <path d="M41.832,91.672 C41.832,91.784 41.832,91.952 41.776,92.064 L50.624,96.88 C52.472,72.464 67.368,49.504 87.752,39.256 C64.456,44.968 45.024,66.248 41.832,91.672 Z" id="Path" fill="#E5AE33"></path>
                                  <path d="M52.64,89.6 C52.64,89.6 50.4,99.68 63.28,119.84 C76.16,140 91.84,142.24 91.84,142.24 C91.84,142.24 95.76,141.68 99.68,139.44 C103.6,137.2 106.96,133.84 106.96,136.08 C106.96,138.32 104.832,141.792 104.216,142.856 C103.6,143.92 108.976,142.408 108.976,142.408 C108.976,142.408 110.32,145.6 106.96,146.72 C103.6,147.84 109.2,154 99.68,156.24 C94.528,157.472 88.872,157.192 84.784,156.688 C81.032,156.24 77.28,156.072 73.472,156.24 C61.488,156.744 32.872,154.336 18.48,122.08 C-3.55271368e-15,80.64 52.64,89.6 52.64,89.6 Z" id="Path" fill="#E8D9CF"></path>
                                  <path d="M52.92,135.464 C70.616,146.496 91.84,142.24 91.84,142.24 C91.84,142.24 72.856,133.168 61.488,115.192" id="Path" fill="#E0CBBF"></path>
                                  <path d="M61.04,117.04 C61.04,117.04 42.952,84 59.528,56.56 C76.16,29.12 32.48,24.08 32.48,24.08 C32.48,24.08 0,50.4 0,94.08 C0,120.96 36.12,145.432 36.12,145.432 C36.12,145.432 49.84,141.68 56.56,131.04 C63.28,120.4 61.04,117.04 61.04,117.04 Z" id="Path" fill="#1C77B5"></path>
                                  <path d="M52.92,135.464 C44.688,130.312 37.184,121.856 33.04,108.08 C17.92,58.24 75.04,35.28 75.04,35.28 C75.04,35.28 51.912,48.104 53.2,89.04 C53.536,99.232 56.896,107.968 61.488,115.192 C61.488,115.192 61.824,122.136 58.912,127.4 C56,132.72 52.92,135.464 52.92,135.464 Z" id="Path" fill="#1C63A3"></path>
                              </g>
                              <g id="Layer_1" transform="translate(184.800000, 120.960000)">
                                  <path d="M21.056,54.096 C22.456,54.488 23.576,55.608 23.968,57.064 C24.416,58.632 25.256,61.264 26.88,65.576 C27.944,68.096 34.608,69.72 39.2,70.504 C41.776,70.952 43.344,73.64 42.504,76.104 C40.768,80.92 36.68,87.696 26.936,89.544 C15.792,91.616 7.616,88.368 2.688,85.232 C0.056,83.552 0.112,79.632 2.8,78.008 C5.432,76.44 8.568,74.2 11.312,71.064 C11.592,70.728 11.816,70.392 11.984,70 C13.944,65.52 16.184,52.696 16.744,49.28 C17.248,46.76 18.592,53.368 21.056,54.096 L21.056,54.096 Z" id="Fill-71_1_" fill="#E8D9CF"></path>
                                  <path d="M24.64,66.64 L24.864,54.208 L15.12,48.72 C15.12,48.72 16.24,57.12 19.04,61.6 C22.4,66.64 24.64,67.2 24.64,67.2" id="Fill-73_1_" fill="#CEB7AA"></path>
                                  <path d="M22.624,30.856 C22.624,30.856 28.168,16.632 27.552,13.216 C26.936,9.856 21.952,11.144 20.384,13.216 C18.816,15.288 18.648,9.016 17.584,2.912 C16.464,-3.192 9.408,0.784 3.92,16.856 C-1.568,32.928 5.992,39.256 5.992,39.256 C5.992,39.256 -0.504,35.224 0.224,40.656 C0.952,46.032 10.752,43.96 10.752,43.96 L19.208,39.928 L22.624,30.856 Z" id="Fill-75_1_" fill="#616987"></path>
                                  <path d="M24.136,27.048 C24.136,27.048 23.072,35.224 31.08,39.872 C39.032,44.52 45.36,52.584 35.896,59.36 C26.488,66.136 10.584,49.896 8.176,39.984 C5.824,30.128 8.288,19.6 14.672,19.208 C25.256,18.592 24.136,27.048 24.136,27.048" id="Fill-77_1_" fill="#E8D9CF"></path>
                                  <polygon id="Fill-79_1_" fill="#DBAE95" points="21.56 32.312 33.992 34.44 29.176 41.888"></polygon>
                                  <path d="M15.848,45.024 C15.848,45.024 12.376,37.24 7,41.216 C3.472,43.848 6.104,48.72 9.856,49.392 C13.664,50.12 15.848,45.024 15.848,45.024" id="Fill-81_1_" fill="#DBAE95"></path>
                                  <polygon id="Path" fill="#E5AE33" points="83.664 141.96 159.04 109.2 158.48 113.68 112 133.84 107.072 143.08 100.408 146.552 95.76 143.36 84 148.96"></polygon>
                                  <polygon id="Path" fill="#E5AE33" points="176.96 101.36 190.4 95.76 189.84 99.12 176.96 105.28"></polygon>
                                  <polygon id="Path" fill="#FFFFFF" points="74.704 122.08 75.992 123.816 210 69.44 208.88 68.32"></polygon>
                              </g>
                          </g>
                      </g>
                  </g>
              </g>
          </svg>