<?xml version="1.0" encoding="utf-8"?>
<!-- Generator: Adobe Illustrator 22.0.1, SVG Export Plug-In . SVG Version: 6.00 Build 0)  -->
<svg version="1.1" id="Layer_1" xmlns="http://www.w3.org/2000/svg" xmlns:xlink="http://www.w3.org/1999/xlink" x="0px" y="0px"
	 viewBox="0 0 48 48" style="enable-background:new 0 0 48 48;" xml:space="preserve">
<style type="text/css">
	.st0{fill:#72BBFF;}
	.st1{fill:#333D56;}
	.st2{fill:#FF5D5D;}
</style>
<title>Illustration / Target</title>
<desc>Created with Sketch.</desc>
<g id="Illustration-_x2F_-Target">
	<path id="Combined-Shape" class="st0" d="M34.5,17.6c1.1,1.9,1.8,4.1,1.8,6.4c0,6.8-5.5,12.3-12.3,12.3S11.7,30.8,11.7,24
		S17.2,11.7,24,11.7c2.2,0,4.3,0.6,6,1.6l-3,3.4c-0.9-0.4-1.9-0.6-3-0.6c-4.2,0-7.6,3.4-7.6,7.6s3.4,7.6,7.6,7.6s7.6-3.4,7.6-7.6
		c0-1.1-0.2-2.1-0.6-3.1L34.5,17.6z M36.3,16l1.3-1.2l2.2,0c1.6,2.7,2.5,5.8,2.5,9.2c0,10.1-8.2,18.3-18.3,18.3S5.7,34.1,5.7,24
		S13.9,5.7,24,5.7c3.5,0,6.7,1,9.5,2.7v0.9l-1.9,2.2c-2.2-1.3-4.8-2.1-7.6-2.1C15.9,9.3,9.3,15.9,9.3,24S15.9,38.7,24,38.7
		S38.7,32.1,38.7,24C38.7,21,37.8,18.3,36.3,16z"/>
	<path id="Combined-Shape_1_" class="st1" d="M42.2,11.7l-1.2,1.2c0,0,0,0,0,0l0,0c-0.2,0.2-0.5,0.4-0.8,0.4h-4.1l-9.2,9.2
		c0.2,0.5,0.4,1,0.4,1.5c0,1.8-1.5,3.3-3.3,3.3s-3.3-1.5-3.3-3.3s1.5-3.3,3.3-3.3c0.5,0,0.9,0.1,1.3,0.3l9.6-9.6V8.2
		c0-0.2,0-0.4,0.1-0.5l2.5-2.8c0.7-0.7,1.4-1.5,2.1-2.2c0.7-0.8,2-0.2,2,0.9v1.1c0,0.7,0.5,1.3,1.2,1.3h2c1,0,1.6,1.3,0.8,2.1
		L42.2,11.7C42.2,11.7,42.2,11.7,42.2,11.7z M43.3,13.3C45,16.5,46,20.1,46,24c0,12.2-9.8,22-22,22S2,36.2,2,24S11.8,2,24,2
		c4,0,7.7,1.1,11,2.9l-1.2,1.2c-2.9-1.6-6.2-2.5-9.8-2.5C12.8,3.7,3.7,12.8,3.7,24S12.8,44.3,24,44.3S44.3,35.2,44.3,24
		c0-3.4-0.8-6.6-2.3-9.4L43.3,13.3z M27.4,16.3l-1.1,1.3c-0.7-0.3-1.5-0.4-2.3-0.4c-3.7,0-6.8,3-6.8,6.8s3,6.8,6.8,6.8
		s6.8-3,6.8-6.8c0-0.9-0.2-1.8-0.5-2.6l1.3-1.2c0.6,1.1,0.9,2.4,0.9,3.7c0,4.7-3.8,8.4-8.4,8.4s-8.4-3.8-8.4-8.4s3.8-8.4,8.4-8.4
		C25.2,15.6,26.4,15.8,27.4,16.3z"/>
	<path id="Combined-Shape_2_" class="st2" d="M25.3,21l-1.5,1.5c-0.5,0.5-0.5,1.2-0.1,1.7c0.4,0.4,1.1,0.5,1.5,0.1c0,0,0,0,0.1-0.1
		l1.6-1.7c0.2,0.5,0.4,1,0.4,1.5c0,1.9-1.5,3.4-3.4,3.4c-1.9,0-3.4-1.5-3.4-3.4c0-1.9,1.5-3.4,3.4-3.4C24.4,20.7,24.9,20.8,25.3,21z
		"/>
</g>
</svg>
