<?xml version="1.0" encoding="utf-8"?>
<!-- Generator: Adobe Illustrator 22.0.1, SVG Export Plug-In . SVG Version: 6.00 Build 0)  -->
<svg version="1.1" id="Layer_1" xmlns="http://www.w3.org/2000/svg" xmlns:xlink="http://www.w3.org/1999/xlink" x="0px" y="0px"
	 viewBox="0 0 32 32" style="enable-background:new 0 0 32 32;" xml:space="preserve">
<style type="text/css">
	.st0{clip-path:url(#SVGID_2_);fill:#BAC6D2;}
	.st1{clip-path:url(#SVGID_4_);fill:#BAC6D2;}
	.st2{clip-path:url(#SVGID_6_);fill:#BAC6D2;}
	.st3{clip-path:url(#SVGID_8_);fill:#BAC6D2;}
	.st4{clip-path:url(#SVGID_10_);fill:#BAC6D2;}
	.st5{clip-path:url(#SVGID_12_);fill:#BAC6D2;}
	.st6{clip-path:url(#SVGID_14_);fill:#D6DDE4;}
	.st7{clip-path:url(#SVGID_16_);fill:#BAC6D2;}
	.st8{clip-path:url(#SVGID_18_);enable-background:new    ;}
	.st9{clip-path:url(#SVGID_20_);}
	.st10{clip-path:url(#SVGID_22_);fill:#536A81;}
	.st11{clip-path:url(#SVGID_24_);}
	.st12{clip-path:url(#SVGID_26_);fill:#F06F6F;}
	.st13{clip-path:url(#SVGID_28_);fill:#BAC6D2;}
	.st14{clip-path:url(#SVGID_30_);enable-background:new    ;}
	.st15{clip-path:url(#SVGID_32_);}
	.st16{clip-path:url(#SVGID_34_);fill:#536A81;}
	.st17{clip-path:url(#SVGID_36_);}
	.st18{clip-path:url(#SVGID_38_);fill:#69BDFF;}
	.st19{clip-path:url(#SVGID_40_);fill:#BAC6D2;}
	.st20{clip-path:url(#SVGID_42_);enable-background:new    ;}
	.st21{clip-path:url(#SVGID_44_);}
	.st22{clip-path:url(#SVGID_46_);fill:#536A81;}
	.st23{clip-path:url(#SVGID_48_);}
	.st24{clip-path:url(#SVGID_50_);fill:#3BA9FF;}
</style>
<g>
	<defs>
		<path id="SVGID_1_" d="M20.3,3h4.6c0.6,0,1,0.4,1,1c0,0.1,0,0.2,0,0.3l-1.5,5c-0.1,0.4-0.5,0.7-1,0.7h-3L20.3,3z"/>
	</defs>
	<clipPath id="SVGID_2_">
		<use xlink:href="#SVGID_1_"  style="overflow:visible;"/>
	</clipPath>
	<rect x="15.1" y="-2" class="st0" width="16" height="17"/>
</g>
<g>
	<defs>
		<path id="SVGID_3_" d="M20.3,12h4.6c0.6,0,1,0.4,1,1c0,0.1,0,0.2,0,0.3l-1.5,5c-0.1,0.4-0.5,0.7-1,0.7h-3L20.3,12z"/>
	</defs>
	<clipPath id="SVGID_4_">
		<use xlink:href="#SVGID_3_"  style="overflow:visible;"/>
	</clipPath>
	<rect x="15.1" y="7" class="st1" width="16" height="17"/>
</g>
<g>
	<defs>
		<path id="SVGID_5_" d="M20.3,21h4.6c0.6,0,1,0.4,1,1c0,0.1,0,0.2,0,0.3l-1.5,5c-0.1,0.4-0.5,0.7-1,0.7h-3L20.3,21z"/>
	</defs>
	<clipPath id="SVGID_6_">
		<use xlink:href="#SVGID_5_"  style="overflow:visible;"/>
	</clipPath>
	<rect x="15.1" y="16" class="st2" width="16" height="17"/>
</g>
<g>
	<defs>
		<path id="SVGID_7_" d="M11.7,3H7C6.5,3,6,3.4,6,4c0,0.1,0,0.2,0,0.3l1.5,5c0.1,0.4,0.5,0.7,1,0.7h3L11.7,3z"/>
	</defs>
	<clipPath id="SVGID_8_">
		<use xlink:href="#SVGID_7_"  style="overflow:visible;"/>
	</clipPath>
	<rect x="0.9" y="-2" class="st3" width="16" height="17"/>
</g>
<g>
	<defs>
		<path id="SVGID_9_" d="M11.7,12H7c-0.6,0-1,0.4-1,1c0,0.1,0,0.2,0,0.3l1.5,5c0.1,0.4,0.5,0.7,1,0.7h3L11.7,12z"/>
	</defs>
	<clipPath id="SVGID_10_">
		<use xlink:href="#SVGID_9_"  style="overflow:visible;"/>
	</clipPath>
	<rect x="0.9" y="7" class="st4" width="16" height="17"/>
</g>
<g>
	<defs>
		<path id="SVGID_11_" d="M11.7,21H7c-0.6,0-1,0.4-1,1c0,0.1,0,0.2,0,0.3l1.5,5C7.6,27.7,8,28,8.5,28h3L11.7,21z"/>
	</defs>
	<clipPath id="SVGID_12_">
		<use xlink:href="#SVGID_11_"  style="overflow:visible;"/>
	</clipPath>
	<rect x="0.8" y="16" class="st5" width="16" height="17"/>
</g>
<g>
	<defs>
		<path id="SVGID_13_" d="M11.5,2h9.4c0.4,0,0.7,0.3,0.7,0.7L22.1,29c0,0.6-0.4,1-1,1c0,0,0,0,0,0H10.9c-0.6,0-1-0.4-1-1
			c0,0,0,0,0,0l1-26.3C10.8,2.3,11.1,2,11.5,2z"/>
	</defs>
	<clipPath id="SVGID_14_">
		<use xlink:href="#SVGID_13_"  style="overflow:visible;"/>
	</clipPath>
	<rect x="4.7" y="-3" class="st6" width="22.6" height="38"/>
</g>
<g>
	<defs>
		<ellipse id="SVGID_15_" cx="16" cy="7.8" rx="3.1" ry="3"/>
	</defs>
	<clipPath id="SVGID_16_">
		<use xlink:href="#SVGID_15_"  style="overflow:visible;"/>
	</clipPath>
	<rect x="7.7" y="-0.2" class="st7" width="16.5" height="16"/>
</g>
<g>
	<defs>
		<ellipse id="SVGID_17_" cx="16" cy="6.5" rx="3.6" ry="3.5"/>
	</defs>
	<clipPath id="SVGID_18_">
		<use xlink:href="#SVGID_17_"  style="overflow:visible;"/>
	</clipPath>
	<g class="st8">
		<g>
			<defs>
				<rect id="SVGID_19_" x="6.7" y="-2" width="18.6" height="17"/>
			</defs>
			<clipPath id="SVGID_20_">
				<use xlink:href="#SVGID_19_"  style="overflow:visible;"/>
			</clipPath>
			<g class="st9">
				<defs>
					<rect id="SVGID_21_" x="11.9" y="3" width="8.2" height="7"/>
				</defs>
				<clipPath id="SVGID_22_">
					<use xlink:href="#SVGID_21_"  style="overflow:visible;"/>
				</clipPath>
				<rect x="7.2" y="-2" class="st10" width="17.5" height="17"/>
			</g>
			<g class="st9">
				<defs>
					<ellipse id="SVGID_23_" cx="16" cy="7.7" rx="2.8" ry="2.7"/>
				</defs>
				<clipPath id="SVGID_24_">
					<use xlink:href="#SVGID_23_"  style="overflow:visible;"/>
				</clipPath>
				<g class="st11">
					<defs>
						<rect id="SVGID_25_" x="11.9" y="3" width="8.2" height="7"/>
					</defs>
					<clipPath id="SVGID_26_">
						<use xlink:href="#SVGID_25_"  style="overflow:visible;"/>
					</clipPath>
					<rect x="8.1" class="st12" width="15.9" height="15.4"/>
				</g>
			</g>
		</g>
	</g>
</g>
<g>
	<defs>
		<ellipse id="SVGID_27_" cx="16" cy="16.8" rx="3.1" ry="3"/>
	</defs>
	<clipPath id="SVGID_28_">
		<use xlink:href="#SVGID_27_"  style="overflow:visible;"/>
	</clipPath>
	<rect x="7.7" y="8.8" class="st13" width="16.5" height="16"/>
</g>
<g>
	<defs>
		<ellipse id="SVGID_29_" cx="16" cy="15.5" rx="3.6" ry="3.5"/>
	</defs>
	<clipPath id="SVGID_30_">
		<use xlink:href="#SVGID_29_"  style="overflow:visible;"/>
	</clipPath>
	<g class="st14">
		<g>
			<defs>
				<rect id="SVGID_31_" x="6.7" y="7" width="18.6" height="17"/>
			</defs>
			<clipPath id="SVGID_32_">
				<use xlink:href="#SVGID_31_"  style="overflow:visible;"/>
			</clipPath>
			<g class="st15">
				<defs>
					<rect id="SVGID_33_" x="11.9" y="12" width="8.2" height="7"/>
				</defs>
				<clipPath id="SVGID_34_">
					<use xlink:href="#SVGID_33_"  style="overflow:visible;"/>
				</clipPath>
				<rect x="7.2" y="7" class="st16" width="17.5" height="17"/>
			</g>
			<g class="st15">
				<defs>
					<ellipse id="SVGID_35_" cx="16" cy="16.7" rx="2.8" ry="2.7"/>
				</defs>
				<clipPath id="SVGID_36_">
					<use xlink:href="#SVGID_35_"  style="overflow:visible;"/>
				</clipPath>
				<g class="st17">
					<defs>
						<rect id="SVGID_37_" x="11.9" y="12" width="8.2" height="7"/>
					</defs>
					<clipPath id="SVGID_38_">
						<use xlink:href="#SVGID_37_"  style="overflow:visible;"/>
					</clipPath>
					<rect x="8" y="9" class="st18" width="15.9" height="15.4"/>
				</g>
			</g>
		</g>
	</g>
</g>
<g>
	<defs>
		<ellipse id="SVGID_39_" cx="16" cy="25.8" rx="3.1" ry="3"/>
	</defs>
	<clipPath id="SVGID_40_">
		<use xlink:href="#SVGID_39_"  style="overflow:visible;"/>
	</clipPath>
	<rect x="7.7" y="17.8" class="st19" width="16.5" height="16"/>
</g>
<g>
	<defs>
		<ellipse id="SVGID_41_" cx="16" cy="24.5" rx="3.6" ry="3.5"/>
	</defs>
	<clipPath id="SVGID_42_">
		<use xlink:href="#SVGID_41_"  style="overflow:visible;"/>
	</clipPath>
	<g class="st20">
		<g>
			<defs>
				<rect id="SVGID_43_" x="6.7" y="16" width="18.6" height="17"/>
			</defs>
			<clipPath id="SVGID_44_">
				<use xlink:href="#SVGID_43_"  style="overflow:visible;"/>
			</clipPath>
			<g class="st21">
				<defs>
					<rect id="SVGID_45_" x="11.9" y="21" width="8.2" height="7"/>
				</defs>
				<clipPath id="SVGID_46_">
					<use xlink:href="#SVGID_45_"  style="overflow:visible;"/>
				</clipPath>
				<rect x="7.2" y="16" class="st22" width="17.5" height="17"/>
			</g>
			<g class="st21">
				<defs>
					<ellipse id="SVGID_47_" cx="16" cy="25.7" rx="2.8" ry="2.7"/>
				</defs>
				<clipPath id="SVGID_48_">
					<use xlink:href="#SVGID_47_"  style="overflow:visible;"/>
				</clipPath>
				<g class="st23">
					<defs>
						<rect id="SVGID_49_" x="11.9" y="21" width="8.2" height="7"/>
					</defs>
					<clipPath id="SVGID_50_">
						<use xlink:href="#SVGID_49_"  style="overflow:visible;"/>
					</clipPath>
					<rect x="8" y="18" class="st24" width="15.9" height="15.4"/>
				</g>
			</g>
		</g>
	</g>
</g>
</svg>
